<?xml version="1.0" encoding="utf-8"?>
<!-- Generator: Adobe Illustrator 16.0.0, SVG Export Plug-In . SVG Version: 6.00 Build 0)  -->
<!DOCTYPE svg PUBLIC "-//W3C//DTD SVG 1.1//EN" "http://www.w3.org/Graphics/SVG/1.1/DTD/svg11.dtd">
<svg version="1.1" id="Layer_1" xmlns="http://www.w3.org/2000/svg" xmlns:xlink="http://www.w3.org/1999/xlink" x="0px" y="0px"
	 width="358px" height="338px" viewBox="0 0 358 338" enable-background="new 0 0 358 338" xml:space="preserve">
<g>
	<path fill="#1B2124" d="M84.425,19.096c6.248-6.27,13.767-10.303,22.513-11.325c13.516-1.579,27.092-2.612,40.638-3.913
		c2.726-0.263,5.436-0.693,8.151-1.044c4.288-0.863,8.659-1.326,12.992-1.445c9.636-0.266,19.308-0.481,28.925,0.038
		c8.43,0.454,16.887,1.028,25.261,2.306l-0.088-0.048c2.896,0.693,6.286,0.076,8.3,3.118c0.825,0.507,1.647,1.016,2.473,1.523
		c1.309,0.471,2.688,0.878,2.338,2.756c-1.675,0.993-2.936-0.126-4.15-0.946c-1.486-1.008-3.054-1.268-4.775-1.029
		c-16.706-2.324-33.461-3.56-50.343-3.29c-12.13,0.194-24.084,2.08-36.112,3.202c-8.986,0.838-17.988,1.529-26.98,2.234
		c-8.033,0.629-15.263,2.988-21.867,7.485c-1.385,0.942-2.715,2.037-4.527,2.054C85.975,20.67,85.038,20.152,84.425,19.096z"/>
	<path fill="#1D1D1D" d="M289.842,286.924c-0.215,0.258-0.43,0.516-0.644,0.775c-1.048,1.992-2.268,3.793-4.635,4.393
		c-0.735-0.207-1.154-0.691-1.27-1.443c0.449-2.724,2.926-4.177,4.066-6.479c6.656-7.57,11.382-16.214,14.759-25.698
		c4-11.226,8.986-22.091,11.765-33.767c2.269-9.539,3.679-19.151,4.661-28.902c1.181-11.766,0.525-23.523,0.819-35.282
		c0.064-2.6-0.107-5.34,2.962-6.611c2.184-0.682,4.261,0.048,6.304,0.616c6.146,1.716,12.417,1.708,18.692,1.398
		c5.883-0.292,7.924-3.883,5.953-9.479c-0.789-2.248-3.649-4.032-1.855-6.978c4.993,2.944,7.317,11.095,4.506,15.714
		c-1.184,1.953-2.94,3.365-5.129,3.363c-5.752-0.005-11.528,0.62-17.266-0.325c-3.333-0.547-6.666-1.095-10.234-1.682
		c0,9.367,0,18.692,0,28.012c-0.922,2.182,0.127,4.564-0.693,6.756c-0.078,1.698-0.156,3.398-0.234,5.096
		c-0.752,1.604,0.02,3.419-0.702,5.031c-0.074,1.384-0.146,2.771-0.22,4.157c-0.771,1.605,0.065,3.45-0.747,5.05
		c-2.669,10.225-4.444,20.746-8.533,30.518c-5.545,13.271-8.965,27.503-17.485,39.463c-0.597,0.829-1.195,1.658-1.794,2.484
		C292.208,284.65,291.188,285.916,289.842,286.924z"/>
	<path fill="#1C1C1C" d="M3.642,218.158c-1.861-4.492-3.51-9.039-3.783-13.96c-0.774-1.593,0.05-3.417-0.723-5.012
		c0.001-8.001,0.001-16.003,0.002-24.003c0.753-1.598-0.02-3.406,0.689-5.01c0.521-9.056,3.476-17.574,5.783-26.233
		c0.427-1.762,0.912-3.501,1.824-5.089c3.393-6.733,7.37-13.061,12.793-18.382c1.823-0.941,2.845-2.978,4.914-3.585
		c0.821-0.671,1.644-1.343,2.468-2.012c1.945-1.226,3.652-2.852,5.943-3.488c4.504-3.34,9.909-4.156,15.176-5.292
		c1.331-0.289,2.611-0.525,3.75-1.283c2.868-0.866,3.045,0.842,2.829,2.935c-1.188,1.111-2.76,1.331-4.236,1.627
		c-23.749,4.782-37.25,19.617-43.811,42.497c-4.626,16.14-4.232,32.383-4.134,48.754c0.008,1.405,0.519,2.702,0.715,4.059
		c0.831,5.662,2.643,10.99,5.247,16.086c0.952,1.859,2.341,3.693,1.494,6.033c-1.474,1.4-2.041-0.068-2.639-0.937
		c-1.095-1.587-1.609-3.503-2.745-5.077C4.259,220.162,4.341,218.93,3.642,218.158z"/>
	<path fill="#1A1A1A" d="M253.414,323.877c-0.984,1.094-1.969,2.186-2.954,3.276c-1.452,2.446-3.965,3.198-6.434,4.022
		c-4.13,1.731-8.435,3.158-12.308,5.348c-1.471,0.832-2.773,0.8-4.162,1.124c-1.519,1.028-3.394-0.033-4.941,0.832
		c-2.347,0.064-4.701,0.129-7.047,0.191c-2.758,0.564-5.514,0.552-8.271,0.008c-3.281-0.064-6.558-0.13-9.84-0.191
		c-1.861-0.885-3.951,0.105-5.822-0.708c-1.453-0.067-2.908-0.135-4.359-0.201c-2.468-1.039-5.162,0.244-7.632-0.749
		c-4.855-0.665-9.716-1.327-14.572-1.989c-1.451-1.006-3.334,0.231-4.759-0.911l0.045,0.012c-1.72-1.172-3.934,0.389-5.614-1.018
		c-8.443-1.922-16.961-3.59-25.309-5.872c-4.844-1.324-9.916-1.924-14.519-4.113c-0.831-1.326-3.694,0.798-3.593-2.113
		c1.611-2.193,3.748-1.62,5.86-1.088c14.126,3.576,28.185,7.42,42.485,10.312c21.325,4.314,42.85,5.751,64.52,4.347
		c7.604-0.49,14.358-4.181,20.981-7.78C248.11,326.301,249.944,322.615,253.414,323.877z"/>
	<path fill="#171C20" d="M228.376,8.456c1.021-1.776,1.879-0.424,2.896,0.069c1.585,0.768,2.702,2.484,4.726,2.358
		c2.401,0.254,3.31,2.145,4.311,3.929l-0.067-0.085c1.336,1.534,3.047,2.774,3.798,4.775c0.843,1.17,1.687,2.34,2.532,3.511
		c1.621,1.247,2.174,3.142,2.973,4.889c1.34,3.496,2.257,7.232,4.1,10.441c5.936,10.332,9.068,21.84,14.121,32.526
		c1.452,1.129,1.126,3.13,2.202,4.443l0.02,0.029c0.283,0.482,0.244,0.94-0.111,1.371c-2.076,2.152-4.724,2.813-7.573,2.628
		c-21.652-1.424-40.564,6.504-58.715,17.074c-2.384,1.389-4.646,3.014-7.213,4.057c-1.309,0.531-2.732,1.736-4.125,0.065
		c-0.207-1.281,0.608-1.998,1.535-2.573c20.248-12.511,41.141-23.143,65.848-22.896c4.904,0.049,4.949-0.249,3.238-4.99
		c-4.526-12.532-10.035-24.638-15.734-36.665c-4.041-8.54-9.375-16.093-16.819-22.042C229.359,10.61,228.322,9.893,228.376,8.456z"
		/>
	<path fill="#212121" d="M5.244,219.943c2.689,1.713,2.53,5.307,4.821,7.284c4.536,5.751,8.86,11.662,13.31,17.479
		c7.068,9.246,13.914,18.812,22.323,26.758c14.738,13.928,29.003,28.672,47.997,37.23c4.469,2.012,8.363,5.094,12.823,7.18
		c1.743,0.814,3.611,1.911,3.158,4.455c-0.646,0.441-1.275,0.32-1.896-0.057c-8.834-4.236-17.377-9.01-25.857-13.906
		c-1.809-1.23-3.725-2.299-5.477-3.62c-0.935-0.634-1.868-1.267-2.805-1.901c-1.176-1.001-2.578-1.744-3.494-3.04l0.09,0.077
		c-2.87-1.016-4.191-3.95-6.707-5.405c-1.272-1.198-2.542-2.397-3.813-3.594c-1.918-1.446-3.447-3.331-5.405-4.728
		c-1.245-1.187-2.493-2.373-3.738-3.558c-3.034-2.436-5.746-5.194-8.227-8.185c-0.602-0.646-1.204-1.291-1.806-1.936
		c-1.281-2.068-3.36-3.469-4.645-5.536c-0.278-0.298-0.558-0.6-0.838-0.901c-0.933-1.208-1.87-2.412-2.849-3.587
		c-1.832-2.179-3.665-4.361-5.499-6.542c-1.036-1.725-2.746-2.92-3.716-4.697c-6.167-8.618-13.662-16.369-17.384-26.58
		C4.771,221.833,4.938,220.896,5.244,219.943z"/>
	<path fill="#171D20" d="M55.247,107.555c-0.675-1.163-0.962-2.718-2.767-2.746c0.336-0.531,0.671-1.06,1.007-1.592
		c0.867-1.516-0.074-3.308,0.731-4.834c1.101-9.522,4.901-18.206,9.096-26.605c4.432-8.872,6.449-18.42,9.292-27.749
		c1.697-4.175,2.482-8.618,3.814-12.901c-0.085-0.704-0.158-1.404,0.52-1.902c1.584-1.553,1.937-3.776,3.038-5.591l-0.066,0.082
		c1.217-1.381,2.7-2.515,3.758-4.043c0.251-0.192,0.506-0.383,0.758-0.576c0.851,0.128,1.706,0.242,2.154,1.13
		c-4.858,6.068-8.121,12.957-9.45,20.551c-1.036,5.9-2.499,11.657-4.083,17.408c-1.387,5.034-3.141,9.941-5.529,14.574
		c-3.89,7.549-5.897,15.737-8.425,23.752c-0.367,1.166-0.544,2.385-0.673,3.605c-0.516,4.879-0.202,5.048,4.702,5.377
		c2.39,0.162,5.6-1.451,6.899,2.268c-0.808,0.735-1.802,0.933-2.839,1.01c-2.825,0.103-5.653-0.01-8.479,0.085
		C57.371,108.904,55.971,109.126,55.247,107.555z"/>
	<path fill="#080505" d="M253.414,323.877c-2.477,1.214-4.953,2.43-7.431,3.641c-0.929-0.878-0.985-1.953-0.7-3.103
		c0.828-2.263,3.024-3.483,4.182-5.491c0.102-0.176,0.219-0.348,0.321-0.521c0.101-0.175,0.218-0.341,0.32-0.513
		c0.827-1.438,2.083-2.393,3.538-3.126c0.845-0.489,1.615-1.089,2.417-1.645c1.187-0.72,2.233-1.612,3.208-2.597
		c0.444-0.428,0.923-0.807,1.43-1.152c1.748-1.098,3.444-2.295,5.396-3.035c5.141-2.928,8.093-7.75,10.988-12.613
		c0.145-0.381,0.328-0.748,0.527-1.104c0.523-0.851,1.226-1.557,1.925-2.265c0.68-0.678,1.372-1.352,2.045-2.043
		c0.974-0.958,1.908-1.96,3.079-2.698c0.898-0.444,1.779-1.015,2.828-0.411c-0.102,2.607-2.901,3.401-3.726,5.521
		c-1.269,3.713-4.084,6.381-6.372,9.406c-3.41,4.502-7.524,8.389-11.116,12.734C261.342,315.779,257.927,320.469,253.414,323.877z"
		/>
	<path fill="#292929" d="M266.276,312.861c3.174-7.34,10.098-11.773,14.286-18.351c0.857-1.343,1.466-3.101,3.202-3.79
		c0.386,0.341,0.777,0.68,1.168,1.021c0.241,0.71,0.284,1.346-0.62,1.625c-3.266,3-5.484,6.799-7.921,10.428
		c-2.451,2.799-5.078,5.422-7.787,7.968C267.83,312.129,267.053,312.495,266.276,312.861z"/>
	<path fill="#1B2124" d="M76.418,31.128c-0.482,4.532-1.166,9.006-3.814,12.899C73.185,39.524,74.472,35.229,76.418,31.128z"/>
	<path fill="#1B2124" d="M79.977,23.632c-0.247,2.28-0.836,4.373-3.039,5.593C77.658,27.204,78.144,25.051,79.977,23.632z"/>
	<path fill="#1B2124" d="M83.669,19.67c-0.459,2.083-1.863,3.291-3.758,4.045C80.535,21.785,82.038,20.668,83.669,19.67z"/>
	<path fill="#81B8D8" d="M70.245,107.449c-3.564-1.308-7.294-0.452-10.934-0.821c-1.802-0.183-2.919-0.127-2.555-2.853
		c1.457-10.877,4.667-21.206,9.402-31.011c4.779-9.892,7.313-20.378,9.696-30.989c1.793-7.994,3.287-16.29,10.726-21.548
		c4.362-2.156,8-5.483,12.612-7.312c8.329-3.304,17.138-3.454,25.792-3.955c9.347-0.541,18.672-1.445,27.904-2.631
		c22.542-2.895,44.964-1.817,67.42,0.414c2.718,0.27,5.378,1.126,8.068,1.713c10.462,7.418,16.882,17.702,22.084,29.248
		c5.03,11.171,9.817,22.414,14.192,33.843c0.531,1.386,1.512,2.684,1.096,4.808c-27.599-2.056-50.88,9.47-73.202,23.875
		c-1.278,3.12-4.55,3.751-6.944,5.455c-1.588,1.13-3.244,2.168-4.776,3.387c-5.703,3.939-10.563,8.812-15.327,13.804
		c-2.531,4.22-6.893,4.172-10.905,4.287c-8.21,0.233-16.431,0.19-24.643,0.014c-0.508-0.024-1.018-0.107-1.514-0.222
		c-1.618-0.605-3.312-0.714-5.022-0.687c-3.379-0.134-6.517-1.081-9.433-2.775c-1.324-1.211-2.874-1.908-4.686-2.001
		c-2.668-0.467-5.093-1.653-7.602-2.585c-3.29-1.35-6.893-1.895-9.959-3.824c-1.286-1.199-2.81-1.802-4.574-1.812
		c-1.128-0.11-2.173-0.439-3.089-1.118c-2.546-2.068-5.638-2.406-8.734-2.734C73.64,108.755,71.557,109.092,70.245,107.449z"/>
	<path d="M180.463,108.221c3.438-3.547,8.141-5.198,12.083-7.988c4.453,0.125,7.315-3.228,10.788-5.121
		c11.702-6.382,23.427-12.677,36.639-15.358c4.599-0.934,9.334-1.331,14.03-1.592c5.396-0.301,10.911,0.651,16.028-1.921
		c12.85,1.207,23.937,6.991,34.582,13.658c5.299,3.317,10.129,7.381,15.167,11.108c1.107,1.085,2.328,2.027,3.626,2.874
		c8.881,7.224,15.592,16.322,21.929,25.691c2.15,3.183,5.086,6.001,5.773,10.052c0.848,2.952,3.239,5.106,3.98,8.184
		c1.265,5.233-1.418,9.104-6.836,9.4c-8.747,0.483-17.324-0.61-25.802-2.687c-1.437,0.757-2.805,0.717-4.34,0.065
		c-9.532-4.043-19.769-6.1-29.271-10.24c-0.787,0.25-3.572-1.443-1.703,1.407c13.937,21.25,12.203,44.224,5.969,66.903
		c-3.105,11.297-10.679,21.236-20.533,28.211c-7.904,5.588-17.568,7.187-27.127,7.755c-6.402,0.382-12.859,0.573-19.292-0.425
		c-6.108-0.946-9.945-5.877-15.24-8.239c-2.646-1.183-5.196-2.724-7.497-4.482c-8.182-6.255-17.6-6.534-27.229-5.932
		c-2.682,0.167-5.047,1.338-7.199,2.843c-5.277,3.694-10.793,7.178-15.529,11.477c-5.182,4.703-11.149,6.487-17.662,6.613
		c-13.446,0.256-26.983,1.404-39.845-4.567c-4.687-2.177-10.193-2.048-15.37-2.663c-3.363-0.403-6.68-0.996-9.909-2.015
		c-12.536-3.958-17.339-10.687-18.669-23.753c-1.964-19.271-0.678-38.264,3.705-57.042c1.717-7.354,4.914-14.221,10.246-19.792
		c4.89-5.112,10.911-7.574,18.082-7.738c15.681-0.358,31.223,0.99,46.819,2.449c16.253,1.519,32.466-0.423,48.558-3.009
		c19.427-3.118,38.94-4.818,58.638-3.604c1.387,0.083,2.719,0.398,2.951,0.427c1.737,0.26,0.787-0.715,0.994-0.139
		c0.053,0.146-0.096,0.242-0.402,0.15c-3.578-1.053-7.366,0.273-10.912-0.972c-1.104-0.378,0.322-1.742-0.844-2.111
		c-9.957-0.121-19.855-1.146-29.783-0.663c-8.686,0.424-17.365,1.005-26.058,1.229c-0.742,0.196-1.492,0.242-2.249,0.144
		c-1.993-0.666-3.932-1.524-6.016-1.936c-1.217-0.667-1.693-1.523-0.702-2.75C170.252,117.579,175.227,112.755,180.463,108.221z"/>
	<path fill="#1A0605" d="M289.312,143.438c9.746,3.842,20.131,5.879,29.627,10.394c1.199,0.569,2.313,0.607,3.512,0.685
		c-1.606,1.249-1.907,2.907-1.857,4.863c0.113,4.747-0.055,9.498,0.05,14.248c0.627,28.779-4.868,56.277-16.289,82.762
		c-3.505,8.133-6.811,16.23-11.865,23.549c-1.413,2.048-2.922,3.896-5.002,5.264c-0.901,0.324-1.803,0.647-2.707,0.973
		c-0.146-0.158-0.295-0.318-0.442-0.474c-0.433-2.737,2.016-3.913,3.205-5.744c1.574-2.417,3.551-4.567,4.826-7.19
		c0.921-1.6,1.355-3.424,2.367-4.979c2.96-3.892,3.73-8.71,5.521-13.085c4.179-10.213,8.289-20.436,11.03-31.183
		c3.657-14.353,5.226-28.903,5.269-43.666c0.021-6.591-0.132-13.185,0.056-19.771c0.101-3.646-1.172-5.534-4.824-6.542
		c-7.675-2.121-15.307-4.461-22.519-7.944C288.766,144.866,288.754,144.146,289.312,143.438z"/>
	<path fill="#150505" d="M111.146,321.263c-0.688,0.021-1.339-0.036-1.655-0.789c-0.667-2.035-2.232-3.038-4.054-4.021
		c-8.305-4.486-16.586-9.015-24.758-13.733c-9.329-5.39-16.671-13.276-24.802-20.165c-17.256-14.62-30.141-33.005-43.651-50.844
		c-1.026-1.355-1.94-2.748-2.159-4.481c0.204-2.769-1.559-4.821-2.65-7.103c-2.29-4.78-3.964-9.734-4.686-14.995
		c2.62-0.272,2.768,1.939,3.378,3.516c1.767,4.559,3.103,9.259,5.06,13.772c5.155,11.875,14.39,20.836,21.861,31.043
		c4.329,5.916,9.027,11.634,14.191,16.804c9.819,9.839,19.977,19.364,31.423,27.356c0.988,0.336,2.047,0.377,3.033,0.716
		c1.153,0.478,2.116,1.271,3.175,1.901c0.522,0.328,1.02,0.684,1.519,1.043c2.187,1.479,4.347,3.004,6.885,3.855
		c0.587,0.182,1.154,0.406,1.701,0.683c1.039,0.618,2.02,1.333,3.112,1.866c2.062,1.316,4.289,2.322,6.43,3.488
		c2.43,1.535,5.006,2.767,7.733,3.679c0.763,0.298,1.501,0.655,2.235,1.015c1.418,0.797,2.914,1.346,4.552,1.461
		c1.251,0.178,2.407,0.643,3.554,1.134c0.96,0.396,1.961,0.637,2.971,0.856c1.403,0.416,2.844,0.683,4.261,1.041
		c1.197,0.382,2.439,0.607,3.652,0.924c1.008,0.311,2.04,0.488,3.097,0.531c0.87,0.049,1.728,0.167,2.568,0.399
		c2.692,0.882,5.343,1.904,8.141,2.433c0.431,0.078,0.853,0.189,1.272,0.309c1.648,0.629,3.422,0.43,5.12,0.736
		c1.07,0.208,2.064,0.641,3.07,1.037c1.176,0.509,2.447,0.622,3.69,0.844c1.447,0.347,2.901,0.658,4.391,0.744
		c0.647,0.057,1.281,0.184,1.909,0.349c1.237,0.416,2.526,0.482,3.812,0.594c0.654,0.057,1.297,0.178,1.932,0.337
		c2.747,0.678,5.586,0.512,8.367,0.87c1.734,0.037,3.408,0.607,5.152,0.53c0.67-0.005,1.331,0.029,1.996,0.091
		c0.449,0.028,0.893,0.099,1.332,0.189c1.72,0.582,3.502,0.628,5.289,0.582c1.34-0.016,2.678-0.002,4.015,0.005
		c2.767-0.28,5.552,0.977,8.308-0.112c0.424-0.117,0.854-0.157,1.288-0.143c2.297,0.494,4.603,0.827,6.958,0.341
		c1.778-0.113,3.558-0.07,5.332-0.093c0.432-0.024,0.867-0.016,1.299,0c1.445,0.042,2.899,0.155,4.306-0.323
		c0.754-0.267,1.462-0.626,2.143-1.047c1.372-1.042,3.038-0.64,4.556-0.946c1.146-0.311,2.036-1.087,3.043-1.655
		c0.363-0.191,0.741-0.346,1.129-0.483c3.068-0.804,5.477-3.112,8.602-3.784c0.182,0.113,0.363,0.229,0.544,0.342
		c-0.042,1.19-0.083,2.373-0.125,3.564c-12.144,8.078-25.758,8.545-39.78,8.605c-10.777,0.048-21.399-1.096-31.979-2.344
		c-11.295-1.332-22.501-3.72-33.52-6.785c-8.359-2.324-16.797-4.365-25.185-6.584C113.866,319.973,112.518,320.535,111.146,321.263z
		"/>
	<path fill="#180505" d="M79.155,298.492c-4.472-0.496-7.08-4.1-10.048-6.657c-12.47-10.751-24.915-21.555-34.691-35.041
		c-5.003-6.899-10.769-13.243-16.012-19.973c-6.188-7.946-9.969-17.105-12.963-26.638c-0.566-1.803-0.532-4.057-2.711-5.051
		c-1.674-5.233-0.552-10.629-0.952-15.932c-1.116-14.828,1.484-29.208,5.871-43.209c3.993-12.752,11.828-22.733,23.272-30.172
		c7.569-4.922,15.524-7.548,24.326-8.261c3.983,0.053,7.966,0.107,11.948,0.161c2.798,0.464,5.655,0.52,8.417,1.244
		c2.018-0.047,3.94,0.272,5.632,1.477c-0.281,1.692-1.673,1.751-2.934,2.015c-2.922,0.273-5.729-0.305-8.5-1.155
		c-5.235-1.103-10.485-0.774-15.735-0.199c-6.886,1.575-13.567,3.429-19.761,7.218c-12.486,7.639-19.687,18.672-24.021,32.431
		c-5.191,16.481-5.385,33.3-4.281,50.105c0.753,11.453,5.655,22.077,12.485,31.273c12.163,16.371,24.706,32.49,39.689,46.484
		c6.051,5.033,11.425,10.83,17.684,15.631c0.686,0.466,1.344,0.97,1.933,1.561C78.503,296.578,79.083,297.406,79.155,298.492z"/>
	<path fill="#171617" d="M75.527,109.406c-2.916,0.115-5.624-0.793-8.333-1.688c1.017-0.091,2.033-0.182,3.051-0.269
		c1.869-0.302,3.591,0.241,5.292,0.915c0.29,0.236,0.383,0.468,0.286,0.698C75.722,109.291,75.625,109.406,75.527,109.406z"/>
	<path fill="#545454" d="M323.404,103.878c-1.816-0.195-3.012-1.167-3.624-2.874C321.505,101.313,322.688,102.303,323.404,103.878z"
		/>
	<path fill="#C8B7A2" d="M256.294,313.891c-0.681,0.498-1.366,0.994-2.05,1.49c-2.386-0.455-3.084,1.16-3.641,2.952l0.038,0.064
		c-2.013,1.418-2.572-1.741-4.264-1.337c-1.231-0.108-1.865-0.767-1.87-2.016c0.086-0.861,0.438-1.637,0.779-2.414
		c0.793-1.391,1.09-3.561,3.588-2.353c1.205,0.835,2.396,1.14,3.557-0.085c0.26-0.275,0.529-0.537,0.793-0.803
		c0.689-0.672,0.972-1.582,1.4-2.406c0.666-1.19,2.127-0.556,2.995-1.313c1.073-0.302,2.1-0.265,3.065,0.345
		c0.51,0.508,0.641,1.121,0.531,1.807c-0.139,0.414-0.363,0.779-0.665,1.094c-1.005,1-2.273,1.75-2.985,3.041
		C257.227,312.658,256.632,313.188,256.294,313.891z"/>
	<path fill="#B9AA96" d="M282.024,288.854c-0.586,0.789-1.071,1.706-2.232,1.776c-2.901,0.582-4.145-1.686-5.755-3.331
		c-3.271-3.104,0.459-4.067,1.766-5.782c0.331-0.285,0.702-0.492,1.117-0.627c3.436-0.205,3.699,2.164,3.807,4.666
		c0.027,1.055,0.748,1.817,1.158,2.713C281.936,288.463,281.98,288.659,282.024,288.854z"/>
	<path fill="#A69685" d="M278.209,292.543c-0.021,0.215-0.058,0.426-0.108,0.634c-1.529,2.303-2.426,5.12-5.233,6.382
		c-1.178,0.062-2.16-0.369-2.979-1.198c-0.472-0.89-0.09-1.657,0.321-2.429c0.969-1.317,1.785-2.714,2.14-4.335
		c0.302-0.603,0.745-1.065,1.328-1.398c0.417-0.185,0.851-0.296,1.302-0.356C276.79,289.867,278.151,290.432,278.209,292.543z"/>
	<path fill="#1F100F" d="M273.02,299.074c1.693-1.965,3.387-3.93,5.081-5.896c-2.545,5.946-5.799,11.287-12.092,14.01
		c-0.07-0.402-0.037-0.799,0.114-1.182c0.555-1.081,1.458-1.873,2.268-2.744c0.838-0.812,1.455-1.795,2.103-2.757
		C271.111,299.633,272.055,299.336,273.02,299.074z"/>
	<path fill="#B09E8C" d="M266.265,306.376c-0.081,0.273-0.166,0.542-0.257,0.812c-1.73,1.109-3.461,2.222-5.193,3.328
		c-0.806-0.584-1.48-1.225-0.956-2.345c0.312-0.021,0.626-0.037,0.94-0.054c0.899-0.978,0.65-2.347,1.185-3.449
		c0.296-0.566,0.726-1.007,1.284-1.314c0.4-0.121,0.801-0.125,1.201,0c0.848,0.611,1.347,1.479,1.716,2.428
		C266.212,305.979,266.236,306.174,266.265,306.376z"/>
	<path fill="#DCC9B2" d="M278.209,292.543c-0.937-1.154-1.98-2.1-3.629-1.922c-0.939-0.908-1.031-1.955-0.505-3.105
		c0.158-0.161,0.316-0.319,0.479-0.479c1.747,1.197,3.491,2.394,5.238,3.592C279.587,291.534,279.184,292.272,278.209,292.543z"/>
	<path fill="#948576" d="M246.879,316.383c0.248-1.326,0.862-2.225,1.639-0.441c0.498,1.141,0.572,2.34,2.126,2.454
		c-0.03,0.226-0.066,0.448-0.105,0.67c-0.872,0.825-1.72,1.733-3.12,1.183C246.09,319.118,245.809,317.842,246.879,316.383z"/>
	<path fill="#150505" d="M247.611,319.584c0.977-0.174,1.949-0.347,2.927-0.519c-0.886,2.166-2.777,3.421-4.432,4.89l-0.102-0.088
		c-0.532-0.428-0.743-0.997-0.747-1.661c0.039-0.421,0.162-0.82,0.35-1.198C246.092,320.277,246.842,319.915,247.611,319.584z"/>
	<path fill="#85796B" d="M259.858,308.168c0.318,0.781,0.636,1.564,0.954,2.348c-0.272,0.188-0.544,0.379-0.817,0.564
		c-1.036,0.18-1.791,1.465-3.048,0.772C256.289,309.341,259.424,309.818,259.858,308.168z"/>
	<path fill="#B7A492" d="M250.604,318.333c-0.043-2.528,0.026-4.919,3.641-2.952C253.031,316.367,251.818,317.35,250.604,318.333z"
		/>
	<path fill="#736056" d="M256.947,311.854c1.017-0.258,2.031-0.515,3.048-0.774c-1.021,1.218-1.916,2.598-3.703,2.811
		C256.294,313.142,255.859,312.256,256.947,311.854z"/>
	<path fill="#1F100F" d="M284.784,286.172c-0.711,1.107-1.525,2.109-2.76,2.681c0,0.002-0.236,0.058-0.236,0.058l-0.244-0.015
		c-0.285-1.19-0.09-2.226,0.954-2.992c0.636-0.339,1.271-0.38,1.91-0.002C284.543,285.98,284.669,286.07,284.784,286.172z"/>
	<path fill="#242728" d="M226.586,71.688c-0.307,2.38-2.214,1.736-3.581,1.736c-38.518,0.038-77.032,0-115.549,0.084
		c-3.438,0.008-4.607-1.261-4.567-4.581c0.118-9.654,0.124-19.311-0.005-28.968c-0.042-3.151,1.018-4.268,4.259-4.257
		c38.517,0.087,77.033,0.073,115.551,0.024c2.753-0.002,4.337,0.592,4.28,3.781c-0.188,10.105-0.202,20.216-0.283,30.324
		c-1.162,0.813-2.305,2.1-3.584,0.146c-1.469-7.279-0.492-14.641-0.661-21.963c-0.185-7.994-0.054-8.008-8.244-8.009
		c-32.655-0.004-65.312-0.002-97.969-0.001c-1.228,0-2.458,0.076-3.679,0.014c-3.694-0.188-5.208,1.499-5.2,5.201
		c0.017,8.262,0.187,16.531-0.027,24.78c0.606,2.562,2.657,1.238,3.954,1.242c22.673,0.087,45.348-0.014,68.021,0.092
		C195.067,71.404,210.834,70.855,226.586,71.688z"/>
	<path fill="#121A1F" d="M226.586,71.688c-1.658,1.035-3.51,0.902-5.35,0.902c-37.25-0.006-74.497,0.004-111.743-0.027
		c-1.807-0.001-3.971,0.669-5.351-1.896c1.191,0,2.037,0,2.882,0c1.771-1.616,3.993-1.38,6.106-1.383
		c34.774-0.037,69.548-0.035,104.322,0c2.113,0.001,4.334-0.24,6.129,1.33c1.036-0.259,2.072-0.521,3.109-0.782
		C226.659,70.451,226.624,71.07,226.586,71.688z"/>
	<path fill="#1C1C1D" d="M102.231,117.745c2.452,0.87,4.903,1.737,7.356,2.604c1.331,1.012,3.084,1.067,4.466,1.961
		c3,1.274,6.032,2.442,9.345,2.616c1.465,1.344,3.425,0.066,4.979,0.939c0.196-0.181,0.381-0.174,0.559,0.027
		c6.156,1.246,12.381,0.257,18.565,0.55c2.584,0.121,5.178-0.072,7.764,0.088c0.567,0.317,0.745,0.782,0.527,1.395
		c-2.57,1.929-5.558,0.95-8.369,1.155c-2.864,0.208-5.765-0.284-8.602,0.438c-1.264,0.295-2.536,0.333-3.815,0.109
		c-2.239-0.767-4.608-0.537-6.909-0.84c-0.45-0.064-0.892-0.17-1.327-0.293c-1.504-0.538-3.073-0.408-4.631-0.429
		c-2.544-0.135-5.014-0.557-7.255-1.868c-1.347-1.182-2.909-1.862-4.717-1.951c-3.268-0.994-6.782-1.458-9.216-4.252
		C100.681,118.851,101.351,118.238,102.231,117.745z"/>
	<path fill="#1F2325" d="M155.714,126.928c-7.355-0.002-14.707,0.032-22.062-0.034c-1.603-0.016-3.422,0.613-4.716-1
		c8.969,0.67,17.931-0.072,26.898-0.146c4.083-0.032,7.397-1.251,9.953-4.438c0.293,0.209,0.398,0.426,0.312,0.649
		c-0.084,0.229-0.173,0.346-0.267,0.346c-0.944,0.6-0.973,1.217-0.028,1.847C163.759,127.44,160.256,128.405,155.714,126.928z"/>
	<path fill="#171617" d="M102.231,117.745c-0.336,0.695-0.668,1.39-1.004,2.084c-1.919,0.798-3.428-0.251-4.985-1.095
		c-1.561-1.169-3.351-1.667-5.277-1.769c-1.094-0.114-2.125-0.402-3.019-1.073c-1.333-1.208-2.926-1.696-4.702-1.689
		c-2.015-0.449-4.33-0.326-5.292-2.768c1.012-0.313,2.248,0.063,3.018-0.988c1.419-0.636,2.439,0.494,3.639,0.822
		c0.753,0.961,1.927,0.606,2.888,0.914c1.427,0.822,3.099,1.037,4.532,1.842C95.429,115.265,98.83,116.507,102.231,117.745z"/>
	<path fill="#0E0E0E" d="M165.833,122.304c-0.018-0.333-0.029-0.665-0.047-0.995c4.556-4.74,8.962-9.647,14.676-13.088
		C176.369,113.728,170.627,117.523,165.833,122.304z"/>
	<path fill="#1E2427" d="M84.609,111.272c-1.213-0.275-2.425-0.55-3.639-0.824c-1.815-0.346-3.628-0.694-5.442-1.042
		c0.002-0.347,0.006-0.695,0.009-1.04C78.86,108.4,81.98,109.071,84.609,111.272z"/>
	<path fill="#1F2325" d="M114.052,122.31c-1.782,0.017-3.365-0.426-4.466-1.961C111.359,120.358,112.9,120.892,114.052,122.31z"/>
	<path fill="#1E2427" d="M92.031,114.027c-1.783,0.053-3.36-0.401-4.533-1.844C89.262,112.178,90.883,112.521,92.031,114.027z"/>
	<path fill="#1F2325" d="M128.378,125.864c-1.707-0.06-3.591,0.812-4.981-0.939C125.17,124.637,126.836,124.92,128.378,125.864z"/>
	<path fill="#FEFEFE" d="M254.262,160.816c1.035,1.063,2.304,1.253,3.697,1.001c4.602,0.366,5.23,4.112,6.367,7.441
		c0.174,0.458,0.299,0.931,0.402,1.407c5.865,15.42,5.676,30.649-1.818,45.481c-2.58,5.112-6.342,9.323-11.818,11.643
		c-1.154,0.415-2.344,0.485-3.547,0.314c-1.357-0.279-2.699-0.101-4.045,0.153c-2.293,0.237-4.59,0.219-6.885,0.092
		c-2.327-0.131-5.047-0.392-6.306-2.27c-2.634-3.934-6.856-6.066-9.833-9.533c-5.242-7.41-4.438-15.461-2.844-23.762
		c1.443-7.535,5.228-13.591,10.484-18.912c1.193-1.207,2.108-2.617,3.066-3.996c4.07-5.994,9.807-9.247,16.921-10.221
		C250.271,159.43,252.392,159.465,254.262,160.816z"/>
	<path fill="#1F0404" d="M289.312,143.438c-0.011,0.609-0.023,1.222-0.032,1.833c6.02,4.512,7.668,11.441,9.124,18.07
		c3.688,16.761,4.333,34.057-2.201,49.888c-10.904,26.441-23.203,37.195-51.034,38.203c-8.814,0.32-17.844,1.357-26.408-2.23
		c-1.412-0.592-2.988-0.863-4.096-2.005c-5.223-5.403-11.809-9.041-18.441-11.953c-9.37-4.118-19.27-5.354-28.312,1.716
		c-4.35,3.397-8.855,6.579-13.004,10.257c-6.506,5.767-14.833,6.444-22.93,6.937c-11.838,0.723-23.615,0.478-34.808-4.55
		c-3.899-1.751-8.286-2.223-12.575-2.671c-4.739-0.496-9.448-1.225-14.052-2.451c-13.71-3.656-19.821-10.77-21.233-24.904
		c-1.805-18.084-1.532-36.107,1.917-54.015c1.282-6.673,3.425-13.031,6.581-19.063c5.893-11.264,15.315-16.786,27.875-17.199
		c11.526-0.38,22.964,0.564,34.437,1.799c18.676,2.012,37.38,1.498,55.973-1.439c8.928-1.41,17.84-2.957,26.914-3.123
		c6.784-0.347,13.54-1.578,20.358-0.554c1.613,0.014,3.227-0.021,4.841,0.042c0.825,0.049,1.595,0.216,2.138,0.921
		c4.705,1.853,9.966,0.137,15.182,2.718c-5.689,0-10.824,0.08-15.961-0.016c-19.621-0.363-38.917,2.474-58.277,5.23
		c-14.642,2.085-29.426,3.245-44.311,1.338c-14.575-1.868-29.259-2.458-43.97-1.966c-9.111,0.304-15.527,4.927-20.148,12.422
		c-5.431,8.8-6.962,18.711-8.646,28.705c-1.822,10.803-1.813,21.604-1.672,32.444c0.057,4.406,0.463,8.844,1.145,13.198
		c2.128,13.575,9.672,17.155,20.872,19.871c6.188,1.502,12.629,1.954,18.954,2.902c0.9,0.133,1.848,0.266,2.656,0.645
		c14.865,6.951,30.472,5.365,46.021,3.857c3.418-0.333,6.26-2.172,9.181-4.465c6.695-5.258,12.889-11.967,21.008-14.492
		c8.9-2.767,18.464-2.582,27.134,2.312c5.863,3.311,12.365,5.929,17.334,10.277c9.518,8.335,20.492,5.107,30.98,5.198
		c5.225,0.047,10.436-1.888,15.604-3.317c8.247-2.283,13.568-7.84,18.502-14.242c7.131-9.25,12.631-19.324,13.309-31.099
		c1-17.501,2.668-35.294-8.467-50.85c-1.146-1.602-2.395-3.131-4.029-5.264C285.273,142.747,287.4,141.871,289.312,143.438z"/>
	<path fill="#FDFDFD" d="M142.59,201.363c-0.582,1.801-1.162,3.606-1.746,5.408c-0.735,2.93-2.076,5.597-3.563,8.205
		c-1.309,2.045-2.275,4.285-3.873,6.161c-2.722,3.194-5.934,5.048-10.33,4.717c-6.78-0.509-13.66-0.128-20.188-2.597
		c-4.24-3.41-5.439-8.379-5.303-13.217c0.289-10.321,2.063-20.43,7.862-29.376c1.851-2.856,3.951-5.464,6.677-7.535
		c4.609-2.448,9.177-4.843,14.571-5.337c5.858-0.53,9.29,1.031,11.996,6.207c4.305,8.232,6.031,16.944,4.888,26.195
		C143.339,200.658,143.008,201.047,142.59,201.363z"/>
	<path fill="#DADADA" d="M239.229,136.201c5.357-0.465,10.561,1.742,15.709,4.19c1.142,0.544,2.609,1.109,1.891,2.551
		c-0.688,1.384-2.218,0.69-3.256,0.133c-5.259-2.826-10.806-4.045-16.796-3.691c-8.601,0.51-16.143,5.288-18.084,13.625
		c-3.53,15.161-14.472,24.417-25.167,34.053c-0.561,0.507-1.229,1.058-1.93,1.21c-1.793,0.4-4.343,2.398-5.275,0.057
		c-1.112-2.796,2.321-1.752,3.604-2.636c5.576-3.837,10.168-8.787,14.972-13.478c5.279-5.155,8.261-11.622,10.39-18.612
		C218.806,142.032,226.75,136.24,239.229,136.201z"/>
	<path fill="#DBDBDB" d="M174.355,183.77c-0.246,0.564-0.339,1.373-0.75,1.584c-0.686,0.359-1.609,0.141-1.966-0.645
		c-3.763-8.291-11.909-14.017-13.372-23.749c-0.874-5.812-4.992-9.519-10.243-12.149c-12.165-6.1-24.6-6.722-37.424-2.51
		c-1.278,0.418-3.122,2.022-3.859-0.096c-0.663-1.911,1.55-2.239,2.95-2.702c14.247-4.714,28.001-3.75,41.265,3.472
		c4.974,2.709,8.516,6.607,9.934,12.041c1.777,6.811,4.629,12.891,9.718,17.894C172.459,178.727,173.537,181.168,174.355,183.77z"/>
	<path fill="#160303" d="M119.733,165.539c1.917-1.47,4.413-0.875,6.479-1.812c2.4,1.203,5.097-0.226,7.514,0.839
		c0.717,2.221-0.747,2.757-2.4,2.858c-1.526,0.095-3.071-0.132-4.511,0.576c-5.353,0.211-9.754,2.979-14.311,5.332
		c-12.468,11.338-15.923,25.677-14.038,41.832c0.38,3.271,2.275,5.566,4.479,7.733c1.13,0.75,2.473,1.183,3.416,2.229
		c0.604,0.977,1.12,1.976,0.563,3.158c-4.771-0.495-7.619-3.625-10.08-7.311c-0.812-1.217-0.828-2.833-1.987-3.863
		c-2.128-6.896-0.82-13.782,0.338-20.596c0.624-3.674,1.056-7.521,3.355-10.721c2.47-3.615,4.501-7.494,7.353-10.887
		C109.662,170.436,114.579,167.857,119.733,165.539z"/>
	<path fill="#180404" d="M246.922,227.21c1.16-0.023,2.32-0.045,3.483-0.067c6.896-1.449,10.276-6.783,13.048-12.396
		c6.749-13.673,6.865-27.812,2.168-42.131c0.116-2.268,0.062-4.543-0.063-6.813c0.105-0.466,0.338-0.852,0.696-1.165
		c3.075,3.638,3.968,8.171,4.903,12.597c2.453,11.615,2.28,23.128-2.128,34.347c-3.249,4.833-4.827,10.694-9.529,14.661
		c-1.98,1.671-4.102,3.106-6.145,4.667l0.01-0.005c-0.363,0.309-0.756,0.365-1.182,0.135
		C251.168,228.754,247.406,230.222,246.922,227.21z"/>
	<path fill="#160505" d="M240.446,157.26c3.29-2.946,2.234,0.658,2.782,1.842c-3.586,4.194-8.544,6.545-13.06,9.441
		c-2.437,1.562-3.535,3.037-2.21,5.761c-8.814,9.367-12.469,20.418-11.127,33.223c0.377,3.572,2.105,6.321,4.121,9.041
		c0.357,0.326,0.551,0.732,0.584,1.215c-0.256,1.182-0.748,2.151-2.123,2.309c-2.96-2.5-4.199-6.039-5.697-9.426
		c-0.729-0.423-0.888-1.114-0.888-1.876c0.737-3.976,0.739-7.948-0.001-11.923c1.057-4.051,1.262-8.357,3.643-12.005
		c1.763-4.874,6.957-8.143,6.531-14.071c-0.1-1.417,1.372-1.87,2.322-2.609C230.23,164.354,235.902,161.588,240.446,157.26z"/>
	<path fill="#0E0E0E" d="M173.155,125.811c0.702-0.247,1.406-0.708,2.106-0.706c14.059,0.08,28.111-2.014,42.127-0.756
		c5.508,0.493,11.221-0.38,16.58,1.667c-1.834,0.83-3.771,0.225-5.654,0.41c-1.704,0-3.407,0.001-5.111,0
		c-14.692-0.155-29.354,1.152-44.048,0.83C177.08,127.212,174.798,127.762,173.155,125.811z"/>
	<path fill="#160303" d="M142.59,201.363c-0.214-0.311-0.176-0.586,0.111-0.826c2.218-6.826,0.925-13.423-1.418-19.906
		c-1.031-2.855-2.461-5.553-3.731-8.314c-0.368-1.527,0.1-2.815,1.147-3.927c1.189-0.604,1.506,0.08,1.761,1.099
		c1.038,4.184,3.39,7.803,5.107,11.694c1.346,2.284,1.358,4.896,1.812,7.394c-1.291,4.225,0.36,8.658-0.92,12.879
		C145.168,201.428,143.879,201.394,142.59,201.363z"/>
	<path fill="#242424" d="M105.923,225.432c-0.929-0.619-1.857-1.24-2.786-1.858c-0.396-0.458-0.35-0.871,0.131-1.235
		c2.642,2.23,5.872,1.012,8.811,1.467c15.736,2.438,15.741,2.41,25.092-9.668c0.672,0.65,0.621,1.342,0.117,2.06v-0.005
		c-1.569,4.75-4.384,8.357-9.249,10.094c-4.051,0.259-8.259-0.483-11.997,1.838c-1.508-0.034-2.742,2.635-4.473,0.462
		C110.327,226.392,107.596,226.852,105.923,225.432z"/>
	<path fill="#1E0404" d="M112.35,228.137c0.484,0.691,1.357,1.031,1.586,0.152c0.646-2.467,1.392-0.477,2.105-0.166
		c3.11,3.352,6.979,2.716,10.938,1.803c0.141,1.11-0.616,0.972-1.016,1.149c-0.557,0.247-1.165,0.643-1.719,0.595
		c-8.558-0.723-17.517,0.121-24.769-5.956c-2.665-2.234-4.411-5.022-4.623-8.603c0.019-0.15,0.013-0.312,0.061-0.451
		c0.142-0.407,0.537-0.965,0.758-0.289c1.878,5.698,5.544,9.648,11.173,11.764C108.68,226.914,110.517,227.803,112.35,228.137z"/>
	<path fill="#0F0909" d="M227.547,173.818c-3.893-1.631-2.131-3.469,0.014-4.881c5.151-3.385,10.438-6.569,15.668-9.834
		c1.153,0.635,2.342,1.097,3.701,0.831c0.424-0.313,0.783-0.236,1.085,0.184c-4.31,0.938-8.136,2.794-11.558,5.617
		c-1.61,1.332-3.174,2.626-4.222,4.454C230.221,170.814,230.417,174.291,227.547,173.818z"/>
	<path fill="#220404" d="M240.446,157.26c-0.979,3.549-4.823,3.88-7.005,6.142c-1.652,1.715-3.984,2.798-6.07,4.075
		c-2.174,1.328-3.226,2.878-3.709,5.696c-0.79,4.595-4.176,8.152-7.19,11.69c0.421-2.439,1.425-4.635,2.892-6.61
		c1.322-1.78,3.065-3.272,1.861-5.994c-0.601-1.358,0.604-2.614,1.783-3.406C228.805,164.965,234.631,161.12,240.446,157.26z"/>
	<path fill="#220404" d="M213.715,210.666c1.852,3.063,3.703,6.13,5.555,9.195c4.383,5.389,10.871,7.525,16.657,10.754
		c0.241,0.415,0.215,0.816-0.079,1.198C222.004,229.705,217.017,224.494,213.715,210.666z"/>
	<path fill="#504941" d="M173.155,125.811c16.882,0.095,33.771,0.191,50.657,0.284c0.341,0.154,0.454,0.31,0.346,0.468
		c-0.112,0.161-0.223,0.244-0.336,0.244c-7.095,0.307-14.189,0.617-21.279,0.924c-5.298-1.055-10.547,0.3-15.824,0.328
		c-4.979,0.028-9.981,0.971-14.898-0.589c-0.58-0.354-0.722-0.84-0.434-1.455C171.975,125.947,172.563,125.879,173.155,125.811z"/>
	<path fill="#1E0404" d="M139.071,219.879c2.962-2.811,4.06-6.695,5.823-10.615c0.915,8.458-7.215,19.139-15.084,20.402
		c0.319-0.791,0.648-1.607,0.979-2.426c0.231-0.342,0.52-0.622,0.878-0.831c1.43-0.668,2.934-1.218,3.976-2.499
		c0.791-0.912,1.233-2.043,1.913-3.025C137.937,220.363,138.547,220.184,139.071,219.879z"/>
	<path fill="#210404" d="M119.733,165.539c0.089,0.126,0.18,0.25,0.269,0.374c-9.507,4.287-16.533,11.028-20.554,20.738
		c-0.04,0.098-0.209,0.145-0.318,0.215c-0.193-0.355-0.389-0.713-0.583-1.071C102.546,175.846,108.608,168.051,119.733,165.539z"/>
	<path fill="#200404" d="M145.566,181.183c-1.332-1.29-4.691-7.98-5.549-10.926c-0.198-0.681-0.599-1.303-0.91-1.954
		c-1.685-1.456-3.708-2.406-5.529-3.661c-2.441-0.412-5.099,0.91-7.366-0.914c2.783-0.297,5.442,0.043,8.331-1.352
		c3.627-1.75,5.468,2.779,5.851,4.75C141.377,172.18,144.913,176.142,145.566,181.183z"/>
	<path fill="#200404" d="M253.355,230.912c6.696-5.547,12.21-11.966,15.069-20.346c0.132,0.047,0.343,0.061,0.376,0.147
		c0.111,0.276,0.154,0.577,0.227,0.867C265.958,219.767,262.279,227.457,253.355,230.912z"/>
	<path fill="#1B1B1B" d="M131.865,227.131c-0.358,0.038-0.717,0.074-1.075,0.11c-0.916-0.319-1.834-0.636-2.751-0.956
		c3.66-2.835,6.522-6.399,9.249-10.092c-0.135,1.582,0.147,2.963,1.787,3.686c-0.366,0.332-0.731,0.667-1.097,1
		c-0.559,1.142-1.421,2.076-2.171,3.086C134.673,225.246,133.208,226.111,131.865,227.131z"/>
	<path fill="#0E0E0E" d="M171.385,126.015c-0.035,0.272-0.058,0.547-0.066,0.823c-1.93,2.741-4.867,2.149-7.583,2.3
		c-2.67-0.399-5.632,0.812-7.974-1.417c-0.032-0.265-0.05-0.528-0.05-0.794c3.446-0.625,7.187-0.187,10.089-2.777
		C167.915,124.024,170.008,123.953,171.385,126.015z"/>
	<path fill="#200404" d="M266.254,164.637c0,0.309,0,0.62,0,0.929c-0.85,0.53-1.586,0.111-2.332-0.267
		c-1.479-1.349-2.912-2.743-4.114-4.354c-0.825-2.755-3.474-3.318-5.529-4.595c-0.233-0.207-0.312-0.411-0.233-0.617
		c0.075-0.207,0.154-0.308,0.232-0.308C260.256,155.917,262.703,160.996,266.254,164.637z"/>
	<path fill="#1F1F1F" d="M259.808,160.944c2.582-0.055,3.2,2.34,4.638,3.712c1.085,1.845,0.738,3.388-0.982,4.642
		c-0.963-3.133-2.451-5.882-5.504-7.48C258.381,161.113,259.076,160.987,259.808,160.944z"/>
	<path fill="#200404" d="M235.848,231.813c0-0.306,0-0.608,0-0.913c0.58-0.623,1.33-0.803,2.146-0.818
		c4.748,1.254,9.669-0.581,14.411,0.798c0.32,0.009,0.641,0.018,0.959,0.024c-0.881,1.914-2.6,1.9-4.314,1.834
		C244.639,232.566,240.166,233.328,235.848,231.813z"/>
	<path fill="#270505" d="M146.458,201.459c0.475-4.279-0.997-8.701,0.92-12.88c0,5.169,0,10.343,0,15.634
		C145.854,203.553,146.734,202.334,146.458,201.459z"/>
	<path fill="#1B1B1B" d="M137.287,216.193c-0.039-0.684-0.079-1.369-0.118-2.057c1.225-2.455,2.451-4.91,3.675-7.365
		C141.38,210.564,139.254,213.35,137.287,216.193z"/>
	<path fill="#260505" d="M212.827,196.865c1.481,3.975,1.479,7.949,0.004,11.922C212.828,204.814,212.827,200.842,212.827,196.865z"
		/>
	<path fill="#050505" d="M248.015,160.115c-0.362-0.058-0.726-0.121-1.089-0.182c2.629-1.229,5.176-1.777,7.336,0.883
		C252.193,160.451,250.193,159.481,248.015,160.115z"/>
	<path fill="#050505" d="M253.352,156.352c-1.82,0-3.645,0-5.58,0c0.409-1.687,1.707-1.619,2.827-1.834
		C251.129,155.712,253.645,153.929,253.352,156.352z"/>
	<path fill="#25221E" d="M228.432,126.042c1.847-0.01,3.693-0.02,5.538-0.027c-0.944,1.343-2.392,0.731-3.628,0.93
		c-0.635-0.032-1.273-0.066-1.909-0.1c-0.274-0.178-0.364-0.354-0.275-0.534C228.249,126.133,228.341,126.042,228.432,126.042z"/>
	<path fill="#160505" d="M253.352,156.352c-0.917-0.613-1.834-1.224-2.753-1.834c1.269,0.126,2.706-0.421,3.679,0.907
		c0,0.307,0,0.615,0.001,0.923C253.971,156.35,253.661,156.351,253.352,156.352z"/>
	<path fill="#EFDBC2" d="M253.336,310.078c-1.132,1.934-2.815,1.526-4.535,0.949c-2.256-1.5-1.66,1.53-2.818,1.771
		c-1.593,1.406-2.141-0.871-3.314-0.915c-0.525,0.114-1.018,0.327-1.537,0.453c-0.39,0.036-0.766-0.013-1.131-0.138
		c-0.42-0.188-0.861-0.25-1.306-0.31c0.157,0.468,0.696,0.471,0.985,0.808c0.168,0.396,0.168,0.777,0.029,1.17
		c-0.742,0.852-1.687,1.215-2.789,1.215c-1.926-0.658-3.9-1.048-5.959-0.848c-2.025,0.137-4.507-1.826-5.873,1.293
		c-0.98,0.731-2.069,0.489-2.913-0.037c-1.983-1.227-3.308-0.328-4.577,1.102c-1.304,0.39-1.836-0.658-2.562-1.354
		c-1.62-1.862-3.329-0.119-4.987-0.109c-1.887,0.134-3.855-0.871-5.661,0.427c-0.341,0.229-0.704,0.403-1.093,0.537
		c-1.307,0.267-2.472-0.187-3.629-0.693c-1.877-2.212-4.158-3.429-7.148-2.891c-3.629,0.046-7.286-0.083-10.596,1.81
		c-1.416,0.748-2.438,2.191-4.162,2.401c-0.932,0.016-1.355-0.607-1.691-1.339c-0.316-0.865-0.811-1.547-1.821-1.686
		c-2.275,0.419-4.625-0.854-6.844,0.384c-1.613,0.563-2.719-1.626-4.383-0.783c-1.477,0.165-3.228-0.284-3.848,1.759
		c-0.748,0.463-1.557,0.521-2.399,0.385c-0.61-0.132-1.174-0.385-1.719-0.673c-3.187-1.257-6.324-0.894-9.44,0.278
		c-0.898,0.074-1.668-0.285-2.423-0.693c-0.403-0.199-0.784-0.565-1.197-0.596c-3.344-0.256-6.596-0.516-9.438-2.759
		c-1.895-1.496-3.646-0.161-5.183,1.124c-2.068,0.664-3.692-1.786-5.811-0.818c-0.972-0.062-1.329-0.75-1.587-1.539
		c-3.27-1.963-6.584-3.826-10.082-5.337c-1.719-0.476-3.727,0.259-5.216-1.208c-0.452-0.41-0.962-0.861-1.104-1.424
		c-0.425-1.664-1.082-1.808-2.133-0.481c-1.34-0.146-2.821,0.079-3.685-1.363c-1.107-2.201-4.053-2.227-5.204-4.37
		c-1.38-3.203-3.977-3.23-6.828-2.6c-1.38-1.458-2.852-2.768-4.933-3.127c-0.788-0.979-1.106-2.102-1.029-3.34
		c-0.284-1.826-2.225-2.779-2.475-4.626c-2.812-2.129-5.723-4.111-8.365-6.458c-0.515-0.455-1.657-1.051-2.291,0.23
		c-1.023,1.173,0.83,0.822,0.793,1.482c0.134,0.383,0.158,0.76,0.1,1.155c-0.336,1.194-0.599,2.442-2.071,2.784
		c-0.404,0.006-0.791-0.084-1.147-0.275c-0.684-0.496-0.957-1.646-2.144-1.328c-1.312,1.369-2.664,1.58-4.07,0.166
		c-14.064-11.432-24.229-26.297-35.584-40.131c-6.812-8.299-12.064-17.392-15.22-27.578c-4.971-16.048-4.102-32.428-1.101-48.605
		c1.408-7.589,2.841-15.382,6.336-22.468c8.447-17.123,22.009-27.476,40.925-30.691c5.506-0.447,11.011-0.508,16.514,0.025
		c2.599,0.814,5.233,1.394,7.984,1.237c1.752,0.799,3.387,1.963,5.458,1.81c1.715,0.463,3.525,0.69,4.903,1.98
		c0.62,0.988,1.599,0.787,2.526,0.767c1.911,0.708,4.095,0.681,5.734,2.125c1.552,0.57,3.103,1.14,4.655,1.709
		c2.937,1.533,5.874,3.063,9.247,3.417c1.407,0.956,3.4,0.684,4.556,2.167c2.292,0.866,4.53,1.967,7.098,1.601
		c1.54,0.884,3.484-0.333,4.949,0.951l-0.076,0.028c2.402,1.106,5.149-0.543,7.511,0.882c1.215,0.389,2.429,0.385,3.644-0.005
		c5.213-1.248,10.508-0.259,15.756-0.568c3.472-0.207,6.968,0.37,10.424-0.327c2.451,0.377,4.71-0.423,6.982-1.135
		c9.009,0.006,18.019-0.03,27.027,0.059c1.396,0.015,3.075-0.783,4.194,0.832c-11.207,0.451-22.166,2.848-33.252,4.243
		c-18.04,2.277-36.115,2.508-54.129-0.042c-10.861-1.537-21.763-1.834-32.598-1.005C67.53,132.073,60,142.3,55.224,155.391
		c-3.188,8.736-4.307,17.943-5.045,26.98c-1.122,13.7-1.213,27.547,0.865,41.267c1.574,10.401,8.437,15.927,17.743,19.04
		c3.025,1.014,6.235,1.626,9.412,2.016c8.834,1.082,17.33,3.344,25.924,5.686c15.759,4.299,31.971,4.691,47.186-2.284
		c5.619-2.579,10.068-7.697,15.055-11.653c8.196-6.492,22.606-7.443,31.585-2.088c4.74,2.828,10.158,4.949,14.055,8.662
		c4.898,4.672,10.415,6.811,16.708,7.129c14.929,0.761,29.781,0.453,43.588-6.518c2.37-1.197,4.146-3.119,6.002-4.959
		c17.003-16.891,22.396-37.619,20.713-60.922c-0.843-11.632-3.02-22.69-9.735-32.48c6.337,0.61,11.823,3.957,17.863,5.579
		c10.995,2.95,10.831,3.117,11.099,14.669c0.714,30.479-3.23,60.081-16.104,88.072c-2.04,4.436-2.897,9.336-5.365,13.635
		c-0.533,0.926-0.847,1.457-1.866,1.457c-0.35,0.279-0.726,0.516-1.124,0.717c-0.863,0.268-1.734,0.241-2.609,0.073
		c-2.126-1.015-3.848-0.538-5.157,1.421c-2.187,1.176-3.42,3.23-4.766,5.181c-0.713,0.858-2.886-2.277-2.715,0.997
		c-2.306,0.703-1.427,2.959-2.158,4.508"/>
	<path fill="#EFDBC2" d="M276.371,281.584c-1.3,1.58-5.172,1.602-3.387,5.227c-0.454,0.984-1.566,1.199-2.234,1.94
		c-1.081,1.702-3.396,2.634-3.15,5.146c-0.457,0.877-1.197,1.115-2.123,0.935c-3.502-1.44-4.369-0.02-3.525,3.251
		c0.423,1.295,0.777,2.588-0.094,3.844c-1.448,1.107-2.992,0.422-4.508,0.244c-2.68,0.707-4.765,1.736-2.794,5.027
		c-0.291,0.994-0.334,2.084-1.181,2.926"/>
	<path fill="#AB9D8B" d="M291.123,268.691c0.932-0.032,1.866-0.064,2.798-0.095c1.278,1.874-1.301,2.949-0.961,4.628
		c-1.266,3.867-4.309,6.519-6.666,9.631c-0.73,0.969-1.791,1.695-1.883,3.046c-0.479,0.175-0.959,0.347-1.437,0.521
		c-1.335-1.236-0.765-2.66-0.412-4.068c1.662-1.307,1.095-2.875,0.518-4.441c-0.093-0.854,0.148-1.611,0.675-2.283
		c0.493-0.619,0.999-1.223,1.528-1.814c0.889-0.955,2.043-0.965,3.213-0.906c1.289-0.419,0.649-1.625,0.978-2.428
		C289.697,269.585,290.271,269.008,291.123,268.691z"/>
	<path fill="#C1B19D" d="M292.96,273.225c-1.985-2.023,1.768-2.854,0.961-4.628c0.328,0.026,0.655,0.055,0.984,0.085
		C294.848,270.449,294.2,271.965,292.96,273.225z"/>
	<path fill="#E0CDB6" d="M127.117,311.904c2.284-3.67,5.819-3.857,8.321-0.494c0.581,0.785,0.775,2.098,2.6,0.885
		c1.848-1.232,4.052-0.252,5.697,1.354c-1.084,1.34-2.799,1.643-4.153,2.538c-0.916,0.374-1.908,0.531-2.796,0.978
		c-0.741,0.38-1.177,1.032-1.561,1.742c-1.273,2.197-3.037,3.202-5.583,2.29c-1.563,0.109-3.006-0.28-4.366-1.028
		c-0.214-0.228-0.299-0.466-0.254-0.715c0.045-0.254,0.102-0.383,0.161-0.383c0.285-1.323,2.758,0.363,2.446-1.793
		c-0.19-0.754-0.036-1.393,0.591-1.868c1.288-1.093-0.294-1.301-0.605-1.903C127.168,313.053,126.78,312.591,127.117,311.904z"/>
	<path fill="#B2A390" d="M180.589,331.334c-2.851-0.21-5.81,0.474-8.511-1.004c0.109-0.164,0.218-0.328,0.323-0.493
		c0.286-0.29,0.873-0.591,0.817-0.851c-0.134-0.643-0.867-0.065-1.251-0.389c-0.728-0.507-1.127-1.182-1.159-2.069
		c0.896-2.115,1.436-4.619,4.604-4.327c1.161,1.084,2.716,1.637,3.828,2.79c0.596,0.792,1.479,1.048,2.398,1.241
		c0.915,0.378,1.779,0.807,1.939,1.934c-0.224,0.778-0.873,1.196-1.422,1.701C181.639,330.356,181.001,330.727,180.589,331.334z"/>
	<path fill="#BDAD99" d="M101.187,300.99c2.835-3.07,2.766,0.641,3.854,1.647c0.446,0.899,0.004,1.592-0.521,2.271
		c-0.998,1.069-2.394,1.417-3.661,1.995c-0.676,0.341-1.288,0.787-1.892,1.246c-0.503,0.283-1.015,0.5-1.587,0.188
		c-1.138-0.145-1.998-0.715-2.59-1.691c-1.561-2.27,2.457-2.736,1.546-4.795c0.267-0.301,0.592-0.516,0.981-0.626
		C98.611,301.242,99.95,301.946,101.187,300.99z"/>
	<path fill="#AE9F8D" d="M147.41,325.574c-3.023-0.027-5.731-1.299-8.542-2.162c-0.343-0.59-0.207-1.127,0.193-1.627
		c0.887-0.99,2.516-0.789,3.244-2.042c0.419-0.654,0.808-1.331,1.54-1.7c1.098-0.162,2.011,0.255,2.857,0.897
		c0.866,0.932,1.594,1.95,1.993,3.177C148.817,323.473,148.388,324.627,147.41,325.574z"/>
	<path fill="#D4C2AC" d="M142.708,320.318c0.052,2.072-2.078,0.695-2.704,1.7c-1.098-0.6-2.29,0.047-3.409-0.249
		c-1.061,0.327-2.081,1.023-3.254,0.365c-1.287-0.099-2.612-0.063-3.701-0.942c2.485-0.087,4.467-0.831,4.811-3.698
		c0.224-1.037,1.87,0.354,1.859-1.086c0.748-1.023,1.846-0.785,2.875-0.797c1.132,0.427,1.659,1.42,2.234,2.367
		C141.862,318.75,142.499,319.416,142.708,320.318z"/>
	<path fill="#D5B2A2" d="M111.969,315.742c-2.99-0.633-5.592-2.105-8.104-3.768c0.079-0.172,0.156-0.341,0.232-0.514
		c0.456-0.617,0.994-1.154,1.612-1.615c0.356-0.174,0.734-0.265,1.129-0.287c1.417,0.026,2.803,0.234,4.159,0.66
		c1.056,0.363,2.072,0.791,2.933,1.522c0.537,0.526,0.873,1.151,0.982,1.897C114.897,315.688,113.855,316.308,111.969,315.742z"/>
	<path fill="#C1AF9B" d="M93.082,306.141c-2.625-1.205-5.348-2.236-7.564-4.182c-0.441-1.405,0.648-1.446,1.47-1.499
		c1.375-0.085,1.655-1.044,1.924-2.081c0.218-0.363,0.535-0.593,0.948-0.683c0.833-0.021,1.592,0.249,2.339,0.574
		c0.539,0.282,0.957,0.671,1.108,1.284c-0.379,1.097,0.832,1.597,0.951,2.514C93.746,303.391,94.963,305.213,93.082,306.141z"/>
	<path fill="#AE9E8C" d="M246.01,321.999c-0.003,0.624-0.005,1.247-0.005,1.866c-2.905,1.849-5.824,3.66-9.249,4.414
		c-0.545-1.27-0.076-2.507,0.104-3.758c0.096-0.426,0.256-0.829,0.445-1.223c0.831-1.455,1.959-2.316,3.738-1.85
		C242.532,323.088,244.402,321.384,246.01,321.999z"/>
	<path fill="#B1A290" d="M207.502,332.235c-2.629,2.65-5.666,0.556-8.506,0.733c-1.34-1.619-0.939-3.163,0.191-4.68
		c1.057-1.016,2.199-1.699,3.673-0.791c1.161,0.698,0.864,2.438,2.176,3.036c0.544,0.026,1.058,0.114,1.543,0.355
		C207.062,331.221,207.404,331.646,207.502,332.235z"/>
	<path fill="#AB9B8A" d="M164.874,329.264c-1.609,0.198-3.133-0.11-4.583-0.812c-0.513-0.623-0.359-1.396-0.484-2.106
		c-0.501-1.254-1.9-2.026-1.93-3.539c0.036-0.435,0.171-0.832,0.394-1.208c1.296-1.393,2.644-1.295,4.026-0.136
		c0.915,1.32,2.262,2.317,2.931,3.835C165.135,326.617,165.487,327.985,164.874,329.264z"/>
	<path fill="#A89A89" d="M79.155,298.492c-0.65-0.713-1.301-1.424-1.951-2.135c0.496-0.955,1.534-1.136,2.335-1.65
		c1.168-0.793,1.123-3.213,3.388-2.549c1.011,0.445,1.743,1.177,2.235,2.156c0.21,0.602,0.21,1.205-0.027,1.799
		c-0.64,0.953-1.861,1.322-2.404,2.383c-0.229,0.307-0.525,0.525-0.876,0.674C80.956,298.942,80.054,298.717,79.155,298.492z"/>
	<path fill="#A89A89" d="M199.99,328.279c-0.848,1.454-1.13,3.028-0.994,4.69c-1.531-0.053-3.061-0.104-4.591-0.155
		c-0.325-0.261-0.632-0.545-0.927-0.838c-0.808-1.557-0.846-2.798,1.291-3.14c1.559,0.347,2.338-1.028,3.486-1.595
		C199.157,327.053,199.908,327.112,199.99,328.279z"/>
	<path fill="#B5A390" d="M97.38,308.336c0.393-0.354,0.788-0.709,1.182-1.06c0.988-0.725,2.147-0.188,3.198-0.433
		c1.021,0.699,1.2-0.713,1.929-0.775c0.407,0.045,0.753,0.211,1.063,0.469c0.72,0.736,1.53,1.425,1.421,2.609
		c-0.747,0.756-1.185,1.72-1.73,2.611c-0.165,0.145-0.358,0.217-0.577,0.217C101.703,310.762,99.542,309.549,97.38,308.336z"/>
	<path fill="#D4C1AB" d="M93.082,306.141c0.907-1.309-1.95-3.411,0.914-4.303c0.896-0.331,1.802-0.318,2.712-0.07
		c0.728,2.162,0,3.752-1.917,4.876C94.223,306.476,93.653,306.311,93.082,306.141z"/>
	<path fill="#817769" d="M233.09,330.328c-1.232,1.585-3.408-1.132-4.528,0.985c-1.091-0.492-1.693-1.531-2.564-2.273
		c-0.405-0.475-0.644-0.999-0.489-1.64c0.858-1.32,1.986-1.176,3.201-0.596c1.072,0.535,2.281,0.674,3.388,1.125
		c0.567,0.293,0.999,0.724,1.29,1.289C233.506,329.645,233.408,330.015,233.09,330.328z"/>
	<path fill="#B9A996" d="M187.914,332.086c-0.83-1.828-2.688-3.66,0.029-5.464c0.61-0.581,1.277-0.55,1.979-0.192
		c0.512,0.564,0.741,1.242,0.827,1.984c0.013,1.518-0.131,2.96-1.9,3.521C188.539,331.985,188.227,332.034,187.914,332.086z"/>
	<path fill="#C3B39F" d="M214.657,333.049c-2.298,0.282-4.667,1.118-6.692-0.826c0.209-1.074,0.953-1.702,1.842-2.222
		c0.373-0.134,0.759-0.188,1.154-0.174c1.293,0.375,2.711-0.26,3.965,0.468c0.365,0.527,0.469,1.105,0.385,1.731
		C215.172,332.42,214.953,332.762,214.657,333.049z"/>
	<path fill="#C5B4A0" d="M125.276,319.264c-0.005,0.301-0.006,0.601-0.001,0.902c-0.974-0.12-2.052,0.102-2.783-0.832
		c-0.617-0.617-1.436-1.083-1.56-2.068c-0.021-1.312,0.52-2.135,1.921-2.217c0.688,0.072,1.251,0.402,1.754,0.852
		c0.625,0.627,1.095,1.34,1.195,2.248C125.764,318.584,125.596,318.959,125.276,319.264z"/>
	<path fill="#CABAA4" d="M121.604,317.524c0.295,0.604,0.589,1.206,0.886,1.81c-1.218-0.345-2.44-0.688-3.662-1.029
		c-1.118-0.61-1.813-1.446-1.536-2.814c0.679-1.705,1.963-2.396,3.753-2.234C123.186,314.42,119.769,316.316,121.604,317.524z"/>
	<path fill="#A09382" d="M89.38,298.125c1.965,4.544-2.356,2.773-3.862,3.834c-0.27-0.188-0.537-0.377-0.807-0.563
		c-0.136-0.895-1.797-1.463-0.577-2.649c0.35-0.184,0.729-0.28,1.124-0.305c1.115,0.213,2.161,0.04,3.117-0.613
		C88.759,297.765,89.092,297.863,89.38,298.125z"/>
	<path fill="#C3A797" d="M111.969,315.742c1.925-0.172,2.412-1.348,2.142-3.055c-0.56-1.307-0.079-1.963,1.292-2.062
		c2.199,1.153,1.797,2.965,1.225,4.819c-0.66,0.899-1.419,1.585-2.66,1.214C113.169,316.645,112.446,316.459,111.969,315.742z"/>
	<path fill="#A69887" d="M164.874,329.264c-0.539-1.218-1.624-2.445,0.086-3.611c0.429-0.893,1.014-1.401,2.043-0.832
		c0.831,1.182,0.812,2.462,0.434,3.782c-0.184,0.411-0.482,0.713-0.887,0.913C165.993,329.432,165.434,329.349,164.874,329.264z"/>
	<path fill="#BCAC98" d="M153.854,326.534c-2.036,0.823-3.823-0.149-5.659-0.782c0.482-1.113,0.963-2.229,1.957-3.013
		c1.648-0.042,2.731,0.996,3.832,2.005C154.315,325.363,154.385,325.972,153.854,326.534z"/>
	<path fill="#A09382" d="M210.041,330.295c-0.4,0.956-1.128,1.561-2.076,1.93l-0.23,0.088l-0.234-0.077
		c-0.411-0.335-0.822-0.671-1.233-1.007c-1.213-0.898-1.448-1.865-0.206-2.934c0.355-0.179,0.737-0.242,1.134-0.189
		c0.981-0.183,0.835,2.075,2.226,1.023C209.998,329.319,210.428,329.592,210.041,330.295z"/>
	<path fill="#988C7C" d="M188.852,331.935c0.602-1.09,1.037-2.223,0.926-3.499c0.348-0.287,0.714-0.309,1.095-0.074
		c0.569,1.737,2.075,2.599,3.419,3.612c0.059,0.277,0.098,0.558,0.115,0.839C192.431,333.298,190.55,333.18,188.852,331.935z"/>
	<path fill="#B7A895" d="M170.417,330.268c-1.307-0.156-2.725,0.25-3.865-0.752c0.175-0.091,0.328-0.207,0.463-0.352
		c0.841-1.357,1.016-3.26,3.019-3.662c0.685,0.324,0.859,0.928,0.888,1.613C171.271,328.252,171.378,329.346,170.417,330.268z"/>
	<path fill="#C5B5A0" d="M150.222,322.866c-0.018,1.422-0.175,2.75-2.027,2.886l-0.423,0.036l-0.363-0.214
		c-0.149-1.306,0.274-2.465,0.895-3.575c0.305-0.272,0.661-0.409,1.072-0.407C149.998,321.791,150.393,322.14,150.222,322.866z"/>
	<path fill="#A59282" d="M113.97,316.658c0.684-0.364,1.366-0.738,2.049-1.106c0.591-0.522,1.173-0.522,1.746,0.026
		c0.355,0.91,0.711,1.818,1.067,2.729C116.891,318.697,115.475,317.554,113.97,316.658z"/>
	<path fill="#908172" d="M161.188,326.692c-0.298,0.585-0.597,1.171-0.896,1.759c-1.3,0.033-2.651,0.295-3.709-0.799
		c-0.602-1.105,0.109-1.688,0.895-2.242C158.949,325.151,160.151,325.685,161.188,326.692z"/>
	<path fill="#D3C0AA" d="M184.26,330.378c0.604,0.54,1.207,1.077,1.812,1.614c-1.916,0.501-3.693-0.124-5.483-0.658
		c-0.04-0.883,0.135-1.655,1.038-2.064C182.7,329.174,183.67,329.328,184.26,330.378z"/>
	<path fill="#9D907F" d="M221.053,332.973c-0.285-0.278-0.565-0.56-0.853-0.84c-1.034-1.577-0.01-2.159,1.267-2.624
		c0.725-0.118,1.426-0.031,2.092,0.275c0.416,0.249,0.675,0.62,0.766,1.097c0.124,1.622-1.309,1.557-2.229,2.048
		C221.75,332.94,221.4,332.957,221.053,332.973z"/>
	<path fill="#938677" d="M233.09,330.328c-0.002-0.315-0.004-0.63-0.006-0.942c-0.906-1.955,0.211-2.36,1.828-2.388
		c0.797,0.326,1.504,0.703,0.976,1.761C235.373,330.018,234.258,330.216,233.09,330.328z"/>
	<path fill="#CAB8A3" d="M226.639,328.562c1.435,0.365,1.567,1.636,1.923,2.752c-0.295,1.009-1.12,0.877-1.885,0.869
		c-0.147-0.091-0.293-0.183-0.441-0.27c-0.456-0.544-0.774-1.151-0.868-1.863C225.434,329.249,225.955,328.837,226.639,328.562z"/>
	<path fill="#A49786" d="M136.365,320.207c1.067,0.902,2.79,0.483,3.642,1.812c-0.378,0.464-0.758,0.927-1.138,1.394
		c-0.847-0.184-1.695-0.365-2.543-0.55C135.684,321.969,135.682,321.084,136.365,320.207z"/>
	<path fill="#7E7466" d="M170.417,330.268c0.008-1.206,0.018-2.417,0.026-3.623c0.29-0.395,0.592-0.406,0.912-0.04
		c0.305,0.617,0.612,1.233,0.917,1.854c0.543,0.51,0.71,1.117,0.484,1.83l-0.334,0.084l-0.344-0.043
		C171.523,330.308,170.97,330.289,170.417,330.268z"/>
	<path fill="#CBB9A4" d="M222.099,332.929c0.616-0.577,1.237-1.152,1.858-1.729c1.039-0.604,1.689,0.173,2.415,0.681l0.305,0.3
		C225.268,333.153,223.723,333.295,222.099,332.929z"/>
	<path fill="#BCA895" d="M136.365,320.207c-0.013,0.887-0.027,1.771-0.039,2.656c-1.086,0.136-2.098-0.041-2.983-0.729
		C134.766,322.145,135.38,320.889,136.365,320.207z"/>
	<path fill="#D9C5AF" d="M58.097,279.646c2.059,1.131,2.742-0.573,3.665-1.779c1.397,0.406,2.286,1.31,2.654,2.718
		c0.37,0.028,0.742,0.062,1.111,0.096c2.024,0.64,0.374,3.727,2.762,4.128c2.85,1.649,5.534,3.496,7.382,6.313
		c0.673,0.843,1.128,1.771,1.129,2.875c-0.131,0.71-0.667,1.011-1.268,1.243C69.311,290.5,63.6,285.188,58.097,279.646z"/>
	<path fill="#171617" d="M69.968,110.2c-5.504-0.009-11.01-0.017-16.515-0.024C58.961,108.918,64.466,108.895,69.968,110.2z"/>
	<path fill="#D6C4AE" d="M254.234,307.135c-0.391-1.444-3.383,0.103-2.473-1.184c1.338-1.891,1.59-5.526,5.314-5.07
		c1.526,1.162,2.908,2.377,1.481,4.506c-0.457,0.387-1.056,0.56-1.509,0.967c-0.291,0.95-1.691-0.064-1.885,1.059
		C254.766,307.613,254.455,307.521,254.234,307.135z"/>
	<path fill="#867B6D" d="M247.611,319.584c0.047,0.918-0.445,1.432-1.276,1.691c-1.85,0.568-2.436-0.73-3.026-2.027
		c-0.215-1.487-0.911-2.834-1.315-4.273c0.104-0.691,0.508-1.171,1.101-1.506c1.008-0.203,1.651,0.258,2.066,1.131
		c-0.117,1.26,0.488,1.822,1.719,1.785C246.852,317.511,246.885,318.627,247.611,319.584z"/>
	<path fill="#CAB9A4" d="M245.16,314.6c-0.622-0.248-1.245-0.499-1.867-0.748c-1.098-0.703-0.977-1.809-0.95-2.882
		c0.831-0.726,1.89-1.976,2.076,0.312c0.099,1.218,0.681,1.389,1.564,1.518C245.962,313.514,245.854,314.188,245.16,314.6z"/>
	<path fill="#B1A290" d="M248.799,311.027c1.311-1.236,3.293,0.494,4.537-1.027C252.315,312.499,251.061,313.978,248.799,311.027z"
		/>
	<path fill="#877C6E" d="M257.051,306.353c0.303-0.292,0.612-0.584,0.916-0.874c1.357-0.511,1.59-3.221,3.853-1.971
		c0.575,1.316,0.101,2.264-1.032,2.989C259.539,306.45,258.295,306.401,257.051,306.353z"/>
	<path fill="#E0CDB6" d="M260.787,306.497c0.275-0.962,0.553-1.923,0.825-2.885c0.339-0.24,0.7-0.28,1.083-0.121
		c0.246,0.36,0.221,0.701-0.074,1.019c-0.107,1.455-0.121,2.957-1.824,3.605C260.795,307.574,260.791,307.037,260.787,306.497z"/>
	<path fill="#887C6E" d="M254.234,307.135c0.311,0.09,0.621,0.186,0.93,0.277c0.057,1.318,0.088,2.619-1.783,2.63
		C253.445,309.008,253.166,307.874,254.234,307.135z"/>
	<path fill="#DFCCB5" d="M274.549,287.033c-0.639,0.557-1.266,0.488-1.881-0.041c-1.835-3.898,0.128-5.236,3.706-5.488
		c-0.056,0.902-0.205,2.033-1.089,2.223c-2.913,0.618-0.561,2.206-0.729,3.309"/>
	<path fill="#B8A996" d="M279.17,286.062c2.088,0.002,1.73-1.687,2.021-2.924c0.155-0.463,0.392-0.854,0.892-1.01
		c0.331-0.015,0.594,0.113,0.788,0.387c0.949,1.279-0.211,2.611,0.097,3.906c-0.474,0.825-0.948,1.649-1.426,2.475
		C280.754,287.949,279.961,287.006,279.17,286.062z"/>
	<path fill="#CFBEA8" d="M272.668,286.992c0.627,0.014,1.255,0.027,1.881,0.041c0.013,1.197,0.021,2.392,0.031,3.59
		c-0.313,0.031-0.629,0.066-0.942,0.1c-0.692,0.457-1.083,0.048-1.43-0.487c0.55-2.052-2.223-0.815-2.267-2.278
		C270.586,286.895,271.68,287.096,272.668,286.992z"/>
	<path fill="#A08F7F" d="M266.262,298.977c1.288,1.262,3.475,0.443,4.637,1.998c-0.174,1.207-0.892,2.016-1.908,2.6
		c-0.171-0.066-0.338-0.134-0.513-0.199c-0.627-0.396-1.208-0.855-1.774-1.344c-0.434-0.402-0.77-0.871-0.948-1.443
		C265.663,299.972,265.777,299.416,266.262,298.977z"/>
	<path fill="#A08F7F" d="M268.99,303.574c-0.909,0.938-1.816,1.865-2.726,2.802l-0.28-0.22c-0.34-2.168,0.506-3.178,2.756-2.812
		L268.99,303.574z"/>
	<path fill="#AB9D8B" d="M266.262,298.977c-0.005,0.617-0.01,1.234-0.013,1.85c-0.49,1.349-1.642,2.042-2.757,2.776
		c-0.291,0.302-0.58,0.608-0.871,0.909c-0.058-0.277-0.107-0.557-0.147-0.834c-0.438-0.604-1.038-1.127-1.024-1.967
		c-0.229-1.195-0.457-2.393-0.691-3.586c0.715-0.865,1.497-1.561,2.74-1.053c0.577,1.159,1.691,0.963,2.685,1.066
		C266.231,298.414,266.259,298.697,266.262,298.977z"/>
	<path fill="#BDAC98" d="M268.737,303.344c-1.421,0.441-2.288,1.43-2.753,2.812c-1.146-0.468-1.562-1.381-1.571-2.549
		c0.532-1.236,1.463-1.854,2.825-1.799C268.236,301.834,269,302.091,268.737,303.344z"/>
	<path fill="#827769" d="M267.238,301.811c-0.942,0.6-1.885,1.199-2.825,1.798c-0.307-0.001-0.613-0.002-0.923-0.005
		c0.655-1.188,0.928-2.754,2.758-2.777C266.58,301.154,266.908,301.483,267.238,301.811z"/>
	<path fill="#83786A" d="M244.007,318.004c0.125,1.553,0.817,2.706,2.328,3.271c-0.058,0.264-0.166,0.506-0.325,0.726
		c-1.536,0.121-3.045,4.046-4.611,0.033c0.088-0.327,0.207-0.643,0.348-0.948c0.233-0.678,0.081-1.352-0.029-2.028
		c-0.07-0.579,0.018-1.118,0.339-1.612C242.943,316.815,243.475,317.402,244.007,318.004z"/>
	<path fill="#FDFDFD" d="M107.025,70.667c-1.434-1.16-1.011-2.786-1.017-4.269c-0.03-7.649,0.236-15.314-0.113-22.949
		c-0.186-4.081,1.385-4.694,4.981-4.665c19.916,0.159,39.833,0.075,59.753,0.075c16.392,0,32.789,0.108,49.179-0.086
		c3.492-0.041,4.474,0.92,4.294,4.352c-0.479,9.153,0.508,18.338-0.519,27.487"/>
	<path fill="#1F2325" d="M164.337,127.974c-8.685,1.59-17.439,1.093-26.183,0.896c3.445-2.199,7.256-0.61,10.875-1.012
		c2.223-0.247,4.486-0.104,6.731-0.136C158.622,127.805,161.479,127.892,164.337,127.974z"/>
	<path fill="#1F2325" d="M134.512,128.874c-2.604,0.459-5.12,0.239-7.511-0.96C129.514,128.148,132.227,126.843,134.512,128.874z"/>
	<path fill="#1F2325" d="M115.028,125.413c-1.588-0.578-3.284-0.928-4.554-2.168C112.34,123.238,114.137,123.374,115.028,125.413z"
		/>
	<path fill="#1F2325" d="M127.075,127.964c-1.758,0.249-3.379-0.194-4.946-0.951C123.822,127.104,125.715,126.146,127.075,127.964z"
		/>
	<path fill="#1E2427" d="M96.572,118.12c-1.988-0.502-4.016-0.897-5.733-2.127C93.064,115.853,95.177,116.025,96.572,118.12z"/>
	<path fill="#1E2427" d="M88.312,115.227c-1.633-0.661-3.265-1.322-4.901-1.983C85.405,113.017,87.256,113.145,88.312,115.227z"/>
	<path fill="#1F1F1F" d="M266.247,172.018c6.344,16.74,4.894,32.815-4.78,47.85c-2.396,3.735-5.139,8.277-11.062,7.277
		c11.811-6.387,15.602-17.441,16.741-29.691c0.863-9.277,0.219-18.537-3.565-27.294
		C265.244,169.667,265.663,170.965,266.247,172.018z"/>
	<path fill="#202020" d="M227.547,173.818c2.121-0.492,2.223-3.583,4.686-3.628c-1.123,1.608-2.022,3.45-3.41,4.788
		c-9.572,9.273-11.982,20.727-10.7,33.463c0.291,2.902,1.925,5.064,3.067,7.515c0.404,0.478,0.35,0.892-0.167,1.245
		c-6.962-5.393-5.899-13.063-5.175-20.233C216.765,187.931,221.098,180.252,227.547,173.818z"/>
	<path d="M252.405,230.88c-4.903,1.216-9.808,1.677-14.714,0.02c-0.482-0.569-1.623-0.315-1.773-1.116
		c-0.227-1.218,0.85-1.404,1.709-1.541c1.326-0.212,2.686-0.002,4.016-0.238c0.803-0.344,1.766-0.146,2.505-0.72
		c0.927-0.017,1.805-1.606,2.774-0.074C248.085,229.423,252.84,226.285,252.405,230.88z"/>
	<path fill="#232323" d="M244.147,227.284c-0.634,0.327-1.269,0.658-1.904,0.987c-2.63,0.717-5.404-0.045-8.046,0.785
		c-0.67,0.213-1.637,0.152-2.202-0.277c-4.095-3.117-8.438-5.998-10.95-10.732c0.016-0.285,0.009-0.565-0.022-0.848
		c0.056-0.416,0.11-0.828,0.167-1.244c2.876,3.092,7.354,4.359,9.1,8.915c0.75,1.964,3.92,2.021,6.151,2.246
		C238.988,227.374,241.578,227.248,244.147,227.284z"/>
	<path fill="#313131" d="M247.84,198.041c0,0.918,0.052,1.839-0.016,2.752c-0.06,0.857,0.13,1.954-1.174,2.095
		c-1.68,0.181-1.543-1.118-1.592-2.14c-0.088-1.834-0.143-3.67-0.096-5.506c0.027-1.098-0.536-2.791,1.362-2.769
		c1.749,0.024,1.431,1.651,1.503,2.815C247.889,196.203,247.84,197.123,247.84,198.041z"/>
	<path fill="#0A0606" d="M266.247,172.018c-0.888-0.621-1.776-1.24-2.666-1.858c-0.194-0.268-0.235-0.554-0.118-0.861
		c0.328-1.548,0.653-3.095,0.982-4.642c0.604,0.302,1.205,0.606,1.807,0.909C266.723,167.717,267.883,169.867,266.247,172.018z"/>
	<path fill="#3A342E" d="M228.432,126.042c0.029,0.267,0.029,0.537,0.002,0.804c-1.537-0.016-3.074-0.027-4.611-0.04
		c0.025-0.241,0.021-0.477-0.01-0.71C225.352,126.077,226.892,126.06,228.432,126.042z"/>
	<path fill="#1F1F1F" d="M103.267,222.338c-0.042,0.409-0.085,0.822-0.132,1.235c-7.398-4.724-6.944-12.292-6.267-19.368
		c0.903-9.471,3.444-18.595,9.699-26.252c1.668-2.047,3.442-3.854,5.792-5.064c0.433,0.372,0.475,0.788,0.131,1.244
		c-10.249,9.896-13.311,22.504-13.627,36.132C98.756,214.842,100.042,218.954,103.267,222.338z"/>
	<path fill="#252525" d="M112.492,174.131c-0.043-0.411-0.085-0.826-0.13-1.242c4.186-2.902,8.503-5.472,13.835-5.501
		c7.095-1.059,10.296-0.823,11.985,4.605c3.836,7.654,7.771,15.264,6.456,24.309c-0.242,1.674,0.057,3.43-1.938,4.236
		c0.154-9.449-0.77-18.612-5.661-27.08c-2.161-3.737-5.12-4.86-9.034-4.603C122.365,169.222,117.312,171.344,112.492,174.131z"/>
	<path fill="#212121" d="M123.587,199.077c0,1.079,0.094,1.853-0.021,2.595c-0.163,1.055,0.426,2.746-1.551,2.605
		c-1.498-0.108-1.224-1.471-1.293-2.477c-0.055-0.752-0.17-1.555,0.015-2.27c0.46-1.793-1.374-5.064,1.482-5.105
		C124.534,194.394,123.045,197.677,123.587,199.077z"/>
	<path fill="#0D0B0B" d="M138.181,171.992c-2.92-4.326-7.199-5.125-11.985-4.605c1.192-1.426,2.83-0.799,4.293-0.898
		c1.38-0.094,2.869,0.125,3.088-1.85c2.771-0.173,5.044,0.401,5.532,3.664C138.798,169.531,138.49,170.761,138.181,171.992z"/>
	<path fill="#090404" d="M112.35,228.137c-1.833,1.527-3.669,0.299-5.504,0c-0.306-0.9-0.615-1.803-0.922-2.707
		C108.446,225.432,111.352,224.523,112.35,228.137z"/>
	<path fill="#070202" d="M221.045,218.051c2.926,3.033,6.942,4.809,9.292,8.594c1.509,2.438,4.48,1.354,6.853,1.525
		c1.68,0.119,3.37,0.072,5.054,0.098c-1.267,1.302-2.897,0.604-4.363,0.795c-2.626,0.342-0.13,1.222-0.19,1.836
		c-0.615,0-1.228,0.001-1.842,0.001c-5.128-1.103-9.494-3.735-13.722-6.701c-1.584-1.103-2.72-2.353-2.856-4.338
		C219.861,219.256,220.455,218.656,221.045,218.051z"/>
	<path fill="#434343" d="M131.865,227.131c0.786-1.578,2.061-2.689,3.488-3.654c0.602,0.112,0.964,0.475,1.087,1.074
		C135.366,226.207,133.771,226.943,131.865,227.131z"/>
	<path fill="#585858" d="M136.44,224.551c-0.362-0.359-0.724-0.715-1.087-1.072c0.872-0.868,1.749-1.736,2.622-2.6
		C138.13,222.379,137.388,223.506,136.44,224.551z"/>
	<path fill="#24211D" d="M172.669,290.395c12.989-2.15,24.203,3.973,35.927,7.666c1.072,0.341,2.192,0.953,1.709,2.238
		c-0.494,1.314-1.777,0.859-2.779,0.537c-2.328-0.748-4.71-1.387-6.935-2.373c-12.294-5.458-25.039-6.367-38.152-4.057
		c-1.121,0.195-2.632,0.812-2.984-0.969c-0.407-2.084,1.451-2.104,2.695-2.24C165.644,290.823,169.16,290.648,172.669,290.395z"/>
	<path fill="#DCCAB3" d="M67.197,277.932c0.814-1.264-0.41-1.49-0.931-2.043c-0.485-0.56-1.359-1.117-1.362-1.678
		c-0.006-0.953,0.983-0.996,1.723-0.734c2.189,0.77,4.99,0.611,5.837,3.541c0.842,2.904,5.75,0.67,5.744,4.59
		c-2.304,0.693-4.417,1.762-6.351,3.199c-0.662,0.15-1.295,0.086-1.888-0.252c-0.292-0.324-0.484-0.703-0.581-1.128
		c1.471-2.72-2.094-3.489-2.187-5.528"/>
	<path fill="#C6B5A1" d="M217.393,316.426c-0.086-2.775,1.436-3.34,3.727-2.582c1.265,0.42,2.445,1.088,3.662,1.645
		c0.492,0.461,0.584,1.027,0.451,1.654c-0.158,0.373-0.391,0.695-0.675,0.982c-1.122,0.858-1.394,2.469-2.743,3.141
		c-1.305,0.639-2.582,0.809-3.781-0.242C217.111,319.59,216.215,318.148,217.393,316.426z"/>
	<path fill="#DAC7B1" d="M224.737,317.494c0.016-0.667,0.029-1.334,0.044-2.003c0.457-6.204,4.205-1.798,6.518-2.021
		c0.297,0.308,0.445,0.676,0.461,1.103c-0.176,1.235-0.422,2.453-0.926,3.61c-0.22,0.372-0.492,0.697-0.807,0.993
		c-1.203,1.202-2.574,1.618-4.197,0.923C224.767,319.527,223.854,318.885,224.737,317.494z"/>
	<path fill="#D4C2AC" d="M151.085,318.364c-1.855-1.269-3.708-2.54-5.562-3.81c3.175-2.912,6.658-1.672,10.119-0.748
		c-0.665,1.154,1.003,2.074,0.327,3.232c-0.614,0.857-1.649,0.66-2.471,1.004c-0.484,0.224-0.961,0.473-1.466,0.652
		C151.653,318.76,151.336,318.656,151.085,318.364z"/>
	<path fill="#B8A895" d="M71.816,284.266c1.578-2.214,3.496-3.613,6.394-2.66c0.981,1.318,0.901,3.435,2.972,3.93
		c-0.33,0.197-0.658,0.39-0.99,0.582c-0.71,1.422-1.947,1.324-3.225,1.127c-0.825-0.104-1.644-0.258-2.431-0.551
		C73.399,286.146,72.208,285.655,71.816,284.266z"/>
	<path fill="#B2A390" d="M96.708,301.768c-0.893,0.486-1.797,0.572-2.712,0.068c-0.663-0.522-2.14-0.701-0.859-2.04
		c0.282-0.251,0.312-0.51,0.072-0.744c-0.348-0.337-0.721-0.396-1.106-0.046c-0.782-0.035-1.492-0.203-1.851-1.01
		c-0.279-0.635,0.049-1.103,0.415-1.566c0.705-0.551,1.134-1.701,2.374-1.12c1.114,2.371,5.943,0.442,5.441,4.691
		c-0.456,0.504-0.115,1.392-0.849,1.765C97.325,301.766,97.016,301.766,96.708,301.768z"/>
	<path fill="#C1B19D" d="M93.041,295.31c-0.667,0.616-1.334,1.229-2.003,1.843c-1.164-0.562-2.219-1.498-3.669-1.016
		c-0.539,0.171-1.074,0.346-1.623,0.477c-0.395,0.043-0.733-0.08-1.009-0.363c0-0.617,0-1.232,0.001-1.846
		c-0.406-1.058,0.12-1.621,1.049-1.97C89.683,290.873,91.988,291.788,93.041,295.31z"/>
	<path fill="#A49685" d="M115.086,310.957c1.248-2.307,4.417,1.355,5.408-1.742c0.177,0.777,0.281,1.593,1.135,1.98
		c0.906-0.165,1.662,0.047,2.172,0.869c0.238,0.941,0.011,1.664-0.952,2.048c-0.445,0.054-0.817-0.089-1.134-0.399
		c-1.587,0.048-2.913,0.652-3.952,1.86c-0.584-0.008-1.167-0.017-1.747-0.026C115.894,313.982,116.668,312.234,115.086,310.957z"/>
	<path fill="#C7B6A2" d="M217.393,316.426c0.314,1.545,0.631,3.092,0.944,4.641c-0.188,0.092-0.38,0.188-0.569,0.284
		c-1.879-0.286-3.82-0.175-5.648-0.84c-1.52-1.431-0.978-2.922-0.139-4.431c0.967-1.137,1.994-2.133,3.682-1.465
		C216.236,315.215,216.819,315.82,217.393,316.426z"/>
	<path fill="#CAB9A4" d="M181.45,313.66c0.843,0.619,1.419,1.996,2.837,1.021c1.457,0.826,1.297,1.99,0.687,3.254
		c-0.412,0.781-0.948,1.438-1.752,1.84c-0.849,0.34-1.696,0.324-2.555,0.031c-1.209-0.582-2.116-1.474-2.731-2.664
		c-0.044-0.21-0.082-0.42-0.123-0.631C178.971,315.491,179.663,313.873,181.45,313.66z"/>
	<path fill="#A79988" d="M67.203,277.818c2.289,1.131,5.41,1.846,2.75,5.461c-2.837-1.768-0.308,1.556-1.386,1.459
		c-0.136,0.147-0.272,0.297-0.411,0.443c-4.628,0.69-1.558-3.115-2.633-4.504C66.607,280.031,65.885,278.328,67.203,277.818z"/>
	<path fill="#C9B9A4" d="M231.238,314.507c0.02-0.345,0.039-0.688,0.059-1.036c2.127-0.869,4.008-0.678,5.476,1.272
		c0.538,0.478,0.728,1.093,0.7,1.792c-0.072,0.452-0.234,0.869-0.479,1.261c-0.638,0.722-1.412,1.135-2.406,1.036
		C232.806,317.908,230.897,317.078,231.238,314.507z"/>
	<path fill="#CDBCA6" d="M282.025,276.923c-0.355-0.321-0.715-0.646-1.072-0.967c0.226-2.924,1.747-4.771,4.581-5.53
		c0.644,0.117,1.062,0.501,1.301,1.098c0.018,1.074-0.694,1.807-1.228,2.627c-0.013,0.775-0.147,1.488-0.952,1.858
		c-0.903-0.94-0.146-1.998-0.357-2.708C283.775,274.4,284.419,276.6,282.025,276.923z"/>
	<path fill="#AC9E8C" d="M286.552,271.482c-0.339-0.352-0.677-0.703-1.018-1.055c1.088-3.068,2.814-4.092,5.589-1.736
		c-0.303,0.596-0.604,1.188-0.905,1.781c-0.528,0.652-0.941,1.449-1.903,1.588C287.64,272.131,287.048,271.961,286.552,271.482z"/>
	<path fill="#9C8F7E" d="M77.408,286.121c0.929,0.584,1.856,0.576,2.784-0.004c0.636,1.098,1.132,2.229,0.926,3.543
		c0.208,0.234,0.293,0.479,0.251,0.734c-0.039,0.26-0.09,0.392-0.15,0.395c-0.366,0.246-0.762,0.393-1.201,0.441
		c-1.594-0.021-3.114-0.214-4.089-1.716C75.359,287.921,76.054,286.877,77.408,286.121z"/>
	<path fill="#D4C2AC" d="M193.453,314.639c-0.305-0.918-0.609-1.836-0.912-2.753c3.256-1.159,5.837-0.554,7.375,2.801
		c0.24,1.226-0.59,1.321-1.455,1.378c-1.126-0.168-1.825-1.3-3.014-1.322C194.775,314.787,194.082,315.205,193.453,314.639z"/>
	<path fill="#C1B19D" d="M123.396,311.977c-0.591-0.262-1.179-0.521-1.769-0.783c2.437-4.432,3.571,1.157,5.491,0.709
		c0.301,0.297,0.604,0.594,0.905,0.891c0.547,0.59,0.572,1.247,0.254,1.951c-1.387,0.924-2.585,0.726-3.592-0.605
		C124.284,313.404,124.194,312.483,123.396,311.977z"/>
	<path fill="#B9AA97" d="M272.707,289.85c-1.435,0.115-2.709,0.561-3.638,1.728c-0.075,1.153-0.602,1.866-1.835,1.896
		c-2.681-3.592,2.698-3.235,2.707-5.511C270.672,288.867,272.88,287.619,272.707,289.85z"/>
	<path fill="#A09382" d="M236.749,316.49c0.01-0.584,0.018-1.167,0.024-1.747c0.91-0.417,1.82-0.836,2.729-1.259
		c1.441,0.941,2.884,1.877,2.795,3.908c0.016,0.629,0.032,1.256,0.051,1.888c-0.846,0.461-1.554,0.026-2.271-0.342
		C238.871,318.251,237.672,317.556,236.749,316.49z"/>
	<path fill="#C0B09C" d="M215.66,314.612c-0.963,0.646-1.93,1.296-2.895,1.946c-0.527,0.362-1.115,0.576-1.737,0.725
		c-0.631,0.049-1.222-0.076-1.753-0.43c-1.104-1.154,0.715-1.472,0.672-2.324C211.855,314.318,213.811,310.844,215.66,314.612z"/>
	<path fill="#AFA08E" d="M81.066,290.746c0.019-0.361,0.034-0.723,0.053-1.086c2.97-1.449,3.939,0.459,4.666,2.774
		c-0.349,0.655-0.699,1.313-1.048,1.966c-0.613-0.593-1.225-1.188-1.838-1.779C82.379,291.908,81.395,291.649,81.066,290.746z"/>
	<path fill="#C8B7A2" d="M198.082,315.578c0.749-0.019,1.428-0.176,1.832-0.892c1.214,0.259,2.424,0.517,3.637,0.778
		c0.847-0.207,1.213,0.271,1.412,0.99c-0.01,0.449-0.146,0.857-0.426,1.212c-1.845,0.837-3.836,0.194-5.736,0.56
		C197.109,317.738,196.047,317.078,198.082,315.578z"/>
	<path fill="#C7B6A2" d="M261.447,301.707c0.927,0.356,1.091,1.103,1.026,1.968c-0.288-0.032-0.57-0.057-0.859-0.063
		c-1.647-0.217-1.976,2.132-3.647,1.865c1.156-1.812-0.408-3.1-0.893-4.596C258.534,301.158,259.991,301.436,261.447,301.707z"/>
	<path fill="#C9B8A3" d="M242.297,317.395c-0.413-1.67-2.996-1.795-2.791-3.908c-0.043-0.198-0.061-0.4-0.053-0.598
		c0.117-0.576,0.457-0.93,1.034-1.043c0.3-0.005,0.601-0.013,0.901-0.022c1.029,0.739,0.841,1.894,1.017,2.926
		c0.825,0.942,2.163,1.638,1.603,3.259C243.436,317.803,242.867,317.598,242.297,317.395z"/>
	<path fill="#A09282" d="M156.608,314.797c0.881-0.093,1.762-0.188,2.645-0.277c0.949-0.932,2.074-1.371,3.412-1.209
		c1.148,0.658,0.6,1.809,0.806,2.747c-0.439,1.315-0.578,3.072-2.747,1.907c-0.94-1.359-2.487-0.686-3.717-1.094
		C156.217,316.306,155.875,315.65,156.608,314.797z"/>
	<path fill="#AB9D8B" d="M209.945,314.529c1.342,1.281-0.995,1.115-0.774,1.961c-0.455,0.476-1.017,0.574-1.638,0.457
		c-0.372-0.132-0.713-0.32-1.035-0.543c-0.842-0.787-2.01-1.04-2.906-1.743C205.67,312.676,207.811,313.83,209.945,314.529z"/>
	<path fill="#847A6C" d="M97.633,301.766c0.027-0.713,0.075-1.414,0.847-1.765c0.902,0.329,1.805,0.659,2.707,0.989
		C100.576,303.871,98.962,302.17,97.633,301.766z"/>
	<path fill="#CFBEA8" d="M167.641,313.654c0.023,0.297,0.039,0.596,0.046,0.893c-0.125,0.157-0.25,0.311-0.375,0.467
		c-0.358,0.182-0.743,0.274-1.143,0.292c-1.376-0.056-2.021-1.091-2.726-2.04c-0.127-0.149-0.252-0.297-0.379-0.449
		C165.45,308.398,165.876,314.687,167.641,313.654z"/>
	<path fill="#CFBEA8" d="M162.923,313.888c-1.223,0.213-2.447,0.423-3.669,0.632c-0.262-3.994,2.363-1.525,3.812-1.701l-0.004-0.002
		C163.343,313.217,163.313,313.576,162.923,313.888z"/>
	<path fill="#E1CEB6" d="M242.403,314.749c-1.146-0.696-0.97-1.847-1.015-2.926c0.316-0.284,0.634-0.569,0.951-0.854
		c1.104,0.701,0.84,1.855,0.953,2.88C243,314.152,242.699,314.449,242.403,314.749z"/>
	<path fill="#BCAC98" d="M240.486,311.846c-0.343,0.346-0.688,0.694-1.035,1.039c-0.897-0.059-1.799-0.113-3.379-0.215
		C237.797,311.346,238.881,310.307,240.486,311.846z"/>
	<path fill="#CEBCA7" d="M176.838,314.619c0.081,0.754,0.218,1.483,0.976,1.895l-0.013-0.029c0.208,0.936-0.372,1.332-1.11,1.621
		c-1.253,0.068-2.595,0.271-2.574-1.645l-0.03,0.049C174.934,315.775,175.138,314.112,176.838,314.619z"/>
	<path fill="#A19483" d="M156.608,314.797c0.032,0.736,0.25,1.371,0.978,1.715c0.201,1.213-0.541,1.322-1.452,1.236
		c-0.155-0.132-0.311-0.264-0.464-0.398c0.682-1.185-2.913-2.34-0.028-3.548C155.963,314.137,156.286,314.467,156.608,314.797z"/>
	<path fill="#A29483" d="M176.838,314.619c-0.917,0.626-1.835,1.258-2.75,1.887c0.339-1.215,0.677-2.43,1.018-3.643
		C176.25,312.893,176.881,313.422,176.838,314.619z"/>
	<path fill="#9E9080" d="M66.266,275.889c0.532-0.061,1.443-0.318,1.535-0.146c0.418,0.789,0.506,1.67-0.604,2.107
		C68.09,276.629,63.777,277.865,66.266,275.889z"/>
	<path fill="#958879" d="M64.415,280.585c-0.884-0.905-1.769-1.812-2.653-2.718C63.947,277.508,64.73,278.508,64.415,280.585z"/>
	<path fill="#C1B19D" d="M288.344,271.418c0.623-0.315,1.248-0.634,1.871-0.947c-0.547,1.248,1.977,4.15-1.937,3.582
		C287.725,273.159,287.579,272.278,288.344,271.418z"/>
	<path fill="#A09382" d="M282.025,276.923c0.743-1.263,1.487-2.532,2.254-3.834c0.795,0.904,0.232,1.96,0.373,2.92
		c-0.728,0.401-0.875,1.087-0.89,1.831C283.028,277.83,282.321,277.766,282.025,276.923z"/>
	<path fill="#B2A391" d="M125.278,318.307c1.026,0.003,2.121,0.198,2.752-0.945c0.654,0.323,1.838,0.6,1.871,0.977
		c0.129,1.488-1.204,0.77-1.901,0.892c-0.884,0.151-1.814,0.036-2.725,0.036C125.276,318.943,125.278,318.627,125.278,318.307z"/>
	<path fill="#B1A28F" d="M136.311,316.41c0.984,0.566,1.946,1.158,2.342,2.502c-1.811,0.193-2.561-1.9-4.202-1.419
		C134.721,316.535,135.551,316.535,136.311,316.41z"/>
	<path fill="#A79988" d="M128.867,315.575c-0.274-0.308-0.552-0.618-0.829-0.924c-0.005-0.619-0.01-1.241-0.017-1.858
		c1.059,0.004,1.82,0.421,1.815,1.574C129.834,314.922,130.37,316.134,128.867,315.575z"/>
	<path fill="#AD9E8C" d="M171.354,326.604l-0.457-0.003l-0.454,0.041c-0.305-0.322-0.607-0.639-0.915-0.958
		c-0.888-0.249-1.265-0.876-1.31-1.757c0.12-0.803,0.475-1.498,0.987-2.123c0.563-0.542,1.229-0.941,1.868-1.382
		c0.631-0.44,1.301-0.806,2.047-1.017c1.075-0.273,2.209-0.365,3.159-1.039c0.339-0.191,0.703-0.312,1.092-0.352
		c1.5,0.186,2.349,1.457,3.558,2.131c0.207,0.372,0.337,0.768,0.389,1.189c0.015,0.657-0.146,1.262-0.556,1.787
		c-0.335,0.252-0.714,0.425-1.125,0.521c-1.553-0.169-3.205,0.206-4.627-0.778C173.181,323.514,172.404,325.191,171.354,326.604z"/>
	<path fill="#D2C0AA" d="M179.641,322.936c0.294-0.012,0.589-0.031,0.882-0.064c1.605-0.555,3.266-0.89,4.937-1.189
		c1.432,0.573,2.149,1.502,1.53,3.09c-2.044,0.039-3.254,2.547-5.543,1.862c-1.18,0.461-2.547,1.472-2.72-0.947
		C179.341,324.873,178.586,323.604,179.641,322.936z"/>
	<path fill="#887C6E" d="M184.26,330.378c-0.879-0.371-1.757-0.738-2.635-1.108c0.33-0.768,1.019-0.785,1.702-0.812
		C184.416,328.721,185.604,328.938,184.26,330.378z"/>
	<path fill="#C1AE9A" d="M172.757,330.286c-0.163-0.608-0.324-1.217-0.485-1.829c0.542-0.337,1.086-0.672,1.63-1.004
		c0.162,0.54,0.371,1.075,0.476,1.63C174.652,330.543,173.496,330.146,172.757,330.286z"/>
	<path fill="#877B6D" d="M100.455,306.244c0.542,0.319,1.084,0.633,1.628,0.953c-1.153,1.02-2.352-0.07-3.521,0.078
		C98.9,306.4,99.688,306.339,100.455,306.244z"/>
	<path fill="#7D7265" d="M146.46,319.248c1.208,0.352,2.419,0.702,3.63,1.055c0.188,0.818-0.142,1.316-0.942,1.525
		c-0.277,0.072-0.558,0.13-0.843,0.171C147.064,321.499,146.422,320.603,146.46,319.248z"/>
	<path fill="#7F7467" d="M140.875,318.331c0.916,0.012,1.834,0.024,2.751,0.036c0.135,0.857-0.121,1.529-0.916,1.949
		C141.587,320.125,140.827,319.602,140.875,318.331z"/>
	<path fill="#8A7F70" d="M110.549,310.975c-0.013-0.615-0.024-1.229-0.036-1.844c0.646-0.525,1.295-0.516,1.947-0.008
		c0.291,0.938,0.58,1.882,0.87,2.822C112.403,311.622,111.476,311.299,110.549,310.975z"/>
	<path fill="#867A6D" d="M107.075,308.266c-0.134,0.516-0.271,1.03-0.407,1.547c-0.002-0.002-0.306,0.041-0.306,0.041l-0.307-0.025
		c-0.335-0.018-0.482-0.113-0.446-0.284c0.045-0.213,0.111-0.317,0.197-0.317c-0.393-0.984-1.894-1.291-1.641-2.669
		C105.133,307.127,106.105,307.697,107.075,308.266z"/>
	<path fill="#D1BFA9" d="M105.805,309.229c0.138,0.18,0.222,0.381,0.25,0.602c-0.162,0.958-0.321,1.918-1.613,1.931
		C103.803,310.328,104.875,309.818,105.805,309.229z"/>
	<path fill="#897D6F" d="M86.623,295.324c2.096-0.893,3.733-0.68,4.416,1.828c-0.265,0.279-0.526,0.563-0.789,0.844
		c-0.292,0.025-0.584,0.072-0.871,0.129c-0.29-0.023-0.58-0.049-0.868-0.078C87.404,297.469,86.067,297.054,86.623,295.324z"/>
	<path fill="#CEBCA7" d="M242.032,321.948c-0.215-0.004-0.427,0.025-0.634,0.086c-1.645-0.399-2.573,0.79-3.654,1.641
		c-2.557,0.36-3.967-0.649-3.998-3.319c0.241-0.411,0.587-0.705,1.028-0.885c0.675-0.186,1.359-0.302,2.056-0.376
		c0.469-0.045,0.938-0.037,1.41,0C239.799,319.652,242.264,319.02,242.032,321.948z"/>
	<path fill="#B1A290" d="M233.971,320.135c0.558,1.929,2.14,2.763,3.773,3.541c-0.061,0.441-0.117,0.885-0.178,1.325
		c-0.886,0.235-1.771,0.468-2.66,0.698c-1.363-0.906-3.17-1.363-3.473-3.375C231.578,318.983,231.75,318.838,233.971,320.135z"/>
	<path fill="#AFA08D" d="M203.66,328.463c-0.027-0.331-0.053-0.662-0.078-0.992c1.428-0.795,2.309-0.271,2.81,1.165
		c-0.741,0.829-0.503,1.707-0.123,2.593c-0.54-0.008-1.082-0.013-1.621-0.021C203.719,330.513,204.117,329.333,203.66,328.463z"/>
	<path fill="#CCBBA6" d="M203.66,328.463c1.116,0.634,0.758,1.795,0.987,2.748c-1.782-0.144-0.993-2.06-1.919-2.793
		C203.036,328.434,203.35,328.449,203.66,328.463z"/>
	<path fill="#A49685" d="M161.218,317.432c1.548,0.31,1.237-1.221,1.835-1.852c1.728-0.197,1.642,1.204,1.986,2.229
		c0.141,1.284,0.392,2.562,0.432,3.858c-0.799,2.908-2.069,1.484-3.309,0.351c-1.215-0.783-2.434-0.933-3.657-0.013
		c-0.92,0.344-1.168-0.211-1.273-0.955c0.311-1.275,0.817-2.489,1.409-3.643C159.442,315.854,160.369,316.183,161.218,317.432z"/>
	<path fill="#AEA08E" d="M157.401,325.689c-0.474-0.139-1.618,0.449-0.976-0.898c0.928-0.348,0.28-2.393,2.018-1.869
		c0.394,1.633,2.923,1.719,2.746,3.769C159.807,326.803,158.594,326.279,157.401,325.689z"/>
	<path fill="#D1C0AA" d="M162.164,322.021c0.975-0.875,1.8,2.09,2.818,0.11c0.933-0.575,1.253,0.247,1.72,0.746
		c0.196,0.312,0.326,0.652,0.411,1.013c0.002,0.38-0.135,0.705-0.406,0.969c-0.583,0.267-1.165,0.529-1.747,0.795
		C164.067,324.414,161.889,324.159,162.164,322.021z"/>
	<path fill="#7B7164" d="M158.443,322.922c-0.67,0.621-1.344,1.243-2.016,1.869c0.061-0.275,0.065-0.553,0.018-0.83
		c-0.827-1.441-1.146-2.82,0.509-3.941c0.633,0.021,0.863,0.336,0.69,0.943c0.288,0.349,0.575,0.695,0.865,1.045
		C158.484,322.314,158.461,322.615,158.443,322.922z"/>
	<path fill="#D3C1AB" d="M81.066,290.746c1.221,0.027,1.803,0.684,1.834,1.877c-2.441-0.604-0.6,3.049-2.742,2.744
		c-0.323-0.583-0.647-1.168-0.97-1.756c-1.257-2.191,0.526-2.346,1.875-2.795L81.066,290.746z"/>
	<path fill="#B4A492" d="M190.698,328.469c1.524-1.831,3.011,0.763,4.526,0.038c0.223,0.205,0.295,0.405,0.215,0.603
		c-0.078,0.193-0.154,0.294-0.232,0.294c-2.206,0.184-1.422,1.432-0.914,2.575C192.443,331.471,190.004,331.569,190.698,328.469z"/>
	<path fill="#D2C0AA" d="M187.939,324.783c0.971,0.251,2.557-0.121,1.863,1.825c-0.62,0.004-1.237,0.009-1.857,0.013
		C186.899,326.012,187.85,325.395,187.939,324.783z"/>
	<path fill="#B9A996" d="M226.639,328.562c-0.312,0.569-0.626,1.143-0.941,1.712c-0.621,0.562-1.285-0.014-1.926,0.073
		c-0.596-0.027-1.192-0.058-1.789-0.084c-0.402-0.396-0.947-0.541-1.412-0.835c-0.58-0.542-0.918-1.203-0.986-1.998
		c0.006-0.396,0.078-0.78,0.203-1.152c0.395-0.926,0.887-1.777,1.684-2.42c0.344-0.219,0.718-0.295,1.119-0.251
		c1.289,0.632,1.526,2.173,2.59,3.007c0.26,0.283,0.455,0.607,0.596,0.965C226.064,327.905,226.352,328.232,226.639,328.562z"/>
	<path fill="#CFBDA8" d="M225.775,327.578c-0.328-0.016-0.656-0.031-0.986-0.045c-0.783-0.974-0.396-1.761,0.391-2.489
		c1.047-0.695,2.111-1.216,3.297-0.286c1.094,0.902-0.326,1.829,0.02,2.738C227.58,327.171,226.656,326.617,225.775,327.578z"/>
	<path fill="#B4A593" d="M232.15,328.41c-1.983-3.859,1.486-2.199,2.781-2.738c0.035,0.566,0.076,1.131,0.113,1.698
		c-1.207,0.134-1.928,0.738-1.961,2.016C232.77,329.062,232.46,328.736,232.15,328.41z"/>
	<path fill="#B1A28F" d="M214.583,330.328c-1.196,0.416-2.398,1.703-3.572-0.039c-0.05-0.81,0.105-1.573,0.507-2.286
		c0.566-0.849,1.054-1.823,2.363-1.525c0.702,0.548,1.09,1.282,1.309,2.129C215.268,329.278,215.146,329.877,214.583,330.328z"/>
	<path fill="#B8A996" d="M211.883,328.546c-0.008,0.724-0.172,1.368-0.872,1.747c-0.323,0-0.644,0.002-0.97,0.002
		c-0.264-0.28-0.531-0.56-0.797-0.837c0.594-1.364-1.615-1.651-1.133-2.98c0.35-0.298,0.734-0.507,1.176-0.626
		C211.062,325.884,212.793,325.952,211.883,328.546z"/>
	<path fill="#83786A" d="M214.583,330.328c0.035-0.611,0.072-1.22,0.107-1.832c0.712-0.306,1.124,0.099,1.491,0.621
		c0.447,0.939,0.759,1.897,0.213,2.909c-0.566-0.028-1.135-0.058-1.705-0.087C214.655,331.4,214.618,330.865,214.583,330.328z"/>
	<path fill="#9E9080" d="M121.718,313.715c0.25,0.02,0.498,0.028,0.75,0.026c0.667,0.425,1.47,0.78,0.964,1.824
		c-1.373-0.059-1.805,0.758-1.829,1.955C118.85,316.173,121.034,314.963,121.718,313.715z"/>
	<path fill="#AD9E8C" d="M123.43,315.568c-0.321-0.609-0.643-1.213-0.964-1.825c0.726-0.369,0.938-1.007,0.928-1.767
		c0.753-0.07,1.423,0.068,1.864,0.762c-1.35,0.955-0.731,2.434-0.979,3.684C123.996,316.137,123.714,315.85,123.43,315.568z"/>
	<path fill="#D1C0AA" d="M166.706,324.858c0.011-0.323,0.018-0.651,0.027-0.978c0.642-0.523,1.297-0.529,1.966-0.051
		c0.277,0.62,0.554,1.236,0.831,1.854c-0.105,1.692-1.056,2.772-2.516,3.479C166.913,327.729,166.809,326.293,166.706,324.858z"/>
	<path fill="#A29484" d="M149.146,321.828c0.315-0.51,0.631-1.018,0.944-1.527c0.332-0.646,0.662-1.291,0.995-1.937
		c0.27,0.016,0.537,0.053,0.802,0.114c0.961,0.256,1.709,0.867,2.467,1.471c0.452,0.424,0.79,0.918,0.952,1.521
		c0.241,1.425-0.878,2.244-1.465,3.303l0.028,0.035c-1.738,0.335-2.698-0.789-3.645-1.939
		C149.864,322.52,149.506,322.175,149.146,321.828z"/>
	<path fill="#AFA08E" d="M153.836,324.773c0.317-1.211,0.633-2.418,0.947-3.627c-0.553-1.135,0.095-1.756,0.976-2.277
		c0.98-0.072,2-0.189,1.744,1.34c-1.475,0.938-0.58,2.538-1.059,3.75C155.574,324.23,154.707,324.502,153.836,324.773z"/>
	<path fill="#A59786" d="M216.395,332.026c-0.241-0.909-0.479-1.824-0.723-2.735c0.864-2.232,2.076-3.564,4.51-1.744
		c0.285,0.552,0.565,1.107,0.851,1.659c-0.134,1.071-2.618,0.091-1.767,2.02C218.311,331.495,217.357,331.76,216.395,332.026z"/>
	<path fill="#A79988" d="M71.816,284.266c1.019,0.547,2.22,0.822,2.852,1.932c1.243,1.264,0.557,3.07,1.268,4.488
		c-0.002,0.467-0.15,0.881-0.467,1.232c-2.438-2.244-4.874-4.49-7.312-6.734l-0.027,0.037c0.526-0.467,0.759-1.554,1.833-0.857
		C70.58,284.331,71.196,284.297,71.816,284.266z"/>
	<path fill="#BEAF9B" d="M75.47,291.918c0.002-0.338,0.003-0.67,0.006-1.002c-0.39-1.197,0.147-1.446,1.197-1.17
		c1.464,0.357,2.927,0.715,4.391,1.071c-0.699,0.885-2.046,1.331-1.875,2.796c-0.915,0.264-1.83,0.525-2.746,0.791
		C76.118,293.574,75.794,292.744,75.47,291.918z"/>
	<path fill="#A79987" d="M278.245,277.863c1.695,0.277,4.023-0.287,3.661,2.734c-0.581,0.546-1.17,0.546-1.773,0.035
		C279.475,279.729,277.912,279.441,278.245,277.863z"/>
	<path fill="#84796C" d="M280.132,280.633c0.592-0.012,1.181-0.022,1.773-0.034c0.037,0.599,0.077,1.198,0.116,1.798
		c-0.277,0.247-0.554,0.497-0.83,0.742C280.592,282.406,279.891,281.719,280.132,280.633z"/>
	<path fill="#897E6F" d="M242.032,321.948c-1.046-1.512-2.696-1.612-4.288-1.843c-0.068-2.072,1.324-1.918,2.709-1.774
		c0.633,0.315,1.264,0.631,1.895,0.946C243.512,320.318,243.549,321.222,242.032,321.948z"/>
	<path fill="#232323" d="M123.02,50.105c-1.175-0.959-3.295,2.101-3.622-0.705c-0.142-1.229,1.6-2.297,3.231-2.674
		c2.343-0.545,2.627,0.859,2.625,2.525c-0.002,2.284-0.188,4.57-0.161,6.852c0.013,0.942-0.506,2.157,0.98,2.689
		c0.885,0.316,2.888-0.709,2.373,1.444c-0.325,1.351-1.94,1.201-3.121,1.442c-1.874,0.381-3.659-0.134-5.394-0.618
		c-0.861-0.242-1.507-1.884-0.364-1.907c4.773-0.09,2.551-3.876,3.388-5.96C123.325,52.283,123.02,51.103,123.02,50.105z"/>
	<path fill="#191919" d="M154.788,60.695c-2.192,2.902-5.082,1.535-7.196,0.48c-3.359-1.676-4.545-4.931-3.745-8.723l-0.063,0.062
		c2.55-0.403,1.999-3.058,3.169-4.503c1.003-1.241,1.98-2.121,3.304-1.416c1.849,0.985,0.146,2.045-0.428,2.85
		c-0.863,1.211-1.315,2.341-0.526,3.72c0.649,1.083-0.532,1.782-0.558,2.724c-0.173,3.566,2.306,3.201,4.598,3.106
		C154.203,59.24,155.146,59.422,154.788,60.695z"/>
	<path fill="#191919" d="M183.352,60.695c-2.452,2.8-5.248,1.534-7.58,0.17c-2.709-1.587-4.412-4.105-2.88-7.515
		c0.859-1.909,1.906-3.73,2.845-5.603c0.667-1.322,1.905-1.78,3.035-1.188c1.9,0.995,0.223,2.055-0.361,2.864
		c-0.873,1.214-1.341,2.351-0.543,3.744c0.647,1.083-0.533,1.782-0.558,2.723c-0.174,3.567,2.305,3.201,4.597,3.106
		C182.767,59.24,183.709,59.422,183.352,60.695z"/>
	<path fill="#1D1D1E" d="M203.354,49.691c-1.18-0.472-2.583,2.251-3.375,0.062c-0.475-1.307,1.12-2.38,2.396-2.854
		c1.533-0.57,2.829,0.062,3.033,1.712c0.26,2.095,0.207,4.233,0.215,6.35c0.004,1.898-0.775,3.95,2.562,4.064
		c1.818,0.063,0.985,1.519-0.021,2.009c-2.477,1.209-5.052,0.793-7.565-0.002c-0.339-0.107-0.692-0.56-0.792-0.92
		c-0.188-0.674,0.189-1.322,0.881-1.242c4.313,0.494,2-3.111,2.953-4.679C204.186,52.652,204.62,51.116,203.354,49.691z"/>
	<path fill="#232424" d="M163.734,52.656c1.393-0.096,2.459-0.192,3.526-0.242c1.569-0.072,2.949,0.645,2.859,2.183
		c-0.081,1.388-1.617,0.811-2.633,0.876c-2.123,0.135-4.236,0.541-6.357,0.582c-1,0.018-2.856,0.742-2.742-1.283
		c0.083-1.509,1.256-2.321,2.936-2.136C162.226,52.736,163.148,52.656,163.734,52.656z"/>
	<path fill="#202121" d="M194.314,51.268c0.466-2.764-1.015-2.226-2.822-1.898c-1.531,0.277-2.809,2.787-4.632,0.697
		c-0.522-0.604-1.392-1.155-0.53-2.242c1.506-1.902,3.488-1.295,5.389-1.229c0.148,0.006,0.297,0.048,0.443,0.074
		c4.979-0.406,5.048-0.312,4.064,5.684c-0.277,0.321-0.555,0.64-0.836,0.962C193.664,53.351,193.844,52.384,194.314,51.268z"/>
	<path fill="#202121" d="M141.849,52.32c-0.274,0.333-0.547,0.664-0.822,0.994c-1.729,0.035-1.546-0.931-1.076-2.048
		c0.466-2.764-1.016-2.226-2.823-1.898c-1.529,0.277-2.81,2.786-4.633,0.695c-0.525-0.603-1.391-1.155-0.529-2.241
		c1.505-1.902,3.487-1.296,5.39-1.229c0.149,0.006,0.295,0.046,0.443,0.072C142.97,46.234,143.613,47.131,141.849,52.32z"/>
	<path fill="#2A2B2B" d="M139.95,51.268c0.102,0.818,0.202,1.637,1.076,2.048c-1.438,2.815-2.876,5.632-4.584,8.977
		C134.167,57.199,137.792,54.45,139.95,51.268z"/>
	<path fill="#2A2B2B" d="M194.314,51.268c0.103,0.818,0.202,1.637,1.076,2.048c-1.436,2.815-2.875,5.632-4.584,8.977
		C188.53,57.199,192.156,54.45,194.314,51.268z"/>
	<path fill="#484849" d="M176.122,55.337c0.583-0.724,1.163-1.449,1.746-2.168c2.314-0.219,4.464,0.302,6.466,1.472
		c0.24,0.72,0.412,1.449,0.188,2.209C181.447,57.881,178.845,56.27,176.122,55.337z"/>
	<path fill="#484849" d="M147.556,55.337c0.583-0.724,1.164-1.449,1.747-2.168c2.316-0.219,4.467,0.302,6.466,1.472
		c0.242,0.721,0.413,1.449,0.189,2.209C152.881,57.877,150.279,56.27,147.556,55.337z"/>
	<path fill="#3B3B3B" d="M184.303,56.814c0.01-0.725,0.02-1.449,0.027-2.172c0.945,2.223,1.785,4.43-0.979,6.055
		c-0.359-0.861-1.169-0.865-1.912-1.001C180.896,57.25,183.413,57.835,184.303,56.814z"/>
	<path fill="#3B3B3B" d="M155.738,56.814c0.011-0.725,0.021-1.449,0.029-2.172c0.952,2.226,1.781,4.43-0.982,6.055
		c-0.359-0.861-1.167-0.865-1.908-1.001C152.333,57.25,154.848,57.835,155.738,56.814z"/>
	<path fill="#373738" d="M196.225,52.353c0.255-3.042,0.512-6.084-4.062-5.683c1.541-0.822,3.771-1.438,4.566-0.136
		C197.713,48.135,198.111,50.569,196.225,52.353z"/>
	<path fill="#373738" d="M141.849,52.32c0.303-3.065,0.479-6.041-4.051-5.652c1.473-1.082,3.169-0.529,4.772-0.659
		c0.944,2.065,1.135,4.117-0.104,6.145C142.265,52.228,142.058,52.284,141.849,52.32z"/>
	<path fill="#363737" d="M203.354,49.691c1.998,1.379,1.397,2.923,0.287,4.501C203.545,52.692,203.447,51.191,203.354,49.691z"/>
	<path fill="#D1BFAA" d="M69.963,284.363c-0.611,0.287-1.224,0.569-1.832,0.857c-0.261-1.554-0.521-3.113-0.892-5.324
		c1.169,1.458,1.942,2.424,2.717,3.385C69.956,283.645,69.961,284.004,69.963,284.363z"/>
	<path fill="#A69887" d="M112.459,309.123c-0.647,0.002-1.298,0.006-1.947,0.01c-0.747-0.039-1.488-0.082-1.872-0.887
		c0.083-0.752,0.17-1.498,0.971-1.879C109.3,308.583,112.297,307.391,112.459,309.123z"/>
	<path fill="#B9AA96" d="M218.337,321.064c1.38,0.198,2.591-0.318,3.794-0.889c0.679,0.536,1.537,0.027,2.254,0.377
		c0.374,0.188,0.662,0.463,0.854,0.839c0.172,0.635,0.088,1.226-0.311,1.763c-0.816,0.877-2.044,0.057-2.914,0.705l0.029-0.018
		c-1.306,1.016-2.447,0.396-3.581-0.35c-0.319-0.312-0.528-0.683-0.626-1.119c-0.006-0.454,0.146-0.846,0.453-1.178L218.337,321.064
		z"/>
	<path fill="#887D6E" d="M224.81,321.158c-0.311-0.02-0.623-0.041-0.935-0.062c-0.75-1.236-0.803-2.465,0.033-3.682
		c0.277-0.004,0.558,0.023,0.827,0.08c0.007,1.219,0.692,1.791,1.846,1.904c0.556,0.577,0.634,1.199,0.169,1.867
		C226.081,321.648,225.434,321.646,224.81,321.158z"/>
	<path fill="#9B8E7E" d="M233.971,320.135c-3.396-0.9-1.228,1.847-1.823,2.776l0.032,0.072c-0.746,0.517-1.439,0.491-2.062-0.212
		c-0.135-0.365-0.183-0.743-0.14-1.125c0.204-1.093,0.186-2.211,0.317-3.314c-0.037-1.36-0.374-2.794,0.942-3.825
		c1.206,1.28,2.412,2.562,3.616,3.843c0.638,0.615,0.606,1.217-0.026,1.811C234.542,320.143,234.256,320.135,233.971,320.135z"/>
	<path fill="#9C8F7E" d="M226.634,321.209c-0.018-0.603-0.034-1.209-0.053-1.811c1.401,0.895,2.014-0.306,2.798-1.054
		c0.842,1.067,1.867,2.087,0.97,3.621l-0.044,0.062C228.936,322.412,227.461,323.258,226.634,321.209z"/>
	<path fill="#C8B7A2" d="M230.349,321.964c-0.325-1.206-0.647-2.411-0.97-3.621c0.305-0.021,0.61-0.026,0.915-0.012
		C231.791,319.521,231.539,320.736,230.349,321.964z"/>
	<path fill="#D4C2AC" d="M190.646,321.109c-0.548,0.01-1.095,0.02-1.644,0.027c-0.779-0.605-1.813-0.922-2.229-1.95
		c-0.026-0.66,0.309-1.12,0.814-1.488c1.584-0.476,2.35-1.792,3.153-3.069c1.331-1.027,1.843,0.326,2.622,0.901
		c0.812,0.59,0.871,1.407,0.686,2.294c-0.453,1.211-1.781,1.594-2.463,2.591C191.326,320.717,191.011,320.947,190.646,321.109z"/>
	<path fill="#A69887" d="M190.742,314.629c0.584,2.408-0.977,3.183-2.848,3.714c-1.061-0.861-2.717,0.386-3.629-1.011
		c0.724-0.877,0.418-1.764,0.021-2.651C186.438,314.379,188.604,316.11,190.742,314.629z"/>
	<path fill="#BBAB98" d="M193.4,318.354c-0.014-0.939-0.023-1.879-0.033-2.823c0.055-0.296,0.086-0.593,0.086-0.892
		c0.59-0.285,1.181-0.567,1.769-0.85c1.967,1.303,1.261,3.039,0.782,4.745c-0.344,0.615-0.83,1.028-1.548,1.124
		C193.721,319.535,193.232,319.208,193.4,318.354z"/>
	<path fill="#887C6E" d="M155.774,319.187c-0.331,0.651-0.66,1.306-0.991,1.962c-0.336-0.355-0.673-0.712-1.011-1.068
		c-0.681-0.734-1.246-1.516-1.03-2.605c0.922-1.331,1.939-0.352,2.926-0.123l0.047,0.07
		C156.226,317.994,156.239,318.584,155.774,319.187z"/>
	<path fill="#96897A" d="M218.289,321.195c-0.008,0.217,0.007,0.436,0.04,0.648c-2.072,3.02-3.994,2.086-5.861-0.221
		c-0.113-0.514,0.005-0.97,0.354-1.365C214.864,319.295,216.626,319.956,218.289,321.195z"/>
	<path fill="#9D9080" d="M212.822,320.258c-0.008,0.284-0.013,0.566-0.017,0.852c-0.757,0.59-1.481,0.498-2.181-0.105
		c-0.984-1.59-0.818-3.088,0.367-4.496c0.592,0.018,1.183,0.031,1.773,0.051C212.273,317.8,211.171,319.05,212.822,320.258z"/>
	<path fill="#B7A895" d="M180.523,320.043c-0.008-0.265,0.005-0.527,0.037-0.789c0.942-0.024,1.881-0.046,2.825-0.067
		c0.577,0.315,0.702,0.649,0.048,1.022c-0.716,1.109-1.535,1.86-2.884,0.871C180.541,320.736,180.533,320.389,180.523,320.043z"/>
	<path fill="#9C8F7F" d="M240.453,318.331c-0.9,0.593-1.807,1.185-2.709,1.774c-0.293,0.012-0.586,0.027-0.877,0.053
		c-0.924-0.773-0.712-1.674-0.296-2.6c0.058-0.357,0.119-0.713,0.178-1.068C238.215,316.641,239.514,317.127,240.453,318.331z"/>
	<path fill="#C9B8A3" d="M173.301,319.988c-0.647,0.344-1.293,0.683-1.94,1.025c-1.377-0.172-2.489-0.746-3.124-2.055
		c-0.158-1.588,0.111-3.053,1.248-4.268c2.318-1.615,2.983,0.156,3.707,1.807c0.5,0.779,0.519,1.668,0.567,2.55
		C173.701,319.406,173.549,319.72,173.301,319.988z"/>
	<path fill="#C0B09C" d="M169.483,314.692c0.134,1.598-0.032,3.136-0.898,4.537c0.24,0.21,0.334,0.437,0.283,0.673
		c-0.053,0.244-0.113,0.365-0.186,0.367c-1.331,0.351-1.791-0.736-2.464-1.479c-0.377-0.517-0.663-1.071-0.701-1.727
		c0.2-1.199,1.333-1.547,2.06-2.27l0.107-0.245C168.287,314.598,168.883,314.646,169.483,314.692z"/>
	<path fill="#8C8172" d="M173.192,319.232c-0.619-0.91-0.716-1.822-0.001-2.734c0.309-0.014,0.619-0.027,0.927-0.039
		c0.482,1.165,1.616,0.768,2.476,1.028c0.093,0.274,0.171,0.552,0.233,0.835l0.048-0.034
		C175.782,319.123,174.766,320.26,173.192,319.232z"/>
	<path fill="#B8A995" d="M210.993,316.508c-0.004,1.52-0.006,3.045-0.01,4.57c-0.331,0.24-0.688,0.298-1.075,0.148
		c-0.279-0.262-0.504-0.572-0.676-0.914c-0.367-0.867-0.907-1.615-1.59-2.268c-0.377-0.454-0.656-0.932-0.338-1.531
		c0.621-0.008,1.245-0.016,1.866-0.023C209.779,316.496,210.385,316.5,210.993,316.508z"/>
	<path fill="#B1A390" d="M198.993,318.341c0.018-0.31,0.033-0.619,0.051-0.931c1.802-0.834,3.617,0.132,5.424-0.051
		c0.301,0.229,0.482,0.529,0.563,0.897c0.035,0.763-0.243,1.435-0.618,2.077c-0.204,0.308-0.476,0.551-0.8,0.727
		c-0.912,0.061-1.822,0.124-2.734,0.188c-1.139-0.34-1.633-1.215-1.893-2.283C198.986,318.758,198.991,318.551,198.993,318.341z"/>
	<path fill="#A29584" d="M204.52,318.46c-0.019-0.364-0.034-0.73-0.053-1.099c0.019-0.3,0.036-0.602,0.05-0.9
		c0.919-0.317,1.833-0.631,2.753-0.943c0.01,0.33,0.023,0.667,0.035,0.998c0.355,0.318,0.709,0.637,1.062,0.959
		c0.196,0.637-0.14,1.055-0.589,1.43c-0.634,0.424-1.314,0.719-2.1,0.678C205.081,319.424,204.841,318.9,204.52,318.46z"/>
	<path fill="#D0BFA9" d="M155.774,319.187c-0.021-0.591-0.038-1.177-0.057-1.765c0.786,0.028,1.462-0.162,1.865-0.91
		c1.438-0.578,3.101-2.061,3.634,0.924c-0.822-0.25-1.747-0.77-1.778,0.791c-0.024,1.275-0.468,2.302-1.798,2.74
		c-0.069-0.25-0.115-0.498-0.138-0.754C157.214,319.387,156.515,319.254,155.774,319.187z"/>
	<path fill="#8A7F70" d="M165.698,317.262c-1.918-1.813,1.231-1.521,1.082-2.598c0.277-0.026,0.543,0.018,0.797,0.131
		C167.792,316.255,166.362,316.467,165.698,317.262z"/>
	<path fill="#BEAE9B" d="M180.549,321.08c0.959-0.291,1.92-0.583,2.882-0.871c0.317,0.812,1.015,0.873,1.739,0.881
		c0,0.311-0.002,0.617-0.002,0.924c-1.32,1.534-2.805,2.139-4.645,0.861C180.531,322.271,180.541,321.676,180.549,321.08z"/>
	<path fill="#B8A996" d="M168.582,320.158c0.003-0.309,0.004-0.619,0.005-0.931c1.268,0.065,2.244,0.583,2.774,1.786
		c-0.38,0.803-1.098,0.968-1.892,1c-0.535,0.541-1.132,0.539-1.769,0.205C167.138,321.166,167.747,320.615,168.582,320.158z"/>
	<path fill="#BCAC99" d="M167.671,322.019c0.602,0,1.201-0.002,1.8-0.002c0.013,0.722-0.082,1.396-0.771,1.813
		c-0.656,0.018-1.311,0.033-1.966,0.051l0.022-0.066C166.277,322.815,166.839,322.35,167.671,322.019z"/>
	<path fill="#A59786" d="M195.282,318.42c1.238-0.026,2.476-0.053,3.711-0.079l-0.018,0.015c1.142,2.779-1.179,3.383-2.788,4.434
		c-0.717,0.23-1.527,0.312-2.137,0.71c-3.211,2.091-3.425,0.041-3.405-2.39c0.016-0.328,0.029-0.66,0.044-0.988
		c1.016-1.081,2.508-0.184,3.623-0.87C194.636,318.972,194.959,318.695,195.282,318.42z"/>
	<path fill="#BBAC98" d="M196.188,322.787c0.554-1.715,2.577-2.504,2.788-4.433c0.634,0.962,1.265,1.927,1.9,2.894
		C199.789,323.211,197.994,323.011,196.188,322.787z"/>
	<path fill="#AD9E8C" d="M203.611,321.061c-0.004-0.293-0.01-0.587-0.016-0.883c3.191-0.043,3.916,1.163,1.898,3.75
		c-0.697,0.857-1.367,0.701-2.021-0.049C203.518,322.94,203.564,322.001,203.611,321.061z"/>
	<path fill="#96897A" d="M185.378,320.908c-0.112-1.172,0.655-1.613,1.596-1.903c1.112,0.298,1.933,0.87,2.027,2.13
		C187.729,322.079,186.571,321.229,185.378,320.908z"/>
	<path fill="#CBBAA5" d="M198.074,327.549c-0.923,0.302-1.846,0.604-2.77,0.904C195.676,326.47,196.559,326.041,198.074,327.549z"/>
	<path fill="#B1A290" d="M167.671,322.019c-0.305,0.599-0.613,1.196-0.916,1.796c-0.593-0.564-1.184-1.12-1.773-1.683
		c-0.639-1.142-1.174-2.318-1.058-3.674c0.966-0.017,1.935-0.033,2.9-0.05c0.589,0.585,1.173,1.17,1.757,1.75
		C168.28,320.781,167.976,321.4,167.671,322.019z"/>
	<path fill="#C6B6A1" d="M226.634,321.209c1.146,0.625,2.665-0.42,3.671,0.819c0.393,0.776,1.125,0.885,1.875,0.955
		c-1.004,1.282-2.426,0.714-3.693,0.831c-0.934-0.01-1.87,0.125-2.787-0.182c-0.361-0.139-0.65-0.373-0.884-0.676
		c-0.003-0.598-0.003-1.201-0.006-1.799C225.42,321.174,226.028,321.191,226.634,321.209z"/>
	<path fill="#CABAA4" d="M220.183,327.549c-2.056-0.849-2.944,1.323-4.509,1.744c-0.328-0.265-0.653-0.529-0.981-0.795
		c-0.765-0.39-0.952-1.079-0.985-1.855c1.375-1.814,3.334-1.398,5.199-1.363c0.66,0.191,1.076,0.622,1.232,1.295
		C220.154,326.9,220.166,327.225,220.183,327.549z"/>
	<path fill="#D3C2AC" d="M225.762,323.005c-0.023,0.901-0.047,1.806-0.074,2.709c-0.725,0.396-0.864,1.079-0.896,1.819
		c-2.013-0.408-1.386-2.801-2.776-3.674c0.661-1.133,1.787-0.854,2.801-0.904C225.131,322.972,225.447,322.988,225.762,323.005z"/>
	<path fill="#C6B5A1" d="M208.262,323.059c-0.326,0.56-0.648,1.119-0.977,1.68c-0.598-0.269-1.195-0.542-1.793-0.811
		c0.625-1.882,0.164-3.218-1.896-3.75c0.307-0.57,0.615-1.148,0.924-1.72c0.299,0.286,0.601,0.569,0.902,0.854
		C207.553,319.668,208.515,320.904,208.262,323.059z"/>
	<path fill="#AE9F8D" d="M208.262,323.059c-0.943-1.25-1.895-2.498-2.836-3.746c0.656-0.308,1.312-0.621,1.969-0.933
		c1.057,0.312,2.082,0.673,2.643,1.737c0.002,0.325,0.004,0.647,0.006,0.971c-0.018,0.602-0.031,1.201-0.049,1.808
		c-0.201,0.399-0.469,0.427-0.787,0.136C208.891,323.039,208.575,323.049,208.262,323.059z"/>
	<path fill="#D2C0AA" d="M210.037,320.117c-0.881-0.578-1.765-1.158-2.643-1.737c0.326-0.302,0.646-0.606,0.97-0.908
		C209.49,317.996,210.078,318.859,210.037,320.117z"/>
</g>
</svg>
