<?xml version="1.0" encoding="utf-8"?>
<!-- Generator: Adobe Illustrator 16.0.0, SVG Export Plug-In . SVG Version: 6.00 Build 0)  -->
<!DOCTYPE svg PUBLIC "-//W3C//DTD SVG 1.1//EN" "http://www.w3.org/Graphics/SVG/1.1/DTD/svg11.dtd">
<svg version="1.1" id="Layer_1" xmlns="http://www.w3.org/2000/svg" xmlns:xlink="http://www.w3.org/1999/xlink" x="0px" y="0px"
	 width="321px" height="303px" viewBox="0 0 321 303" enable-background="new 0 0 321 303" xml:space="preserve">
<g>
	<g>
		<path fill="#1B2124" d="M76.204,15.385c5.603-5.62,12.346-9.236,20.188-10.151c12.118-1.416,24.292-2.342,36.438-3.508
			c2.443-0.236,4.874-0.622,7.309-0.936c3.845-0.773,7.765-1.189,11.649-1.295c8.64-0.239,17.312-0.432,25.935,0.034
			c7.56,0.408,15.143,0.921,22.651,2.067l-0.079-0.043c2.596,0.622,5.636,0.068,7.441,2.795c0.74,0.454,1.478,0.911,2.218,1.365
			c1.174,0.423,2.411,0.787,2.097,2.47c-1.502,0.89-2.633-0.113-3.721-0.847c-1.332-0.903-2.738-1.137-4.281-0.923
			c-14.981-2.083-30.003-3.191-45.141-2.949c-10.876,0.174-21.595,1.865-32.38,2.871c-8.058,0.751-16.129,1.371-24.191,2.003
			c-7.202,0.563-13.686,2.678-19.606,6.709c-1.243,0.845-2.436,1.826-4.06,1.842C77.595,16.797,76.755,16.333,76.204,15.385z"/>
		<path fill="#1D1D1D" d="M260.392,255.48c-0.192,0.23-0.385,0.463-0.575,0.694c-0.941,1.786-2.035,3.401-4.157,3.938
			c-0.659-0.186-1.034-0.619-1.14-1.293c0.403-2.443,2.624-3.745,3.647-5.809c5.968-6.786,10.206-14.535,13.233-23.037
			c3.586-10.063,8.058-19.803,10.548-30.271c2.035-8.551,3.3-17.169,4.181-25.91c1.059-10.547,0.471-21.086,0.734-31.628
			c0.058-2.331-0.097-4.787,2.656-5.926c1.958-0.612,3.819,0.043,5.651,0.553c5.511,1.538,11.134,1.531,16.76,1.252
			c5.276-0.262,7.106-3.48,5.338-8.496c-0.708-2.016-3.271-3.615-1.662-6.256c4.476,2.639,6.56,9.945,4.04,14.086
			c-1.062,1.751-2.637,3.018-4.6,3.016c-5.156-0.005-10.337,0.556-15.48-0.293c-2.989-0.489-5.978-0.98-9.177-1.506
			c0,8.396,0,16.756,0,25.11c-0.826,1.957,0.113,4.093-0.621,6.056c-0.07,1.522-0.141,3.047-0.21,4.57
			c-0.675,1.437,0.018,3.064-0.63,4.509c-0.066,1.241-0.131,2.484-0.197,3.728c-0.691,1.438,0.059,3.092-0.669,4.526
			c-2.395,9.166-3.986,18.597-7.651,27.358c-4.972,11.896-8.038,24.654-15.679,35.376c-0.534,0.744-1.071,1.486-1.608,2.227
			C262.515,253.442,261.6,254.576,260.392,255.48z"/>
		<path fill="#1C1C1C" d="M3.771,193.836c-1.669-4.027-3.147-8.104-3.393-12.515c-0.693-1.429,0.045-3.064-0.647-4.494
			c0.001-7.173,0.001-14.346,0.002-21.517c0.675-1.433-0.019-3.054,0.616-4.491c0.469-8.118,3.118-15.755,5.187-23.517
			c0.383-1.58,0.818-3.139,1.636-4.563c3.041-6.035,6.608-11.707,11.471-16.478c1.634-0.844,2.551-2.67,4.406-3.214
			c0.735-0.602,1.474-1.204,2.213-1.804c1.744-1.098,3.274-2.557,5.328-3.127c4.039-2.994,8.886-3.726,13.608-4.744
			c1.193-0.259,2.341-0.47,3.361-1.15c2.572-0.775,2.73,0.756,2.537,2.632c-1.064,0.997-2.474,1.193-3.798,1.459
			c-21.295,4.287-33.4,17.585-39.283,38.097c-4.148,14.468-3.795,29.028-3.707,43.704c0.006,1.261,0.466,2.424,0.641,3.639
			c0.746,5.076,2.371,9.853,4.706,14.421c0.853,1.667,2.099,3.311,1.339,5.407c-1.322,1.256-1.829-0.06-2.367-0.839
			c-0.98-1.423-1.441-3.14-2.46-4.551C4.324,195.632,4.397,194.526,3.771,193.836z"/>
		<path fill="#1A1A1A" d="M227.729,288.607c-0.881,0.98-1.765,1.959-2.646,2.937c-1.304,2.192-3.556,2.866-5.77,3.605
			c-3.704,1.552-7.563,2.831-11.036,4.795c-1.318,0.745-2.487,0.716-3.732,1.007c-1.362,0.922-3.044-0.029-4.431,0.745
			c-2.104,0.059-4.215,0.117-6.318,0.172c-2.473,0.506-4.944,0.494-7.416,0.007c-2.942-0.057-5.88-0.116-8.824-0.17
			c-1.668-0.795-3.542,0.093-5.22-0.636c-1.302-0.061-2.606-0.122-3.908-0.181c-2.213-0.931-4.627,0.219-6.843-0.671
			c-4.354-0.596-8.712-1.19-13.066-1.783c-1.301-0.901-2.989,0.207-4.267-0.816l0.04,0.012c-1.542-1.053-3.526,0.348-5.033-0.914
			c-7.571-1.722-15.208-3.218-22.693-5.264c-4.345-1.188-8.893-1.725-13.019-3.688c-0.746-1.188-3.312,0.716-3.223-1.894
			c1.444-1.967,3.361-1.452,5.255-0.975c12.666,3.204,25.272,6.651,38.095,9.243c19.121,3.868,38.421,5.156,57.852,3.896
			c6.818-0.438,12.874-3.748,18.812-6.974C222.974,290.78,224.618,287.476,227.729,288.607z"/>
		<path fill="#171C20" d="M205.28,5.848c0.914-1.592,1.685-0.38,2.595,0.062c1.422,0.688,2.424,2.226,4.238,2.113
			c2.153,0.228,2.969,1.923,3.865,3.522l-0.06-0.076c1.197,1.375,2.731,2.487,3.405,4.281c0.756,1.049,1.514,2.098,2.271,3.146
			c1.453,1.119,1.948,2.817,2.665,4.384c1.202,3.134,2.024,6.483,3.678,9.359c5.322,9.262,8.129,19.578,12.66,29.159
			c1.303,1.011,1.011,2.805,1.976,3.982l0.018,0.025c0.254,0.434,0.219,0.844-0.1,1.229c-1.862,1.93-4.235,2.522-6.79,2.356
			c-19.415-1.276-36.372,5.83-52.646,15.306c-2.139,1.245-4.167,2.702-6.468,3.637c-1.174,0.477-2.45,1.557-3.699,0.059
			c-0.186-1.147,0.545-1.791,1.377-2.307c18.156-11.215,36.889-20.746,59.042-20.524c4.397,0.043,4.438-0.224,2.903-4.474
			c-4.058-11.234-8.997-22.087-14.108-32.869c-3.622-7.656-8.405-14.426-15.08-19.759C206.16,7.779,205.23,7.135,205.28,5.848z"/>
		<path fill="#212121" d="M5.209,195.436c2.41,1.535,2.267,4.757,4.322,6.529c4.067,5.155,7.942,10.455,11.935,15.669
			c6.337,8.289,12.476,16.864,20.015,23.987c13.215,12.485,26.007,25.703,43.037,33.375c4.008,1.804,7.498,4.566,11.497,6.437
			c1.563,0.729,3.239,1.714,2.832,3.994c-0.579,0.395-1.144,0.287-1.7-0.052c-7.92-3.797-15.581-8.077-23.185-12.466
			c-1.622-1.103-3.34-2.061-4.911-3.245c-0.838-0.568-1.674-1.137-2.515-1.704c-1.054-0.898-2.312-1.563-3.134-2.726l0.082,0.069
			c-2.573-0.911-3.759-3.541-6.015-4.846c-1.14-1.073-2.279-2.148-3.418-3.222c-1.72-1.297-3.091-2.986-4.847-4.237
			c-1.116-1.065-2.235-2.128-3.352-3.191c-2.722-2.183-5.151-4.655-7.377-7.336c-0.54-0.579-1.08-1.158-1.619-1.736
			c-1.149-1.854-3.013-3.11-4.165-4.963c-0.25-0.267-0.5-0.538-0.751-0.808c-0.837-1.082-1.678-2.162-2.555-3.215
			c-1.643-1.953-3.288-3.91-4.932-5.865c-0.928-1.547-2.462-2.617-3.331-4.21c-5.53-7.727-12.25-14.675-15.588-23.828
			C4.783,197.129,4.934,196.29,5.209,195.436z"/>
		<path fill="#171D20" d="M50.043,94.685c-0.604-1.042-0.861-2.437-2.481-2.462c0.302-0.475,0.603-0.95,0.903-1.427
			c0.778-1.358-0.066-2.965,0.654-4.334c0.988-8.535,4.396-16.32,8.157-23.849c3.975-7.954,5.782-16.514,8.332-24.876
			c1.521-3.743,2.226-7.726,3.419-11.566c-0.076-0.631-0.142-1.258,0.467-1.705c1.421-1.393,1.737-3.385,2.725-5.012l-0.059,0.073
			c1.09-1.238,2.419-2.254,3.369-3.624c0.224-0.171,0.453-0.343,0.679-0.517c0.763,0.115,1.528,0.217,1.933,1.013
			c-4.356,5.44-7.282,11.615-8.475,18.424c-0.929,5.289-2.24,10.449-3.661,15.604c-1.243,4.514-2.815,8.913-4.957,13.066
			c-3.489,6.768-5.287,14.108-7.554,21.292c-0.33,1.045-0.488,2.139-0.604,3.232c-0.463,4.373-0.182,4.524,4.215,4.819
			c2.145,0.146,5.022-1.3,6.187,2.033c-0.724,0.659-1.616,0.838-2.545,0.906c-2.533,0.092-5.068-0.01-7.604,0.076
			C51.947,95.895,50.693,96.094,50.043,94.685z"/>
		<path fill="#080505" d="M227.729,288.607c-2.22,1.088-4.44,2.178-6.662,3.263c-0.833-0.786-0.884-1.75-0.628-2.78
			c0.743-2.028,2.712-3.124,3.75-4.924c0.092-0.157,0.196-0.312,0.288-0.466c0.091-0.157,0.194-0.306,0.286-0.461
			c0.742-1.289,1.869-2.145,3.174-2.802c0.758-0.438,1.448-0.977,2.166-1.475c1.064-0.645,2.003-1.445,2.877-2.327
			c0.397-0.385,0.828-0.724,1.282-1.034c1.567-0.983,3.088-2.057,4.838-2.721c4.61-2.624,7.257-6.947,9.854-11.307
			c0.129-0.341,0.294-0.67,0.472-0.989c0.469-0.764,1.099-1.396,1.727-2.031c0.608-0.607,1.23-1.211,1.833-1.831
			c0.874-0.859,1.711-1.757,2.762-2.418c0.805-0.398,1.595-0.91,2.535-0.369c-0.091,2.337-2.602,3.049-3.341,4.949
			c-1.138,3.328-3.662,5.72-5.714,8.432c-3.058,4.036-6.746,7.521-9.967,11.417C234.837,281.348,231.776,285.552,227.729,288.607z"
			/>
		<path fill="#292929" d="M239.262,278.732c2.847-6.58,9.056-10.555,12.81-16.452c0.77-1.203,1.314-2.779,2.871-3.397
			c0.347,0.306,0.697,0.61,1.048,0.916c0.216,0.636,0.255,1.207-0.556,1.457c-2.928,2.689-4.918,6.094-7.103,9.348
			c-2.198,2.509-4.553,4.86-6.982,7.143C240.655,278.076,239.959,278.404,239.262,278.732z"/>
		<path fill="#1B2124" d="M69.026,26.171c-0.433,4.063-1.045,8.073-3.42,11.564C66.127,33.699,67.281,29.848,69.026,26.171z"/>
		<path fill="#1B2124" d="M72.218,19.452c-0.222,2.044-0.75,3.92-2.726,5.014C70.139,22.654,70.574,20.724,72.218,19.452z"/>
		<path fill="#1B2124" d="M75.527,15.9c-0.411,1.867-1.67,2.95-3.369,3.626C72.718,17.797,74.065,16.795,75.527,15.9z"/>
		<path fill="#81B8D8" d="M63.491,94.59c-3.196-1.173-6.54-0.405-9.804-0.735c-1.616-0.164-2.617-0.114-2.291-2.559
			c1.307-9.75,4.184-19.01,8.431-27.799c4.284-8.868,6.557-18.269,8.693-27.78c1.607-7.166,2.947-14.603,9.618-19.317
			c3.911-1.933,7.173-4.915,11.308-6.555c7.469-2.961,15.367-3.096,23.127-3.545c8.381-0.485,16.743-1.296,25.02-2.359
			c20.212-2.595,40.317-1.628,60.453,0.372c2.436,0.242,4.821,1.01,7.234,1.536c9.379,6.649,15.136,15.869,19.802,26.219
			c4.509,10.014,8.802,20.093,12.724,30.338c0.477,1.243,1.355,2.407,0.982,4.311c-24.746-1.844-45.62,8.489-65.636,21.403
			c-1.146,2.796-4.08,3.362-6.227,4.889c-1.424,1.015-2.908,1.943-4.282,3.037c-5.113,3.53-9.472,7.898-13.743,12.375
			c-2.27,3.782-6.181,3.739-9.778,3.843c-7.362,0.209-14.732,0.169-22.095,0.012c-0.456-0.021-0.914-0.096-1.358-0.198
			c-1.451-0.543-2.969-0.64-4.503-0.616c-3.03-0.12-5.844-0.968-8.458-2.487c-1.187-1.086-2.577-1.711-4.202-1.794
			c-2.393-0.418-4.565-1.482-6.816-2.317c-2.95-1.211-6.18-1.699-8.93-3.428c-1.152-1.075-2.521-1.616-4.102-1.625
			c-1.011-0.099-1.947-0.394-2.77-1.001c-2.282-1.854-5.055-2.157-7.83-2.451C66.536,95.761,64.667,96.062,63.491,94.59z"/>
		<path d="M162.318,95.281c3.082-3.179,7.3-4.659,10.834-7.16c3.993,0.112,6.559-2.894,9.673-4.59
			c10.493-5.722,21.007-11.366,32.853-13.769c4.124-0.837,8.37-1.193,12.58-1.427c4.838-0.271,9.783,0.584,14.371-1.722
			c11.521,1.081,21.464,6.267,31.008,12.244c4.752,2.973,9.082,6.616,13.6,9.956c0.993,0.974,2.088,1.817,3.251,2.576
			c7.964,6.478,13.98,14.633,19.664,23.031c1.927,2.854,4.56,5.38,5.176,9.012c0.761,2.646,2.904,4.577,3.567,7.336
			c1.136,4.691-1.271,8.162-6.129,8.427c-7.843,0.434-15.533-0.547-23.134-2.408c-1.289,0.678-2.516,0.643-3.893,0.058
			c-8.547-3.624-17.726-5.468-26.245-9.18c-0.706,0.225-3.204-1.293-1.527,1.262c12.497,19.049,10.941,39.645,5.352,59.975
			c-2.785,10.128-9.574,19.037-18.411,25.29c-7.088,5.01-15.753,6.442-24.323,6.952c-5.741,0.343-11.53,0.514-17.299-0.38
			c-5.477-0.85-8.916-5.27-13.663-7.387c-2.373-1.06-4.661-2.441-6.724-4.019c-7.336-5.607-15.78-5.857-24.414-5.317
			c-2.406,0.15-4.525,1.199-6.455,2.549c-4.731,3.311-9.678,6.436-13.924,10.289c-4.646,4.216-9.997,5.813-15.837,5.927
			c-12.057,0.231-24.194,1.26-35.728-4.093c-4.202-1.951-9.141-1.836-13.781-2.388c-3.015-0.361-5.989-0.893-8.886-1.806
			c-11.239-3.549-15.546-9.581-16.738-21.294c-1.762-17.276-0.607-34.303,3.321-51.136c1.541-6.593,4.407-12.749,9.188-17.743
			c4.384-4.581,9.782-6.788,16.213-6.936c14.059-0.321,27.996,0.888,41.98,2.195c14.572,1.361,29.11-0.38,43.538-2.697
			c17.42-2.795,34.916-4.318,52.579-3.231c1.243,0.075,2.437,0.356,2.646,0.383c1.558,0.232,0.706-0.641,0.892-0.124
			c0.047,0.13-0.087,0.217-0.361,0.134c-3.208-0.943-6.604,0.245-9.784-0.871c-0.989-0.339,0.289-1.562-0.756-1.893
			c-8.929-0.108-17.804-1.027-26.705-0.594c-7.789,0.38-15.571,0.9-23.364,1.102c-0.666,0.176-1.338,0.217-2.019,0.128
			c-1.786-0.597-3.524-1.364-5.394-1.734c-1.091-0.598-1.519-1.365-0.629-2.466C153.162,103.671,157.623,99.346,162.318,95.281z"/>
		<path fill="#1A0605" d="M259.918,126.853c8.738,3.444,18.051,5.271,26.564,9.318c1.075,0.51,2.074,0.544,3.149,0.613
			c-1.439,1.119-1.71,2.605-1.665,4.359c0.102,4.256-0.051,8.515,0.045,12.772c0.562,25.799-4.365,50.45-14.606,74.191
			c-3.143,7.292-6.106,14.551-10.639,21.111c-1.266,1.836-2.62,3.493-4.484,4.719c-0.808,0.291-1.616,0.579-2.428,0.872
			c-0.131-0.142-0.265-0.285-0.396-0.425c-0.389-2.454,1.807-3.507,2.874-5.149c1.411-2.166,3.184-4.094,4.327-6.445
			c0.824-1.435,1.215-3.07,2.121-4.463c2.654-3.489,3.345-7.809,4.95-11.73c3.748-9.155,7.433-18.319,9.892-27.953
			c3.278-12.867,4.686-25.911,4.724-39.145c0.019-5.909-0.118-11.82,0.05-17.725c0.091-3.268-1.051-4.961-4.325-5.864
			c-6.881-1.901-13.726-3.999-20.191-7.122C259.429,128.133,259.417,127.488,259.918,126.853z"/>
		<path fill="#150505" d="M100.165,286.263c-0.617,0.02-1.201-0.032-1.484-0.707c-0.597-1.823-2.001-2.723-3.635-3.604
			c-7.447-4.021-14.872-8.081-22.199-12.311c-8.365-4.832-14.947-11.9-22.237-18.077c-15.474-13.106-27.027-29.587-39.141-45.578
			c-0.92-1.215-1.74-2.465-1.937-4.017c0.184-2.484-1.397-4.322-2.377-6.368c-2.052-4.285-3.553-8.727-4.201-13.443
			c2.35-0.243,2.482,1.739,3.029,3.153c1.584,4.087,2.781,8.3,4.536,12.346c4.624,10.646,12.904,18.678,19.603,27.828
			c3.882,5.303,8.095,10.43,12.725,15.063c8.804,8.821,17.912,17.359,28.176,24.523c0.885,0.302,1.835,0.339,2.719,0.643
			c1.034,0.429,1.898,1.139,2.848,1.704c0.467,0.294,0.913,0.612,1.362,0.935c1.96,1.326,3.896,2.692,6.173,3.456
			c0.525,0.163,1.035,0.364,1.525,0.612c0.932,0.554,1.811,1.194,2.79,1.673c1.849,1.179,3.846,2.081,5.765,3.126
			c2.181,1.377,4.488,2.481,6.935,3.299c0.684,0.268,1.346,0.587,2.004,0.909c1.271,0.715,2.613,1.207,4.082,1.311
			c1.121,0.159,2.158,0.576,3.186,1.016c0.862,0.355,1.759,0.571,2.664,0.769c1.259,0.373,2.551,0.611,3.821,0.933
			c1.074,0.343,2.188,0.544,3.274,0.828c0.904,0.279,1.828,0.438,2.777,0.477c0.78,0.044,1.549,0.15,2.303,0.357
			c2.413,0.79,4.791,1.707,7.3,2.182c0.386,0.069,0.764,0.169,1.141,0.276c1.478,0.563,3.068,0.385,4.59,0.66
			c0.96,0.186,1.852,0.574,2.754,0.93c1.054,0.456,2.193,0.557,3.308,0.756c1.298,0.311,2.602,0.59,3.938,0.667
			c0.58,0.051,1.148,0.166,1.712,0.313c1.108,0.373,2.265,0.433,3.417,0.532c0.588,0.052,1.164,0.16,1.733,0.302
			c2.462,0.608,5.009,0.459,7.502,0.779c1.555,0.033,3.056,0.546,4.619,0.477c0.602-0.005,1.194,0.026,1.79,0.081
			c0.403,0.025,0.801,0.089,1.194,0.17c1.542,0.521,3.14,0.562,4.743,0.521c1.2-0.015,2.4-0.002,3.6,0.005
			c2.48-0.252,4.979,0.875,7.448-0.101c0.38-0.105,0.767-0.142,1.156-0.128c2.06,0.441,4.127,0.74,6.237,0.305
			c1.596-0.101,3.191-0.062,4.782-0.083c0.388-0.021,0.776-0.015,1.164,0c1.296,0.038,2.6,0.139,3.861-0.289
			c0.677-0.24,1.311-0.562,1.922-0.939c1.231-0.934,2.725-0.574,4.085-0.848c1.027-0.278,1.825-0.975,2.729-1.484
			c0.326-0.171,0.664-0.31,1.013-0.433c2.751-0.721,4.911-2.789,7.712-3.393c0.164,0.103,0.326,0.206,0.489,0.308
			c-0.039,1.066-0.075,2.127-0.112,3.194c-10.89,7.241-23.097,7.661-35.67,7.714c-9.663,0.043-19.188-0.982-28.673-2.101
			c-10.128-1.194-20.176-3.335-30.057-6.083c-7.495-2.083-15.062-3.913-22.582-5.902
			C102.604,285.107,101.396,285.611,100.165,286.263z"/>
		<path fill="#180505" d="M71.479,265.851c-4.01-0.444-6.348-3.676-9.009-5.968c-11.181-9.638-22.34-19.322-31.105-31.413
			c-4.486-6.185-9.656-11.871-14.357-17.903c-5.549-7.124-8.938-15.334-11.623-23.881c-0.507-1.616-0.478-3.637-2.432-4.528
			c-1.5-4.69-0.494-9.527-0.853-14.281c-1-13.293,1.331-26.184,5.264-38.735c3.581-11.431,10.606-20.379,20.866-27.047
			c6.788-4.413,13.921-6.767,21.812-7.406c3.572,0.048,7.143,0.096,10.714,0.145c2.508,0.415,5.07,0.466,7.547,1.115
			c1.809-0.042,3.531,0.244,5.05,1.324c-0.252,1.517-1.501,1.569-2.631,1.806c-2.62,0.244-5.138-0.272-7.622-1.035
			c-4.693-0.988-9.401-0.693-14.109-0.178c-6.174,1.411-12.163,3.073-17.718,6.471c-11.195,6.848-17.651,16.737-21.538,29.072
			c-4.654,14.774-4.828,29.852-3.839,44.917c0.676,10.266,5.07,19.79,11.194,28.034c10.907,14.676,22.154,29.125,35.588,41.671
			c5.426,4.512,10.243,9.709,15.855,14.013c0.616,0.417,1.205,0.868,1.733,1.399C70.896,264.135,71.415,264.877,71.479,265.851z"/>
		<path fill="#171617" d="M68.228,96.345c-2.615,0.104-5.044-0.712-7.472-1.514c0.911-0.082,1.822-0.163,2.735-0.241
			c1.676-0.271,3.221,0.217,4.745,0.82c0.26,0.211,0.344,0.42,0.256,0.626C68.402,96.241,68.315,96.345,68.228,96.345z"/>
		<path fill="#545454" d="M290.485,91.388c-1.628-0.175-2.7-1.045-3.249-2.576C288.783,89.09,289.845,89.977,290.485,91.388z"/>
		<path fill="#C8B7A2" d="M230.312,279.654c-0.611,0.447-1.226,0.892-1.839,1.336c-2.14-0.407-2.766,1.04-3.265,2.646l0.034,0.057
			c-1.805,1.272-2.307-1.559-3.824-1.197c-1.104-0.097-1.672-0.688-1.676-1.808c0.077-0.772,0.393-1.467,0.698-2.164
			c0.712-1.247,0.978-3.192,3.219-2.108c1.079,0.748,2.146,1.021,3.188-0.076c0.232-0.247,0.475-0.481,0.711-0.722
			c0.618-0.602,0.871-1.417,1.255-2.156c0.599-1.066,1.908-0.498,2.686-1.177c0.962-0.271,1.882-0.237,2.748,0.31
			c0.457,0.455,0.575,1.005,0.476,1.62c-0.124,0.371-0.325,0.697-0.595,0.98c-0.902,0.896-2.039,1.568-2.678,2.727
			C231.148,278.55,230.615,279.024,230.312,279.654z"/>
		<path fill="#B9AA96" d="M253.383,257.21c-0.525,0.707-0.96,1.529-2.001,1.593c-2.602,0.521-3.718-1.511-5.161-2.986
			c-2.933-2.782,0.412-3.646,1.583-5.183c0.298-0.255,0.631-0.441,1.002-0.563c3.081-0.184,3.316,1.94,3.415,4.184
			c0.023,0.946,0.67,1.629,1.036,2.432C253.304,256.86,253.343,257.036,253.383,257.21z"/>
		<path fill="#A69685" d="M249.962,260.518c-0.019,0.192-0.052,0.381-0.097,0.568c-1.371,2.065-2.176,4.59-4.691,5.721
			c-1.057,0.056-1.938-0.33-2.672-1.073c-0.423-0.799-0.081-1.485,0.288-2.178c0.869-1.181,1.601-2.433,1.918-3.887
			c0.271-0.539,0.669-0.954,1.191-1.253c0.374-0.166,0.763-0.265,1.167-0.319C248.69,258.119,249.91,258.624,249.962,260.518z"/>
		<path fill="#1F100F" d="M245.31,266.372c1.518-1.761,3.037-3.523,4.556-5.285c-2.282,5.33-5.2,10.118-10.843,12.56
			c-0.062-0.361-0.033-0.717,0.102-1.06c0.498-0.969,1.309-1.68,2.035-2.46c0.751-0.729,1.305-1.609,1.885-2.472
			C243.598,266.873,244.444,266.607,245.31,266.372z"/>
		<path fill="#B09E8C" d="M239.252,272.918c-0.072,0.245-0.148,0.485-0.23,0.729c-1.551,0.994-3.104,1.991-4.656,2.982
			c-0.722-0.522-1.326-1.098-0.857-2.102c0.281-0.019,0.562-0.033,0.843-0.048c0.808-0.878,0.583-2.104,1.063-3.093
			c0.266-0.508,0.651-0.902,1.151-1.177c0.358-0.108,0.718-0.112,1.076,0c0.761,0.547,1.208,1.325,1.539,2.176
			C239.205,272.562,239.226,272.737,239.252,272.918z"/>
		<path fill="#DCC9B2" d="M249.962,260.518c-0.841-1.034-1.775-1.883-3.254-1.723c-0.842-0.814-0.925-1.753-0.452-2.784
			c0.141-0.144,0.283-0.285,0.43-0.429c1.565,1.072,3.129,2.146,4.696,3.219C251.198,259.613,250.837,260.274,249.962,260.518z"/>
		<path fill="#948576" d="M221.869,281.889c0.223-1.188,0.774-1.994,1.471-0.395c0.446,1.022,0.513,2.098,1.906,2.199
			c-0.026,0.202-0.06,0.401-0.095,0.602c-0.781,0.738-1.542,1.553-2.797,1.06C221.162,284.342,220.911,283.196,221.869,281.889z"/>
		<path fill="#150505" d="M222.526,284.759c0.875-0.156,1.748-0.311,2.625-0.466c-0.795,1.942-2.49,3.067-3.975,4.385l-0.092-0.079
			c-0.477-0.384-0.666-0.895-0.669-1.489c0.034-0.377,0.145-0.736,0.312-1.075C221.164,285.38,221.836,285.056,222.526,284.759z"/>
		<path fill="#85796B" d="M233.507,274.524c0.286,0.7,0.571,1.403,0.856,2.104c-0.243,0.169-0.487,0.34-0.731,0.506
			c-0.931,0.161-1.607,1.313-2.734,0.691C230.307,275.575,233.118,276.005,233.507,274.524z"/>
		<path fill="#B7A492" d="M225.21,283.637c-0.038-2.267,0.024-4.409,3.266-2.646C227.386,281.874,226.298,282.756,225.21,283.637z"
			/>
		<path fill="#736056" d="M230.897,277.828c0.912-0.231,1.821-0.461,2.734-0.693c-0.917,1.093-1.719,2.329-3.321,2.52
			C230.312,278.983,229.922,278.189,230.897,277.828z"/>
		<path fill="#1F100F" d="M255.858,254.807c-0.638,0.992-1.368,1.891-2.476,2.403c0,0.002-0.211,0.052-0.211,0.052l-0.219-0.013
			c-0.256-1.067-0.081-1.996,0.854-2.683c0.57-0.305,1.14-0.341,1.713-0.002C255.641,254.635,255.755,254.716,255.858,254.807z"/>
		<path fill="#242728" d="M203.674,62.532c-0.275,2.134-1.984,1.557-3.211,1.557c-34.537,0.033-69.07,0-103.606,0.075
			c-3.082,0.007-4.131-1.131-4.095-4.108c0.104-8.653,0.111-17.311-0.006-25.968c-0.036-2.826,0.914-3.826,3.82-3.816
			c34.536,0.078,69.07,0.066,103.608,0.021c2.469-0.002,3.889,0.532,3.838,3.389c-0.168,9.06-0.182,18.123-0.254,27.185
			c-1.042,0.728-2.066,1.883-3.214,0.13c-1.316-6.524-0.441-13.124-0.593-19.688c-0.165-7.166-0.048-7.178-7.391-7.179
			c-29.282-0.004-58.562-0.002-87.846,0c-1.101,0-2.203,0.067-3.298,0.012c-3.312-0.168-4.67,1.344-4.663,4.662
			c0.017,7.408,0.168,14.819-0.024,22.214c0.544,2.296,2.383,1.11,3.546,1.114c20.329,0.078,40.662-0.014,60.991,0.082
			C175.413,62.277,189.55,61.786,203.674,62.532z"/>
		<path fill="#121A1F" d="M203.674,62.532c-1.486,0.927-3.147,0.808-4.797,0.808c-33.4-0.005-66.797,0.004-100.194-0.023
			c-1.62-0.002-3.561,0.6-4.798-1.7c1.068,0,1.827,0,2.585,0c1.588-1.449,3.579-1.237,5.474-1.24
			c31.181-0.033,62.361-0.031,93.542,0c1.894,0.001,3.886-0.215,5.495,1.193c0.928-0.232,1.857-0.468,2.787-0.702
			C203.74,61.423,203.709,61.978,203.674,62.532z"/>
		<path fill="#1C1C1D" d="M92.172,103.819c2.198,0.781,4.396,1.558,6.595,2.334c1.194,0.908,2.765,0.957,4.005,1.758
			c2.69,1.144,5.408,2.189,8.379,2.346c1.313,1.205,3.071,0.06,4.465,0.843c0.176-0.163,0.342-0.156,0.501,0.023
			c5.52,1.116,11.102,0.231,16.646,0.493c2.316,0.108,4.643-0.064,6.962,0.079c0.509,0.283,0.668,0.7,0.472,1.25
			c-2.304,1.729-4.982,0.852-7.504,1.035c-2.567,0.187-5.169-0.254-7.712,0.393c-1.134,0.265-2.274,0.299-3.421,0.098
			c-2.008-0.687-4.133-0.48-6.195-0.752c-0.403-0.058-0.8-0.152-1.19-0.263c-1.348-0.482-2.755-0.366-4.152-0.384
			c-2.281-0.122-4.495-0.501-6.505-1.676c-1.207-1.061-2.607-1.669-4.229-1.749c-2.93-0.891-6.081-1.308-8.263-3.812
			C90.782,104.811,91.383,104.263,92.172,103.819z"/>
		<path fill="#1F2325" d="M140.126,112.052c-6.594-0.002-13.187,0.028-19.781-0.031c-1.438-0.014-3.068,0.55-4.229-0.896
			c8.042,0.601,16.079-0.064,24.118-0.131c3.661-0.028,6.633-1.122,8.926-3.979c0.263,0.187,0.355,0.382,0.279,0.582
			c-0.075,0.204-0.155,0.31-0.24,0.31c-0.846,0.539-0.872,1.092-0.025,1.656C147.34,112.511,144.2,113.376,140.126,112.052z"/>
		<path fill="#171617" d="M92.172,103.819c-0.302,0.624-0.6,1.246-0.9,1.868c-1.721,0.716-3.073-0.225-4.47-0.98
			c-1.399-1.049-3.005-1.495-4.731-1.587c-0.98-0.103-1.906-0.359-2.707-0.961c-1.196-1.084-2.624-1.521-4.216-1.515
			c-1.808-0.402-3.883-0.292-4.746-2.481c0.907-0.28,2.016,0.057,2.706-0.886c1.272-0.57,2.188,0.443,3.264,0.737
			c0.675,0.861,1.728,0.543,2.588,0.818c1.28,0.737,2.779,0.93,4.064,1.652C86.072,101.596,89.123,102.71,92.172,103.819z"/>
		<path fill="#0E0E0E" d="M149.199,107.906c-0.016-0.299-0.025-0.596-0.042-0.892c4.086-4.249,8.037-8.647,13.161-11.733
			C158.647,100.219,153.5,103.621,149.199,107.906z"/>
		<path fill="#1E2427" d="M76.371,98.018c-1.088-0.246-2.175-0.494-3.264-0.739c-1.628-0.311-3.253-0.622-4.879-0.934
			c0.001-0.312,0.005-0.623,0.008-0.933C71.216,95.442,74.014,96.045,76.371,98.018z"/>
		<path fill="#1F2325" d="M102.77,107.911c-1.597,0.016-3.016-0.381-4.003-1.758C100.355,106.162,101.737,106.641,102.77,107.911z"
			/>
		<path fill="#1E2427" d="M83.025,100.487c-1.599,0.047-3.014-0.359-4.064-1.654C80.543,98.829,81.996,99.137,83.025,100.487z"/>
		<path fill="#1F2325" d="M115.615,111.099c-1.53-0.055-3.218,0.727-4.465-0.843C112.74,109.998,114.233,110.251,115.615,111.099z"
			/>
		<path fill="#FEFEFE" d="M228.49,142.432c0.928,0.952,2.065,1.123,3.314,0.896c4.126,0.328,4.69,3.687,5.709,6.67
			c0.155,0.411,0.268,0.836,0.361,1.262c5.258,13.823,5.089,27.477-1.632,40.772c-2.312,4.582-5.686,8.356-10.596,10.437
			c-1.035,0.372-2.103,0.436-3.181,0.281c-1.216-0.25-2.42-0.09-3.627,0.137c-2.056,0.213-4.116,0.196-6.173,0.083
			c-2.087-0.117-4.525-0.352-5.654-2.035c-2.362-3.526-6.147-5.438-8.816-8.546c-4.7-6.643-3.979-13.859-2.551-21.301
			c1.295-6.755,4.688-12.184,9.401-16.954c1.068-1.081,1.89-2.346,2.748-3.582c3.649-5.373,8.795-8.29,15.173-9.162
			C224.911,141.188,226.813,141.22,228.49,142.432z"/>
		<path fill="#1F0404" d="M259.918,126.853c-0.011,0.545-0.021,1.096-0.029,1.644c5.398,4.044,6.877,10.256,8.182,16.198
			c3.306,15.025,3.885,30.531-1.975,44.722c-9.777,23.703-20.805,33.344-45.759,34.247c-7.903,0.287-15.999,1.217-23.679-1.998
			c-1.266-0.53-2.68-0.773-3.673-1.798c-4.684-4.844-10.588-8.104-16.534-10.715c-8.402-3.692-17.279-4.8-25.387,1.538
			c-3.9,3.045-7.94,5.898-11.659,9.194c-5.834,5.171-13.302,5.777-20.562,6.219c-10.614,0.647-21.174,0.429-31.21-4.079
			c-3.496-1.57-7.431-1.993-11.275-2.395c-4.249-0.443-8.472-1.098-12.6-2.196c-12.294-3.278-17.773-9.655-19.039-22.326
			c-1.619-16.21-1.374-32.368,1.72-48.42c1.147-5.983,3.07-11.683,5.9-17.09c5.283-10.098,13.732-15.049,24.993-15.419
			c10.335-0.341,20.592,0.506,30.878,1.613c16.746,1.804,33.518,1.343,50.188-1.29c8.005-1.264,15.996-2.651,24.133-2.8
			c6.082-0.311,12.14-1.415,18.254-0.496c1.446,0.013,2.894-0.02,4.342,0.038c0.738,0.043,1.429,0.193,1.916,0.825
			c4.218,1.66,8.936,0.122,13.612,2.436c-5.1,0-9.704,0.072-14.312-0.014c-17.593-0.325-34.895,2.218-52.254,4.688
			c-13.128,1.868-26.385,2.909-39.731,1.199c-13.068-1.675-26.235-2.204-39.426-1.763c-8.169,0.272-13.922,4.417-18.065,11.137
			c-4.87,7.888-6.242,16.772-7.751,25.732c-1.635,9.684-1.627,19.367-1.5,29.084c0.051,3.949,0.415,7.928,1.026,11.831
			c1.907,12.17,8.672,15.379,18.715,17.812c5.549,1.348,11.323,1.752,16.995,2.603c0.808,0.119,1.656,0.238,2.382,0.578
			c13.329,6.231,27.322,4.81,41.265,3.458c3.064-0.299,5.613-1.947,8.231-4.002c6.004-4.715,11.558-10.729,18.837-12.992
			c7.98-2.48,16.556-2.315,24.33,2.073c5.256,2.968,11.086,5.314,15.543,9.212c8.534,7.472,18.373,4.578,27.777,4.66
			c4.685,0.042,9.357-1.692,13.992-2.974c7.395-2.046,12.165-7.028,16.589-12.767c6.395-8.292,11.326-17.324,11.935-27.879
			c0.896-15.689,2.392-31.64-7.593-45.585c-1.026-1.437-2.147-2.807-3.611-4.719C256.296,126.233,258.203,125.448,259.918,126.853z"
			/>
		<path fill="#FDFDFD" d="M128.359,178.779c-0.521,1.614-1.042,3.232-1.565,4.849c-0.66,2.626-1.862,5.017-3.195,7.354
			c-1.173,1.834-2.039,3.842-3.472,5.523c-2.441,2.863-5.322,4.525-9.263,4.229c-6.081-0.456-12.248-0.114-18.102-2.327
			c-3.803-3.057-4.876-7.512-4.756-11.849c0.259-9.253,1.851-18.313,7.051-26.334c1.658-2.561,3.542-4.897,5.986-6.755
			c4.133-2.194,8.229-4.341,13.064-4.784c5.254-0.476,8.33,0.925,10.757,5.564c3.86,7.38,5.407,15.189,4.383,23.482
			C129.03,178.146,128.734,178.496,128.359,178.779z"/>
		<path fill="#DADADA" d="M215.01,120.364c4.804-0.416,9.471,1.562,14.086,3.756c1.024,0.488,2.339,0.994,1.697,2.288
			c-0.618,1.24-1.99,0.617-2.92,0.119c-4.717-2.534-9.689-3.627-15.062-3.309c-7.712,0.456-14.474,4.74-16.214,12.213
			c-3.166,13.592-12.977,21.89-22.566,30.528c-0.504,0.454-1.103,0.947-1.73,1.084c-1.607,0.357-3.894,2.149-4.73,0.051
			c-0.997-2.506,2.082-1.571,3.232-2.362c4.999-3.44,9.117-7.878,13.424-12.084c4.732-4.621,7.407-10.418,9.316-16.683
			C196.699,125.593,203.821,120.399,215.01,120.364z"/>
		<path fill="#DBDBDB" d="M156.842,163.007c-0.221,0.507-0.304,1.231-0.673,1.421c-0.615,0.322-1.442,0.127-1.763-0.578
			c-3.375-7.433-10.678-12.564-11.99-21.289c-0.784-5.211-4.476-8.533-9.185-10.893c-10.907-5.468-22.057-6.024-33.556-2.25
			c-1.146,0.376-2.8,1.813-3.461-0.086c-0.594-1.712,1.391-2.007,2.646-2.422c12.774-4.226,25.107-3.361,37,3.113
			c4.46,2.428,7.636,5.922,8.907,10.794c1.594,6.106,4.15,11.556,8.715,16.041C155.142,158.486,156.108,160.675,156.842,163.007z"/>
		<path fill="#160303" d="M107.865,146.665c1.718-1.317,3.956-0.785,5.809-1.625c2.151,1.078,4.57-0.202,6.737,0.753
			c0.644,1.99-0.67,2.471-2.151,2.562c-1.369,0.084-2.755-0.118-4.045,0.517c-4.8,0.189-8.746,2.671-12.832,4.78
			c-11.181,10.164-14.278,23.018-12.588,37.5c0.342,2.932,2.04,4.99,4.017,6.933c1.014,0.672,2.219,1.06,3.062,1.998
			c0.543,0.876,1.005,1.771,0.506,2.83c-4.278-0.443-6.832-3.249-9.039-6.554c-0.728-1.091-0.742-2.54-1.781-3.463
			c-1.908-6.183-0.735-12.354,0.303-18.463c0.56-3.294,0.947-6.743,3.008-9.611c2.216-3.24,4.037-6.718,6.594-9.759
			C98.835,151.055,103.242,148.743,107.865,146.665z"/>
		<path fill="#180404" d="M221.907,201.95c1.041-0.021,2.081-0.04,3.124-0.061c6.184-1.299,9.215-6.08,11.7-11.112
			c6.052-12.257,6.155-24.933,1.943-37.768c0.104-2.034,0.056-4.073-0.057-6.108c0.095-0.418,0.303-0.764,0.623-1.045
			c2.759,3.263,3.56,7.325,4.398,11.294c2.198,10.411,2.044,20.732-1.909,30.79c-2.912,4.332-4.327,9.587-8.545,13.143
			c-1.774,1.498-3.677,2.784-5.509,4.184l0.008-0.004c-0.325,0.276-0.677,0.326-1.059,0.12
			C225.715,203.334,222.343,204.649,221.907,201.95z"/>
		<path fill="#160505" d="M216.102,139.243c2.95-2.641,2.004,0.589,2.495,1.65c-3.216,3.761-7.661,5.869-11.711,8.464
			c-2.186,1.4-3.17,2.723-1.981,5.164c-7.902,8.397-11.18,18.305-9.977,29.783c0.339,3.202,1.888,5.666,3.695,8.105
			c0.319,0.291,0.493,0.655,0.523,1.089c-0.23,1.06-0.671,1.928-1.903,2.07c-2.655-2.241-3.766-5.414-5.108-8.45
			c-0.654-0.38-0.797-0.999-0.797-1.682c0.66-3.564,0.662-7.125,0-10.688c0.948-3.632,1.132-7.492,3.266-10.762
			c1.581-4.369,6.239-7.301,5.856-12.614c-0.09-1.271,1.229-1.677,2.083-2.339C206.941,145.602,212.027,143.123,216.102,139.243z"/>
		<path fill="#0E0E0E" d="M155.765,111.051c0.63-0.221,1.262-0.636,1.889-0.633c12.606,0.07,25.207-1.806,37.773-0.679
			c4.938,0.442,10.062-0.34,14.866,1.495c-1.644,0.743-3.381,0.202-5.069,0.367c-1.527,0-3.054,0.001-4.583,0
			c-13.173-0.138-26.32,1.033-39.495,0.744C159.285,112.306,157.238,112.8,155.765,111.051z"/>
		<path fill="#160303" d="M128.359,178.779c-0.192-0.278-0.157-0.525,0.1-0.741c1.987-6.118,0.829-12.032-1.271-17.844
			c-0.925-2.56-2.207-4.978-3.346-7.453c-0.329-1.369,0.09-2.524,1.029-3.521c1.065-0.541,1.35,0.071,1.578,0.985
			c0.931,3.75,3.04,6.995,4.579,10.482c1.207,2.048,1.218,4.39,1.625,6.629c-1.157,3.787,0.322,7.762-0.825,11.546
			C130.672,178.838,129.516,178.807,128.359,178.779z"/>
		<path fill="#242424" d="M95.481,200.355c-0.832-0.554-1.665-1.111-2.498-1.665c-0.354-0.41-0.312-0.78,0.117-1.107
			c2.37,2,5.266,0.907,7.9,1.314c14.11,2.187,14.115,2.161,22.499-8.667c0.603,0.583,0.557,1.205,0.105,1.848v-0.004
			c-1.406,4.258-3.932,7.491-8.293,9.048c-3.633,0.232-7.405-0.433-10.758,1.647c-1.353-0.03-2.459,2.362-4.01,0.414
			C99.431,201.216,96.982,201.629,95.481,200.355z"/>
		<path fill="#1E0404" d="M101.245,202.78c0.434,0.62,1.217,0.925,1.422,0.137c0.579-2.211,1.248-0.428,1.888-0.148
			c2.788,3.004,6.258,2.435,9.807,1.616c0.126,0.995-0.552,0.871-0.91,1.029c-0.499,0.222-1.046,0.577-1.542,0.534
			c-7.674-0.648-15.707,0.108-22.209-5.34c-2.39-2.002-3.955-4.501-4.146-7.712c0.018-0.135,0.013-0.28,0.055-0.404
			c0.128-0.365,0.481-0.864,0.68-0.259c1.685,5.107,4.972,8.648,10.02,10.545C97.954,201.685,99.602,202.481,101.245,202.78z"/>
		<path fill="#0F0909" d="M204.535,154.087c-3.49-1.464-1.91-3.11,0.013-4.377c4.619-3.033,9.36-5.888,14.05-8.815
			c1.034,0.57,2.1,0.984,3.317,0.745c0.381-0.28,0.702-0.211,0.974,0.165c-3.865,0.842-7.296,2.505-10.364,5.036
			c-1.442,1.194-2.846,2.354-3.785,3.993C206.934,151.395,207.109,154.511,204.535,154.087z"/>
		<path fill="#220404" d="M216.102,139.243c-0.878,3.182-4.325,3.479-6.28,5.507c-1.482,1.536-3.573,2.508-5.443,3.651
			c-1.949,1.191-2.893,2.581-3.325,5.107c-0.708,4.118-3.745,7.308-6.447,10.479c0.377-2.187,1.277-4.156,2.593-5.926
			c1.186-1.597,2.749-2.933,1.669-5.374c-0.538-1.217,0.543-2.344,1.598-3.054C205.664,146.149,210.888,142.704,216.102,139.243z"/>
		<path fill="#220404" d="M192.133,187.119c1.661,2.745,3.32,5.495,4.981,8.243c3.931,4.83,9.748,6.745,14.936,9.64
			c0.216,0.372,0.193,0.731-0.071,1.074C199.565,204.187,195.095,199.516,192.133,187.119z"/>
		<path fill="#504941" d="M155.765,111.051c15.138,0.085,30.28,0.171,45.423,0.254c0.305,0.139,0.406,0.278,0.31,0.419
			c-0.1,0.145-0.199,0.22-0.301,0.22c-6.362,0.275-12.724,0.553-19.081,0.829c-4.749-0.947-9.456,0.269-14.188,0.293
			c-4.465,0.025-8.95,0.871-13.359-0.528c-0.52-0.316-0.646-0.753-0.388-1.304C154.707,111.173,155.234,111.111,155.765,111.051z"/>
		<path fill="#1E0404" d="M125.204,195.378c2.657-2.52,3.641-6.002,5.221-9.517c0.821,7.583-6.469,17.158-13.524,18.29
			c0.286-0.709,0.58-1.44,0.879-2.174c0.206-0.307,0.465-0.559,0.785-0.746c1.283-0.599,2.632-1.091,3.566-2.24
			c0.709-0.817,1.104-1.831,1.715-2.712C124.188,195.812,124.734,195.651,125.204,195.378z"/>
		<path fill="#210404" d="M107.865,146.665c0.079,0.113,0.16,0.225,0.241,0.335c-8.525,3.844-14.825,9.886-18.431,18.592
			c-0.035,0.087-0.188,0.129-0.285,0.192c-0.173-0.319-0.35-0.64-0.522-0.961C92.453,155.904,97.89,148.917,107.865,146.665z"/>
		<path fill="#200404" d="M131.027,160.688c-1.194-1.156-4.205-7.153-4.976-9.794c-0.178-0.611-0.536-1.168-0.815-1.752
			c-1.511-1.306-3.325-2.156-4.957-3.282c-2.188-0.369-4.573,0.816-6.605-0.819c2.495-0.266,4.88,0.039,7.471-1.212
			c3.252-1.569,4.901,2.491,5.246,4.258C127.271,152.617,130.441,156.169,131.027,160.688z"/>
		<path fill="#200404" d="M227.677,205.269c6.004-4.973,10.948-10.727,13.511-18.238c0.119,0.042,0.309,0.054,0.338,0.131
			c0.1,0.248,0.139,0.518,0.203,0.777C238.978,195.277,235.679,202.172,227.677,205.269z"/>
		<path fill="#1B1B1B" d="M118.743,201.879c-0.322,0.034-0.644,0.066-0.964,0.1c-0.822-0.286-1.646-0.571-2.467-0.858
			c3.282-2.541,5.848-5.735,8.293-9.046c-0.121,1.418,0.132,2.655,1.602,3.304c-0.328,0.298-0.655,0.598-0.983,0.896
			c-0.501,1.023-1.273,1.861-1.946,2.766C121.26,200.189,119.946,200.965,118.743,201.879z"/>
		<path fill="#0E0E0E" d="M154.179,111.233c-0.031,0.244-0.053,0.49-0.06,0.737c-1.73,2.457-4.364,1.927-6.8,2.062
			c-2.394-0.356-5.049,0.729-7.149-1.27c-0.029-0.238-0.046-0.474-0.046-0.712c3.091-0.561,6.445-0.167,9.048-2.489
			C151.066,109.449,152.943,109.385,154.179,111.233z"/>
		<path fill="#200404" d="M239.241,145.855c0,0.277,0,0.556,0,0.834c-0.761,0.475-1.422,0.1-2.09-0.24
			c-1.326-1.209-2.611-2.459-3.688-3.902c-0.74-2.471-3.116-2.975-4.958-4.119c-0.208-0.186-0.28-0.369-0.208-0.554
			c0.066-0.186,0.139-0.276,0.207-0.276C233.864,138.039,236.058,142.593,239.241,145.855z"/>
		<path fill="#1F1F1F" d="M233.463,142.546c2.315-0.05,2.868,2.098,4.158,3.327c0.973,1.654,0.662,3.038-0.88,4.161
			c-0.863-2.808-2.198-5.272-4.936-6.705C232.184,142.697,232.807,142.585,233.463,142.546z"/>
		<path fill="#200404" d="M211.979,206.077c0-0.276,0-0.546,0-0.819c0.521-0.559,1.193-0.72,1.925-0.733
			c4.257,1.124,8.67-0.521,12.922,0.715c0.287,0.008,0.574,0.017,0.859,0.022c-0.79,1.716-2.331,1.702-3.867,1.644
			C219.861,206.752,215.851,207.435,211.979,206.077z"/>
		<path fill="#270505" d="M131.827,178.865c0.427-3.836-0.893-7.8,0.825-11.547c0,4.635,0,9.272,0,14.016
			C131.286,180.742,132.074,179.649,131.827,178.865z"/>
		<path fill="#1B1B1B" d="M123.605,192.074c-0.035-0.613-0.072-1.229-0.107-1.845c1.099-2.201,2.197-4.402,3.296-6.603
			C127.273,187.028,125.368,189.524,123.605,192.074z"/>
		<path fill="#260505" d="M191.338,174.747c1.327,3.563,1.326,7.126,0.004,10.688C191.338,181.873,191.338,178.312,191.338,174.747z
			"/>
		<path fill="#050505" d="M222.889,141.803c-0.324-0.053-0.651-0.108-0.978-0.164c2.358-1.101,4.643-1.593,6.579,0.793
			C226.635,142.104,224.841,141.234,222.889,141.803z"/>
		<path fill="#050505" d="M227.674,138.429c-1.631,0-3.269,0-5.003,0c0.366-1.512,1.53-1.451,2.535-1.645
			C225.681,137.854,227.938,136.257,227.674,138.429z"/>
		<path fill="#25221E" d="M205.33,111.258c1.655-0.009,3.311-0.018,4.965-0.024c-0.846,1.204-2.145,0.655-3.253,0.834
			c-0.569-0.029-1.142-0.06-1.711-0.09c-0.245-0.16-0.327-0.317-0.247-0.479C205.166,111.339,205.248,111.258,205.33,111.258z"/>
		<path fill="#160505" d="M227.674,138.429c-0.821-0.55-1.645-1.098-2.468-1.645c1.138,0.113,2.426-0.377,3.298,0.813
			c0,0.275,0,0.552,0.001,0.828C228.229,138.428,227.952,138.428,227.674,138.429z"/>
		<path fill="#EFDBC2" d="M227.659,276.237c-1.014,1.733-2.523,1.367-4.067,0.851c-2.021-1.344-1.486,1.371-2.525,1.587
			c-1.428,1.261-1.921-0.78-2.971-0.819c-0.472,0.102-0.913,0.293-1.378,0.406c-0.352,0.032-0.688-0.012-1.015-0.124
			c-0.376-0.169-0.772-0.224-1.172-0.278c0.141,0.42,0.625,0.423,0.884,0.725c0.15,0.354,0.15,0.696,0.025,1.049
			c-0.666,0.764-1.512,1.089-2.501,1.089c-1.727-0.59-3.496-0.939-5.343-0.759c-1.815,0.122-4.04-1.638-5.266,1.158
			c-0.879,0.654-1.855,0.438-2.611-0.033c-1.778-1.1-2.967-0.294-4.104,0.988c-1.169,0.35-1.646-0.591-2.297-1.214
			c-1.454-1.67-2.986-0.107-4.473-0.099c-1.691,0.12-3.456-0.781-5.075,0.383c-0.307,0.206-0.632,0.361-0.98,0.481
			c-1.172,0.239-2.216-0.167-3.254-0.621c-1.683-1.982-3.729-3.073-6.409-2.592c-3.254,0.041-6.532-0.074-9.501,1.624
			c-1.27,0.67-2.186,1.962-3.731,2.15c-0.836,0.016-1.216-0.543-1.517-1.199c-0.283-0.775-0.728-1.388-1.632-1.512
			c-2.041,0.375-4.147-0.766-6.137,0.344c-1.447,0.505-2.438-1.457-3.931-0.701c-1.324,0.147-2.894-0.255-3.451,1.576
			c-0.67,0.415-1.396,0.468-2.15,0.346c-0.547-0.119-1.053-0.346-1.541-0.604c-2.857-1.127-5.67-0.802-8.464,0.249
			c-0.806,0.066-1.495-0.255-2.174-0.62c-0.36-0.18-0.701-0.508-1.072-0.535c-2.999-0.229-5.915-0.463-8.463-2.474
			c-1.699-1.341-3.27-0.145-4.648,1.009c-1.854,0.595-3.31-1.602-5.209-0.734c-0.873-0.056-1.192-0.672-1.423-1.379
			c-2.933-1.76-5.903-3.43-9.041-4.785c-1.542-0.427-3.342,0.232-4.677-1.083c-0.405-0.367-0.862-0.771-0.989-1.276
			c-0.382-1.492-0.97-1.621-1.913-0.431c-1.201-0.131-2.53,0.07-3.304-1.223c-0.993-1.974-3.634-1.997-4.666-3.917
			c-1.237-2.872-3.566-2.896-6.123-2.33c-1.237-1.308-2.558-2.482-4.423-2.804c-0.707-0.878-0.992-1.885-0.922-2.994
			c-0.256-1.637-1.995-2.491-2.22-4.147c-2.521-1.908-5.133-3.685-7.5-5.789c-0.463-0.408-1.486-0.941-2.055,0.206
			c-0.917,1.052,0.744,0.737,0.711,1.328c0.12,0.344,0.142,0.682,0.09,1.035c-0.302,1.071-0.538,2.189-1.856,2.496
			c-0.363,0.005-0.71-0.075-1.029-0.247c-0.614-0.444-0.858-1.475-1.922-1.189c-1.177,1.227-2.389,1.416-3.649,0.148
			c-12.611-10.248-21.725-23.573-31.906-35.976c-6.109-7.439-10.818-15.591-13.648-24.723c-4.457-14.386-3.677-29.07-0.987-43.571
			c1.263-6.804,2.548-13.789,5.682-20.142c7.575-15.35,19.734-24.632,36.695-27.513c4.938-0.401,9.874-0.455,14.807,0.022
			c2.331,0.729,4.693,1.25,7.159,1.108c1.571,0.717,3.038,1.76,4.895,1.623c1.538,0.415,3.161,0.618,4.396,1.774
			c0.556,0.887,1.435,0.706,2.265,0.688c1.715,0.635,3.672,0.61,5.142,1.904c1.392,0.511,2.782,1.022,4.174,1.532
			c2.634,1.375,5.268,2.746,8.292,3.063c1.261,0.856,3.049,0.612,4.085,1.942c2.055,0.776,4.062,1.763,6.364,1.435
			c1.38,0.793,3.123-0.298,4.438,0.854l-0.068,0.025c2.154,0.99,4.616-0.487,6.734,0.79c1.09,0.349,2.178,0.345,3.268-0.005
			c4.674-1.118,9.422-0.231,14.128-0.509c3.113-0.186,6.248,0.332,9.347-0.293c2.197,0.338,4.223-0.38,6.26-1.018
			c8.078,0.005,16.156-0.027,24.233,0.052c1.253,0.015,2.759-0.7,3.763,0.747c-10.049,0.404-19.875,2.554-29.816,3.803
			c-16.176,2.042-32.383,2.248-48.535-0.037c-9.739-1.378-19.514-1.644-29.229-0.9c-13.472,1.032-20.223,10.2-24.506,21.936
			c-2.859,7.832-3.862,16.085-4.523,24.187c-1.006,12.281-1.089,24.694,0.774,36.993c1.412,9.325,7.566,14.279,15.911,17.068
			c2.712,0.91,5.59,1.458,8.439,1.809c7.921,0.97,15.537,2.997,23.244,5.096c14.13,3.854,28.667,4.206,42.309-2.048
			c5.039-2.312,9.028-6.898,13.499-10.444c7.35-5.82,20.271-6.674,28.321-1.872c4.25,2.534,9.108,4.436,12.602,7.764
			c4.392,4.189,9.34,6.106,14.982,6.392c13.386,0.683,26.703,0.406,39.083-5.843c2.124-1.074,3.717-2.797,5.382-4.445
			c15.246-15.143,20.081-33.724,18.572-54.613c-0.758-10.428-2.708-20.342-8.729-29.118c5.681,0.547,10.6,3.548,16.016,5.001
			c9.859,2.646,9.712,2.796,9.952,13.151c0.641,27.322-2.896,53.859-14.439,78.952c-1.829,3.978-2.597,8.369-4.811,12.223
			c-0.479,0.831-0.76,1.306-1.673,1.306c-0.314,0.25-0.651,0.463-1.008,0.644c-0.774,0.24-1.556,0.216-2.34,0.065
			c-1.905-0.91-3.45-0.483-4.624,1.273c-1.961,1.056-3.066,2.896-4.272,4.645c-0.64,0.77-2.589-2.041-2.435,0.895
			c-2.068,0.63-1.28,2.652-1.935,4.041"/>
		<path fill="#EFDBC2" d="M248.313,250.693c-1.165,1.416-4.637,1.436-3.036,4.686c-0.408,0.882-1.404,1.074-2.004,1.739
			c-0.968,1.525-3.045,2.361-2.824,4.614c-0.409,0.785-1.072,0.998-1.903,0.837c-3.14-1.291-3.918-0.018-3.16,2.915
			c0.378,1.16,0.696,2.319-0.085,3.445c-1.299,0.993-2.682,0.378-4.042,0.219c-2.403,0.634-4.271,1.557-2.505,4.508
			c-0.261,0.891-0.3,1.867-1.06,2.622"/>
		<path fill="#AB9D8B" d="M261.541,239.136c0.837-0.029,1.673-0.058,2.51-0.086c1.146,1.681-1.167,2.644-0.862,4.148
			c-1.136,3.468-3.864,5.845-5.977,8.635c-0.654,0.869-1.605,1.52-1.688,2.731c-0.43,0.156-0.86,0.311-1.289,0.466
			c-1.196-1.108-0.687-2.384-0.369-3.647c1.49-1.171,0.982-2.576,0.464-3.98c-0.083-0.766,0.133-1.444,0.605-2.047
			c0.442-0.555,0.896-1.096,1.37-1.626c0.797-0.855,1.832-0.865,2.881-0.812c1.155-0.376,0.582-1.457,0.877-2.177
			C260.263,239.938,260.777,239.419,261.541,239.136z"/>
		<path fill="#C1B19D" d="M263.188,243.199c-1.779-1.812,1.585-2.558,0.862-4.148c0.294,0.023,0.586,0.05,0.881,0.076
			C264.881,240.712,264.301,242.07,263.188,243.199z"/>
		<path fill="#E0CDB6" d="M114.485,277.875c2.048-3.291,5.218-3.459,7.461-0.444c0.521,0.705,0.695,1.881,2.331,0.794
			c1.657-1.104,3.635-0.226,5.108,1.214c-0.972,1.201-2.51,1.473-3.724,2.275c-0.821,0.334-1.71,0.476-2.508,0.876
			c-0.663,0.341-1.055,0.926-1.399,1.562c-1.142,1.969-2.723,2.871-5.005,2.053c-1.402,0.098-2.695-0.251-3.915-0.921
			c-0.192-0.204-0.269-0.418-0.228-0.641c0.04-0.228,0.091-0.344,0.144-0.344c0.255-1.187,2.474,0.325,2.194-1.607
			c-0.172-0.676-0.033-1.249,0.529-1.675c1.155-0.979-0.264-1.166-0.542-1.706C114.531,278.903,114.183,278.489,114.485,277.875z"/>
		<path fill="#B2A390" d="M162.432,295.292c-2.557-0.188-5.21,0.425-7.632-0.9c0.097-0.147,0.195-0.294,0.29-0.441
			c0.256-0.261,0.782-0.53,0.731-0.763c-0.119-0.577-0.776-0.059-1.121-0.349c-0.653-0.456-1.01-1.061-1.039-1.854
			c0.803-1.896,1.288-4.142,4.128-3.88c1.041,0.972,2.435,1.468,3.433,2.501c0.533,0.71,1.326,0.939,2.149,1.113
			c0.821,0.339,1.596,0.723,1.74,1.732c-0.201,0.698-0.783,1.073-1.276,1.525C163.372,294.415,162.801,294.747,162.432,295.292z"/>
		<path fill="#BDAD99" d="M91.235,268.09c2.542-2.752,2.48,0.574,3.456,1.477c0.399,0.806,0.003,1.427-0.468,2.035
			c-0.896,0.959-2.146,1.271-3.282,1.789c-0.606,0.307-1.155,0.706-1.696,1.117c-0.452,0.253-0.911,0.448-1.424,0.168
			c-1.02-0.129-1.792-0.641-2.322-1.517c-1.399-2.034,2.202-2.451,1.387-4.298c0.239-0.27,0.53-0.462,0.88-0.562
			C88.925,268.316,90.126,268.947,91.235,268.09z"/>
		<path fill="#AE9F8D" d="M132.682,290.128c-2.711-0.024-5.14-1.163-7.659-1.938c-0.309-0.528-0.187-1.01,0.173-1.457
			c0.795-0.889,2.255-0.708,2.909-1.831c0.375-0.587,0.724-1.193,1.381-1.524c0.983-0.146,1.803,0.229,2.562,0.805
			c0.775,0.835,1.428,1.747,1.786,2.848C133.942,288.244,133.559,289.279,132.682,290.128z"/>
		<path fill="#D4C2AC" d="M128.465,285.417c0.047,1.856-1.863,0.622-2.424,1.523c-0.984-0.538-2.055,0.043-3.057-0.224
			c-0.951,0.294-1.866,0.918-2.919,0.328c-1.153-0.089-2.341-0.057-3.317-0.845c2.228-0.078,4.005-0.745,4.314-3.315
			c0.199-0.93,1.676,0.317,1.666-0.974c0.67-0.917,1.654-0.703,2.578-0.714c1.014,0.382,1.487,1.273,2.002,2.122
			C127.706,284.011,128.277,284.608,128.465,285.417z"/>
		<path fill="#D5B2A2" d="M100.903,281.314c-2.682-0.567-5.015-1.888-7.266-3.379c0.069-0.154,0.139-0.306,0.207-0.46
			c0.409-0.553,0.89-1.034,1.445-1.447c0.319-0.156,0.657-0.237,1.013-0.259c1.27,0.025,2.513,0.211,3.729,0.593
			c0.947,0.325,1.857,0.709,2.63,1.364c0.481,0.472,0.782,1.032,0.882,1.7C103.528,281.266,102.594,281.821,100.903,281.314z"/>
		<path fill="#C1AF9B" d="M83.969,272.707c-2.354-1.08-4.796-2.004-6.783-3.749c-0.396-1.259,0.582-1.296,1.318-1.343
			c1.232-0.076,1.483-0.937,1.726-1.866c0.194-0.325,0.479-0.53,0.85-0.612c0.746-0.02,1.427,0.225,2.098,0.515
			c0.482,0.253,0.857,0.603,0.993,1.15c-0.34,0.984,0.746,1.433,0.854,2.255C84.563,270.242,85.654,271.876,83.969,272.707z"/>
		<path fill="#AE9E8C" d="M221.091,286.924c-0.002,0.559-0.004,1.117-0.004,1.673c-2.605,1.656-5.223,3.281-8.294,3.956
			c-0.488-1.138-0.067-2.247,0.094-3.368c0.086-0.382,0.229-0.743,0.398-1.097c0.746-1.305,1.758-2.076,3.352-1.658
			C217.974,287.899,219.649,286.371,221.091,286.924z"/>
		<path fill="#B1A290" d="M186.562,296.1c-2.357,2.375-5.081,0.498-7.628,0.656c-1.201-1.45-0.841-2.835,0.172-4.195
			c0.948-0.91,1.973-1.522,3.294-0.708c1.041,0.625,0.774,2.185,1.951,2.721c0.487,0.023,0.948,0.103,1.384,0.319
			C186.168,295.19,186.475,295.572,186.562,296.1z"/>
		<path fill="#AB9B8A" d="M148.34,293.437c-1.442,0.177-2.809-0.099-4.108-0.728c-0.461-0.56-0.322-1.252-0.435-1.889
			c-0.449-1.124-1.703-1.815-1.73-3.173c0.032-0.39,0.153-0.745,0.354-1.083c1.162-1.248,2.37-1.161,3.609-0.121
			c0.82,1.183,2.029,2.076,2.628,3.438C148.574,291.063,148.89,292.29,148.34,293.437z"/>
		<path fill="#A89A89" d="M71.479,265.851c-0.582-0.64-1.166-1.276-1.749-1.913c0.444-0.857,1.376-1.02,2.094-1.48
			c1.048-0.71,1.008-2.88,3.037-2.284c0.907,0.397,1.564,1.055,2.006,1.933c0.188,0.539,0.188,1.08-0.024,1.613
			c-0.575,0.854-1.669,1.184-2.156,2.136c-0.205,0.274-0.471,0.471-0.785,0.604C73.095,266.254,72.287,266.052,71.479,265.851z"/>
		<path fill="#A89A89" d="M179.827,292.553c-0.761,1.304-1.014,2.715-0.893,4.204c-1.372-0.047-2.744-0.093-4.116-0.138
			c-0.291-0.235-0.566-0.489-0.83-0.752c-0.726-1.396-0.759-2.508,1.157-2.814c1.398,0.311,2.097-0.922,3.126-1.43
			C179.08,291.454,179.753,291.508,179.827,292.553z"/>
		<path fill="#B5A390" d="M87.821,274.675c0.353-0.316,0.707-0.635,1.06-0.949c0.886-0.65,1.927-0.17,2.868-0.39
			c0.916,0.628,1.075-0.639,1.73-0.693c0.364,0.04,0.674,0.188,0.952,0.42c0.646,0.66,1.372,1.277,1.273,2.339
			c-0.668,0.679-1.062,1.542-1.551,2.34c-0.147,0.132-0.32,0.194-0.517,0.194C91.698,276.85,89.76,275.762,87.821,274.675z"/>
		<path fill="#D4C1AB" d="M83.969,272.707c0.812-1.174-1.75-3.057,0.818-3.857c0.804-0.297,1.616-0.285,2.432-0.062
			c0.653,1.938,0,3.363-1.718,4.371C84.991,273.007,84.479,272.859,83.969,272.707z"/>
		<path fill="#817769" d="M209.506,294.39c-1.104,1.421-3.055-1.014-4.06,0.883c-0.979-0.44-1.519-1.372-2.3-2.037
			c-0.362-0.425-0.577-0.896-0.438-1.47c0.769-1.184,1.78-1.055,2.87-0.535c0.962,0.479,2.045,0.604,3.038,1.009
			c0.508,0.262,0.896,0.65,1.156,1.155C209.879,293.777,209.791,294.109,209.506,294.39z"/>
		<path fill="#B9A996" d="M168.998,295.966c-0.743-1.639-2.409-3.28,0.026-4.897c0.548-0.521,1.146-0.494,1.774-0.173
			c0.46,0.506,0.666,1.113,0.742,1.778c0.012,1.36-0.117,2.654-1.703,3.156C169.56,295.876,169.28,295.92,168.998,295.966z"/>
		<path fill="#C3B39F" d="M192.979,296.829c-2.061,0.254-4.186,1.002-6.001-0.741c0.188-0.961,0.854-1.524,1.652-1.991
			c0.334-0.12,0.681-0.168,1.034-0.156c1.159,0.337,2.43-0.232,3.555,0.42c0.328,0.474,0.422,0.991,0.346,1.552
			C193.438,296.266,193.243,296.571,192.979,296.829z"/>
		<path fill="#C5B4A0" d="M112.835,284.472c-0.005,0.271-0.006,0.539-0.001,0.809c-0.874-0.107-1.84,0.091-2.495-0.745
			c-0.553-0.555-1.288-0.972-1.399-1.854c-0.02-1.177,0.467-1.914,1.723-1.987c0.617,0.064,1.121,0.36,1.573,0.764
			c0.56,0.562,0.98,1.201,1.07,2.016C113.272,283.861,113.121,284.197,112.835,284.472z"/>
		<path fill="#CABAA4" d="M109.542,282.912c0.265,0.541,0.528,1.081,0.795,1.623c-1.092-0.311-2.188-0.617-3.283-0.924
			c-1.004-0.546-1.626-1.295-1.378-2.521c0.609-1.529,1.76-2.148,3.365-2.003C110.961,280.13,107.897,281.829,109.542,282.912z"/>
		<path fill="#A09382" d="M80.648,265.521c1.763,4.074-2.112,2.486-3.463,3.437c-0.241-0.168-0.481-0.338-0.723-0.504
			c-0.123-0.803-1.611-1.312-0.52-2.375c0.314-0.164,0.655-0.251,1.01-0.272c1,0.19,1.937,0.035,2.795-0.55
			C80.091,265.199,80.391,265.287,80.648,265.521z"/>
		<path fill="#C3A797" d="M100.903,281.314c1.726-0.154,2.162-1.208,1.92-2.738c-0.501-1.173-0.07-1.761,1.159-1.849
			c1.971,1.033,1.61,2.657,1.098,4.32c-0.593,0.805-1.271,1.421-2.386,1.087C101.979,282.123,101.33,281.957,100.903,281.314z"/>
		<path fill="#A69887" d="M148.34,293.437c-0.483-1.093-1.455-2.191,0.077-3.237c0.385-0.801,0.91-1.256,1.831-0.746
			c0.747,1.06,0.729,2.207,0.391,3.392c-0.166,0.367-0.433,0.639-0.796,0.817C149.344,293.587,148.842,293.513,148.34,293.437z"/>
		<path fill="#BCAC98" d="M138.459,290.989c-1.825,0.737-3.427-0.134-5.074-0.702c0.432-0.997,0.864-1.997,1.755-2.7
			c1.478-0.037,2.448,0.894,3.436,1.798C138.872,289.939,138.936,290.484,138.459,290.989z"/>
		<path fill="#A09382" d="M188.839,294.36c-0.358,0.857-1.011,1.399-1.861,1.729l-0.206,0.08l-0.209-0.069
			c-0.37-0.3-0.737-0.601-1.106-0.902c-1.088-0.806-1.299-1.672-0.185-2.631c0.318-0.16,0.66-0.218,1.017-0.169
			c0.88-0.165,0.749,1.859,1.996,0.917C188.8,293.486,189.186,293.73,188.839,294.36z"/>
		<path fill="#988C7C" d="M169.84,295.83c0.54-0.977,0.931-1.992,0.83-3.137c0.313-0.257,0.641-0.277,0.981-0.066
			c0.512,1.558,1.862,2.331,3.066,3.238c0.053,0.248,0.088,0.501,0.104,0.752C173.049,297.053,171.363,296.947,169.84,295.83z"/>
		<path fill="#B7A895" d="M153.31,294.336c-1.171-0.14-2.442,0.224-3.466-0.674c0.158-0.082,0.294-0.186,0.416-0.315
			c0.755-1.217,0.912-2.923,2.707-3.283c0.615,0.29,0.771,0.832,0.797,1.446C154.076,292.528,154.172,293.51,153.31,294.336z"/>
		<path fill="#C5B5A0" d="M135.203,287.701c-0.017,1.274-0.157,2.465-1.818,2.586l-0.379,0.032l-0.326-0.191
			c-0.133-1.171,0.246-2.209,0.803-3.204c0.274-0.244,0.594-0.367,0.961-0.365C135.003,286.737,135.356,287.05,135.203,287.701z"/>
		<path fill="#A59282" d="M102.697,282.135c0.612-0.326,1.226-0.661,1.837-0.991c0.53-0.467,1.052-0.467,1.565,0.023
			c0.318,0.816,0.638,1.631,0.957,2.446C105.316,283.963,104.047,282.938,102.697,282.135z"/>
		<path fill="#908172" d="M145.035,291.131c-0.268,0.524-0.536,1.05-0.804,1.576c-1.165,0.029-2.377,0.266-3.325-0.716
			c-0.54-0.99,0.098-1.514,0.802-2.01C143.028,289.749,144.105,290.228,145.035,291.131z"/>
		<path fill="#D3C0AA" d="M165.722,294.435c0.542,0.484,1.083,0.966,1.625,1.447c-1.718,0.449-3.311-0.111-4.915-0.59
			c-0.037-0.792,0.121-1.484,0.93-1.851C164.324,293.355,165.193,293.494,165.722,294.435z"/>
		<path fill="#9D907F" d="M198.713,296.761c-0.255-0.249-0.507-0.502-0.764-0.753c-0.929-1.414-0.01-1.936,1.134-2.353
			c0.651-0.105,1.279-0.027,1.878,0.247c0.372,0.224,0.604,0.556,0.687,0.982c0.11,1.455-1.175,1.396-1.999,1.836
			C199.338,296.731,199.023,296.746,198.713,296.761z"/>
		<path fill="#938677" d="M209.506,294.39c-0.002-0.282-0.004-0.564-0.005-0.844c-0.813-1.753,0.188-2.115,1.639-2.141
			c0.714,0.292,1.349,0.63,0.875,1.578C211.553,294.111,210.553,294.289,209.506,294.39z"/>
		<path fill="#CAB8A3" d="M203.723,292.808c1.285,0.326,1.405,1.466,1.724,2.467c-0.265,0.904-1.005,0.786-1.689,0.778
			c-0.132-0.082-0.264-0.164-0.396-0.242c-0.408-0.487-0.693-1.032-0.777-1.67C202.642,293.423,203.107,293.054,203.723,292.808z"/>
		<path fill="#A49786" d="M122.778,285.317c0.956,0.809,2.501,0.433,3.264,1.624c-0.337,0.416-0.679,0.831-1.019,1.249
			c-0.76-0.164-1.52-0.327-2.28-0.492C122.168,286.896,122.166,286.103,122.778,285.317z"/>
		<path fill="#7E7466" d="M153.31,294.336c0.007-1.08,0.017-2.167,0.023-3.248c0.261-0.354,0.532-0.363,0.818-0.035
			c0.274,0.553,0.549,1.104,0.822,1.662c0.487,0.457,0.637,1.001,0.435,1.64l-0.3,0.075l-0.309-0.038
			C154.302,294.371,153.807,294.354,153.31,294.336z"/>
		<path fill="#CBB9A4" d="M199.651,296.721c0.552-0.517,1.108-1.031,1.665-1.549c0.933-0.542,1.515,0.155,2.166,0.61l0.274,0.269
			C202.493,296.922,201.107,297.05,199.651,296.721z"/>
		<path fill="#BCA895" d="M122.778,285.317c-0.013,0.794-0.024,1.587-0.035,2.381c-0.974,0.121-1.881-0.037-2.676-0.653
			C121.344,287.054,121.894,285.928,122.778,285.317z"/>
		<path fill="#D9C5AF" d="M52.599,248.957c1.846,1.013,2.458-0.514,3.286-1.596c1.252,0.364,2.05,1.175,2.38,2.437
			c0.331,0.025,0.665,0.056,0.996,0.085c1.815,0.575,0.335,3.343,2.477,3.701c2.556,1.479,4.962,3.135,6.618,5.66
			c0.604,0.755,1.013,1.587,1.013,2.577c-0.117,0.636-0.598,0.905-1.137,1.114C62.653,258.686,57.532,253.924,52.599,248.957z"/>
		<path fill="#171617" d="M63.242,97.056c-4.936-0.008-9.871-0.016-14.807-0.021C53.373,95.907,58.309,95.886,63.242,97.056z"/>
		<path fill="#D6C4AE" d="M228.465,273.598c-0.35-1.293-3.033,0.094-2.218-1.061c1.2-1.695,1.426-4.953,4.766-4.545
			c1.368,1.041,2.606,2.131,1.328,4.039c-0.411,0.348-0.948,0.503-1.354,0.867c-0.261,0.852-1.516-0.058-1.69,0.95
			C228.941,274.027,228.662,273.945,228.465,273.598z"/>
		<path fill="#867B6D" d="M222.526,284.759c0.042,0.822-0.399,1.283-1.144,1.516c-1.659,0.509-2.186-0.654-2.714-1.816
			c-0.193-1.334-0.817-2.542-1.18-3.831c0.094-0.619,0.456-1.051,0.988-1.351c0.903-0.182,1.479,0.231,1.853,1.015
			c-0.105,1.129,0.438,1.633,1.541,1.6C221.846,282.9,221.874,283.9,222.526,284.759z"/>
		<path fill="#CAB9A4" d="M220.328,280.291c-0.557-0.223-1.116-0.448-1.674-0.672c-0.984-0.629-0.876-1.62-0.852-2.583
			c0.744-0.65,1.695-1.771,1.862,0.28c0.088,1.092,0.609,1.245,1.401,1.36C221.049,279.316,220.951,279.92,220.328,280.291z"/>
		<path fill="#B1A290" d="M223.592,277.088c1.175-1.108,2.952,0.442,4.067-0.921C226.744,278.407,225.62,279.732,223.592,277.088z"
			/>
		<path fill="#877C6E" d="M230.99,272.897c0.272-0.262,0.55-0.523,0.821-0.783c1.217-0.458,1.426-2.889,3.455-1.768
			c0.516,1.181,0.092,2.03-0.925,2.68C233.221,272.984,232.105,272.94,230.99,272.897z"/>
		<path fill="#E0CDB6" d="M234.34,273.026c0.247-0.861,0.496-1.724,0.741-2.586c0.303-0.215,0.627-0.251,0.97-0.108
			c0.221,0.322,0.198,0.629-0.066,0.913c-0.095,1.305-0.108,2.651-1.636,3.232C234.348,273.992,234.344,273.511,234.34,273.026z"/>
		<path fill="#887C6E" d="M228.465,273.598c0.278,0.082,0.557,0.168,0.834,0.25c0.052,1.181,0.079,2.348-1.6,2.357
			C227.757,275.277,227.507,274.262,228.465,273.598z"/>
		<path fill="#DFCCB5" d="M246.68,255.578c-0.573,0.499-1.135,0.438-1.686-0.036c-1.646-3.495,0.115-4.694,3.323-4.92
			c-0.051,0.809-0.184,1.821-0.978,1.992c-2.611,0.554-0.502,1.978-0.652,2.967"/>
		<path fill="#B8A996" d="M250.823,254.709c1.872,0.001,1.552-1.514,1.812-2.623c0.14-0.415,0.352-0.765,0.8-0.905
			c0.297-0.013,0.533,0.102,0.706,0.347c0.851,1.147-0.188,2.341,0.088,3.502c-0.425,0.74-0.851,1.479-1.278,2.22
			C252.244,256.399,251.532,255.554,250.823,254.709z"/>
		<path fill="#CFBEA8" d="M244.994,255.542c0.562,0.012,1.125,0.023,1.686,0.036c0.013,1.074,0.02,2.145,0.028,3.219
			c-0.28,0.027-0.564,0.059-0.845,0.088c-0.619,0.411-0.971,0.045-1.282-0.436c0.493-1.84-1.993-0.73-2.032-2.042
			C243.126,255.454,244.108,255.635,244.994,255.542z"/>
		<path fill="#A08F7F" d="M239.249,266.285c1.155,1.132,3.117,0.397,4.158,1.791c-0.156,1.082-0.799,1.808-1.71,2.331
			c-0.154-0.06-0.304-0.12-0.46-0.179c-0.563-0.354-1.084-0.766-1.591-1.204c-0.39-0.361-0.691-0.781-0.852-1.294
			C238.713,267.177,238.814,266.679,239.249,266.285z"/>
		<path fill="#A08F7F" d="M241.695,270.406c-0.813,0.841-1.629,1.673-2.444,2.512L239,272.722c-0.305-1.944,0.454-2.85,2.472-2.521
			L241.695,270.406z"/>
		<path fill="#AB9D8B" d="M239.249,266.285c-0.004,0.553-0.009,1.106-0.011,1.659c-0.439,1.208-1.473,1.83-2.473,2.487
			c-0.261,0.271-0.521,0.546-0.781,0.815c-0.052-0.248-0.095-0.499-0.131-0.748c-0.393-0.54-0.932-1.01-0.918-1.763
			c-0.206-1.071-0.41-2.146-0.62-3.215c0.641-0.775,1.342-1.398,2.458-0.944c0.516,1.039,1.516,0.864,2.406,0.956
			C239.222,265.781,239.247,266.035,239.249,266.285z"/>
		<path fill="#BDAC98" d="M241.469,270.2c-1.274,0.396-2.051,1.282-2.469,2.521c-1.027-0.42-1.401-1.239-1.408-2.285
			c0.478-1.109,1.312-1.663,2.533-1.614C241.02,268.847,241.704,269.076,241.469,270.2z"/>
		<path fill="#827769" d="M240.125,268.825c-0.844,0.538-1.69,1.075-2.533,1.613c-0.275-0.001-0.549-0.002-0.827-0.006
			c0.587-1.063,0.831-2.469,2.472-2.488C239.535,268.237,239.829,268.532,240.125,268.825z"/>
		<path fill="#83786A" d="M219.295,283.342c0.112,1.393,0.732,2.426,2.088,2.933c-0.053,0.237-0.149,0.454-0.292,0.651
			c-1.377,0.108-2.73,3.627-4.135,0.029c0.079-0.293,0.186-0.576,0.312-0.851c0.208-0.607,0.072-1.211-0.026-1.817
			c-0.062-0.52,0.016-1.002,0.304-1.444C218.341,282.277,218.817,282.803,219.295,283.342z"/>
		<path fill="#FDFDFD" d="M96.47,61.617c-1.286-1.04-0.906-2.498-0.911-3.827c-0.027-6.856,0.212-13.728-0.102-20.573
			c-0.167-3.658,1.241-4.207,4.466-4.182c17.856,0.143,35.717,0.067,53.577,0.067c14.698,0,29.4,0.097,44.097-0.077
			c3.132-0.037,4.012,0.825,3.851,3.901c-0.43,8.206,0.455,16.439-0.465,24.641"/>
		<path fill="#1F2325" d="M147.858,112.989c-7.787,1.426-15.636,0.98-23.477,0.804c3.089-1.972,6.507-0.547,9.751-0.906
			c1.993-0.222,4.022-0.094,6.035-0.123C142.734,112.838,145.296,112.916,147.858,112.989z"/>
		<path fill="#1F2325" d="M121.116,113.796c-2.335,0.412-4.591,0.215-6.735-0.859C116.635,113.146,119.067,111.976,121.116,113.796z
			"/>
		<path fill="#1F2325" d="M103.646,110.694c-1.423-0.52-2.943-0.832-4.083-1.943C101.236,108.744,102.847,108.866,103.646,110.694z"
			/>
		<path fill="#1F2325" d="M114.447,112.98c-1.576,0.224-3.029-0.174-4.435-0.853C111.53,112.209,113.229,111.352,114.447,112.98z"/>
		<path fill="#1E2427" d="M87.097,104.156c-1.781-0.45-3.6-0.805-5.14-1.906C83.952,102.124,85.846,102.278,87.097,104.156z"/>
		<path fill="#1E2427" d="M79.691,101.562c-1.465-0.591-2.928-1.184-4.396-1.777C77.084,99.581,78.744,99.695,79.691,101.562z"/>
		<path fill="#1F1F1F" d="M239.236,152.473c5.688,15.006,4.389,29.417-4.287,42.896c-2.147,3.348-4.607,7.419-9.916,6.523
			c10.589-5.726,13.988-15.636,15.009-26.616c0.775-8.317,0.196-16.618-3.195-24.468
			C238.337,150.365,238.713,151.529,239.236,152.473z"/>
		<path fill="#202020" d="M204.535,154.087c1.902-0.441,1.994-3.212,4.202-3.252c-1.007,1.44-1.813,3.092-3.057,4.291
			c-8.583,8.312-10.743,18.581-9.596,29.999c0.261,2.601,1.728,4.539,2.751,6.736c0.362,0.428,0.313,0.799-0.149,1.115
			c-6.242-4.834-5.29-11.71-4.641-18.138C194.868,166.737,198.753,159.854,204.535,154.087z"/>
		<path d="M226.825,205.239c-4.396,1.091-8.794,1.504-13.193,0.019c-0.434-0.51-1.455-0.282-1.591-1
			c-0.203-1.093,0.763-1.26,1.533-1.382c1.188-0.19,2.408-0.002,3.601-0.214c0.72-0.308,1.584-0.13,2.247-0.645
			c0.831-0.016,1.618-1.44,2.485-0.066C222.952,203.934,227.214,201.12,226.825,205.239z"/>
		<path fill="#232323" d="M219.421,202.017c-0.569,0.293-1.138,0.59-1.708,0.885c-2.358,0.643-4.845-0.041-7.215,0.702
			c-0.601,0.192-1.468,0.137-1.974-0.247c-3.673-2.794-7.565-5.377-9.819-9.621c0.015-0.255,0.009-0.506-0.019-0.76
			c0.051-0.373,0.098-0.742,0.149-1.115c2.579,2.771,6.595,3.908,8.16,7.992c0.672,1.761,3.515,1.812,5.515,2.014
			C214.794,202.097,217.116,201.984,219.421,202.017z"/>
		<path fill="#313131" d="M222.731,175.801c0,0.823,0.047,1.648-0.015,2.467c-0.053,0.77,0.117,1.752-1.053,1.878
			c-1.506,0.163-1.383-1.002-1.427-1.918c-0.079-1.644-0.128-3.289-0.086-4.936c0.024-0.984-0.481-2.502,1.221-2.482
			c1.569,0.021,1.284,1.48,1.349,2.523C222.775,174.154,222.731,174.979,222.731,175.801z"/>
		<path fill="#0A0606" d="M239.236,152.473c-0.796-0.557-1.593-1.111-2.39-1.665c-0.174-0.241-0.211-0.497-0.106-0.772
			c0.294-1.387,0.586-2.774,0.88-4.161c0.542,0.271,1.081,0.543,1.62,0.815C239.663,148.617,240.703,150.544,239.236,152.473z"/>
		<path fill="#3A342E" d="M205.33,111.258c0.025,0.239,0.025,0.481,0.002,0.72c-1.379-0.014-2.757-0.023-4.135-0.035
			c0.022-0.216,0.018-0.428-0.009-0.637C202.568,111.289,203.949,111.273,205.33,111.258z"/>
		<path fill="#1F1F1F" d="M93.101,197.583c-0.038,0.366-0.076,0.736-0.118,1.106c-6.634-4.235-6.227-11.019-5.62-17.362
			c0.811-8.49,3.088-16.67,8.696-23.533c1.496-1.835,3.086-3.456,5.194-4.54c0.388,0.333,0.426,0.706,0.118,1.114
			c-9.19,8.872-11.936,20.175-12.221,32.392C89.056,190.862,90.208,194.549,93.101,197.583z"/>
		<path fill="#252525" d="M101.372,154.366c-0.038-0.368-0.076-0.74-0.117-1.112c3.754-2.602,7.625-4.906,12.405-4.933
			c6.361-0.948,9.231-0.736,10.747,4.129c3.439,6.862,6.968,13.684,5.788,21.792c-0.217,1.5,0.051,3.075-1.737,3.797
			c0.138-8.471-0.69-16.684-5.076-24.275c-1.938-3.351-4.592-4.356-8.101-4.126C110.225,149.966,105.693,151.868,101.372,154.366z"
			/>
		<path fill="#212121" d="M111.319,176.73c0,0.967,0.085,1.661-0.018,2.326c-0.146,0.944,0.382,2.461-1.391,2.335
			c-1.344-0.097-1.098-1.319-1.16-2.221c-0.05-0.674-0.153-1.394,0.014-2.034c0.413-1.608-1.232-4.54,1.329-4.577
			C112.169,172.531,110.835,175.475,111.319,176.73z"/>
		<path fill="#0D0B0B" d="M124.406,152.449c-2.618-3.878-6.455-4.594-10.746-4.129c1.068-1.277,2.536-0.715,3.849-0.804
			c1.238-0.085,2.572,0.112,2.769-1.659c2.485-0.155,4.523,0.359,4.961,3.285C124.959,150.243,124.684,151.346,124.406,152.449z"/>
		<path fill="#090404" d="M101.245,202.78c-1.644,1.37-3.29,0.268-4.935,0c-0.276-0.806-0.553-1.616-0.827-2.427
			C97.744,200.355,100.35,199.542,101.245,202.78z"/>
		<path fill="#070202" d="M198.705,193.739c2.625,2.719,6.225,4.312,8.333,7.703c1.353,2.186,4.017,1.215,6.144,1.368
			c1.508,0.106,3.022,0.064,4.531,0.087c-1.135,1.169-2.596,0.542-3.911,0.713c-2.354,0.308-0.115,1.096-0.17,1.646
			c-0.552,0-1.102,0.001-1.652,0.001c-4.598-0.989-8.513-3.348-12.304-6.008c-1.42-0.988-2.438-2.109-2.561-3.888
			C197.644,194.819,198.177,194.281,198.705,193.739z"/>
		<path fill="#434343" d="M118.743,201.879c0.704-1.415,1.849-2.41,3.127-3.276c0.541,0.101,0.864,0.427,0.975,0.964
			C121.881,201.051,120.451,201.711,118.743,201.879z"/>
		<path fill="#585858" d="M122.845,199.566c-0.323-0.322-0.649-0.642-0.975-0.962c0.782-0.777,1.567-1.556,2.352-2.33
			C124.359,197.619,123.695,198.629,122.845,199.566z"/>
		<path fill="#24211D" d="M155.329,258.591c11.646-1.927,21.702,3.562,32.214,6.873c0.961,0.307,1.967,0.854,1.533,2.007
			c-0.443,1.178-1.594,0.771-2.492,0.481c-2.087-0.671-4.223-1.244-6.218-2.128c-11.023-4.893-22.452-5.708-34.21-3.637
			c-1.004,0.175-2.359,0.728-2.674-0.868c-0.367-1.869,1.3-1.887,2.415-2.008C149.03,258.977,152.185,258.818,155.329,258.591z"/>
		<path fill="#DCCAB3" d="M60.759,247.419c0.729-1.132-0.368-1.335-0.835-1.831c-0.436-0.502-1.22-1-1.222-1.504
			c-0.006-0.854,0.882-0.894,1.545-0.659c1.963,0.691,4.475,0.548,5.233,3.176c0.756,2.603,5.156,0.6,5.15,4.115
			c-2.066,0.62-3.96,1.578-5.694,2.866c-0.594,0.135-1.161,0.077-1.693-0.226c-0.263-0.29-0.434-0.63-0.521-1.012
			c1.319-2.438-1.878-3.127-1.96-4.954"/>
		<path fill="#C6B5A1" d="M195.432,281.927c-0.077-2.486,1.288-2.993,3.342-2.314c1.134,0.376,2.192,0.976,3.283,1.476
			c0.441,0.413,0.524,0.92,0.404,1.482c-0.141,0.334-0.352,0.623-0.605,0.88c-1.005,0.771-1.25,2.213-2.459,2.815
			c-1.17,0.574-2.315,0.727-3.39-0.216C195.179,284.764,194.374,283.472,195.432,281.927z"/>
		<path fill="#DAC7B1" d="M202.016,282.885c0.015-0.598,0.026-1.196,0.04-1.795c0.41-5.562,3.771-1.612,5.845-1.812
			c0.267,0.276,0.398,0.606,0.413,0.989c-0.158,1.106-0.378,2.199-0.831,3.235c-0.196,0.334-0.44,0.625-0.723,0.891
			c-1.079,1.077-2.309,1.45-3.764,0.827C202.043,284.708,201.225,284.131,202.016,282.885z"/>
		<path fill="#D4C2AC" d="M135.976,283.665c-1.663-1.138-3.323-2.277-4.986-3.416c2.847-2.611,5.97-1.499,9.073-0.671
			c-0.596,1.035,0.899,1.859,0.293,2.898c-0.551,0.768-1.479,0.592-2.215,0.899c-0.435,0.2-0.862,0.424-1.315,0.585
			C136.486,284.02,136.201,283.927,135.976,283.665z"/>
		<path fill="#B8A895" d="M64.9,253.098c1.415-1.984,3.135-3.239,5.732-2.384c0.88,1.181,0.808,3.078,2.665,3.522
			c-0.296,0.177-0.59,0.35-0.888,0.522c-0.637,1.273-1.746,1.187-2.892,1.01c-0.74-0.094-1.475-0.231-2.181-0.494
			C66.319,254.784,65.251,254.343,64.9,253.098z"/>
		<path fill="#B2A390" d="M87.219,268.787c-0.8,0.436-1.611,0.513-2.432,0.061c-0.595-0.467-1.919-0.628-0.77-1.828
			c0.252-0.226,0.28-0.457,0.064-0.667c-0.312-0.302-0.646-0.354-0.992-0.041c-0.701-0.032-1.338-0.183-1.659-0.905
			c-0.25-0.569,0.044-0.989,0.371-1.404c0.633-0.493,1.018-1.525,2.13-1.004c0.999,2.125,5.329,0.396,4.878,4.205
			c-0.409,0.452-0.103,1.248-0.761,1.582C87.772,268.785,87.495,268.785,87.219,268.787z"/>
		<path fill="#C1B19D" d="M83.932,262.998c-0.6,0.553-1.196,1.102-1.797,1.652c-1.044-0.504-1.989-1.343-3.289-0.911
			c-0.483,0.153-0.963,0.311-1.455,0.428c-0.354,0.039-0.657-0.071-0.905-0.325c0-0.553,0-1.105,0.001-1.655
			c-0.364-0.948,0.107-1.453,0.94-1.767C80.921,259.021,82.986,259.841,83.932,262.998z"/>
		<path fill="#A49685" d="M103.698,277.024c1.118-2.067,3.959,1.216,4.849-1.562c0.158,0.697,0.252,1.428,1.019,1.775
			c0.812-0.147,1.49,0.042,1.946,0.779c0.214,0.843,0.01,1.49-0.853,1.836c-0.4,0.048-0.733-0.08-1.017-0.358
			c-1.424,0.043-2.613,0.585-3.545,1.668c-0.523-0.007-1.045-0.016-1.566-0.023C104.422,279.736,105.117,278.17,103.698,277.024z"/>
		<path fill="#C7B6A2" d="M195.432,281.927c0.281,1.386,0.565,2.772,0.846,4.161c-0.169,0.082-0.341,0.168-0.51,0.254
			c-1.685-0.256-3.424-0.156-5.064-0.753c-1.362-1.282-0.877-2.619-0.125-3.972c0.868-1.019,1.789-1.912,3.303-1.312
			C194.394,280.842,194.916,281.385,195.432,281.927z"/>
		<path fill="#CAB9A4" d="M163.203,279.448c0.756,0.556,1.271,1.789,2.543,0.915c1.307,0.74,1.163,1.783,0.617,2.917
			c-0.37,0.699-0.851,1.289-1.571,1.65c-0.762,0.304-1.521,0.289-2.29,0.026c-1.085-0.521-1.898-1.321-2.45-2.388
			c-0.039-0.188-0.073-0.376-0.109-0.566C160.98,281.09,161.602,279.639,163.203,279.448z"/>
		<path fill="#A79988" d="M60.765,247.317c2.052,1.015,4.85,1.655,2.465,4.896c-2.544-1.585-0.276,1.395-1.243,1.309
			c-0.122,0.131-0.243,0.266-0.369,0.396c-4.149,0.619-1.396-2.791-2.359-4.037C60.229,249.302,59.582,247.774,60.765,247.317z"/>
		<path fill="#C9B9A4" d="M207.846,280.208c0.018-0.311,0.035-0.617,0.053-0.93c1.906-0.779,3.594-0.607,4.91,1.141
			c0.482,0.428,0.652,0.979,0.627,1.606c-0.064,0.405-0.209,0.779-0.43,1.13c-0.571,0.647-1.266,1.018-2.156,0.929
			C209.252,283.256,207.539,282.513,207.846,280.208z"/>
		<path fill="#CDBCA6" d="M253.383,246.516c-0.318-0.288-0.64-0.58-0.96-0.867c0.202-2.621,1.567-4.278,4.108-4.958
			c0.576,0.105,0.951,0.449,1.165,0.984c0.016,0.963-0.622,1.62-1.101,2.356c-0.012,0.693-0.131,1.332-0.854,1.664
			c-0.81-0.842-0.13-1.791-0.319-2.428C254.952,244.254,255.53,246.226,253.383,246.516z"/>
		<path fill="#AC9E8C" d="M257.442,241.638c-0.304-0.316-0.606-0.63-0.911-0.946c0.975-2.749,2.521-3.668,5.01-1.556
			c-0.271,0.533-0.541,1.064-0.811,1.596c-0.475,0.585-0.845,1.3-1.707,1.424C258.419,242.22,257.889,242.067,257.442,241.638z"/>
		<path fill="#9C8F7E" d="M69.914,254.761c0.833,0.523,1.664,0.517,2.496-0.003c0.57,0.983,1.016,1.998,0.829,3.176
			c0.188,0.209,0.264,0.429,0.228,0.656c-0.035,0.234-0.082,0.354-0.136,0.355c-0.328,0.221-0.683,0.353-1.076,0.396
			c-1.43-0.019-2.793-0.192-3.667-1.539C68.076,256.374,68.699,255.438,69.914,254.761z"/>
		<path fill="#D4C2AC" d="M173.966,280.325c-0.273-0.823-0.547-1.646-0.818-2.468c2.919-1.039,5.234-0.497,6.613,2.512
			c0.215,1.099-0.53,1.184-1.305,1.235c-1.01-0.151-1.636-1.166-2.703-1.186C175.151,280.459,174.529,280.833,173.966,280.325z"/>
		<path fill="#C1B19D" d="M111.149,277.939c-0.53-0.235-1.058-0.468-1.586-0.702c2.185-3.974,3.201,1.037,4.922,0.636
			c0.27,0.267,0.543,0.532,0.812,0.799c0.49,0.528,0.513,1.117,0.228,1.749c-1.243,0.828-2.318,0.65-3.221-0.543
			C111.944,279.219,111.864,278.394,111.149,277.939z"/>
		<path fill="#B9AA97" d="M245.027,258.103c-1.285,0.104-2.428,0.504-3.261,1.55c-0.067,1.034-0.54,1.674-1.646,1.7
			c-2.404-3.221,2.42-2.9,2.428-4.941C243.203,257.223,245.185,256.104,245.027,258.103z"/>
		<path fill="#A09382" d="M212.787,281.984c0.009-0.522,0.016-1.045,0.021-1.565c0.816-0.374,1.632-0.75,2.446-1.129
			c1.293,0.844,2.587,1.684,2.506,3.503c0.015,0.563,0.029,1.127,0.046,1.693c-0.759,0.413-1.393,0.023-2.035-0.308
			C214.689,283.563,213.614,282.94,212.787,281.984z"/>
		<path fill="#C0B09C" d="M193.877,280.302c-0.863,0.579-1.73,1.161-2.595,1.743c-0.473,0.326-1.001,0.518-1.558,0.651
			c-0.566,0.044-1.096-0.068-1.572-0.385c-0.989-1.035,0.641-1.321,0.603-2.084C190.466,280.039,192.22,276.923,193.877,280.302z"/>
		<path fill="#AFA08E" d="M73.193,258.907c0.017-0.325,0.03-0.648,0.048-0.974c2.662-1.3,3.532,0.411,4.185,2.485
			c-0.313,0.589-0.627,1.179-0.94,1.764c-0.551-0.532-1.098-1.065-1.647-1.596C74.371,259.948,73.489,259.717,73.193,258.907z"/>
		<path fill="#C8B7A2" d="M178.116,281.167c0.672-0.018,1.28-0.157,1.643-0.8c1.089,0.233,2.173,0.464,3.261,0.698
			c0.76-0.186,1.088,0.243,1.266,0.887c-0.009,0.403-0.13,0.769-0.381,1.087c-1.654,0.75-3.44,0.174-5.145,0.502
			C177.243,283.104,176.29,282.513,178.116,281.167z"/>
		<path fill="#C7B6A2" d="M234.932,268.732c0.832,0.318,0.979,0.989,0.921,1.765c-0.258-0.029-0.511-0.051-0.771-0.057
			c-1.477-0.195-1.771,1.911-3.271,1.672c1.037-1.624-0.365-2.779-0.8-4.12C232.321,268.241,233.628,268.489,234.932,268.732z"/>
		<path fill="#C9B8A3" d="M217.761,282.796c-0.369-1.497-2.686-1.609-2.502-3.503c-0.039-0.178-0.055-0.358-0.047-0.536
			c0.104-0.516,0.409-0.833,0.926-0.936c0.271-0.005,0.54-0.012,0.81-0.02c0.922,0.663,0.753,1.698,0.91,2.624
			c0.74,0.844,1.94,1.467,1.438,2.921C218.782,283.162,218.272,282.978,217.761,282.796z"/>
		<path fill="#A09282" d="M140.929,280.468c0.789-0.084,1.579-0.168,2.37-0.249c0.852-0.836,1.861-1.229,3.061-1.084
			c1.029,0.59,0.538,1.622,0.723,2.462c-0.394,1.18-0.518,2.755-2.463,1.71c-0.843-1.217-2.229-0.614-3.333-0.979
			C140.578,281.819,140.271,281.232,140.929,280.468z"/>
		<path fill="#AB9D8B" d="M188.753,280.228c1.203,1.147-0.892,0.998-0.693,1.757c-0.408,0.428-0.912,0.516-1.469,0.411
			c-0.334-0.118-0.64-0.288-0.929-0.488c-0.755-0.705-1.802-0.932-2.606-1.562C184.92,278.565,186.84,279.601,188.753,280.228z"/>
		<path fill="#847A6C" d="M88.049,268.785c0.024-0.639,0.066-1.268,0.759-1.582c0.809,0.296,1.619,0.592,2.428,0.887
			C90.688,270.673,89.24,269.147,88.049,268.785z"/>
		<path fill="#CFBEA8" d="M150.821,279.442c0.021,0.267,0.035,0.534,0.042,0.801c-0.112,0.141-0.225,0.279-0.338,0.419
			c-0.32,0.163-0.665,0.245-1.024,0.261c-1.232-0.05-1.812-0.978-2.444-1.828c-0.113-0.134-0.226-0.267-0.339-0.402
			C148.856,274.731,149.238,280.369,150.821,279.442z"/>
		<path fill="#CFBEA8" d="M146.591,279.651c-1.097,0.191-2.194,0.38-3.29,0.567c-0.234-3.58,2.12-1.367,3.419-1.524l-0.004-0.002
			C146.967,279.051,146.94,279.373,146.591,279.651z"/>
		<path fill="#E1CEB6" d="M217.855,280.425c-1.026-0.625-0.868-1.656-0.908-2.624c0.283-0.255,0.567-0.51,0.852-0.766
			c0.99,0.628,0.754,1.664,0.855,2.582C218.392,279.889,218.122,280.156,217.855,280.425z"/>
		<path fill="#BCAC98" d="M216.138,277.821c-0.308,0.312-0.616,0.623-0.928,0.932c-0.805-0.053-1.614-0.101-3.029-0.192
			C213.727,277.373,214.697,276.442,216.138,277.821z"/>
		<path fill="#CEBCA7" d="M159.067,280.309c0.072,0.675,0.196,1.328,0.875,1.697l-0.011-0.025c0.186,0.839-0.334,1.194-0.996,1.453
			c-1.123,0.061-2.326,0.242-2.307-1.476l-0.028,0.044C157.36,281.344,157.543,279.854,159.067,280.309z"/>
		<path fill="#A19483" d="M140.929,280.468c0.029,0.659,0.224,1.229,0.877,1.536c0.18,1.088-0.485,1.186-1.304,1.108
			c-0.138-0.118-0.277-0.235-0.414-0.356c0.611-1.062-2.613-2.098-0.025-3.181C140.351,279.875,140.639,280.172,140.929,280.468z"/>
		<path fill="#A29483" d="M159.067,280.309c-0.822,0.561-1.646,1.127-2.465,1.69c0.303-1.089,0.606-2.179,0.912-3.266
			C158.541,278.76,159.106,279.234,159.067,280.309z"/>
		<path fill="#9E9080" d="M59.924,245.588c0.476-0.055,1.294-0.285,1.376-0.131c0.375,0.708,0.453,1.497-0.541,1.889
			C61.559,246.252,57.691,247.359,59.924,245.588z"/>
		<path fill="#958879" d="M58.264,249.798c-0.792-0.812-1.586-1.624-2.379-2.437C57.844,247.039,58.546,247.936,58.264,249.798z"/>
		<path fill="#C1B19D" d="M259.049,241.58c0.559-0.283,1.119-0.568,1.678-0.85c-0.49,1.119,1.773,3.722-1.736,3.211
			C258.495,243.141,258.364,242.352,259.049,241.58z"/>
		<path fill="#A09382" d="M253.383,246.516c0.667-1.133,1.334-2.271,2.022-3.438c0.712,0.81,0.208,1.757,0.334,2.617
			c-0.653,0.359-0.785,0.975-0.799,1.642C254.283,247.328,253.648,247.271,253.383,246.516z"/>
		<path fill="#B2A391" d="M112.836,283.613c0.921,0.003,1.902,0.178,2.468-0.846c0.587,0.288,1.648,0.537,1.678,0.875
			c0.115,1.334-1.08,0.69-1.704,0.8c-0.793,0.135-1.626,0.032-2.443,0.032C112.835,284.184,112.836,283.9,112.836,283.613z"/>
		<path fill="#B1A28F" d="M122.729,281.913c0.883,0.508,1.744,1.039,2.099,2.243c-1.623,0.174-2.295-1.703-3.766-1.271
			C121.304,282.025,122.049,282.025,122.729,281.913z"/>
		<path fill="#A79988" d="M116.055,281.165c-0.247-0.276-0.495-0.554-0.743-0.828c-0.004-0.556-0.009-1.113-0.016-1.666
			c0.949,0.003,1.632,0.377,1.628,1.411C116.922,280.579,117.401,281.665,116.055,281.165z"/>
		<path fill="#AD9E8C" d="M154.15,291.052l-0.409-0.003l-0.408,0.037c-0.272-0.288-0.543-0.573-0.819-0.859
			c-0.797-0.224-1.135-0.785-1.176-1.574c0.108-0.721,0.426-1.344,0.887-1.903c0.504-0.487,1.101-0.844,1.674-1.239
			c0.565-0.394,1.167-0.722,1.835-0.911c0.965-0.245,1.98-0.327,2.833-0.932c0.304-0.172,0.631-0.28,0.98-0.316
			c1.345,0.167,2.104,1.307,3.189,1.911c0.186,0.333,0.302,0.688,0.348,1.066c0.015,0.589-0.131,1.13-0.497,1.601
			c-0.301,0.227-0.641,0.381-1.01,0.467c-1.392-0.151-2.873,0.186-4.148-0.696C155.789,288.281,155.092,289.785,154.15,291.052z"/>
		<path fill="#D2C0AA" d="M161.581,287.763c0.264-0.011,0.528-0.027,0.791-0.057c1.439-0.497,2.928-0.797,4.427-1.065
			c1.284,0.514,1.927,1.346,1.372,2.771c-1.833,0.034-2.918,2.282-4.971,1.668c-1.058,0.413-2.283,1.32-2.438-0.849
			C161.312,289.5,160.635,288.361,161.581,287.763z"/>
		<path fill="#887C6E" d="M165.722,294.435c-0.788-0.333-1.574-0.662-2.362-0.993c0.297-0.688,0.914-0.703,1.526-0.729
			C165.862,292.949,166.928,293.144,165.722,294.435z"/>
		<path fill="#C1AE9A" d="M155.408,294.353c-0.146-0.546-0.29-1.091-0.435-1.64c0.486-0.303,0.974-0.603,1.462-0.9
			c0.146,0.484,0.332,0.965,0.426,1.462C157.107,294.582,156.071,294.228,155.408,294.353z"/>
		<path fill="#877B6D" d="M90.58,272.8c0.484,0.285,0.971,0.567,1.459,0.854c-1.034,0.914-2.109-0.063-3.158,0.07
			C89.185,272.94,89.892,272.885,90.58,272.8z"/>
		<path fill="#7D7265" d="M131.828,284.458c1.085,0.314,2.171,0.629,3.257,0.945c0.168,0.732-0.128,1.18-0.846,1.367
			c-0.247,0.064-0.499,0.116-0.755,0.153C132.371,286.476,131.795,285.672,131.828,284.458z"/>
		<path fill="#7F7467" d="M126.822,283.635c0.82,0.011,1.645,0.022,2.466,0.033c0.122,0.768-0.108,1.371-0.821,1.747
			C127.459,285.243,126.778,284.774,126.822,283.635z"/>
		<path fill="#8A7F70" d="M99.63,277.04c-0.012-0.55-0.021-1.101-0.032-1.652c0.578-0.47,1.161-0.462,1.745-0.007
			c0.261,0.841,0.52,1.687,0.781,2.529C101.292,277.621,100.461,277.331,99.63,277.04z"/>
		<path fill="#867A6D" d="M96.515,274.612c-0.12,0.463-0.243,0.923-0.365,1.387c-0.001-0.002-0.274,0.037-0.274,0.037l-0.274-0.021
			c-0.301-0.018-0.433-0.102-0.4-0.255c0.04-0.192,0.1-0.285,0.177-0.285c-0.353-0.882-1.697-1.156-1.472-2.393
			C94.773,273.591,95.645,274.103,96.515,274.612z"/>
		<path fill="#D1BFA9" d="M95.376,275.475c0.124,0.162,0.199,0.344,0.225,0.541c-0.146,0.858-0.288,1.719-1.447,1.73
			C93.581,276.461,94.542,276.005,95.376,275.475z"/>
		<path fill="#897D6F" d="M78.177,263.012c1.879-0.802,3.347-0.611,3.96,1.638c-0.239,0.249-0.473,0.505-0.708,0.757
			c-0.263,0.022-0.523,0.064-0.78,0.115c-0.262-0.021-0.521-0.043-0.779-0.069C78.876,264.933,77.678,264.562,78.177,263.012z"/>
		<path fill="#CEBCA7" d="M217.524,286.878c-0.193-0.003-0.384,0.022-0.569,0.077c-1.474-0.357-2.307,0.708-3.275,1.471
			c-2.293,0.323-3.558-0.582-3.586-2.975c0.216-0.368,0.526-0.632,0.923-0.794c0.604-0.166,1.218-0.271,1.843-0.337
			c0.42-0.041,0.842-0.033,1.265,0C215.521,284.82,217.731,284.252,217.524,286.878z"/>
		<path fill="#B1A290" d="M210.296,285.252c0.501,1.73,1.919,2.478,3.384,3.174c-0.055,0.396-0.105,0.794-0.16,1.188
			c-0.794,0.211-1.589,0.42-2.385,0.626c-1.223-0.812-2.843-1.222-3.114-3.025C208.15,284.221,208.305,284.089,210.296,285.252z"/>
		<path fill="#AFA08D" d="M183.117,292.719c-0.024-0.298-0.047-0.595-0.07-0.891c1.28-0.712,2.071-0.242,2.521,1.045
			c-0.665,0.743-0.45,1.53-0.11,2.324c-0.484-0.007-0.971-0.011-1.453-0.018C183.17,294.556,183.527,293.498,183.117,292.719z"/>
		<path fill="#CCBBA6" d="M183.117,292.719c1.001,0.567,0.68,1.608,0.886,2.463c-1.598-0.129-0.891-1.847-1.721-2.504
			C182.559,292.691,182.84,292.705,183.117,292.719z"/>
		<path fill="#A49685" d="M145.062,282.829c1.389,0.278,1.109-1.095,1.646-1.66c1.55-0.177,1.472,1.08,1.78,1.998
			c0.126,1.151,0.352,2.297,0.387,3.459c-0.715,2.607-1.854,1.33-2.966,0.314c-1.091-0.702-2.183-0.837-3.28-0.012
			c-0.825,0.309-1.048-0.188-1.141-0.856c0.278-1.142,0.733-2.231,1.264-3.265C143.469,281.414,144.302,281.709,145.062,282.829z"/>
		<path fill="#AEA08E" d="M141.64,290.231c-0.426-0.125-1.45,0.401-0.875-0.805c0.832-0.312,0.252-2.146,1.81-1.676
			c0.353,1.464,2.621,1.541,2.462,3.379C143.797,291.23,142.709,290.761,141.64,290.231z"/>
		<path fill="#D1C0AA" d="M145.91,286.943c0.875-0.784,1.613,1.874,2.527,0.099c0.836-0.516,1.123,0.222,1.541,0.668
			c0.177,0.28,0.293,0.585,0.369,0.909c0.002,0.34-0.121,0.632-0.363,0.868c-0.523,0.239-1.046,0.474-1.567,0.713
			C147.616,289.089,145.664,288.86,145.91,286.943z"/>
		<path fill="#7B7164" d="M142.574,287.751c-0.602,0.556-1.205,1.114-1.809,1.676c0.056-0.247,0.06-0.496,0.017-0.744
			c-0.742-1.292-1.027-2.529,0.456-3.533c0.567,0.019,0.773,0.302,0.619,0.845c0.259,0.312,0.516,0.624,0.775,0.938
			C142.61,287.206,142.591,287.476,142.574,287.751z"/>
		<path fill="#D3C1AB" d="M73.193,258.907c1.096,0.024,1.617,0.612,1.645,1.682c-2.188-0.541-0.538,2.734-2.457,2.46
			c-0.291-0.522-0.582-1.047-0.871-1.573c-1.127-1.965,0.471-2.104,1.681-2.506L73.193,258.907z"/>
		<path fill="#B4A492" d="M171.496,292.723c1.366-1.641,2.698,0.686,4.058,0.035c0.199,0.184,0.265,0.363,0.192,0.541
			c-0.07,0.172-0.138,0.264-0.208,0.264c-1.978,0.164-1.275,1.283-0.82,2.307C173.06,295.415,170.873,295.503,171.496,292.723z"/>
		<path fill="#D2C0AA" d="M169.021,289.419c0.87,0.226,2.292-0.108,1.67,1.637c-0.556,0.004-1.108,0.008-1.665,0.012
			C168.089,290.521,168.941,289.967,169.021,289.419z"/>
		<path fill="#B9A996" d="M203.723,292.808c-0.28,0.51-0.562,1.023-0.844,1.534c-0.557,0.504-1.152-0.013-1.728,0.064
			c-0.536-0.023-1.069-0.052-1.604-0.075c-0.36-0.354-0.849-0.484-1.266-0.748c-0.521-0.485-0.824-1.079-0.884-1.791
			c0.005-0.354,0.069-0.698,0.182-1.032c0.354-0.831,0.796-1.593,1.51-2.169c0.309-0.198,0.644-0.267,1.004-0.226
			c1.155,0.566,1.367,1.947,2.322,2.696c0.232,0.253,0.407,0.543,0.533,0.864C203.206,292.218,203.464,292.511,203.723,292.808z"/>
		<path fill="#CFBDA8" d="M202.947,291.925c-0.294-0.014-0.588-0.028-0.885-0.04c-0.702-0.873-0.354-1.579,0.352-2.231
			c0.938-0.623,1.892-1.09,2.956-0.257c0.98,0.809-0.292,1.641,0.019,2.455C204.565,291.56,203.737,291.063,202.947,291.925z"/>
		<path fill="#B4A593" d="M208.663,292.67c-1.777-3.459,1.333-1.971,2.494-2.454c0.031,0.509,0.068,1.015,0.102,1.522
			c-1.083,0.12-1.729,0.662-1.758,1.808C209.219,293.256,208.941,292.964,208.663,292.67z"/>
		<path fill="#B1A28F" d="M192.912,294.39c-1.073,0.373-2.15,1.527-3.203-0.035c-0.045-0.726,0.095-1.409,0.454-2.049
			c0.507-0.761,0.945-1.634,2.119-1.367c0.63,0.492,0.978,1.149,1.174,1.909C193.525,293.449,193.416,293.985,192.912,294.39z"/>
		<path fill="#B8A996" d="M190.49,292.793c-0.008,0.648-0.154,1.226-0.781,1.565c-0.289,0-0.578,0.002-0.87,0.002
			c-0.236-0.251-0.477-0.502-0.714-0.75c0.531-1.224-1.448-1.48-1.017-2.672c0.313-0.267,0.658-0.455,1.055-0.562
			C189.755,290.405,191.307,290.467,190.49,292.793z"/>
		<path fill="#83786A" d="M192.912,294.39c0.031-0.548,0.063-1.093,0.096-1.642c0.639-0.274,1.008,0.089,1.337,0.557
			c0.4,0.841,0.681,1.7,0.19,2.607c-0.507-0.025-1.018-0.052-1.528-0.077C192.976,295.352,192.943,294.871,192.912,294.39z"/>
		<path fill="#9E9080" d="M109.644,279.497c0.225,0.019,0.446,0.025,0.672,0.023c0.6,0.381,1.319,0.7,0.866,1.636
			c-1.231-0.054-1.618,0.679-1.64,1.752C107.073,281.7,109.03,280.616,109.644,279.497z"/>
		<path fill="#AD9E8C" d="M111.18,281.159c-0.288-0.547-0.576-1.087-0.865-1.637c0.651-0.331,0.842-0.902,0.833-1.585
			c0.675-0.062,1.275,0.062,1.671,0.685c-1.21,0.855-0.655,2.182-0.878,3.302C111.688,281.668,111.434,281.411,111.18,281.159z"/>
		<path fill="#D1C0AA" d="M149.982,289.487c0.011-0.29,0.017-0.584,0.024-0.877c0.576-0.47,1.163-0.476,1.764-0.046
			c0.247,0.556,0.496,1.107,0.744,1.661c-0.094,1.518-0.946,2.485-2.256,3.119C150.168,292.06,150.075,290.773,149.982,289.487z"/>
		<path fill="#A29484" d="M134.237,286.771c0.283-0.458,0.565-0.914,0.848-1.369c0.297-0.579,0.593-1.157,0.891-1.736
			c0.242,0.014,0.482,0.047,0.721,0.102c0.86,0.229,1.532,0.777,2.211,1.319c0.406,0.38,0.709,0.822,0.854,1.363
			c0.216,1.277-0.788,2.012-1.314,2.962l0.026,0.03c-1.559,0.3-2.421-0.707-3.269-1.738
			C134.881,287.391,134.561,287.081,134.237,286.771z"/>
		<path fill="#AFA08E" d="M138.443,289.411c0.283-1.087,0.567-2.168,0.85-3.252c-0.497-1.018,0.084-1.574,0.873-2.042
			c0.88-0.064,1.794-0.17,1.564,1.201c-1.322,0.841-0.521,2.275-0.949,3.362C140.002,288.924,139.225,289.167,138.443,289.411z"/>
		<path fill="#A59786" d="M194.536,295.912c-0.216-0.814-0.43-1.635-0.648-2.451c0.775-2.002,1.861-3.196,4.045-1.564
			c0.255,0.495,0.507,0.993,0.762,1.488c-0.119,0.96-2.347,0.081-1.583,1.811C196.254,295.437,195.399,295.674,194.536,295.912z"/>
		<path fill="#A79988" d="M64.9,253.098c0.912,0.49,1.989,0.736,2.557,1.732c1.114,1.133,0.5,2.751,1.137,4.021
			c-0.002,0.421-0.135,0.792-0.418,1.105c-2.188-2.012-4.37-4.025-6.558-6.037l-0.024,0.033c0.473-0.418,0.682-1.392,1.645-0.768
			C63.792,253.156,64.344,253.126,64.9,253.098z"/>
		<path fill="#BEAF9B" d="M68.177,259.957c0.001-0.303,0.002-0.6,0.005-0.897c-0.349-1.074,0.132-1.297,1.073-1.05
			c1.313,0.32,2.624,0.641,3.937,0.961c-0.626,0.793-1.834,1.193-1.681,2.507c-0.82,0.236-1.641,0.47-2.463,0.709
			C68.757,261.442,68.466,260.697,68.177,259.957z"/>
		<path fill="#A79987" d="M249.995,247.357c1.519,0.248,3.606-0.257,3.281,2.45c-0.52,0.489-1.048,0.489-1.59,0.032
			C251.098,249.03,249.695,248.772,249.995,247.357z"/>
		<path fill="#84796C" d="M251.687,249.841c0.53-0.011,1.059-0.02,1.589-0.031c0.033,0.538,0.069,1.075,0.104,1.613
			c-0.249,0.221-0.497,0.444-0.744,0.664C252.098,251.431,251.471,250.814,251.687,249.841z"/>
		<path fill="#897E6F" d="M217.524,286.878c-0.938-1.356-2.418-1.445-3.845-1.652c-0.062-1.857,1.186-1.719,2.428-1.591
			c0.568,0.283,1.134,0.566,1.699,0.85C218.851,285.417,218.884,286.227,217.524,286.878z"/>
		<path fill="#232323" d="M110.812,43.184c-1.054-0.859-2.955,1.884-3.249-0.632c-0.127-1.102,1.436-2.061,2.897-2.397
			c2.102-0.489,2.356,0.77,2.354,2.264c-0.002,2.048-0.169,4.098-0.146,6.141c0.013,0.845-0.453,1.935,0.88,2.412
			c0.792,0.283,2.589-0.635,2.127,1.294c-0.29,1.211-1.739,1.077-2.799,1.292c-1.679,0.341-3.279-0.12-4.835-0.554
			c-0.773-0.216-1.352-1.689-0.328-1.709c4.281-0.08,2.288-3.474,3.039-5.343C111.085,45.136,110.812,44.078,110.812,43.184z"/>
		<path fill="#191919" d="M139.297,52.678c-1.966,2.601-4.558,1.376-6.452,0.429c-3.013-1.502-4.075-4.42-3.358-7.819l-0.057,0.056
			c2.287-0.362,1.793-2.742,2.843-4.037c0.897-1.113,1.774-1.901,2.961-1.271c1.658,0.884,0.132,1.834-0.384,2.556
			c-0.773,1.086-1.178,2.099-0.471,3.334c0.582,0.971-0.478,1.598-0.501,2.441c-0.155,3.198,2.068,2.871,4.123,2.785
			C138.772,51.374,139.618,51.536,139.297,52.678z"/>
		<path fill="#191919" d="M164.908,52.678c-2.198,2.51-4.705,1.374-6.796,0.152c-2.43-1.423-3.956-3.68-2.583-6.738
			c0.77-1.709,1.709-3.343,2.552-5.022c0.598-1.185,1.708-1.596,2.721-1.065c1.703,0.891,0.2,1.843-0.324,2.568
			c-0.782,1.088-1.201,2.107-0.486,3.356c0.58,0.971-0.478,1.598-0.5,2.44c-0.155,3.198,2.066,2.87,4.123,2.786
			C164.384,51.374,165.229,51.536,164.908,52.678z"/>
		<path fill="#1D1D1E" d="M182.844,42.813c-1.06-0.424-2.316,2.019-3.026,0.055c-0.427-1.17,1.005-2.133,2.147-2.558
			c1.375-0.511,2.538,0.055,2.72,1.535c0.233,1.878,0.186,3.794,0.192,5.692c0.004,1.702-0.694,3.542,2.298,3.643
			c1.631,0.057,0.883,1.362-0.02,1.802c-2.22,1.083-4.529,0.71-6.782-0.002c-0.305-0.097-0.62-0.503-0.71-0.825
			c-0.169-0.605,0.169-1.186,0.789-1.114c3.868,0.442,1.794-2.79,2.648-4.194C183.59,45.468,183.979,44.091,182.844,42.813z"/>
		<path fill="#232424" d="M147.317,45.471c1.25-0.086,2.206-0.172,3.162-0.217c1.406-0.064,2.645,0.579,2.564,1.957
			c-0.074,1.245-1.45,0.728-2.361,0.785c-1.904,0.122-3.798,0.485-5.699,0.521c-0.897,0.018-2.562,0.667-2.459-1.149
			c0.074-1.353,1.126-2.081,2.632-1.915C145.966,45.543,146.793,45.471,147.317,45.471z"/>
		<path fill="#202121" d="M174.737,44.226c0.418-2.478-0.91-1.995-2.53-1.701c-1.373,0.249-2.519,2.498-4.153,0.625
			c-0.469-0.542-1.247-1.036-0.476-2.009c1.351-1.706,3.129-1.161,4.832-1.103c0.133,0.005,0.267,0.043,0.397,0.067
			c4.465-0.365,4.527-0.28,3.645,5.094c-0.249,0.29-0.498,0.575-0.75,0.864C174.154,46.094,174.315,45.226,174.737,44.226z"/>
		<path fill="#202121" d="M127.694,45.169c-0.246,0.299-0.49,0.596-0.736,0.891c-1.551,0.031-1.387-0.834-0.965-1.837
			c0.418-2.478-0.911-1.995-2.532-1.7c-1.369,0.247-2.519,2.497-4.153,0.623c-0.471-0.541-1.247-1.036-0.476-2.009
			c1.351-1.705,3.128-1.162,4.835-1.103c0.133,0.005,0.264,0.041,0.396,0.065C128.7,39.714,129.276,40.517,127.694,45.169z"/>
		<path fill="#2A2B2B" d="M125.991,44.226c0.092,0.734,0.182,1.469,0.966,1.837c-1.289,2.523-2.579,5.049-4.11,8.047
			C120.807,49.543,124.057,47.079,125.991,44.226z"/>
		<path fill="#2A2B2B" d="M174.737,44.226c0.093,0.734,0.181,1.469,0.965,1.837c-1.287,2.523-2.578,5.049-4.11,8.047
			C169.552,49.543,172.803,47.079,174.737,44.226z"/>
		<path fill="#484849" d="M158.426,47.874c0.522-0.649,1.044-1.299,1.565-1.943c2.075-0.196,4.002,0.271,5.797,1.319
			c0.216,0.646,0.37,1.299,0.169,1.98C163.2,50.154,160.868,48.71,158.426,47.874z"/>
		<path fill="#484849" d="M132.812,47.874c0.522-0.649,1.044-1.299,1.566-1.943c2.077-0.196,4.005,0.271,5.797,1.319
			c0.217,0.648,0.37,1.299,0.169,1.98C137.587,50.15,135.254,48.71,132.812,47.874z"/>
		<path fill="#3B3B3B" d="M165.762,49.199c0.009-0.651,0.018-1.299,0.023-1.948c0.848,1.993,1.601,3.973-0.877,5.428
			c-0.323-0.771-1.049-0.775-1.715-0.896C162.706,49.59,164.963,50.113,165.762,49.199z"/>
		<path fill="#3B3B3B" d="M140.148,49.199c0.01-0.651,0.018-1.299,0.025-1.948c0.854,1.996,1.597,3.973-0.879,5.428
			c-0.323-0.771-1.048-0.775-1.712-0.896C137.095,49.59,139.351,50.113,140.148,49.199z"/>
		<path fill="#373738" d="M176.451,45.199c0.229-2.728,0.459-5.454-3.642-5.094c1.382-0.738,3.38-1.29,4.094-0.123
			C177.785,41.418,178.143,43.601,176.451,45.199z"/>
		<path fill="#373738" d="M127.694,45.169c0.272-2.747,0.431-5.416-3.633-5.066c1.322-0.97,2.843-0.475,4.279-0.591
			c0.847,1.852,1.02,3.691-0.093,5.509C128.068,45.086,127.883,45.137,127.694,45.169z"/>
		<path fill="#363737" d="M182.844,42.813c1.791,1.236,1.253,2.621,0.257,4.035C183.014,45.504,182.927,44.157,182.844,42.813z"/>
		<path fill="#D1BFAA" d="M63.238,253.186c-0.548,0.257-1.098,0.509-1.643,0.767c-0.234-1.392-0.468-2.789-0.8-4.771
			c1.048,1.307,1.741,2.173,2.436,3.034C63.231,252.541,63.236,252.863,63.238,253.186z"/>
		<path fill="#A69887" d="M101.343,275.381c-0.58,0.001-1.165,0.005-1.746,0.009c-0.67-0.035-1.334-0.074-1.678-0.795
			c0.074-0.674,0.151-1.344,0.869-1.685C98.509,274.896,101.197,273.828,101.343,275.381z"/>
		<path fill="#B9AA96" d="M196.277,286.085c1.237,0.177,2.324-0.285,3.402-0.797c0.608,0.48,1.378,0.024,2.021,0.338
			c0.336,0.169,0.594,0.415,0.768,0.753c0.153,0.569,0.078,1.099-0.279,1.58c-0.732,0.787-1.834,0.051-2.613,0.633l0.025-0.017
			c-1.171,0.911-2.194,0.355-3.21-0.314c-0.287-0.28-0.475-0.612-0.562-1.003c-0.005-0.406,0.131-0.758,0.406-1.056L196.277,286.085
			z"/>
		<path fill="#887D6E" d="M202.082,286.169c-0.279-0.018-0.559-0.036-0.839-0.056c-0.673-1.106-0.721-2.21,0.029-3.3
			c0.249-0.004,0.501,0.021,0.741,0.071c0.007,1.093,0.622,1.606,1.657,1.708c0.498,0.516,0.566,1.073,0.15,1.672
			C203.222,286.609,202.642,286.607,202.082,286.169z"/>
		<path fill="#9B8E7E" d="M210.296,285.252c-3.044-0.806-1.101,1.657-1.635,2.489l0.029,0.064c-0.669,0.463-1.29,0.439-1.849-0.189
			c-0.121-0.327-0.164-0.666-0.126-1.009c0.184-0.98,0.166-1.982,0.283-2.972c-0.033-1.219-0.334-2.504,0.845-3.428
			c1.082,1.146,2.163,2.297,3.243,3.443c0.572,0.552,0.543,1.093-0.022,1.625C210.809,285.259,210.551,285.252,210.296,285.252z"/>
		<path fill="#9C8F7E" d="M203.718,286.215c-0.016-0.54-0.03-1.083-0.047-1.622c1.255,0.801,1.805-0.276,2.507-0.946
			c0.756,0.957,1.674,1.871,0.871,3.246l-0.04,0.057C205.781,287.294,204.458,288.052,203.718,286.215z"/>
		<path fill="#C8B7A2" d="M207.049,286.893c-0.292-1.082-0.579-2.162-0.871-3.247c0.273-0.019,0.549-0.022,0.821-0.011
			C208.341,284.703,208.115,285.791,207.049,286.893z"/>
		<path fill="#D4C2AC" d="M171.448,286.126c-0.49,0.009-0.982,0.018-1.475,0.023c-0.697-0.542-1.625-0.826-1.997-1.748
			c-0.023-0.591,0.276-1.003,0.729-1.333c1.42-0.428,2.107-1.606,2.826-2.751c1.194-0.922,1.653,0.292,2.352,0.808
			c0.728,0.528,0.781,1.262,0.615,2.056c-0.406,1.085-1.597,1.43-2.208,2.322C172.059,285.773,171.775,285.98,171.448,286.126z"/>
		<path fill="#A69887" d="M171.534,280.317c0.524,2.158-0.876,2.854-2.554,3.328c-0.95-0.771-2.435,0.346-3.253-0.905
			c0.649-0.787,0.374-1.581,0.019-2.377C167.675,280.093,169.618,281.645,171.534,280.317z"/>
		<path fill="#BBAB98" d="M173.918,283.655c-0.012-0.841-0.021-1.685-0.029-2.53c0.049-0.265,0.077-0.53,0.077-0.8
			c0.528-0.255,1.06-0.508,1.586-0.762c1.764,1.168,1.131,2.725,0.7,4.254c-0.308,0.552-0.744,0.922-1.387,1.008
			C174.206,284.715,173.768,284.422,173.918,283.655z"/>
		<path fill="#887C6E" d="M140.181,284.403c-0.297,0.583-0.592,1.17-0.888,1.758c-0.303-0.318-0.604-0.638-0.907-0.957
			c-0.612-0.658-1.117-1.359-0.923-2.336c0.826-1.193,1.738-0.314,2.623-0.109l0.042,0.062
			C140.586,283.333,140.598,283.861,140.181,284.403z"/>
		<path fill="#96897A" d="M196.234,286.202c-0.008,0.194,0.007,0.392,0.036,0.581c-1.857,2.708-3.58,1.87-5.255-0.197
			c-0.102-0.461,0.005-0.87,0.317-1.225C193.163,284.5,194.744,285.092,196.234,286.202z"/>
		<path fill="#9D9080" d="M191.333,285.362c-0.008,0.255-0.012,0.508-0.016,0.764c-0.679,0.53-1.328,0.448-1.955-0.094
			c-0.883-1.425-0.733-2.769,0.329-4.031c0.53,0.017,1.061,0.028,1.59,0.046C190.841,283.159,189.853,284.279,191.333,285.362z"/>
		<path fill="#B7A895" d="M162.372,285.17c-0.007-0.237,0.005-0.473,0.033-0.707c0.844-0.021,1.687-0.041,2.532-0.06
			c0.519,0.282,0.631,0.581,0.044,0.915c-0.643,0.994-1.376,1.668-2.587,0.781C162.388,285.791,162.381,285.479,162.372,285.17z"/>
		<path fill="#9C8F7F" d="M216.107,283.635c-0.806,0.531-1.62,1.062-2.428,1.591c-0.264,0.011-0.526,0.024-0.787,0.048
			c-0.829-0.693-0.638-1.501-0.266-2.331c0.052-0.319,0.107-0.639,0.16-0.958C214.101,282.119,215.267,282.557,216.107,283.635z"/>
		<path fill="#C9B8A3" d="M155.896,285.121c-0.58,0.308-1.16,0.611-1.74,0.918c-1.234-0.154-2.232-0.669-2.801-1.842
			c-0.142-1.423,0.1-2.736,1.119-3.825c2.078-1.448,2.675,0.139,3.323,1.619c0.448,0.699,0.466,1.495,0.508,2.286
			C156.255,284.6,156.118,284.881,155.896,285.121z"/>
		<path fill="#C0B09C" d="M152.473,280.374c0.121,1.432-0.027,2.811-0.806,4.066c0.215,0.188,0.299,0.392,0.254,0.604
			c-0.048,0.218-0.102,0.326-0.166,0.328c-1.194,0.315-1.606-0.659-2.21-1.325c-0.338-0.463-0.594-0.96-0.628-1.549
			c0.179-1.074,1.195-1.387,1.847-2.034l0.097-0.22C151.401,280.289,151.935,280.333,152.473,280.374z"/>
		<path fill="#8C8172" d="M155.798,284.443c-0.555-0.816-0.641-1.634,0-2.452c0.277-0.012,0.556-0.024,0.831-0.034
			c0.433,1.045,1.449,0.688,2.22,0.922c0.083,0.245,0.153,0.494,0.209,0.748l0.043-0.03
			C158.121,284.346,157.21,285.364,155.798,284.443z"/>
		<path fill="#B8A995" d="M189.693,282.001c-0.004,1.363-0.006,2.729-0.01,4.097c-0.296,0.215-0.617,0.268-0.964,0.132
			c-0.25-0.234-0.452-0.512-0.605-0.818c-0.329-0.776-0.813-1.448-1.426-2.033c-0.339-0.407-0.589-0.835-0.304-1.373
			c0.558-0.007,1.116-0.014,1.673-0.021C188.604,281.99,189.146,281.993,189.693,282.001z"/>
		<path fill="#B1A390" d="M178.934,283.644c0.016-0.277,0.028-0.555,0.045-0.834c1.615-0.748,3.244,0.118,4.864-0.045
			c0.27,0.204,0.433,0.474,0.504,0.803c0.031,0.685-0.217,1.288-0.553,1.862c-0.184,0.276-0.429,0.494-0.719,0.651
			c-0.817,0.055-1.634,0.111-2.452,0.169c-1.021-0.305-1.464-1.089-1.696-2.047C178.927,284.018,178.932,283.832,178.934,283.644z"
			/>
		<path fill="#A29584" d="M183.889,283.751c-0.017-0.327-0.03-0.654-0.048-0.984c0.018-0.27,0.033-0.54,0.046-0.809
			c0.823-0.284,1.644-0.564,2.469-0.845c0.008,0.296,0.02,0.598,0.031,0.895c0.317,0.286,0.635,0.572,0.951,0.86
			c0.176,0.571-0.125,0.945-0.527,1.281c-0.569,0.381-1.179,0.646-1.883,0.608C184.393,284.615,184.177,284.146,183.889,283.751z"/>
		<path fill="#D0BFA9" d="M140.181,284.403c-0.02-0.531-0.034-1.056-0.051-1.583c0.704,0.025,1.311-0.146,1.672-0.816
			c1.289-0.518,2.78-1.847,3.259,0.829c-0.737-0.225-1.566-0.69-1.594,0.708c-0.021,1.145-0.42,2.064-1.613,2.457
			c-0.062-0.225-0.104-0.446-0.123-0.676C141.472,284.582,140.846,284.463,140.181,284.403z"/>
		<path fill="#8A7F70" d="M149.078,282.677c-1.72-1.625,1.104-1.363,0.971-2.328c0.249-0.023,0.486,0.016,0.715,0.117
			C150.956,281.773,149.675,281.964,149.078,282.677z"/>
		<path fill="#BEAE9B" d="M162.395,286.1c0.859-0.261,1.722-0.522,2.584-0.781c0.285,0.729,0.91,0.782,1.56,0.79
			c0,0.28-0.001,0.554-0.001,0.828c-1.184,1.375-2.516,1.919-4.165,0.772C162.379,287.168,162.388,286.634,162.395,286.1z"/>
		<path fill="#B8A996" d="M151.665,285.273c0.002-0.277,0.004-0.555,0.004-0.835c1.138,0.059,2.013,0.522,2.487,1.601
			c-0.34,0.721-0.984,0.869-1.695,0.896c-0.48,0.485-1.017,0.483-1.587,0.185C150.37,286.177,150.916,285.683,151.665,285.273z"/>
		<path fill="#BCAC99" d="M150.848,286.941c0.54,0,1.076-0.002,1.615-0.002c0.011,0.647-0.074,1.251-0.692,1.626
			c-0.588,0.016-1.175,0.029-1.763,0.046l0.021-0.061C149.599,287.655,150.102,287.238,150.848,286.941z"/>
		<path fill="#A59786" d="M175.606,283.715c1.109-0.023,2.218-0.047,3.327-0.071l-0.017,0.015c1.023,2.49-1.057,3.033-2.499,3.975
			c-0.644,0.205-1.37,0.279-1.917,0.636c-2.879,1.875-3.071,0.037-3.054-2.143c0.016-0.294,0.025-0.591,0.04-0.885
			c0.911-0.97,2.249-0.166,3.248-0.78C175.027,284.209,175.315,283.962,175.606,283.715z"/>
		<path fill="#BBAC98" d="M176.418,287.63c0.496-1.537,2.311-2.244,2.5-3.975c0.568,0.863,1.135,1.729,1.703,2.595
			C179.646,288.01,178.037,287.83,176.418,287.63z"/>
		<path fill="#AD9E8C" d="M183.073,286.082c-0.003-0.263-0.009-0.526-0.014-0.791c2.861-0.039,3.512,1.043,1.702,3.362
			c-0.625,0.768-1.227,0.628-1.812-0.044C182.99,287.768,183.031,286.926,183.073,286.082z"/>
		<path fill="#96897A" d="M166.726,285.945c-0.101-1.05,0.586-1.445,1.431-1.705c0.996,0.267,1.733,0.779,1.817,1.908
			C168.833,286.995,167.795,286.232,166.726,285.945z"/>
		<path fill="#CBBAA5" d="M178.109,291.898c-0.828,0.271-1.655,0.542-2.483,0.811C175.958,290.932,176.751,290.547,178.109,291.898z
			"/>
		<path fill="#B1A290" d="M150.848,286.941c-0.273,0.537-0.55,1.071-0.821,1.609c-0.53-0.505-1.062-1.003-1.589-1.508
			c-0.573-1.024-1.054-2.078-0.949-3.294c0.866-0.015,1.734-0.03,2.601-0.045c0.528,0.524,1.052,1.05,1.574,1.569
			C151.394,285.832,151.122,286.387,150.848,286.941z"/>
		<path fill="#C6B6A1" d="M203.718,286.215c1.026,0.561,2.389-0.376,3.291,0.735c0.354,0.694,1.01,0.793,1.682,0.855
			c-0.901,1.149-2.176,0.64-3.312,0.745c-0.838-0.01-1.677,0.112-2.498-0.164c-0.324-0.124-0.583-0.334-0.793-0.605
			c-0.004-0.535-0.004-1.076-0.006-1.612C202.629,286.184,203.174,286.199,203.718,286.215z"/>
		<path fill="#CABAA4" d="M197.934,291.898c-1.845-0.761-2.641,1.187-4.044,1.563c-0.293-0.236-0.586-0.474-0.88-0.712
			c-0.685-0.35-0.852-0.968-0.883-1.663c1.233-1.626,2.99-1.254,4.663-1.222c0.591,0.17,0.963,0.557,1.104,1.161
			C197.907,291.317,197.918,291.608,197.934,291.898z"/>
		<path fill="#D3C2AC" d="M202.936,287.825c-0.021,0.809-0.043,1.619-0.066,2.428c-0.65,0.356-0.775,0.969-0.804,1.632
			c-1.805-0.366-1.242-2.511-2.488-3.293c0.592-1.017,1.602-0.767,2.511-0.812C202.369,287.795,202.653,287.811,202.936,287.825z"/>
		<path fill="#C6B5A1" d="M187.244,287.873c-0.292,0.502-0.581,1.004-0.877,1.507c-0.535-0.241-1.071-0.485-1.607-0.727
			c0.561-1.688,0.147-2.886-1.699-3.362c0.274-0.511,0.551-1.029,0.828-1.542c0.269,0.256,0.538,0.511,0.808,0.766
			C186.608,284.834,187.471,285.941,187.244,287.873z"/>
		<path fill="#AE9F8D" d="M187.244,287.873c-0.846-1.12-1.699-2.239-2.544-3.357c0.589-0.275,1.177-0.557,1.767-0.837
			c0.948,0.28,1.867,0.604,2.37,1.558c0.002,0.292,0.003,0.579,0.005,0.87c-0.017,0.541-0.027,1.077-0.043,1.621
			c-0.181,0.357-0.422,0.383-0.706,0.122C187.809,287.855,187.525,287.864,187.244,287.873z"/>
		<path fill="#D2C0AA" d="M188.835,285.236c-0.789-0.518-1.582-1.039-2.369-1.558c0.293-0.271,0.58-0.542,0.869-0.813
			C188.345,283.335,188.872,284.108,188.835,285.236z"/>
	</g>
</g>
</svg>
