<?xml version="1.0" encoding="utf-8"?>
<!-- Generator: Adobe Illustrator 16.0.0, SVG Export Plug-In . SVG Version: 6.00 Build 0)  -->
<!DOCTYPE svg PUBLIC "-//W3C//DTD SVG 1.1//EN" "http://www.w3.org/Graphics/SVG/1.1/DTD/svg11.dtd">
<svg version="1.1" id="Layer_1" xmlns="http://www.w3.org/2000/svg" xmlns:xlink="http://www.w3.org/1999/xlink" x="0px" y="0px"
	 width="39px" height="39px" viewBox="0 0 39 39" enable-background="new 0 0 39 39" xml:space="preserve">
<g id="Your_Icon" opacity="0.1">
	<path fill="#FFFFFF" d="M19.501,0C8.73,0,0,8.731,0,19.5C0,30.27,8.73,39,19.5,39S39,30.27,39,19.5C39,8.731,30.27,0,19.501,0z
		 M6.771,20.805C6.5,20.439,6.338,19.99,6.337,19.5c0.001-0.489,0.162-0.938,0.433-1.302c0.011-0.017,0.023-0.034,0.036-0.049
		c0.015-0.02,0.031-0.042,0.049-0.06c0.038-0.047,0.079-0.093,0.126-0.14l9.746-9.746c0.855-0.856,2.245-0.856,3.101,0
		c0.857,0.857,0.857,2.247,0,3.103l-5.999,6.001h16.641c1.211,0,2.194,0.982,2.194,2.193c0,1.211-0.983,2.194-2.194,2.194H13.828
		l6,6.001c0.856,0.856,0.856,2.245,0,3.103c-0.857,0.857-2.247,0.857-3.104,0l-9.742-9.744c-0.002-0.001-0.004-0.004-0.004-0.005
		c-0.045-0.043-0.086-0.089-0.122-0.133c-0.021-0.024-0.04-0.05-0.059-0.075C6.789,20.828,6.779,20.816,6.771,20.805z"/>
</g>
</svg>
