<?xml version="1.0" encoding="utf-8"?>
<!-- Generator: Adobe Illustrator 16.0.0, SVG Export Plug-In . SVG Version: 6.00 Build 0)  -->
<!DOCTYPE svg PUBLIC "-//W3C//DTD SVG 1.1//EN" "http://www.w3.org/Graphics/SVG/1.1/DTD/svg11.dtd">
<svg version="1.1" id="Layer_1" xmlns="http://www.w3.org/2000/svg" xmlns:xlink="http://www.w3.org/1999/xlink" x="0px" y="0px"
	 width="39px" height="39px" viewBox="0 0 39 39" enable-background="new 0 0 39 39" xml:space="preserve">
<g id="Your_Icon">
	<path fill="#FFFFFF" d="M0,19.5C0,30.27,8.731,39,19.5,39C30.27,39,39,30.27,39,19.5C39,8.731,30.27,0,19.499,0
		C8.73,0,0,8.731,0,19.5z M32.202,20.84c-0.019,0.025-0.037,0.051-0.059,0.075c-0.036,0.044-0.077,0.09-0.122,0.133
		c0,0.001-0.002,0.004-0.004,0.005l-9.742,9.744c-0.857,0.857-2.247,0.857-3.104,0c-0.856-0.857-0.856-2.246,0-3.103l6-6.001H8.531
		c-1.211,0-2.194-0.982-2.194-2.194c0-1.21,0.983-2.193,2.194-2.193h16.641l-5.999-6.001c-0.857-0.856-0.857-2.246,0-3.103
		c0.855-0.856,2.245-0.856,3.101,0l9.746,9.746c0.047,0.047,0.088,0.092,0.126,0.14c0.018,0.019,0.034,0.04,0.049,0.06
		c0.013,0.015,0.025,0.033,0.036,0.049c0.271,0.365,0.432,0.813,0.433,1.302c-0.001,0.49-0.163,0.94-0.434,1.305
		C32.221,20.816,32.211,20.828,32.202,20.84z"/>
</g>
</svg>
