<?xml version="1.0" encoding="utf-8"?>
<!-- Generator: Adobe Illustrator 16.0.0, SVG Export Plug-In . SVG Version: 6.00 Build 0)  -->
<!DOCTYPE svg PUBLIC "-//W3C//DTD SVG 1.1//EN" "http://www.w3.org/Graphics/SVG/1.1/DTD/svg11.dtd">
<svg version="1.1" id="Layer_1" xmlns="http://www.w3.org/2000/svg" xmlns:xlink="http://www.w3.org/1999/xlink" x="0px" y="0px"
	 width="365px" height="344px" viewBox="0 0 365 344" enable-background="new 0 0 365 344" xml:space="preserve">
<g>
	<g>
		<path fill="#1B2124" d="M85.898,19.236c6.37-6.381,14.037-10.486,22.955-11.525c13.78-1.606,27.622-2.658,41.433-3.982
			c2.778-0.268,5.542-0.705,8.311-1.062c4.372-0.878,8.829-1.35,13.246-1.471c9.824-0.271,19.685-0.49,29.49,0.039
			c8.596,0.462,17.218,1.046,25.756,2.347l-0.09-0.049c2.951,0.706,6.408,0.078,8.461,3.174c0.843,0.515,1.681,1.033,2.522,1.549
			c1.334,0.48,2.741,0.894,2.384,2.805c-1.708,1.011-2.994-0.128-4.231-0.961c-1.514-1.026-3.113-1.292-4.867-1.048
			c-17.036-2.365-34.116-3.623-51.328-3.348c-12.367,0.197-24.556,2.117-36.818,3.259c-9.162,0.853-18.341,1.556-27.508,2.274
			c-8.189,0.639-15.562,3.04-22.295,7.617c-1.413,0.959-2.769,2.073-4.615,2.091C87.479,20.839,86.524,20.312,85.898,19.236z"/>
		<path fill="#1D1D1D" d="M295.333,291.819c-0.219,0.262-0.437,0.525-0.654,0.789c-1.069,2.027-2.313,3.861-4.728,4.471
			c-0.749-0.211-1.175-0.703-1.295-1.468c0.458-2.774,2.984-4.252,4.147-6.595c6.785-7.704,11.604-16.501,15.047-26.154
			c4.078-11.426,9.163-22.482,11.994-34.366c2.314-9.708,3.753-19.492,4.753-29.417c1.204-11.974,0.535-23.938,0.836-35.907
			c0.065-2.646-0.109-5.435,3.02-6.727c2.228-0.696,4.344,0.049,6.427,0.627c6.266,1.746,12.66,1.738,19.058,1.422
			c5.999-0.298,8.08-3.952,6.068-9.646c-0.805-2.289-3.72-4.104-1.89-7.103c5.089,2.996,7.459,11.291,4.594,15.992
			c-1.207,1.987-2.998,3.426-5.229,3.424c-5.863-0.006-11.754,0.63-17.603-0.333c-3.399-0.555-6.797-1.113-10.435-1.709
			c0,9.532,0,19.022,0,28.508c-0.939,2.223,0.128,4.646-0.706,6.875c-0.08,1.729-0.161,3.459-0.239,5.188
			c-0.768,1.631,0.02,3.479-0.716,5.119c-0.076,1.409-0.149,2.82-0.225,4.231c-0.786,1.634,0.066,3.511-0.761,5.139
			c-2.723,10.407-4.532,21.113-8.7,31.062c-5.653,13.505-9.14,27.99-17.827,40.162c-0.608,0.845-1.219,1.688-1.83,2.527
			C297.747,289.506,296.707,290.793,295.333,291.819z"/>
		<path fill="#1C1C1C" d="M3.537,221.834c-1.897-4.573-3.579-9.2-3.858-14.208c-0.788-1.622,0.051-3.479-0.735-5.103
			c0.001-8.144,0.001-16.287,0.002-24.429c0.767-1.626-0.021-3.466,0.7-5.099c0.533-9.217,3.547-17.887,5.897-26.698
			c0.436-1.794,0.931-3.563,1.86-5.181c3.458-6.852,7.515-13.292,13.043-18.708c1.858-0.958,2.901-3.031,5.011-3.648
			c0.836-0.683,1.676-1.367,2.516-2.048c1.983-1.246,3.724-2.902,6.059-3.55c4.593-3.399,10.104-4.229,15.474-5.386
			c1.357-0.295,2.662-0.533,3.822-1.307c2.925-0.88,3.104,0.857,2.885,2.988c-1.211,1.132-2.813,1.354-4.317,1.656
			c-24.215,4.867-37.979,19.965-44.669,43.252c-4.717,16.425-4.315,32.956-4.216,49.617c0.007,1.432,0.53,2.752,0.729,4.131
			c0.848,5.764,2.695,11.186,5.351,16.372c0.97,1.893,2.386,3.759,1.522,6.14c-1.503,1.426-2.079-0.068-2.691-0.952
			c-1.114-1.615-1.64-3.564-2.797-5.167C4.165,223.873,4.248,222.617,3.537,221.834z"/>
		<path fill="#1A1A1A" d="M258.193,329.429c-1.002,1.113-2.008,2.225-3.01,3.334c-1.482,2.489-4.044,3.255-6.561,4.094
			c-4.212,1.762-8.6,3.214-12.549,5.443c-1.5,0.846-2.828,0.812-4.244,1.143c-1.549,1.047-3.461-0.033-5.038,0.846
			c-2.392,0.067-4.792,0.134-7.185,0.196c-2.812,0.574-5.622,0.562-8.432,0.007c-3.346-0.063-6.688-0.132-10.035-0.192
			c-1.896-0.902-4.027,0.105-5.935-0.722c-1.48-0.069-2.964-0.139-4.444-0.205c-2.516-1.057-5.261,0.248-7.78-0.762
			c-4.95-0.676-9.906-1.352-14.857-2.024c-1.479-1.023-3.398,0.235-4.852-0.927l0.046,0.013c-1.754-1.195-4.01,0.395-5.723-1.037
			c-8.609-1.955-17.294-3.654-25.805-5.976c-4.94-1.349-10.112-1.958-14.804-4.188c-0.848-1.348-3.767,0.812-3.664-2.149
			c1.643-2.233,3.821-1.648,5.976-1.106c14.401,3.638,28.736,7.552,43.316,10.494c21.742,4.391,43.688,5.854,65.781,4.423
			c7.753-0.497,14.639-4.254,21.391-7.917C252.786,331.896,254.656,328.144,258.193,329.429z"/>
		<path fill="#171C20" d="M232.667,8.408c1.04-1.808,1.915-0.431,2.951,0.07c1.616,0.782,2.756,2.527,4.819,2.399
			c2.447,0.259,3.375,2.184,4.395,3.999l-0.068-0.087c1.361,1.562,3.106,2.824,3.873,4.861c0.858,1.19,1.721,2.381,2.581,3.572
			c1.652,1.27,2.216,3.199,3.03,4.977c1.367,3.559,2.303,7.36,4.183,10.626c6.051,10.515,9.243,22.228,14.395,33.104
			c1.481,1.148,1.15,3.185,2.247,4.521l0.021,0.029c0.288,0.492,0.248,0.958-0.113,1.396c-2.118,2.191-4.816,2.864-7.722,2.675
			c-22.076-1.449-41.357,6.619-59.863,17.376c-2.431,1.414-4.738,3.068-7.354,4.129c-1.335,0.541-2.786,1.768-4.207,0.067
			c-0.211-1.303,0.62-2.034,1.566-2.619c20.646-12.732,41.944-23.553,67.135-23.301c5,0.049,5.046-0.254,3.301-5.079
			c-4.613-12.755-10.229-25.076-16.041-37.316c-4.119-8.692-9.558-16.378-17.148-22.433C233.668,10.601,232.61,9.87,232.667,8.408z"
			/>
		<path fill="#212121" d="M5.172,223.649c2.739,1.743,2.576,5.401,4.915,7.413c4.624,5.854,9.03,11.87,13.57,17.789
			c7.205,9.411,14.185,19.146,22.757,27.233c15.026,14.175,29.572,29.181,48.938,37.891c4.557,2.048,8.525,5.185,13.072,7.308
			c1.777,0.828,3.684,1.945,3.221,4.535c-0.658,0.447-1.301,0.325-1.934-0.059c-9.005-4.312-17.717-9.171-26.362-14.153
			c-1.845-1.252-3.798-2.339-5.584-3.685c-0.953-0.645-1.903-1.29-2.86-1.935c-1.197-1.021-2.627-1.774-3.562-3.095l0.093,0.079
			c-2.925-1.034-4.273-4.021-6.839-5.501c-1.296-1.219-2.591-2.439-3.886-3.658c-1.956-1.472-3.515-3.39-5.513-4.811
			c-1.268-1.21-2.541-2.416-3.811-3.623c-3.095-2.479-5.856-5.285-8.388-8.328c-0.614-0.657-1.228-1.315-1.841-1.972
			c-1.308-2.104-3.426-3.531-4.736-5.634c-0.284-0.303-0.568-0.611-0.854-0.918c-0.952-1.228-1.907-2.454-2.905-3.649
			c-1.867-2.218-3.738-4.438-5.607-6.658c-1.055-1.757-2.8-2.972-3.788-4.78c-6.288-8.772-13.929-16.66-17.725-27.053
			C4.687,225.572,4.858,224.62,5.172,223.649z"/>
		<path fill="#171D20" d="M56.15,109.266c-0.687-1.183-0.979-2.766-2.821-2.795c0.344-0.539,0.686-1.079,1.027-1.62
			c0.886-1.542-0.075-3.366,0.743-4.92c1.125-9.69,5-18.529,9.276-27.076c4.52-9.03,6.575-18.749,9.475-28.242
			c1.729-4.249,2.53-8.771,3.887-13.131c-0.086-0.716-0.16-1.429,0.531-1.935c1.615-1.581,1.976-3.843,3.098-5.691L81.3,23.939
			c1.239-1.405,2.751-2.559,3.831-4.115c0.254-0.194,0.516-0.39,0.771-0.586c0.867,0.13,1.738,0.246,2.197,1.149
			c-4.953,6.176-8.28,13.187-9.636,20.917c-1.056,6.004-2.547,11.862-4.163,17.715c-1.414,5.125-3.201,10.119-5.637,14.834
			c-3.968,7.684-6.012,16.017-8.588,24.173c-0.377,1.187-0.557,2.428-0.688,3.67c-0.525,4.965-0.206,5.137,4.793,5.472
			c2.438,0.164,5.711-1.477,7.034,2.308c-0.822,0.749-1.838,0.951-2.894,1.028c-2.88,0.104-5.763-0.011-8.646,0.087
			C58.315,110.64,56.891,110.866,56.15,109.266z"/>
		<path fill="#080505" d="M258.193,329.429c-2.524,1.235-5.049,2.473-7.576,3.704c-0.947-0.893-1.004-1.986-0.714-3.156
			c0.845-2.303,3.083-3.547,4.264-5.59c0.104-0.179,0.224-0.354,0.327-0.528c0.104-0.179,0.223-0.348,0.326-0.524
			c0.844-1.463,2.126-2.434,3.609-3.181c0.861-0.496,1.646-1.108,2.462-1.674c1.211-0.731,2.278-1.642,3.271-2.642
			c0.452-0.438,0.942-0.822,1.458-1.175c1.782-1.116,3.512-2.335,5.501-3.089c5.242-2.979,8.252-7.887,11.205-12.836
			c0.146-0.388,0.334-0.762,0.535-1.123c0.534-0.868,1.25-1.586,1.964-2.307c0.692-0.689,1.399-1.375,2.085-2.079
			c0.993-0.976,1.945-1.994,3.14-2.744c0.915-0.453,1.813-1.034,2.883-0.42c-0.104,2.652-2.959,3.462-3.799,5.618
			c-1.294,3.779-4.164,6.494-6.497,9.573c-3.477,4.582-7.671,8.539-11.333,12.962C266.275,321.187,262.795,325.959,258.193,329.429z
			"/>
		<path fill="#292929" d="M271.307,318.218c3.236-7.47,10.297-11.983,14.565-18.678c0.876-1.366,1.495-3.156,3.265-3.858
			c0.395,0.348,0.793,0.693,1.192,1.04c0.245,0.723,0.289,1.371-0.633,1.655c-3.329,3.053-5.592,6.918-8.075,10.611
			c-2.5,2.85-5.178,5.519-7.94,8.109C272.892,317.473,272.1,317.846,271.307,318.218z"/>
		<path fill="#1B2124" d="M77.736,31.482c-0.491,4.613-1.188,9.166-3.888,13.129C74.439,40.028,75.752,35.656,77.736,31.482z"/>
		<path fill="#1B2124" d="M81.365,23.853c-0.252,2.322-0.853,4.452-3.1,5.693C79.002,27.489,79.496,25.297,81.365,23.853z"/>
		<path fill="#1B2124" d="M85.128,19.821c-0.467,2.12-1.898,3.35-3.83,4.117C81.934,21.974,83.466,20.837,85.128,19.821z"/>
		<path fill="#81B8D8" d="M71.442,109.159c-3.634-1.332-7.436-0.461-11.146-0.836c-1.839-0.186-2.977-0.129-2.605-2.904
			c1.485-11.069,4.757-21.583,9.586-31.561c4.872-10.068,7.455-20.741,9.886-31.539c1.827-8.136,3.351-16.579,10.936-21.932
			c4.447-2.194,8.156-5.58,12.858-7.441c8.492-3.362,17.473-3.515,26.296-4.025c9.53-0.55,19.039-1.471,28.449-2.678
			c22.982-2.946,45.845-1.849,68.74,0.422c2.77,0.274,5.482,1.146,8.226,1.743c10.665,7.549,17.211,18.016,22.517,29.767
			c5.127,11.37,10.009,22.812,14.467,34.444c0.543,1.411,1.542,2.732,1.118,4.894c-28.139-2.093-51.874,9.638-74.634,24.299
			c-1.303,3.174-4.639,3.817-7.08,5.55c-1.618,1.151-3.307,2.206-4.869,3.448c-5.813,4.008-10.77,8.967-15.626,14.049
			c-2.58,4.295-7.028,4.246-11.118,4.363c-8.373,0.236-16.752,0.191-25.125,0.014c-0.518-0.023-1.038-0.109-1.543-0.226
			c-1.65-0.616-3.376-0.726-5.121-0.699c-3.445-0.137-6.645-1.099-9.617-2.824c-1.35-1.232-2.931-1.942-4.778-2.037
			c-2.721-0.474-5.191-1.683-7.751-2.631c-3.354-1.375-7.026-1.929-10.153-3.891c-1.31-1.222-2.865-1.835-4.663-1.845
			c-1.149-0.112-2.215-0.447-3.149-1.137c-2.596-2.105-5.748-2.45-8.904-2.783C74.904,110.487,72.779,110.83,71.442,109.159z"/>
		<path d="M183.816,109.943c3.504-3.609,8.301-5.29,12.318-8.129c4.541,0.127,7.458-3.285,10.999-5.211
			c11.932-6.496,23.887-12.904,37.355-15.632c4.689-0.95,9.519-1.354,14.306-1.62c5.5-0.307,11.123,0.664,16.341-1.954
			c13.101,1.228,24.405,7.114,35.259,13.901c5.402,3.375,10.326,7.512,15.463,11.303c1.13,1.105,2.374,2.063,3.696,2.924
			c9.056,7.354,15.897,16.614,22.359,26.148c2.191,3.239,5.185,6.107,5.886,10.231c0.865,3.004,3.303,5.196,4.056,8.328
			c1.292,5.327-1.444,9.268-6.969,9.566c-8.917,0.493-17.661-0.62-26.304-2.733c-1.466,0.77-2.861,0.729-4.427,0.065
			c-9.719-4.114-20.155-6.208-29.843-10.422c-0.803,0.255-3.644-1.468-1.736,1.433c14.209,21.626,12.441,45.009,6.085,68.09
			c-3.167,11.499-10.887,21.613-20.936,28.712c-8.06,5.688-17.911,7.314-27.656,7.894c-6.528,0.389-13.111,0.582-19.671-0.432
			c-6.228-0.965-10.138-5.983-15.535-8.386c-2.699-1.203-5.3-2.772-7.646-4.563c-8.342-6.365-17.944-6.649-27.761-6.036
			c-2.736,0.171-5.146,1.361-7.34,2.894c-5.38,3.759-11.004,7.307-15.832,11.682c-5.283,4.786-11.368,6.6-18.009,6.729
			c-13.709,0.263-27.51,1.431-40.624-4.646c-4.778-2.216-10.394-2.084-15.67-2.712c-3.428-0.409-6.811-1.013-10.104-2.05
			c-12.78-4.027-17.678-10.877-19.034-24.175c-2.003-19.613-0.689-38.944,3.776-58.055c1.753-7.485,5.012-14.475,10.449-20.145
			c4.984-5.201,11.122-7.706,18.436-7.873c15.984-0.365,31.833,1.007,47.734,2.491c16.569,1.546,33.101-0.431,49.506-3.062
			c19.808-3.172,39.702-4.902,59.786-3.668c1.414,0.085,2.771,0.405,3.008,0.435c1.771,0.264,0.804-0.728,1.015-0.141
			c0.054,0.147-0.1,0.246-0.411,0.152c-3.648-1.071-7.51,0.277-11.125-0.989c-1.125-0.385,0.328-1.773-0.86-2.148
			c-10.152-0.123-20.244-1.167-30.365-0.675c-8.856,0.432-17.705,1.022-26.567,1.251c-0.757,0.199-1.521,0.246-2.295,0.146
			c-2.03-0.678-4.007-1.549-6.133-1.97c-1.241-0.678-1.727-1.549-0.715-2.799C173.405,119.468,178.478,114.558,183.816,109.943z"/>
		<path fill="#1A0605" d="M294.794,145.786c9.937,3.91,20.526,5.983,30.206,10.58c1.223,0.578,2.359,0.617,3.582,0.696
			c-1.637,1.271-1.945,2.957-1.895,4.948c0.115,4.832-0.058,9.668,0.052,14.502c0.639,29.289-4.964,57.276-16.608,84.229
			c-3.574,8.279-6.944,16.521-12.098,23.968c-1.439,2.085-2.979,3.966-5.099,5.357c-0.918,0.331-1.838,0.657-2.76,0.99
			c-0.149-0.161-0.302-0.324-0.451-0.481c-0.441-2.787,2.056-3.982,3.269-5.848c1.604-2.458,3.621-4.646,4.92-7.316
			c0.938-1.629,1.382-3.486,2.413-5.066c3.017-3.962,3.803-8.866,5.628-13.318c4.263-10.395,8.451-20.799,11.248-31.736
			c3.728-14.607,5.327-29.416,5.371-44.44c0.021-6.709-0.135-13.42,0.057-20.123c0.103-3.71-1.195-5.632-4.919-6.658
			c-7.824-2.158-15.606-4.539-22.959-8.085C294.238,147.24,294.225,146.508,294.794,145.786z"/>
		<path fill="#150505" d="M113.144,326.768c-0.701,0.021-1.366-0.037-1.688-0.804c-0.679-2.069-2.275-3.09-4.133-4.093
			c-8.468-4.564-16.911-9.173-25.243-13.976c-9.512-5.485-16.996-13.511-25.285-20.522c-17.595-14.881-30.732-33.591-44.506-51.746
			c-1.046-1.38-1.979-2.798-2.201-4.56c0.208-2.821-1.59-4.907-2.703-7.23c-2.333-4.864-4.04-9.907-4.777-15.262
			c2.672-0.276,2.823,1.974,3.444,3.579c1.801,4.641,3.163,9.423,5.158,14.018c5.257,12.086,14.673,21.204,22.29,31.593
			c4.413,6.02,9.204,11.841,14.468,17.102c10.011,10.015,20.367,19.709,32.038,27.842c1.007,0.343,2.087,0.385,3.092,0.729
			c1.176,0.486,2.158,1.293,3.238,1.935c0.53,0.334,1.038,0.695,1.549,1.062c2.229,1.505,4.43,3.057,7.019,3.924
			c0.599,0.185,1.178,0.413,1.734,0.694c1.06,0.63,2.06,1.356,3.173,1.899c2.102,1.339,4.373,2.363,6.555,3.55
			c2.48,1.562,5.104,2.816,7.886,3.744c0.776,0.305,1.53,0.667,2.278,1.032c1.445,0.812,2.972,1.371,4.642,1.488
			c1.275,0.181,2.454,0.654,3.622,1.152c0.98,0.404,2,0.649,3.029,0.874c1.432,0.423,2.9,0.693,4.345,1.059
			c1.222,0.389,2.488,0.617,3.724,0.939c1.028,0.317,2.079,0.498,3.158,0.541c0.887,0.05,1.762,0.171,2.618,0.406
			c2.744,0.896,5.447,1.938,8.301,2.477c0.438,0.078,0.868,0.191,1.297,0.313c1.68,0.64,3.489,0.438,5.219,0.75
			c1.092,0.211,2.105,0.652,3.132,1.055c1.197,0.519,2.493,0.633,3.761,0.858c1.476,0.353,2.958,0.67,4.478,0.758
			c0.659,0.058,1.305,0.188,1.946,0.355c1.261,0.424,2.574,0.491,3.885,0.604c0.669,0.06,1.324,0.182,1.971,0.342
			c2.8,0.691,5.696,0.522,8.53,0.885c1.768,0.038,3.475,0.621,5.254,0.542c0.684-0.006,1.356,0.03,2.035,0.092
			c0.458,0.029,0.909,0.102,1.357,0.193c1.754,0.592,3.57,0.639,5.394,0.592c1.365-0.017,2.729-0.002,4.093,0.005
			c2.82-0.286,5.661,0.994,8.469-0.114c0.432-0.119,0.872-0.16,1.315-0.145c2.341,0.501,4.692,0.84,7.092,0.346
			c1.814-0.114,3.63-0.071,5.438-0.094c0.44-0.024,0.882-0.017,1.323,0c1.474,0.043,2.956,0.157,4.391-0.329
			c0.769-0.271,1.49-0.638,2.185-1.066c1.4-1.06,3.099-0.651,4.646-0.962c1.169-0.315,2.075-1.107,3.103-1.686
			c0.371-0.194,0.755-0.352,1.152-0.491c3.127-0.818,5.584-3.166,8.769-3.852c0.187,0.116,0.37,0.234,0.556,0.35
			c-0.044,1.211-0.085,2.415-0.127,3.626c-12.383,8.222-26.264,8.698-40.56,8.759c-10.988,0.049-21.817-1.116-32.604-2.386
			c-11.516-1.356-22.941-3.786-34.177-6.906c-8.522-2.365-17.126-4.442-25.677-6.7C115.916,325.455,114.543,326.027,113.144,326.768
			z"/>
		<path fill="#180505" d="M80.526,303.593c-4.56-0.505-7.219-4.173-10.245-6.775c-12.712-10.941-25.401-21.937-35.367-35.663
			c-5.103-7.021-10.98-13.478-16.326-20.326c-6.31-8.088-10.164-17.409-13.217-27.112c-0.576-1.835-0.543-4.129-2.765-5.141
			c-1.706-5.326-0.562-10.816-0.969-16.214C0.5,177.27,3.15,162.635,7.622,148.385c4.072-12.978,12.06-23.137,23.727-30.707
			c7.719-5.011,15.829-7.682,24.802-8.408c4.062,0.054,8.122,0.108,12.183,0.163c2.852,0.472,5.766,0.529,8.581,1.267
			c2.058-0.048,4.017,0.277,5.743,1.504c-0.286,1.722-1.707,1.781-2.992,2.049c-2.979,0.277-5.842-0.309-8.666-1.174
			c-5.337-1.122-10.69-0.787-16.044-0.202c-7.021,1.602-13.83,3.488-20.146,7.347c-12.729,7.773-20.071,19.002-24.49,33.006
			c-5.292,16.773-5.49,33.891-4.365,50.994c0.769,11.655,5.766,22.469,12.729,31.828c12.401,16.661,25.19,33.066,40.466,47.31
			c6.17,5.122,11.647,11.022,18.028,15.908c0.701,0.474,1.37,0.986,1.972,1.589C79.861,301.646,80.453,302.487,80.526,303.593z"/>
		<path fill="#171617" d="M76.828,111.151c-2.974,0.116-5.735-0.81-8.496-1.72c1.036-0.093,2.073-0.186,3.11-0.272
			c1.905-0.308,3.662,0.245,5.396,0.931c0.296,0.239,0.392,0.477,0.292,0.711C77.027,111.033,76.928,111.151,76.828,111.151z"/>
		<path fill="#545454" d="M329.552,105.522c-1.851-0.198-3.07-1.186-3.694-2.924C327.616,102.914,328.824,103.921,329.552,105.522z"
			/>
		<path fill="#C8B7A2" d="M261.131,319.265c-0.695,0.508-1.393,1.012-2.091,1.517c-2.433-0.463-3.145,1.18-3.712,3.005l0.039,0.064
			c-2.053,1.444-2.624-1.771-4.35-1.359c-1.254-0.11-1.9-0.782-1.905-2.053c0.088-0.877,0.446-1.665,0.795-2.457
			c0.809-1.415,1.11-3.624,3.659-2.394c1.227,0.85,2.44,1.159,3.626-0.086c0.264-0.281,0.539-0.548,0.808-0.819
			c0.704-0.684,0.991-1.609,1.427-2.448c0.682-1.211,2.171-0.565,3.055-1.337c1.094-0.307,2.14-0.269,3.125,0.352
			c0.519,0.518,0.653,1.142,0.54,1.84c-0.141,0.422-0.37,0.791-0.676,1.113c-1.026,1.018-2.318,1.78-3.045,3.096
			C262.081,318.01,261.475,318.55,261.131,319.265z"/>
		<path fill="#B9AA96" d="M287.363,293.782c-0.597,0.804-1.092,1.737-2.274,1.81c-2.959,0.592-4.228-1.716-5.869-3.391
			c-3.335-3.159,0.468-4.14,1.8-5.884c0.339-0.29,0.718-0.502,1.14-0.641c3.503-0.208,3.771,2.203,3.883,4.75
			c0.026,1.075,0.763,1.85,1.179,2.761C287.273,293.387,287.318,293.586,287.363,293.782z"/>
		<path fill="#A69685" d="M283.475,297.538c-0.021,0.218-0.06,0.433-0.11,0.646c-1.56,2.345-2.475,5.211-5.335,6.495
			c-1.201,0.063-2.203-0.375-3.038-1.219c-0.481-0.907-0.093-1.687,0.328-2.473c0.987-1.34,1.819-2.762,2.181-4.412
			c0.307-0.612,0.76-1.083,1.354-1.423c0.425-0.188,0.867-0.301,1.327-0.363C282.028,294.814,283.415,295.389,283.475,297.538z"/>
		<path fill="#1F100F" d="M278.184,304.185c1.727-1.999,3.453-4,5.181-6c-2.596,6.051-5.913,11.487-12.33,14.259
			c-0.07-0.41-0.037-0.813,0.116-1.203c0.566-1.1,1.487-1.906,2.314-2.792c0.854-0.827,1.482-1.827,2.143-2.807
			C276.237,304.754,277.2,304.452,278.184,304.185z"/>
		<path fill="#B09E8C" d="M271.295,311.617c-0.082,0.277-0.168,0.55-0.262,0.826c-1.763,1.129-3.528,2.261-5.294,3.387
			c-0.82-0.594-1.508-1.246-0.976-2.387c0.32-0.021,0.641-0.037,0.959-0.054c0.919-0.997,0.662-2.389,1.209-3.512
			c0.302-0.576,0.74-1.024,1.309-1.336c0.408-0.123,0.816-0.127,1.224,0c0.866,0.621,1.374,1.504,1.751,2.47
			C271.242,311.212,271.266,311.411,271.295,311.617z"/>
		<path fill="#DCC9B2" d="M283.475,297.538c-0.957-1.174-2.02-2.138-3.701-1.955c-0.957-0.925-1.051-1.99-0.514-3.161
			c0.159-0.163,0.321-0.324,0.488-0.487c1.779,1.218,3.559,2.437,5.341,3.655C284.879,296.512,284.469,297.262,283.475,297.538z"/>
		<path fill="#948576" d="M251.53,321.802c0.253-1.35,0.881-2.265,1.673-0.448c0.507,1.16,0.582,2.382,2.167,2.497
			c-0.03,0.229-0.067,0.455-0.107,0.683c-0.889,0.838-1.754,1.763-3.181,1.203C250.727,324.586,250.441,323.285,251.53,321.802z"/>
		<path fill="#150505" d="M252.277,325.06c0.995-0.177,1.987-0.353,2.985-0.529c-0.904,2.206-2.832,3.482-4.52,4.979l-0.104-0.09
			c-0.542-0.437-0.757-1.016-0.761-1.69c0.039-0.429,0.165-0.836,0.355-1.221C250.729,325.765,251.493,325.396,252.277,325.06z"/>
		<path fill="#85796B" d="M264.764,313.44c0.325,0.795,0.649,1.593,0.974,2.39c-0.276,0.191-0.555,0.385-0.833,0.574
			c-1.058,0.183-1.826,1.49-3.108,0.784C261.124,314.634,264.321,315.121,264.764,313.44z"/>
		<path fill="#B7A492" d="M255.329,323.786c-0.043-2.574,0.027-5.006,3.713-3.005C257.803,321.785,256.566,322.786,255.329,323.786z
			"/>
		<path fill="#736056" d="M261.796,317.191c1.037-0.264,2.071-0.523,3.108-0.787c-1.042,1.24-1.954,2.644-3.776,2.86
			C261.131,318.503,260.687,317.602,261.796,317.191z"/>
		<path fill="#1F100F" d="M290.179,291.055c-0.726,1.126-1.556,2.146-2.815,2.728c0,0.003-0.239,0.06-0.239,0.06l-0.249-0.015
			c-0.291-1.211-0.092-2.266,0.972-3.046c0.648-0.345,1.296-0.386,1.947-0.002C289.932,290.859,290.061,290.951,290.179,291.055z"/>
		<path fill="#242728" d="M230.841,72.763c-0.313,2.423-2.256,1.768-3.651,1.768c-39.271,0.038-78.538,0-117.808,0.085
			c-3.505,0.008-4.697-1.284-4.656-4.664c0.118-9.824,0.126-19.653-0.007-29.481c-0.041-3.208,1.04-4.344,4.345-4.333
			c39.27,0.089,78.538,0.076,117.81,0.024c2.807-0.002,4.422,0.604,4.363,3.848c-0.19,10.286-0.206,20.576-0.288,30.863
			c-1.185,0.827-2.35,2.138-3.654,0.147c-1.497-7.408-0.502-14.9-0.674-22.353c-0.188-8.135-0.054-8.15-8.403-8.151
			c-33.297-0.004-66.591-0.002-99.888,0c-1.252,0-2.505,0.077-3.75,0.013c-3.766-0.19-5.31,1.526-5.302,5.293
			c0.019,8.41,0.19,16.824-0.027,25.22c0.617,2.606,2.708,1.26,4.031,1.264c23.115,0.089,46.236-0.016,69.352,0.093
			C198.706,72.474,214.781,71.916,230.841,72.763z"/>
		<path fill="#121A1F" d="M230.841,72.763c-1.69,1.053-3.579,0.917-5.454,0.917c-37.979-0.006-75.953,0.004-113.929-0.027
			c-1.843-0.002-4.049,0.681-5.455-1.93c1.214,0,2.077,0,2.939,0c1.805-1.645,4.069-1.404,6.223-1.408
			c35.455-0.038,70.91-0.036,106.365,0c2.152,0.001,4.418-0.244,6.247,1.354c1.056-0.264,2.113-0.532,3.17-0.797
			C230.916,71.504,230.881,72.134,230.841,72.763z"/>
		<path fill="#1C1C1D" d="M104.055,119.637c2.499,0.887,4.998,1.768,7.499,2.65c1.357,1.031,3.144,1.086,4.554,1.995
			c3.06,1.298,6.148,2.485,9.527,2.663c1.493,1.368,3.492,0.067,5.076,0.957c0.201-0.186,0.39-0.178,0.57,0.026
			c6.276,1.268,12.623,0.263,18.928,0.56c2.635,0.123,5.279-0.072,7.917,0.09c0.578,0.321,0.759,0.795,0.536,1.42
			c-2.619,1.962-5.665,0.966-8.533,1.175c-2.919,0.212-5.876-0.288-8.769,0.445c-1.289,0.301-2.586,0.34-3.89,0.111
			c-2.283-0.779-4.699-0.545-7.045-0.854c-0.458-0.065-0.909-0.174-1.353-0.299c-1.533-0.547-3.133-0.415-4.722-0.436
			c-2.595-0.139-5.111-0.569-7.397-1.902c-1.372-1.204-2.964-1.895-4.81-1.985c-3.33-1.011-6.914-1.485-9.395-4.328
			C102.475,120.762,103.157,120.141,104.055,119.637z"/>
		<path fill="#1F2325" d="M158.582,128.983c-7.497-0.003-14.994,0.032-22.492-0.036c-1.635-0.016-3.489,0.624-4.809-1.017
			c9.144,0.682,18.283-0.073,27.424-0.148c4.163-0.032,7.543-1.274,10.149-4.517c0.3,0.211,0.405,0.434,0.317,0.661
			c-0.086,0.231-0.177,0.352-0.273,0.352c-0.961,0.611-0.991,1.238-0.028,1.88C166.785,129.504,163.215,130.486,158.582,128.983z"/>
		<path fill="#171617" d="M104.055,119.637c-0.344,0.709-0.682,1.415-1.023,2.121c-1.957,0.812-3.495-0.256-5.083-1.113
			c-1.591-1.191-3.416-1.697-5.38-1.802c-1.115-0.116-2.168-0.408-3.078-1.091c-1.36-1.231-2.983-1.727-4.794-1.72
			c-2.055-0.457-4.415-0.331-5.396-2.816c1.032-0.318,2.292,0.063,3.077-1.006c1.447-0.648,2.487,0.503,3.711,0.837
			c0.767,0.978,1.964,0.616,2.943,0.929c1.456,0.837,3.16,1.056,4.621,1.876C97.119,117.112,100.588,118.377,104.055,119.637z"/>
		<path fill="#0E0E0E" d="M168.898,124.277c-0.018-0.34-0.028-0.678-0.048-1.013c4.646-4.824,9.14-9.818,14.966-13.321
			C179.643,115.549,173.789,119.411,168.898,124.277z"/>
		<path fill="#1E2427" d="M86.088,113.05c-1.237-0.279-2.473-0.562-3.711-0.839c-1.851-0.353-3.699-0.707-5.548-1.06
			c0.001-0.354,0.005-0.708,0.009-1.06C80.227,110.127,83.407,110.811,86.088,113.05z"/>
		<path fill="#1F2325" d="M116.105,124.282c-1.815,0.019-3.43-0.433-4.552-1.995C113.359,122.297,114.931,122.84,116.105,124.282z"
			/>
		<path fill="#1E2427" d="M93.654,115.854c-1.818,0.054-3.427-0.408-4.621-1.878C90.832,113.972,92.484,114.32,93.654,115.854z"/>
		<path fill="#1F2325" d="M130.711,127.901c-1.74-0.062-3.658,0.824-5.076-0.957C127.442,126.651,129.141,126.938,130.711,127.901z"
			/>
		<path fill="#FEFEFE" d="M259.059,163.474c1.056,1.081,2.35,1.274,3.769,1.019c4.692,0.371,5.333,4.186,6.492,7.571
			c0.176,0.468,0.304,0.949,0.411,1.434c5.979,15.693,5.786,31.194-1.856,46.289c-2.629,5.202-6.464,9.486-12.048,11.849
			c-1.178,0.423-2.391,0.495-3.616,0.319c-1.383-0.284-2.752-0.102-4.124,0.155c-2.338,0.241-4.681,0.223-7.02,0.094
			c-2.373-0.133-5.146-0.398-6.43-2.31c-2.686-4.004-6.99-6.174-10.025-9.703c-5.344-7.541-4.523-15.734-2.899-24.184
			c1.473-7.668,5.33-13.832,10.689-19.247c1.216-1.228,2.149-2.664,3.125-4.066c4.149-6.101,10.001-9.412,17.253-10.402
			C254.989,162.062,257.152,162.098,259.059,163.474z"/>
		<path fill="#1F0404" d="M294.794,145.786c-0.012,0.619-0.024,1.244-0.033,1.866c6.139,4.592,7.82,11.644,9.304,18.39
			c3.759,17.059,4.418,34.663-2.245,50.774c-11.118,26.909-23.657,37.854-52.032,38.88c-8.986,0.326-18.191,1.382-26.924-2.269
			c-1.438-0.602-3.047-0.878-4.176-2.041c-5.326-5.499-12.039-9.2-18.801-12.164c-9.555-4.191-19.648-5.449-28.866,1.746
			c-4.436,3.457-9.029,6.696-13.258,10.438c-6.634,5.871-15.125,6.56-23.38,7.06c-12.07,0.736-24.077,0.487-35.488-4.631
			c-3.976-1.782-8.449-2.263-12.821-2.718c-4.831-0.504-9.633-1.246-14.327-2.494c-13.979-3.722-20.209-10.962-21.648-25.348
			c-1.841-18.402-1.562-36.747,1.956-54.971c1.304-6.793,3.491-13.264,6.709-19.402c6.007-11.464,15.615-17.085,28.42-17.505
			c11.751-0.388,23.413,0.574,35.11,1.831c19.041,2.048,38.111,1.524,57.066-1.465c9.104-1.435,18.189-3.01,27.441-3.179
			c6.916-0.352,13.804-1.606,20.756-0.562c1.645,0.014,3.291-0.022,4.938,0.043c0.84,0.049,1.624,0.22,2.178,0.937
			c4.797,1.885,10.162,0.139,15.479,2.765c-5.799,0-11.035,0.082-16.273-0.016c-20.005-0.368-39.679,2.519-59.416,5.323
			c-14.928,2.121-30.002,3.304-45.178,1.362c-14.86-1.902-29.832-2.503-44.831-2.002c-9.289,0.31-15.83,5.016-20.541,12.644
			c-5.538,8.955-7.098,19.042-8.814,29.215c-1.858,10.994-1.85,21.987-1.705,33.019c0.059,4.484,0.473,9.001,1.167,13.433
			c2.169,13.816,9.86,17.46,21.28,20.223c6.31,1.53,12.875,1.989,19.324,2.955c0.919,0.135,1.885,0.271,2.709,0.656
			c15.156,7.074,31.068,5.46,46.921,3.926c3.484-0.339,6.383-2.21,9.36-4.543c6.827-5.354,13.141-12.181,21.418-14.751
			c9.075-2.816,18.826-2.629,27.666,2.354c5.976,3.37,12.604,6.034,17.673,10.459c9.704,8.482,20.892,5.198,31.585,5.291
			c5.326,0.047,10.641-1.922,15.911-3.376c8.407-2.323,13.832-7.979,18.862-14.495c7.271-9.413,12.879-19.668,13.57-31.65
			c1.02-17.812,2.72-35.922-8.634-51.754c-1.167-1.63-2.442-3.187-4.106-5.357C290.676,145.084,292.845,144.192,294.794,145.786z"/>
		<path fill="#FDFDFD" d="M145.202,204.74c-0.593,1.832-1.185,3.669-1.779,5.504c-0.751,2.981-2.118,5.696-3.634,8.349
			c-1.334,2.082-2.318,4.362-3.947,6.271c-2.776,3.251-6.052,5.138-10.533,4.8c-6.914-0.518-13.926-0.13-20.582-2.642
			c-4.324-3.471-5.544-8.528-5.407-13.452c0.294-10.505,2.104-20.791,8.017-29.896c1.886-2.908,4.027-5.561,6.808-7.67
			c4.698-2.49,9.355-4.928,14.854-5.431c5.974-0.541,9.472,1.05,12.231,6.316c4.39,8.379,6.147,17.245,4.983,26.66
			C145.966,204.021,145.629,204.418,145.202,204.74z"/>
		<path fill="#DADADA" d="M243.73,138.421c5.462-0.473,10.769,1.773,16.018,4.264c1.164,0.555,2.659,1.128,1.93,2.598
			c-0.703,1.407-2.264,0.7-3.32,0.136c-5.363-2.878-11.018-4.118-17.127-3.757c-8.769,0.518-16.457,5.382-18.436,13.866
			c-3.601,15.43-14.755,24.851-25.66,34.658c-0.572,0.516-1.254,1.075-1.968,1.23c-1.827,0.406-4.428,2.441-5.378,0.058
			c-1.135-2.845,2.366-1.783,3.675-2.681c5.684-3.907,10.367-8.945,15.264-13.72c5.381-5.247,8.423-11.828,10.594-18.94
			C222.91,144.356,231.008,138.461,243.73,138.421z"/>
		<path fill="#DBDBDB" d="M177.59,186.832c-0.252,0.576-0.347,1.398-0.766,1.614c-0.699,0.366-1.641,0.145-2.004-0.656
			c-3.838-8.438-12.142-14.265-13.634-24.17c-0.893-5.917-5.089-9.688-10.444-12.366c-12.402-6.208-25.08-6.84-38.154-2.555
			c-1.305,0.427-3.185,2.059-3.937-0.098c-0.675-1.944,1.581-2.278,3.009-2.75c14.525-4.797,28.549-3.815,42.071,3.535
			c5.071,2.756,8.683,6.723,10.128,12.254c1.812,6.934,4.72,13.119,9.91,18.212C175.655,181.701,176.755,184.186,177.59,186.832z"/>
		<path fill="#160303" d="M121.899,168.28c1.952-1.496,4.498-0.892,6.604-1.845c2.446,1.224,5.196-0.229,7.661,0.854
			c0.731,2.26-0.763,2.805-2.446,2.908c-1.558,0.095-3.133-0.135-4.6,0.586c-5.458,0.215-9.944,3.032-14.591,5.428
			c-12.714,11.539-16.236,26.132-14.313,42.574c0.389,3.327,2.32,5.665,4.567,7.87c1.152,0.763,2.523,1.203,3.482,2.269
			c0.616,0.995,1.143,2.011,0.575,3.214c-4.864-0.504-7.769-3.689-10.278-7.441c-0.827-1.238-0.844-2.884-2.025-3.931
			c-2.17-7.02-0.836-14.026,0.344-20.961c0.637-3.741,1.077-7.656,3.42-10.913c2.521-3.679,4.591-7.626,7.498-11.079
			C111.631,173.264,116.643,170.64,121.899,168.28z"/>
		<path fill="#180404" d="M251.574,231.046c1.183-0.022,2.365-0.045,3.552-0.068c7.031-1.476,10.478-6.902,13.304-12.616
			c6.882-13.915,6.999-28.307,2.21-42.878c0.117-2.31,0.063-4.625-0.064-6.935c0.107-0.476,0.344-0.867,0.708-1.187
			c3.137,3.704,4.048,8.316,5.001,12.821c2.5,11.82,2.325,23.538-2.17,34.956c-3.312,4.92-4.921,10.886-9.717,14.922
			c-2.018,1.7-4.181,3.161-6.263,4.75l0.008-0.005c-0.37,0.314-0.77,0.371-1.203,0.137
			C255.903,232.617,252.068,234.11,251.574,231.046z"/>
		<path fill="#160505" d="M244.973,159.854c3.354-2.998,2.278,0.669,2.836,1.874c-3.656,4.27-8.711,6.663-13.316,9.609
			c-2.484,1.589-3.604,3.091-2.252,5.862c-8.985,9.534-12.713,20.781-11.345,33.814c0.386,3.635,2.147,6.432,4.202,9.201
			c0.363,0.33,0.561,0.744,0.595,1.236c-0.262,1.203-0.762,2.188-2.164,2.351c-3.019-2.545-4.282-6.146-5.809-9.594
			c-0.744-0.431-0.905-1.134-0.905-1.909c0.75-4.047,0.752-8.09,0-12.135c1.078-4.124,1.287-8.506,3.713-12.219
			c1.798-4.96,7.094-8.287,6.659-14.32c-0.103-1.442,1.398-1.904,2.368-2.655C234.557,167.072,240.34,164.259,244.973,159.854z"/>
		<path fill="#0E0E0E" d="M176.364,127.847c0.716-0.251,1.436-0.722,2.147-0.718c14.335,0.079,28.662-2.051,42.952-0.771
			c5.614,0.503,11.44-0.386,16.903,1.698c-1.868,0.843-3.844,0.229-5.765,0.416c-1.736,0-3.472,0.001-5.211,0
			c-14.979-0.155-29.929,1.173-44.909,0.846C180.367,129.271,178.04,129.832,176.364,127.847z"/>
		<path fill="#160303" d="M145.202,204.74c-0.219-0.316-0.179-0.598,0.113-0.842c2.261-6.946,0.943-13.661-1.445-20.258
			c-1.052-2.906-2.51-5.652-3.805-8.462c-0.374-1.555,0.103-2.866,1.171-3.997c1.211-0.614,1.535,0.081,1.794,1.118
			c1.058,4.258,3.457,7.942,5.207,11.901c1.373,2.325,1.385,4.983,1.848,7.526c-1.316,4.299,0.366,8.812-0.938,13.107
			C147.832,204.807,146.518,204.771,145.202,204.74z"/>
		<path fill="#242424" d="M107.818,229.235c-0.947-0.629-1.894-1.262-2.841-1.891c-0.403-0.465-0.355-0.886,0.133-1.257
			c2.695,2.271,5.988,1.03,8.984,1.492c16.044,2.482,16.049,2.454,25.582-9.84c0.686,0.662,0.633,1.369,0.12,2.098v-0.004
			c-1.599,4.834-4.471,8.504-9.43,10.272c-4.131,0.263-8.421-0.492-12.232,1.87c-1.538-0.034-2.796,2.682-4.56,0.47
			C112.309,230.212,109.524,230.681,107.818,229.235z"/>
		<path fill="#1E0404" d="M114.372,231.988c0.492,0.704,1.384,1.051,1.616,0.155c0.658-2.51,1.42-0.485,2.146-0.168
			c3.171,3.409,7.115,2.764,11.151,1.834c0.144,1.13-0.628,0.989-1.035,1.169c-0.567,0.252-1.189,0.655-1.754,0.606
			c-8.726-0.736-17.86,0.123-25.253-6.062c-2.718-2.273-4.497-5.11-4.714-8.755c0.021-0.153,0.015-0.318,0.062-0.46
			c0.146-0.414,0.548-0.981,0.773-0.293c1.915,5.799,5.652,9.818,11.392,11.972C110.63,230.744,112.503,231.649,114.372,231.988z"/>
		<path fill="#0F0909" d="M231.82,176.707c-3.969-1.663-2.172-3.532,0.015-4.971c5.252-3.443,10.643-6.684,15.975-10.008
			c1.177,0.647,2.389,1.117,3.773,0.847c0.433-0.318,0.798-0.24,1.106,0.187c-4.395,0.955-8.296,2.845-11.785,5.718
			c-1.64,1.355-3.236,2.673-4.304,4.533C234.547,173.649,234.748,177.188,231.82,176.707z"/>
		<path fill="#220404" d="M244.973,159.854c-0.999,3.612-4.918,3.949-7.143,6.252c-1.686,1.744-4.062,2.848-6.188,4.146
			c-2.217,1.354-3.289,2.931-3.78,5.799c-0.806,4.676-4.26,8.296-7.332,11.897c0.429-2.482,1.452-4.719,2.948-6.728
			c1.349-1.812,3.126-3.33,1.897-6.102c-0.611-1.382,0.617-2.66,1.816-3.466C233.104,167.695,239.043,163.782,244.973,159.854z"/>
		<path fill="#220404" d="M217.718,214.208c1.89,3.116,3.775,6.238,5.664,9.358c4.47,5.484,11.084,7.657,16.983,10.944
			c0.245,0.423,0.22,0.83-0.081,1.22C226.17,233.585,221.085,228.281,217.718,214.208z"/>
		<path fill="#504941" d="M176.364,127.847c17.213,0.097,34.431,0.194,51.649,0.288c0.347,0.158,0.462,0.315,0.353,0.476
			c-0.113,0.164-0.227,0.25-0.342,0.25c-7.235,0.312-14.469,0.627-21.697,0.94c-5.4-1.075-10.753,0.306-16.133,0.333
			c-5.076,0.029-10.177,0.989-15.19-0.6c-0.59-0.359-0.734-0.855-0.44-1.48C175.162,127.985,175.761,127.915,176.364,127.847z"/>
		<path fill="#1E0404" d="M141.614,223.584c3.022-2.86,4.14-6.813,5.938-10.804c0.934,8.608-7.356,19.479-15.379,20.765
			c0.326-0.805,0.66-1.635,0.999-2.468c0.234-0.349,0.528-0.635,0.893-0.848c1.459-0.68,2.993-1.237,4.056-2.543
			c0.806-0.928,1.257-2.079,1.95-3.079C140.459,224.078,141.081,223.896,141.614,223.584z"/>
		<path fill="#210404" d="M121.899,168.28c0.09,0.129,0.182,0.255,0.274,0.381c-9.694,4.362-16.858,11.222-20.957,21.107
			c-0.04,0.099-0.214,0.146-0.324,0.217c-0.196-0.361-0.398-0.726-0.595-1.091C104.375,178.77,110.557,170.836,121.899,168.28z"/>
		<path fill="#200404" d="M148.236,184.201c-1.358-1.313-4.781-8.122-5.657-11.119c-0.202-0.694-0.61-1.326-0.928-1.989
			c-1.718-1.482-3.781-2.447-5.636-3.727c-2.489-0.419-5.2,0.927-7.512-0.93c2.837-0.302,5.549,0.044,8.494-1.376
			c3.699-1.782,5.574,2.828,5.966,4.833C143.965,175.037,147.57,179.069,148.236,184.201z"/>
		<path fill="#200404" d="M258.135,234.813c6.826-5.646,12.448-12.179,15.362-20.707c0.135,0.048,0.351,0.062,0.384,0.149
			c0.113,0.281,0.157,0.588,0.23,0.882C270.983,223.47,267.232,231.297,258.135,234.813z"/>
		<path fill="#1B1B1B" d="M134.269,230.965c-0.366,0.039-0.732,0.076-1.097,0.113c-0.934-0.325-1.87-0.648-2.805-0.975
			c3.732-2.886,6.649-6.512,9.43-10.27c-0.138,1.609,0.15,3.015,1.821,3.75c-0.373,0.339-0.745,0.679-1.118,1.018
			c-0.569,1.163-1.447,2.113-2.213,3.141C137.13,229.047,135.637,229.928,134.269,230.965z"/>
		<path fill="#0E0E0E" d="M174.562,128.054c-0.035,0.278-0.061,0.557-0.067,0.837c-1.969,2.79-4.963,2.188-7.732,2.341
			c-2.723-0.404-5.741,0.828-8.13-1.441c-0.033-0.271-0.052-0.537-0.052-0.808c3.514-0.637,7.328-0.19,10.288-2.826
			C171.022,126.028,173.156,125.955,174.562,128.054z"/>
		<path fill="#200404" d="M271.283,167.361c0,0.314,0,0.63,0,0.946c-0.864,0.538-1.617,0.113-2.376-0.272
			c-1.508-1.373-2.97-2.792-4.194-4.431c-0.842-2.806-3.543-3.377-5.638-4.677c-0.236-0.211-0.318-0.418-0.236-0.628
			c0.075-0.211,0.158-0.314,0.235-0.314C265.17,158.487,267.663,163.656,271.283,167.361z"/>
		<path fill="#1F1F1F" d="M264.713,163.604c2.633-0.057,3.261,2.381,4.729,3.777c1.105,1.878,0.753,3.448-1,4.724
			c-0.982-3.188-2.5-5.985-5.613-7.611C263.259,163.775,263.967,163.648,264.713,163.604z"/>
		<path fill="#200404" d="M240.284,235.731c0-0.314,0-0.619,0-0.931c0.593-0.634,1.356-0.816,2.188-0.832
			c4.84,1.275,9.858-0.592,14.693,0.812c0.326,0.009,0.652,0.019,0.977,0.025c-0.898,1.948-2.65,1.933-4.397,1.866
			C249.247,236.497,244.688,237.271,240.284,235.731z"/>
		<path fill="#270505" d="M149.146,204.838c0.484-4.355-1.016-8.856,0.938-13.109c0,5.261,0,10.526,0,15.912
			C148.53,206.969,149.427,205.728,149.146,204.838z"/>
		<path fill="#1B1B1B" d="M139.797,219.834c-0.04-0.697-0.082-1.396-0.122-2.095c1.25-2.499,2.498-4.998,3.748-7.496
			C143.969,214.104,141.801,216.939,139.797,219.834z"/>
		<path fill="#260505" d="M216.814,200.161c1.509,4.046,1.508,8.091,0.004,12.134C216.814,208.252,216.814,204.209,216.814,200.161z
			"/>
		<path fill="#050505" d="M252.689,162.76c-0.369-0.061-0.74-0.123-1.111-0.186c2.682-1.25,5.279-1.81,7.48,0.899
			C256.949,163.102,254.909,162.114,252.689,162.76z"/>
		<path fill="#050505" d="M258.131,158.929c-1.855,0-3.717,0-5.689,0c0.416-1.716,1.74-1.646,2.883-1.866
			C255.864,158.277,258.431,156.464,258.131,158.929z"/>
		<path fill="#25221E" d="M232.724,128.082c1.882-0.01,3.765-0.021,5.646-0.028c-0.963,1.368-2.439,0.744-3.7,0.947
			c-0.646-0.033-1.297-0.067-1.945-0.103c-0.278-0.182-0.372-0.36-0.28-0.544C232.537,128.174,232.631,128.082,232.724,128.082z"/>
		<path fill="#160505" d="M258.131,158.929c-0.935-0.624-1.871-1.246-2.807-1.866c1.294,0.128,2.758-0.428,3.75,0.923
			c0,0.313,0,0.626,0.001,0.94C258.763,158.928,258.447,158.928,258.131,158.929z"/>
		<path fill="#EFDBC2" d="M258.113,315.385c-1.152,1.968-2.868,1.552-4.624,0.966c-2.299-1.526-1.69,1.557-2.872,1.802
			c-1.623,1.432-2.184-0.886-3.378-0.931c-0.536,0.116-1.038,0.333-1.566,0.462c-0.399,0.037-0.781-0.014-1.154-0.141
			c-0.427-0.192-0.878-0.254-1.332-0.316c0.16,0.477,0.711,0.48,1.005,0.822c0.171,0.403,0.171,0.791,0.028,1.191
			c-0.757,0.866-1.719,1.236-2.843,1.236c-1.964-0.67-3.976-1.067-6.075-0.861c-2.064,0.139-4.595-1.859-5.988,1.313
			c-0.999,0.744-2.109,0.498-2.969-0.036c-2.022-1.249-3.374-0.334-4.667,1.121c-1.329,0.397-1.871-0.671-2.612-1.378
			c-1.653-1.896-3.396-0.122-5.086-0.111c-1.923,0.136-3.929-0.888-5.771,0.434c-0.348,0.234-0.719,0.411-1.115,0.547
			c-1.332,0.272-2.519-0.189-3.699-0.705c-1.913-2.25-4.24-3.489-7.287-2.942c-3.701,0.046-7.429-0.084-10.804,1.844
			c-1.444,0.761-2.485,2.227-4.243,2.441c-0.951,0.018-1.383-0.616-1.725-1.361c-0.322-0.881-0.827-1.576-1.855-1.717
			c-2.321,0.426-4.716-0.869-6.979,0.391c-1.646,0.573-2.771-1.654-4.469-0.796c-1.506,0.168-3.29-0.289-3.925,1.789
			c-0.761,0.472-1.587,0.531-2.444,0.394c-0.623-0.136-1.197-0.394-1.753-0.687c-3.249-1.278-6.447-0.91-9.624,0.283
			c-0.916,0.075-1.7-0.29-2.471-0.704c-0.411-0.204-0.798-0.577-1.22-0.607c-3.41-0.26-6.727-0.525-9.623-2.809
			c-1.933-1.521-3.718-0.164-5.286,1.146c-2.107,0.675-3.763-1.818-5.923-0.834c-0.992-0.062-1.355-0.763-1.618-1.565
			c-3.334-1.998-6.713-3.894-10.28-5.433c-1.753-0.484-3.8,0.264-5.317-1.229c-0.461-0.417-0.98-0.876-1.125-1.449
			c-0.435-1.694-1.103-1.841-2.176-0.488c-1.366-0.149-2.877,0.079-3.756-1.389c-1.13-2.241-4.133-2.268-5.306-4.446
			c-1.407-3.261-4.056-3.289-6.962-2.646c-1.407-1.483-2.909-2.817-5.029-3.183c-0.805-0.997-1.129-2.141-1.049-3.399
			c-0.291-1.857-2.269-2.828-2.523-4.709c-2.867-2.166-5.837-4.183-8.529-6.572c-0.525-0.464-1.689-1.068-2.336,0.234
			c-1.043,1.194,0.846,0.837,0.809,1.508c0.137,0.391,0.162,0.773,0.103,1.175c-0.344,1.217-0.612,2.486-2.111,2.834
			c-0.413,0.006-0.807-0.086-1.17-0.281c-0.699-0.504-0.977-1.674-2.186-1.35c-1.339,1.393-2.716,1.607-4.149,0.169
			c-14.341-11.636-24.703-26.764-36.28-40.844c-6.946-8.446-12.301-17.7-15.519-28.068c-5.068-16.332-4.182-33.003-1.123-49.467
			c1.436-7.724,2.897-15.654,6.46-22.867c8.613-17.427,22.44-27.964,41.726-31.235c5.614-0.456,11.228-0.517,16.836,0.025
			c2.651,0.828,5.337,1.419,8.141,1.259c1.787,0.813,3.455,1.998,5.565,1.843c1.749,0.471,3.595,0.701,4.999,2.015
			c0.633,1.007,1.632,0.801,2.576,0.781c1.949,0.721,4.175,0.692,5.846,2.162c1.582,0.579,3.163,1.161,4.746,1.739
			c2.995,1.562,5.99,3.118,9.429,3.479c1.433,0.973,3.467,0.695,4.646,2.204c2.336,0.883,4.617,2.002,7.236,1.63
			c1.569,0.899,3.551-0.339,5.046,0.969l-0.078,0.028c2.449,1.125,5.249-0.554,7.657,0.897c1.239,0.396,2.477,0.392,3.715-0.006
			c5.315-1.27,10.714-0.263,16.065-0.577c3.54-0.211,7.104,0.376,10.627-0.333c2.499,0.383,4.802-0.432,7.119-1.155
			c9.185,0.006,18.371-0.031,27.555,0.059c1.425,0.017,3.137-0.795,4.278,0.849c-11.426,0.459-22.6,2.898-33.904,4.317
			c-18.393,2.317-36.82,2.552-55.188-0.042c-11.074-1.565-22.188-1.866-33.235-1.022c-15.318,1.172-22.995,11.58-27.865,24.903
			c-3.252,8.892-4.392,18.262-5.144,27.459c-1.145,13.943-1.238,28.036,0.881,41.999c1.605,10.588,8.604,16.212,18.092,19.378
			c3.083,1.033,6.355,1.655,9.596,2.054c9.007,1.101,17.668,3.402,26.431,5.785c16.066,4.376,32.597,4.774,48.108-2.324
			c5.729-2.625,10.266-7.833,15.35-11.858c8.356-6.607,23.048-7.577,32.203-2.126c4.833,2.878,10.356,5.036,14.328,8.815
			c4.994,4.756,10.621,6.933,17.037,7.256c15.221,0.775,30.363,0.461,44.439-6.634c2.416-1.22,4.227-3.175,6.12-5.047
			c17.336-17.191,22.833-38.286,21.118-62.002c-0.861-11.84-3.08-23.095-9.926-33.06c6.46,0.621,12.053,4.028,18.211,5.679
			c11.212,3.003,11.044,3.174,11.317,14.931c0.728,31.019-3.293,61.146-16.419,89.635c-2.08,4.516-2.953,9.502-5.47,13.877
			c-0.544,0.943-0.864,1.482-1.902,1.482c-0.357,0.283-0.741,0.525-1.146,0.73c-0.88,0.272-1.769,0.245-2.661,0.074
			c-2.166-1.033-3.923-0.549-5.258,1.445c-2.229,1.198-3.486,3.287-4.857,5.273c-0.728,0.873-2.943-2.316-2.768,1.016
			c-2.353,0.716-1.456,3.011-2.201,4.588"/>
		<path fill="#EFDBC2" d="M281.6,286.385c-1.324,1.607-5.272,1.63-3.453,5.319c-0.464,1.001-1.596,1.22-2.278,1.976
			c-1.101,1.731-3.462,2.68-3.211,5.237c-0.465,0.892-1.22,1.133-2.164,0.95c-3.57-1.465-4.455-0.02-3.594,3.31
			c0.43,1.317,0.792,2.633-0.097,3.911c-1.477,1.128-3.049,0.43-4.596,0.249c-2.733,0.72-4.857,1.767-2.849,5.118
			c-0.296,1.011-0.341,2.12-1.204,2.977"/>
		<path fill="#AB9D8B" d="M296.641,273.264c0.951-0.033,1.902-0.065,2.853-0.098c1.304,1.907-1.327,3.001-0.979,4.709
			c-1.292,3.938-4.395,6.637-6.797,9.803c-0.743,0.987-1.824,1.727-1.92,3.102c-0.488,0.178-0.978,0.353-1.465,0.529
			c-1.36-1.259-0.781-2.707-0.42-4.142c1.694-1.329,1.117-2.924,0.528-4.52c-0.095-0.869,0.15-1.639,0.688-2.322
			c0.503-0.631,1.019-1.245,1.558-1.847c0.906-0.971,2.083-0.982,3.276-0.922c1.313-0.426,0.661-1.654,0.997-2.471
			C295.187,274.174,295.771,273.584,296.641,273.264z"/>
		<path fill="#C1B19D" d="M298.514,277.876c-2.024-2.058,1.802-2.903,0.979-4.709c0.335,0.026,0.667,0.057,1.003,0.086
			C300.438,275.053,299.777,276.595,298.514,277.876z"/>
		<path fill="#E0CDB6" d="M129.427,317.244c2.328-3.736,5.933-3.927,8.483-0.504c0.593,0.8,0.791,2.135,2.65,0.901
			c1.885-1.254,4.134-0.257,5.81,1.377c-1.105,1.364-2.854,1.673-4.234,2.584c-0.934,0.379-1.944,0.54-2.852,0.995
			c-0.754,0.386-1.199,1.051-1.591,1.772c-1.299,2.235-3.097,3.26-5.691,2.33c-1.595,0.111-3.064-0.285-4.451-1.045
			c-0.219-0.232-0.307-0.476-0.26-0.728c0.045-0.258,0.104-0.391,0.164-0.391c0.29-1.347,2.812,0.369,2.494-1.824
			c-0.195-0.769-0.037-1.419,0.602-1.901c1.314-1.112-0.299-1.324-0.615-1.937C129.479,318.412,129.083,317.941,129.427,317.244z"/>
		<path fill="#B2A390" d="M183.945,337.018c-2.906-0.213-5.924,0.482-8.678-1.021c0.109-0.167,0.222-0.334,0.329-0.502
			c0.292-0.296,0.89-0.602,0.832-0.865c-0.135-0.656-0.883-0.066-1.274-0.396c-0.743-0.517-1.148-1.204-1.182-2.105
			c0.913-2.152,1.464-4.701,4.693-4.404c1.185,1.104,2.769,1.666,3.904,2.84c0.605,0.806,1.507,1.066,2.443,1.264
			c0.934,0.384,1.814,0.82,1.979,1.967c-0.229,0.793-0.89,1.219-1.451,1.731C185.015,336.021,184.365,336.399,183.945,337.018z"/>
		<path fill="#BDAD99" d="M102.99,306.135c2.891-3.124,2.82,0.652,3.929,1.676c0.455,0.916,0.004,1.621-0.531,2.312
			c-1.019,1.089-2.44,1.442-3.732,2.031c-0.689,0.348-1.313,0.801-1.928,1.269c-0.516,0.287-1.037,0.508-1.619,0.19
			c-1.16-0.146-2.038-0.728-2.642-1.723c-1.591-2.309,2.505-2.782,1.577-4.879c0.271-0.306,0.603-0.524,1.001-0.637
			C100.363,306.393,101.729,307.108,102.99,306.135z"/>
		<path fill="#AE9F8D" d="M150.117,331.155c-3.083-0.028-5.844-1.32-8.709-2.2c-0.351-0.601-0.212-1.146,0.196-1.655
			c0.904-1.009,2.564-0.804,3.309-2.079c0.426-0.665,0.823-1.354,1.57-1.729c1.118-0.166,2.049,0.259,2.912,0.913
			c0.882,0.948,1.624,1.983,2.031,3.233C151.551,329.016,151.114,330.191,150.117,331.155z"/>
		<path fill="#D4C2AC" d="M145.322,325.808c0.054,2.106-2.118,0.705-2.756,1.729c-1.119-0.61-2.337,0.049-3.477-0.254
			c-1.08,0.334-2.121,1.042-3.317,0.373c-1.312-0.101-2.662-0.064-3.773-0.959c2.533-0.089,4.555-0.846,4.906-3.765
			c0.227-1.055,1.905,0.36,1.895-1.104c0.762-1.041,1.882-0.799,2.932-0.812c1.152,0.434,1.691,1.446,2.276,2.41
			C144.46,324.21,145.109,324.89,145.322,325.808z"/>
		<path fill="#D5B2A2" d="M113.983,321.148c-3.05-0.644-5.702-2.143-8.262-3.836c0.079-0.175,0.157-0.347,0.235-0.521
			c0.465-0.628,1.011-1.174,1.644-1.644c0.363-0.178,0.747-0.27,1.151-0.294c1.443,0.028,2.856,0.239,4.239,0.674
			c1.078,0.368,2.112,0.805,2.991,1.548c0.547,0.536,0.889,1.172,1.002,1.931C116.968,321.094,115.905,321.725,113.983,321.148z"/>
		<path fill="#C1AF9B" d="M94.728,311.377c-2.677-1.227-5.453-2.275-7.714-4.257c-0.449-1.428,0.662-1.471,1.499-1.523
			c1.401-0.087,1.687-1.063,1.963-2.119c0.221-0.369,0.545-0.603,0.966-0.694c0.849-0.023,1.622,0.254,2.386,0.584
			c0.548,0.287,0.975,0.684,1.129,1.306c-0.387,1.118,0.849,1.626,0.971,2.56C95.404,308.579,96.644,310.434,94.728,311.377z"/>
		<path fill="#AE9E8C" d="M250.646,327.518c-0.003,0.634-0.005,1.269-0.005,1.899c-2.963,1.88-5.939,3.725-9.432,4.491
			c-0.555-1.292-0.076-2.552,0.107-3.824c0.098-0.434,0.262-0.844,0.453-1.244c0.848-1.482,1.999-2.357,3.811-1.883
			C247.101,328.625,249.006,326.891,250.646,327.518z"/>
		<path fill="#B1A290" d="M211.384,337.936c-2.681,2.696-5.777,0.564-8.673,0.744c-1.366-1.646-0.956-3.219,0.195-4.763
			c1.077-1.033,2.243-1.729,3.745-0.804c1.183,0.71,0.88,2.48,2.219,3.089c0.554,0.026,1.078,0.116,1.573,0.362
			C210.935,336.903,211.284,337.336,211.384,337.936z"/>
		<path fill="#AB9B8A" d="M167.922,334.912c-1.64,0.199-3.193-0.112-4.672-0.827c-0.523-0.635-0.366-1.421-0.493-2.144
			c-0.512-1.276-1.937-2.061-1.968-3.603c0.035-0.441,0.174-0.846,0.401-1.229c1.321-1.416,2.694-1.317,4.104-0.138
			c0.934,1.343,2.308,2.357,2.989,3.903C168.188,332.217,168.547,333.61,167.922,334.912z"/>
		<path fill="#A89A89" d="M80.526,303.593c-0.662-0.727-1.326-1.449-1.989-2.172c0.506-0.974,1.564-1.157,2.381-1.681
			c1.191-0.807,1.146-3.27,3.453-2.594c1.031,0.452,1.779,1.198,2.281,2.194c0.213,0.611,0.213,1.227-0.028,1.832
			c-0.653,0.969-1.897,1.344-2.451,2.425c-0.233,0.311-0.536,0.534-0.894,0.685C82.363,304.051,81.444,303.821,80.526,303.593z"/>
		<path fill="#A89A89" d="M203.726,333.908c-0.865,1.479-1.153,3.082-1.015,4.773c-1.561-0.054-3.12-0.105-4.681-0.157
			c-0.331-0.268-0.645-0.555-0.944-0.854c-0.824-1.585-0.862-2.847,1.316-3.195c1.59,0.354,2.383-1.047,3.554-1.623
			C202.876,332.661,203.641,332.722,203.726,333.908z"/>
		<path fill="#B5A390" d="M99.108,313.611c0.4-0.359,0.803-0.722,1.204-1.078c1.007-0.738,2.191-0.192,3.261-0.442
			c1.042,0.714,1.223-0.725,1.968-0.787c0.415,0.046,0.767,0.214,1.083,0.478c0.735,0.749,1.561,1.449,1.448,2.655
			c-0.759,0.77-1.209,1.75-1.764,2.655c-0.167,0.15-0.363,0.221-0.587,0.221C103.516,316.08,101.312,314.846,99.108,313.611z"/>
		<path fill="#D4C1AB" d="M94.728,311.377c0.923-1.333-1.99-3.471,0.931-4.38c0.913-0.336,1.838-0.323,2.764-0.07
			c0.744,2.199,0,3.818-1.953,4.962C95.89,311.718,95.309,311.55,94.728,311.377z"/>
		<path fill="#817769" d="M237.472,335.994c-1.255,1.612-3.473-1.151-4.616,1.002c-1.111-0.5-1.727-1.558-2.614-2.312
			c-0.412-0.483-0.657-1.017-0.497-1.67c0.873-1.343,2.024-1.196,3.264-0.606c1.093,0.545,2.324,0.686,3.454,1.146
			c0.577,0.297,1.018,0.737,1.314,1.312C237.896,335.298,237.796,335.676,237.472,335.994z"/>
		<path fill="#B9A996" d="M191.412,337.783c-0.846-1.86-2.74-3.725,0.03-5.561c0.622-0.592,1.302-0.561,2.017-0.196
			c0.523,0.574,0.758,1.264,0.844,2.019c0.014,1.545-0.133,3.014-1.937,3.584C192.05,337.682,191.732,337.731,191.412,337.783z"/>
		<path fill="#C3B39F" d="M218.68,338.764c-2.343,0.287-4.76,1.138-6.824-0.842c0.214-1.091,0.973-1.731,1.879-2.261
			c0.38-0.137,0.773-0.19,1.177-0.178c1.317,0.383,2.762-0.264,4.041,0.478c0.373,0.537,0.479,1.124,0.393,1.762
			C219.202,338.123,218.98,338.471,218.68,338.764z"/>
		<path fill="#C5B4A0" d="M127.551,324.733c-0.006,0.307-0.007,0.612-0.001,0.918c-0.995-0.122-2.093,0.104-2.838-0.846
			c-0.628-0.63-1.465-1.103-1.591-2.105c-0.022-1.336,0.53-2.173,1.958-2.256c0.702,0.073,1.275,0.409,1.789,0.866
			c0.637,0.638,1.115,1.364,1.217,2.289C128.048,324.04,127.876,324.422,127.551,324.733z"/>
		<path fill="#CABAA4" d="M123.806,322.963c0.302,0.614,0.602,1.228,0.904,1.843c-1.242-0.353-2.489-0.701-3.733-1.049
			c-1.142-0.62-1.849-1.471-1.566-2.862c0.692-1.737,2.001-2.439,3.826-2.274C125.419,319.805,121.936,321.733,123.806,322.963z"/>
		<path fill="#A09382" d="M90.952,303.219c2.004,4.626-2.402,2.823-3.938,3.901c-0.274-0.19-0.547-0.383-0.821-0.571
			c-0.14-0.911-1.832-1.49-0.591-2.697c0.357-0.186,0.745-0.284,1.148-0.309c1.137,0.217,2.202,0.04,3.178-0.625
			C90.318,302.853,90.659,302.953,90.952,303.219z"/>
		<path fill="#C3A797" d="M113.983,321.148c1.962-0.175,2.458-1.37,2.183-3.108c-0.57-1.331-0.08-1.999,1.318-2.099
			c2.24,1.173,1.831,3.017,1.247,4.905c-0.673,0.914-1.444,1.613-2.712,1.233C115.205,322.066,114.469,321.879,113.983,321.148z"/>
		<path fill="#A69887" d="M167.922,334.912c-0.55-1.241-1.654-2.488,0.088-3.676c0.438-0.909,1.034-1.426,2.082-0.848
			c0.85,1.203,0.83,2.507,0.443,3.851c-0.188,0.417-0.491,0.726-0.904,0.928C169.063,335.082,168.492,334.998,167.922,334.912z"/>
		<path fill="#BCAC98" d="M156.687,332.133c-2.075,0.838-3.896-0.152-5.77-0.797c0.49-1.132,0.982-2.268,1.995-3.065
			c1.681-0.043,2.783,1.014,3.906,2.041C157.156,330.941,157.229,331.56,156.687,332.133z"/>
		<path fill="#A09382" d="M213.972,335.961c-0.407,0.974-1.149,1.588-2.116,1.963l-0.233,0.092l-0.238-0.079
			c-0.421-0.341-0.839-0.683-1.258-1.024c-1.237-0.916-1.478-1.898-0.21-2.987c0.362-0.182,0.75-0.247,1.156-0.191
			c1-0.188,0.852,2.11,2.27,1.041C213.928,334.969,214.366,335.245,213.972,335.961z"/>
		<path fill="#988C7C" d="M192.368,337.629c0.615-1.108,1.06-2.262,0.944-3.562c0.356-0.291,0.729-0.314,1.117-0.075
			c0.581,1.769,2.117,2.646,3.486,3.677c0.06,0.282,0.1,0.568,0.117,0.854C196.018,339.018,194.101,338.897,192.368,337.629z"/>
		<path fill="#B7A895" d="M173.572,335.933c-1.331-0.158-2.777,0.254-3.94-0.766c0.18-0.093,0.334-0.21,0.473-0.357
			c0.858-1.382,1.038-3.318,3.079-3.728c0.699,0.329,0.875,0.944,0.905,1.643C174.445,333.881,174.554,334.994,173.572,335.933z"/>
		<path fill="#C5B5A0" d="M152.984,328.4c-0.019,1.447-0.179,2.798-2.067,2.936l-0.432,0.036l-0.37-0.217
			c-0.151-1.329,0.279-2.508,0.913-3.638c0.312-0.277,0.675-0.417,1.092-0.415C152.757,327.306,153.159,327.661,152.984,328.4z"/>
		<path fill="#A59282" d="M116.023,322.08c0.695-0.369,1.394-0.75,2.088-1.125c0.603-0.53,1.196-0.53,1.78,0.026
			c0.361,0.927,0.726,1.853,1.089,2.778C119.001,324.155,117.558,322.992,116.023,322.08z"/>
		<path fill="#908172" d="M164.164,332.294c-0.305,0.596-0.609,1.191-0.914,1.789c-1.324,0.033-2.703,0.302-3.78-0.812
			c-0.615-1.124,0.11-1.719,0.911-2.282C161.882,330.726,163.107,331.268,164.164,332.294z"/>
		<path fill="#D3C0AA" d="M187.686,336.044c0.617,0.551,1.232,1.097,1.849,1.644c-1.954,0.51-3.765-0.126-5.589-0.67
			c-0.043-0.899,0.138-1.685,1.058-2.101C186.098,334.819,187.085,334.977,187.686,336.044z"/>
		<path fill="#9D907F" d="M225.2,338.686c-0.29-0.283-0.577-0.57-0.869-0.854c-1.056-1.606-0.011-2.197,1.289-2.672
			c0.741-0.119,1.455-0.03,2.136,0.281c0.424,0.254,0.688,0.63,0.781,1.115c0.125,1.651-1.336,1.585-2.273,2.084
			C225.91,338.652,225.553,338.669,225.2,338.686z"/>
		<path fill="#938677" d="M237.472,335.994c-0.002-0.321-0.004-0.642-0.005-0.959c-0.925-1.99,0.214-2.4,1.863-2.43
			c0.812,0.332,1.533,0.715,0.995,1.791C239.8,335.678,238.663,335.88,237.472,335.994z"/>
		<path fill="#CAB8A3" d="M230.896,334.197c1.461,0.37,1.598,1.665,1.959,2.801c-0.301,1.027-1.142,0.893-1.921,0.884
			c-0.149-0.093-0.3-0.187-0.45-0.275c-0.464-0.554-0.788-1.172-0.885-1.896C229.668,334.896,230.197,334.477,230.896,334.197z"/>
		<path fill="#A49786" d="M138.856,325.694c1.087,0.918,2.844,0.49,3.712,1.843c-0.384,0.473-0.772,0.944-1.159,1.418
			c-0.864-0.186-1.728-0.371-2.593-0.559C138.162,327.486,138.16,326.585,138.856,325.694z"/>
		<path fill="#7E7466" d="M173.572,335.933c0.008-1.227,0.02-2.46,0.027-3.688c0.296-0.401,0.605-0.412,0.931-0.04
			c0.312,0.628,0.624,1.254,0.935,1.887c0.555,0.52,0.725,1.137,0.494,1.862l-0.341,0.085l-0.351-0.043
			C174.701,335.973,174.139,335.954,173.572,335.933z"/>
		<path fill="#CBB9A4" d="M226.268,338.64c0.627-0.587,1.26-1.171,1.893-1.758c1.061-0.616,1.723,0.176,2.463,0.692l0.312,0.306
			C229.498,338.869,227.922,339.014,226.268,338.64z"/>
		<path fill="#BCA895" d="M138.856,325.694c-0.015,0.9-0.028,1.801-0.04,2.702c-1.106,0.138-2.139-0.042-3.042-0.741
			C137.225,327.665,137.851,326.387,138.856,325.694z"/>
		<path fill="#D9C5AF" d="M59.057,284.414c2.099,1.149,2.795-0.584,3.736-1.812c1.424,0.414,2.332,1.334,2.707,2.767
			c0.376,0.029,0.756,0.063,1.132,0.097c2.065,0.652,0.382,3.795,2.816,4.201c2.906,1.681,5.642,3.56,7.524,6.427
			c0.688,0.856,1.152,1.801,1.152,2.925c-0.133,0.723-0.679,1.028-1.293,1.266C70.49,295.459,64.667,290.052,59.057,284.414z"/>
		<path fill="#171617" d="M71.159,111.958c-5.611-0.009-11.225-0.018-16.836-0.024C59.938,110.654,65.55,110.63,71.159,111.958z"/>
		<path fill="#D6C4AE" d="M259.03,312.388c-0.397-1.468-3.449,0.107-2.522-1.204c1.365-1.924,1.621-5.623,5.42-5.159
			c1.556,1.182,2.963,2.419,1.51,4.586c-0.468,0.394-1.078,0.57-1.539,0.984c-0.296,0.967-1.724-0.065-1.922,1.079
			C259.571,312.876,259.254,312.783,259.03,312.388z"/>
		<path fill="#867B6D" d="M252.277,325.06c0.048,0.933-0.454,1.457-1.301,1.721c-1.886,0.577-2.484-0.743-3.086-2.062
			c-0.22-1.516-0.929-2.887-1.34-4.351c0.106-0.702,0.518-1.192,1.123-1.532c1.027-0.207,1.682,0.262,2.105,1.151
			c-0.119,1.281,0.498,1.854,1.754,1.816C251.504,322.949,251.536,324.085,252.277,325.06z"/>
		<path fill="#CAB9A4" d="M249.777,319.987c-0.633-0.253-1.269-0.509-1.903-0.763c-1.118-0.714-0.995-1.84-0.968-2.933
			c0.846-0.738,1.928-2.012,2.117,0.318c0.101,1.239,0.693,1.413,1.594,1.544C250.598,318.881,250.486,319.566,249.777,319.987z"/>
		<path fill="#B1A290" d="M253.489,316.351c1.335-1.259,3.356,0.503,4.624-1.046C257.073,317.848,255.795,319.354,253.489,316.351z"
			/>
		<path fill="#877C6E" d="M261.901,311.594c0.31-0.298,0.625-0.595,0.934-0.89c1.384-0.521,1.621-3.279,3.93-2.007
			c0.586,1.34,0.104,2.305-1.052,3.043C264.438,311.692,263.17,311.643,261.901,311.594z"/>
		<path fill="#E0CDB6" d="M265.71,311.74c0.281-0.979,0.564-1.957,0.843-2.938c0.345-0.243,0.713-0.284,1.103-0.122
			c0.251,0.365,0.226,0.714-0.075,1.037c-0.107,1.48-0.123,3.01-1.86,3.669C265.719,312.836,265.715,312.289,265.71,311.74z"/>
		<path fill="#887C6E" d="M259.03,312.388c0.316,0.094,0.632,0.191,0.948,0.284c0.059,1.34,0.09,2.665-1.818,2.677
			C258.226,314.295,257.94,313.142,259.03,312.388z"/>
		<path fill="#DFCCB5" d="M279.741,291.93c-0.651,0.567-1.289,0.498-1.916-0.041c-1.871-3.968,0.131-5.328,3.778-5.585
			c-0.057,0.918-0.209,2.068-1.111,2.262c-2.97,0.629-0.57,2.245-0.742,3.368"/>
		<path fill="#B8A996" d="M284.453,290.943c2.129,0.001,1.765-1.718,2.061-2.978c0.16-0.471,0.4-0.868,0.91-1.028
			c0.337-0.015,0.605,0.115,0.803,0.395c0.967,1.303-0.215,2.657,0.1,3.976c-0.483,0.84-0.967,1.678-1.453,2.52
			C286.068,292.862,285.26,291.902,284.453,290.943z"/>
		<path fill="#CFBEA8" d="M277.825,291.889c0.639,0.014,1.279,0.027,1.916,0.041c0.015,1.221,0.022,2.436,0.032,3.655
			c-0.318,0.031-0.642,0.065-0.96,0.099c-0.704,0.468-1.104,0.052-1.458-0.494c0.561-2.088-2.267-0.829-2.311-2.318
			C275.701,291.789,276.818,291.994,277.825,291.889z"/>
		<path fill="#A08F7F" d="M271.292,304.086c1.313,1.285,3.544,0.452,4.729,2.033c-0.178,1.229-0.908,2.053-1.944,2.647
			c-0.176-0.067-0.345-0.137-0.522-0.203c-0.642-0.402-1.233-0.869-1.809-1.367c-0.444-0.411-0.787-0.887-0.969-1.469
			C270.683,305.099,270.798,304.533,271.292,304.086z"/>
		<path fill="#A08F7F" d="M274.074,308.766c-0.926,0.954-1.853,1.898-2.78,2.852l-0.285-0.224c-0.346-2.207,0.517-3.235,2.812-2.862
			L274.074,308.766z"/>
		<path fill="#AB9D8B" d="M271.292,304.086c-0.005,0.628-0.01,1.257-0.012,1.884c-0.5,1.372-1.675,2.078-2.812,2.823
			c-0.297,0.309-0.593,0.621-0.889,0.927c-0.059-0.281-0.107-0.567-0.148-0.85c-0.446-0.613-1.06-1.146-1.043-2.002
			c-0.235-1.215-0.468-2.435-0.706-3.649c0.728-0.88,1.525-1.587,2.795-1.071c0.586,1.18,1.724,0.98,2.735,1.085
			C271.261,303.515,271.29,303.802,271.292,304.086z"/>
		<path fill="#BDAC98" d="M273.816,308.531c-1.449,0.448-2.332,1.455-2.808,2.862c-1.167-0.478-1.594-1.407-1.601-2.595
			c0.543-1.259,1.492-1.888,2.88-1.832C273.306,306.994,274.084,307.255,273.816,308.531z"/>
		<path fill="#827769" d="M272.288,306.97c-0.959,0.611-1.922,1.221-2.88,1.831c-0.313,0-0.624-0.002-0.94-0.006
			c0.667-1.207,0.944-2.803,2.81-2.825C271.618,306.303,271.952,306.638,272.288,306.97z"/>
		<path fill="#83786A" d="M248.604,323.451c0.127,1.58,0.832,2.753,2.373,3.329c-0.06,0.269-0.17,0.516-0.331,0.739
			c-1.566,0.123-3.105,4.118-4.702,0.033c0.09-0.333,0.211-0.653,0.355-0.965c0.237-0.689,0.082-1.376-0.029-2.063
			c-0.072-0.591,0.018-1.138,0.345-1.64C247.518,322.242,248.061,322.839,248.604,323.451z"/>
		<path fill="#FDFDFD" d="M108.942,71.724c-1.463-1.18-1.031-2.835-1.037-4.345c-0.03-7.784,0.241-15.585-0.115-23.356
			c-0.189-4.153,1.412-4.777,5.078-4.748c20.304,0.162,40.612,0.077,60.921,0.077c16.713,0,33.431,0.11,50.142-0.087
			c3.561-0.042,4.562,0.936,4.379,4.429c-0.489,9.316,0.517,18.663-0.529,27.976"/>
		<path fill="#1F2325" d="M167.374,130.048c-8.854,1.618-17.778,1.113-26.694,0.912c3.513-2.238,7.399-0.62,11.088-1.029
			c2.266-0.252,4.574-0.106,6.862-0.14C161.548,129.876,164.461,129.964,167.374,130.048z"/>
		<path fill="#1F2325" d="M136.967,130.963c-2.655,0.469-5.221,0.244-7.658-0.976C131.87,130.227,134.637,128.896,136.967,130.963z"
			/>
		<path fill="#1F2325" d="M117.102,127.441c-1.619-0.589-3.348-0.944-4.643-2.205C114.362,125.229,116.193,125.367,117.102,127.441z
			"/>
		<path fill="#1F2325" d="M129.384,130.037c-1.792,0.255-3.444-0.197-5.043-0.968C126.066,129.162,127.998,128.188,129.384,130.037z
			"/>
		<path fill="#1E2427" d="M98.283,120.02c-2.024-0.512-4.092-0.914-5.844-2.164C94.708,117.712,96.861,117.888,98.283,120.02z"/>
		<path fill="#1E2427" d="M89.863,117.073c-1.666-0.671-3.329-1.344-4.998-2.018C86.898,114.825,88.787,114.955,89.863,117.073z"/>
		<path fill="#1F1F1F" d="M271.277,174.873c6.469,17.037,4.99,33.397-4.875,48.7c-2.441,3.801-5.238,8.423-11.274,7.406
			c12.04-6.501,15.905-17.752,17.066-30.218c0.881-9.443,0.223-18.867-3.634-27.779
			C270.256,172.481,270.683,173.802,271.277,174.873z"/>
		<path fill="#202020" d="M231.82,176.707c2.163-0.502,2.268-3.647,4.778-3.693c-1.146,1.636-2.062,3.511-3.476,4.872
			c-9.76,9.438-12.217,21.095-10.911,34.059c0.296,2.952,1.964,5.153,3.128,7.647c0.411,0.486,0.356,0.907-0.17,1.267
			c-7.098-5.488-6.016-13.295-5.276-20.593C220.828,191.068,225.245,183.254,231.82,176.707z"/>
		<path d="M257.166,234.78c-4.999,1.238-10,1.707-15.002,0.021c-0.493-0.578-1.655-0.32-1.81-1.135
			c-0.23-1.241,0.868-1.431,1.744-1.568c1.352-0.217,2.738-0.003,4.094-0.243c0.818-0.35,1.802-0.147,2.555-0.731
			c0.946-0.018,1.841-1.636,2.827-0.076C252.762,233.297,257.607,230.104,257.166,234.78z"/>
		<path fill="#232323" d="M248.746,231.122c-0.646,0.332-1.294,0.669-1.941,1.004c-2.683,0.729-5.51-0.047-8.204,0.797
			c-0.683,0.219-1.669,0.155-2.245-0.28c-4.176-3.173-8.603-6.104-11.164-10.923c0.017-0.29,0.01-0.575-0.021-0.862
			c0.058-0.424,0.111-0.843,0.17-1.267c2.933,3.146,7.498,4.438,9.279,9.073c0.764,1.999,3.996,2.057,6.27,2.287
			C243.485,231.213,246.125,231.085,248.746,231.122z"/>
		<path fill="#313131" d="M252.511,201.358c0,0.935,0.053,1.871-0.017,2.8c-0.061,0.874,0.133,1.989-1.197,2.133
			c-1.713,0.185-1.572-1.138-1.623-2.178c-0.09-1.866-0.146-3.734-0.098-5.604c0.029-1.117-0.547-2.84,1.389-2.818
			c1.784,0.024,1.46,1.681,1.533,2.865C252.561,199.489,252.511,200.425,252.511,201.358z"/>
		<path fill="#0A0606" d="M271.277,174.873c-0.904-0.632-1.811-1.261-2.717-1.891c-0.197-0.273-0.239-0.563-0.12-0.877
			c0.334-1.573,0.665-3.149,1-4.724c0.616,0.308,1.229,0.616,1.842,0.926C271.764,170.496,272.945,172.685,271.277,174.873z"/>
		<path fill="#3A342E" d="M232.724,128.082c0.029,0.271,0.029,0.546,0.002,0.816c-1.567-0.016-3.134-0.026-4.7-0.04
			c0.025-0.245,0.02-0.485-0.011-0.722C229.584,128.117,231.154,128.1,232.724,128.082z"/>
		<path fill="#1F1F1F" d="M105.11,226.088c-0.043,0.415-0.087,0.836-0.134,1.256c-7.543-4.809-7.08-12.509-6.392-19.711
			c0.923-9.64,3.513-18.926,9.889-26.719c1.701-2.083,3.509-3.923,5.907-5.154c0.44,0.379,0.483,0.803,0.134,1.266
			c-10.449,10.072-13.571,22.904-13.896,36.774C100.512,218.458,101.821,222.643,105.11,226.088z"/>
		<path fill="#252525" d="M114.517,177.022c-0.044-0.417-0.087-0.84-0.134-1.263c4.269-2.953,8.67-5.569,14.105-5.6
			c7.234-1.076,10.498-0.836,12.221,4.688c3.911,7.791,7.923,15.535,6.582,24.741c-0.248,1.702,0.057,3.49-1.977,4.311
			c0.156-9.617-0.784-18.941-5.771-27.561c-2.205-3.804-5.221-4.945-9.212-4.684C124.582,172.027,119.43,174.188,114.517,177.022z"
			/>
		<path fill="#212121" d="M125.827,202.414c0,1.098,0.097,1.886-0.02,2.64c-0.167,1.072,0.434,2.795-1.582,2.652
			c-1.527-0.11-1.248-1.499-1.319-2.522c-0.057-0.765-0.174-1.581,0.016-2.309c0.47-1.826-1.401-5.154,1.512-5.196
			C126.793,197.646,125.275,200.987,125.827,202.414z"/>
		<path fill="#0D0B0B" d="M140.707,174.847c-2.977-4.402-7.34-5.215-12.219-4.688c1.215-1.45,2.884-0.812,4.377-0.912
			c1.408-0.097,2.925,0.127,3.147-1.884c2.826-0.177,5.144,0.407,5.641,3.729C141.336,172.343,141.023,173.595,140.707,174.847z"/>
		<path fill="#090404" d="M114.372,231.988c-1.869,1.556-3.741,0.304-5.612,0c-0.313-0.914-0.628-1.834-0.939-2.756
			C110.391,229.235,113.354,228.312,114.372,231.988z"/>
		<path fill="#070202" d="M225.191,221.724c2.984,3.087,7.077,4.896,9.475,8.745c1.539,2.482,4.567,1.38,6.986,1.554
			c1.714,0.121,3.437,0.074,5.152,0.1c-1.291,1.326-2.952,0.614-4.448,0.809c-2.677,0.349-0.131,1.244-0.192,1.869
			c-0.627,0-1.253,0.001-1.879,0.001c-5.228-1.123-9.68-3.8-13.99-6.82c-1.614-1.122-2.771-2.396-2.912-4.414
			C223.983,222.95,224.59,222.339,225.191,221.724z"/>
		<path fill="#434343" d="M134.269,230.965c0.8-1.606,2.102-2.736,3.556-3.72c0.614,0.114,0.981,0.484,1.107,1.094
			C137.836,230.025,136.211,230.774,134.269,230.965z"/>
		<path fill="#585858" d="M138.932,228.339c-0.367-0.365-0.738-0.728-1.107-1.092c0.889-0.883,1.782-1.766,2.673-2.646
			C140.654,226.129,139.899,227.274,138.932,228.339z"/>
		<path fill="#24211D" d="M175.869,295.351c13.242-2.188,24.677,4.045,36.629,7.803c1.094,0.349,2.237,0.971,1.744,2.279
			c-0.504,1.337-1.812,0.874-2.834,0.546c-2.373-0.762-4.801-1.412-7.07-2.415c-12.534-5.556-25.529-6.481-38.899-4.129
			c-1.141,0.198-2.682,0.825-3.04-0.986c-0.418-2.122,1.478-2.142,2.746-2.279C168.707,295.788,172.293,295.609,175.869,295.351z"/>
		<path fill="#DCCAB3" d="M68.335,282.667c0.83-1.284-0.418-1.516-0.948-2.079c-0.496-0.569-1.388-1.135-1.39-1.707
			c-0.007-0.97,1.003-1.015,1.757-0.748c2.231,0.784,5.088,0.621,5.951,3.604c0.858,2.955,5.862,0.682,5.855,4.673
			c-2.349,0.704-4.503,1.792-6.475,3.254c-0.675,0.152-1.32,0.087-1.926-0.256c-0.298-0.329-0.492-0.716-0.591-1.148
			c1.5-2.768-2.137-3.551-2.229-5.625"/>
		<path fill="#C6B5A1" d="M221.469,321.845c-0.087-2.823,1.465-3.398,3.8-2.628c1.29,0.427,2.492,1.107,3.733,1.676
			c0.502,0.469,0.596,1.043,0.459,1.683c-0.159,0.379-0.399,0.707-0.688,0.999c-1.144,0.874-1.422,2.512-2.797,3.196
			c-1.33,0.651-2.632,0.825-3.854-0.245C221.182,325.064,220.267,323.599,221.469,321.845z"/>
		<path fill="#DAC7B1" d="M228.955,322.932c0.017-0.679,0.03-1.357,0.046-2.037c0.466-6.315,4.287-1.831,6.646-2.058
			c0.303,0.313,0.453,0.688,0.47,1.122c-0.18,1.257-0.43,2.497-0.944,3.674c-0.224,0.379-0.502,0.709-0.822,1.011
			c-1.227,1.224-2.625,1.646-4.279,0.939C228.986,325.002,228.057,324.347,228.955,322.932z"/>
		<path fill="#D4C2AC" d="M153.862,323.818c-1.891-1.292-3.778-2.586-5.669-3.879c3.236-2.965,6.788-1.702,10.316-0.762
			c-0.677,1.175,1.023,2.111,0.333,3.291c-0.626,0.871-1.682,0.671-2.518,1.021c-0.495,0.228-0.981,0.481-1.496,0.664
			C154.444,324.22,154.119,324.114,153.862,323.818z"/>
		<path fill="#B8A895" d="M73.045,289.114c1.609-2.253,3.564-3.677,6.519-2.706c1.001,1.34,0.918,3.494,3.03,3.999
			c-0.336,0.201-0.67,0.396-1.01,0.593c-0.724,1.446-1.985,1.348-3.288,1.146c-0.841-0.106-1.677-0.263-2.479-0.561
			C74.658,291.029,73.443,290.528,73.045,289.114z"/>
		<path fill="#B2A390" d="M98.422,306.927c-0.908,0.494-1.832,0.582-2.764,0.068c-0.677-0.529-2.183-0.713-0.876-2.075
			c0.287-0.256,0.318-0.519,0.073-0.757c-0.354-0.344-0.734-0.403-1.127-0.047c-0.798-0.037-1.521-0.208-1.888-1.028
			c-0.284-0.646,0.05-1.123,0.423-1.594c0.719-0.561,1.156-1.732,2.421-1.14c1.137,2.413,6.061,0.449,5.547,4.773
			c-0.466,0.514-0.117,1.418-0.865,1.796C99.053,306.924,98.736,306.924,98.422,306.927z"/>
		<path fill="#C1B19D" d="M94.685,300.354c-0.681,0.627-1.36,1.251-2.043,1.876c-1.188-0.572-2.263-1.525-3.739-1.035
			c-0.551,0.175-1.096,0.354-1.654,0.486c-0.404,0.045-0.748-0.081-1.03-0.369c0-0.627,0-1.256,0.001-1.879
			c-0.414-1.077,0.122-1.65,1.07-2.006C91.262,295.838,93.609,296.77,94.685,300.354z"/>
		<path fill="#A49685" d="M117.16,316.278c1.272-2.348,4.502,1.381,5.515-1.772c0.18,0.791,0.286,1.62,1.157,2.016
			c0.923-0.167,1.695,0.048,2.214,0.885c0.243,0.957,0.011,1.691-0.97,2.084c-0.455,0.055-0.834-0.091-1.156-0.407
			c-1.619,0.049-2.971,0.665-4.03,1.894c-0.595-0.008-1.188-0.018-1.781-0.026C117.983,319.357,118.775,317.579,117.16,316.278z"/>
		<path fill="#C7B6A2" d="M221.469,321.845c0.32,1.573,0.643,3.146,0.962,4.724c-0.192,0.094-0.388,0.191-0.58,0.289
			c-1.915-0.291-3.893-0.178-5.759-0.855c-1.549-1.456-0.997-2.974-0.143-4.509c0.988-1.156,2.035-2.171,3.757-1.491
			C220.288,320.612,220.882,321.229,221.469,321.845z"/>
		<path fill="#CAB9A4" d="M184.822,319.03c0.859,0.631,1.446,2.031,2.893,1.039c1.484,0.841,1.321,2.024,0.701,3.312
			c-0.421,0.794-0.968,1.464-1.787,1.874c-0.866,0.345-1.729,0.328-2.604,0.029c-1.233-0.592-2.159-1.499-2.786-2.71
			c-0.044-0.215-0.083-0.428-0.124-0.644C182.295,320.895,183.002,319.246,184.822,319.03z"/>
		<path fill="#A79988" d="M68.342,282.551c2.334,1.152,5.516,1.881,2.804,5.559c-2.894-1.799-0.314,1.583-1.414,1.486
			c-0.139,0.147-0.276,0.301-0.42,0.448c-4.718,0.703-1.588-3.168-2.683-4.583C67.732,284.805,66.998,283.07,68.342,282.551z"/>
		<path fill="#C9B9A4" d="M235.584,319.893c0.021-0.352,0.04-0.7,0.061-1.055c2.167-0.886,4.086-0.69,5.584,1.294
			c0.548,0.486,0.741,1.112,0.712,1.824c-0.073,0.46-0.237,0.886-0.488,1.283c-0.65,0.734-1.439,1.155-2.452,1.054
			C237.184,323.354,235.236,322.51,235.584,319.893z"/>
		<path fill="#CDBCA6" d="M287.363,281.642c-0.361-0.327-0.727-0.659-1.092-0.985c0.23-2.976,1.782-4.856,4.672-5.628
			c0.656,0.12,1.082,0.511,1.325,1.117c0.018,1.094-0.708,1.84-1.252,2.675c-0.013,0.787-0.148,1.514-0.972,1.89
			c-0.92-0.956-0.146-2.033-0.363-2.756C289.148,279.074,289.805,281.312,287.363,281.642z"/>
		<path fill="#AC9E8C" d="M291.979,276.104c-0.345-0.359-0.689-0.715-1.036-1.074c1.108-3.121,2.867-4.164,5.697-1.766
			c-0.31,0.604-0.616,1.208-0.922,1.812c-0.54,0.663-0.961,1.476-1.941,1.615C293.09,276.764,292.487,276.591,291.979,276.104z"/>
		<path fill="#9C8F7E" d="M78.746,291.002c0.947,0.595,1.893,0.587,2.838-0.003c0.649,1.116,1.155,2.269,0.943,3.605
			c0.214,0.237,0.3,0.486,0.258,0.745c-0.039,0.267-0.093,0.401-0.153,0.403c-0.373,0.251-0.777,0.4-1.225,0.449
			c-1.626-0.021-3.176-0.219-4.169-1.747C76.656,292.834,77.365,291.771,78.746,291.002z"/>
		<path fill="#D4C2AC" d="M197.061,320.025c-0.311-0.935-0.622-1.868-0.93-2.801c3.318-1.181,5.951-0.564,7.519,2.851
			c0.244,1.248-0.603,1.345-1.483,1.403c-1.148-0.172-1.859-1.324-3.073-1.347C198.408,320.178,197.701,320.603,197.061,320.025z"/>
		<path fill="#C1B19D" d="M125.633,317.317c-0.603-0.268-1.202-0.53-1.803-0.797c2.484-4.512,3.641,1.178,5.597,0.722
			c0.307,0.303,0.617,0.604,0.924,0.906c0.558,0.601,0.583,1.269,0.259,1.986c-1.413,0.939-2.636,0.738-3.662-0.616
			C126.537,318.771,126.446,317.833,125.633,317.317z"/>
		<path fill="#B9AA97" d="M277.862,294.796c-1.461,0.118-2.76,0.572-3.707,1.761c-0.077,1.173-0.614,1.899-1.871,1.93
			c-2.734-3.657,2.752-3.293,2.761-5.61C275.788,293.797,278.041,292.527,277.862,294.796z"/>
		<path fill="#A09382" d="M241.203,321.91c0.01-0.594,0.018-1.187,0.025-1.778c0.928-0.424,1.855-0.851,2.78-1.28
			c1.471,0.958,2.942,1.911,2.85,3.977c0.017,0.64,0.034,1.278,0.053,1.923c-0.863,0.468-1.584,0.026-2.313-0.35
			C243.366,323.703,242.144,322.995,241.203,321.91z"/>
		<path fill="#C0B09C" d="M219.701,319.999c-0.981,0.658-1.969,1.318-2.95,1.979c-0.538,0.371-1.139,0.589-1.771,0.74
			c-0.645,0.051-1.246-0.077-1.788-0.437c-1.125-1.176,0.729-1.5,0.686-2.366C215.822,319.701,217.816,316.163,219.701,319.999z"/>
		<path fill="#AFA08E" d="M82.475,295.711c0.02-0.37,0.035-0.737,0.055-1.106c3.027-1.476,4.016,0.467,4.759,2.822
			c-0.356,0.668-0.714,1.337-1.07,2.002c-0.626-0.604-1.248-1.21-1.873-1.812C83.814,296.892,82.812,296.63,82.475,295.711z"/>
		<path fill="#C8B7A2" d="M201.78,320.981c0.763-0.021,1.455-0.178,1.867-0.908c1.238,0.266,2.472,0.527,3.708,0.794
			c0.864-0.211,1.237,0.275,1.438,1.006c-0.01,0.458-0.147,0.873-0.433,1.233c-1.881,0.852-3.912,0.198-5.851,0.571
			C200.787,323.18,199.703,322.51,201.78,320.981z"/>
		<path fill="#C7B6A2" d="M266.383,306.864c0.946,0.361,1.114,1.123,1.048,2.003c-0.293-0.033-0.581-0.057-0.876-0.064
			c-1.68-0.221-2.016,2.17-3.72,1.899c1.18-1.845-0.415-3.155-0.909-4.678C263.415,306.307,264.9,306.589,266.383,306.864z"/>
		<path fill="#C9B8A3" d="M246.858,322.831c-0.419-1.7-3.054-1.827-2.845-3.978c-0.045-0.201-0.062-0.406-0.054-0.608
			c0.119-0.585,0.466-0.945,1.054-1.062c0.308-0.006,0.613-0.014,0.92-0.022c1.049,0.752,0.856,1.928,1.035,2.979
			c0.841,0.958,2.206,1.666,1.635,3.316C248.02,323.247,247.44,323.037,246.858,322.831z"/>
		<path fill="#A09282" d="M159.495,320.188c0.896-0.096,1.796-0.19,2.694-0.283c0.969-0.948,2.117-1.394,3.48-1.229
			c1.17,0.669,0.612,1.842,0.822,2.795c-0.447,1.34-0.59,3.128-2.801,1.941c-0.958-1.382-2.535-0.697-3.79-1.112
			C159.096,321.723,158.747,321.056,159.495,320.188z"/>
		<path fill="#AB9D8B" d="M213.874,319.915c1.369,1.303-1.013,1.133-0.787,1.995c-0.465,0.485-1.038,0.585-1.671,0.466
			c-0.379-0.134-0.728-0.327-1.056-0.554c-0.858-0.801-2.049-1.058-2.964-1.773C209.516,318.027,211.699,319.203,213.874,319.915z"
			/>
		<path fill="#847A6C" d="M99.366,306.924c0.028-0.725,0.076-1.438,0.862-1.796c0.92,0.337,1.842,0.673,2.762,1.007
			C102.368,309.067,100.722,307.336,99.366,306.924z"/>
		<path fill="#CFBEA8" d="M170.743,319.023c0.024,0.303,0.04,0.607,0.048,0.909c-0.128,0.159-0.256,0.317-0.384,0.476
			c-0.364,0.186-0.756,0.279-1.165,0.297c-1.401-0.057-2.062-1.11-2.779-2.076c-0.129-0.151-0.256-0.303-0.385-0.457
			C168.509,313.676,168.943,320.075,170.743,319.023z"/>
		<path fill="#CFBEA8" d="M165.934,319.261c-1.247,0.218-2.496,0.432-3.742,0.644c-0.266-4.064,2.411-1.552,3.889-1.73l-0.005-0.002
			C166.36,318.579,166.331,318.944,165.934,319.261z"/>
		<path fill="#E1CEB6" d="M246.967,320.139c-1.168-0.709-0.988-1.88-1.033-2.979c0.322-0.289,0.646-0.579,0.969-0.869
			c1.125,0.712,0.856,1.889,0.972,2.931C247.576,319.53,247.27,319.835,246.967,320.139z"/>
		<path fill="#BCAC98" d="M245.014,317.184c-0.35,0.354-0.701,0.707-1.056,1.058c-0.915-0.061-1.835-0.114-3.444-0.219
			C242.271,316.675,243.375,315.618,245.014,317.184z"/>
		<path fill="#CEBCA7" d="M180.12,320.007c0.082,0.767,0.223,1.509,0.995,1.927l-0.013-0.027c0.211,0.952-0.38,1.354-1.133,1.648
			c-1.277,0.069-2.646,0.275-2.623-1.676l-0.032,0.051C178.179,321.183,178.387,319.49,180.12,320.007z"/>
		<path fill="#A19483" d="M159.495,320.188c0.033,0.748,0.254,1.396,0.997,1.744c0.204,1.235-0.552,1.346-1.483,1.259
			c-0.156-0.135-0.314-0.267-0.47-0.404c0.695-1.207-2.972-2.382-0.029-3.612C158.837,319.515,159.166,319.852,159.495,320.188z"/>
		<path fill="#A29483" d="M180.12,320.007c-0.935,0.637-1.871,1.279-2.804,1.919c0.346-1.235,0.69-2.473,1.038-3.707
			C179.521,318.249,180.164,318.788,180.12,320.007z"/>
		<path fill="#9E9080" d="M67.387,280.588c0.54-0.062,1.471-0.323,1.564-0.147c0.426,0.804,0.515,1.699-0.616,2.144
			C69.245,281.343,64.848,282.6,67.387,280.588z"/>
		<path fill="#958879" d="M65.499,285.368c-0.901-0.921-1.804-1.844-2.706-2.767C65.021,282.236,65.819,283.254,65.499,285.368z"/>
		<path fill="#C1B19D" d="M293.807,276.038c0.635-0.321,1.271-0.645,1.907-0.965c-0.557,1.271,2.017,4.226-1.974,3.646
			C293.176,277.81,293.027,276.914,293.807,276.038z"/>
		<path fill="#A09382" d="M287.363,281.642c0.758-1.286,1.518-2.578,2.3-3.903c0.81,0.919,0.237,1.995,0.38,2.972
			c-0.743,0.408-0.893,1.106-0.908,1.864C288.387,282.564,287.665,282.499,287.363,281.642z"/>
		<path fill="#B2A391" d="M127.552,323.76c1.047,0.003,2.163,0.2,2.806-0.961c0.668,0.327,1.875,0.609,1.908,0.994
			c0.131,1.514-1.229,0.783-1.938,0.907c-0.901,0.153-1.849,0.037-2.777,0.037C127.551,324.406,127.552,324.085,127.552,323.76z"/>
		<path fill="#B1A28F" d="M138.801,321.829c1.004,0.576,1.982,1.179,2.387,2.546c-1.846,0.198-2.61-1.933-4.282-1.443
			C137.18,321.956,138.027,321.956,138.801,321.829z"/>
		<path fill="#A79988" d="M131.211,320.979c-0.28-0.313-0.562-0.629-0.845-0.94c-0.005-0.631-0.011-1.264-0.019-1.892
			c1.08,0.004,1.855,0.429,1.852,1.603C132.197,320.314,132.743,321.547,131.211,320.979z"/>
		<path fill="#AD9E8C" d="M174.529,332.204l-0.466-0.004l-0.464,0.042c-0.31-0.326-0.617-0.65-0.932-0.976
			c-0.906-0.254-1.29-0.891-1.337-1.787c0.123-0.817,0.484-1.524,1.008-2.16c0.573-0.553,1.252-0.958,1.903-1.407
			c0.644-0.447,1.327-0.819,2.087-1.034c1.097-0.278,2.252-0.371,3.222-1.058c0.345-0.195,0.717-0.318,1.114-0.359
			c1.529,0.189,2.394,1.482,3.626,2.17c0.212,0.377,0.344,0.781,0.396,1.211c0.017,0.668-0.148,1.282-0.566,1.816
			c-0.342,0.258-0.728,0.433-1.147,0.53c-1.582-0.173-3.267,0.21-4.717-0.791C176.393,329.059,175.599,330.767,174.529,332.204z"/>
		<path fill="#D2C0AA" d="M182.979,328.47c0.3-0.012,0.601-0.031,0.898-0.064c1.637-0.563,3.329-0.904,5.034-1.21
			c1.46,0.584,2.19,1.528,1.56,3.146c-2.084,0.039-3.317,2.592-5.651,1.894c-1.203,0.47-2.597,1.5-2.773-0.963
			C182.672,330.442,181.902,329.149,182.979,328.47z"/>
		<path fill="#887C6E" d="M187.686,336.044c-0.896-0.377-1.789-0.751-2.686-1.127c0.338-0.781,1.039-0.799,1.736-0.827
			C187.847,334.358,189.058,334.579,187.686,336.044z"/>
		<path fill="#C1AE9A" d="M175.959,335.952c-0.166-0.621-0.33-1.239-0.494-1.862c0.554-0.344,1.107-0.684,1.662-1.022
			c0.165,0.551,0.377,1.096,0.484,1.66C177.892,336.212,176.713,335.81,175.959,335.952z"/>
		<path fill="#877B6D" d="M102.245,311.482c0.551,0.324,1.104,0.644,1.659,0.97c-1.177,1.038-2.399-0.071-3.592,0.08
			C100.658,311.643,101.462,311.579,102.245,311.482z"/>
		<path fill="#7D7265" d="M149.146,324.719c1.233,0.355,2.469,0.713,3.704,1.073c0.19,0.831-0.146,1.338-0.962,1.552
			c-0.281,0.073-0.567,0.132-0.858,0.174C149.765,327.008,149.109,326.096,149.146,324.719z"/>
		<path fill="#7F7467" d="M143.455,323.784c0.933,0.012,1.869,0.025,2.804,0.037c0.139,0.871-0.123,1.557-0.935,1.983
			C144.179,325.609,143.404,325.077,143.455,323.784z"/>
		<path fill="#8A7F70" d="M112.535,316.296c-0.014-0.623-0.024-1.249-0.036-1.875c0.656-0.534,1.319-0.525,1.983-0.008
			c0.297,0.954,0.591,1.914,0.888,2.871C114.425,316.956,113.479,316.627,112.535,316.296z"/>
		<path fill="#867A6D" d="M108.993,313.54c-0.138,0.525-0.276,1.048-0.416,1.574c-0.001-0.002-0.312,0.042-0.312,0.042l-0.312-0.024
			c-0.342-0.02-0.491-0.115-0.455-0.288c0.046-0.219,0.113-0.324,0.201-0.324c-0.4-1.001-1.93-1.313-1.674-2.717
			C107.013,312.381,108.003,312.961,108.993,313.54z"/>
		<path fill="#D1BFA9" d="M107.698,314.52c0.141,0.184,0.227,0.39,0.255,0.613c-0.165,0.975-0.327,1.951-1.646,1.965
			C105.657,315.639,106.749,315.121,107.698,314.52z"/>
		<path fill="#897D6F" d="M88.141,300.37c2.137-0.91,3.807-0.694,4.504,1.859c-0.272,0.282-0.537,0.572-0.806,0.858
			c-0.299,0.025-0.595,0.073-0.887,0.131c-0.298-0.022-0.593-0.049-0.887-0.078C88.937,302.551,87.574,302.129,88.141,300.37z"/>
		<path fill="#CEBCA7" d="M246.59,327.466c-0.221-0.004-0.437,0.025-0.647,0.087c-1.676-0.406-2.622,0.804-3.725,1.67
			c-2.606,0.367-4.045-0.661-4.077-3.377c0.246-0.418,0.599-0.718,1.049-0.902c0.688-0.188,1.385-0.306,2.096-0.382
			c0.478-0.046,0.957-0.037,1.438,0C244.312,325.129,246.825,324.484,246.59,327.466z"/>
		<path fill="#B1A290" d="M238.371,325.619c0.569,1.965,2.182,2.813,3.847,3.604c-0.062,0.45-0.119,0.901-0.182,1.35
			c-0.903,0.239-1.807,0.477-2.712,0.71c-1.391-0.922-3.232-1.386-3.541-3.434C235.931,324.448,236.106,324.299,238.371,325.619z"/>
		<path fill="#AFA08D" d="M207.466,334.097c-0.027-0.338-0.053-0.676-0.08-1.012c1.456-0.808,2.356-0.274,2.866,1.187
			c-0.756,0.844-0.511,1.738-0.125,2.64c-0.551-0.008-1.104-0.013-1.652-0.021C207.526,336.182,207.933,334.98,207.466,334.097z"/>
		<path fill="#CCBBA6" d="M207.466,334.097c1.139,0.645,0.773,1.826,1.008,2.797c-1.816-0.146-1.013-2.097-1.956-2.844
			C206.831,334.065,207.15,334.081,207.466,334.097z"/>
		<path fill="#A49685" d="M164.193,322.869c1.58,0.315,1.262-1.243,1.873-1.886c1.763-0.2,1.674,1.227,2.024,2.269
			c0.144,1.308,0.399,2.608,0.439,3.927c-0.812,2.961-2.108,1.511-3.372,0.357c-1.241-0.797-2.481-0.95-3.729-0.013
			c-0.939,0.351-1.192-0.215-1.298-0.973c0.316-1.296,0.835-2.534,1.438-3.706C162.383,321.262,163.33,321.598,164.193,322.869z"/>
		<path fill="#AEA08E" d="M160.303,331.272c-0.483-0.142-1.648,0.456-0.994-0.913c0.945-0.354,0.286-2.436,2.058-1.902
			c0.4,1.661,2.98,1.749,2.8,3.836C162.757,332.407,161.52,331.874,160.303,331.272z"/>
		<path fill="#D1C0AA" d="M165.159,327.54c0.995-0.891,1.834,2.128,2.874,0.112c0.95-0.586,1.277,0.252,1.752,0.758
			c0.201,0.318,0.333,0.664,0.42,1.032c0.002,0.386-0.138,0.717-0.413,0.985c-0.595,0.272-1.189,0.537-1.782,0.81
			C167.099,329.975,164.88,329.717,165.159,327.54z"/>
		<path fill="#7B7164" d="M161.366,328.457c-0.685,0.63-1.37,1.265-2.057,1.902c0.063-0.281,0.068-0.563,0.02-0.845
			c-0.845-1.468-1.169-2.872,0.518-4.012c0.646,0.021,0.88,0.343,0.704,0.959c0.295,0.355,0.587,0.708,0.882,1.064
			C161.407,327.838,161.385,328.144,161.366,328.457z"/>
		<path fill="#D3C1AB" d="M82.475,295.711c1.246,0.026,1.839,0.694,1.87,1.908c-2.488-0.614-0.612,3.104-2.794,2.793
			c-0.331-0.594-0.661-1.188-0.99-1.786c-1.281-2.23,0.535-2.389,1.911-2.846L82.475,295.711z"/>
		<path fill="#B4A492" d="M194.252,334.101c1.554-1.862,3.068,0.779,4.614,0.04c0.227,0.209,0.301,0.413,0.219,0.614
			c-0.08,0.195-0.157,0.299-0.236,0.299c-2.249,0.187-1.451,1.458-0.933,2.62C196.029,337.157,193.544,337.257,194.252,334.101z"/>
		<path fill="#D2C0AA" d="M191.438,330.351c0.989,0.256,2.605-0.124,1.898,1.857c-0.632,0.005-1.26,0.009-1.893,0.014
			C190.378,331.601,191.348,330.973,191.438,330.351z"/>
		<path fill="#B9A996" d="M230.896,334.197c-0.319,0.579-0.64,1.162-0.959,1.742c-0.634,0.572-1.311-0.015-1.965,0.072
			c-0.61-0.025-1.216-0.058-1.824-0.084c-0.41-0.403-0.965-0.551-1.439-0.851c-0.592-0.551-0.938-1.224-1.005-2.033
			c0.006-0.402,0.079-0.793,0.206-1.171c0.403-0.943,0.905-1.81,1.717-2.463c0.351-0.226,0.732-0.303,1.142-0.257
			c1.314,0.644,1.555,2.211,2.641,3.062c0.265,0.287,0.464,0.617,0.606,0.981C230.309,333.527,230.602,333.86,230.896,334.197z"/>
		<path fill="#CFBDA8" d="M230.015,333.195c-0.335-0.016-0.669-0.032-1.006-0.046c-0.799-0.991-0.403-1.793,0.399-2.533
			c1.066-0.707,2.151-1.237,3.361-0.292c1.115,0.918-0.332,1.863,0.021,2.787C231.854,332.781,230.913,332.217,230.015,333.195z"/>
		<path fill="#B4A593" d="M236.515,334.041c-2.022-3.927,1.515-2.237,2.835-2.786c0.035,0.578,0.078,1.152,0.115,1.728
			c-1.23,0.137-1.965,0.753-1.998,2.053C237.146,334.706,236.83,334.375,236.515,334.041z"/>
		<path fill="#B1A28F" d="M218.604,335.994c-1.221,0.423-2.445,1.733-3.642-0.04c-0.051-0.824,0.107-1.601,0.516-2.326
			c0.576-0.863,1.075-1.854,2.409-1.553c0.717,0.56,1.112,1.305,1.335,2.168C219.301,334.927,219.177,335.534,218.604,335.994z"/>
		<path fill="#B8A996" d="M215.85,334.181c-0.009,0.736-0.175,1.392-0.888,1.778c-0.328,0-0.658,0.002-0.99,0.002
			c-0.269-0.285-0.541-0.57-0.811-0.853c0.604-1.389-1.647-1.681-1.156-3.033c0.355-0.302,0.749-0.517,1.199-0.638
			C215.014,331.47,216.778,331.54,215.85,334.181z"/>
		<path fill="#83786A" d="M218.604,335.994c0.036-0.623,0.072-1.241,0.109-1.864c0.727-0.312,1.146,0.101,1.52,0.632
			c0.455,0.955,0.774,1.931,0.217,2.961c-0.576-0.029-1.157-0.06-1.737-0.088C218.676,337.085,218.64,336.54,218.604,335.994z"/>
		<path fill="#9E9080" d="M123.922,319.086c0.255,0.021,0.507,0.028,0.764,0.026c0.681,0.433,1.5,0.796,0.984,1.856
			c-1.399-0.061-1.84,0.771-1.864,1.989C120.999,321.587,123.224,320.356,123.922,319.086z"/>
		<path fill="#AD9E8C" d="M125.668,320.973c-0.328-0.621-0.655-1.233-0.983-1.858c0.74-0.375,0.956-1.024,0.946-1.799
			c0.768-0.071,1.45,0.071,1.9,0.776c-1.376,0.972-0.745,2.478-0.998,3.75C126.245,321.551,125.957,321.259,125.668,320.973z"/>
		<path fill="#D1C0AA" d="M169.79,330.428c0.012-0.329,0.019-0.662,0.027-0.995c0.655-0.533,1.323-0.54,2.006-0.053
			c0.28,0.631,0.563,1.258,0.846,1.886c-0.106,1.723-1.076,2.821-2.565,3.542C170.001,333.348,169.896,331.889,169.79,330.428z"/>
		<path fill="#A29484" d="M151.886,327.344c0.322-0.52,0.644-1.038,0.965-1.555c0.337-0.658,0.673-1.313,1.012-1.971
			c0.276,0.016,0.549,0.053,0.82,0.115c0.978,0.26,1.742,0.883,2.514,1.497c0.462,0.432,0.807,0.934,0.972,1.548
			c0.245,1.45-0.896,2.284-1.495,3.362l0.03,0.035c-1.772,0.341-2.753-0.803-3.717-1.974
			C152.618,328.047,152.253,327.696,151.886,327.344z"/>
		<path fill="#AFA08E" d="M156.669,330.341c0.321-1.233,0.645-2.46,0.967-3.691c-0.566-1.155,0.095-1.787,0.992-2.318
			c1-0.073,2.039-0.193,1.778,1.364c-1.504,0.954-0.592,2.583-1.079,3.816C158.441,329.788,157.557,330.063,156.669,330.341z"/>
		<path fill="#A59786" d="M220.45,337.723c-0.245-0.925-0.488-1.856-0.736-2.783c0.881-2.272,2.116-3.629,4.599-1.776
			c0.289,0.562,0.577,1.127,0.866,1.689c-0.136,1.091-2.669,0.093-1.8,2.056C222.403,337.182,221.433,337.451,220.45,337.723z"/>
		<path fill="#A79988" d="M73.045,289.114c1.037,0.556,2.262,0.836,2.907,1.967c1.268,1.286,0.568,3.123,1.293,4.566
			c-0.002,0.477-0.153,0.898-0.477,1.254c-2.486-2.283-4.969-4.569-7.456-6.854l-0.027,0.037c0.537-0.474,0.774-1.579,1.87-0.871
			C71.784,289.181,72.412,289.146,73.045,289.114z"/>
		<path fill="#BEAF9B" d="M76.771,296.901c0.001-0.343,0.002-0.681,0.005-1.019c-0.396-1.219,0.15-1.472,1.221-1.191
			c1.494,0.363,2.984,0.728,4.477,1.09c-0.712,0.9-2.086,1.355-1.911,2.847c-0.933,0.269-1.866,0.533-2.801,0.806
			C77.431,298.589,77.1,297.741,76.771,296.901z"/>
		<path fill="#A79987" d="M283.512,282.598c1.727,0.281,4.101-0.292,3.73,2.781c-0.59,0.556-1.191,0.556-1.808,0.037
			C284.765,284.497,283.17,284.204,283.512,282.598z"/>
		<path fill="#84796C" d="M285.435,285.417c0.603-0.013,1.204-0.022,1.807-0.035c0.038,0.61,0.079,1.22,0.119,1.831
			c-0.283,0.251-0.565,0.504-0.847,0.754C285.902,287.222,285.189,286.522,285.435,285.417z"/>
		<path fill="#897E6F" d="M246.59,327.466c-1.067-1.54-2.749-1.641-4.372-1.876c-0.069-2.109,1.349-1.951,2.762-1.806
			c0.646,0.32,1.288,0.643,1.932,0.964C248.098,325.808,248.136,326.727,246.59,327.466z"/>
		<path fill="#232323" d="M125.25,50.797c-1.197-0.976-3.36,2.139-3.694-0.718c-0.144-1.251,1.633-2.339,3.295-2.722
			c2.39-0.555,2.68,0.874,2.678,2.57c-0.002,2.325-0.192,4.652-0.165,6.972c0.014,0.959-0.517,2.196,1,2.738
			c0.9,0.321,2.943-0.721,2.419,1.47c-0.331,1.375-1.979,1.222-3.183,1.467c-1.91,0.387-3.729-0.137-5.499-0.629
			c-0.879-0.246-1.536-1.918-0.373-1.94c4.868-0.091,2.603-3.944,3.456-6.066C125.561,53.013,125.25,51.812,125.25,50.797z"/>
		<path fill="#191919" d="M157.64,61.575c-2.236,2.953-5.183,1.562-7.337,0.487c-3.426-1.706-4.633-5.018-3.818-8.878l-0.064,0.064
			c2.6-0.411,2.038-3.113,3.232-4.583c1.02-1.263,2.018-2.158,3.366-1.442c1.886,1.004,0.15,2.083-0.436,2.902
			c-0.88,1.234-1.34,2.383-0.536,3.786c0.662,1.103-0.543,1.813-0.569,2.771c-0.177,3.63,2.352,3.259,4.688,3.162
			C157.043,60.095,158.005,60.278,157.64,61.575z"/>
		<path fill="#191919" d="M186.762,61.575c-2.5,2.85-5.351,1.56-7.729,0.172c-2.762-1.615-4.497-4.178-2.936-7.649
			c0.874-1.94,1.942-3.795,2.9-5.701c0.68-1.346,1.943-1.812,3.094-1.209c1.937,1.012,0.228,2.092-0.368,2.915
			c-0.89,1.236-1.366,2.393-0.553,3.81c0.659,1.103-0.544,1.814-0.569,2.771c-0.177,3.631,2.351,3.258,4.688,3.163
			C186.165,60.095,187.125,60.278,186.762,61.575z"/>
		<path fill="#1D1D1E" d="M207.155,50.375c-1.205-0.481-2.634,2.292-3.441,0.062c-0.484-1.329,1.144-2.422,2.442-2.903
			c1.562-0.581,2.886,0.062,3.092,1.742c0.266,2.132,0.211,4.307,0.219,6.462c0.006,1.932-0.789,4.021,2.613,4.136
			c1.854,0.064,1.004,1.546-0.022,2.045c-2.524,1.23-5.149,0.806-7.712-0.002c-0.347-0.11-0.705-0.571-0.807-0.936
			c-0.192-0.687,0.191-1.346,0.896-1.265c4.398,0.502,2.041-3.167,3.012-4.762C208.004,53.39,208.447,51.826,207.155,50.375z"/>
		<path fill="#232424" d="M166.759,53.393c1.422-0.098,2.509-0.196,3.596-0.247c1.6-0.073,3.008,0.657,2.916,2.222
			c-0.084,1.413-1.648,0.826-2.685,0.891c-2.165,0.139-4.318,0.551-6.48,0.592c-1.021,0.02-2.912,0.756-2.796-1.304
			c0.084-1.537,1.28-2.363,2.993-2.174C165.223,53.475,166.163,53.393,166.759,53.393z"/>
		<path fill="#202121" d="M197.938,51.979c0.475-2.813-1.036-2.265-2.878-1.931c-1.562,0.282-2.864,2.835-4.723,0.709
			c-0.532-0.615-1.418-1.176-0.54-2.281c1.535-1.937,3.558-1.319,5.494-1.252c0.15,0.005,0.303,0.049,0.451,0.076
			c5.077-0.414,5.147-0.317,4.145,5.783c-0.283,0.329-0.565,0.652-0.854,0.98C197.274,54.101,197.458,53.115,197.938,51.979z"/>
		<path fill="#202121" d="M144.446,53.051c-0.279,0.34-0.558,0.677-0.837,1.012c-1.764,0.035-1.577-0.948-1.097-2.085
			c0.475-2.813-1.037-2.265-2.88-1.93c-1.557,0.281-2.864,2.835-4.723,0.708c-0.535-0.614-1.418-1.176-0.541-2.281
			c1.536-1.936,3.557-1.32,5.498-1.252c0.15,0.005,0.3,0.046,0.45,0.074C145.59,46.857,146.245,47.769,144.446,53.051z"/>
		<path fill="#2A2B2B" d="M142.51,51.979c0.104,0.833,0.207,1.667,1.098,2.085c-1.466,2.865-2.932,5.733-4.674,9.136
			C136.614,58.017,140.31,55.218,142.51,51.979z"/>
		<path fill="#2A2B2B" d="M197.938,51.979c0.105,0.833,0.205,1.667,1.096,2.085c-1.463,2.865-2.931,5.733-4.673,9.136
			C192.041,58.017,195.737,55.218,197.938,51.979z"/>
		<path fill="#484849" d="M179.391,56.121c0.594-0.736,1.187-1.475,1.78-2.206c2.359-0.223,4.55,0.307,6.592,1.497
			c0.245,0.733,0.42,1.475,0.191,2.249C184.819,58.71,182.167,57.071,179.391,56.121z"/>
		<path fill="#484849" d="M150.266,56.121c0.595-0.736,1.188-1.475,1.781-2.206c2.362-0.223,4.555,0.307,6.592,1.497
			c0.246,0.735,0.422,1.475,0.191,2.249C155.695,58.706,153.042,57.071,150.266,56.121z"/>
		<path fill="#3B3B3B" d="M187.732,57.625c0.01-0.739,0.02-1.475,0.026-2.211c0.964,2.263,1.82,4.51-0.997,6.163
			c-0.367-0.876-1.193-0.88-1.95-1.018C184.258,58.069,186.823,58.664,187.732,57.625z"/>
		<path fill="#3B3B3B" d="M158.607,57.625c0.011-0.739,0.021-1.475,0.029-2.211c0.972,2.266,1.815,4.51-0.999,6.163
			c-0.368-0.876-1.192-0.88-1.946-1.018C155.135,58.069,157.701,58.664,158.607,57.625z"/>
		<path fill="#373738" d="M199.887,53.084c0.26-3.096,0.521-6.191-4.142-5.783c1.571-0.837,3.845-1.464,4.655-0.139
			C201.403,48.792,201.81,51.27,199.887,53.084z"/>
		<path fill="#373738" d="M144.446,53.051c0.31-3.119,0.49-6.148-4.131-5.752c1.504-1.102,3.232-0.54,4.866-0.671
			c0.963,2.102,1.159,4.191-0.105,6.255C144.872,52.957,144.661,53.014,144.446,53.051z"/>
		<path fill="#363737" d="M207.155,50.375c2.036,1.403,1.425,2.975,0.292,4.581C207.349,53.431,207.25,51.902,207.155,50.375z"/>
		<path fill="#D1BFAA" d="M71.155,289.214c-0.623,0.292-1.249,0.577-1.868,0.87c-0.266-1.579-0.531-3.166-0.909-5.417
			c1.191,1.483,1.98,2.467,2.77,3.445C71.147,288.482,71.152,288.848,71.155,289.214z"/>
		<path fill="#A69887" d="M114.482,314.413c-0.66,0.001-1.324,0.005-1.984,0.01c-0.763-0.04-1.518-0.084-1.908-0.902
			c0.085-0.765,0.172-1.526,0.988-1.913C111.261,313.863,114.317,312.65,114.482,314.413z"/>
		<path fill="#B9AA96" d="M222.431,326.565c1.406,0.201,2.643-0.324,3.868-0.905c0.692,0.546,1.566,0.028,2.298,0.384
			c0.382,0.191,0.675,0.472,0.872,0.855c0.176,0.646,0.09,1.246-0.317,1.794c-0.832,0.894-2.085,0.058-2.972,0.718l0.029-0.019
			c-1.331,1.034-2.495,0.403-3.65-0.357c-0.326-0.317-0.539-0.695-0.639-1.138c-0.006-0.462,0.148-0.861,0.462-1.199
			L222.431,326.565z"/>
		<path fill="#887D6E" d="M229.03,326.661c-0.317-0.021-0.635-0.041-0.953-0.063c-0.766-1.257-0.82-2.51,0.033-3.746
			c0.283-0.005,0.569,0.023,0.843,0.08c0.008,1.24,0.707,1.824,1.884,1.939c0.567,0.585,0.645,1.218,0.171,1.898
			C230.326,327.16,229.668,327.158,229.03,326.661z"/>
		<path fill="#9B8E7E" d="M238.371,325.619c-3.462-0.914-1.252,1.882-1.859,2.826l0.033,0.073c-0.761,0.525-1.467,0.499-2.103-0.215
			c-0.138-0.372-0.187-0.756-0.143-1.146c0.208-1.113,0.188-2.25,0.321-3.373c-0.037-1.384-0.379-2.844,0.961-3.893
			c1.23,1.302,2.459,2.608,3.688,3.91c0.651,0.626,0.618,1.24-0.025,1.845C238.953,325.627,238.66,325.619,238.371,325.619z"/>
		<path fill="#9C8F7E" d="M230.891,326.713c-0.018-0.613-0.034-1.229-0.054-1.842c1.428,0.909,2.052-0.313,2.851-1.074
			c0.859,1.087,1.903,2.125,0.99,3.686l-0.045,0.064C233.237,327.938,231.732,328.799,230.891,326.713z"/>
		<path fill="#C8B7A2" d="M234.678,327.482c-0.332-1.229-0.658-2.455-0.99-3.687c0.312-0.021,0.624-0.025,0.934-0.012
			C236.147,324.996,235.891,326.231,234.678,327.482z"/>
		<path fill="#D4C2AC" d="M194.197,326.612c-0.557,0.01-1.116,0.02-1.677,0.026c-0.792-0.616-1.848-0.938-2.271-1.984
			c-0.026-0.672,0.314-1.139,0.83-1.515c1.615-0.484,2.396-1.823,3.213-3.123c1.358-1.047,1.881,0.332,2.674,0.917
			c0.828,0.601,0.89,1.433,0.699,2.334c-0.461,1.232-1.815,1.623-2.51,2.637C194.892,326.211,194.57,326.446,194.197,326.612z"/>
		<path fill="#A69887" d="M194.295,320.017c0.597,2.451-0.995,3.24-2.903,3.779c-1.08-0.876-2.769,0.392-3.698-1.027
			c0.738-0.894,0.425-1.796,0.021-2.699C189.907,319.763,192.117,321.524,194.295,320.017z"/>
		<path fill="#BBAB98" d="M197.006,323.807c-0.013-0.954-0.023-1.912-0.033-2.873c0.056-0.3,0.088-0.602,0.088-0.908
			c0.602-0.288,1.205-0.576,1.803-0.864c2.006,1.326,1.286,3.093,0.797,4.829c-0.35,0.627-0.847,1.047-1.577,1.145
			C197.333,325.009,196.835,324.677,197.006,323.807z"/>
		<path fill="#887C6E" d="M158.644,324.656c-0.337,0.661-0.672,1.327-1.008,1.995c-0.346-0.361-0.688-0.724-1.032-1.086
			c-0.696-0.747-1.271-1.544-1.05-2.653c0.939-1.354,1.978-0.355,2.982-0.123l0.048,0.071
			C159.105,323.44,159.119,324.04,158.644,324.656z"/>
		<path fill="#96897A" d="M222.382,326.698c-0.01,0.22,0.007,0.444,0.041,0.659c-2.112,3.075-4.071,2.124-5.976-0.224
			c-0.115-0.523,0.006-0.988,0.361-1.39C218.889,324.766,220.687,325.438,222.382,326.698z"/>
		<path fill="#9D9080" d="M216.809,325.745c-0.009,0.289-0.014,0.576-0.018,0.867c-0.772,0.602-1.511,0.508-2.223-0.107
			c-1.005-1.617-0.835-3.143,0.374-4.577c0.603,0.02,1.206,0.032,1.808,0.053C216.248,323.243,215.125,324.516,216.809,325.745z"/>
		<path fill="#B7A895" d="M183.877,325.526c-0.008-0.27,0.006-0.537,0.038-0.803c0.96-0.023,1.918-0.047,2.88-0.067
			c0.589,0.319,0.717,0.659,0.05,1.039c-0.73,1.129-1.564,1.894-2.942,0.887C183.896,326.231,183.888,325.878,183.877,325.526z"/>
		<path fill="#9C8F7F" d="M244.979,323.784c-0.917,0.603-1.843,1.205-2.762,1.806c-0.299,0.012-0.598,0.027-0.896,0.055
			c-0.941-0.787-0.725-1.705-0.302-2.647c0.06-0.362,0.122-0.725,0.183-1.087C242.696,322.062,244.022,322.56,244.979,323.784z"/>
		<path fill="#C9B8A3" d="M176.515,325.471c-0.659,0.35-1.319,0.694-1.979,1.042c-1.404-0.175-2.539-0.759-3.186-2.091
			c-0.16-1.615,0.113-3.106,1.272-4.343c2.363-1.645,3.041,0.157,3.779,1.839c0.51,0.794,0.529,1.697,0.577,2.595
			C176.922,324.879,176.767,325.198,176.515,325.471z"/>
		<path fill="#C0B09C" d="M172.621,320.081c0.139,1.626-0.031,3.191-0.916,4.617c0.244,0.214,0.34,0.444,0.288,0.685
			c-0.054,0.248-0.115,0.371-0.188,0.373c-1.358,0.357-1.826-0.749-2.512-1.505c-0.386-0.524-0.676-1.09-0.715-1.758
			c0.203-1.22,1.359-1.575,2.1-2.31l0.109-0.25C171.403,319.984,172.009,320.034,172.621,320.081z"/>
		<path fill="#8C8172" d="M176.402,324.702c-0.631-0.927-0.729-1.855,0-2.784c0.315-0.014,0.632-0.027,0.944-0.039
			c0.493,1.186,1.648,0.781,2.524,1.047c0.095,0.277,0.175,0.561,0.237,0.85l0.049-0.035
			C179.044,324.591,178.008,325.747,176.402,324.702z"/>
		<path fill="#B8A995" d="M214.944,321.928c-0.005,1.549-0.007,3.1-0.012,4.652c-0.336,0.244-0.702,0.304-1.096,0.149
			c-0.284-0.267-0.514-0.581-0.688-0.929c-0.375-0.883-0.925-1.646-1.621-2.309c-0.385-0.463-0.67-0.948-0.346-1.56
			c0.634-0.007,1.27-0.015,1.902-0.022C213.706,321.916,214.321,321.92,214.944,321.928z"/>
		<path fill="#B1A390" d="M202.709,323.794c0.018-0.315,0.033-0.631,0.051-0.947c1.838-0.85,3.689,0.134,5.532-0.051
			c0.306,0.231,0.491,0.537,0.572,0.911c0.035,0.777-0.246,1.462-0.628,2.114c-0.209,0.313-0.488,0.561-0.818,0.739
			c-0.929,0.062-1.857,0.127-2.787,0.192c-1.161-0.347-1.665-1.236-1.93-2.324C202.701,324.218,202.707,324.007,202.709,323.794z"/>
		<path fill="#A29584" d="M208.344,323.916c-0.019-0.372-0.034-0.744-0.055-1.118c0.021-0.306,0.038-0.613,0.053-0.919
			c0.936-0.321,1.868-0.641,2.807-0.959c0.01,0.337,0.021,0.68,0.035,1.016c0.361,0.325,0.723,0.65,1.082,0.977
			c0.199,0.649-0.143,1.074-0.6,1.455c-0.647,0.434-1.341,0.733-2.141,0.69C208.916,324.896,208.671,324.363,208.344,323.916z"/>
		<path fill="#D0BFA9" d="M158.644,324.656c-0.021-0.604-0.038-1.199-0.058-1.797c0.802,0.027,1.49-0.165,1.901-0.928
			c1.466-0.588,3.161-2.096,3.706,0.942c-0.839-0.256-1.781-0.785-1.812,0.804c-0.024,1.298-0.478,2.343-1.835,2.789
			c-0.069-0.256-0.117-0.508-0.14-0.768C160.112,324.859,159.4,324.724,158.644,324.656z"/>
		<path fill="#8A7F70" d="M168.761,322.696c-1.955-1.845,1.257-1.549,1.104-2.644c0.283-0.027,0.553,0.018,0.812,0.133
			C170.896,321.671,169.44,321.887,168.761,322.696z"/>
		<path fill="#BEAE9B" d="M183.902,326.582c0.979-0.297,1.958-0.594,2.938-0.887c0.324,0.827,1.036,0.888,1.773,0.896
			c0,0.318-0.001,0.628-0.001,0.94c-1.346,1.561-2.86,2.179-4.736,0.877C183.885,327.795,183.896,327.188,183.902,326.582z"/>
		<path fill="#B8A996" d="M171.703,325.645c0.002-0.315,0.004-0.631,0.004-0.948c1.294,0.066,2.288,0.593,2.829,1.816
			c-0.388,0.818-1.12,0.987-1.929,1.019c-0.546,0.55-1.155,0.548-1.805,0.209C170.23,326.67,170.852,326.108,171.703,325.645z"/>
		<path fill="#BCAC99" d="M170.773,327.537c0.614,0,1.224-0.002,1.836-0.002c0.014,0.735-0.084,1.42-0.786,1.846
			c-0.669,0.018-1.337,0.033-2.005,0.053l0.023-0.069C169.354,328.348,169.925,327.875,170.773,327.537z"/>
		<path fill="#A59786" d="M198.926,323.875c1.262-0.027,2.522-0.054,3.783-0.081l-0.018,0.017c1.162,2.827-1.202,3.443-2.843,4.512
			c-0.732,0.233-1.558,0.317-2.179,0.722c-3.275,2.129-3.493,0.042-3.474-2.432c0.018-0.334,0.029-0.671,0.046-1.005
			c1.036-1.101,2.558-0.188,3.693-0.886C198.268,324.436,198.595,324.154,198.926,323.875z"/>
		<path fill="#BBAC98" d="M199.849,328.319c0.564-1.745,2.627-2.548,2.843-4.513c0.646,0.98,1.29,1.963,1.937,2.946
			C203.52,328.751,201.69,328.547,199.849,328.319z"/>
		<path fill="#AD9E8C" d="M207.416,326.562c-0.003-0.298-0.01-0.598-0.016-0.897c3.254-0.045,3.994,1.185,1.936,3.817
			c-0.71,0.871-1.394,0.712-2.061-0.051C207.321,328.476,207.368,327.52,207.416,326.562z"/>
		<path fill="#96897A" d="M188.827,326.406c-0.114-1.191,0.667-1.641,1.627-1.936c1.133,0.303,1.971,0.885,2.066,2.167
			C191.225,327.599,190.044,326.732,188.827,326.406z"/>
		<path fill="#CBBAA5" d="M201.772,333.165c-0.942,0.308-1.883,0.616-2.824,0.92C199.326,332.067,200.228,331.631,201.772,333.165z"
			/>
		<path fill="#B1A290" d="M170.773,327.537c-0.312,0.61-0.625,1.217-0.934,1.827c-0.604-0.572-1.207-1.139-1.807-1.711
			c-0.652-1.163-1.198-2.36-1.08-3.739c0.985-0.018,1.973-0.035,2.958-0.052c0.6,0.596,1.195,1.191,1.789,1.782
			C171.395,326.278,171.086,326.908,170.773,327.537z"/>
		<path fill="#C6B6A1" d="M230.891,326.713c1.167,0.636,2.717-0.428,3.742,0.835c0.402,0.788,1.148,0.899,1.912,0.971
			c-1.024,1.306-2.475,0.727-3.766,0.846c-0.952-0.011-1.906,0.128-2.84-0.187c-0.369-0.141-0.664-0.378-0.902-0.687
			c-0.004-0.607-0.004-1.223-0.007-1.83C229.652,326.678,230.272,326.695,230.891,326.713z"/>
		<path fill="#CABAA4" d="M224.313,333.165c-2.098-0.863-3.002,1.348-4.598,1.775c-0.334-0.269-0.667-0.538-1.001-0.809
			c-0.779-0.396-0.969-1.099-1.004-1.888c1.402-1.847,3.4-1.424,5.303-1.387c0.672,0.192,1.095,0.632,1.255,1.317
			C224.283,332.506,224.296,332.836,224.313,333.165z"/>
		<path fill="#D3C2AC" d="M230.002,328.541c-0.023,0.918-0.049,1.838-0.076,2.756c-0.74,0.405-0.882,1.1-0.914,1.853
			c-2.052-0.415-1.412-2.851-2.83-3.738c0.674-1.154,1.822-0.87,2.855-0.921C229.356,328.507,229.68,328.524,230.002,328.541z"/>
		<path fill="#C6B5A1" d="M212.159,328.596c-0.332,0.569-0.66,1.14-0.997,1.71c-0.609-0.274-1.219-0.551-1.828-0.824
			c0.638-1.916,0.168-3.277-1.933-3.817c0.313-0.58,0.627-1.169,0.942-1.75c0.305,0.289,0.611,0.579,0.918,0.868
			C211.437,325.145,212.416,326.402,212.159,328.596z"/>
		<path fill="#AE9F8D" d="M212.159,328.596c-0.962-1.272-1.933-2.543-2.894-3.812c0.671-0.313,1.339-0.633,2.01-0.95
			c1.078,0.317,2.123,0.686,2.694,1.768c0.002,0.332,0.004,0.657,0.006,0.988c-0.019,0.613-0.031,1.223-0.049,1.84
			c-0.205,0.406-0.479,0.436-0.803,0.139C212.801,328.575,212.479,328.585,212.159,328.596z"/>
		<path fill="#D2C0AA" d="M213.968,325.602c-0.896-0.588-1.799-1.18-2.693-1.768c0.333-0.308,0.659-0.616,0.987-0.924
			C213.41,323.443,214.01,324.321,213.968,325.602z"/>
	</g>
</g>
</svg>
