<?xml version="1.0" encoding="utf-8"?>
<!-- Generator: Adobe Illustrator 16.0.0, SVG Export Plug-In . SVG Version: 6.00 Build 0)  -->
<!DOCTYPE svg PUBLIC "-//W3C//DTD SVG 1.1//EN" "http://www.w3.org/Graphics/SVG/1.1/DTD/svg11.dtd">
<svg version="1.1" id="Layer_1" xmlns="http://www.w3.org/2000/svg" xmlns:xlink="http://www.w3.org/1999/xlink" x="0px" y="0px"
	 width="860px" height="550px" viewBox="0 0 860 550" enable-background="new 0 0 860 550" xml:space="preserve">
<g>
	<g>
		<g>
			<path fill="#160405" d="M288.549,374.066c-0.312-0.33-0.625-0.653-0.943-0.978c-0.706-2.704-3.657-3.758-4.601-6.286
				c-1.198-2.107-3.517-3.372-4.334-5.759c-4.497-4.864-8.546-10.071-12.13-15.643c-14.744-17.613-23.047-37.407-23.293-60.835
				c-0.202-19.831,2.432-38.97,9.105-57.54c3.148-8.775,8.431-16.367,15.014-23.011c0.618-1.289,1.482-2.335,2.846-2.885
				c1.511-0.63,2.317-2.322,4.005-2.682c5.396-2.692,10.033-6.695,15.878-8.666c11.04-3.72,22.346-4.188,33.771-3.122
				c4.068,0.376,8.193,0.456,12.189,1.478c0.996,0.254,1.681,0.421,2.705-0.625c1.677-1.727,4.727-1.515,5.876-0.038
				c3.625,4.664,9.598,4.653,13.896,7.786c1.111,0.853,2.578,1.478,2.167,3.312c-0.659,0.623-1.46,0.912-2.341,1.02
				c-5.417-0.324-10.33-2.651-15.474-4.043c-13.106-3.536-26.55-4.871-39.766-2.652c-24.199,4.052-39.831,18.937-47.218,42.062
				c-3.899,12.199-6.532,24.749-6.896,37.726c-0.698,24.392,3.818,46.932,20.054,66.343c9.827,11.744,19.289,23.813,28.937,35.716
				c1.483,3.481,3.79,6.195,7.304,7.78c3.073,1.668,5.274,4.298,7.535,6.85c0.837,1.454,2.03,2.485,3.633,3.04
				c9.271,7.958,18.637,15.807,28.98,22.388c1.72,2.199,4.301,2.617,6.785,3.248c0.52,0.162,1.052,0.302,1.503,0.575
				c27.727,16.759,59.167,21.332,90.178,27.019c19.182,3.519,38.719,3.079,58.163,2.604c5.797-0.142,11.022-2.747,16.267-5.007
				c3.271-1.421,6.191-3.56,9.624-4.652c0.628-0.07,1.222,0.036,1.787,0.32c1.036,1.476,0.468,2.964,0.056,4.457
				c-9.602,7.298-20.487,10.91-32.503,11.283c-26.247,0.81-52.241-1.738-77.818-7.274c-13.325-2.878-26.621-6.224-39.723-10.138
				c-2.562-0.768-5.101-1.291-7.772-1.08c-0.785,0.031-1.508-0.072-1.88-0.901c-6.789-4.971-14.49-8.335-21.843-12.305
				c-1.38-0.74-2.898-1.228-4.176-2.176c-5.658-4.384-12.416-7.186-17.682-12.143c-2.489-1.473-4.4-3.692-6.772-5.316
				c-3.549-1.715-5.377-5.396-8.585-7.496c-1.233-0.366-2.038-1.251-2.725-2.272C301.438,387.349,295.208,380.491,288.549,374.066z"
				/>
			<path fill="#041009" d="M444.222,117.17c0.372-0.38,0.747-0.773,1.118-1.157c0.737-0.776,1.422-1.608,2.265-2.263
				c5.373-4.198,10.755-2.29,11.582,4.471c1,8.137,0.385,16.223-1.927,24.189c-3.352,11.567-7.044,23.021-10.798,34.454
				c-0.787,2.38-1.185,4.823-1.553,7.282c-2.562,4.458-3.779,9.557-6.578,13.896c-1.162,1.802-2.027,4.355-5.119,3.34
				c-0.182-4.746,2.283-8.822,3.457-13.21c3.896-14.454,9.021-28.522,13.494-42.797c1.812-5.796,3.083-11.708,3.988-17.709
				c0.241-1.59,0.425-3.194,0.175-4.791c-0.246-1.534-0.097-3.641-1.989-3.961c-1.524-0.253-2.196,1.577-2.896,2.785
				c-1.353,2.318-2.562,4.73-3.189,7.334c-3.648,15.015-10.707,28.66-17.093,42.568c-2.822,6.15-5.387,12.422-8.654,18.368
				c-1.81,3.284-3.722,6.505-6.685,8.927c-1.917,1.563-4.104,2.207-6.489,1.259c-2.58-1.017-3.07-3.318-3.059-5.724
				c0.039-6.003,2.315-11.457,4.31-16.993c6.521-18.078,12.061-36.5,19.157-54.42c-4.211,5.99-7.707,12.342-10.195,19.149
				c-5.079,13.899-10.562,27.606-17.53,40.694c-2.261,4.251-4.045,8.721-5.417,13.352c-0.975,3.302-0.127,4.908,3.636,5.184
				c9.979,0.717,19.911-0.531,29.869-0.374c1.732,0.028,3.517-0.872,5.166,0.354c0.747,0.609,0.891,1.395,0.667,2.291
				c-0.738,1.46-1.989,1.98-3.55,1.96c-4.357-0.904-8.611-0.443-12.783,1.031c-0.823,0.16-1.646,0.165-2.466,0.039
				c-2.396-0.619-4.843-0.422-7.278-0.448c-3.521,0.059-7.026-0.199-10.537-0.421c-0.551-0.016-1.087-0.092-1.621-0.196
				c-2.143-0.615-4.33-0.461-6.52-0.433c-3.196-0.229-6.647-0.055-7.424-4.375c0.952-1.647,2.776-1.598,4.26-2.197
				c3.771-0.448,4.845-3.028,5.035-6.328c0.093-1.585-0.429-3.161-0.016-4.751c10.314-18.762,17.661-38.825,25.74-58.567
				c2.312-5.519,6.023-10.258,8.718-15.57c1.446-2.43,3.055-4.461,6.262-2.523c5.12,6.326,2.094,13.022,0.284,19.276
				c-2.838,9.822-7.31,19.104-10.611,28.812c-3.141,9.219-5.361,18.765-9.43,27.67c-0.292,0.642-0.576,1.34-0.43,2.063
				c0.104,0.511,0.018,1.708,1.057,0.623c0.348-0.364,0.355-0.987,0.475-1.513c0.293-1.237,0.777-2.395,1.356-3.509
				c0.611-1.139,1.36-2.171,2.188-3.147c3.388-3.317,4.91-7.71,6.675-11.902c4.904-11.67,11.757-22.553,14.382-35.155
				c0.87-4.453,2.082-8.792,4.109-12.874C443.056,120.138,442.882,118.204,444.222,117.17z"/>
			<path fill="#171717" d="M334.923,160.94c-10.687-8.926-20.161-19.064-29.503-29.346c-1.618-1.782-2.476-3.905-0.889-5.688
				c1.448-1.636,3.605-0.713,5.377,0.314c19.511,11.274,37.946,23.978,53.686,40.268c1.562,0.211,2.609,1.136,3.398,2.428
				c0.758,1.244,1.784,2.374,1.717,3.974c-0.122,0.498-0.393,0.891-0.824,1.174c-2.442-0.022-3.657-1.945-5.163-3.371
				c-4.37-4.113-8.272-8.731-12.976-12.495c-1.467-1.175-2.815-2.788-5.025-2.614c-0.939,0.161-1.859,0.481-2.827,0.463
				c-5.683-2.864-10.453-6.909-14.839-11.453c-1.281-1.004-2.856-1.571-4.076-2.655c-1.119-1.77-2.614-2.512-4.68-1.704
				c-3.394-2.091-3.394-2.091-0.171-5.683c-3.739-1.322-6.495-4.174-10.425-5.195c4.815,2.808,5.394,10.102,12.059,10.851
				c1.052-0.154,1.836,0.321,2.522,1.046c1.083,1.622,2.947,2.162,4.446,3.205c2.292,2.667,5.195,4.689,7.622,7.206
				c1.25,1.406,2.736,2.52,4.314,3.525c1.071,0.994,2.221,1.952,1.816,3.669c-1.111,0.994-2.966,0.911-3.668,2.508
				C336.101,161.587,335.462,161.484,334.923,160.94z"/>
			<path fill="#1D1C1B" d="M371.993,436.16c2.125-1.264,4.163-1.193,6.606-0.467c13.082,3.912,26.371,7.211,39.619,10.362
				c11.087,2.64,22.662,3.767,34.087,5.216c16.724,2.124,33.412,2.11,50.083,1.6c9.66-0.297,18.912-3.693,26.428-10.448
				c3.854-2.352,7.543-5.018,11.929-6.393c0.422,2.799-0.016,4.777-3.523,5.145c-3.099,0.33-5.231,2.902-7.725,4.517
				c-17.007,11.062-35.951,11.304-55.18,10.268C439.293,454.075,405.434,446.196,371.993,436.16z"/>
			<path fill="#1D1C1B" d="M599.823,188.634c11.023,15.035,17.576,31.898,18.395,50.447c1.506,34.311,0.196,68.421-11.319,101.329
				c-0.818,2.33-1.887,4.573-2.84,6.85c-0.597,0.375-1.14,0.314-1.648-0.184c-1.206-2.923,0.084-5.608,0.958-8.259
				c5.395-16.432,8.556-33.2,9.827-50.511c1.299-17.776,1.196-35.549,0.5-53.25c-0.562-14.14-6.528-27.155-13.494-39.481
				c-1.196-2.12-3.186-3.968-2.043-6.781C598.674,188.323,599.236,188.27,599.823,188.634z"/>
			<path fill="#1D1D1D" d="M268.444,203.634c-3.014,6.002-8.396,10.191-11.595,16.286c-4.398,8.373-6.067,17.354-8.7,26.143
				c-4.953,16.528-3.287,33.529-2.978,50.323c0.163,8.613,3.732,16.797,7.292,24.837c3.97,8.981,9.638,16.767,15.037,24.788
				c-0.396,0.511-0.853,0.568-1.363,0.167c-14.979-16.771-23.278-36.188-24.3-58.815c-0.861-19.082,1.958-37.568,7.49-55.705
				c3.268-10.713,8.931-20.091,17.083-27.881C267.049,203.127,267.731,203.099,268.444,203.634z"/>
			<path fill="#1D1C1C" d="M358.185,196.289c-5.004-1.705-9.542-4.596-15.045-5.772c0.964-0.429,1.706-0.76,2.447-1.091
				c-2.347-0.501-4.008-3.208-7.292,0.005c-1.681,1.644-7.019-0.391-10.7-0.831c-17.773-2.128-35.102-2.052-50.263,9.595
				c-0.929,0.717-2.288,0.873-3.446,1.292c-0.75-1.237,0.523-1.562,1.015-2.243c15.612-12.413,33.596-14.14,52.52-11.614
				c0.907,0.289,1.991,0.339,1.728-0.923c-1.027-4.941,1.84-4.256,4.839-3.507c5.979,1.223,11.571,4.437,18.134,2.744
				c2.59-0.664,4.874,1.91,7.399,2.731c0.334,0.45,0.299,0.889-0.052,1.312c-2.41,1.207-4.61-0.967-7.328-0.548
				c1.892,2.521,5.913,2.031,6.579,5.453C355.632,193.562,360.104,195.431,358.185,196.289z"/>
			<path fill="#1E1E1E" d="M417.43,128.861c-5.82,17.159-12.527,33.958-20.851,50.074c-1.53,2.964-2.134,6.459-4.886,8.746
				c-1.531,0.771-1.745,2.638-3.001,3.635c-1.551,1.23-3.09,2.241-3.938-0.68c0.19-2.005,0.067-4.065,0.999-5.944
				c1.61-1.787,0.771-3.704,0.198-5.527c-4.242-13.549-8.803-26.974-16.04-39.309c-0.988-1.679-2.192-3.319-1.118-5.426
				c2.788-0.997,2.209,2.316,3.738,2.923c4.731,6.744,7.737,14.339,10.568,21.967c2.896,7.806,5.406,15.766,8.221,24.068
				c4.918-7.692,8.653-15.933,12.127-24.271c3.418-8.186,6.424-16.542,9.716-24.789c0.773-1.942,1.944-3.729,2.935-5.586
				C416.588,128.208,417.033,128.247,417.43,128.861z"/>
			<path fill="#1D1D1D" d="M444.19,184.47c-1.697-6.188,2.077-11.295,3.761-16.658c3.211-10.227,7.1-20.226,9.396-30.748
				c1.388-6.377,0.784-12.767,0.601-19.125c-0.141-4.781-3.543-6.295-7.938-4.335c-1.608,0.722-2.68,2.448-4.67,2.409
				c0.953-4.484,4.189-6.217,8.312-6.406c4.022-0.194,5.365,3,6.368,6.07c2.283,6.992,1.453,14.041-0.277,20.97
				c-1.84,7.375-4.005,14.67-6.025,21.999c-0.778,1.023-0.172,2.189-0.338,3.276c-0.222,0.865-0.603,1.669-0.978,2.439
				c0.044,0.32-0.806,0.52-0.168,0.955c0.587,0.403-0.354-0.096,0.374-0.259c0.565-0.35,1.146-0.41,1.777-0.3
				c0.484,0.218,0.778,0.566,0.891,1.082c-2.608,7.076-4.036,14.726-9.921,20.189C444.506,185.852,443.757,185.604,444.19,184.47z"
				/>
			<path fill="#212020" d="M599.823,188.634c-0.475,0.048-0.959,0.097-1.442,0.146c-3.221-0.19-4.174-2.994-5.751-5.04
				c-6.322-8.184-13.5-15.475-24.301-16.812c-13.856-1.718-27.281,0.245-39.744,7.015c-3.592,1.954-7.296,3.641-11.182,4.946
				c-1.169-0.053-2.381-0.038-2.505-1.654c11.013-6.68,22.523-12.136,35.354-14.33C571.571,159.262,590.141,168.896,599.823,188.634
				z"/>
			<path fill="#05130B" d="M337.013,161.033c-2.129-5.251,2.432-0.994,3.145-2.208c0.388-0.387,0.857-0.518,1.392-0.395
				c11.532,8.631,21.208,19.203,30.869,29.777c0.971,1.056,1.744,2.254,1.256,3.823c-3.212,0.722-6.039-0.948-9.05-1.491
				c-0.315-2.466-2.054-3.992-3.726-5.562c-4.967-4.437-9.392-9.421-14.261-13.949c-1.4-1.301-2.519-2.959-4.506-3.502
				c-0.321-0.305-0.639-0.607-0.959-0.91C340.086,164.535,336.906,164,337.013,161.033z"/>
			<path fill="#090707" d="M540.745,436.03c-3.333,3.328-7.019,6.001-11.929,6.393c0.334-1.109,0.665-2.218,1.009-3.328
				c-1.509-2.971,1.293-4.084,2.521-5.877c5.876-5.032,11.801-10.002,18.561-13.867c1.84,0.213,4.194-1.21,5.2,1.631
				c0.088,1.144-1.19,1.577-1.346,2.601c-1.603,4.175-6.095,5.048-8.965,7.772C544.141,432.936,542.435,434.469,540.745,436.03z"/>
			<path fill="#252626" d="M414.218,187.779c-0.078,1.733,0.365,3.667-1.615,4.726c-0.707,0.38-1.397,0.096-1.868-0.519
				c-1.229-1.605-1.093-3.431-0.339-5.064c7.094-15.289,10.533-31.904,17.436-47.297c3.233-7.213,5.378-15.018,5.468-23.199
				c0.025-2.108-1.467-3.142-1.902-4.798c0.725-0.558,1.436-0.527,2.126,0.056c3.362,5.189,2.205,10.598,0.396,15.825
				c-3.763,10.875-7.876,21.632-11.707,32.482c-1.825,5.166-3.337,10.447-4.989,15.674c-0.406,0.879,0.009,1.846-0.277,2.739
				c-0.436,1.796-1.327,3.42-1.925,5.156C414.623,184.941,413.14,186.119,414.218,187.779z"/>
			<path fill="#1F2020" d="M492.196,111.401c5.753-3.09,8.371-1.79,8.718,4.366c0.503,9.026-3.033,17.086-6.394,25.11
				c-2.121,5.076-4.942,9.857-7.447,14.774c-1.04,1.954-0.665,4.768-3.448,5.661c-0.534-0.002-0.975-0.215-1.303-0.644
				c-0.762-5.266,3.18-8.821,5.011-13.095c2.499-5.855,5.298-11.583,7.608-17.542c2.006-5.176,1.503-10.35,1.469-15.615
				c-2.958-0.594-4.308,3.201-7.084,1.877C488.235,113.467,491.534,113.209,492.196,111.401z"/>
			<path fill="#242526" d="M530.841,108.255c1.924-3.319,4.963-5.501,8.087-7.483c6.74-4.271,12.381-1.632,13.165,6.375
				c0.834,8.498-2.53,15.895-7.106,22.811c-0.428,0.346-0.877,0.397-1.355,0.101c-1.333-2.485,0.231-4.537,1.318-6.419
				c2.902-5.024,3.03-10.487,2.942-15.972c-0.071-4.349-2.937-5.945-6.837-3.874c-2.174,1.153-4.252,2.535-6.147,4.164
				c-1.165,1.007-2.293,2.33-4.173,1.688C530.459,109.159,530.516,108.699,530.841,108.255z"/>
			<path fill="#191919" d="M514.898,177.236c0.702,0.276,1.408,0.554,2.114,0.834c-1.887,4.677-17.148,13.004-22.255,12.144
				c-1.793-2.257,0.009-3.786,1.374-4.947c5.976-5.082,11.241-10.887,16.917-16.259c1.125-1.071,2.258-2.387,4.154-1.704
				c0.487,0.778,0.381,1.512-0.19,2.199c-2.543,2.808-5.082,5.613-7.622,8.42c-0.265,0.623-0.509,1.36,0.278,1.679
				c0.565,0.234,1.315,0.186,1.675-0.584C512.527,178.424,513.714,177.831,514.898,177.236z"/>
			<path fill="#242223" d="M602.656,347.118c0.469,0.047,0.934,0.098,1.402,0.142c-6.234,15.968-10.279,33.002-22.586,45.984
				c-0.469,0.343-0.946,0.358-1.437,0.054c-1.009-1.743-0.041-3.099,0.98-4.323c8.471-10.183,11.994-22.802,17.136-34.619
				C599.299,351.729,599.436,348.46,602.656,347.118z"/>
			<path fill="#2A2B2A" d="M437.706,134.104c0.409,3.486-0.728,6.767-2.064,9.776c-5.419,12.239-11.104,24.358-16.751,36.498
				c-0.341,0.729-1.151,1.235-1.745,1.851c-0.542-0.615-0.667-1.34-0.597-2.125c0.294-1.271,0.951-2.299,2.054-3.025
				C425.434,162.957,432.126,148.777,437.706,134.104z"/>
			<path fill="#272929" d="M530.841,108.255c0.046,0.483,0.1,0.959,0.155,1.438c0.628,1.776-0.3,3.139-1.324,4.36
				c-6.956,8.323-13.362,17.06-19.652,25.885c-1.459,2.045-3.236,3.795-5.854,4.364c-0.551-0.005-1-0.216-1.388-0.596
				C512.649,132.304,520.295,119.135,530.841,108.255z"/>
			<path fill="#232323" d="M333.746,107.526c-0.473-0.728-1.067-1.406-1.394-2.198c-1.22-2.92-3.298-6.327-0.312-8.847
				c2.891-2.433,6.467-1.046,9.435,0.875c2.839,1.827,5.527,3.871,7.415,6.767c0.289,0.281,0.404,0.575,0.333,0.884
				c-0.066,0.317-0.143,0.472-0.229,0.472c-4.267,1.223-5.754-2.564-8.25-4.541c-0.27-0.207-0.515-0.456-0.816-0.623
				c-1.448-0.792-3.002-2.408-4.584-0.887c-1.408,1.355,0.459,2.777,0.741,4.192c0.507,1.704-0.559,2.686-1.678,3.645
				C334.186,107.356,333.967,107.443,333.746,107.526z"/>
			<path fill="#212322" d="M348.763,135.291c-5.58-8.944-10.873-18.045-15.017-27.765c0.169-0.146,0.345-0.292,0.511-0.439
				c1.793-0.475,2.712,0.722,3.362,1.99c4.077,7.915,8.796,15.494,12.595,23.557c0.393,0.839,0.396,1.723-0.028,2.58
				C349.738,135.657,349.263,135.685,348.763,135.291z"/>
			<path fill="#2B2829" d="M344.542,419.921c7.432,4.056,14.872,8.108,22.295,12.174c1.371,0.755,3.028,1.232,3.275,3.161
				c-9.533-4.718-18.983-9.601-28.052-15.182C342.842,419.22,343.675,419.287,344.542,419.921z"/>
			<path fill="#2A2D2B" d="M454.87,165.208c-0.425-0.025-0.853-0.052-1.284-0.076c-0.487-0.598-0.53-1.276-0.362-1.993
				c0.403-0.859,0.935-1.617,1.753-2.139c4.854-7.587,8.637-15.874,14.905-22.519c0.362,0.396,0.559,0.868,0.625,1.399
				C466.387,148.993,460.939,157.292,454.87,165.208z"/>
			<path fill="#363636" d="M288.549,374.066c0.683,0.094,1.686-0.06,1.992,0.328c5.464,6.996,12.444,12.503,18.487,18.919
				c-0.698,0.49-1.372,0.451-2.014-0.117C300.617,387.054,293.555,381.549,288.549,374.066z"/>
			<path fill="#242526" d="M502.778,143.707c0.476,0.041,0.95,0.083,1.425,0.123c0.516,1.379-0.244,2.444-1.027,3.363
				c-4.224,4.966-8.887,9.519-13.391,14.22c-0.865,0.902-2.019,1.438-3.371,1.104c-0.483-0.236-0.783-0.609-0.874-1.147
				c0.138-2.174,2.336-2.472,3.438-3.772C493.58,152.964,498.175,148.338,502.778,143.707z"/>
			<path fill="#343334" d="M342.129,167.526c6.467,2.192,9.799,8.113,14.604,12.277c1.714,1.488,3.32,3.113,4.973,4.679
				c0.29,0.267,0.401,0.543,0.334,0.837c-0.071,0.295-0.151,0.452-0.239,0.452c-0.471,0.251-0.936,0.25-1.392-0.053
				C354.314,179.652,348.224,173.587,342.129,167.526z"/>
			<path fill="#292828" d="M470.028,139.742c-0.047-0.419-0.094-0.841-0.146-1.265c3.695-6.124,7.746-11.989,12.581-17.285
				c0.463-0.305,0.94-0.333,1.431-0.076c1.141,1.673,0.284,3.092-0.818,4.208c-3.089,3.125-5.147,7.012-7.915,10.368
				C473.637,137.276,472.893,139.858,470.028,139.742z"/>
			<path fill="#2A2C2B" d="M348.763,135.291c0.413-0.032,0.828-0.06,1.241-0.092c1.602-0.174,2.153,1.123,2.712,2.148
				c3.479,6.32,8.205,12.021,9.672,19.351c-0.103,0.554-0.38,1.001-0.832,1.342C356.809,150.727,352.442,143.203,348.763,135.291z"
				/>
			<path fill="#252324" d="M344.542,419.921c-0.824,0.05-1.649,0.104-2.478,0.153c-5.817-2.716-11.139-6.185-15.827-10.594
				c-0.396-0.526-0.34-0.999,0.164-1.423C332.449,412.013,338.496,415.967,344.542,419.921z"/>
			<path fill="#2C2C2A" d="M372.536,137.353c-1.828-0.293-1.987-2.369-3.366-3.147c-0.521,0.142-1.19,0.194-1.432-0.246
				c-2.884-5.225-7.42-9.59-8.383-15.832c0.456-0.437,0.919-0.451,1.399-0.043C365.339,124.107,369.296,130.508,372.536,137.353z"/>
			<path fill="#353333" d="M554.767,423.582c-0.412-1.083,0.5-1.745,0.824-2.591c4.07-5.624,8.234-11.165,13.753-15.512
				c0.525,0.016,0.975,0.214,1.355,0.57C566.261,412.683,561.944,419.433,554.767,423.582z"/>
			<path fill="#2A2B2B" d="M543.766,129.903c0.412,0.016,0.815,0.037,1.221,0.055c-2.439,5.8-5.7,11.123-9.57,16.078
				c-0.462,0.346-0.946,0.37-1.437,0.064C534.82,139.237,538.618,134.167,543.766,129.903z"/>
			<path fill="#302F2F" d="M266.137,346.178c0.451-0.055,0.907-0.11,1.363-0.167c3.918,5.012,7.84,10.021,11.762,15.035
				c-0.436,0.495-0.915,0.543-1.435,0.136C273.267,356.696,269.436,351.641,266.137,346.178z"/>
			<path fill="#353534" d="M360.755,118.085c-0.417,0.023-0.829,0.043-1.245,0.067c-5.132-2.943-8.685-7.235-10.834-12.717
				c0.067-0.436,0.143-0.876,0.214-1.312C353.681,108.073,357.896,112.499,360.755,118.085z"/>
			<path fill="#282A2A" d="M417.43,128.861c-0.445-0.039-0.889-0.08-1.332-0.119c2.056-5.458,5.272-10.253,8.598-14.992
				c0.49-0.521,0.923-0.475,1.293,0.135C423.135,118.877,420.281,123.871,417.43,128.861z"/>
			<path fill="#313030" d="M570.699,406.05c-0.434-0.028-0.861-0.055-1.299-0.083c1.377-6.114,5.601-9.866,10.707-12.89
				c0.453,0.058,0.909,0.112,1.365,0.167C578.64,398.153,574.507,401.961,570.699,406.05z"/>
			<path fill="#40443F" d="M333.987,181.198c-1.376,0.475-3.423-0.766-4.12,1.369c-0.583,1.77,1.839,1.928,2.161,3.588
				c-1.649,0.784-3.173,0.875-4.608-0.526C327.317,178.832,328.126,178.285,333.987,181.198z"/>
			<path fill="#272727" d="M361.556,158.041c0.071-0.508,0.146-1.011,0.226-1.517c5.001,2.189,6.556,6.441,6.865,11.437
				c-0.254,0.503-0.667,0.768-1.222,0.827c-1.801-0.577-1.982-2.208-2.411-3.688C363.86,162.748,362.706,160.396,361.556,158.041z"
				/>
			<path fill="#4E4E4E" d="M483.794,121.334c-0.44-0.047-0.891-0.091-1.331-0.143c2.49-4.01,5.788-7.219,9.733-9.79
				c-0.094,2.159-2.515,2.73-3.104,4.548C488.242,118.652,486.427,120.391,483.794,121.334z"/>
			<path fill="#363838" d="M517.013,169.503c0.024-0.701,0.053-1.397,0.081-2.096c1.537-3.512,4.076-6.123,7.337-8.074
				c0.516,0.037,0.959,0.229,1.324,0.603C523.375,163.611,520.854,167.162,517.013,169.503z"/>
			<path fill="#3B3B39" d="M311.237,395.438c3.541,1.698,5.421,5.342,8.672,7.383c0.48,0.49,0.445,0.94-0.115,1.343
				c-3.339-1.966-5.936-4.794-8.632-7.498c-0.286-0.287-0.365-0.569-0.25-0.834C311.026,395.57,311.137,395.438,311.237,395.438z"/>
			<path fill="#2F2A2C" d="M319.79,404.164c0.041-0.446,0.081-0.896,0.12-1.343c2.28,1.6,4.989,2.674,6.488,5.236
				c-0.052,0.477-0.103,0.948-0.16,1.418C323.661,408.229,321.542,406.418,319.79,404.164z"/>
			<path fill="#303232" d="M525.755,159.936c-0.446-0.037-0.896-0.066-1.34-0.108c0.222-3.72,2.155-6.288,5.386-7.988
				c0.54,0.025,0.999,0.245,1.387,0.635C529.885,155.333,528.102,157.835,525.755,159.936z"/>
			<path fill="#9FA09F" d="M488.979,157.597c-0.978,1.218-1.961,2.428-2.945,3.646c-0.949,0.737-1.986,1.988-2.486-0.367
				c1.178-1.741,2.353-3.486,3.526-5.225C487.077,156.916,487.386,157.885,488.979,157.597z"/>
			<path fill="#4D4B4C" d="M425.988,113.885c-0.43-0.043-0.863-0.09-1.293-0.135c3.131-5.051,5.084-5.51,8.827-2.067
				c-0.708-0.016-1.415-0.035-2.126-0.056C428.423,109.575,427.375,112.143,425.988,113.885z"/>
			<path fill="#2E2E2E" d="M531.188,152.475c-0.444-0.032-0.888-0.068-1.34-0.096c0.03-3.058,0.927-5.539,4.244-6.441
				c0.435,0.037,0.881,0.068,1.324,0.098C534.52,148.521,533.099,150.656,531.188,152.475z"/>
			<path fill="#3C3D3D" d="M337.013,161.033c0.94,2.199,3.914,2.876,4.16,5.584c-2.438-1.496-4.719-3.175-6.25-5.676
				C335.621,160.972,336.319,161,337.013,161.033z"/>
			<path fill="#4A4C4A" d="M283.474,366.437c1.054,2.418,4.489,3.361,4.133,6.652c-2.225-1.845-4.215-3.877-5.457-6.536
				C282.546,365.98,282.99,365.943,283.474,366.437z"/>
			<path fill="#323230" d="M283.474,366.437c-0.44,0.035-0.881,0.072-1.324,0.114c-1.76-1.535-3.426-3.146-4.323-5.374
				c0.476-0.044,0.957-0.089,1.435-0.133C280.667,362.842,282.071,364.636,283.474,366.437z"/>
			<path fill="#3C3D3D" d="M274.9,197.243c-0.34,0.75-0.682,1.493-1.015,2.243c-1.103,0.657-2.209,1.314-3.307,1.978
				c-0.35-0.25-0.473-0.516-0.382-0.8c0.088-0.291,0.191-0.438,0.294-0.438C271.708,198.863,273.013,197.625,274.9,197.243z"/>
			<path fill="#7A7A7A" d="M360.409,185.718c0.413-0.019,0.821-0.045,1.234-0.072c1.185,0.962,3.846,1.432,1.212,3.659
				c-1.403,0.089-2.521-0.395-3.267-1.625c-0.111-0.329-0.136-0.667-0.063-1.007C359.819,186.356,360.112,186.036,360.409,185.718z"
				/>
			<path fill="#656765" d="M311.237,395.438c-0.024,0.408-0.052,0.82-0.076,1.228c-1.815-0.636-2.911-2.135-4.144-3.47
				c0.67,0.042,1.344,0.076,2.019,0.117C309.765,394.021,310.503,394.731,311.237,395.438z"/>
			<path fill="#555554" d="M270.49,200.227c0.029,0.417,0.056,0.829,0.088,1.232c-0.714,0.73-1.421,1.449-2.134,2.175
				c-0.674,0.049-1.356,0.093-2.03,0.143C267.247,201.989,268.737,200.957,270.49,200.227z"/>
			<path fill="#4C4D4E" d="M444.222,117.17c-0.19,1.719-0.662,3.269-2.408,4.061C441.988,119.508,442.191,117.795,444.222,117.17z"
				/>
			<path fill="#F41E1E" d="M551.262,419.856c-6.05,4.67-12.109,9.338-18.169,14.01c-2.19,1.145-3.602,2.94-4.37,5.257
				c-10.211,6.435-20.855,10.907-33.369,11.221c-34.527,0.859-67.945-5.233-101.248-13.546
				c-15.451-3.859-29.438-10.411-43.202-17.907c-2.077-1.153-4.48-1.704-6.317-3.324c-10.504-6.368-19.954-14.096-28.976-22.386
				c-1.292-0.8-2.237-1.968-3.275-3.046c-2.475-2.198-4.948-4.395-7.424-6.594c-2.878-2.097-5.29-4.676-7.53-7.418
				c-11.524-13.595-23.099-27.188-33.418-41.707c-9.517-13.392-15.547-28.166-16.21-45.066c-0.722-18.352,1.3-36.149,6.234-53.842
				c7.05-25.302,31.729-45.602,59.392-45.194c15.608,0.23,30.316,3.932,45.052,8.181c1.84,1.06,4.207-0.632,5.917,1.123
				c1.301,0.911,1.809,2.426,2.775,3.594c2.839,3.502,6.972,3.265,10.85,3.747c2.002,0.49,4.062,0.712,6.04,1.296
				c3.644,2.983,3.683,4.329-0.386,6.198c-4.829,2.229-9.905,3.908-14.767,6.08c-7.06,3.156-12.714,7.771-15.323,15.355
				c-0.429,1.248-1.316,3.177,0.277,3.815c1.96,0.779,2.016-1.475,2.419-2.658c0.937-2.778,2.427-5.114,4.739-6.923
				c1.673-1.053,3.224-2.26,4.58-3.71c4.283-3.725,9.699-5.167,14.812-7.184c3.684-1.459,7.32-2.828,9.926-6.007
				c1.229-1.489,2.859-2.241,4.747-1.827c2.731,0.599,1.392-1.715,2.025-2.627c0.453-0.376,0.944-0.637,1.503-0.815
				c8.031-0.837,16.021-0.446,23.984,0.701c4.163-0.121,8.354,0.438,12.487-0.483c4.615-0.604,9.312-0.745,13.849-1.952
				c0.452-0.276,0.928-0.516,1.415-0.729c0.512-0.155,1.037-0.197,1.562-0.166c2.286,0.442,4.457,1.305,6.719,1.854
				c7.49,1.297,14.658,1.377,20.165-5.128c0.635-0.554,1.324-1.021,2.077-1.4c15.303-6.575,29.036-16.007,43.607-23.88
				c11.729-6.331,23.839-10.773,37.688-10.042c11.92,0.621,21,5.951,27.878,14.776c11.517,14.77,20.178,31.093,23.22,49.917
				c0.138,0.869,0.422,1.738,0.44,2.626c0.631,36.555,1.887,73.244-11.972,108.124c-5.573,14.023-9.374,28.853-18.207,41.512
				c-7.066,10.106-15.453,19.113-23.158,28.682c-2.056,1.863-4.12,3.719-5.838,5.923
				C553.607,419.206,552.602,419.888,551.262,419.856z"/>
			<path fill="#570A07" d="M297.376,376.123c2.975,2.004,5.501,4.464,7.535,7.418C301.192,382.294,298.812,379.687,297.376,376.123z
				"/>
			<path fill="#440909" d="M344.586,415.566c2.404,0.542,4.513,1.641,6.317,3.324C348.279,418.764,345.916,418.141,344.586,415.566z
				"/>
			<path fill="#5F0C0B" d="M528.723,439.123c0.15-2.832,1.162-4.956,4.37-5.257c-0.828,1.914-3.327,2.773-3.268,5.229
				C529.46,439.104,529.095,439.115,528.723,439.123z"/>
			<path fill="#781C17" d="M361.048,198.238c0.88,0.081,1.769,0.169,2.657,0.253c0.389,0.164,0.634,0.44,0.713,0.859
				c-0.015,0.42-0.193,0.754-0.53,1.004c-1.753-0.801-3.93-0.381-5.457-1.855C359.304,198.407,360.176,198.319,361.048,198.238z"/>
			<path fill="#5D0C07" d="M312.335,390.135c1.617,0.448,2.645,1.534,3.275,3.051C313.68,393.063,312.558,392.081,312.335,390.135z"
				/>
			<path fill="#00A44B" d="M433.399,201.514c-12.726,1.93-25.519,1.775-38.327,1.262c-2.776-0.112-3.01-1.145-2.685-3.651
				c0.686-5.268,2.93-9.922,5.278-14.476c7.289-14.124,13.378-28.729,18.849-43.64c2.969-8.098,7.102-15.696,12.914-23.854
				c0.479,6.446-1.45,10.967-3.276,15.432c-7.534,18.487-13.362,37.558-19.61,56.485c-1.104,3.342-2.96,7.971,1.366,9.923
				c4.264,1.926,6.678-2.277,8.68-5.384c7.084-10.999,11.193-23.453,17.037-35.061c4.51-8.943,7.956-18.281,10.619-27.924
				c1.283-4.656,2.958-9.181,6.068-12.988c2.103-2.574,3.521-2.508,4.695,0.967c1.752,5.21,0.793,10.36-0.403,15.294
				c-5.26,21.639-13.456,42.399-19.425,63.834c-0.373,1.342-1.196,2.558-1.809,3.834L433.399,201.514z"/>
			<path fill="#040403" d="M366.119,197.131c-2.541-1.413-5.088-2.818-7.633-4.23c-1.52-1.573-3.577-2.174-5.521-2.942
				c-1.617-0.642-3.969-1.146-3.125-3.238c0.762-1.885,2.995-1.062,4.704-0.493c1.658,0.553,3.362,0.973,5.044,1.454
				c1.062,0.328,2.125,0.653,3.185,0.981c0.526,0.725,1.709,0.301,2.128,1.213c3.407-1.448,5.851,1.347,8.776,1.998
				c1.729-1.146,3.24-0.106,4.808,0.457c0.416,0.266,0.757,0.609,1.015,1.035c0.643,1.806,1.217,3.648,2.518,5.144
				c0.242,0.43,0.365,0.902,0.361,1.396c0.658,4.506,4.136,3.753,7.166,3.844c1.974,1.392,4.449-0.266,6.432,1.07
				c0.357,0,0.713,0,1.067,0c3.219,1.157,6.714-0.143,9.925,1.103c0.63,2.432-0.925,2.51-2.676,2.656
				c-2.404,0.206-4.918-0.732-7.214,0.646l0.127-0.028c-2.454,3.25-5.639,3.122-8.907,1.688c-1.435-0.629-2.854-1.236-4.351-1.673
				c-2.129,0.013-4.219-0.157-6.174-1.104c-2.435-0.825-4.313-2.093-4.615-4.973c-0.171-1.621-0.842-3.062-2.769-3.354
				c-0.483-0.093-0.951-0.23-1.419-0.377C367.738,198.994,366.711,198.337,366.119,197.131z"/>
			<path fill="#040705" d="M385.4,190.563c1.986,2.619,2.225-0.188,3.213-0.966c0.938-0.742,0.443-3.925,3.08-1.917
				c0.65,2.554,0.92,4.943,0.301,7.728c-0.784,3.503-2.506,4.344-5.56,4.042c-0.78,0.673-1.335,0.096-1.922-0.341
				c-1.972-1.94-5.263-2.642-5.676-6.047l0.016,0.01c-1.204-1.083-2.081-2.361-2.427-3.967c-0.801-3.225-3.025-5.506-5.277-7.721
				c-1.603-1.576-2.32-3.073-0.646-4.983c0.817-0.697,1.737-1.144,2.804-1.3c5.104,0.516,5.733,6.022,9.272,8.287
				c0.938,0.829,1.676,1.812,2.212,2.942C385.326,187.687,385.326,189.133,385.4,190.563z"/>
			<path fill="#030504" d="M444.19,184.47c0.347,0.366,0.7,0.729,1.053,1.095c1.312,2.206,0.463,4.551,0.475,6.846
				c-1.393,2.041-1.948,4.513-3.289,6.581c0.234,2.776-0.409,5.262-2.396,7.309c-0.642,0.425-1.365,0.646-2.125,0.745
				c-2.147-0.201-5.115,0.678-4.45-3.303c-0.019-0.742-0.04-1.482-0.059-2.229l-0.028,0.053c3.693-1.731,5.266-5.517,6.091-8.726
				C440.352,189.383,442.115,186.975,444.19,184.47z"/>
			<path fill="#040705" d="M417.391,205.883c4.099-2.529,8.365-3.122,12.855-1.075c-1.523,1.575-2.438,3.74-4.576,4.726
				c-1.055,0.13-2.101,0.07-3.154,0.084c-1.847-0.053-3.804,0.38-5.256-1.26c-0.26-2.199,1.118-1.862,2.718-1.715
				C419.071,206.148,417.969,206.697,417.391,205.883z"/>
			<path fill="#0B0604" d="M425.956,209.005c1.135-1.699,0.924-4.777,4.29-4.197c1.069-0.354,2.138-0.716,3.209-1.065
				c0.519,2.799,2.833,2.022,4.61,2.304c0.112,0.512,0.033,0.988-0.243,1.432c-0.719,0.784-1.723,0.978-2.674,1.271
				C432.071,208.254,429.048,209.881,425.956,209.005z"/>
			<path fill="#040705" d="M406.69,205.893c-3.204-0.477-6.629,1.065-9.646-1.074c3.572,0,7.141,0,10.711,0
				c0.272,0.245,0.385,0.507,0.337,0.784c-0.048,0.293-0.113,0.437-0.187,0.437C407.457,206.32,407.048,206.273,406.69,205.893z"/>
			<path fill="#A7A9A9" d="M414.093,183.42c0.418,0.428,0.831,0.856,1.249,1.287c-0.378,1.025-0.75,2.046-1.124,3.072
				C410.213,186.435,414.218,184.868,414.093,183.42z"/>
			<path fill="#0B0604" d="M407.755,205.883c0-0.353,0-0.707,0-1.064c2.496,0.407,5.241-0.967,7.501,1.064
				c-0.217,0.211-0.436,0.422-0.654,0.631C412.212,207.473,409.879,207.762,407.755,205.883z"/>
			<path fill="#0B0604" d="M417.391,205.883c1.039,0,2.077,0,4.064,0c-1.915,1-2.981,1.555-4.049,2.108
				c-1.793,0.405-2.459-0.348-2.158-2.099l0.008-0.01C415.972,205.883,416.679,205.883,417.391,205.883z"/>
			<path fill="#040705" d="M395.977,204.813c-2.146-0.336-4.549,0.868-6.432-1.065C391.693,204.086,394.089,202.901,395.977,204.813
				z"/>
			<path fill="#07160C" d="M371.366,176.962c-1.364,1.235-1.218,2.046,0.32,3.249c2.84,2.227,5.374,4.833,6.024,8.654
				c-1.419,0.456-2.446-0.369-3.307-1.237c-8.876-8.977-18.306-17.408-26.525-27.024c-0.56-2.341-3.535-3.372-3.351-6.125
				c4.144-0.868,5.947,2.71,8.303,4.746c5.317,4.602,10.215,9.687,15.283,14.572C369.8,174.232,371.562,174.597,371.366,176.962z"/>
			<path fill="#121212" d="M319.909,140.702c-0.234,1.174-0.69,2.263-1.995,1.053c-3.993-3.706-7.908-7.497-11.821-11.284
				c-0.826-0.796-1.246-1.787-0.31-2.799c0.992-1.072,2.324-1.264,3.331-0.307c3.363,3.174,7.749,4.901,11.544,7.838
				c-1.638,1.221-4.302,0.749-4.052,3.333c0.039,0.4,1.459,0.673,2.24,1C319.473,139.675,319.842,140.05,319.909,140.702z"/>
			<path fill="#242625" d="M371.366,176.962c-1.082-1.053-2.169-2.111-3.252-3.166c0-0.359,0.008-0.721,0.008-1.085
				c1.587-0.694-0.583-3.076,1.587-3.519c3.002,1.255,4.299,3.443,3.68,6.679C372.711,176.236,372.04,176.604,371.366,176.962z"/>
			<path fill="#09361C" d="M342.7,156.618c-0.032-0.499-0.06-0.994-0.092-1.493c0.644-0.213,1.286-0.429,1.924-0.646
				c1.776,1.56,3.714,2.999,4.228,5.519C345.51,161.076,344.393,158.329,342.7,156.618z"/>
			<path fill="#717071" d="M369.059,169.558c-0.92,0.871,2.811,3.123-0.937,3.154c-0.729-1.047-1.459-2.092-2.188-3.141
				c0.46-0.437,0.92-0.873,1.384-1.312c0.298-0.011,0.592-0.021,0.889-0.021C368.765,168.504,369.075,168.928,369.059,169.558z"/>
			<path fill="#A7A7A7" d="M327.507,143.748c-0.432,0.435-0.864,0.875-1.292,1.315c-2.238-0.073-3.146-1.759-4.109-3.372
				c0.317-0.395,0.686-0.454,1.109-0.169C324.811,141.947,326.382,142.419,327.507,143.748z"/>
			<path fill="#4A4A4A" d="M323.216,141.521c-0.373,0.055-0.741,0.109-1.109,0.169c-0.73-0.335-1.467-0.662-2.197-0.994
				c-0.353-0.385-0.706-0.77-1.063-1.16C321.396,137.787,322.475,139.271,323.216,141.521z"/>
			<path fill="#170405" d="M551.262,419.856c0.784-0.657,1.578-1.31,2.361-1.966c1.887-1.658,3.786-3.303,5.204-5.407
				c7.646-9.607,16.124-18.674,22.765-28.93c12.588-19.463,19.334-41.52,25.256-63.72c6.647-24.887,5.842-50.417,5.826-75.882
				c-0.016-24.071-10.073-44.21-24.563-62.356c-11.707-14.673-27.553-16.312-44.629-11.315
				c-16.83,4.929-30.839,15.391-45.969,23.657c-5.441,2.984-10.773,6.241-16.843,7.898c-0.877-1.808,0.473-2.684,1.652-3.278
				c3.299-1.663,5.414-5.035,9.043-6.174c1.459,0.038,3.062,0.271,2.742-2.063c0.145-0.17,0.284-0.337,0.422-0.499
				c3.727,0.613,6.312-1.803,9.143-3.492c4.488-2.688,9.536-4.479,13.347-8.26c9.474-5.141,19.285-9.557,29.658-12.502
				c17.623-5.003,36.42,1.926,46.906,16.917c1.505,2.162,3.195,4.196,4.798,6.288c4.275,8.135,8.864,16.128,11.896,24.846
				c2.908,8.384,5.305,16.896,5.289,25.897c-0.031,12.294,0.303,24.592-0.078,36.873c-0.619,20.036-3.055,39.827-9.408,58.98
				c-1.274,3.871-2.293,7.829-3.424,11.749c-5.481,11.702-8.82,24.353-15.596,35.479c-2.18,3.578-4.623,6.992-6.953,10.479
				c-3.57,4.296-7.743,8.091-10.707,12.891c-4.498,5.108-8.097,11.034-13.818,15.024
				C554.602,418.871,552.221,422.076,551.262,419.856z"/>
			<path fill="#031109" d="M348.676,105.439c3.608,4.238,7.225,8.474,10.834,12.716c3.221,5.349,6.443,10.698,9.66,16.05
				c-0.139,3.357,2.648,5.259,3.909,7.909c6.067,12.756,11.339,25.82,15.01,39.482c0.487,1.819,1.099,3.729-2.073,3.1
				c-0.557,0.064-1.024-0.103-1.396-0.531c-5.028-10.433-7.066-21.993-12.325-32.369c-8.137-16.062-16.477-31.952-30.083-44.297
				c-0.793-0.713-1.515-1.505-2.125-2.393c-0.293-0.44-0.5-0.918-0.642-1.429c-0.159-0.79-0.112-1.561,0.15-2.326
				c0.357-0.749,0.912-1.244,1.749-1.398C343.874,101.66,345.384,104.738,348.676,105.439z"/>
			<path fill="#8C908F" d="M385.337,184.723c0.226,0.018,0.448,0,0.679-0.026c0.004,1.977,1.229,4.084-0.615,5.867
				c-0.718-1.154-1.61-2.246-1.385-3.745C384.168,185.939,384.413,185.115,385.337,184.723z"/>
			<path fill="#04130A" d="M445.175,192.939c-0.978-2.466-0.888-4.923,0.068-7.375c4.183-6.327,6.138-13.7,9.627-20.356
				c4.032-9.091,10.142-16.957,15.158-25.466c1.374-1.482,2.762-2.964,4.142-4.446c3.998-1.324,4.346-5.784,7.078-8.224
				c1.496-1.34,2.368-3.729,5.072-2.271c0.763,2.286-0.911,3.678-2.014,5.213c-8.84,12.307-17.789,24.504-24.857,38.007
				c-3.477,6.649-6.122,13.667-9.771,20.206c-1.024,1.83-1.564,4.054-3.771,5C445.665,193.132,445.418,193.036,445.175,192.939z"/>
			<path fill="#656865" d="M447.633,175.802c0.531-2.331,0.385-3.915,2.212-5.429C449.929,172.501,449.635,173.928,447.633,175.802z
				"/>
			<path fill="#A2A1A1" d="M452.549,166.218c-0.358,1.14-1.158,2.95-2.143,2.02c-1.34-1.271,0.484-2.891,1.122-4.316
				C452.556,164.381,452.225,165.446,452.549,166.218z"/>
			<path fill="#039D48" d="M342.7,156.618c3.057-0.729,3.375,3.457,6.063,3.379c9.652,9.625,19.3,19.247,28.948,28.868
				c0.381,1.407,0.762,2.803,1.142,4.208c-1.918,0.426-3.457-0.773-5.175-1.198c-8.279-10.006-17.452-19.142-27.104-27.814
				c-1.841-1.658-3.562-3.444-5.339-5.172C341.681,158.105,341.463,156.896,342.7,156.618z"/>
			<path fill="#1C1E1F" d="M364.901,189.875c-0.903-0.072-1.724-0.275-2.128-1.213c1.027-1.534-1.044-1.902-1.13-3.016
				c0.023-0.386,0.039-0.778,0.062-1.164C363.182,186.036,366.572,186.459,364.901,189.875z"/>
			<path fill="#040F09" d="M486.177,124.639c-4.275,1.596-5.635,5.773-8.146,8.961c-0.706,0.898-1.105,4.675-3.861,1.695
				c3.211-4.655,6.413-9.307,9.624-13.961c1.452-2.1,3.192-3.922,5.298-5.385c2.073,0.127,3.073-1.517,4.373-2.658
				c0.927-0.828,1.883-1.905,3.229-1.255c1.449,0.709,1.274,2.107,1.371,3.605c0.78,11.972-4.451,22.118-9.471,32.367
				c-2.062,4.209-3.988,8.484-5.976,12.726c0,1.347-0.837,2.263-1.646,3.198c-2.374,1.803-2.677,5.136-5.066,6.927
				c-5.619,6.984-11.745,13.537-17.77,20.176c-1.902,2.093-4.092,3.935-5.11,6.734c-0.447,1.237-1.534,1.3-2.611,0.588
				c-1.768-2.676-0.362-4.758,1.361-6.664c7.553-8.312,14.419-17.167,20.838-26.351c9.754-13.942,17.613-28.806,21.508-45.934
				C491,120.784,489.882,124.786,486.177,124.639z"/>
			<path fill="#3B3B3B" d="M480.583,163.084c0.681-0.783,1.358-1.566,2.043-2.35c0.3,0.076,0.608,0.124,0.921,0.142
				c0.606,1.645,1.628,0.465,2.486,0.371c0.025,0.296,0.051,0.596,0.075,0.898c-0.403,2.876-2.124,4.315-4.966,4.523
				C479.559,165.696,479.68,164.447,480.583,163.084z"/>
			<path fill="#040F09" d="M481.68,166.42c1.474-1.425,2.951-2.852,4.429-4.274c7.247-4.909,12.441-11.837,18.095-18.316
				c7.965-7.187,12.994-16.711,19.697-24.896c2.442-2.984,5.638-5.483,7.096-9.243c3.015-2.373,6.035-4.742,9.033-7.127
				c2.175-1.72,4.689-1.748,6.822-0.496c1.952,1.149,2.427,3.114,2.593,5.761c0.499,8.106-2.759,14.992-5.679,22.075
				c-3.289,5.301-7.034,10.34-9.674,16.034c-1.412,2.151-2.826,4.294-4.244,6.441c-1.809,2.485-3.624,4.97-5.433,7.449
				c-2.261,2.703-4.354,5.559-7.321,7.579c-7.8,7.194-15.871,14.113-22.555,22.42l-0.028,0.011
				c-0.384,0.357-0.831,0.603-1.347,0.733c-1.152,0.025-2.015-0.392-2.383-1.564c-0.182-1.712,0.965-2.824,1.843-4.061
				c1.899-2.571,3.729-5.228,6.725-6.695c3.23-1.217,5.116-4.034,7.49-6.272c3.417-3.819,7.868-6.705,10.265-11.435
				c1.496-2.508,3.16-4.881,5.382-6.81c1.621-1.017,2.764-2.368,3.073-4.327c5.01-9.437,11.767-17.85,16.114-27.689
				c1.603-3.622,2.927-7.266,3.364-11.208c0.118-1.061,0.259-2.207-0.69-2.972c-1.271-1.018-2.374-0.098-3.396,0.559
				c-5.092,3.26-8.415,8.209-11.825,12.956c-11.367,15.809-23.414,31.069-37.811,44.207c-8.864,8.091-16.171,17.556-24.645,25.95
				c-1.156,1.144-1.79,2.655-2.796,3.906c-0.928,0.748-1.952,0.503-2.971,0.266c-0.759-0.229-1.43-0.587-1.93-1.222
				c4.104-6.777,10.151-11.919,15.18-17.924c1.213-1.449,3.043-2.53,2.814-4.819C477.737,168.999,479.896,167.886,481.68,166.42z"/>
			<path fill="#413F40" d="M501.383,185.552c0.684-1.882,1.577-3.285,2.698-2.785c1.749,0.781,0.231,1.498-0.568,1.993
				C503.088,185.021,502.563,185.124,501.383,185.552z"/>
			<path fill="#031209" d="M369.059,169.558c-0.285-0.44-0.567-0.879-0.853-1.314c-1.226-4.41-3.231-8.388-6.425-11.714
				c-3.93-7.11-7.855-14.22-11.777-21.325c-5.06-9.48-9.291-19.42-15.747-28.117c-0.536-1.632,1.345-1.802,1.745-2.864
				c0.198-0.119,0.389-0.246,0.59-0.369c0.48-0.027,0.94,0.06,1.385,0.23c0.927,0.396,1.725,0.947,2.308,1.787
				c12.296,22.923,25.173,45.513,38.245,68.007c1.848,3.172,5.027,6.195,3.54,10.604c-3.935-1.823-4.287-7.256-8.681-8.61
				C372.024,173.712,371.857,170.735,369.059,169.558z"/>
			<path fill="#0B0A0B" d="M341.339,99.952c-0.356,0.356-0.718,0.712-1.079,1.065c-2.354-0.163-3.802,0.888-4.283,3.222l0.024-0.017
				c-2.019-1.569-4.378-3.423-1.895-5.954C336.953,95.364,339.099,98.558,341.339,99.952z"/>
			<path d="M392.733,364.21c0.284-0.367,0.565-0.732,0.855-1.103c2.808-2.783,4.941-4.282,7.547,0.753
				c1.654,3.196,5.89,4.369,9.277,5.922c1.946,0.892,3.662,2.177,5.629,3.023c14.649,5.72,29.772,9.361,45.556,9.091
				c14.56-0.248,29.14,1.456,43.661-0.07c9.708-1.021,19.109-3.607,27.855-8.181c1.771-0.924,3.086-2.37,4.498-3.688
				c1.212-1.251,3.442-1.688,3.289-4.058c0.146-0.663,0.24-1.355,0.668-1.91c2.381,0.515,1.815-4.182,4.761-2.682
				c0.331,1.019,0.109,2.029-0.05,3.049c-0.46,2.392-1.103,4.762-0.959,7.237c-0.206,7.626,1.103,15.418-2.587,22.633
				c-0.056,0.555-0.181,1.107-0.365,1.629c-1.33,2.248-3.695,3.99-3.441,7.018c-2.162,5.156-6.025,8.763-10.667,11.663
				c-12.167,7.061-24.854,11.299-39.348,9.828c-12.675-1.29-25.444-1.429-37.238-7.136c-1.746-0.847-3.433-1.798-5.163-2.661
				c-3.846-1.366-6.924-4.316-10.957-5.304l0.021,0.008c-1.027-1.078-2.602-1.142-3.736-2.024
				c-7.824-2.881-15.023-6.961-22.042-11.4c-1.619-0.354-2.527-1.651-3.618-2.71c-5.56-4.295-9.946-9.483-12.425-16.144
				c-0.245-0.667,0.299-0.07-0.226-0.463C388.442,372.707,390.219,368.495,392.733,364.21z"/>
			<path fill="#1A0607" d="M524.487,332.295c-6.047-0.913-11.691-2.975-17.008-5.974c-14.355-8.098-19.406-18.372-16.961-34.549
				c3.692-24.42,17.542-38.279,42.04-42.074c2.276-0.348,4.554-0.704,6.831-1.062c3.633-1.542,5.828,0.559,7.858,3.079
				c0.125,0.958-0.365,1.542-1.174,1.925c-11.929-0.995-22.524,3.034-32.781,8.557c-3.402,1.835-5.748,4.668-8.225,7.433
				c-8.34,10.876-10.373,23.305-8.858,36.537c0.35,3.05,2.302,5.488,4.154,7.86c2.596,2.552,5.585,4.589,8.583,6.609
				c4.354,3.328,10.086,4.047,14.334,7.574C523.994,329.477,525.303,330.579,524.487,332.295z"/>
			<path fill="#1A0707" d="M371.326,330.048c-10.326-0.719-18.336-8.092-18.946-18.786c-0.881-15.559,1.784-30.438,11.297-43.414
				c1.828-2.091,3.866-3.997,5.597-6.189c6.709-5.483,14.655-7.645,23.062-8.536c2.245-0.233,4.466,0.076,6.718-0.993
				c2.3-1.099,4.104,0.059,4.699,2.67c-0.171,0.203-0.341,0.408-0.512,0.614c-3.735,0.847-7.875-1.336-11.337,1.521
				c-3.438,2.439-7.793,2.261-11.488,4.104c-14.363,7.158-19.737,20.07-22.787,34.67c-2.129,10.165-1.359,19.461,6.552,27.118
				c1.071,3.594,4.727,4.026,7.241,5.856C371.7,329.162,371.656,329.613,371.326,330.048z"/>
			<path fill="#1D0405" d="M539.505,369.624c-11.426,10.606-25.9,12.845-40.478,13.739c-12.781,0.785-25.65,0.407-38.476,0.102
				c-15.155-0.367-29.729-3.943-43.941-9.059c-0.576-0.206-0.931-1.022-1.396-1.552c0.769-0.659,1.564-0.586,2.383-0.104
				c21.303,7.732,43.421,8.038,65.726,8.006c13.021-0.023,25.919,0.48,38.504-3.594c4.429-1.429,8.727-3.136,12.612-5.638
				c3.705-2.372,6.75-5.355,5.885-10.419c2.88,0.036,2.096,1.607,1.334,3.174c-0.01,0.714-0.01,1.418-0.016,2.125
				C541.292,367.719,540.745,368.898,539.505,369.624z"/>
			<path fill="#1B0405" d="M383.945,209.211c0.869-0.026,1.824-0.292,2.601-0.039c3.569,1.186,7.095,2.454,10.66,0.023
				c0.27,1.613,2.181,1.709,2.819,2.988c-0.227,0.297-0.504,0.829-0.623,0.796c-4.727-1.265-7.669,1.217-11.341,3.911
				c-4.45,3.276-10.282,4.668-15.474,6.97c-2.269,1.006-4.426,2.244-6.635,3.378c-1.396,1.094-2.852,2.116-4.144,3.34
				c-2.368,2.472-4.22,5.187-4.814,8.682c-0.316,1.885-1.32,3.339-3.648,2.862c-2.57-0.526-2.174-2.4-1.816-4.163
				c1.856-8.988,7.911-14.425,15.807-18.066c5.298-2.447,10.81-4.42,16.2-6.674C385.983,212.196,387.264,210.895,383.945,209.211z"
				/>
			<path fill="#1A0506" d="M545.924,252.975c0.356-0.335,0.722-0.673,1.081-1.01c4.107,0.115,3.907,4.691,6.556,6.315
				c5.879,8.781,5.457,18.864,5.688,28.73c0.31,13.162-3.437,25.233-11.319,35.82c-4.164,5.586-9.518,9.539-16.989,9.414
				c-0.625-0.563-0.728-1.27-0.556-2.051c0.674-1.96,3.451-1.674,4.017-3.764c3.526-2.086,7.637-3.398,9.889-7.228
				c10.626-16.364,14.078-33.769,7.74-52.609c-0.737-2.182-1.355-4.425-3.195-6.021c-1.065-1.2-2.118-2.416-2.88-3.846
				C545.402,255.483,544.837,254.235,545.924,252.975z"/>
			<path fill="#1A0606" d="M403.527,323.699c-3.074,4.626-7.507,6.406-12.912,6.151c0.539-2.247-3.485-3.235-1.614-5.859
				c2.042-1.009,4.263-0.639,6.404-0.863c5.111-1.362,7.154-5.824,8.995-9.886c6.779-14.943,7.752-30.089,0.236-45.193
				c-0.705-1.426-1.49-2.839-1.697-4.459c0.9-2.767,0.334-5.623,0.484-8.437l0.325-0.353c0.729,0.493,1.839,0.819,2.13,1.493
				c7.74,18.238,12.163,36.759,4.326,56.192c-0.657,1.629-1.603,3.145-2.412,4.711C406.326,319.337,405.026,321.583,403.527,323.699
				z"/>
			<path fill="#1A0404" d="M566.386,230.453c-7.471-12.588-17.56-22.332-30.994-28.425c-1.834-0.826-3.989-1.65-2.849-4.176
				c1.262-2.758,3.592-1.684,5.513-0.782c14.084,6.597,25.395,16.19,32.469,30.305C571.121,231.467,570.612,231.848,566.386,230.453
				z"/>
			<path fill="#1D0505" d="M446.314,413.497c10.361,5.329,21.159,8.662,33.013,8.706c5.457,0.02,10.957,0.704,16.445,1.03
				c11.126,0.657,20.678-3.61,30.139-8.496c0.925-0.479,1.905-0.848,2.864-1.267c0.675,1.212-0.49,1.59-1.021,2.246
				c-9.442,6.057-19.688,10.325-30.941,10.214c-13.134-0.128-26.378-0.493-38.997-5.038c-3.667-1.32-7.434-2.47-10.495-5.065
				C446.918,415.083,445.631,414.714,446.314,413.497z"/>
			<path fill="#040404" d="M491.3,188.765c0.469,0.86,1.265,1.051,2.143,1.073c1.103,1.554,0.162,2.433-1.068,3.214
				c-3.904,2.929-7.809,5.855-11.71,8.785c-0.237,0.336-0.472,0.673-0.709,1.01c-3.683,0.632-5.938,5.094-10.323,3.841
				c-2.358-1.88-0.409-2.95,0.896-3.873c1.537-1.09,3.396-1.741,4.27-3.599c0.862-1.201,2.121-1.922,3.273-2.764
				c0.272-0.215,0.578-0.397,0.81-0.653c0.634-0.738,0.19-0.82-0.428-0.602c-1.524,0.549-2.549,1.792-3.773,2.768
				c-2.215,2.061-5.389,1.761-7.862,3.185c-1.012,0.646-2.086,1.154-3.217,1.551c-0.825,0.292-1.662,0.537-2.533,0.609
				c-1.344,0.114-2.512-0.299-2.927-1.64c-0.487-1.574,0.827-2.16,1.927-2.611c1.612-0.662,3.299-1.142,4.532-2.473
				c1.399-1.4,2.961-2.539,4.892-3.122c0.466-0.162,0.959-0.281,1.449-0.363C477.594,191.011,484.503,190.151,491.3,188.765z"/>
			<path fill="#191716" d="M465.571,197.315c-0.949,3.451-5.26,1.438-6.847,3.946c1.587,2.393,3.242-0.028,4.757,0.391
				c0.497,3.217-3.636,3.364-3.991,6.018c-0.457,0.646-1.034,0.857-1.762,0.466c-2.236-0.694-4.767-0.5-6.65-2.235
				c-0.019-0.651,0.244-1.178,0.684-1.569c-0.259-0.836-0.608-0.016-0.777,0.048c-0.662,0.242,0.206-0.152-0.446,0.183
				c-1.125,0.408-2.249,0.768-3.374,1.12c-0.965,0.273-1.952,0.396-2.942,0.472c-1.46-0.096-3.029,0.722-4.369-0.482
				c0.571-2.385,2.317-4.594,1.126-7.25c1.126-1.069,2.141-0.453,3.146,0.197c0.169,0.157,0.334,0.32,0.506,0.476
				c0.325,0.322,0.646,0.653,0.979,0.963c5.038,0.186,9.555-0.646,12.135-5.696c0.234-0.451,0.893-0.493,1.43-0.254
				c0.682,0,1.362-0.005,2.034-0.008c-0.013,3.195,2.437,0.822,3.508,1.544C465.446,195.976,466.009,196.393,465.571,197.315z"/>
			<path fill="#0B0304" d="M541.666,364.28c-0.09-1.214,0.203-2.578-1.343-3.174c-1.752-1.934-4.22-0.355-6.178-1.24
				c-1.053-0.697-2.331-0.809-3.468-1.275c-1.196-0.495-2.386-1.285-1.934-2.734c0.484-1.581,1.771-2.087,3.371-1.336l-0.007-0.029
				c2.474,1.689,5.098,0.909,7.699,0.446c2.88-0.87,5.566,0.404,8.344,0.693l-0.047-0.026c0.787,0.957,1.896,0.528,2.88,0.664
				c3.813,0.511,4.004,1.184,1.371,4.746c-0.35-0.028-0.697-0.055-1.047-0.083c-0.737-1.449-1.855-0.25-2.783-0.403
				c-0.881,0.083-1.539,1.208-2.576,0.53C544.037,361.491,544.971,365.711,541.666,364.28z"/>
			<path fill="#230505" d="M392.733,364.21c-3.831,9.674,4.108,15.27,7.907,22.205c1.399,2.56,4.037,4.444,6.105,6.639
				c-0.333,0.623-0.764,0.695-1.289,0.214c-6.617-3.808-10.487-9.808-13.185-16.964c-2.185,0.933-3.854,4.532-6.329,1.798
				c-1.911-2.119-0.004-4.295,1.312-6.17C389.057,369.339,390.901,366.783,392.733,364.21z"/>
			<path fill="#240505" d="M417.597,372.751c-0.793,0.034-1.586,0.067-2.383,0.104c-5.806-2.514-11.997-4.43-15.771-10.108
				c-2.161-3.254-3.883,0.57-5.856,0.361c2.216-2.958,4.413-5.932,6.65-8.871c1.47-1.929,3.592-2.877,5.486-1.28
				c1.646,1.388,0.207,3.269-0.744,4.728c-3.93,6.056-3.935,6.034,2.419,9.453C410.816,368.978,414.197,370.875,417.597,372.751z"/>
			<path fill="#1C0403" d="M545.955,361.059c0.706-0.356,1.412-0.717,2.118-1.073c0.381,0.234,0.509,0.473,0.371,0.706
				c-0.118,0.234-0.243,0.348-0.371,0.348c-2.293,5.84-0.784,11.913-1.024,17.872c-0.207,4.992-0.426,9.881-3.036,14.317
				c-1.172,0.245-0.341,2.754-2.34,2.081c3.339-7.975,1.799-16.379,2.124-24.615c1.596-1.851,1.246-4.331,2.077-6.43
				C545.902,363.194,545.924,362.128,545.955,361.059z"/>
			<path fill="#180304" d="M388.467,324.898c0.851,1.592,3.762,2.291,2.148,4.952c-6.412,1.419-12.841,1.62-19.289,0.197
				c0-0.364,0.005-0.728,0.008-1.092c0.286-1.03,1.119-1.486,2-1.89c3.834-2.374,8.549-1.104,12.499-3.019
				c0.495-0.096,0.995-0.104,1.495-0.039C387.831,324.146,388.204,324.45,388.467,324.898z"/>
			<path fill="#1F0706" d="M370.312,198.412c2.744-0.3,4.108,1.466,4.052,3.681c-0.07,2.905,1.587,4.404,3.411,6.015
				c-4.354-0.325-9.117,0.464-11.77-4.396c-0.832-0.928-0.516-2.015-0.408-3.062c0.693-0.923,1.678-1.139,2.729-1.144
				C369.257,199.648,370.002,199.433,370.312,198.412z"/>
			<path fill="#100807" d="M530.94,329.988c0,0.755,0,1.503,0,2.257c-2.14,0.925-4.289,1.837-6.453,0.05
				c-0.7-1.134-1.405-2.261-2.111-3.395c0.634-0.614,0.834-1.478,1.252-2.22c0.175-0.419,0.375-0.826,0.557-1.243
				c2.539-5.088,2.539-5.088,6.287-1.885c0.431,0.902,0.587,1.869,0.7,2.852C531.3,327.608,531.472,328.825,530.94,329.988z"/>
			<path fill="#210505" d="M409.879,395.317c7.519,3.905,15.046,7.804,22.565,11.713c-0.759,0.68-1.562,0.609-2.389,0.125
				c-7.344-2.411-14.383-5.413-20.263-10.618C409.27,396.095,409.301,395.688,409.879,395.317z"/>
			<path fill="#1B0405" d="M415.248,205.893c0.416,1.015,1.12,1.728,2.158,2.099c1.67,1.134,3.589,1.106,5.479,1.193
				c0.263,0.271,0.316,0.487,0.16,0.649c-0.125,0.138-0.254,0.207-0.382,0.207c-8.489-1.503-17.038-1.078-25.584-0.825
				c1.475-1.949,3.608-0.959,5.456-1.193c1.666-0.206,3.768,0.528,4.155-2.135c0.349,0,0.707-0.005,1.064-0.005
				C410.251,205.883,412.749,205.888,415.248,205.893z"/>
			<path fill="#120504" d="M457.729,208.136c0.49-0.354,0.986-0.711,1.483-1.06c0.478-0.709,1.202-0.862,1.989-0.847
				c3.255,0.38,6.566,0.229,9.084,1.114c-0.406,0.065-1.74,0.66-1.478-1.451c4.329,1.217,6.915-3.919,11.147-3.046
				C473.758,209.69,466.283,211.188,457.729,208.136z"/>
			<path fill="#310605" d="M527.754,415.717c0.341-0.748,0.682-1.498,1.021-2.246c3.936-2.92,7.203-6.428,9.661-10.675
				c0.397-0.478,0.784-0.499,1.165,0.015C537.706,408.992,533.289,412.874,527.754,415.717z"/>
			<path fill="#290606" d="M532.115,354.521c-0.969,0.271-2.222,0.237-2.537,1.395c-0.381,1.384,0.834,1.678,1.809,1.895
				c1.259,0.275,2.181,0.917,2.759,2.057c-1.228-0.068-2.506,0.055-3.687-0.229c-2.189-0.54-5.163-0.954-4.038-4.204
				C527.482,352.352,529.981,353.496,532.115,354.521z"/>
			<path fill="#390808" d="M553.561,258.28c-3.267-0.992-3.41-5.213-6.556-6.319c-2.271-1.721-4.342-3.89-7.615-3.324
				c4.52-2.718,7.184,0.749,9.904,3.214C551.175,253.562,552.961,255.594,553.561,258.28z"/>
			<path fill="#7F1012" d="M422.663,210.041c0.057-0.286,0.128-0.58,0.222-0.856c1.025-0.06,2.05-0.118,3.071-0.18
				c3.164-0.826,6.266-2.312,9.651-0.983c0.37,0.196,0.496,0.407,0.381,0.62c-0.114,0.222-0.228,0.332-0.353,0.332
				C431.461,211.079,427.012,209.997,422.663,210.041z"/>
			<path fill="#250605" d="M552.355,361.015c3.426-5.605-3.293-3.249-4.251-5.415c1.571,0.049,3.133,0.094,4.704,0.13
				c2.148,0.053,3.979,0.678,3.832,3.219C556.463,361.903,554.292,361.352,552.355,361.015z"/>
			<path fill="#4E2524" d="M435.636,208.974c0.028-0.32,0.021-0.642-0.028-0.952c0.681-0.367,1.371-0.731,2.055-1.1
				c2.689-0.133,5.22-1.451,7.979-1.029c1.627,0.106,3.323-0.511,4.891,0.388C445.855,208.772,440.881,209.646,435.636,208.974z"/>
			<path fill="#2F0606" d="M446.314,413.497c0.334,0.778,0.675,1.555,1.006,2.33c-3.92-2.188-7.843-4.377-11.766-6.563
				C439.908,408.725,442.479,412.715,446.314,413.497z"/>
			<path fill="#5A0A09" d="M566.386,230.453c2.284,0.181,4.482,0.253,4.139-3.078c1.928,1.488,1.85,3.604,0.294,4.766
				C569.25,233.31,567.13,232.951,566.386,230.453z"/>
			<path fill="#250605" d="M548.151,355.631c-2.877,0.019-5.767,0.039-8.652,0.062c-0.382-0.235-0.5-0.475-0.382-0.712
				c0.129-0.24,0.257-0.364,0.382-0.364C542.703,352.228,545.306,355.002,548.151,355.631z"/>
			<path fill="#680B0C" d="M369.273,261.658c-0.889,2.948-3.022,4.767-5.6,6.189C364.624,264.96,366.691,263.076,369.273,261.658z"
				/>
			<path fill="#290606" d="M539.499,354.617c0,0.356,0,0.717,0,1.076c-2.562,0.221-5.441,2.327-7.391-1.202
				C534.576,354.53,537.031,354.574,539.499,354.617z"/>
			<path fill="#490809" d="M403.527,323.699c0.486-2.773,1.945-4.918,4.266-6.502C407.168,319.883,405.906,322.158,403.527,323.699z
				"/>
			<path fill="#690E0A" d="M558.827,412.483c-0.675,2.818-2.48,4.557-5.204,5.412C554.735,415.49,556.641,413.846,558.827,412.483z"
				/>
			<path fill="#1C0403" d="M539.602,402.811c-0.391-0.005-0.777-0.01-1.165-0.015c0.01-2.666,0.784-4.957,3.155-6.473
				c0.675,0.696,0.675,1.416,0.05,2.139C540.967,399.913,540.286,401.358,539.602,402.811z"/>
			<path fill="#2F0606" d="M430.056,407.155c0.798-0.044,1.596-0.083,2.389-0.125c1.498,0.115,2.645,0.719,3.132,2.241
				C433.486,409.229,431.659,408.479,430.056,407.155z"/>
			<path fill="#AAA7AD" d="M450.385,206.114c-0.891-1.046-2.103-1.377-3.393-1.541c1.188-0.364,2.368-0.725,3.552-1.091
				c1.009-0.109,2.387-0.812,2.062,1.261c-0.509,0.384-1.019,0.771-1.527,1.157C450.856,206.011,450.625,206.078,450.385,206.114z"
				/>
			<path fill="#250605" d="M548.063,361.039c0-0.353,0.01-0.701,0.01-1.054c0.412,2.582,4.066-5.896,3.235,0.946
				C550.231,360.969,549.145,361.004,548.063,361.039z"/>
			<path fill="#A31415" d="M361.81,230.578c0.855-1.764,2.026-3.138,4.144-3.34C365.108,229.02,363.855,230.29,361.81,230.578z"/>
			<path fill="#540A09" d="M409.879,395.317c-0.031,0.409-0.053,0.812-0.086,1.22c-1.983-0.382-3.244-1.703-4.336-3.265
				c0.43-0.071,0.862-0.146,1.289-0.219C407.793,393.809,408.832,394.56,409.879,395.317z"/>
			<path fill="#310605" d="M541.642,398.462c-0.016-0.712-0.034-1.427-0.05-2.139c0.034-0.341,0.056-0.679,0.074-1.014
				c0.784-0.69,1.568-1.387,2.347-2.076C543.734,395.206,543.394,397.152,541.642,398.462z"/>
			<path fill="#530505" d="M365.953,200.464c0.02,1.085,0.035,2.165,0.052,3.247c-0.706-1.118-1.411-2.236-2.117-3.356
				c0.016-0.357,0.023-0.715,0.039-1.069C365.069,198.877,366.037,198.775,365.953,200.464z"/>
			<path fill="#95938F" d="M365.953,200.464c-0.31-1.014-1.241-0.982-2.026-1.179c-0.023-0.278-0.104-0.544-0.222-0.791
				c1.03-0.058,1.968-0.272,2.414-1.363c1.004,0.477,2.003,0.948,3.007,1.423c0.682,0.612,0.733,1.227-0.004,1.835
				C368.066,200.414,367.013,200.438,365.953,200.464z"/>
			<path fill="#303030" d="M385.329,198.265c-1.353-0.395-2.621-0.574-3.177,1.173c-2.966-1.155-3.568-3.54-3.315-6.375
				C379.869,196.208,384.151,195.306,385.329,198.265z"/>
			<path fill="#686567" d="M369.122,200.389c0-0.613,0.004-1.228,0.004-1.841c0.393-0.044,0.789-0.093,1.186-0.141
				c0.245,0.986,2.126,1.329,1.483,2.359C371.105,201.88,370.006,200.746,369.122,200.389z"/>
			<path fill="#01A44B" d="M382.069,184.482c-4.184-11.242-11.404-20.825-17.04-31.271c-8.59-15.933-18.293-31.26-25.927-47.71
				c0.139-0.788,0.6-1.228,1.404-1.299c11.365,8.779,18.424,20.898,25.665,32.906c8.954,14.85,14.534,31.037,19.166,47.613
				c0.036,0.995-0.421,1.682-1.321,2.09C383.366,186.036,382.716,185.26,382.069,184.482z"/>
			<path fill="#04130A" d="M444.141,199.416c-1.053-0.331-2.108-0.662-3.162-0.995c2.307-1.129,1.326-4.777,4.196-5.477
				c0-0.005,0.3,0.277,0.3,0.277C446.771,195.663,445.975,197.646,444.141,199.416z"/>
			<path fill="#8D8589" d="M444.287,204.998c0.307,0.604,0.612,1.212,0.919,1.817c-2.532-1.097-5.006,1.762-7.544,0.106
				c0.166-0.273,0.301-0.567,0.403-0.876c0.597-0.125,1.19-0.249,1.787-0.375C441.333,205.454,442.697,204.488,444.287,204.998z"/>
			<path fill="#080605" d="M492.374,193.052c0.354-1.074,0.709-2.145,1.068-3.214c0.356-0.005,0.712-0.005,1.068,0
				C495.907,193.166,495.907,193.166,492.374,193.052z"/>
			<path fill="#232323" d="M335.977,104.239c-0.047-1.447-1.264-3.131,0.215-4.271c1.526-1.177,2.685,0.736,4.068,1.049
				c-0.008,0.714-0.012,1.436-0.017,2.147c-1.026,0.65-2.259,0.673-3.358,1.094C336.584,104.25,336.283,104.247,335.977,104.239z"/>
			<path fill="#01A44B" d="M444.141,199.416c-0.581-2.285,1.234-4.055,1.334-6.194c6.069-10.07,9.955-21.215,15.793-31.433
				c6.827-11.937,15.151-22.792,23.011-33.993c0.699-1.007,1.265-2.108,1.896-3.157c2.817-2.639,5.635-5.281,9.002-8.443
				c0.803,4.085-0.568,7.17-1.496,10.237c-6.649,22.065-19.653,40.412-33.834,58.132c-3.427,4.289-9.111,7.191-9.373,13.679
				c-0.15,0.205-0.304,0.411-0.453,0.612c-1.855,0.859-3.742,1.44-5.775,0.555L444.141,199.416z"/>
			<path fill="#020905" d="M459.174,194.106c-2.12,6.597-8.396,6.412-13.462,8.133c-1.181,0.403-1.331-0.793-1.475-1.668
				c1.615-2.08,4.561-0.569,6.282-2.338l-0.047,0.016c5.19-7.607,12.609-13.347,17.804-20.91c1.902-2.773,6.503-3.578,6.091-8.118
				c-0.006-0.059,0.73,0.761,0.871,1.359c0.628,0.531,1.306,0.971,2.149,1.067c2.627,0.371,1.097,1.653,0.396,2.387
				C471.506,180.651,466.093,188.084,459.174,194.106z"/>
			<path fill="#121414" d="M477.388,171.647c-1.702,1.619-1.934,0.3-2.149-1.067c1.843-2.46,2.018-6.103,5.345-7.495
				c0.05,1.212-0.19,2.524,1.097,3.335C481.607,169.274,478.815,169.901,477.388,171.647z"/>
			<path fill="#00A44B" d="M523.328,154.479c-1.755,2.145-3.508,4.286-5.263,6.435c-2.971,4.109-6.953,7.259-10.386,10.926
				c-2.602,2.426-4.857,5.214-7.75,7.335c-2.451,1.798-4.807,3.697-6.469,6.292c-3.11,3.433-7.081,4.935-11.622,5.185
				c-4.264,0.229-7.919,2.655-12.048,3.383l0.047-0.031c-1.662,0.902-3.607,0.902-5.316,1.679c-0.608,0.044-1.043-0.201-1.318-0.749
				c2.115-6.608,8.175-10.08,12.226-15.145c9.249-11.559,20.915-20.826,30.829-31.821c9.708-10.757,17.364-23.021,26.713-33.989
				c2.452-2.873,4.967-5.598,8.115-7.675c1.149-0.757,2.349-2.096,3.807-1.251c1.481,0.86,1.918,2.666,1.753,4.243
				c-0.443,4.254-1.546,8.335-3.38,12.282c-4.67,10.05-11.26,18.949-16.701,28.533C525.755,151.76,524.422,153.033,523.328,154.479z
				"/>
			<path fill="#03160A" d="M469.791,194.034c5.379-2.437,10.604-5.407,16.773-5.206c2.958,0.095,4.089-3.297,6.894-3.362
				c-0.719,1.101-1.437,2.199-2.158,3.298C484.693,192.797,477.065,192.699,469.791,194.034z"/>
			<path fill="#013915" d="M507.408,171.746c3.188-3.965,6.644-7.676,10.657-10.828c-2.124,5.235-6.794,8.189-10.667,11.856
				c-0.338-0.233-0.456-0.458-0.338-0.687C507.18,171.859,507.289,171.746,507.408,171.746z"/>
			<path fill="#02421C" d="M507.408,171.746c-0.016,0.346-0.016,0.685-0.01,1.028c-2.184,2.489-3.904,5.521-7.469,6.4
				C501.941,176.21,504.478,173.776,507.408,171.746z"/>
			<path fill="#7E7F7F" d="M463.203,194.931c0.413,0.083,0.822,0.164,1.234,0.25c0.6,0.467,0.531,0.792-0.213,0.971
				c-1.32-0.004-2.849,0.387-3.897-0.145c-0.815-0.414,0.646-1.191,0.881-1.908C461.876,194.376,462.541,194.652,463.203,194.931z"
				/>
			<path fill="#013015" d="M523.328,154.479c0.325-2.013,1.628-3.312,3.236-4.37C526.627,152.406,525.215,153.625,523.328,154.479z"
				/>
			<path fill="#0B0304" d="M545.874,364.265c-0.125,2.325,0.85,5.012-2.077,6.435C543.847,368.344,544.409,366.157,545.874,364.265z
				"/>
			<path fill="#0B0304" d="M539.505,369.624c0.716-1.074,1.421-2.144,2.137-3.219C542.672,368.631,541.267,369.245,539.505,369.624z
				"/>
			<path fill="#252424" d="M545.924,252.975c0.365,1.07,0.728,2.14,1.087,3.21c-0.396,0.402-0.881,0.609-1.446,0.621
				c-13.094-2.393-24.351,2.006-34.805,9.371c-1.719,1.209-2.965,3.109-5.258,3.431c-0.571-0.021-1.053-0.234-1.449-0.642
				c6.297-8.301,15.053-11.978,24.938-14.415C534.695,253.146,539.998,250.754,545.924,252.975z"/>
			<path fill="#282828" d="M504.053,268.966c0.494,0.06,0.994,0.114,1.484,0.178c0.921,2.233-0.803,3.617-1.69,5.276
				c-5.241,9.777-7.962,19.985-5.75,31.182c0.556,2.812,2.658,5.062,2.562,8.03c-0.104,0.581-0.378,1.07-0.818,1.465
				c-5.619-4.869-5.351-11.422-5.366-18.002C494.448,286.583,497.606,277.237,504.053,268.966z"/>
			<path fill="#2A2A2A" d="M524.478,326.772c0.169,1.562-0.762,2.053-2.102,2.128c-4.342-3.101-9.908-3.87-14.068-7.33
				c0.34-0.46,0.79-0.753,1.346-0.895C514.954,321.831,520.073,323.444,524.478,326.772z"/>
			<path fill="#373836" d="M509.747,321.349c-0.475,0.07-0.959,0.151-1.439,0.222c-3.121-1.773-6.038-3.806-8.468-6.478
				c0.065-0.482,0.134-0.966,0.199-1.449C504.337,314.875,507.941,316.982,509.747,321.349z"/>
			<path fill="#20201F" d="M363.844,323.628c-8.677-6.313-9.573-15.34-8.245-24.837c1.222-8.764,3.906-17.136,8.519-24.818
				c4.866-8.122,11.723-13.493,20.962-15.791c2.236-0.556,4.409-1.33,6.614-2.007c3.406-1.405,6.726-2.547,7.979,2.61
				c-1.023,2.13-2.999,1.494-4.679,1.516c-15.245,0.218-25.729,7.357-31.044,21.639c-3.561,9.572-5.805,19.466-4.044,29.743
				c1.177,6.877,3.382,8.59,10.183,9.454c1.793,0.223,4.133-0.319,4.645,2.45c-1.495,1.654-3.707,1.36-5.556,2.049
				C367.005,326.008,365.029,325.854,363.844,323.628z"/>
			<path fill="#120404" d="M399.195,259.275c-0.959-4.764-4.817-2.513-7.502-3.101c3.586-4.063,7.697-2.082,11.734-1.021
				c1.359,2.473,3.23,4.938,0.067,7.455c-1.515-0.18-2.474-1.266-3.565-2.141C399.592,260.131,399.348,259.734,399.195,259.275z"/>
			<path fill="#110404" d="M363.844,323.628c1.622,1.239,3.481,1.196,5.365,1.015c3.038-1.035,4.663-0.243,4.219,3.236
				c-0.697,0.36-1.396,0.72-2.094,1.077C368.004,328.349,364.232,328.362,363.844,323.628z"/>
			<path fill="#20201F" d="M549.294,259.317c1.959,1.157,2.728,3.031,3.499,5.095c5.781,15.539,4.822,30.749-1.815,45.8
				c-1.621,3.67-3.451,7.161-6.125,10.175c-0.737-0.651-0.99-1.498-1.021-2.444c0.031-0.895,0.229-1.771,0.656-2.557
				c9.296-16.887,9.758-34.439,3.982-52.474c-0.216-0.683-0.216-1.396-0.128-2.108C548.479,260.193,548.795,259.698,549.294,259.317
				z"/>
			<path fill="#292526" d="M544.78,318.074c0.025,0.771,0.051,1.541,0.072,2.312c-2.387,3.834-6.028,5.733-10.295,6.68
				c-0.521-0.175-0.728-0.532-0.625-1.069C537.612,323.444,540.064,319.203,544.78,318.074z"/>
			<path fill="#292526" d="M530.94,329.988c-0.331-1.096-0.675-2.2-1.012-3.303c1.361-0.998,2.727-1.16,4.107-0.021
				c0.149,0.156,0.324,0.286,0.512,0.401C534.886,329.931,531.928,328.737,530.94,329.988z"/>
			<path fill="#423E3F" d="M549.294,259.317c-0.109,0.477-0.206,0.946-0.309,1.423c-2.627-0.341-4.067-1.568-3.317-4.425
				c0.446-0.048,0.896-0.087,1.343-0.131C547.77,257.23,548.532,258.275,549.294,259.317z"/>
			<path fill="#1F1E1F" d="M399.834,259.639c1.9,0.151,2.805,1.526,3.661,2.97c9.573,16.371,10.176,33.296,2.554,50.454
				c-2.093,4.713-4.418,9.764-10.128,11.566c-0.373-0.458-0.53-0.985-0.476-1.576c2.109-4.1,5.733-7.211,7.463-11.585
				c5.82-14.743,6.06-29.366-0.674-43.917C401.076,265.048,398.942,262.783,399.834,259.639z"/>
			<path fill="#3C3C3C" d="M395.93,323.504c0,0.375-0.004,0.753-0.009,1.129c-2.489,0.088-4.973,0.174-7.454,0.261
				c-0.461-0.137-0.918-0.271-1.381-0.418c-1.348-1.824-1.02-3.764-0.119-5.56c1.309-2.59,2.898-5.399,6.364-4.6
				c3.736,0.858,2.638,4.045,2.32,6.625C395.548,321.849,395.413,322.69,395.93,323.504z"/>
			<path fill="#080605" d="M468.808,205.893c0.699,0.49,1.39,0.982,2.083,1.473c-3.146-1.026-6.453,2.135-9.573-0.368
				c0.928-2.84,5.15-2.935,5.335-6.393c1.567-2.997,5.354-1.09,7.277-3.294c0.206,0.086,0.422,0.174,0.631,0.261
				c0.481,0.531,0.688,1.165,0.672,1.871c1.024,1.982,0.159,2.812-1.787,3.318C471.594,203.245,469.72,203.907,468.808,205.893z"/>
			<path fill="#2F2E2E" d="M466.652,200.604c1.924,1.277,0.814,1.916-0.247,3.231c-1.421,1.767-3.404,2.111-5.088,3.161
				c-0.706,0.024-1.409,0.048-2.105,0.076c-0.891-3.625,3.811-2.856,4.27-5.421C464.541,201.306,465.593,200.953,466.652,200.604z"
				/>
			<path fill="#1E1D1D" d="M473.93,197.311c0.831-0.871,1.524-1.988,2.521-2.56c1.659-0.954,3.92-3.101,5.301-0.516
				c1.087,2.046-2.108,2.015-3.18,3.135c-1.455-0.447-2.937,1.482-4.386-0.034L473.93,197.311z"/>
			<path fill="#514F52" d="M474.186,197.336c1.459,0.251,2.942-2.101,4.393,0.034c-1.115,0.693-2.228,1.384-3.343,2.072
				C474.404,198.978,474.042,198.282,474.186,197.336z"/>
			<path fill="#03160A" d="M464.225,196.151c0.094-0.323,0.166-0.646,0.213-0.971c1.725-0.727,3.471-1.396,5.4-1.183
				c-1.418,1.105-2.849,2.21-4.267,3.317C465.121,196.925,464.669,196.538,464.225,196.151z"/>
			<path fill="#031C0D" d="M450.52,198.238c-1.406,2.633-4.242,1.405-6.282,2.333c0-0.389,0.007-0.774,0.007-1.155
				C446.218,198.4,448.37,198.318,450.52,198.238z"/>
			<path fill="#4C4A48" d="M452.605,204.743c-0.315-1.032-1.303-0.967-2.062-1.261c1.387-1.085,2.89-1.061,4.504-0.506
				C454.664,204.227,453.605,204.438,452.605,204.743z"/>
			<path fill="#FDFDFD" d="M395.93,323.504c-1.384-0.039-3.617,0.856-2.039-2.146c1.022-1.954,2.521-4.642-0.166-5.913
				c-3.323-1.576-4.26,1.76-5.584,3.966c-0.96,1.609-0.805,3.355-1.051,5.064c-0.298-0.064-0.548,0.021-0.742,0.25
				c-3.973,0.531-7.982,1.41-11.634-1.19c-1.424-0.943-3.055-0.871-4.652-0.899c-6.396-0.094-10.896-3.514-11.622-9.88
				c-1.706-15.001,0.84-29.247,9.916-41.616c7.595-10.352,18.512-13.222,30.84-11.864c0.112,0.309,0.326,0.428,0.644,0.358
				c5.179,9.593,9.342,19.47,8.867,30.693C408.184,302.82,405.676,314.556,395.93,323.504z"/>
			<path fill="#211D1D" d="M374.714,323.535c3.873,0.401,7.752,0.794,11.63,1.19c-3.965,2.432-8.554,2.312-12.916,3.153
				c-0.713-1.976-1.72-3.578-4.219-3.236C370.763,322.886,372.877,323.91,374.714,323.535z"/>
			<path fill="#FDFDFD" d="M545.668,256.315c0.55,1.885,1.952,3.143,3.317,4.425c7.915,19.79,6.25,38.885-4.205,57.334
				c-3.092,3.475-6.519,6.531-10.744,8.591c-1.375,0.005-2.746,0.014-4.107,0.021c-0.035-1.026-0.065-2.057-0.088-3.078
				c-0.652-1.363-0.756-3.515-2.792-3.319c-1.784,0.164-1.359,2.233-1.85,3.477c-0.391,0.966,0.119,2.16-0.728,3.028l0.006-0.024
				c-5.275-0.807-9.836-3.573-14.73-5.425c-3.235-2.562-6.469-5.133-9.708-7.7c-7.777-14.342-3.933-27.781,3.205-40.953
				c0.672-1.236,1.524-2.37,2.293-3.547c9.373-10.141,21.82-13.142,34.755-15.257C543.028,253.438,544.053,255.153,545.668,256.315z
				"/>
			<path fill="#2A2A2A" d="M524.472,326.796c0.021-1.235-0.01-2.477,0.094-3.699c0.206-2.395-0.166-5.674,3.602-5.007
				c3.201,0.565,2.401,3.264,1.674,5.518C525.074,319.67,526.533,326.19,524.472,326.796z"/>
		</g>
	</g>
</g>
</svg>
