<?xml version="1.0" encoding="utf-8"?>
<!-- Generator: Adobe Illustrator 16.0.0, SVG Export Plug-In . SVG Version: 6.00 Build 0)  -->
<!DOCTYPE svg PUBLIC "-//W3C//DTD SVG 1.1//EN" "http://www.w3.org/Graphics/SVG/1.1/DTD/svg11.dtd">
<svg version="1.1" id="Layer_1" xmlns="http://www.w3.org/2000/svg" xmlns:xlink="http://www.w3.org/1999/xlink" x="0px" y="0px"
	 width="368px" height="352px" viewBox="0 0 368 352" enable-background="new 0 0 368 352" xml:space="preserve">
<g>
	<g>
		<g>
			<g>
				<path fill="#160405" d="M45.626,271.67c-0.304-0.322-0.609-0.638-0.92-0.954c-0.688-2.635-3.569-3.662-4.49-6.126
					c-1.169-2.054-3.433-3.287-4.229-5.613c-4.39-4.74-8.342-9.815-11.84-15.245C9.756,226.565,1.653,207.274,1.413,184.442
					c-0.198-19.328,2.373-37.981,8.886-56.079c3.072-8.553,8.229-15.952,14.653-22.427c0.604-1.256,1.447-2.275,2.778-2.812
					c1.476-0.614,2.261-2.263,3.908-2.613c5.268-2.625,9.793-6.525,15.498-8.446c10.775-3.626,21.811-4.082,32.961-3.043
					c3.971,0.366,7.997,0.444,11.897,1.44c0.972,0.248,1.64,0.41,2.64-0.609c1.637-1.683,4.613-1.476,5.735-0.037
					c3.537,4.545,9.367,4.535,13.562,7.588c1.084,0.832,2.517,1.44,2.116,3.228c-0.645,0.607-1.427,0.889-2.286,0.994
					c-5.287-0.316-10.082-2.583-15.104-3.94c-12.792-3.446-25.913-4.747-38.812-2.583c-23.619,3.949-38.876,18.455-46.087,40.993
					c-3.804,11.889-6.374,24.12-6.729,36.767c-0.682,23.774,3.727,45.741,19.573,64.659c9.591,11.445,18.826,23.208,28.243,34.809
					c1.446,3.392,3.699,6.038,7.128,7.582c2.999,1.627,5.147,4.189,7.354,6.676c0.816,1.417,1.981,2.423,3.547,2.964
					c9.048,7.755,18.189,15.404,28.284,21.818c1.68,2.144,4.198,2.551,6.623,3.166c0.508,0.157,1.027,0.293,1.467,0.56
					c27.062,16.334,57.748,20.791,88.015,26.333c18.722,3.43,37.791,3,56.77,2.538c5.657-0.138,10.757-2.677,15.876-4.88
					c3.193-1.385,6.043-3.47,9.394-4.534c0.612-0.067,1.193,0.035,1.744,0.312c1.011,1.438,0.456,2.889,0.055,4.344
					c-9.372,7.112-19.996,10.633-31.724,10.997c-25.618,0.788-50.987-1.694-75.951-7.09c-13.007-2.805-25.983-6.066-38.771-9.88
					c-2.501-0.75-4.979-1.259-7.586-1.053c-0.766,0.03-1.472-0.071-1.835-0.879c-6.626-4.845-14.143-8.123-21.32-11.992
					c-1.346-0.722-2.827-1.197-4.074-2.12c-5.522-4.274-12.119-7.005-17.259-11.836c-2.43-1.436-4.295-3.598-6.609-5.18
					c-3.464-1.671-5.248-5.26-8.379-7.306c-1.204-0.357-1.989-1.22-2.66-2.216C58.207,284.614,52.127,277.932,45.626,271.67z"/>
				<path fill="#041009" d="M197.566,21.298c0.363-0.37,0.729-0.752,1.092-1.127c0.719-0.756,1.387-1.567,2.211-2.206
					c5.243-4.091,10.496-2.232,11.305,4.357c0.976,7.931,0.375,15.811-1.882,23.575c-3.271,11.273-6.876,22.436-10.539,33.579
					c-0.769,2.319-1.156,4.699-1.516,7.097c-2.501,4.344-3.688,9.313-6.421,13.542c-1.133,1.756-1.979,4.245-4.996,3.255
					c-0.178-4.625,2.229-8.598,3.375-12.875c3.803-14.086,8.805-27.797,13.17-41.71c1.768-5.648,3.01-11.41,3.893-17.259
					c0.234-1.549,0.415-3.113,0.171-4.669c-0.24-1.496-0.096-3.548-1.942-3.861c-1.487-0.246-2.143,1.538-2.826,2.714
					c-1.32,2.259-2.501,4.61-3.112,7.148c-3.561,14.633-10.45,27.932-16.682,41.486c-2.755,5.995-5.258,12.107-8.447,17.902
					c-1.767,3.201-3.633,6.339-6.525,8.7c-1.87,1.523-4.005,2.151-6.332,1.228c-2.519-0.992-2.997-3.234-2.985-5.58
					c0.037-5.851,2.258-11.166,4.205-16.562c6.365-17.618,11.771-35.573,18.698-53.037c-4.109,5.838-7.522,12.029-9.95,18.663
					c-4.958,13.546-10.309,26.905-17.11,39.661c-2.207,4.143-3.947,8.499-5.287,13.012c-0.951,3.218-0.124,4.784,3.55,5.053
					c9.739,0.699,19.433-0.518,29.152-0.364c1.69,0.026,3.433-0.85,5.041,0.344c0.729,0.594,0.87,1.36,0.651,2.233
					c-0.72,1.423-1.94,1.93-3.465,1.91c-4.251-0.881-8.403-0.432-12.477,1.005c-0.803,0.156-1.606,0.16-2.406,0.038
					c-2.338-0.604-4.728-0.411-7.104-0.437c-3.437,0.057-6.858-0.194-10.284-0.411c-0.538-0.015-1.062-0.089-1.582-0.191
					c-2.092-0.6-4.227-0.449-6.364-0.422c-3.119-0.224-6.487-0.053-7.246-4.264c0.93-1.605,2.71-1.558,4.158-2.142
					c3.681-0.437,4.729-2.951,4.914-6.167c0.092-1.545-0.418-3.081-0.016-4.63c10.066-18.285,17.238-37.839,25.123-57.079
					c2.256-5.379,5.878-9.998,8.509-15.175c1.412-2.368,2.981-4.347,6.111-2.459c4.998,6.166,2.043,12.691,0.277,18.787
					c-2.769,9.573-7.135,18.618-10.356,28.08c-3.064,8.986-5.231,18.289-9.204,26.968c-0.285,0.625-0.562,1.306-0.419,2.01
					c0.101,0.498,0.017,1.665,1.031,0.607c0.34-0.355,0.348-0.961,0.463-1.474c0.287-1.207,0.76-2.335,1.324-3.421
					c0.597-1.11,1.328-2.116,2.136-3.067c3.307-3.232,4.792-7.514,6.516-11.6c4.785-11.374,11.474-21.979,14.036-34.261
					c0.849-4.34,2.032-8.569,4.011-12.547C196.429,24.191,196.259,22.307,197.566,21.298z"/>
				<path fill="#171717" d="M90.889,63.957c-10.432-8.7-19.677-18.58-28.796-28.601c-1.578-1.737-2.417-3.805-0.867-5.543
					c1.413-1.595,3.519-0.695,5.248,0.305c19.043,10.988,37.036,23.37,52.399,39.246c1.524,0.206,2.547,1.107,3.316,2.366
					c0.739,1.212,1.741,2.314,1.676,3.873c-0.119,0.485-0.385,0.869-0.805,1.145c-2.384-0.022-3.569-1.896-5.039-3.286
					c-4.265-4.009-8.074-8.509-12.664-12.178c-1.433-1.145-2.748-2.717-4.905-2.548c-0.917,0.157-1.814,0.469-2.76,0.451
					c-5.546-2.792-10.202-6.733-14.482-11.162c-1.25-0.979-2.788-1.53-3.979-2.587c-1.093-1.725-2.551-2.449-4.568-1.661
					c-3.312-2.039-3.312-2.039-0.167-5.539c-3.648-1.288-6.338-4.068-10.175-5.062c4.7,2.736,5.265,9.845,11.771,10.575
					c1.026-0.151,1.792,0.313,2.462,1.019c1.057,1.581,2.876,2.107,4.338,3.124c2.237,2.6,5.071,4.57,7.44,7.023
					c1.219,1.371,2.67,2.455,4.211,3.436c1.045,0.968,2.167,1.902,1.771,3.576c-1.084,0.968-2.895,0.887-3.58,2.444
					C92.039,64.587,91.414,64.487,90.889,63.957z"/>
				<path fill="#1D1C1B" d="M127.07,332.186c2.074-1.231,4.063-1.163,6.447-0.455c12.769,3.813,25.738,7.027,38.669,10.099
					c10.821,2.573,22.118,3.672,33.269,5.084c16.324,2.069,32.611,2.056,48.883,1.56c9.428-0.29,18.459-3.6,25.794-10.184
					c3.762-2.291,7.362-4.891,11.644-6.229c0.412,2.728-0.017,4.655-3.439,5.014c-3.024,0.321-5.104,2.828-7.539,4.402
					c-16.6,10.78-35.09,11.017-53.856,10.007C192.756,349.646,159.709,341.967,127.07,332.186z"/>
				<path fill="#1D1C1B" d="M349.438,90.947c10.758,14.653,17.154,31.088,17.952,49.166c1.471,33.44,0.191,66.684-11.047,98.756
					c-0.798,2.271-1.843,4.457-2.772,6.676c-0.582,0.365-1.111,0.307-1.607-0.179c-1.178-2.85,0.082-5.467,0.936-8.05
					c5.265-16.015,8.35-32.356,9.591-49.229c1.268-17.325,1.167-34.646,0.488-51.898c-0.55-13.78-6.372-26.464-13.171-38.477
					c-1.168-2.066-3.109-3.867-1.994-6.609C348.314,90.645,348.863,90.592,349.438,90.947z"/>
				<path fill="#1D1D1D" d="M26.004,105.566c-2.941,5.849-8.194,9.933-11.316,15.873c-4.293,8.16-5.922,16.914-8.492,25.479
					c-4.833,16.107-3.208,32.676-2.907,49.044c0.16,8.395,3.644,16.37,7.118,24.206c3.874,8.753,9.406,16.342,14.676,24.158
					c-0.386,0.499-0.832,0.555-1.329,0.163c-14.621-16.345-22.722-35.268-23.718-57.32c-0.84-18.598,1.911-36.615,7.311-54.291
					c3.189-10.44,8.717-19.58,16.673-27.172C24.642,105.072,25.309,105.044,26.004,105.566z"/>
				<path fill="#1D1C1C" d="M113.593,98.408c-4.883-1.662-9.312-4.479-14.684-5.626c0.94-0.417,1.665-0.74,2.388-1.063
					c-2.29-0.488-3.911-3.126-7.117,0.004c-1.641,1.603-6.851-0.38-10.443-0.81c-17.347-2.074-34.259-2-49.058,9.352
					c-0.906,0.699-2.233,0.851-3.363,1.259c-0.731-1.206,0.511-1.522,0.99-2.186c15.238-12.098,32.79-13.78,51.261-11.319
					c0.886,0.281,1.943,0.33,1.688-0.899c-1.002-4.816,1.796-4.148,4.723-3.418c5.835,1.192,11.293,4.324,17.699,2.674
					c2.527-0.647,4.757,1.862,7.222,2.661c0.325,0.438,0.291,0.867-0.052,1.279c-2.352,1.177-4.498-0.942-7.152-0.533
					c1.847,2.456,5.772,1.979,6.422,5.313C111.102,95.75,115.467,97.571,113.593,98.408z"/>
				<path fill="#1E1E1E" d="M171.418,32.692c-5.681,16.723-12.227,33.096-20.351,48.802c-1.495,2.89-2.084,6.295-4.77,8.524
					c-1.495,0.751-1.704,2.571-2.929,3.543c-1.515,1.198-3.017,2.184-3.844-0.663c0.186-1.954,0.064-3.961,0.975-5.792
					c1.572-1.742,0.753-3.61,0.193-5.387c-4.141-13.205-8.592-26.288-15.655-38.311c-0.965-1.637-2.14-3.234-1.091-5.289
					c2.721-0.972,2.156,2.257,3.647,2.85c4.618,6.572,7.553,13.975,10.315,21.409c2.826,7.607,5.275,15.365,8.023,23.456
					c4.8-7.496,8.445-15.528,11.836-23.654c3.337-7.979,6.271-16.121,9.483-24.159c0.754-1.893,1.897-3.635,2.864-5.444
					C170.596,32.056,171.029,32.094,171.418,32.692z"/>
				<path fill="#1D1D1D" d="M197.535,86.889c-1.655-6.03,2.027-11.008,3.672-16.235c3.134-9.966,6.929-19.711,9.169-29.965
					c1.356-6.216,0.767-12.444,0.587-18.64c-0.138-4.66-3.457-6.136-7.748-4.226c-1.568,0.704-2.615,2.386-4.557,2.348
					c0.93-4.37,4.088-6.059,8.113-6.243c3.924-0.189,5.235,2.924,6.214,5.916c2.229,6.814,1.419,13.685-0.27,20.438
					c-1.796,7.188-3.908,14.297-5.881,21.44c-0.759,0.997-0.168,2.133-0.33,3.192c-0.216,0.843-0.589,1.626-0.954,2.377
					c0.043,0.311-0.787,0.506-0.164,0.931c0.572,0.392-0.346-0.094,0.365-0.253c0.552-0.34,1.118-0.398,1.733-0.292
					c0.473,0.212,0.76,0.552,0.87,1.055c-2.545,6.896-3.938,14.353-9.683,19.677C197.844,88.235,197.112,87.994,197.535,86.889z"/>
				<path fill="#212020" d="M349.438,90.947c-0.465,0.047-0.937,0.095-1.408,0.143c-3.144-0.186-4.074-2.918-5.613-4.912
					c-6.17-7.977-13.177-15.083-23.718-16.386c-13.524-1.674-26.627,0.239-38.792,6.837c-3.505,1.905-7.12,3.548-10.913,4.82
					c-1.141-0.051-2.325-0.037-2.445-1.611c10.749-6.511,21.983-11.829,34.506-13.966C321.862,62.321,339.986,71.711,349.438,90.947
					z"/>
				<path fill="#05130B" d="M92.929,64.047c-2.078-5.117,2.374-0.969,3.069-2.152c0.379-0.377,0.836-0.505,1.359-0.385
					c11.255,8.411,20.699,18.715,30.129,29.021c0.947,1.029,1.702,2.197,1.225,3.727c-3.135,0.703-5.895-0.924-8.833-1.454
					c-0.307-2.403-2.005-3.891-3.636-5.421c-4.848-4.323-9.168-9.181-13.92-13.594c-1.365-1.269-2.457-2.884-4.397-3.413
					c-0.312-0.298-0.623-0.592-0.937-0.887C95.928,67.46,92.825,66.939,92.929,64.047z"/>
				<path fill="#090707" d="M291.775,332.06c-3.253,3.243-6.852,5.848-11.644,6.229c0.327-1.08,0.649-2.161,0.985-3.243
					c-1.473-2.896,1.262-3.98,2.46-5.728c5.735-4.904,11.518-9.748,18.116-13.516c1.796,0.209,4.093-1.18,5.076,1.591
					c0.086,1.114-1.162,1.536-1.314,2.535c-1.564,4.068-5.948,4.919-8.75,7.574C295.09,329.043,293.424,330.538,291.775,332.06z"/>
				<path fill="#252626" d="M168.282,90.114c-0.076,1.688,0.356,3.574-1.576,4.605c-0.69,0.37-1.363,0.093-1.823-0.505
					c-1.199-1.565-1.066-3.345-0.33-4.936c6.924-14.9,10.279-31.094,17.018-46.095c3.156-7.03,5.248-14.636,5.336-22.61
					c0.024-2.054-1.432-3.062-1.855-4.676c0.707-0.543,1.4-0.514,2.074,0.055c3.281,5.058,2.151,10.329,0.388,15.423
					c-3.674,10.599-7.688,21.083-11.427,31.658c-1.781,5.034-3.257,10.182-4.869,15.275c-0.396,0.856,0.008,1.799-0.271,2.669
					c-0.427,1.75-1.295,3.333-1.879,5.024C168.678,87.348,167.229,88.496,168.282,90.114z"/>
				<path fill="#1F2020" d="M244.391,15.677c5.615-3.013,8.17-1.745,8.509,4.254c0.49,8.797-2.961,16.652-6.241,24.472
					c-2.069,4.947-4.823,9.607-7.268,14.399c-1.015,1.905-0.649,4.646-3.365,5.517c-0.521-0.002-0.951-0.209-1.272-0.627
					c-0.744-5.131,3.104-8.597,4.891-12.762c2.439-5.707,5.171-11.289,7.427-17.097c1.958-5.044,1.467-10.087,1.434-15.219
					c-2.887-0.579-4.206,3.12-6.914,1.83C240.525,17.689,243.745,17.438,244.391,15.677z"/>
				<path fill="#242526" d="M282.108,12.609c1.878-3.234,4.844-5.361,7.893-7.292c6.579-4.163,12.085-1.591,12.85,6.213
					c0.814,8.281-2.47,15.49-6.936,22.231c-0.418,0.336-0.855,0.387-1.322,0.098c-1.302-2.422,0.226-4.421,1.286-6.256
					c2.832-4.896,2.959-10.22,2.871-15.566c-0.068-4.239-2.866-5.794-6.673-3.776c-2.122,1.124-4.15,2.471-5.998,4.058
					c-1.138,0.981-2.238,2.271-4.074,1.646C281.735,13.491,281.791,13.043,282.108,12.609z"/>
				<path fill="#191919" d="M266.548,79.839c0.686,0.269,1.374,0.54,2.063,0.813c-1.842,4.558-16.736,12.674-21.722,11.835
					c-1.75-2.2,0.009-3.69,1.341-4.822c5.834-4.953,10.973-10.61,16.512-15.846c1.098-1.044,2.203-2.326,4.055-1.661
					c0.476,0.759,0.371,1.474-0.186,2.144c-2.482,2.736-4.961,5.47-7.44,8.206c-0.258,0.607-0.496,1.326,0.272,1.636
					c0.553,0.229,1.284,0.182,1.635-0.569C264.234,80.996,265.393,80.419,266.548,79.839z"/>
				<path fill="#242223" d="M352.201,245.406c0.459,0.045,0.912,0.095,1.368,0.138c-6.083,15.562-10.032,32.163-22.044,44.816
					c-0.457,0.333-0.923,0.348-1.402,0.053c-0.984-1.7-0.04-3.021,0.957-4.215c8.268-9.924,11.706-22.222,16.725-33.738
					C348.925,249.899,349.059,246.714,352.201,245.406z"/>
				<path fill="#2A2B2A" d="M191.207,37.802c0.399,3.397-0.711,6.596-2.015,9.528c-5.289,11.928-10.838,23.74-16.35,35.571
					c-0.332,0.71-1.122,1.204-1.702,1.803c-0.529-0.599-0.652-1.306-0.584-2.071c0.287-1.238,0.93-2.24,2.005-2.948
					C179.23,65.922,185.761,52.103,191.207,37.802z"/>
				<path fill="#272929" d="M282.108,12.609c0.045,0.471,0.098,0.935,0.151,1.402c0.613,1.73-0.292,3.059-1.292,4.249
					c-6.79,8.112-13.041,16.627-19.181,25.228c-1.425,1.993-3.159,3.699-5.714,4.253c-0.538-0.005-0.976-0.21-1.354-0.581
					C264.354,36.048,271.815,23.213,282.108,12.609z"/>
				<path fill="#232323" d="M89.74,11.9c-0.461-0.71-1.042-1.371-1.36-2.143c-1.191-2.846-3.22-6.166-0.305-8.622
					c2.821-2.372,6.312-1.021,9.209,0.853c2.771,1.78,5.395,3.772,7.236,6.595c0.282,0.274,0.396,0.561,0.325,0.861
					c-0.064,0.309-0.14,0.46-0.224,0.46c-4.164,1.192-5.615-2.499-8.052-4.425c-0.264-0.202-0.503-0.444-0.797-0.607
					c-1.412-0.771-2.93-2.347-4.475-0.865c-1.373,1.321,0.449,2.707,0.725,4.086c0.495,1.661-0.547,2.618-1.639,3.552
					C90.17,11.734,89.955,11.819,89.74,11.9z"/>
				<path fill="#212322" d="M104.397,38.959C98.95,30.242,93.784,21.373,89.74,11.9c0.165-0.143,0.336-0.285,0.498-0.428
					c1.751-0.463,2.647,0.703,3.282,1.939c3.979,7.714,8.585,15.101,12.293,22.958c0.384,0.817,0.386,1.68-0.027,2.515
					C105.349,39.316,104.885,39.343,104.397,38.959z"/>
				<path fill="#2B2829" d="M100.277,316.359c7.254,3.952,14.515,7.902,21.76,11.864c1.338,0.735,2.956,1.201,3.196,3.081
					c-9.304-4.598-18.527-9.357-27.379-14.797C98.618,315.676,99.432,315.741,100.277,316.359z"/>
				<path fill="#2A2D2B" d="M207.959,68.116c-0.414-0.025-0.833-0.051-1.253-0.074c-0.476-0.583-0.518-1.243-0.354-1.942
					c0.394-0.836,0.913-1.576,1.711-2.085c4.738-7.394,8.431-15.47,14.548-21.946c0.354,0.386,0.546,0.846,0.61,1.363
					C219.199,52.313,213.883,60.401,207.959,68.116z"/>
				<path fill="#363636" d="M45.626,271.67c0.667,0.092,1.646-0.06,1.945,0.318c5.333,6.818,12.146,12.187,18.043,18.439
					c-0.681,0.477-1.339,0.438-1.965-0.114C57.406,284.326,50.513,278.961,45.626,271.67z"/>
				<path fill="#242526" d="M254.719,47.161c0.464,0.04,0.928,0.081,1.391,0.12c0.504,1.344-0.238,2.382-1.003,3.278
					c-4.122,4.84-8.673,9.277-13.069,13.858c-0.844,0.879-1.972,1.401-3.29,1.076c-0.472-0.229-0.764-0.593-0.853-1.117
					c0.134-2.119,2.279-2.409,3.355-3.677C245.742,56.183,250.226,51.675,254.719,47.161z"/>
				<path fill="#343334" d="M97.923,70.375c6.311,2.136,9.563,7.906,14.253,11.964c1.673,1.451,3.24,3.034,4.854,4.561
					c0.283,0.26,0.392,0.529,0.326,0.815c-0.069,0.288-0.146,0.441-0.233,0.441c-0.459,0.245-0.913,0.244-1.357-0.053
					C109.814,82.194,103.871,76.282,97.923,70.375z"/>
				<path fill="#292828" d="M222.754,43.297c-0.045-0.408-0.092-0.819-0.143-1.234c3.606-5.968,7.561-11.683,12.279-16.845
					c0.452-0.298,0.918-0.325,1.397-0.075c1.112,1.631,0.276,3.014-0.799,4.102c-3.015,3.045-5.023,6.833-7.725,10.105
					C226.275,40.894,225.55,43.41,222.754,43.297z"/>
				<path fill="#2A2C2B" d="M104.397,38.959c0.403-0.031,0.808-0.058,1.211-0.089c1.563-0.169,2.101,1.094,2.646,2.093
					c3.396,6.16,8.009,11.716,9.44,18.86c-0.101,0.54-0.371,0.976-0.812,1.308C112.25,54.003,107.988,46.67,104.397,38.959z"/>
				<path fill="#252324" d="M100.277,316.359c-0.805,0.049-1.609,0.102-2.419,0.148c-5.677-2.646-10.871-6.028-15.447-10.324
					c-0.387-0.513-0.332-0.974,0.16-1.387C88.474,308.651,94.377,312.506,100.277,316.359z"/>
				<path fill="#2C2C2A" d="M127.6,40.968c-1.784-0.285-1.939-2.308-3.284-3.066c-0.509,0.138-1.163,0.189-1.399-0.24
					c-2.813-5.091-7.24-9.346-8.181-15.43c0.444-0.425,0.897-0.439,1.365-0.042C120.575,28.06,124.438,34.297,127.6,40.968z"/>
				<path fill="#353333" d="M305.461,319.928c-0.401-1.056,0.487-1.702,0.804-2.526c3.974-5.479,8.037-10.88,13.423-15.118
					c0.514,0.017,0.953,0.21,1.324,0.557C316.679,309.305,312.467,315.883,305.461,319.928z"/>
				<path fill="#2A2B2B" d="M294.724,33.708c0.401,0.016,0.796,0.037,1.191,0.054c-2.38,5.652-5.563,10.84-9.34,15.669
					c-0.451,0.337-0.925,0.361-1.402,0.062C285.993,42.805,289.699,37.864,294.724,33.708z"/>
				<path fill="#302F2F" d="M23.753,244.489c0.439-0.054,0.885-0.106,1.329-0.163c3.825,4.886,7.652,9.767,11.48,14.653
					c-0.425,0.482-0.894,0.529-1.4,0.133C30.712,254.741,26.973,249.813,23.753,244.489z"/>
				<path fill="#353534" d="M116.102,22.19c-0.406,0.023-0.81,0.042-1.216,0.066c-5.009-2.869-8.476-7.051-10.574-12.395
					c0.066-0.424,0.14-0.854,0.209-1.278C109.197,12.433,113.312,16.746,116.102,22.19z"/>
				<path fill="#282A2A" d="M171.418,32.692c-0.435-0.038-0.868-0.078-1.301-0.116c2.007-5.319,5.146-9.993,8.392-14.611
					c0.479-0.508,0.901-0.462,1.263,0.131C176.985,22.962,174.201,27.829,171.418,32.692z"/>
				<path fill="#313030" d="M321.012,302.841c-0.424-0.027-0.842-0.054-1.269-0.081c1.345-5.96,5.466-9.615,10.45-12.562
					c0.441,0.057,0.887,0.109,1.332,0.163C328.762,295.145,324.728,298.855,321.012,302.841z"/>
				<path fill="#40443F" d="M89.975,83.7c-1.343,0.462-3.34-0.747-4.021,1.334c-0.569,1.724,1.795,1.878,2.109,3.497
					c-1.61,0.765-3.097,0.853-4.497-0.513C83.465,81.394,84.256,80.861,89.975,83.7z"/>
				<path fill="#272727" d="M116.883,61.131c0.07-0.495,0.143-0.985,0.221-1.478c4.882,2.132,6.398,6.277,6.701,11.146
					c-0.248,0.49-0.652,0.748-1.193,0.806c-1.758-0.562-1.935-2.152-2.353-3.595C119.132,65.719,118.006,63.427,116.883,61.131z"/>
				<path fill="#4E4E4E" d="M236.189,25.357c-0.43-0.046-0.868-0.089-1.299-0.139c2.43-3.909,5.648-7.037,9.5-9.541
					c-0.093,2.103-2.455,2.66-3.03,4.432C240.531,22.743,238.76,24.438,236.189,25.357z"/>
				<path fill="#363838" d="M268.612,72.302c0.023-0.684,0.052-1.361,0.079-2.043c1.5-3.423,3.979-5.967,7.161-7.869
					c0.504,0.036,0.936,0.223,1.292,0.587C274.821,66.56,272.361,70.021,268.612,72.302z"/>
				<path fill="#3B3B39" d="M67.771,292.497c3.456,1.655,5.291,5.207,8.464,7.196c0.469,0.478,0.434,0.916-0.112,1.31
					c-3.26-1.916-5.795-4.673-8.426-7.308c-0.279-0.28-0.356-0.555-0.244-0.813C67.564,292.627,67.674,292.497,67.771,292.497z"/>
				<path fill="#2F2A2C" d="M76.119,301.003c0.04-0.436,0.079-0.874,0.117-1.31c2.225,1.559,4.869,2.606,6.332,5.104
					c-0.051,0.465-0.101,0.923-0.156,1.381C79.896,304.964,77.829,303.199,76.119,301.003z"/>
				<path fill="#303232" d="M277.145,62.978c-0.436-0.036-0.874-0.064-1.308-0.105c0.217-3.625,2.104-6.128,5.257-7.786
					c0.526,0.025,0.975,0.239,1.353,0.619C281.176,58.492,279.435,60.93,277.145,62.978z"/>
				<path fill="#9FA09F" d="M241.25,60.698c-0.954,1.188-1.914,2.367-2.873,3.554c-0.928,0.719-1.939,1.938-2.427-0.357
					c1.148-1.698,2.297-3.398,3.441-5.092C239.395,60.035,239.695,60.979,241.25,60.698z"/>
				<path fill="#4D4B4C" d="M179.771,18.097c-0.422-0.042-0.844-0.088-1.263-0.131c3.056-4.922,4.962-5.37,8.614-2.015
					c-0.69-0.016-1.381-0.034-2.074-0.055C182.146,13.897,181.124,16.399,179.771,18.097z"/>
				<path fill="#2E2E2E" d="M282.446,55.706c-0.433-0.03-0.866-0.065-1.307-0.093c0.029-2.979,0.904-5.398,4.142-6.277
					c0.426,0.035,0.86,0.066,1.293,0.095C285.699,51.854,284.312,53.934,282.446,55.706z"/>
				<path fill="#3C3D3D" d="M92.929,64.047c0.918,2.143,3.819,2.803,4.06,5.442c-2.379-1.458-4.604-3.094-6.1-5.532
					C91.57,63.987,92.251,64.015,92.929,64.047z"/>
				<path fill="#4A4C4A" d="M40.673,264.234c1.03,2.356,4.382,3.274,4.035,6.482c-2.173-1.798-4.115-3.778-5.326-6.37
					C39.768,263.788,40.201,263.752,40.673,264.234z"/>
				<path fill="#323230" d="M40.673,264.234c-0.429,0.033-0.859,0.069-1.291,0.11c-1.718-1.497-3.344-3.065-4.22-5.237
					c0.464-0.043,0.935-0.087,1.4-0.13C37.934,260.73,39.304,262.479,40.673,264.234z"/>
				<path fill="#3C3D3D" d="M32.305,99.337c-0.332,0.731-0.666,1.456-0.99,2.186c-1.077,0.64-2.156,1.28-3.228,1.928
					c-0.343-0.244-0.462-0.503-0.374-0.779c0.088-0.284,0.188-0.428,0.288-0.428C29.19,100.917,30.463,99.709,32.305,99.337z"/>
				<path fill="#7A7A7A" d="M115.765,88.104c0.402-0.018,0.801-0.043,1.204-0.069c1.156,0.937,3.754,1.395,1.182,3.565
					c-1.368,0.086-2.459-0.385-3.188-1.584c-0.107-0.321-0.133-0.65-0.061-0.981C115.188,88.728,115.475,88.416,115.765,88.104z"/>
				<path fill="#656765" d="M67.771,292.497c-0.023,0.398-0.051,0.8-0.074,1.198c-1.771-0.619-2.842-2.081-4.045-3.382
					c0.653,0.041,1.311,0.073,1.971,0.113C66.335,291.118,67.054,291.81,67.771,292.497z"/>
				<path fill="#555554" d="M28.001,102.245c0.029,0.407,0.055,0.808,0.086,1.201c-0.697,0.712-1.387,1.413-2.083,2.12
					c-0.657,0.047-1.323,0.09-1.981,0.14C24.835,103.963,26.29,102.957,28.001,102.245z"/>
				<path fill="#4C4D4E" d="M197.566,21.298c-0.186,1.675-0.646,3.187-2.35,3.958C195.387,23.577,195.585,21.908,197.566,21.298z"/>
				<path fill="#F41E1E" d="M302.04,316.297c-5.905,4.551-11.818,9.1-17.733,13.653c-2.138,1.115-3.515,2.864-4.266,5.124
					c-9.966,6.271-20.354,10.63-32.569,10.935c-33.698,0.838-66.314-5.1-98.819-13.201c-15.08-3.761-28.731-10.147-42.166-17.452
					c-2.026-1.123-4.373-1.661-6.165-3.239c-10.252-6.207-19.476-13.738-28.281-21.817c-1.261-0.78-2.184-1.918-3.196-2.97
					c-2.416-2.142-4.83-4.282-7.246-6.426c-2.809-2.043-5.163-4.558-7.35-7.229C43,260.424,31.703,247.176,21.631,233.026
					c-9.288-13.052-15.174-27.45-15.821-43.922c-0.704-17.886,1.27-35.23,6.085-52.475c6.881-24.659,30.968-44.443,57.968-44.045
					c15.233,0.224,29.589,3.832,43.973,7.973c1.796,1.033,4.104-0.616,5.774,1.095c1.27,0.888,1.766,2.364,2.709,3.502
					c2.771,3.413,6.805,3.182,10.59,3.652c1.954,0.478,3.965,0.693,5.895,1.263c3.557,2.908,3.596,4.219-0.377,6.041
					c-4.713,2.172-9.668,3.809-14.413,5.925c-6.891,3.077-12.409,7.573-14.955,14.965c-0.419,1.216-1.283,3.097,0.27,3.718
					c1.914,0.759,1.969-1.438,2.362-2.591c0.914-2.708,2.368-4.984,4.625-6.747c1.633-1.025,3.147-2.202,4.471-3.615
					c4.18-3.631,9.466-5.036,14.456-7.002c3.595-1.422,7.146-2.755,9.688-5.854c1.199-1.45,2.791-2.184,4.633-1.781
					c2.665,0.584,1.358-1.671,1.978-2.56c0.44-0.367,0.92-0.621,1.467-0.794c7.837-0.815,15.636-0.435,23.407,0.683
					c4.064-0.118,8.154,0.427,12.188-0.471c4.504-0.587,9.087-0.726,13.516-1.902c0.441-0.269,0.906-0.503,1.382-0.71
					c0.5-0.151,1.012-0.192,1.524-0.162c2.231,0.43,4.351,1.271,6.559,1.807c7.31,1.264,14.306,1.342,19.681-4.998
					c0.619-0.54,1.293-0.995,2.027-1.364c14.936-6.408,28.34-15.601,42.562-23.274c11.447-6.17,23.269-10.5,36.785-9.787
					c11.633,0.605,20.495,5.8,27.209,14.401c11.24,14.395,19.693,30.303,22.662,48.648c0.136,0.847,0.413,1.694,0.431,2.56
					c0.615,35.626,1.841,71.384-11.686,105.377c-5.439,13.667-9.149,28.121-17.77,40.457c-6.897,9.85-15.083,18.628-22.604,27.955
					c-2.007,1.814-4.021,3.624-5.697,5.771C304.33,315.662,303.348,316.327,302.04,316.297z"/>
				<path fill="#570A07" d="M54.242,273.674c2.904,1.953,5.369,4.35,7.354,7.229C57.967,279.688,55.644,277.147,54.242,273.674z"/>
				<path fill="#440909" d="M100.32,312.115c2.347,0.528,4.404,1.6,6.165,3.239C103.925,315.231,101.618,314.623,100.32,312.115z"/>
				<path fill="#5F0C0B" d="M280.041,335.074c0.146-2.761,1.135-4.831,4.266-5.124c-0.809,1.865-3.247,2.702-3.189,5.096
					C280.761,335.055,280.404,335.066,280.041,335.074z"/>
				<path fill="#781C17" d="M116.388,100.307c0.858,0.079,1.726,0.165,2.594,0.247c0.379,0.16,0.618,0.429,0.695,0.837
					c-0.016,0.409-0.188,0.735-0.518,0.978c-1.711-0.78-3.836-0.371-5.326-1.808C114.686,100.472,115.537,100.386,116.388,100.307z"
					/>
				<path fill="#5D0C07" d="M68.843,287.329c1.577,0.438,2.582,1.495,3.195,2.974C70.155,290.184,69.061,289.227,68.843,287.329z"/>
				<path fill="#00A44B" d="M187.004,103.5c-12.421,1.882-24.907,1.73-37.408,1.23c-2.71-0.109-2.938-1.116-2.62-3.559
					c0.669-5.133,2.858-9.669,5.15-14.107c7.114-13.765,13.058-28,18.397-42.532c2.897-7.892,6.933-15.297,12.604-23.248
					c0.468,6.282-1.416,10.688-3.196,15.04c-7.354,18.018-13.042,36.604-19.141,55.05c-1.078,3.257-2.889,7.769,1.333,9.671
					c4.162,1.877,6.519-2.22,8.472-5.247c6.914-10.72,10.925-22.857,16.627-34.17c4.402-8.716,7.766-17.817,10.365-27.215
					c1.253-4.538,2.887-8.947,5.923-12.658c2.052-2.508,3.437-2.444,4.582,0.943c1.71,5.078,0.774,10.096-0.394,14.905
					c-5.134,21.089-13.133,41.322-18.959,62.213c-0.364,1.308-1.167,2.493-1.766,3.737L187.004,103.5z"/>
				<path fill="#040403" d="M121.338,99.228c-2.48-1.377-4.967-2.746-7.451-4.122c-1.484-1.533-3.49-2.12-5.388-2.868
					c-1.579-0.625-3.875-1.116-3.051-3.156c0.743-1.837,2.924-1.035,4.591-0.481c1.619,0.54,3.282,0.949,4.923,1.417
					c1.037,0.319,2.074,0.637,3.108,0.957c0.515,0.706,1.669,0.293,2.077,1.182c3.325-1.412,5.711,1.312,8.565,1.948
					c1.688-1.118,3.164-0.104,4.693,0.445c0.406,0.259,0.738,0.594,0.991,1.009c0.627,1.76,1.188,3.555,2.458,5.013
					c0.236,0.419,0.355,0.879,0.352,1.361c0.643,4.392,4.036,3.658,6.994,3.747c1.927,1.356,4.343-0.259,6.278,1.043
					c0.348,0,0.695,0,1.041,0c3.142,1.127,6.554-0.14,9.688,1.074c0.614,2.371-0.903,2.446-2.612,2.589
					c-2.347,0.201-4.801-0.713-7.041,0.629l0.124-0.027c-2.396,3.167-5.504,3.043-8.694,1.645c-1.399-0.613-2.784-1.204-4.246-1.63
					c-2.078,0.012-4.117-0.154-6.025-1.076c-2.378-0.804-4.211-2.041-4.505-4.848c-0.167-1.58-0.821-2.983-2.703-3.268
					c-0.471-0.092-0.928-0.225-1.384-0.368C122.916,101.044,121.914,100.404,121.338,99.228z"/>
				<path fill="#040705" d="M140.155,92.828c1.938,2.551,2.173-0.184,3.136-0.942c0.916-0.722,0.434-3.825,3.007-1.868
					c0.634,2.49,0.896,4.817,0.293,7.532c-0.765,3.414-2.446,4.233-5.426,3.939c-0.762,0.656-1.303,0.093-1.876-0.332
					c-1.925-1.891-5.137-2.575-5.541-5.895l0.016,0.011c-1.174-1.055-2.029-2.301-2.367-3.866c-0.782-3.144-2.953-5.367-5.15-7.525
					c-1.565-1.537-2.265-2.995-0.632-4.856c0.798-0.68,1.696-1.116,2.737-1.268c4.981,0.503,5.596,5.869,9.051,8.076
					c0.914,0.808,1.635,1.767,2.158,2.868C140.084,90.023,140.084,91.433,140.155,92.828z"/>
				<path fill="#030504" d="M197.535,86.889c0.34,0.356,0.684,0.711,1.028,1.068c1.279,2.15,0.452,4.435,0.463,6.672
					c-1.359,1.989-1.901,4.398-3.21,6.414c0.229,2.705-0.4,5.128-2.338,7.123c-0.627,0.414-1.333,0.63-2.074,0.726
					c-2.097-0.196-4.992,0.661-4.344-3.219c-0.018-0.723-0.039-1.445-0.057-2.173l-0.028,0.053c3.605-1.688,5.14-5.377,5.945-8.505
					C193.789,91.677,195.511,89.33,197.535,86.889z"/>
				<path fill="#040705" d="M171.379,107.757c4.002-2.464,8.165-3.042,12.548-1.047c-1.486,1.535-2.381,3.646-4.466,4.606
					c-1.03,0.127-2.052,0.068-3.08,0.082c-1.802-0.051-3.712,0.37-5.129-1.228c-0.254-2.143,1.091-1.815,2.652-1.672
					C173.02,108.017,171.944,108.552,171.379,107.757z"/>
				<path fill="#0B0604" d="M179.739,110.801c1.107-1.656,0.901-4.656,4.188-4.091c1.044-0.345,2.085-0.698,3.131-1.038
					c0.507,2.728,2.767,1.97,4.5,2.245c0.108,0.499,0.031,0.963-0.237,1.396c-0.702,0.764-1.683,0.954-2.61,1.239
					C185.707,110.068,182.757,111.654,179.739,110.801z"/>
				<path fill="#040705" d="M160.937,107.767c-3.129-0.464-6.472,1.039-9.416-1.046c3.486,0,6.97,0,10.454,0
					c0.266,0.239,0.375,0.494,0.329,0.763c-0.047,0.287-0.111,0.427-0.183,0.427C161.684,108.184,161.284,108.139,160.937,107.767z"
					/>
				<path fill="#A7A9A9" d="M168.16,85.865c0.408,0.417,0.812,0.835,1.22,1.255c-0.369,0.999-0.731,1.994-1.098,2.994
					C164.373,88.804,168.282,87.277,168.16,85.865z"/>
				<path fill="#0B0604" d="M161.975,107.757c0-0.343,0-0.688,0-1.036c2.436,0.396,5.115-0.943,7.321,1.036
					c-0.212,0.206-0.425,0.411-0.64,0.615C166.325,109.307,164.048,109.589,161.975,107.757z"/>
				<path fill="#0B0604" d="M171.379,107.757c1.015,0,2.027,0,3.967,0c-1.869,0.975-2.909,1.516-3.951,2.055
					c-1.75,0.395-2.4-0.34-2.106-2.046l0.008-0.009C169.994,107.757,170.684,107.757,171.379,107.757z"/>
				<path fill="#040705" d="M150.479,106.716c-2.095-0.329-4.441,0.845-6.278-1.039
					C146.298,106.006,148.637,104.852,150.479,106.716z"/>
				<path fill="#07160C" d="M126.459,79.571c-1.333,1.204-1.19,1.994,0.312,3.167c2.771,2.171,5.245,4.71,5.88,8.435
					c-1.386,0.444-2.388-0.36-3.228-1.207c-8.663-8.748-17.868-16.966-25.89-26.338c-0.546-2.281-3.45-3.285-3.271-5.969
					c4.045-0.846,5.805,2.642,8.104,4.625c5.189,4.486,9.97,9.441,14.916,14.202C124.929,76.911,126.65,77.267,126.459,79.571z"/>
				<path fill="#121212" d="M76.235,44.233c-0.229,1.144-0.675,2.205-1.947,1.026c-3.897-3.612-7.719-7.307-11.538-10.998
					c-0.806-0.775-1.216-1.742-0.303-2.728c0.969-1.045,2.268-1.231,3.251-0.299c3.283,3.093,7.563,4.776,11.268,7.639
					c-1.599,1.189-4.199,0.73-3.954,3.248c0.037,0.389,1.424,0.656,2.186,0.975C75.809,43.231,76.169,43.597,76.235,44.233z"/>
				<path fill="#242625" d="M126.459,79.571c-1.058-1.026-2.118-2.058-3.176-3.085c0-0.349,0.008-0.702,0.008-1.057
					c1.55-0.677-0.568-2.999,1.55-3.43c2.93,1.224,4.196,3.355,3.592,6.509C127.771,78.864,127.116,79.222,126.459,79.571z"/>
				<path fill="#09361C" d="M98.479,59.745c-0.031-0.486-0.059-0.969-0.09-1.456c0.629-0.207,1.255-0.417,1.878-0.629
					c1.732,1.521,3.625,2.922,4.126,5.378C101.222,64.089,100.133,61.412,98.479,59.745z"/>
				<path fill="#717071" d="M124.206,72.355c-0.897,0.849,2.744,3.043-0.915,3.074c-0.711-1.021-1.423-2.039-2.135-3.061
					c0.449-0.426,0.898-0.851,1.351-1.279c0.291-0.01,0.578-0.02,0.868-0.02C123.92,71.328,124.223,71.741,124.206,72.355z"/>
				<path fill="#A7A7A7" d="M83.65,47.201c-0.421,0.424-0.843,0.853-1.261,1.282c-2.185-0.072-3.07-1.715-4.011-3.287
					c0.311-0.385,0.67-0.442,1.082-0.165C81.02,45.446,82.553,45.906,83.65,47.201z"/>
				<path fill="#4A4A4A" d="M79.463,45.031c-0.364,0.054-0.723,0.106-1.082,0.165c-0.714-0.326-1.433-0.645-2.145-0.969
					c-0.345-0.375-0.689-0.751-1.038-1.131C77.687,41.392,78.74,42.838,79.463,45.031z"/>
				<path fill="#170405" d="M302.04,316.297c0.766-0.642,1.54-1.278,2.304-1.917c1.842-1.615,3.696-3.22,5.08-5.27
					c7.462-9.363,15.737-18.2,22.219-28.196c12.285-18.967,18.87-40.464,24.65-62.101c6.488-24.254,5.702-49.136,5.687-73.955
					c-0.016-23.459-9.831-43.086-23.974-60.772c-11.426-14.3-26.894-15.897-43.559-11.027c-16.427,4.803-30.102,15-44.868,23.055
					c-5.31,2.909-10.514,6.083-16.438,7.698c-0.856-1.762,0.461-2.615,1.612-3.195c3.221-1.621,5.284-4.907,8.827-6.017
					c1.423,0.037,2.987,0.265,2.676-2.01c0.142-0.165,0.276-0.328,0.412-0.486c3.637,0.597,6.16-1.758,8.923-3.403
					c4.381-2.62,9.308-4.366,13.027-8.05c9.247-5.011,18.822-9.315,28.946-12.185c17.201-4.876,35.547,1.877,45.781,16.487
					c1.47,2.106,3.119,4.089,4.684,6.127c4.172,7.929,8.651,15.719,11.61,24.215c2.839,8.171,5.178,16.467,5.163,25.239
					c-0.031,11.981,0.295,23.968-0.077,35.935c-0.604,19.528-2.981,38.817-9.182,57.483c-1.244,3.773-2.238,7.63-3.343,11.45
					c-5.35,11.405-8.608,23.734-15.222,34.577c-2.128,3.487-4.512,6.815-6.786,10.214c-3.484,4.187-7.558,7.886-10.45,12.563
					c-4.39,4.979-7.903,10.754-13.487,14.643C305.3,315.336,302.976,318.459,302.04,316.297z"/>
				<path fill="#031109" d="M104.312,9.866c3.522,4.129,7.052,8.258,10.574,12.393c3.144,5.212,6.29,10.426,9.43,15.642
					c-0.136,3.271,2.584,5.125,3.814,7.708c5.921,12.432,11.067,25.163,14.65,38.478c0.476,1.773,1.072,3.635-2.023,3.022
					c-0.543,0.062-0.999-0.101-1.362-0.518c-4.907-10.167-6.896-21.435-12.029-31.547c-7.942-15.653-16.082-31.14-29.362-43.171
					c-0.773-0.694-1.479-1.467-2.074-2.332c-0.286-0.429-0.487-0.895-0.626-1.393c-0.155-0.77-0.109-1.521,0.146-2.267
					c0.348-0.73,0.889-1.212,1.707-1.362C99.625,6.183,101.099,9.183,104.312,9.866z"/>
				<path fill="#8C908F" d="M140.095,87.135c0.221,0.018,0.438,0,0.662-0.025c0.004,1.926,1.2,3.98-0.6,5.718
					c-0.702-1.125-1.572-2.189-1.353-3.65C138.953,88.321,139.191,87.518,140.095,87.135z"/>
				<path fill="#04130A" d="M198.497,95.144c-0.955-2.404-0.867-4.799,0.066-7.188c4.082-6.167,5.99-13.352,9.396-19.839
					c3.937-8.86,9.898-16.526,14.795-24.819c1.341-1.445,2.696-2.889,4.042-4.333c3.903-1.291,4.242-5.637,6.909-8.015
					c1.461-1.306,2.312-3.635,4.95-2.214c0.744,2.228-0.89,3.584-1.966,5.081c-8.628,11.995-17.363,23.881-24.261,37.042
					c-3.394,6.479-5.975,13.318-9.537,19.691c-0.999,1.784-1.525,3.952-3.68,4.873C198.976,95.331,198.734,95.237,198.497,95.144z"
					/>
				<path fill="#656865" d="M200.896,78.441c0.518-2.272,0.375-3.815,2.157-5.291C203.137,75.224,202.85,76.614,200.896,78.441z"/>
				<path fill="#A2A1A1" d="M205.693,69.1c-0.349,1.112-1.13,2.875-2.091,1.97c-1.308-1.24,0.472-2.818,1.095-4.207
					C205.7,67.31,205.377,68.349,205.693,69.1z"/>
				<path fill="#039D48" d="M98.479,59.745c2.983-0.711,3.294,3.369,5.918,3.292c9.42,9.381,18.837,18.759,28.253,28.136
					c0.372,1.371,0.744,2.731,1.115,4.101c-1.871,0.415-3.374-0.754-5.051-1.167c-8.081-9.752-17.033-18.655-26.455-27.108
					c-1.796-1.615-3.476-3.356-5.211-5.041C97.485,61.194,97.272,60.016,98.479,59.745z"/>
				<path fill="#1C1E1F" d="M120.147,92.156c-0.881-0.07-1.682-0.268-2.077-1.182c1.003-1.496-1.018-1.854-1.102-2.939
					c0.021-0.377,0.037-0.759,0.061-1.135C118.471,88.416,121.779,88.828,120.147,92.156z"/>
				<path fill="#040F09" d="M238.516,28.578c-4.172,1.556-5.5,5.626-7.95,8.733c-0.688,0.875-1.079,4.557-3.77,1.652
					c3.134-4.537,6.26-9.07,9.394-13.606c1.417-2.046,3.116-3.823,5.171-5.248c2.024,0.124,3-1.479,4.269-2.591
					c0.904-0.807,1.837-1.856,3.152-1.223c1.413,0.691,1.242,2.053,1.338,3.513c0.76,11.669-4.344,21.557-9.244,31.545
					c-2.013,4.102-3.894,8.269-5.832,12.403c0,1.312-0.817,2.205-1.607,3.116c-2.317,1.758-2.613,5.006-4.944,6.752
					c-5.484,6.806-11.463,13.193-17.345,19.663c-1.855,2.04-3.993,3.834-4.986,6.562c-0.438,1.206-1.498,1.268-2.549,0.574
					c-1.726-2.609-0.354-4.638,1.328-6.495c7.372-8.102,14.073-16.731,20.339-25.682c9.52-13.587,17.189-28.074,20.992-44.767
					C243.223,24.821,242.132,28.721,238.516,28.578z"/>
				<path fill="#3B3B3B" d="M233.056,66.046c0.664-0.763,1.326-1.527,1.995-2.29c0.292,0.073,0.593,0.121,0.898,0.138
					c0.591,1.604,1.588,0.453,2.427,0.361c0.023,0.288,0.049,0.58,0.073,0.875c-0.394,2.804-2.073,4.206-4.849,4.409
					C232.056,68.592,232.174,67.375,233.056,66.046z"/>
				<path fill="#040F09" d="M234.126,69.297c1.439-1.388,2.881-2.779,4.324-4.165c7.071-4.784,12.142-11.537,17.66-17.851
					c7.773-7.005,12.683-16.287,19.226-24.264c2.383-2.907,5.502-5.343,6.925-9.007c2.942-2.312,5.892-4.622,8.817-6.946
					c2.122-1.677,4.575-1.704,6.657-0.483c1.905,1.119,2.369,3.034,2.531,5.614c0.487,7.9-2.692,14.611-5.543,21.514
					c-3.21,5.167-6.865,10.078-9.442,15.627c-1.378,2.096-2.759,4.185-4.142,6.277c-1.766,2.422-3.538,4.843-5.303,7.26
					c-2.207,2.634-4.25,5.417-7.146,7.386c-7.613,7.011-15.491,13.754-22.014,21.851l-0.028,0.01
					c-0.374,0.349-0.812,0.588-1.314,0.715c-1.124,0.023-1.966-0.383-2.325-1.525c-0.179-1.668,0.941-2.753,1.798-3.958
					c1.854-2.506,3.64-5.096,6.564-6.525c3.152-1.187,4.993-3.932,7.31-6.114c3.336-3.721,7.68-6.534,10.02-11.144
					c1.46-2.444,3.084-4.757,5.253-6.636c1.583-0.992,2.697-2.308,2.999-4.217c4.891-9.198,11.484-17.397,15.728-26.986
					c1.565-3.53,2.856-7.081,3.283-10.923c0.115-1.034,0.253-2.151-0.674-2.896c-1.239-0.993-2.316-0.095-3.313,0.544
					c-4.97,3.178-8.213,8-11.541,12.627c-11.096,15.408-22.854,30.28-36.904,43.083c-8.652,7.885-15.783,17.111-24.055,25.291
					c-1.129,1.115-1.747,2.588-2.729,3.807c-0.906,0.729-1.906,0.49-2.9,0.259c-0.74-0.223-1.396-0.572-1.884-1.19
					c4.006-6.605,9.907-11.616,14.816-17.469c1.184-1.413,2.97-2.466,2.746-4.697C230.278,71.811,232.385,70.726,234.126,69.297z"/>
				<path fill="#413F40" d="M253.356,87.943c0.669-1.834,1.54-3.202,2.634-2.714c1.707,0.761,0.226,1.46-0.555,1.942
					C255.021,87.426,254.509,87.526,253.356,87.943z"/>
				<path fill="#031209" d="M124.206,72.355c-0.277-0.428-0.554-0.856-0.833-1.28c-1.195-4.298-3.153-8.174-6.27-11.417
					c-3.836-6.929-7.667-13.859-11.495-20.783c-4.938-9.24-9.069-18.927-15.37-27.403c-0.521-1.59,1.312-1.756,1.704-2.792
					c0.193-0.115,0.38-0.239,0.576-0.358c0.468-0.027,0.917,0.058,1.352,0.224c0.904,0.387,1.684,0.923,2.252,1.742
					c12.002,22.341,24.569,44.356,37.327,66.279c1.805,3.091,4.908,6.038,3.457,10.335c-3.842-1.777-4.185-7.072-8.474-8.392
					C127.101,76.404,126.938,73.503,124.206,72.355z"/>
				<path fill="#0B0A0B" d="M97.151,4.518c-0.349,0.347-0.701,0.694-1.054,1.037c-2.298-0.159-3.71,0.866-4.18,3.141l0.023-0.018
					c-1.971-1.528-4.273-3.335-1.85-5.803C92.87,0.047,94.965,3.159,97.151,4.518z"/>
				<path d="M147.312,262.063c0.277-0.357,0.552-0.714,0.835-1.074c2.74-2.713,4.823-4.174,7.366,0.733
					c1.614,3.114,5.749,4.257,9.055,5.771c1.899,0.868,3.573,2.121,5.494,2.945c14.297,5.576,29.058,9.124,44.463,8.861
					c14.211-0.242,28.441,1.418,42.613-0.068c9.476-0.996,18.651-3.517,27.188-7.975c1.729-0.9,3.012-2.309,4.391-3.594
					c1.183-1.219,3.358-1.646,3.21-3.954c0.143-0.646,0.233-1.321,0.652-1.861c2.323,0.501,1.771-4.077,4.646-2.614
					c0.323,0.993,0.106,1.977-0.049,2.972c-0.448,2.331-1.077,4.641-0.937,7.053c-0.201,7.432,1.077,15.025-2.523,22.059
					c-0.057,0.541-0.178,1.078-0.357,1.588c-1.298,2.189-3.606,3.888-3.359,6.839c-2.109,5.025-5.879,8.541-10.411,11.366
					c-11.875,6.882-24.257,11.013-38.403,9.579c-12.371-1.257-24.835-1.394-36.346-6.955c-1.705-0.826-3.351-1.753-5.039-2.593
					c-3.754-1.331-6.758-4.207-10.694-5.17l0.021,0.009c-1.003-1.052-2.54-1.114-3.646-1.974
					c-7.636-2.807-14.662-6.784-21.513-11.11c-1.58-0.345-2.466-1.608-3.532-2.641c-5.426-4.187-9.706-9.242-12.126-15.734
					c-0.239-0.649,0.292-0.068-0.22-0.451C143.125,270.345,144.859,266.24,147.312,262.063z"/>
				<path fill="#1A0607" d="M275.907,230.959c-5.901-0.89-11.411-2.899-16.601-5.821c-14.011-7.893-18.939-17.905-16.555-33.672
					c3.604-23.801,17.122-37.308,41.032-41.005c2.222-0.34,4.446-0.687,6.667-1.036c3.546-1.502,5.689,0.546,7.67,3
					c0.122,0.935-0.356,1.503-1.146,1.877c-11.644-0.97-21.983,2.957-31.995,8.34c-3.32,1.787-5.61,4.549-8.028,7.243
					c-8.14,10.599-10.123,22.713-8.646,35.61c0.342,2.972,2.247,5.349,4.055,7.66c2.534,2.487,5.451,4.473,8.378,6.44
					c4.249,3.243,9.844,3.945,13.989,7.383C275.427,228.212,276.703,229.287,275.907,230.959z"/>
				<path fill="#1A0707" d="M126.42,228.77c-10.079-0.701-17.897-7.887-18.492-18.31c-0.86-15.163,1.741-29.666,11.026-42.312
					c1.784-2.037,3.772-3.895,5.463-6.03c6.547-5.344,14.303-7.452,22.508-8.319c2.191-0.228,4.359,0.074,6.558-0.969
					c2.245-1.07,4.005,0.058,4.586,2.602c-0.166,0.199-0.333,0.398-0.499,0.599c-3.646,0.825-7.687-1.301-11.066,1.483
					c-3.354,2.376-7.606,2.204-11.212,4c-14.019,6.977-19.264,19.561-22.24,33.79c-2.078,9.906-1.326,18.967,6.395,26.43
					c1.045,3.502,4.614,3.922,7.068,5.706C126.785,227.906,126.742,228.346,126.42,228.77z"/>
				<path fill="#1D0405" d="M290.564,267.34c-11.151,10.337-25.278,12.519-39.506,13.39c-12.476,0.767-25.036,0.396-37.555,0.1
					c-14.791-0.357-29.016-3.842-42.887-8.829c-0.562-0.2-0.908-0.996-1.362-1.513c0.751-0.641,1.526-0.57,2.326-0.101
					c20.791,7.536,42.378,7.833,64.149,7.802c12.709-0.021,25.297,0.469,37.581-3.502c4.321-1.393,8.517-3.056,12.31-5.495
					c3.616-2.312,6.588-5.219,5.744-10.153c2.811,0.034,2.044,1.565,1.301,3.093c-0.009,0.695-0.009,1.382-0.016,2.071
					C292.31,265.483,291.775,266.633,290.564,267.34z"/>
				<path fill="#1B0405" d="M138.734,111.001c0.85-0.026,1.781-0.285,2.54-0.038c3.483,1.156,6.925,2.392,10.404,0.022
					c0.263,1.572,2.128,1.666,2.751,2.912c-0.222,0.291-0.491,0.808-0.607,0.776c-4.614-1.232-7.485,1.187-11.069,3.812
					c-4.344,3.193-10.036,4.549-15.104,6.793c-2.215,0.98-4.319,2.187-6.476,3.292c-1.362,1.065-2.783,2.062-4.045,3.255
					c-2.312,2.408-4.119,5.055-4.698,8.461c-0.309,1.836-1.288,3.254-3.561,2.789c-2.509-0.513-2.122-2.339-1.772-4.056
					c1.812-8.76,7.722-14.059,15.428-17.608c5.171-2.384,10.551-4.308,15.812-6.504
					C140.725,113.911,141.975,112.642,138.734,111.001z"/>
				<path fill="#1A0506" d="M296.83,153.653c0.348-0.327,0.705-0.656,1.055-0.984c4.01,0.113,3.814,4.573,6.398,6.155
					c5.739,8.557,5.326,18.385,5.553,28c0.302,12.827-3.354,24.593-11.049,34.911c-4.063,5.443-9.289,9.296-16.581,9.174
					c-0.609-0.549-0.71-1.237-0.543-1.999c0.658-1.909,3.368-1.632,3.921-3.668c3.441-2.033,7.454-3.312,9.652-7.045
					c10.371-15.948,13.74-32.911,7.555-51.272c-0.72-2.126-1.322-4.312-3.119-5.868c-1.039-1.169-2.067-2.355-2.811-3.749
					C296.32,156.099,295.769,154.882,296.83,153.653z"/>
				<path fill="#1A0606" d="M157.848,222.582c-3,4.509-7.326,6.243-12.602,5.994c0.525-2.19-3.402-3.153-1.576-5.71
					c1.993-0.983,4.162-0.623,6.25-0.842c4.988-1.327,6.983-5.676,8.781-9.634c6.615-14.564,7.565-29.325,0.229-44.045
					c-0.688-1.39-1.454-2.768-1.655-4.347c0.878-2.696,0.326-5.479,0.472-8.221l0.318-0.345c0.711,0.481,1.794,0.799,2.078,1.455
					c7.554,17.775,11.872,35.826,4.223,54.767c-0.642,1.587-1.565,3.063-2.354,4.591C160.58,218.33,159.312,220.52,157.848,222.582z
					"/>
				<path fill="#1A0404" d="M316.801,131.704c-7.291-12.269-17.138-21.765-30.251-27.703c-1.79-0.805-3.893-1.609-2.78-4.071
					c1.231-2.688,3.506-1.641,5.381-0.761c13.746,6.429,24.786,15.778,31.691,29.534
					C321.423,132.691,320.927,133.063,316.801,131.704z"/>
				<path fill="#1D0505" d="M199.608,310.099c10.112,5.193,20.651,8.441,32.222,8.484c5.326,0.02,10.694,0.687,16.05,1.005
					c10.86,0.639,20.184-3.519,29.417-8.281c0.903-0.467,1.859-0.827,2.795-1.234c0.66,1.181-0.478,1.549-0.996,2.188
					c-9.215,5.904-19.216,10.063-30.199,9.954c-12.819-0.124-25.746-0.479-38.062-4.91c-3.579-1.285-7.256-2.406-10.243-4.936
					C200.197,311.645,198.941,311.284,199.608,310.099z"/>
				<path fill="#040404" d="M243.516,91.075c0.458,0.838,1.235,1.024,2.092,1.045c1.076,1.515,0.158,2.372-1.042,3.132
					c-3.811,2.855-7.622,5.707-11.43,8.562c-0.231,0.327-0.46,0.656-0.692,0.984c-3.594,0.616-5.796,4.965-10.075,3.744
					c-2.301-1.833-0.399-2.875,0.875-3.775c1.501-1.063,3.313-1.697,4.168-3.508c0.841-1.17,2.069-1.873,3.194-2.694
					c0.265-0.209,0.564-0.387,0.79-0.637c0.618-0.719,0.186-0.799-0.418-0.586c-1.488,0.535-2.487,1.747-3.683,2.697
					c-2.161,2.009-5.259,1.716-7.673,3.104c-0.988,0.629-2.036,1.124-3.14,1.511c-0.806,0.285-1.622,0.523-2.473,0.593
					c-1.312,0.111-2.452-0.291-2.857-1.598c-0.475-1.534,0.808-2.105,1.882-2.545c1.572-0.644,3.219-1.113,4.423-2.41
					c1.365-1.365,2.89-2.475,4.775-3.043c0.454-0.158,0.936-0.274,1.414-0.354C230.139,93.264,236.882,92.426,243.516,91.075z"/>
				<path fill="#191716" d="M218.403,99.408c-0.926,3.363-5.134,1.401-6.683,3.845c1.549,2.333,3.164-0.026,4.644,0.382
					c0.484,3.135-3.55,3.278-3.896,5.864c-0.446,0.63-1.009,0.836-1.721,0.454c-2.182-0.675-4.651-0.487-6.489-2.178
					c-0.02-0.634,0.238-1.148,0.667-1.529c-0.253-0.815-0.593-0.015-0.758,0.046c-0.646,0.236,0.201-0.147-0.436,0.179
					c-1.099,0.397-2.195,0.749-3.293,1.091c-0.942,0.267-1.905,0.387-2.872,0.461c-1.425-0.094-2.956,0.703-4.265-0.47
					c0.558-2.324,2.263-4.477,1.1-7.066c1.1-1.042,2.09-0.441,3.07,0.192c0.165,0.154,0.326,0.312,0.494,0.464
					c0.317,0.314,0.631,0.637,0.956,0.938c4.917,0.182,9.325-0.629,11.844-5.55c0.229-0.44,0.871-0.481,1.396-0.248
					c0.666,0,1.329-0.005,1.985-0.008c-0.012,3.114,2.378,0.801,3.424,1.506C218.282,98.102,218.831,98.508,218.403,99.408z"/>
				<path fill="#0B0304" d="M292.674,262.132c-0.088-1.183,0.198-2.513-1.31-3.093c-1.711-1.886-4.119-0.347-6.031-1.209
					c-1.027-0.68-2.274-0.789-3.385-1.242c-1.166-0.483-2.329-1.253-1.888-2.665c0.473-1.541,1.729-2.034,3.291-1.302l-0.007-0.028
					c2.415,1.646,4.976,0.886,7.513,0.435c2.812-0.849,5.434,0.394,8.146,0.675l-0.047-0.024c0.768,0.933,1.85,0.514,2.811,0.646
					c3.722,0.499,3.908,1.155,1.338,4.626c-0.341-0.026-0.68-0.054-1.021-0.081c-0.72-1.411-1.811-0.244-2.717-0.393
					c-0.86,0.081-1.502,1.178-2.514,0.517C294.988,259.413,295.899,263.526,292.674,262.132z"/>
				<path fill="#230505" d="M147.312,262.063c-3.739,9.428,4.01,14.883,7.717,21.641c1.366,2.494,3.941,4.331,5.96,6.471
					c-0.325,0.606-0.746,0.677-1.259,0.208c-6.458-3.711-10.235-9.559-12.869-16.533c-2.133,0.91-3.761,4.417-6.177,1.752
					c-1.865-2.064-0.004-4.186,1.28-6.013C143.725,267.062,145.524,264.571,147.312,262.063z"/>
				<path fill="#240505" d="M171.581,270.388c-0.774,0.033-1.549,0.065-2.326,0.102c-5.667-2.45-11.71-4.318-15.393-9.852
					c-2.109-3.171-3.79,0.556-5.716,0.353c2.163-2.883,4.307-5.782,6.49-8.646c1.435-1.881,3.506-2.804,5.354-1.247
					c1.608,1.352,0.203,3.185-0.726,4.606c-3.835,5.903-3.841,5.882,2.361,9.214C164.963,266.71,168.263,268.559,171.581,270.388z"
					/>
				<path fill="#1C0403" d="M296.86,258.992c0.689-0.347,1.378-0.698,2.067-1.045c0.372,0.228,0.497,0.46,0.362,0.688
					c-0.115,0.228-0.237,0.339-0.362,0.339c-2.237,5.691-0.766,11.611-1,17.418c-0.202,4.866-0.415,9.631-2.963,13.953
					c-1.144,0.238-0.333,2.686-2.284,2.027c3.259-7.771,1.756-15.962,2.073-23.988c1.557-1.805,1.216-4.221,2.027-6.268
					C296.81,261.073,296.83,260.034,296.86,258.992z"/>
				<path fill="#180304" d="M143.148,223.75c0.831,1.553,3.672,2.233,2.098,4.826c-6.259,1.382-12.533,1.578-18.826,0.192
					c0-0.355,0.004-0.71,0.008-1.064c0.279-1.004,1.092-1.449,1.951-1.842c3.742-2.313,8.344-1.076,12.199-2.943
					c0.483-0.093,0.972-0.101,1.459-0.038C142.529,223.018,142.893,223.313,143.148,223.75z"/>
				<path fill="#1F0706" d="M125.429,100.477c2.679-0.292,4.01,1.428,3.956,3.587c-0.069,2.832,1.548,4.292,3.328,5.863
					c-4.25-0.317-8.897,0.452-11.486-4.285c-0.813-0.904-0.504-1.964-0.398-2.984c0.676-0.9,1.637-1.111,2.662-1.116
					C124.399,101.682,125.126,101.471,125.429,100.477z"/>
				<path fill="#100807" d="M282.206,228.711c0,0.736,0,1.465,0,2.199c-2.09,0.901-4.187,1.79-6.299,0.049
					c-0.683-1.105-1.372-2.203-2.061-3.309c0.618-0.598,0.813-1.441,1.222-2.164c0.171-0.408,0.366-0.806,0.544-1.211
					c2.478-4.959,2.478-4.959,6.136-1.837c0.421,0.879,0.573,1.821,0.684,2.78C282.556,226.392,282.724,227.577,282.206,228.711z"/>
				<path fill="#210505" d="M164.048,292.38c7.339,3.806,14.685,7.606,22.023,11.416c-0.741,0.662-1.524,0.593-2.332,0.122
					c-7.167-2.351-14.038-5.276-19.776-10.349C163.453,293.139,163.484,292.741,164.048,292.38z"/>
				<path fill="#1B0405" d="M169.288,107.767c0.406,0.99,1.093,1.685,2.106,2.046c1.63,1.105,3.503,1.077,5.348,1.162
					c0.257,0.265,0.309,0.475,0.156,0.633c-0.123,0.134-0.248,0.202-0.373,0.202c-8.286-1.464-16.63-1.05-24.971-0.804
					c1.439-1.9,3.521-0.935,5.325-1.162c1.626-0.201,3.677,0.514,4.057-2.082c0.34,0,0.688-0.005,1.037-0.005
					C164.41,107.757,166.849,107.762,169.288,107.767z"/>
				<path fill="#120504" d="M210.749,109.953c0.479-0.344,0.963-0.692,1.448-1.032c0.467-0.691,1.173-0.84,1.941-0.826
					c3.177,0.371,6.408,0.224,8.866,1.086c-0.396,0.063-1.699,0.644-1.443-1.415c4.226,1.187,6.75-3.819,10.88-2.968
					C226.395,111.469,219.1,112.929,210.749,109.953z"/>
				<path fill="#310605" d="M279.096,312.262c0.332-0.729,0.665-1.46,0.996-2.188c3.842-2.846,7.031-6.265,9.43-10.404
					c0.388-0.465,0.765-0.486,1.137,0.015C288.81,305.707,284.498,309.491,279.096,312.262z"/>
				<path fill="#290606" d="M283.353,252.621c-0.946,0.264-2.17,0.23-2.477,1.358c-0.371,1.35,0.814,1.636,1.765,1.847
					c1.23,0.269,2.13,0.894,2.693,2.006c-1.198-0.067-2.445,0.053-3.599-0.225c-2.137-0.525-5.039-0.93-3.94-4.097
					C278.831,250.506,281.27,251.622,283.353,252.621z"/>
				<path fill="#390808" d="M304.283,158.824c-3.188-0.968-3.327-5.081-6.398-6.159c-2.216-1.676-4.238-3.791-7.433-3.24
					c4.412-2.648,7.013,0.73,9.667,3.132C301.955,154.226,303.698,156.206,304.283,158.824z"/>
				<path fill="#7F1012" d="M176.525,111.81c0.055-0.279,0.125-0.565,0.217-0.834c1-0.058,1.999-0.114,2.997-0.175
					c3.088-0.806,6.114-2.253,9.419-0.958c0.36,0.19,0.483,0.396,0.372,0.603c-0.111,0.217-0.223,0.324-0.346,0.324
					C185.112,112.822,180.77,111.767,176.525,111.81z"/>
				<path fill="#250605" d="M303.107,258.949c3.343-5.462-3.215-3.167-4.15-5.277c1.534,0.049,3.06,0.093,4.591,0.128
					c2.098,0.052,3.885,0.66,3.741,3.137C307.116,259.815,304.998,259.277,303.107,258.949z"/>
				<path fill="#4E2524" d="M189.187,110.77c0.027-0.312,0.021-0.625-0.027-0.927c0.665-0.358,1.338-0.713,2.006-1.073
					c2.624-0.13,5.095-1.415,7.787-1.003c1.589,0.104,3.243-0.498,4.774,0.379C199.161,110.574,194.306,111.426,189.187,110.77z"/>
				<path fill="#2F0606" d="M199.608,310.099c0.326,0.759,0.659,1.515,0.981,2.271c-3.825-2.133-7.654-4.266-11.483-6.396
					C193.356,305.447,195.865,309.336,199.608,310.099z"/>
				<path fill="#5A0A09" d="M316.801,131.704c2.229,0.176,4.375,0.246,4.041-3c1.881,1.451,1.805,3.513,0.287,4.645
					C319.597,134.487,317.527,134.138,316.801,131.704z"/>
				<path fill="#250605" d="M299.004,253.702c-2.809,0.02-5.63,0.038-8.445,0.062c-0.372-0.229-0.487-0.464-0.372-0.694
					c0.126-0.233,0.25-0.354,0.372-0.354C293.686,250.385,296.227,253.089,299.004,253.702z"/>
				<path fill="#680B0C" d="M124.415,162.117c-0.868,2.873-2.949,4.645-5.465,6.031
					C119.878,165.334,121.895,163.499,124.415,162.117z"/>
				<path fill="#290606" d="M290.559,252.715c0,0.346,0,0.698,0,1.049c-2.5,0.214-5.311,2.267-7.213-1.172
					C285.754,252.63,288.15,252.673,290.559,252.715z"/>
				<path fill="#490809" d="M157.848,222.582c0.475-2.703,1.898-4.793,4.164-6.337C161.401,218.862,160.17,221.079,157.848,222.582z
					"/>
				<path fill="#690E0A" d="M309.424,309.11c-0.659,2.746-2.422,4.441-5.08,5.274C305.43,312.041,307.29,310.438,309.424,309.11z"/>
				<path fill="#1C0403" d="M290.659,299.684c-0.382-0.005-0.758-0.01-1.136-0.015c0.009-2.599,0.764-4.831,3.078-6.309
					c0.658,0.679,0.658,1.381,0.049,2.085C291.992,296.859,291.327,298.269,290.659,299.684z"/>
				<path fill="#2F0606" d="M183.74,303.918c0.779-0.043,1.559-0.081,2.332-0.122c1.462,0.112,2.581,0.7,3.057,2.185
					C187.088,305.938,185.306,305.207,183.74,303.918z"/>
				<path fill="#AAA7AD" d="M203.582,107.983c-0.87-1.02-2.053-1.342-3.312-1.502c1.159-0.355,2.311-0.707,3.467-1.063
					c0.984-0.106,2.329-0.792,2.013,1.229c-0.498,0.374-0.995,0.751-1.49,1.128C204.042,107.882,203.816,107.948,203.582,107.983z"
					/>
				<path fill="#250605" d="M298.918,258.974c0-0.346,0.01-0.684,0.01-1.027c0.402,2.516,3.968-5.747,3.157,0.921
					C301.034,258.904,299.974,258.938,298.918,258.974z"/>
				<path fill="#A31415" d="M117.131,131.826c0.834-1.719,1.978-3.058,4.045-3.255C120.35,130.307,119.128,131.545,117.131,131.826z
					"/>
				<path fill="#540A09" d="M164.048,292.38c-0.03,0.398-0.052,0.792-0.084,1.189c-1.936-0.372-3.167-1.66-4.232-3.183
					c0.419-0.068,0.841-0.142,1.259-0.213C162.012,290.91,163.025,291.642,164.048,292.38z"/>
				<path fill="#310605" d="M292.65,295.445c-0.016-0.693-0.032-1.391-0.049-2.085c0.033-0.331,0.056-0.662,0.072-0.988
					c0.766-0.672,1.531-1.352,2.291-2.022C294.693,292.272,294.36,294.169,292.65,295.445z"/>
				<path fill="#530505" d="M121.176,102.477c0.02,1.057,0.033,2.11,0.051,3.165c-0.69-1.09-1.378-2.18-2.067-3.271
					c0.016-0.348,0.023-0.697,0.038-1.042C120.312,100.93,121.258,100.831,121.176,102.477z"/>
				<path fill="#95938F" d="M121.176,102.477c-0.303-0.988-1.212-0.957-1.979-1.149c-0.022-0.271-0.101-0.53-0.216-0.771
					c1.004-0.057,1.921-0.266,2.356-1.329c0.979,0.465,1.953,0.924,2.935,1.387c0.665,0.597,0.715,1.197-0.004,1.788
					C123.236,102.428,122.209,102.452,121.176,102.477z"/>
				<path fill="#303030" d="M140.087,100.333c-1.321-0.384-2.559-0.559-3.101,1.144c-2.896-1.126-3.483-3.45-3.236-6.213
					C134.758,98.329,138.936,97.449,140.087,100.333z"/>
				<path fill="#686567" d="M124.269,102.403c0-0.596,0.004-1.196,0.004-1.794c0.383-0.043,0.77-0.09,1.156-0.137
					c0.24,0.96,2.075,1.295,1.448,2.298C126.203,103.856,125.13,102.751,124.269,102.403z"/>
				<path fill="#01A44B" d="M136.904,86.901c-4.084-10.957-11.131-20.296-16.632-30.477c-8.384-15.528-17.854-30.465-25.305-46.498
					c0.136-0.768,0.586-1.196,1.37-1.266c11.092,8.557,17.982,20.367,25.05,32.07c8.739,14.473,14.186,30.248,18.707,46.403
					c0.035,0.97-0.411,1.64-1.29,2.037C138.17,88.416,137.536,87.658,136.904,86.901z"/>
				<path fill="#04130A" d="M197.487,101.455c-1.027-0.323-2.058-0.645-3.087-0.97c2.253-1.1,1.295-4.656,4.097-5.337
					c0-0.004,0.292,0.27,0.292,0.27C200.055,97.798,199.277,99.73,197.487,101.455z"/>
				<path fill="#8D8589" d="M197.63,106.896c0.3,0.588,0.599,1.181,0.897,1.771c-2.472-1.069-4.886,1.717-7.363,0.103
					c0.162-0.266,0.294-0.553,0.394-0.854c0.582-0.122,1.161-0.242,1.743-0.365C194.747,107.34,196.079,106.398,197.63,106.896z"/>
				<path fill="#080605" d="M244.564,95.252c0.346-1.047,0.691-2.09,1.042-3.132c0.348-0.005,0.695-0.005,1.042,0
					C248.012,95.364,248.012,95.364,244.564,95.252z"/>
				<path fill="#232323" d="M91.918,8.696c-0.046-1.411-1.234-3.051,0.21-4.163c1.488-1.147,2.62,0.718,3.97,1.022
					c-0.008,0.697-0.012,1.4-0.016,2.093c-1.002,0.634-2.206,0.656-3.278,1.066C92.511,8.707,92.217,8.704,91.918,8.696z"/>
				<path fill="#01A44B" d="M197.487,101.455c-0.567-2.227,1.205-3.952,1.302-6.037c5.924-9.813,9.717-20.676,15.415-30.634
					c6.663-11.634,14.787-22.213,22.459-33.13c0.683-0.981,1.235-2.054,1.851-3.077c2.75-2.572,5.5-5.146,8.786-8.228
					c0.784,3.981-0.554,6.987-1.46,9.976c-6.489,21.505-19.182,39.386-33.023,56.656c-3.344,4.179-8.892,7.008-9.147,13.331
					c-0.146,0.2-0.298,0.401-0.442,0.597c-1.811,0.836-3.652,1.403-5.637,0.54L197.487,101.455z"/>
				<path fill="#020905" d="M212.16,96.28c-2.069,6.43-8.194,6.249-13.14,7.926c-1.151,0.392-1.299-0.772-1.439-1.625
					c1.576-2.027,4.452-0.555,6.132-2.278l-0.046,0.015c5.065-7.414,12.307-13.008,17.377-20.379
					c1.856-2.702,6.348-3.488,5.944-7.912c-0.006-0.057,0.713,0.743,0.852,1.325c0.612,0.518,1.273,0.946,2.096,1.041
					c2.564,0.36,1.072,1.61,0.388,2.326C224.196,83.167,218.913,90.411,212.16,96.28z"/>
				<path fill="#121414" d="M229.938,74.392c-1.662,1.577-1.888,0.292-2.097-1.041c1.798-2.397,1.968-5.948,5.216-7.304
					c0.049,1.181-0.185,2.46,1.07,3.25C234.056,72.079,231.33,72.69,229.938,74.392z"/>
				<path fill="#00A44B" d="M274.775,57.66c-1.712,2.091-3.423,4.177-5.137,6.272c-2.9,4.005-6.785,7.074-10.137,10.648
					c-2.539,2.364-4.74,5.081-7.564,7.149c-2.392,1.752-4.691,3.603-6.312,6.132c-3.037,3.346-6.912,4.81-11.345,5.054
					c-4.161,0.222-7.729,2.586-11.759,3.296l0.046-0.03c-1.622,0.879-3.521,0.879-5.188,1.636c-0.594,0.043-1.02-0.195-1.287-0.73
					c2.064-6.439,7.979-9.824,11.933-14.76c9.026-11.265,20.414-20.297,30.09-31.013c9.476-10.484,16.947-22.436,26.072-33.126
					c2.394-2.799,4.848-5.456,7.921-7.479c1.121-0.738,2.292-2.043,3.715-1.22c1.446,0.839,1.872,2.599,1.712,4.136
					c-0.433,4.146-1.51,8.123-3.3,11.97c-4.558,9.794-10.989,18.468-16.3,27.809C277.145,55.01,275.844,56.251,274.775,57.66z"/>
				<path fill="#03160A" d="M222.522,96.21c5.25-2.375,10.35-5.27,16.371-5.074c2.887,0.092,3.99-3.213,6.729-3.277
					c-0.703,1.073-1.403,2.143-2.107,3.214C237.067,95.004,229.622,94.909,222.522,96.21z"/>
				<path fill="#013915" d="M259.238,74.488c3.11-3.864,6.483-7.481,10.4-10.553c-2.072,5.102-6.63,7.981-10.41,11.555
					c-0.331-0.228-0.445-0.447-0.331-0.67C259.016,74.599,259.121,74.488,259.238,74.488z"/>
				<path fill="#02421C" d="M259.238,74.488c-0.018,0.337-0.018,0.667-0.01,1.002c-2.132,2.425-3.812,5.38-7.291,6.237
					C253.902,78.838,256.379,76.467,259.238,74.488z"/>
				<path fill="#7E7F7F" d="M216.093,97.083c0.403,0.081,0.803,0.16,1.205,0.244c0.585,0.456,0.518,0.771-0.209,0.947
					c-1.288-0.003-2.78,0.377-3.804-0.142c-0.795-0.404,0.631-1.16,0.86-1.86C214.798,96.543,215.446,96.812,216.093,97.083z"/>
				<path fill="#013015" d="M274.775,57.66c0.318-1.962,1.59-3.228,3.16-4.259C277.996,55.64,276.617,56.827,274.775,57.66z"/>
				<path fill="#0B0304" d="M296.781,262.116c-0.122,2.267,0.829,4.886-2.027,6.272
					C294.803,266.093,295.352,263.961,296.781,262.116z"/>
				<path fill="#0B0304" d="M290.564,267.34c0.699-1.047,1.388-2.089,2.086-3.137C293.656,266.372,292.284,266.971,290.564,267.34z"
					/>
				<path fill="#252424" d="M296.83,153.653c0.356,1.042,0.711,2.086,1.061,3.128c-0.386,0.392-0.859,0.594-1.41,0.604
					c-12.781-2.332-23.768,1.957-33.972,9.134c-1.678,1.178-2.894,3.031-5.132,3.345c-0.557-0.021-1.027-0.228-1.415-0.626
					c6.147-8.091,14.693-11.674,24.341-14.049C285.871,153.821,291.047,151.488,296.83,153.653z"/>
				<path fill="#282828" d="M255.962,169.239c0.483,0.058,0.972,0.111,1.45,0.172c0.898,2.176-0.783,3.525-1.65,5.142
					c-5.115,9.531-7.771,19.479-5.612,30.39c0.543,2.741,2.595,4.935,2.501,7.827c-0.102,0.565-0.369,1.042-0.799,1.428
					c-5.484-4.745-5.222-11.133-5.237-17.545C246.589,186.408,249.67,177.301,255.962,169.239z"/>
				<path fill="#2A2A2A" d="M275.899,225.576c0.164,1.523-0.745,2.001-2.053,2.074c-4.237-3.022-9.671-3.771-13.731-7.144
					c0.333-0.448,0.771-0.733,1.314-0.873C266.603,220.762,271.599,222.333,275.899,225.576z"/>
				<path fill="#373836" d="M261.521,220.291c-0.465,0.068-0.936,0.147-1.405,0.217c-3.045-1.729-5.893-3.71-8.264-6.313
					c0.063-0.47,0.13-0.941,0.194-1.412C256.239,213.981,259.759,216.036,261.521,220.291z"/>
				<path fill="#20201F" d="M119.116,222.513c-8.468-6.152-9.344-14.951-8.047-24.206c1.192-8.542,3.812-16.701,8.314-24.188
					c4.75-7.917,11.441-13.15,20.46-15.39c2.182-0.542,4.303-1.297,6.454-1.957c3.325-1.37,6.565-2.482,7.788,2.544
					c-0.997,2.076-2.927,1.457-4.566,1.477c-14.879,0.212-25.112,7.171-30.3,21.091c-3.475,9.328-5.666,18.972-3.947,28.987
					c1.149,6.701,3.302,8.372,9.939,9.213c1.75,0.218,4.034-0.31,4.533,2.389c-1.459,1.612-3.618,1.325-5.422,1.996
					C122.201,224.832,120.272,224.681,119.116,222.513z"/>
				<path fill="#120404" d="M153.62,159.794c-0.937-4.644-4.702-2.45-7.322-3.022c3.499-3.961,7.513-2.029,11.451-0.995
					c1.328,2.409,3.154,4.812,0.066,7.265c-1.479-0.175-2.415-1.235-3.479-2.087C154.008,160.628,153.77,160.241,153.62,159.794z"/>
				<path fill="#110404" d="M119.116,222.513c1.583,1.207,3.397,1.165,5.236,0.989c2.966-1.009,4.552-0.236,4.118,3.153
					c-0.681,0.352-1.362,0.701-2.043,1.05C123.176,227.113,119.495,227.127,119.116,222.513z"/>
				<path fill="#20201F" d="M300.119,159.835c1.912,1.126,2.663,2.954,3.415,4.965c5.643,15.145,4.707,29.968-1.771,44.636
					c-1.582,3.577-3.369,6.979-5.979,9.917c-0.72-0.634-0.967-1.46-0.997-2.381c0.03-0.873,0.224-1.727,0.641-2.493
					c9.073-16.458,9.524-33.564,3.887-51.141c-0.212-0.667-0.212-1.362-0.125-2.056
					C299.323,160.688,299.633,160.206,300.119,159.835z"/>
				<path fill="#292526" d="M295.713,217.1c0.024,0.751,0.05,1.502,0.07,2.253c-2.33,3.736-5.883,5.588-10.049,6.511
					c-0.508-0.171-0.709-0.52-0.609-1.042C288.718,222.333,291.111,218.199,295.713,217.1z"/>
				<path fill="#292526" d="M282.206,228.711c-0.323-1.068-0.66-2.145-0.988-3.22c1.328-0.972,2.662-1.129,4.008-0.021
					c0.146,0.152,0.317,0.279,0.501,0.392C286.057,228.655,283.17,227.492,282.206,228.711z"/>
				<path fill="#423E3F" d="M300.119,159.835c-0.106,0.464-0.201,0.921-0.301,1.387c-2.564-0.333-3.971-1.53-3.238-4.313
					c0.436-0.048,0.875-0.086,1.311-0.128C298.631,157.801,299.376,158.819,300.119,159.835z"/>
				<path fill="#1F1E1F" d="M154.243,160.148c1.855,0.147,2.738,1.488,3.573,2.895c9.345,15.955,9.933,32.451,2.492,49.173
					c-2.041,4.594-4.312,9.517-9.884,11.272c-0.364-0.447-0.519-0.96-0.466-1.537c2.059-3.995,5.596-7.027,7.284-11.29
					c5.682-14.369,5.914-28.621-0.656-42.802C155.455,165.419,153.373,163.212,154.243,160.148z"/>
				<path fill="#3C3C3C" d="M150.434,222.392c0,0.365-0.005,0.733-0.009,1.101c-2.429,0.085-4.854,0.168-7.276,0.253
					c-0.449-0.133-0.895-0.263-1.348-0.406c-1.315-1.777-0.995-3.668-0.116-5.419c1.278-2.523,2.829-5.262,6.212-4.482
					c3.646,0.836,2.575,3.941,2.264,6.457C150.061,220.778,149.928,221.599,150.434,222.392z"/>
				<path fill="#080605" d="M221.562,107.767c0.683,0.478,1.357,0.958,2.033,1.437c-3.07-1-6.297,2.08-9.342-0.359
					c0.904-2.768,5.025-2.86,5.207-6.23c1.527-2.921,5.225-1.063,7.101-3.211c0.201,0.084,0.412,0.17,0.616,0.255
					c0.47,0.517,0.672,1.136,0.657,1.823c0.998,1.932,0.154,2.74-1.745,3.233C224.281,105.187,222.453,105.833,221.562,107.767z"/>
				<path fill="#2F2E2E" d="M219.46,102.613c1.877,1.245,0.793,1.867-0.241,3.149c-1.388,1.721-3.323,2.057-4.966,3.081
					c-0.69,0.023-1.376,0.047-2.056,0.074c-0.869-3.533,3.72-2.784,4.168-5.283C217.398,103.297,218.425,102.953,219.46,102.613z"/>
				<path fill="#1E1D1D" d="M226.562,99.403c0.812-0.848,1.488-1.937,2.461-2.495c1.62-0.93,3.827-3.022,5.174-0.502
					c1.062,1.994-2.058,1.963-3.103,3.055c-1.42-0.436-2.867,1.444-4.282-0.034L226.562,99.403z"/>
				<path fill="#514F52" d="M226.812,99.428c1.424,0.245,2.872-2.047,4.288,0.034c-1.088,0.674-2.175,1.349-3.262,2.019
					C227.025,101.028,226.671,100.35,226.812,99.428z"/>
				<path fill="#03160A" d="M217.09,98.273c0.093-0.315,0.162-0.63,0.209-0.947c1.683-0.708,3.387-1.36,5.27-1.153
					c-1.384,1.077-2.78,2.154-4.165,3.233C217.965,99.027,217.523,98.65,217.09,98.273z"/>
				<path fill="#031C0D" d="M203.714,100.307c-1.372,2.566-4.141,1.369-6.132,2.274c0-0.379,0.007-0.754,0.007-1.126
					C199.515,100.465,201.615,100.385,203.714,100.307z"/>
				<path fill="#4C4A48" d="M205.75,106.647c-0.309-1.006-1.273-0.942-2.014-1.229c1.353-1.058,2.82-1.035,4.396-0.494
					C207.758,106.144,206.726,106.35,205.75,106.647z"/>
				<path fill="#FDFDFD" d="M150.434,222.392c-1.352-0.038-3.531,0.835-1.99-2.092c0.997-1.904,2.46-4.524-0.162-5.762
					c-3.243-1.537-4.158,1.715-5.45,3.864c-0.938,1.568-0.786,3.27-1.026,4.936c-0.291-0.062-0.534,0.021-0.724,0.243
					c-3.878,0.518-7.791,1.374-11.355-1.159c-1.39-0.919-2.981-0.849-4.541-0.876c-6.242-0.092-10.635-3.425-11.342-9.629
					c-1.666-14.62,0.818-28.505,9.677-40.56c7.413-10.089,18.069-12.886,30.102-11.562c0.109,0.301,0.317,0.417,0.628,0.348
					c5.055,9.349,9.118,18.975,8.654,29.915C162.393,202.232,159.945,213.671,150.434,222.392z"/>
				<path fill="#211D1D" d="M129.726,222.422c3.78,0.39,7.566,0.773,11.352,1.159c-3.87,2.371-8.349,2.254-12.606,3.073
					c-0.696-1.926-1.679-3.487-4.118-3.153C125.869,221.788,127.933,222.787,129.726,222.422z"/>
				<path fill="#FDFDFD" d="M296.58,156.909c0.537,1.837,1.905,3.062,3.238,4.313c7.726,19.288,6.1,37.897-4.105,55.877
					c-3.017,3.387-6.362,6.366-10.486,8.372c-1.341,0.005-2.68,0.014-4.008,0.021c-0.034-1-0.063-2.004-0.086-2.999
					c-0.637-1.329-0.738-3.427-2.726-3.235c-1.741,0.16-1.326,2.176-1.805,3.389c-0.383,0.941,0.116,2.105-0.711,2.951l0.006-0.023
					c-5.148-0.786-9.601-3.481-14.377-5.287c-3.158-2.496-6.313-5.002-9.475-7.504c-7.592-13.979-3.84-27.075,3.128-39.913
					c0.655-1.205,1.487-2.31,2.238-3.458c9.147-9.883,21.297-12.808,33.921-14.868C294.004,154.105,295.004,155.777,296.58,156.909z
					"/>
				<path fill="#2A2A2A" d="M275.893,225.6c0.021-1.203-0.01-2.413,0.092-3.605c0.2-2.333-0.162-5.529,3.516-4.879
					c3.124,0.551,2.344,3.181,1.634,5.378C276.48,218.654,277.904,225.01,275.893,225.6z"/>
			</g>
		</g>
	</g>
</g>
</svg>
