<?xml version="1.0" encoding="utf-8"?>
<!-- Generator: Adobe Illustrator 16.0.0, SVG Export Plug-In . SVG Version: 6.00 Build 0)  -->
<!DOCTYPE svg PUBLIC "-//W3C//DTD SVG 1.1//EN" "http://www.w3.org/Graphics/SVG/1.1/DTD/svg11.dtd">
<svg version="1.1" id="Layer_1" xmlns="http://www.w3.org/2000/svg" xmlns:xlink="http://www.w3.org/1999/xlink" x="0px" y="0px"
	 width="316px" height="488px" viewBox="0 0 316 488" enable-background="new 0 0 316 488" xml:space="preserve">
<g>
	<g>
		<path fill="#222222" d="M265.434,93.58c1.802,9.747,2.642,19.633,4.557,29.372c3.338,16.978,6.338,34.02,9.876,50.962
			c2.519,12.062,3.382,24.369,4.671,36.61c1.837,17.455,3.436,34.933,5.855,52.331c2.261,16.25,4.649,32.49,5.852,48.886
			c1.173,15.958,1.4,31.916,1.639,47.9c0.176,11.741,1.803,23.476,0.989,35.234c-1.207,17.414-0.828,34.913-2.881,52.276
			c-0.079,0.673-0.287,1.329-0.436,1.994c-0.732,0.556-1.412,1.392-2.446,0.494c-0.224-0.338-0.376-0.701-0.464-1.099
			c-0.09-5.611,1.074-11.113,1.367-16.699c0.174-3.301,0.572-6.603,0.433-9.908c-0.544-12.689,2.207-25.282,1.326-37.946
			c-1.22-17.536-1.379-35.105-1.812-52.656c-0.643-25.994-4.853-51.555-8.091-77.249c-2.297-18.229-4.071-36.521-5.723-54.821
			c-1.284-14.249-4.188-28.216-6.996-42.212c-3.861-19.251-7.671-38.516-10.127-58.016c-0.172-1.359-0.347-2.719-0.727-4.029
			c-0.51-1.643-1.884-1.314-3.088-1.321c-2.045-0.012-3.995,0.706-6.03,0.807c-0.336,0.102-0.676,0.152-1.026,0.164
			c-0.556-0.021-1.049-0.177-1.378-0.67c-0.105-0.365-0.083-0.721,0.065-1.07c1.243-1.44,3.15-0.836,4.639-1.526
			c4.142-0.195,8.258-0.652,12.359-1.242c1.837-0.356,3.692-0.438,5.557-0.418c0.559,0.198,0.938,0.573,1.108,1.145
			c-0.994,1.936-3.102,0.055-4.309,1.259l0.014-0.014C268.7,92.88,266.511,91.409,265.434,93.58z"/>
		<path fill="#202020" d="M121.794,476.572c0.209-10.066-3.479-19.438-5.206-29.158c-3.067-17.247-8.203-34.043-11.127-51.34
			c-2.711-16.033-5.839-32.009-10.287-47.674c-4.572-16.105-11.108-31.542-16.315-47.438c-2.089-6.378-4-12.809-6.103-19.175
			c-9.536-28.848-19.952-57.379-30.916-85.71c-0.694-1.795-1.565-3.523-2.354-5.281c0.808-0.168,1.364-1.146,2.361-0.738
			c1.572,0.995,2.146,2.657,2.695,4.257c6.345,18.441,13.882,36.429,20.359,54.839c9.579,27.223,17.615,54.964,28,81.917
			c5,12.979,8.227,26.542,10.949,40.239c4.691,23.604,9.176,47.256,14.859,70.662c2.015,8.301,3.779,16.686,5.486,25.069
			c0.571,2.809,0.822,5.642-0.01,8.465C123.627,476.391,122.879,476.86,121.794,476.572z"/>
		<path fill="#222222" d="M3.863,127.263c-2.979-8.85-5.613-17.786-2.381-27.118c2.301-6.643,7.846-10.187,13.854-12.856
			c5.71-2.536,11.346-5.213,17.028-7.801c7.454-3.393,15.323-2.518,23.109-1.48c1.126,0.15,2.124,1.235,3.191,1.87
			c0.402,0.238,0.524,0.945,1.308,0.541c2.028-1.046,2.051-1.002,2.262,1.372c-0.305,0.19-0.588,0.215-0.834-0.099
			c-0.284,0.265,0.073,0.372,0.161,0.48c0.565,0.708,0.936,1.48,0.944,2.402c-0.205,1.256-0.17,2.499,0.254,3.717
			c-0.489,9.073-4.8,15.84-12.75,20.015c-6.943,3.646-14.595,5.074-22.336,5.878c-3.348,0.347-3.498,0.452-1.655,3.25
			c2.506,3.805,5.304,7.415,7.432,11.471c1.172,2.234,2.873,2.846,5.414,2.041c7.843-2.484,15.342-5.52,22.432-9.872
			c4.455-2.732,9.064-5.642,14.374-6.804c0.722,0.189,1.329,0.536,1.68,1.231c-0.292,1.631-1.744,2.027-2.927,2.594
			c-6.388,3.063-12.553,6.516-18.557,10.269c-0.581,0.362-1.172,0.732-1.811,0.963c-10.588,3.835-20.997,8.262-32.216,10.031
			c-2.699,0.425-5.467,0.523-7.721-1.562c0.233-1.004,1.599-1.078,1.769-2.145c3.834-1.212,7.919-0.177,11.791-1.503
			c3.561-1.219,3.564-0.953,1.784-4.151c-3.162-5.682-7.516-10.611-10.324-16.517c-0.152-1.124-0.078-2.143,1.196-2.606
			c0.344-0.068,0.689-0.071,1.036-0.023c1.839,0.368,3.661,0.369,5.46-0.249c5.693-1.128,11.383-2.269,16.956-3.923
			c9.002-2.671,15.098-10.594,14.683-19.118c-0.219-4.482-2.314-6.674-6.814-6.843c-3.979-0.15-7.967-0.07-11.951-0.02
			c-1.616,0.02-3.193,0.34-4.631,1.055c-6.83,3.398-13.963,6.153-20.743,9.641c-4.524,2.328-8.755,5.326-9.998,10.626
			c-1.562,6.652-1.511,13.333,1.433,19.734c0.609,1.328,1.54,2.567,1.318,4.161c-0.1,0.356-0.332,0.582-0.69,0.674
			c-1.645-0.177-1.569-1.726-2.264-2.934c0.433,1.062,0.671,1.939,0.378,2.873C4.369,126.843,4.154,127.087,3.863,127.263z"/>
		<path fill="#212121" d="M295.304,451.192c-5.259,0.635-10.504,1.624-15.781,1.839c-17.031,0.689-33.185,5.193-49.164,10.67
			c-15.05,5.156-30.325,9.606-44.775,16.496c-15.385,7.334-31.861,7.783-48.496,6.157c-4.193-0.41-8.312-1.172-12.417-2.176
			c-2.94-0.72-4.421-1.766-2.888-4.884c0.59-0.542,1.242-0.586,1.945-0.249c0.678,0.546,1.008,1.436,1.834,1.834
			c6.445,2.223,13.189,2.402,19.871,2.929c15.985,1.26,30.884-2.399,45.236-9.43c7.548-3.695,15.584-6.442,23.671-8.849
			c6.447-1.918,12.858-3.946,19.179-6.222c15.44-5.56,31.337-8.76,47.697-9.743c2.839-0.172,5.633-0.894,8.503-0.688
			c1.236,0.089,2.529-0.1,3.578,0.812c0.09,0.086,0.181,0.167,0.275,0.246C294.208,450.273,294.861,450.589,295.304,451.192z"/>
		<path fill="#231C1D" d="M262.609,63.181c8.011-4.859,14.431-11.579,21.153-17.965c5.742-5.455,11.689-10.693,17.58-15.99
			c1.975-1.779,3.887-1.257,4.831,1.462c1.391,4.009,1.343,8.295,2.082,12.428c2.379,13.322,4.965,26.607,7.464,39.909
			c0.407,2.176,0.731,4.349-1.745,5.64c-0.957,0.579-1.948,1.544-3.085,0.811c-0.979-0.63,0.026-1.372,0.302-2.042
			c1.297-1.593,1.665-3.291,1.291-5.401c-2.691-15.245-6.563-30.277-8.233-45.705c-0.133-1.24-0.272-2.497-1.241-4.071
			c-2.687,2.078-4.975,4.534-7.556,6.618c-7.896,6.372-14.66,13.975-22.362,20.548c-5.404,4.613-11.676,7.949-17.909,11.217
			c-4.627,2.425-8.799,5.705-13.814,7.399c-0.963,0.326-1.85,0.895-2.926,0.816c-1.051-0.224-1.91-0.675-2.151-1.842
			c0.015-0.324,0.12-0.621,0.313-0.883c0.728-0.577,1.642-0.744,2.469-1.104c0.671-0.265,1.232-0.711,1.832-1.097
			c0.771-0.413,1.67-0.52,2.411-1.009c1.569-0.947,3.247-1.685,4.829-2.604c2.347-1.475,4.685-2.962,7.284-3.964
			c0.809-0.38,1.536-0.904,2.328-1.313c0.405-0.155,0.829-0.21,1.257-0.216c0.898,0.043,1.438-0.64,2.11-1.061
			C261.62,63.572,262.279,63.802,262.609,63.181z"/>
		<path fill="#241D1E" d="M147.538,65.306c1.481-1.407,0.474-1.651-0.832-2.013c-4.814-1.335-9.615-2.732-14.402-4.168
			c-2.287-0.686-4.531-1.55-6.44-3.033c-3.058-2.375-3.772-6.07,0.391-8.435c10.574-6.002,19.667-14.12,29.354-21.375
			c4.797-3.594,7.932-8.973,12.075-13.303c4.313-4.506,8.678-8.99,13.781-12.632c2.646-1.888,5.053-1.629,6.253,1.107
			c3.238,7.378,6.999,14.578,8.63,22.578c0.34,0.861,0.33,1.741,0.153,2.63c-2.699,0.363-1.769-2.376-2.884-3.37
			c-2.461-5.999-4.611-12.129-7.562-17.932c-1.43-2.813-2.011-3.068-4.529-1.095c-7.298,5.719-13.333,12.699-19.354,19.677
			c-2.241,2.599-4.465,5.217-7.344,7.091c-7.363,4.789-13.939,10.623-21.071,15.716c-1.396,0.997-2.865,1.847-4.349,2.695
			c-3.054,1.744-3.041,3.286,0.045,5.116c3.484,2.064,7.45,2.733,11.268,3.846c3.78,1.101,7.869,1.362,11.151,3.907
			c0.148,0.303,0.179,0.621,0.111,0.951c-0.603,0.785-1.519,1.214-2.183,1.937C149.066,65.692,148.327,66.068,147.538,65.306z"/>
		<path fill="#1E1E1E" d="M147.538,65.306c0.73-0.209,1.461-0.417,2.192-0.627c0.426-0.4,0.892-0.399,1.382-0.134
			c0.469,1.787-1.009,2.362-2.032,3.146c-12.377,9.461-25.25,18.245-37.629,27.713c-9.4,7.19-20.151,12.367-30.008,18.915
			c-1.18,0.783-2.569,1.523-4.162,1.109c-0.622-0.044-1.196-0.18-1.492-0.82c0.907-2.183,0.221-3.858-1.053-5.845
			c-4.518-7.046-8.542-14.397-12.496-21.782c-0.072-0.772-0.739-1.508-0.141-2.321c-0.394-0.881-0.827-1.749-1.167-2.652
			c-0.113-0.298-0.426-0.92,0.28-0.913c0.343,0.004,0.681,0.45,1.021,0.695c4.617,6.514,8.201,13.639,12.092,20.579
			c1.678,2.997,3.052,7.088,5.733,8.241c2.695,1.157,5.444-2.771,8.275-4.283c14.539-7.765,27.384-18.038,40.604-27.757
			C135.071,74.061,141.334,69.723,147.538,65.306z"/>
		<path fill="#202020" d="M15.599,135.959c0.777,1.784-0.661,1.252-1.453,1.395c-1.109,0.393-1.889-0.242-2.839-0.736
			c6.548,8.74,11.649,18.388,17.172,27.778c4.212,7.161,7.759,14.682,11.8,21.936c0.584,1.046,1.407,2.143,0.763,3.502
			c-0.02,1.129-0.546,1.438-1.555,0.962c-6.042-9.901-11.15-20.324-16.814-30.438c-4.742-8.468-10.567-16.206-15.337-24.62
			c-1.517-2.676-2.949-5.389-3.471-8.475c0.05-0.316,0.101-0.632,0.15-0.948c0.685-0.662,1.308,1.58,2.011,0.043
			c0.275-0.016,0.552-0.032,0.828-0.047c3.124,1.707,4.199,5.171,6.491,7.589c0.46,0.802,1.26,1.209,1.988,1.7
			C15.423,135.719,15.511,135.839,15.599,135.959z"/>
		<path fill="#252525" d="M196.271,26.987c0.025-0.984,0.051-1.969,0.076-2.954c0.787,3.465,2.525,3.773,5.709,2.416
			c13.616-5.809,27.737-4.812,41.884-2.539c4.163,0.669,8.351,0.892,12.548,1.101c0.689,1.196,0.016,1.886-0.915,2.484
			c-2.919,0.821-5.863,0.527-8.802,0.14c-4.851-0.639-9.726-1.136-14.561-1.826c-9.861-1.407-19.263,0.142-28.492,3.499
			c-1.175,0.427-2.358,0.847-3.6,1.028c-0.34,0.044-0.687,0.028-1.022-0.038c-1.136-0.748-2.186-1.591-2.817-2.854
			C196.273,27.292,196.272,27.141,196.271,26.987z"/>
		<path fill="#272727" d="M262.609,63.181c-0.207,0.697-0.773,0.809-1.384,0.851c-0.753,0.467-1.502,0.612-2.237-0.038
			c-0.731-1.076-0.729-2.304-0.739-3.531c-0.073-2.977,0.407-5.98-0.436-8.919c-0.438-5.866-0.271-11.761-0.865-17.624
			c-0.135-1.341,0.279-2.697,0.765-3.971c0.13-0.327,0.323-0.626,0.558-0.889c1.75-0.714,1.33,1.296,2.164,1.736
			c0.09,0.114,0.173,0.231,0.256,0.348c-0.644,8.684,0.286,17.324,0.705,25.979c0.303,0.468,0.305,0.936,0.001,1.404
			C261.786,60.082,259.887,62.236,262.609,63.181z"/>
		<path fill="#312A2A" d="M311.853,87.803c0.455,0.31-2.418,2.086,0.563,1.284c0.521-0.14,1.038-0.281,1.558-0.421
			c-1.119,1.455-2.689,2.055-4.43,2.069c-6.284,0.049-12.566,0.024-18.849,0.027c0.415-2.096,2.145-1.508,3.464-1.654
			c4.269-0.472,8.451,1.078,12.351,0.558c-1.631-0.49-3.867,0.911-5.742-0.704c-0.05-0.641,0.216-1.201,0.851-1.184
			C305.031,87.871,308.444,87.033,311.853,87.803z"/>
		<path fill="#1B1617" d="M300.968,88.626c2.553,1.752,5.57-0.058,9.025,1.395c-5.803,0-10.791-0.03-15.778,0.022
			c-1.193,0.013-2.542-0.458-3.52,0.719l-0.326,0.09l-0.327-0.08c-1.146,0.17-2.295-0.534-3.438,0.013
			c-0.228,0.005-0.454,0.011-0.68,0.015c-1.633-0.647-3.38,1.163-4.976-0.239c0.005-0.869,0.479-1.409,1.215-1.772
			c4.636-0.967,9.372,0.151,14.015-0.686C297.837,87.678,299.512,87.172,300.968,88.626z"/>
		<path fill="#312A2A" d="M281.259,90.599c1.524,0.75,3.179-1.489,4.665,0.2c-3.39,0.809-6.854,0.506-10.285,0.691
			C277.134,88.796,279.191,89.675,281.259,90.599z"/>
		<path fill="#2B2425" d="M281.259,90.599c-1.838,0.529-3.946-0.67-5.62,0.892l-0.286,0.16l-0.321-0.063
			c-0.417-0.138-0.52-0.547-0.734-0.859c-0.243-0.182-0.485-0.363-0.729-0.543c1.217-1.579,3.162-0.754,4.654-1.43
			c0.555-0.143,1.12-0.214,1.697-0.204c0.786,0.059,1.54,0.193,1.983,0.964C281.687,89.876,281.473,90.238,281.259,90.599z"/>
		<path fill="#080808" d="M123.617,479.229c-0.612,0.021-1.223,0.043-1.835,0.066c0.004-0.907,0.008-1.815,0.012-2.723
			c0.654-0.238,1.307-0.473,1.959-0.708c0.122,0.134,0.244,0.269,0.368,0.401C124.552,477.355,124.663,478.392,123.617,479.229z"/>
		<path fill="#323232" d="M255.802,26.881c0.229-0.624,0.457-1.247,0.686-1.871c0.686-0.255,1.373-0.509,2.059-0.764
			c0.529,0.479,1.269,0.714,1.632,1.394c0.095,0.288,0.117,0.58,0.063,0.879c-0.189,0.455-0.534,0.706-1.016,0.781
			C258.095,27.086,256.83,27.939,255.802,26.881z"/>
		<path fill="#252525" d="M259.321,26.992c0.215-0.25,0.43-0.501,0.645-0.752c0.429-0.343,0.844-0.354,1.242,0.05
			c0.007,0.234,0.013,0.468,0.02,0.702c-0.587,0.651,0,1.644-0.659,2.275c-0.497,0.206-0.952,0.169-1.347-0.228
			c-0.191,0.001-0.383,0.001-0.575,0.001C257.856,28.024,258.304,27.414,259.321,26.992z"/>
		<path fill="#252525" d="M259.887,25.628c-0.88-0.039-1.321-0.506-1.341-1.382c3.218-1.153,3.471-1.092,3.533,0.862
			C261.257,24.895,260.601,25.383,259.887,25.628z"/>
		<path fill="#2B2425" d="M265.434,93.58c0.915-2.701,3.062-1.372,4.774-1.462C268.809,93.232,266.73,92.127,265.434,93.58z"/>
		<path fill="#312A2A" d="M286.604,90.784c1.141-1.078,2.289-1.098,3.438-0.013C288.899,91.522,287.751,91.175,286.604,90.784z"/>
		<path fill="#312A2A" d="M274.297,90.729c0.245,0.286,0.491,0.572,0.734,0.858c-1.555,0.686-3.204,0.548-4.837,0.544
			C271.209,90.627,273.245,92.119,274.297,90.729z"/>
		<path fill="#0E0E0E" d="M295.304,451.192c-0.779-0.141-1.869,0.15-1.731-1.256c0.663-0.264,1.323-0.528,1.982-0.791
			C295.839,449.873,295.866,450.568,295.304,451.192z"/>
		<path fill="#0C0C0C" d="M259.887,25.628c0.383-1.645,1.133-1.735,2.192-0.52c-0.29,0.393-0.58,0.787-0.87,1.181
			c-0.415-0.017-0.828-0.033-1.241-0.049C259.95,26.035,259.924,25.831,259.887,25.628z"/>
		<path fill="#323232" d="M260.418,29.166c0.183-0.758,0.06-1.629,0.811-2.174c-0.104,1.393,0.214,2.842-0.537,4.153
			c-0.119-0.02-0.229-0.061-0.332-0.124C259.955,30.389,260.017,29.772,260.418,29.166z"/>
		<path fill="#E4E4E4" d="M262.081,58.644c0-0.467,0-0.936,0-1.404c0.494,0.131,1.42,0.278,1.415,0.396
			C263.473,58.48,262.729,58.534,262.081,58.644z"/>
		<path fill="#FEFEFE" d="M254.726,95.445c3.617-0.549,7.186-1.803,10.911-0.75c1.729,13.442,4.13,26.771,6.4,40.13
			c2.939,17.292,7.511,34.271,9.746,51.674c1.481,11.529,2.519,23.116,3.725,34.68c1.893,18.134,3.834,36.26,6.484,54.304
			c2.67,18.168,4.749,36.397,5.28,54.78c0.588,20.406,2.146,40.83,1.679,61.208c-0.455,19.809-0.533,39.714-3.344,59.42
			c-23.536,0.642-46.257,5.261-68.359,13.408c-9.596,3.538-19.488,6.269-29.007,10.06c-7.279,2.898-14.323,6.289-21.829,8.752
			c-10.967,3.601-22.031,3.124-33.151,2.538c-5.615-0.296-11.921-1.119-17.181-3.644c-0.698-1.794,0.794-3.189,0.006-4.974l-1-0.525
			c0.157-4.008-0.272-7.934-1.156-11.861c-4.597-20.424-8.97-40.809-13.119-61.323c-3.562-17.619-6.915-35.369-11.575-52.749
			c-4.547-16.959-11.524-33.101-16.973-49.761c-2.122-6.49-4.071-13.03-6.201-19.513c-9.451-28.771-20.004-57.148-30.828-85.424
			c-0.728-1.902-1.525-3.803-2.858-5.399c-4.151-7.836-8.113-15.781-12.504-23.479c-5.073-8.888-9.683-18.071-15.975-26.228
			c-1.214-1.572-2.079-3.412-3.592-5.942c2.39,1.18,3.469,2.735,5.175,3.167c2.608,1.519,5.52,1.605,8.255,0.986
			c14.312-3.234,28.441-6.971,40.839-15.395c4.395-2.984,9.725-4.325,14.042-7.519c13.44-7.959,27.119-15.5,39.557-25.091
			c10.711-8.26,20.972-16.646,31.899-24.622c0.629-0.458,1.457-0.708,1.712-1.577c0.366-0.464,0.628-0.518,1.415-0.518
			c14.308,2.807,26.97,8.827,40.158,14.737c0.861,0.386,2.091,0.861,2.34,1.849c0.035,3.037-1.879,6.003-0.328,9.095
			c-0.042,1.525-0.421,3.29-0.077,4.905c1.033,1.484,3.226,0.013,4.2,1.649c1.031,1.19,0.828,2.42,0.127,3.669
			c-0.605,0.736-1.217,1.471-1.519,2.282c0.574-0.686,0.862-1.52,1.478-1.971c2.223-1.741,4.463-2.169,6.779-0.143
			c0.531,0.465,1.259,0.498,1.938,0.592c2.25,0.586,2.328,1.826,1.022,3.463c-0.354,0.442,0.09,1.484-0.35,1.841
			c-2.158,1.754-2.973,3.961-2.086,6.636c0.854,2.577,3.955,4.84,6.768,4.851c1.956,0.007,3.89-0.217,4.952,2.638
			c-0.554-3.228,0.506-5.411,2.34-7.309c0.673-0.287,1.279-0.071,1.869,0.249c0.377,0.208,0.696,0.77,1.069,0.664
			c0.625-0.178,0.182-0.708,0.072-1.056c-0.195-0.63-0.568-1.191-0.804-1.813c-0.348-0.971-0.682-1.943-0.78-2.979
			c-0.074-0.903-0.086-1.81,0.031-2.708c0.232-1.77,1.164-2.464,2.786-1.525c1.925,1.113,3.97,1.572,6.149,1.561
			c1.033-0.044,2.266,0.802,2.983-0.682c2.521-1.395,2.755-3.258,1.774-5.897c-0.533-1.438-2.244-3.689,0.76-4.835
			c1.227-0.078,2.328,0.375,3.44,0.789c1.257,0.883,2.735,1.073,4.194,1.326c1.787,0.546,3.555,0.36,5.312-0.153
			c1.611-0.632,3.348-0.162,4.982-0.573"/>
		<path fill="#1B1919" d="M237.728,94.266c-1.215,0.407-2.026-0.716-3.104-0.82c-0.37-0.306-0.861-0.427-1.196-0.792
			c-0.264-3.098,1.735-1.106,2.793-1.25c0.32,0.089,0.629,0.206,0.935,0.334c2.914,1.455,5.934,2.028,9.137,1.104
			c0.522-0.134,1.052-0.213,1.591-0.247c1.13-0.02,2.261-0.029,3.136,0.868c-0.008,0.199-0.021,0.396-0.043,0.594
			c-0.997,0.787-2.345,0.769-3.378,1.474c-1.819,0.993-3.657,0.942-5.509,0.093C240.725,94.881,239.05,95.137,237.728,94.266z"/>
		<path fill="#2B2425" d="M268.191,90.832c-4.277,1.16-8.655,1.316-13.049,1.302c-0.02-0.19-0.04-0.382-0.059-0.572
			c3.933-1.681,8.046-1.855,12.228-1.456C267.685,90.251,267.976,90.494,268.191,90.832z"/>
		<path fill="#2B2425" d="M263.327,93.492c-3.686-0.454-7.258,0.733-10.909,0.75C255.983,92.971,259.565,91.917,263.327,93.492z"/>
		<path fill="#312A2A" d="M278.392,89.344c-1.418,1.364-3.256,0.325-4.824,0.839c-1.722,0.805-3.584,0.433-5.377,0.647
			c0.002,0.001-0.154-0.245-0.154-0.245C270.461,88.282,274.98,87.74,278.392,89.344z"/>
		<path fill="#2B2425" d="M251.018,93.463c-1.215-0.043-2.433-0.088-3.648-0.132c2.17-2.518,4.777-2.641,7.632-1.396l0.142,0.197
			C254.062,93.493,252.083,92.057,251.018,93.463z"/>
		<path fill="#2B2425" d="M247.597,95.531c0.859-1.103,2.085-1.365,3.378-1.473c0.499,0.052,1,0.105,1.5,0.158
			C250.901,94.853,249.317,95.441,247.597,95.531z"/>
		<path fill="#FEFEFE" d="M13.792,134.993c-2.03-2.679-4.062-5.359-6.09-8.039c-2.364-5.058-4.437-10.104-4.467-15.922
			c-0.047-9.677,1.391-15.162,13.928-21.077c5.547-2.617,11.24-4.944,16.72-7.718c2.592-1.312,5.283-2.014,8.204-1.937
			c2.731,0.073,5.466-0.014,8.198,0.005c8.847,0.057,12.488,5.686,9.291,14.09c-2.862,7.521-8.212,12.076-15.87,14.182
			c-5.375,1.477-10.799,2.683-16.316,3.465c-1.797,0.136-3.629,0.771-5.338-0.365l0.087,0.068c-2.695-0.625-1.906,1.11-1.669,2.472
			c4.097,6.185,8.178,12.379,12.303,18.547c0.91,1.36,0.197,1.545-0.973,1.961c-4.991,1.782-10.09,2.433-15.351,1.876l-0.005-0.001
			C15.601,135.995,14.329,136.102,13.792,134.993z"/>
		<path fill="#FEFEFE" d="M63.682,87.24c4.905,7.778,8.496,16.348,14.028,23.725c1.775,2.368-0.341,2.97-1.072,4.285
			c-6.427,2.97-12.859,5.969-18.812,9.798c-4.933,3.172-10.363,5.01-15.867,6.558c-6.659,1.875-6.622,1.557-10.174-4.439
			c-2.484-4.194-5.316-8.182-8.36-12.822c7.175-0.245,13.665-1.642,20.098-3.375c11.687-3.146,18.973-11.493,19.366-22.274
			C62.637,87.929,62.401,87.17,63.682,87.24z"/>
		<path fill="#0F0F0F" d="M6.024,126.358c0.286,0.771,0.949,1.5,0.305,2.438c-1.553-0.163-1.306-1.913-2.315-2.48
			c0-0.878,0-1.756,0-3.726C4.987,124.416,5.507,125.387,6.024,126.358z"/>
		<path fill="#252525" d="M19.619,113.574c-1.157-1.114-0.893-2.356,0.062-3.279c0.719-0.694,1.481-0.304,1.608,0.806
			C19.829,111.312,19.65,112.393,19.619,113.574z"/>
		<path fill="#252525" d="M21.201,111.034c1.779,0.122,3.559,0.243,5.338,0.364C24.705,112.082,22.878,112.668,21.201,111.034z"/>
		<path fill="#9C9C9C" d="M62.834,86.598c-0.733,0.229-0.477,1-0.795,1.456c-0.354-1.138-1.194-2.285,0.062-3.394
			C62.346,85.306,62.589,85.951,62.834,86.598z"/>
		<path fill="#373737" d="M123.777,475.831c1.106,1.75,0.354,3.689,0.552,5.531c-0.813-0.518-0.556-1.395-0.711-2.134
			C123.671,478.096,123.724,476.963,123.777,475.831z"/>
		<path fill="#F9B8BD" d="M255.85,92.579c-2.6,0.161-5.171,0.265-7.632,1.19c-0.382,0.057-0.765,0.115-1.146,0.172
			c-3.404,0.937-6.516,0.116-9.578-1.229l-0.188-0.342l-0.229-0.114c-1.396-0.911-3.163-0.902-4.545-1.851
			c-0.451-0.883-0.13-1.614,0.447-2.296c1.564-1.168,2.699-2.295,3.304-4.171c0.779-1.671-0.267-4.319,2.591-4.876
			c6.433-2.008,11.828-6.077,17.806-8.992c11.911-5.809,21.52-14.556,30.793-23.832c5.273-5.274,11.13-9.966,16.849-15.033
			c1.345,1.993,1.572,4.27,1.787,6.458c1.498,15.218,5.48,29.986,8.075,45.004c0.389,2.258,0.677,4.275-1.482,5.778
			c-3.547,1.379-7.275,0.297-10.886,0.822c-1.369-0.322-2.735-0.372-4.099,0.037c-4.398,0.747-8.83,0.127-13.241,0.344
			c-1.35,0.067-2.729-0.281-4.045,0.28c-0.398,0.019-0.795,0.038-1.192,0.057c-3.51-0.079-6.961,0.34-10.354,1.241
			C264.525,91.538,260.145,91.643,255.85,92.579z"/>
		<path fill="#D8D8D8" d="M259.313,51.643c0.868,2.975,0.58,6.011,0.483,9.038c-2.81,1.094-1.271,3.144-1.072,4.899
			c-0.542,0.751-1.315,1.11-2.19,1.295c-2.468,0.855-2.978-1.292-4.023-2.616c-0.701-1.223-2.196-1.515-3.035-2.578
			c-0.506-0.753-0.529-1.661-0.805-2.491c-0.098-0.279-0.167-0.565-0.225-0.855c-0.073-0.451-0.058-0.898,0.048-1.344
			c0.316-0.916,0.892-1.606,1.763-2.043c0.305-0.08,0.613-0.096,0.927-0.043c0.613,0.157,1.172,0.435,1.723,0.738
			c0.572,0.369,1.179,0.681,1.802,0.949c0.914,0.393,1.829,1.289,2.837,0.714c1.247-0.71,0.396-1.786,0.137-2.72
			C257.26,53.069,258.1,52.25,259.313,51.643z"/>
		<path fill="#130F10" d="M232.634,88.234c-0.234,0.558-0.468,1.116-0.7,1.673c-0.271,2.286-1.971,1.449-3.264,1.507
			c-0.34-0.083-0.647-0.24-0.922-0.454c-0.193-0.279-0.284-0.593-0.271-0.935c0.314-1.295,1.127-2.256,2.106-3.101
			c0.717-0.546,1.239-1.255,1.647-2.054c0.44-0.778,1.05-1.442,1.466-2.235c0.503-0.985,0.352-2.092,0.572-3.129
			c0.605-1.802-0.146-3.565-0.154-5.352c0.259-1.295,0.427-2.731,2.331-1.566c1.034,1.142,1.396,2.487,1.202,4
			c-0.025,0.977,1.08,1.1,1.378,1.832c-1.812,1.399-0.564,3.928-2.011,5.465C234.786,85.255,233.775,86.796,232.634,88.234z"/>
		<path fill="#B8B8B8" d="M253.038,63.383c0.837,1.493,1.34,3.322,3.495,3.492c-2.502,1.382-5.006,2.764-7.509,4.146
			c-1.9,0.656-1.943-0.698-2.098-1.936c0.124-1.374,0.883-2.519,1.359-3.767C249.192,62.947,250.755,62.308,253.038,63.383z"/>
		<path fill="#828282" d="M246.956,68.819c-0.046,1.033-0.034,2.027,1.385,2.085c-1.617,0.911-3.235,1.822-4.854,2.732
			c-0.131-0.087-0.263-0.174-0.396-0.259c-0.856-1-1.071-2.284-1.529-3.463c-0.146-0.487-0.219-0.985-0.235-1.493
			c0.038-1.075,0.1-2.142,1.211-2.741C245.024,65.293,246.05,66.973,246.956,68.819z"/>
		<path fill="#5E5E5E" d="M236.647,76.588c-0.456-1.229-0.915-2.456-1.373-3.685c-0.113-0.724-1.201-1.264-0.548-2.087
			c0.548-0.693,1.408-0.539,2.178-0.328c1.794,0.492,3.33,1.299,3.849,3.294c-0.004,0.159-0.01,0.318-0.015,0.478
			c-0.059,0.947-0.534,1.396-1.5,1.26c-0.929-0.132-1.71,0.32-2.527,0.634C236.738,76.306,236.717,76.451,236.647,76.588z"/>
		<path fill="#F3F3F3" d="M258.724,65.58c-1.642-1.241-1.973-4.171-0.688-5.447c1.031-1.024,1.219,0.237,1.761,0.549
			c0.083,1.15,0.166,2.299,0.249,3.448c0.274,0.461,0.196,0.842-0.261,1.136C259.432,65.371,259.078,65.475,258.724,65.58z"/>
		<path fill="#5E5E5E" d="M242.088,68.772c0.01,0.462,0.019,0.923,0.028,1.385c0.326,1.101,0.135,2.421,1.338,3.146l0.033,0.334
			c-0.757,0.908-1.779,0.646-2.749,0.623c0,0,0.019,0.028,0.019,0.028C240.74,72.338,238.749,69.911,242.088,68.772z"/>
		<path fill="#0A0A0A" d="M259.103,65.149c0.087-0.378,0.174-0.757,0.261-1.136c0.621,0.006,1.243,0.012,1.864,0.018
			C260.633,64.622,260.835,66.729,259.103,65.149z"/>
		<path fill="#ADADAD" d="M237.56,76.798c0.671-0.897,1.271-2.085,2.528-0.634C239.38,76.919,238.553,77.188,237.56,76.798z"/>
		<path fill="#F9B8BD" d="M151.787,62.652c-5.389-2.158-11.093-3.249-16.62-4.939c-2.619-0.8-5.219-1.646-7.496-3.19
			c-2.724-1.848-2.787-3.589,0.082-5.106c9.717-5.137,17.357-13.143,26.562-19.015c5.774-3.685,9.383-9.779,13.985-14.773
			c4.235-4.595,8.742-8.907,13.565-12.888c2.134-1.76,3.461-1.419,4.582,1.184c2.7,6.261,5.474,12.488,7.702,18.939
			c1.574,4.912,3.896,9.55,5.299,14.523c0.298,0.771,1.29,1.658,1.512,2.457c0.087,0.306,0.145,0.62,0.187,0.934
			c0.054,1.259,0.598,2.369,1.085,3.497c0.331,1.047,0.503,2.126,0.657,3.211c0.264,2.205,0.925,4.317,1.492,6.453
			c0.251,0.957,0.426,1.93,0.73,2.873c0.442,2.86,1.218,5.642,1.98,8.426c1.034,4.219,2.374,8.359,3.252,12.622
			c-0.01,0.356-0.102,0.689-0.271,1c-5.25,5.065-5.856,4.783-12.395,1.699c-13.786-6.498-27.621-12.914-42.625-16.224
			C153.814,64.063,152.63,63.692,151.787,62.652z"/>
		<path fill="#251E1F" d="M151.787,62.652c13.5,2.388,25.88,8.021,38.351,13.365c4.051,1.737,8.098,3.542,11.773,6.021
			c1.441,0.971,2.312,1.245,3.446-0.57c0.851-1.361,2.482-2.235,3.767-3.326c0.978,0.642,0.458,1.606,0.535,2.444
			c-0.025,0.301-0.107,0.585-0.234,0.856c-0.943,1.12-1.945,2.188-2.934,3.269c-1.649-0.425-3.265,0.054-4.895,0.186
			c-2.31-1.061-4.967-1.515-6.589-3.776c-5.037-3.313-10.802-5.038-16.241-7.479c-8.49-3.812-17.365-6.458-26.307-8.923
			c-0.381-0.39-0.736-0.791-0.675-1.394C151.785,63.1,151.785,62.876,151.787,62.652z"/>
		<path fill="#2D2627" d="M198.925,38.128c-1.802-5.022-3.867-9.961-4.775-15.264c1.356,1.039,0.865,3.031,2.121,4.123L196.282,27
			c0.449,1.351,1.297,2.514,1.812,3.837c0.146,0.304,0.261,0.616,0.366,0.936C198.766,33.879,200.746,35.867,198.925,38.128z"/>
		<path fill="#120F0F" d="M151.784,63.326c0.562,0.3,0.674,0.82,0.674,1.394c-0.386,0.02-0.772,0.041-1.161,0.061
			c-0.521-0.034-1.044-0.068-1.566-0.102C149.8,63.292,150.774,63.28,151.784,63.326z"/>
		<path fill="#222222" d="M12.942,134.349c0.884,0.536,1.768,1.072,2.652,1.608C14.368,135.988,13.238,135.858,12.942,134.349z"/>
		<path fill="#FEFEFE" d="M259.313,51.643c-0.447,1.246-1.675,2.316-0.274,3.869c0.515,0.573,0.562,2.07-0.386,2.777
			c-0.737,0.55-1.88,0.58-2.559,0.005c-1.191-1.011-3.146-0.82-3.841-2.528c-0.304-0.635,1.979-1.746-0.378-2.002
			c-1.731-0.451-1.411-2.301-2.298-3.327c-3.607-2.17-2.806-5.93-3.322-9.219c1.011-1.136,2.53-2.258,0.845-3.869
			c-1.724-1.647-2.98-0.091-4.263,0.9c-1.283,0.171-2.131-0.647-3.036-1.336c-1.102-1.272-2.103-2.623-3.638-3.474
			c-2.949-1.631-5.689-1.293-8.334,1.139c-2.131,1.962-2.488,4.27-1.094,7.326c0.422,0.923,0.964,1.801,0.713,2.887
			c-0.979,1.942-2.721,3.185-4.224,4.651c-1.146,0.899-2.237,1.991-4.338,1.052c1.44,1.859,0.376,3.582,0.578,5.273
			c-0.268,2.757-1.856,3.056-4.021,2.102c-2.292-1.011-4.553-1.742-7.113-0.883c-1.483,0.498-2.538-0.495-3.426-1.585
			c-0.449-0.776-0.427-1.63-0.41-2.483c0.104-2.279-0.465-4.396-1.562-6.386c-0.738-2.434-2.333-4.928-2.974-7.394
			c-0.229-2.329-1.117-4.503-1.579-6.778c-0.066-0.939,0.57-1.758,1.26-2.532c11.449-4.369,23.19-6.367,35.476-4.828
			c7.095,0.889,14.126,2.629,21.368,1.998c1.153,0.664,2.404-1.773,3.519,0.111c-0.472,0.601-1.034,1.173-0.671,2.048
			C257.979,36.651,259.631,44.147,259.313,51.643z"/>
		<path fill="#110F0F" d="M197.628,31.087c-0.955-1.195-1.272-2.602-1.346-4.089c0.215,1.214,2.74,0.733,1.959,2.679
			C198.272,30.25,198.161,30.761,197.628,31.087z"/>
		<path fill="#2D2627" d="M197.628,31.087c0.206-0.47,0.411-0.939,0.615-1.41c0.238,0.011,0.477,0.022,0.715,0.034
			c0.021,0.92,0.043,1.839,0.066,2.758c-1.353,0.447-0.77-1.069-1.384-1.37L197.628,31.087z"/>
		<path fill="#0F0F0F" d="M260.418,29.166c-0.02,0.617-0.038,1.236-0.058,1.855c-2.377,0.489-0.539-1.448-1.138-1.982
			C259.62,29.081,260.019,29.123,260.418,29.166z"/>
		<path fill="#312A2A" d="M279.583,89.286c5.739-0.808,11.517-0.622,17.285-0.624c-2.983,1.423-6.157,0.446-9.234,0.704
			c-1.901,0.159-3.822,0.105-5.732,0.148C281.129,89.438,280.355,89.363,279.583,89.286z"/>
		<path d="M210.641,316.162l0.203-0.179l0.249,0.1c0.87-0.423,1.56,0.395,2.648,0.213c2.686-0.446,2.313,1.909,2.021,3.739
			c0.259,6.868-0.48,13.699-1.211,20.498c-0.354,3.298-1.804,6.493-3.231,9.566c-2.738,3.419-5.162,7.093-8.595,9.948
			c-2.333,1.944-4.768,3.403-7.828,3.848c-7.468,1.086-14.185,0.416-19.306-6.216c-3.591-4.655-8.813-7.863-12.006-12.96
			c-0.971-1.549-1.688-3.229-2.703-4.746c-0.771-2.524-2.543-4.565-3.387-7.063c-0.511-1.517-1.019-3.02-1.18-4.619
			c-0.383-3.823,1.256-5.614,5.134-5.281c7.721,0.662,15.457,0.498,23.121-0.228c7.056-0.67,14.296-1.057,20.6-5.173
			C206.698,316.611,208.868,316.88,210.641,316.162z"/>
		<path fill="#7F7F7F" d="M195.983,81.682c2.273,1.085,4.55,2.171,6.823,3.256c2.1,0.188,3.499,1.765,5.252,2.648
			c4.179,3.26,8.756,5.506,14.177,5.662c0.677,0.02,1.325,0.257,1.808,0.797c0.396,0.646,0.438,1.432-0.009,1.928
			c-2.051,2.292-1.845,5.258-2.525,7.958c-0.18,0.743-0.628,1.224-1.374,1.416c-1.849,0.114-2.318-1.684-3.487-2.512
			c-0.186-0.129-0.379-0.368-0.562-0.355c-2.923,0.216-5.76-0.326-8.59-0.935c-0.651,0.405-1.221,0.396-1.761-0.239
			c-1.989-2.332-4.212-1.584-6.453-0.45c-0.654,0.131-0.962-0.104-0.841-0.795c0.717-1.077,0.847-2.19,0.207-3.352
			c-1.018-1.127-2.059-2.236-2.751-3.614c-0.709-0.759-0.095-1.833-0.625-2.637C193.265,87.351,194.66,84.52,195.983,81.682z"/>
		<path fill="#D0D0D0" d="M206.519,100.988c3.184,0.615,7.382-0.529,10.479,1.323c0.17,1.424,1.296,2.3,1.948,3.444
			c1.23,2.155,2.407,4.366,0.765,6.863c-0.596,1.219-1.353,2.39-1.734,3.672c-0.351,1.169-0.296,2.461-0.463,4.163
			c-1.538-2.395-3.609-2.414-5.975-2.5c-3.397-0.122-5.831-2.29-7.014-5.54c-1.1-3.012-1.115-6.047,1.488-8.069
			C206.495,103.971,210.892,102.686,206.519,100.988z"/>
		<path fill="#2C2C2C" d="M203.751,271.041c0,0.684-0.002,1.368,0,2.053c0.008,1.906-0.519,3.418-2.755,3.56
			c-2.359,0.148-3.217-1.225-3.354-3.356c-0.422-6.603-0.899-13.203-1.3-19.807c-1.379-22.77-2.572-45.559-8.188-67.815
			c-0.499-1.976-0.655-4.074,1.958-4.657c2.656-0.591,3.553,1.198,4.11,3.43c3.55,14.204,5.455,28.667,6.602,43.223
			c1.136,14.441,1.916,28.913,2.852,43.37C203.701,271.041,203.726,271.041,203.751,271.041z"/>
		<path fill="#1A1A1A" d="M107.255,190c0.222-0.214,0.443-0.429,0.665-0.643c1.502-1.102,3.219-1.917,4.483-3.34
			c3.837-2.386,7.904-4.341,11.938-6.359l-0.064,0.037c1.352-0.302,2.792-0.151,4.072-0.816c1.133,0.396,1.85,1.089,1.697,2.396
			c-1.001,1.708-3.037,0.247-4.228,1.383l0.062-0.022c-8.64,3.128-15.814,8.261-21.332,15.655c-0.268,0.604-0.808,0.976-1.218,1.458
			c-0.95,1.811-1.899,3.62-2.85,5.431c-0.135,0.186-0.288,0.369-0.345,0.582c-0.338,1.229-1.061,2.242-2.39,1.825
			c-1.685-0.53-1.052-1.953-0.755-3.143l-0.004,0.016c0.782-1.23,0.969-2.802,2.164-3.798c0.674-1.177,1.179-2.481,2.138-3.448
			c1.953-1.97,1.102-3.081-1.028-3.981c-5.658-2.391-11.574-3.522-17.688-3.746l0.063,0.023c-0.9-1.332-4.198,0.793-3.623-2.08
			c0.429-2.142,2.92-1.105,4.388-1.017c6.062,0.36,12.025,1.388,17.679,3.751C103.151,190.719,105.267,192.861,107.255,190z"/>
		<path fill="#171717" d="M210.641,316.162c-10.955,5.996-22.709,8.27-35.119,7.836c-5.104-0.179-10.206,0.595-15.345-0.166
			c-2.344-0.348-3.396,1.354-3.085,3.763c0.425,3.298,1.335,6.4,3.394,9.072c0.812,1.054,0.82,2.283,0.885,3.51
			c0.492,0.562,0.414,1.208,0.274,1.863c-1.413,0.951-1.263-0.599-1.684-1.114c-1.049-1.277-1.237-3.041-2.326-4.312
			c-0.756-0.372-0.451-1.447-1.207-1.822l0.02,0.041c-0.438-2.012-1.53-3.776-2.103-5.736c-1.459-4.993,1.072-8.341,6.391-8.018
			c3.749,0.229,7.49,0.25,11.237,0.265c8.399,0.034,16.771-0.335,25.026-2.049c2.498-0.52,4.942-1.289,7.439-1.835
			C206.404,316.536,208.497,316.229,210.641,316.162z"/>
		<path fill="#D0D0D0" d="M221.003,104.369c-0.419-3.791,0.473-7.222,2.812-10.254c0.104-0.113,0.205-0.227,0.307-0.342
			c1.372-0.618,2.995-0.559,4.227-1.569c0.435-0.205,0.877-0.381,1.354-0.473c1.926-0.27,3.56,0.409,5.047,1.561
			c0.242,0.266,0.482,0.531,0.723,0.797c-2.096,1.811-0.291,4.043,0.294,5.22c1.372,2.759,1.398,4.096-1.832,4.72
			c-0.274,0.053-0.429,0.725-0.64,1.108c-1.291,0.135-1.601-1.352-2.782-1.642c-0.663,0.777,0.607,1.484,0.172,2.223
			c-3.106,0.347-6.009-0.132-8.714-2.656c-0.138,1.94-0.24,3.366-0.342,4.792c-0.641,0.006-0.927-0.412-1.126-0.938
			C220.227,105.982,220.576,105.167,221.003,104.369z"/>
		<path fill="#2E2E2E" d="M157.371,253.12c-0.795-19.12-3.733-37.968-7.216-56.747c0.182-0.085,0.362-0.17,0.544-0.257
			c2.107,1.307,2.313,3.568,2.64,5.655c2.006,12.833,4.325,25.637,5.34,38.591c0.515,6.566,0.932,13.171,0.98,19.777
			c0.011,1.409-0.289,2.931,0.977,4.316c1.327-1.131,1.093-2.551,1.063-3.812c-0.313-13.329-1.132-26.62-3.385-39.782
			c-0.616-3.596-1.111-7.207-1.609-10.819c-0.156-1.129-0.352-2.266,0.279-3.333c0.301-0.364,0.655-0.423,1.06-0.179
			c3.673,19.933,6.237,39.966,5.319,60.307c-0.698,1.5-1.774,2.408-3.504,1.908c-1.843-0.534-2.224-1.995-2.264-3.734
			C157.507,261.048,157.917,257.074,157.371,253.12z"/>
		<path fill="#1C1C1C" d="M110.675,184.653c-6.662-3.299-13.896-5.01-20.844-7.511c-0.855-0.308-1.749-0.523-2.639-0.71
			c-1.366-0.29-1.962-1.144-1.749-2.467c0.234-1.445,1.424-1.282,2.42-1.151c1.009,0.133,2.015,0.393,2.982,0.716
			c6.456,2.151,12.984,4.101,19.252,6.788c0.552,0.815,1.569,0.746,2.315,1.221c1.597,1.019,2.025,2.078,0.365,3.41
			C112.02,185.259,111.334,185.055,110.675,184.653z"/>
		<path fill="#181818" d="M200.437,168.854c0.365-0.03,0.732-0.059,1.099-0.088c1.525-0.485,3.091-0.164,4.637-0.225
			c1.104,0.393,1.336,1.257,1.233,2.297c-0.859,0.754-2.196,0.06-2.998,0.988c-1.3,0.402-2.768-0.397-3.993,0.553l0.061-0.018
			c-2.838,0.947-5.66,1.937-8.244,3.484l0.058-0.031c-1.724,0.255-3.016,1.461-4.58,2.077c-0.875,0.345-1.796,0.717-2.425-0.228
			c-0.775-1.165,0.088-1.971,0.982-2.455c2.958-1.598,6.234-2.559,9.019-4.505c1.196-0.753,1.312-2.092,1.688-3.256
			c2.441-7.601,5.603-14.903,9.077-22.078c0.251-0.485,0.629-0.818,1.161-0.964c2.346,0.207,2.117,1.475,1.273,3.041
			c-1.014,1.877-2.264,3.641-2.788,5.752c-0.701,1.198-0.68,2.691-1.533,3.833C202.799,160.934,200.184,164.442,200.437,168.854z"/>
		<path fill="#0F0F0F" d="M235.963,158.646c0.694-0.481,1.386-0.961,2.079-1.441c0.804-0.582,1.64-1.09,2.643-1.245
			c2.39,0.391,1.66,1.46,0.569,2.61c-0.373,0.258-0.921,0.317-1.016,0.893l0.011-0.038c-5.174,2.661-9.2,6.721-13.115,10.894
			c-1.135,1.211-0.909,2.451,0.557,3.388c0.761,0.486,1.531,0.943,2.339,1.345c1.745,0.878,2.8,2.547,4.263,3.749
			c2.252,2.013,4.126,4.362,5.975,6.735c0.353,0.351,0.607,0.755,0.704,1.25c-0.23,1.071-1.002,1.145-1.878,1.029
			c-0.308-0.1-0.572-0.271-0.795-0.505c-1.325-1.833-2.2-4.088-4.593-4.928c-0.862-0.447-1.465-1.19-2.133-1.861
			c-2.704-2.965-5.933-5.166-9.661-6.634c-0.879-0.347-1.475-1.013-1.998-1.764c-0.254-1.736,1.116-1.756,2.193-2.083
			c1.643-0.01,2.557-1.199,3.606-2.205C229.022,164.653,231.925,161.014,235.963,158.646z"/>
		<path fill="#232323" d="M128.535,179.141c-1.343,0.772-2.783,0.797-4.259,0.554c3.553-1.371,3.678-1.536,0.563-3.919
			c-7.112-5.446-14.174-11.026-22.837-13.937c-1.45-0.487-2.531-1.25-2.018-2.938c0.566-1.867,2.034-1.428,3.359-1.019
			c7.526,2.326,13.665,6.979,19.699,11.806c0.374,0.435,0.407,0.878,0.039,1.334c-2.727,0.33-3.939-2.242-6.014-3.205
			c-1.689-0.785-3.136-2.11-4.658-3.239c-2.494-1.779-5.165-3.224-8.056-4.256c2.349,1.483,4.812,2.749,7.319,3.94
			c5.094,3.551,10.413,6.782,15.221,10.735C128.171,176.044,129.853,177.024,128.535,179.141z"/>
		<path fill="#1E1E1E" d="M207.881,167.421c5.724-4.838,9.261-11.458,13.917-17.167c1.612-1.977,3.471-3.607,5.666-4.847
			c0.798-0.45,1.829-0.67,2.487,0.219c0.567,0.768,0.727,1.951-0.095,2.495c-4.809,3.185-7.083,8.522-10.853,12.576
			c-0.812,0.376-1.001,1.837-2.317,1.345c-0.067-3.174,2.697-4.74,4.203-6.945c1.559-2.284,3.256-4.621,4.876-5.893
			c-3.377,3.544-6.604,8.22-10.072,12.709c-2.079,2.691-3.763,6.042-7.823,6.361C207.647,167.986,207.652,167.702,207.881,167.421z"
			/>
		<path fill="#161616" d="M210.638,350.458c-0.01-2.241,1.446-4.009,1.955-6.091c1.987-8.135,2.379-16.406,2.166-24.731
			c3.149-1.611-0.07-3.209-0.012-4.811c0.088-0.193,0.227-0.238,0.412-0.133c3.065-0.524,3.026,1.616,3.12,3.646l0.01-0.034
			c-0.892,3.492-0.438,7.09-0.856,10.62c-0.892,5.245-0.984,10.612-2.611,15.761c-0.859,2.716-1.663,5.407-3.3,7.772
			c-0.322,0.258-0.661,0.285-1.021,0.082C210.018,351.811,210.171,351.124,210.638,350.458z"/>
		<path fill="#222222" d="M123.007,170.981c0.012-0.431,0.023-0.862,0.037-1.293c3.312,1.544,5.782,4.24,8.571,6.471
			c1.751,1.401,3.438,1.937,5.571,1.775c3.738-0.282,7.46-0.002,11.164,0.548c1.235,0.392,3.01,0.474,2.51,2.387
			c-0.601,2.298-2.471,1.201-3.922,1.084l0.067-0.109c-3.33-0.72-6.702-0.133-10.043-0.321c-4.739-2.209-8.956-5.199-12.842-8.684
			C123.545,172.323,122.755,171.977,123.007,170.981z"/>
		<path fill="#333333" d="M204.438,317.457c-4.914,2.062-10.078,2.984-15.346,3.562c-9.403,1.032-18.834,0.587-28.256,0.664
			c-5.322,0.043-7.284,2.831-5.822,7.985c0.487,1.713,1.956,3.171,1.433,5.161c-1.354-1.608-1.875-3.618-2.471-5.541
			c-1.836-5.928,0.242-8.821,6.45-8.667c8.299,0.206,16.577,0.271,24.88-0.185C191.812,320.082,198.025,318.2,204.438,317.457z"/>
		<path fill="#232323" d="M101.774,190.8c-5.201-1.491-10.3-3.401-15.762-3.807c-1.352-0.101-2.704-0.299-4.057-0.284
			c-0.912,0.01-2.359-0.525-2.475,0.974c-0.103,1.347,1.304,0.836,2.075,1.109c0.396,0.139,0.724,0.471,1.08,0.715
			c-1.354,0.025-2.705,0.063-4.058,0.072c-1.282,0.01-1.832-0.784-1.889-1.934c-0.07-1.414,0.925-1.624,2.035-1.643
			c7.967-0.129,15.804,0.479,23.121,4.059C102.214,190.347,102.188,190.592,101.774,190.8z"/>
		<path fill="#1F1F1F" d="M229.798,175.706c-4.979-2.652-5.274-4.073-1.296-7.9c2.667-2.566,5.56-4.899,8.384-7.297
			c0.947-0.804,1.975-1.561,3.363-1.086c-3.742,3.171-7.438,6.388-11.076,9.684c-2.695,2.442-2.154,3.779,0.671,5.162
			C230.204,174.76,230.231,175.24,229.798,175.706z"/>
		<path fill="#3C3C3C" d="M158.044,206.531c-0.249-0.002-0.498-0.005-0.747-0.008c-1.323-1.593-1.176-3.62-1.579-5.477
			c-0.264-1.222-0.34-2.486-0.637-3.704c-0.296-1.219-0.548-2.583-1.96-2.969c-1.496-0.409-1.672,1.272-2.543,1.881
			c-0.135,0.062-0.276,0.103-0.423,0.12c-1.717-1.77-2.569-3.861-0.196-5.454c2.297-1.54,4.102,0.025,5.226,2.092
			C157.47,197.216,157.589,201.917,158.044,206.531z"/>
		<path fill="#1F1F1F" d="M206.491,145.447c-1.475,3.293-3.055,6.543-4.398,9.889c-1.69,4.214-3.178,8.508-4.776,12.761
			c-0.388,1.039-0.441,2.295-1.679,2.836c-0.195-0.146-0.268-0.3-0.22-0.466c0.05-0.169,0.104-0.254,0.164-0.254
			c2.449-8.292,5.56-16.318,9.559-23.991C205.539,145.875,205.734,145.168,206.491,145.447z"/>
		<path fill="#2A2A2A" d="M200.451,364.351c-7.825,3.748-15.449,3.975-22.761-1.298c-0.244-0.308-0.257-0.626-0.042-0.953
			c0.656-0.391,1.355-0.27,1.938,0.055c6.258,3.458,12.706,3.22,19.27,1.072c0.555-0.183,1.104-0.161,1.618,0.164
			C200.697,363.718,200.69,364.038,200.451,364.351z"/>
		<path fill="#232323" d="M220.236,172.235c4.163,2.305,8.765,3.974,11.668,8.097c-0.154,0.441-0.392,0.493-0.713,0.157
			c-7.329-6.733-15.963-9.638-25.859-8.836c-0.414,0.308-0.722,0.224-0.922-0.253c0.842-0.7,1.857-0.44,2.813-0.504
			c0.955-0.997,2.213-0.909,3.431-0.973c2.212,0.09,4.445-0.201,6.634,0.335C218.506,170.557,219.592,171.072,220.236,172.235z"/>
		<path fill="#282828" d="M211.292,352.482c3.576-7.343,4.692-15.27,5.517-23.266c0.704-0.094,1.102,0.08,0.771,0.888
			c-0.253,7.869-1.333,15.539-5.446,22.47C211.824,352.801,211.544,352.77,211.292,352.482z"/>
		<path fill="#272727" d="M240.753,156.517c-0.903,0.229-1.807,0.459-2.711,0.688c2.473-2.375,10.857-3.774,13.652-2.312
			c0.8,0.417,1.224,1.024,1.16,1.89c-0.1,1.361-1.186,1.616-2.209,1.594c-3.521-0.078-6.962,0.508-10.407,1.084
			c0.163-0.303,0.328-0.608,0.493-0.911c2.126-2.07,5.029-1.351,7.569-2.021C245.747,155.813,243.252,156.461,240.753,156.517z"/>
		<path fill="#232323" d="M103.927,198.439c1.39-4.039,5.024-6.01,8.035-8.465c4.114-3.354,8.404-6.562,13.918-7.339
			c-5.752,3.257-11.831,6.019-16.505,10.913C107.663,195.294,106.489,197.644,103.927,198.439z"/>
		<path fill="#262626" d="M195.582,170.212c0.019,0.24,0.036,0.48,0.055,0.72c-2.261,1.71-4.866,2.713-7.468,3.755
			c-1.165,0.465-3.038,1.095-2.311,2.611c0.557,1.155,1.956-0.23,2.927-0.614c1.139-0.449,2.171-1.229,3.502-0.87
			c-1.744,1.022-3.425,2.183-5.257,3.015c-1.158,0.527-2.809,1.075-3.572-0.51c-0.732-1.518,0.393-2.569,1.712-3.204
			C188.628,173.454,192.109,171.843,195.582,170.212z"/>
		<path fill="#232323" d="M235.963,158.646c-3.744,3.611-7.494,7.216-11.228,10.838c-0.716,0.693-1.598,0.798-2.506,0.882
			c-2.963,0.829-5.715-0.418-8.537-0.907c-0.638-0.11-1.258-0.532-0.983-1.421c0.974-0.605,1.938-0.213,2.901,0.023
			c0.229,0,0.5-0.083,0.676,0.012c5.445,2.987,8.913,0.253,12.366-3.803C230.607,161.977,232.376,158.999,235.963,158.646z"/>
		<path fill="#313131" d="M177.788,362.125c-0.032,0.311-0.065,0.619-0.099,0.928c-6.375-4.324-11.239-10.027-15.089-16.648
			c0.236-0.24,0.523-0.371,0.861-0.396C168.188,351.423,173.355,356.447,177.788,362.125z"/>
		<path fill="#232323" d="M82.572,189.485c6.161-0.566,11.948,1.017,17.577,3.242c3.542,1.4,3.583,1.894,1.347,5.009
			c-0.791,1.104-1.558,2.226-2.338,3.338c-0.382-0.225-0.447-0.52-0.197-0.886c0.332-0.716,0.601-1.471,1.007-2.143
			c2.156-3.573,2.135-3.486-1.593-5.04C93.304,190.896,87.896,190.399,82.572,189.485z"/>
		<path fill="#696969" d="M157.371,253.12c1.147,3.554,0.319,7.202,0.507,10.802c0.079,1.499-0.041,2.997,1.498,3.896
			c1.643,0.961,2.77-0.196,3.986-0.979c0.176,2.138-0.898,3.247-2.951,3.252c-2.342,0.004-3.127-1.612-3.136-3.641
			C157.255,262.008,157.334,257.562,157.371,253.12z"/>
		<path fill="#232323" d="M112.755,184.693c1.859-3.129-2.224-2.642-2.657-4.376c1.827,0.411,3.791,0.536,4.607,2.727
			c0.627,1.678,1.504,0.254,2.028-0.048c2.419-1.399,4.735-2.986,7.605-3.338c-3.638,2.778-7.862,4.558-11.738,6.93
			C112.149,185.915,112.242,185.287,112.755,184.693z"/>
		<path fill="#363636" d="M211.292,352.482c0.279,0.03,0.561,0.061,0.842,0.092c-2.59,5.224-6.44,9.19-11.683,11.777
			c-0.026-0.291-0.053-0.58-0.08-0.87c0.143-1.948,2.081-2.209,3.175-3.189c2.637-2.361,4.417-5.468,7.102-7.753
			C210.863,352.531,211.077,352.514,211.292,352.482z"/>
		<path fill="#232323" d="M136.009,181.166c3.654,0.403,7.404-0.751,10.995,0.677c-7.062,0.272-14.124,0.543-21.187,0.814
			c1.02-1.432,2.933-0.397,4.077-1.48C131.933,180.516,133.971,180.549,136.009,181.166z"/>
		<path fill="#EAEAEA" d="M219.71,112.618c0.238-3.454-0.644-6.492-3.297-8.865c-1.169-1.045-0.25-1.221,0.585-1.442
			c1.465,0.401,1.484,2.12,2.595,2.846c0.797,0.455,1.006,1.234,1.132,2.06c0.281,1.229,1.296,2.294,0.828,3.688
			c-0.806,0.664,0.261,1.649-0.39,2.344C220.677,113.039,220.192,112.828,219.71,112.618z"/>
		<path fill="#1F1F1F" d="M205.146,153.64c0.081-2.292,1.511-3.959,2.588-5.813c0.622-1.069,1.809-2.528-0.666-3.029
			c-0.385-1.754,0.929-1.977,1.967-1.737c1.901,0.439,1.263,1.954,0.966,3.227c-1.831,2.257-2.708,5.025-4.036,7.553
			C205.617,154.08,205.344,154.014,205.146,153.64z"/>
		<path fill="#464646" d="M215.61,168.063c-0.959,0.007-1.922,0.015-2.882,0.023c-0.535-0.089-0.874-0.38-0.958-0.933
			c1.115-2.27,2.402-4.377,5.008-5.212c0.742-0.414,1.483-0.829,2.226-1.244c-0.93,2.225-2.519,3.994-4.163,5.667
			C213.352,167.879,215.416,167.48,215.61,168.063z"/>
		<path fill="#252525" d="M200.437,168.854c-1.363-0.7-0.606-1.88-0.359-2.657c1.042-3.292,1.842-6.698,3.803-9.632
			c0.41,0.703,0.329,1.399-0.032,2.091C202.71,162.056,201.573,165.455,200.437,168.854z"/>
		<path fill="#252525" d="M163.444,346.319c-0.281,0.028-0.562,0.058-0.842,0.086c-2.019-2.651-3.698-5.492-4.777-8.663
			c-0.168-0.563-0.348-1.124,0.102-1.646c1.147,2.043,2.296,4.085,3.445,6.128C162.908,343.16,163.739,344.453,163.444,346.319z"/>
		<path fill="#5B5B5B" d="M229.798,175.706c0.014-0.479,0.029-0.958,0.046-1.438c2.985,1.779,5.777,3.775,7.58,6.866
			c-1.773,0.418-2.181-1.608-3.515-1.973C232.538,178.009,231.168,176.858,229.798,175.706z"/>
		<path fill="#929292" d="M229.835,105.075c-0.417-0.362-0.955-0.652-1.224-1.103c-0.422-0.706-1.173-1.517-0.039-2.297
			c0.853-0.586,1.481-0.15,2.019,0.48c0.646,0.756,1.239,1.556,1.855,2.338C232.074,106.936,230.683,104.78,229.835,105.075z"/>
		<path fill="#0C0C0C" d="M214.748,314.826c2.873,2.578,2.875,3.798,0.011,4.81c0.849-1.856,1.067-3.441-1.767-2.656
			c-1.154,0.322-1.176-0.832-1.899-0.896C212.312,315.664,213.528,315.244,214.748,314.826z"/>
		<path fill="#515151" d="M240.693,186.732c-0.212-0.249-0.424-0.5-0.637-0.749c-0.363-0.504-0.419-0.994,0.065-1.461
			c0.104,0.04,0.229,0.054,0.311,0.121c1.507,1.249,2.128,2.835,1.602,4.743c-0.255,0.926-1.126,1.024-1.919,0.905
			c-2.026-0.303-2.541-1.883-2.876-3.579c0.817-0.487,1.073,0.186,1.412,0.687l-0.007,0.007
			C240.419,188.284,240.497,188.257,240.693,186.732z"/>
		<path fill="#333333" d="M217.578,330.104c-0.255-0.296-0.513-0.591-0.771-0.888c0.455-3.642,0.104-7.394,1.481-10.912
			C218.17,322.245,218.535,326.215,217.578,330.104z"/>
		<path fill="#1D1D1D" d="M240.122,184.522c-0.021,0.487-0.042,0.974-0.064,1.461c-2.051-2.274-4.1-4.549-6.147-6.823
			c1.607-0.123,2.073,1.795,3.515,1.973C238.578,182.061,239.491,183.179,240.122,184.522z"/>
		<path fill="#A1A1A1" d="M220.312,112.606c0.178-0.7-1.063-1.283-0.164-2.04c0.425-0.291,0.631-1.066,1.384-0.629
			c0.387,0.538,0.921,1.025,1.124,1.625c0.305,0.905,0.863,2.165-0.159,2.743C220.855,115.231,221.05,113.193,220.312,112.606z"/>
		<path fill="#A2A2A2" d="M195.551,92.113c0.707,1.346,1.415,2.692,2.12,4.039c-0.988-0.63-1.947-0.921-3.101-0.249
			c-0.955,0.554-1.759,0.404-1.682-1.002C193.474,93.682,194.519,92.904,195.551,92.113z"/>
		<path fill="#6C6C6C" d="M210.001,146.286c-0.316-0.869,0.386-2.136-0.896-2.607c-1.007-0.371-1.693,0.128-2.036,1.118
			c-0.194,0.217-0.386,0.434-0.578,0.65c-0.45,0.257-0.9,0.516-1.351,0.773c-0.052-0.994,0.718-1.584,1.152-2.336
			c0.928-1.605,2.543-2.255,3.919-1.274C211.425,143.474,211.374,145.124,210.001,146.286z"/>
		<path fill="#646464" d="M112.755,184.693c-0.051,0.631-0.101,1.263-0.153,1.894c-1.369,1.248-2.75,2.477-4.682,2.77
			c0.397-1.873,4.132-1.788,2.754-4.704C111.369,184.666,112.062,184.68,112.755,184.693z"/>
		<path fill="#535353" d="M96.989,204.442c0.437,0.837-0.454,2.253,0.948,2.609c1.452,0.369,1.574-1.396,2.543-1.873
			c0.01,0.112,0.045,0.23,0.025,0.337c-0.321,1.704-0.688,3.831-2.978,3.071C95.332,207.858,96.131,205.979,96.989,204.442z"/>
		<path fill="#767676" d="M146.938,181.953c1.091-0.483,2.847,0.864,3.358-1.164c0.406-1.599-1.367-1.474-1.946-2.308
			c1.351-0.292,2.526-0.074,3.105,1.33c0.3,0.729,0.566,1.768-0.089,2.252C149.956,183.108,148.396,182.889,146.938,181.953z"/>
		<path fill="#B7B7B7" d="M104.776,199.082c1.814-1.63,3.632-3.26,5.448-4.891c-1.286,2.78-3.384,4.767-6.046,6.201
			C103.85,199.713,104.642,199.548,104.776,199.082z"/>
		<path fill="#EBEBEB" d="M195.551,92.113c0.129,1.904-1.57,2.054-2.662,2.787c-0.615-1.973,0.731-3.39,1.407-5
			C194.714,90.638,195.133,91.376,195.551,92.113z"/>
		<path fill="#262626" d="M192.23,175.845c2.335-2.141,5.094-3.277,8.244-3.484C197.976,174.111,195.086,174.938,192.23,175.845z"/>
		<path fill="#1D1D1D" d="M238.651,187.4c-0.472-0.229-0.942-0.459-1.412-0.688c-0.903-1.12-1.807-2.241-2.71-3.36
			c-0.228-0.486-1.12-0.714-0.577-1.498C236.657,182.734,237.667,185.057,238.651,187.4z"/>
		<path fill="#ADADAD" d="M198.313,100.146c0.279,0.266,0.56,0.53,0.84,0.795c-0.604,1.563-1.479,2.919-3.076,4.302
			C195.625,102.653,197.207,101.506,198.313,100.146z"/>
		<path fill="#333333" d="M218.279,318.338c-0.914-1.323-0.763-3.561-3.12-3.645c0.967-0.827,2.071-1.101,2.935-0.053
			C218.995,315.732,219.082,317.061,218.279,318.338z"/>
		<path fill="#4D4D4D" d="M203.847,158.657c0.012-0.697,0.021-1.395,0.031-2.092c0.431-0.971,0.24-2.212,1.269-2.924
			c0.273,0.065,0.547,0.131,0.817,0.198C205.686,155.634,204.887,157.197,203.847,158.657z"/>
		<path fill="#4F4F4F" d="M101.774,190.8c0.023-0.246,0.047-0.492,0.072-0.736c1.808,0.455,3.623,1.531,5.407-0.064
			C105.905,193.546,103.768,191.672,101.774,190.8z"/>
		<path fill="#252525" d="M207.881,167.421c0.015,0.253,0.029,0.506,0.043,0.76c-0.281,0.592-0.638,1.029-1.382,0.682
			c-1.669-0.032-3.339-0.064-5.008-0.098C203.521,167.708,205.842,168.227,207.881,167.421z"/>
		<path fill="#B0B0B0" d="M222.383,110.581c-0.462,0.209-0.923,0.419-1.384,0.629c0.379-1.447-0.551-2.706-0.588-4.094
			c0.183-0.305,0.38-0.316,0.593-0.03c0.208,0.256,0.415,0.513,0.624,0.769C221.879,108.763,222.132,109.673,222.383,110.581z"/>
		<path fill="#595959" d="M233.952,181.854c0.191,0.5,0.384,0.999,0.577,1.498c-1.498-0.502-2.6-1.471-3.338-2.863
			c0.237-0.052,0.474-0.104,0.713-0.156C232.587,180.839,233.269,181.348,233.952,181.854z"/>
		<path fill="#535353" d="M98.961,200.189c0.065,0.295,0.13,0.59,0.196,0.886c-0.879,1.027-0.923,2.594-2.172,3.384
			C97.046,202.758,97.684,201.324,98.961,200.189z"/>
		<path fill="#DCDCDC" d="M240.94,412.529c0.866-0.304,1.344-0.513,1.841-0.635c0.54-0.131,0.874,0.155,0.788,0.694
			c-0.101,0.654-0.596,0.947-1.215,0.782C241.973,413.271,241.646,412.962,240.94,412.529z"/>
		<path fill="#DDDDDD" d="M218.629,124.945c-1.291-1.034-1.078-1.904-0.672-2.94C218.757,122.791,219.174,123.543,218.629,124.945z"
			/>
		<path fill="#2C2526" d="M237.728,94.266c1.524,0.223,3.138,0.162,4.36,1.358C240.462,95.726,238.962,95.423,237.728,94.266z"/>
		<path fill="#252525" d="M204.41,171.4c0.308,0.084,0.613,0.169,0.922,0.253c-1.589,0.585-3.249,0.678-4.918,0.726
			C201.469,170.922,203.116,171.883,204.41,171.4z"/>
		<path fill="#D9D9D9" d="M223.858,119.465c-0.476,0.227-0.843,0.524-0.979,0.442c-0.349-0.212-0.767-0.556-0.844-0.914
			c-0.134-0.614,0.393-0.77,0.839-0.545C223.219,118.622,223.448,119.027,223.858,119.465z"/>
		<path fill="#333333" d="M157.927,336.096c-0.033,0.548-0.068,1.098-0.102,1.646c-0.861-0.797-1.335-1.776-1.397-2.952
			C156.928,335.226,157.427,335.66,157.927,336.096z"/>
		<path fill="#2C2526" d="M233.9,92.649c-1.866-0.073-3.337-1.907-5.376-1.204c-0.801,0.328-0.869-0.118-0.776-0.735
			c1.398-0.25,3.004,0.587,4.186-0.802c1.656,0.222,3.121,0.84,4.296,2.067C235.689,93.019,234.036,90.202,233.9,92.649z"/>
		<path fill="#2C2526" d="M236.646,92.07c3.154,0.733,6.258,1.808,9.578,1.434C242.755,94.877,239.579,94.277,236.646,92.07z"/>
		<path fill="#2A2425" d="M265.454,76.148c2.807,2.535,3.24,5.938,1.105,8.662c-2.017,2.575-6.437,3.215-9.225,1.336
			c-3.265-2.2-3.896-5.044-1.879-8.48c2.415-4.116,4.754-4.923,8.053-2.782c-0.571,1.101,1.432,1.904,0.354,3.068
			c-0.564,0.226-1.085,0.063-1.637-0.102c-2.296-0.688-4.088,0.25-4.495,2.417c-0.39,2.068,0.818,3.214,2.601,3.73
			c1.9,0.551,3.655-0.838,4.06-3.051c0.142-0.78-0.087-1.576,0.025-2.362C264.901,77.835,264.837,76.845,265.454,76.148z"/>
		<path fill="#292222" d="M284.545,74.333c0.59-0.229,0.881-1.087,1.71-0.818c1.301-0.333,2.6-0.459,3.896,0.026
			c0.608,0.266,1.244,0.485,1.825,0.806c6.256,3.46,6.372,4.49,1.107,9.607c-1.71,0.414-3.416,0.354-5.117-0.071
			c-2.198-0.928-4.396-1.9-5.435-4.261c-0.458-1.042-1.537-2.16-0.147-3.326C283.059,75.592,283.624,74.766,284.545,74.333z"/>
		<path fill="#2D2223" d="M286.548,64.015c-1.527-0.357-2.555-1.375-3.427-2.599c-0.649-2.038-0.434-3.972,0.69-5.797
			c0.512-1.199,1.641-1.812,2.514-2.672c1.652-0.77,3.321-1.411,5.166-0.641c1.651,1.101,4.735,1.038,4.479,3.734
			c-0.317,3.332-2.086,6.186-5.122,8.003C289.411,64.472,287.977,64.514,286.548,64.015z"/>
		<path fill="#191717" d="M265.454,76.148c0.197,0.931,1.071,2.109-0.83,2.271c-0.493,0.129-0.682-0.1-0.671-0.567
			c0.827-1.136-3.296-1.528-0.445-2.968C264.157,75.305,264.805,75.727,265.454,76.148z"/>
		<path fill="#22191A" d="M232.634,88.234c0.464-1.967,1.615-3.397,3.38-4.35C235.376,85.715,234.715,87.528,232.634,88.234z"/>
		<path fill="#2C2627" d="M283.812,55.619c-0.229,1.933-0.459,3.864-0.688,5.797C281.494,59.263,282.352,57.405,283.812,55.619z"/>
		<path fill="#2C2627" d="M291.491,52.306c-1.722,0.214-3.443,0.427-5.166,0.64C287.91,51.629,289.606,51.214,291.491,52.306z"/>
		<path fill="#2D2627" d="M287.968,83.883c1.706,0.024,3.41,0.047,5.116,0.071C291.366,84.857,289.66,84.902,287.968,83.883z"/>
		<path fill="#2C2627" d="M286.548,64.015c1.434,0.009,2.867,0.019,4.299,0.028C289.406,65.102,287.976,64.769,286.548,64.015z"/>
		<path fill="#2D2627" d="M284.545,74.333c-0.507,0.891-1.134,1.647-2.16,1.962C282.781,75.285,283.225,74.324,284.545,74.333z"/>
		<path fill="#2D2627" d="M290.151,73.541c-1.299-0.009-2.596-0.018-3.896-0.027C287.558,72.896,288.856,72.743,290.151,73.541z"/>
		<path fill="#747474" d="M246.956,68.819c-1.604-0.622-2.214-2.742-4.195-2.791c-0.851-2.251,0.698-4.568-0.192-6.82
			c0.401-0.966,1.073-1.571,2.159-1.622c1.145,0.478,2.557-0.087,3.57,0.913l-0.004-0.002c0.822,0.729-1.411,2.399,0.826,2.693
			c0.878,1.005,2.52,0.817,3.234,2.077C247.862,62.492,248.605,66.821,246.956,68.819z"/>
		<path fill="#868686" d="M248.298,58.499c-1.085-0.622-2.721,1.336-3.495-0.746c-0.671-0.819-0.408-1.699-0.171-2.581
			c0.185-0.25,0.423-0.432,0.711-0.547c0.297-0.078,0.599-0.102,0.905-0.083c0.301,0.05,0.585,0.155,0.851,0.303
			c0.912,0.511,0.794,1.534,1.149,2.322C248.265,57.611,248.282,58.054,248.298,58.499z"/>
		<path fill="#EEEEEE" d="M247.555,55.255c-0.185-0.045-0.371-0.082-0.561-0.107c0.725-2.056,2.671-3.354,3.354-5.434
			c1.402,0.723-0.238,3.28,2.076,3.454c0.215,1.191-0.657,1.582-1.479,2.009c-0.233,0.033-0.468,0.066-0.701,0.1
			C249.343,55.854,248.446,55.799,247.555,55.255z"/>
		<path fill="#A9A9A9" d="M250.264,55.061c-0.09-1.099,0.978-1.345,1.477-2.01c0.812,0.123,2.128-0.516,2.321,0.536
			c0.316,1.725-1.84,1.114-2.491,2.063C251.022,55.702,250.575,55.531,250.264,55.061z"/>
		<path fill="#BDBDBD" d="M247.555,55.254c0.897,0.008,1.794,0.015,2.689,0.021c-0.438,0.669-0.874,1.337-1.311,2.007
			C248.473,56.607,248.015,55.93,247.555,55.254z"/>
		<path fill="#868686" d="M249.12,61.189c-2.419-0.237-1.951-1.364-0.826-2.693C249.282,59.174,248.783,60.311,249.12,61.189z"/>
		<path fill="#F8B8BD" d="M207.251,84.662c-0.156-1.941,1.361-2.482,2.826-3.098c0.646,0.259,0.49,1.355,1.188,1.115
			c0.777-0.267,0.18-1.208,0.238-1.852c-0.01-0.52,0.109-1.001,0.377-1.448c2.214-2.557,5.338-3.138,8.397-3.706
			c1.634-0.304,3.303-0.522,4.955-0.747c2.366-0.199,5.145,0.804,6.524-2.268c2.364-1.475,2.435,0.366,2.724,1.889
			c-0.044,1.724,1.617,3.44,0.023,5.17c-0.799,1.11,0.09,2.447-0.481,3.587c-0.52,0.614-1.04,1.228-1.559,1.841
			c-0.715,0.946-1.733,1.577-2.52,2.447c-0.933,0.571-0.937,1.774-1.514,3l0.048-0.058c-4.067,2.782-8.409,1.917-12.646,0.552
			c-2.562-0.825-5.018-2.068-7.197-3.741C207.812,86.638,207.155,85.845,207.251,84.662z"/>
		<path fill="#3A3A3A" d="M233.798,74.431c-0.814-0.593-0.726-2.773-2.608-1.49c-0.422-0.783,0.21-2.08-1.175-2.395
			c-1.181-0.899-2.093-2.015-2.78-3.324c-1.124-3.123-0.488-6.734-2.669-9.562c-0.35-0.591-0.637-1.204-0.587-1.916
			c0.036-0.105,0.077-0.306,0.111-0.304c3.53,0.132,6.512-1.806,9.796-2.592c0.492,3.912,3.939,3.702,6.531,4.638
			c0.81,0.293,1.806-0.25,2.6,0.404c0.22,0.496,0.147,0.952-0.18,1.375c2.229,2.279,0.086,4.51-0.075,6.762
			c-1.069,0.707-0.468,1.825-0.673,2.744c-2.203,1.413-0.278,3.825-1.33,5.517c-1.132-1.184-2.034-2.451-3.798-3.082
			c-2.4-0.86-1.577,0.706-1.687,1.697C233.419,72.09,234.113,73.75,233.798,74.431z"/>
		<path fill="#211C1C" d="M208.155,86.524c2.618,1.303,5.163,2.792,7.873,3.865c3.877,1.534,7.779,0.81,11.602-0.499
			c0.041,0.273,0.08,0.546,0.118,0.818c0.259,0.245,0.518,0.49,0.776,0.734c-0.265,0.207-0.529,0.413-0.795,0.619
			c-1.428,1.01-3.213,0.807-4.762,1.41v0c-6.404,0.379-11.871-1.831-16.602-6.056C206.714,86.618,207.224,86.148,208.155,86.524z"/>
		<path fill="#22191A" d="M229.112,87.293c0.629-1.062,1.526-1.807,2.666-2.265c-0.283,1.077-0.618,2.11-1.922,2.353
			C229.578,87.611,229.33,87.582,229.112,87.293z"/>
		<path fill="#211C1C" d="M229.112,87.293c0.248,0.029,0.496,0.058,0.744,0.087c-0.803,0.817-1.132,2.054-2.275,2.568
			C228.007,89.016,227.803,87.717,229.112,87.293z"/>
		<path fill="#3B2B2D" d="M233.34,83.189c0.427-1.16-1.552-2.644,0.48-3.587C233.796,80.815,234.461,82.122,233.34,83.189z"/>
		<path fill="#929292" d="M243.454,73.303c-2.126-0.331-1.742-1.734-1.338-3.147C243.021,71.009,243.1,72.215,243.454,73.303z"/>
		<path fill="#272223" d="M159.321,44.182c3.142,0.556,7.102,5.505,7.258,9.071c0.165,3.758-3.255,8.505-6.741,9.324
			c-1.128,0.264-2.254,0.26-3.31-0.327c-2.501-1.388-4.854-2.965-6.465-5.406c-1.91-2.897-2.938-5.931-1.003-9.241
			c1.858-3.177,4.828-3.862,8.211-3.544c0.039,1.781-1.071,0.744-1.687,0.981c0.57,0.61,2.079-0.563,2.51,0.832
			c-0.731,1.36-2.16,1.058-3.319,1.352c-2.502,0.636-3.601,2.24-3.4,4.763c0.201,2.526,4.035,6.929,6.458,7.375
			c2.613,0.481,3.612-1.569,4.642-3.28c1.187-1.973,0.881-3.894-0.779-5.602c-1.312-1.349-3.458-1.901-3.913-4.073
			c1.07-1.484,2.219,0.04,3.33-0.065C160.448,45.66,159.146,45.542,159.321,44.182z"/>
		<path fill="#282424" d="M190.218,29.75c0.633,5.426-2.327,9.001-6.396,11.765c-2.453,1.667-5.106,1.398-7.624-0.42
			c-3.651-2.638-5.414-6.313-5.032-10.591c0.393-4.414,3.115-7.787,6.898-10.007c1.874-1.099,4.096-1.325,6.045,0.26
			c-1.294,1.208-2.88-0.096-4.217,0.493c0.961,0.083,2.142-0.668,2.839,0.672c-2.588,1.661-5.636,2.563-7.161,5.771
			c-1.678,3.533-1.181,7.71,1.826,10.216c1.954,1.629,4.022,1.481,5.974,0.111c2.599-1.825,3.766-4.415,3.855-7.612
			c0.039-1.451-0.632-3.29,1.366-4.156c1.825,2.187,0.008,4.375,0.312,6.455C190.049,32.278,187.907,29.831,190.218,29.75z"/>
		<path fill="#2A2525" d="M197.633,59.939c1.771,1.929,2.645,4.312,2.381,6.811c-0.347,3.301-2.059,6.238-4.961,7.753
			c-2.67,1.394-4.574-1.202-6.534-2.61c-1.181-0.849-2.237-1.927-3.184-3.042c-4.336-5.113-2.911-9.94,3.6-11.292
			c1.783-0.371,3.216-2.743,5.387-1.16c-0.636,1.748-2.201,1.583-3.542,1.779c0.726,0.206,1.888-0.552,2.221,0.854
			c-0.883,1.278-2.397,1.137-3.638,1.595c-3.316,1.224-3.865,3.093-1.674,5.942c0.623,0.811,1.254,1.63,2.026,2.298
			c1.327,1.149,2.622,3.095,4.616,1.736c1.855-1.266,2.68-3.325,2.232-5.703c-0.27-1.44-1.419-2.632-1.171-4.212
			C195.863,59.613,197.195,61.125,197.633,59.939z"/>
		<path fill="#1F1A1A" d="M225.008,75.588c-4.707,0.905-9.719,0.823-13.637,4.258c-0.855-0.585-1.154-1.77-2.251-2.095
			c-1.366-4.042-2.564-8.128-3.29-12.342c-0.789-2.949-0.965-6.062-2.337-8.855c-0.784-0.823-0.396-1.822-0.415-2.76
			c-0.393-2.106-0.81-4.208-1.396-6.27c-0.854-0.927-0.801-2.057-0.713-3.195c-0.265-1.251-0.771-2.424-1.184-3.627
			c-0.028-0.233-0.055-0.467-0.083-0.7c0.254-0.342,0.305-0.851,0.81-0.987c1.774,2.075,1.429,4.917,2.596,7.212
			c0.562,2.035,0.789,4.152,1.488,6.154c0.001,0.845,0.002,1.692,0.004,2.538c0.743,0.913,1.228,2.009,2.021,2.89
			c1.991,4.467,2.463,9.358,3.894,13.979c1.245,3.685,1.252,3.7,5.073,2.223c1.37-0.527,2.843-0.583,4.226-1.045
			c1.137-0.226,2.269-0.326,3.379,0.119c0.35,0.823,0.722,1.625,1.798,1.682C225.201,75.04,225.215,75.312,225.008,75.588z"/>
		<path fill="#211D1E" d="M182.59,22.034c-0.933-0.986-2.348-0.248-3.366-1.276c1.627,0,3.256,0,4.885,0
			c3.071,0.246,4.189,2.599,5.314,4.945c0.864,0.957-0.275,2.403,0.802,3.307c0.074,0.177,0.17,0.348,0.21,0.532
			c0.013,0.051-0.14,0.139-0.217,0.209c-1.383,0.749-0.365,2.281-1.077,3.323c-1.256-2.074,0.784-4.729-1.255-6.585
			c-0.246-0.146-0.47-0.32-0.675-0.519c-0.632-0.609-1.424-0.958-2.193-1.348C183.989,23.964,182.745,23.508,182.59,22.034z"/>
		<path fill="#211B1B" d="M192.849,59.203c-0.665-1.052-1.895-0.495-3.541-1.118c2.307-0.2,3.635-1.002,5.013-1.688
			c2.006,0.334,2.345,2.235,3.312,3.542c0.169,2.931-1.427,0.096-1.997,0.614C194.229,61.091,193.42,60.392,192.849,59.203z"/>
		<path fill="#1B1818" d="M159.321,44.182c0.977,1.336,4.175,1.55,3.44,3.017c-0.845,1.691-2.659-0.879-4.206-0.948
			c-0.225-0.01-0.448-0.021-0.672-0.031l0.025,0.014c-0.591-1.159-1.81-0.572-2.764-0.906c0.516-0.885,1.806-0.258,2.126-1.269
			C157.973,43.801,158.655,43.848,159.321,44.182z"/>
		<path fill="#080506" d="M209.12,77.751c2.34-1.015,2.068,0.785,2.251,2.095c0.017,0.422,0.034,0.845,0.052,1.268
			c-0.113,0.655,0.359,1.732-0.88,1.65c-1.45-0.097-0.528-1.674-1.239-2.285c-0.797-0.722,0.25-1.585-0.18-2.335
			C209.011,78.013,209.009,77.883,209.12,77.751z"/>
		<path fill="#252525" d="M200.513,39.015c-0.271,0.329-0.54,0.659-0.81,0.987c-0.36-0.583-0.989-1.055-0.778-1.875
			c0.557-2.523-1.37-4.591-1.286-7.028c0.462,0.457,0.925,0.914,1.386,1.37C199.274,34.708,200.946,36.622,200.513,39.015z"/>
		<path fill="#2D2627" d="M203.493,56.554c1.935,2.645,2.179,5.739,2.337,8.855C204.495,62.605,204.032,59.568,203.493,56.554z"/>
		<path fill="#2D2627" d="M201.683,47.524c1.259,1.913,1.578,4.035,1.396,6.269C202.222,51.791,201.751,49.703,201.683,47.524z"/>
		<path fill="#2D2627" d="M199.785,40.702c1.026,1.002,1.419,2.212,1.185,3.627C200.164,43.254,199.77,42.046,199.785,40.702z"/>
		<path fill="#282424" d="M190.225,29.008c-1.312-0.847-0.631-2.181-0.802-3.308C190.51,26.604,190.293,27.825,190.225,29.008z"/>
		<path fill="#110F0F" d="M208.155,86.524c-0.597,0.298-1.191,0.595-1.789,0.892c-1.611-0.864-3.222-1.729-4.535-3.038
			c1.6-0.59,3.208-1.323,4.736,0.167C207.097,85.206,207.625,85.865,208.155,86.524z"/>
		<path fill="#4B3839" d="M209.304,80.479c0.854-0.285,0.529,3.383,2.119,0.635c0.955,1.388,0.347,2.697-0.964,2.791
			c-1.548,0.109-1.04-1.609-1.23-2.623C209.253,81.014,209.278,80.746,209.304,80.479z"/>
		<path fill="#999999" d="M226.284,44.775c0.1-0.849-0.33-1.514-0.718-2.214c-2.152-3.886-1.683-6.813,1.436-9.135
			c3.921-2.92,7.27-2.811,10.55,0.314c0.832,0.794,1.623,1.594,1.865,2.776c0.216,0.241,0.284,0.514,0.181,0.824
			c-0.19,0.292-0.585,0.714-0.749,0.607c-1.289-0.838-1.12,0.61-1.62,0.984c-2.763,1.231-3.883,4.243-6.311,5.845
			C229.372,44.981,227.826,45.529,226.284,44.775z"/>
		<path fill="#858585" d="M226.284,44.775c1.552-0.84,3.238-0.662,4.903-0.647c1.844,1.43,2.862,2.743-0.557,3.235
			c-2.974,0.428-1.282,3.133-2.258,4.526c-1.438,0.479-3.131,0.332-4.218,1.707c-0.737,0.146-1.421,0.044-2.032-0.418
			c-0.388-0.453-0.565-0.99-0.643-1.568c-0.067-0.997,0.134-1.917,0.79-2.702C223.249,47.181,224.744,45.957,226.284,44.775z"/>
		<path fill="#AAAAAA" d="M239.418,37.18c-0.016-0.221-0.016-0.442-0.001-0.666c0.845,0.45,1.69,0.901,2.534,1.351
			c2.606-0.966,4.064,0.205,4.229,3.394c1.815,2.505-1.081,6.985,3.482,8.338c0.82,3.01-1.477,4.09-3.351,5.433
			c-0.261-0.011-0.521-0.02-0.781-0.031c-1.067-0.446-1.363-1.321-0.792-2.204c0.96-1.479,0.722-3.041,0.646-4.616
			c0.309-2.681-0.939-4.698-2.758-6.47C241.835,40.001,239.963,39.06,239.418,37.18z"/>
		<path fill="#606060" d="M222.312,52.909c0.67,0.042,1.344,0.081,2.015,0.122c-0.046,0.915-0.657,1.824-0.023,2.745
			c0.234,0.457,0.467,0.913,0.701,1.369c0.314,0.77-0.237,1.072-0.77,1.04c-1.955-0.122-3.624,0.759-5.372,1.388
			c-0.335,0.054-0.67,0.06-1.007,0.022c-1.009-0.182-2.042-0.334-2.955-0.805c-2.106-1.081-4.194-1.7-6.504-0.536
			c-0.864,0.436-1.782,0.13-2.583-0.402c-0.641-0.879-1.169-1.806-1.215-2.932c1.279,0.996,2.235,1.814,4.276,0.809
			c1.72-0.847,4.122-0.074,5.973,1.129c2.16,1.409,3.356,1.037,3.287-1.748c0.362-1.629,2.116-0.227,2.741-1.273
			C221.353,53.524,221.766,53.112,222.312,52.909z"/>
		<path fill="#BDBDBD" d="M246.862,41.375c-1.068-1.555-1.461-3.955-4.227-3.394c0.472-1.813,1.714-2.599,3.482-2.305
			c1.265,0.21,2.31,1.006,2.665,2.303C249.249,39.674,248.439,40.773,246.862,41.375z"/>
		<path fill="#989898" d="M221.612,54.402c-1.073,0.656-2.184,1.134-3.477,0.708c-0.021-2.123,0.641-4.444-1.932-5.982
			c2.198,0.633,4.224,1.892,6.067-0.219c0,0.934-0.001,1.867-0.001,2.801C220.609,52.254,222.505,53.67,221.612,54.402z"/>
		<path fill="#2D2627" d="M204.597,52.382c-1.229-1.874-1.618-3.952-1.488-6.154C204.146,48.147,204.655,50.195,204.597,52.382z"/>
		<path fill="#E9E9E9" d="M219.749,44.74c-0.213-0.313-0.585-0.639-0.652-1.018c-0.074-0.418,0.364-0.488,0.621-0.247
			c0.309,0.289,0.509,0.691,0.757,1.044C220.278,44.581,220.082,44.64,219.749,44.74z"/>
		<path fill="#151515" d="M163.444,346.319c-0.691-1.365-1.382-2.729-2.072-4.095c0-0.684,0-1.365-0.002-2.048
			c1.582,0.237,1.449,1.837,1.981,2.773c3.132,5.519,8.268,9.167,12.519,13.616c1.308,1.369,2.227,3.067,3.892,4.205
			c6.861,4.69,16.886,3.122,23.279-2.523c2.777-2.452,4.233-6.054,7.598-7.79c0.004,0.693,0.006,1.386,0.009,2.079
			c-2.317,4.691-5.895,8.194-10.276,10.944c-7.746,3.227-15.296,3.117-22.582-1.356C172.326,357.476,167.48,352.267,163.444,346.319
			z"/>
		<path fill="#999999" d="M220.154,106.443l-0.296,0.031h-0.297c-0.273-0.654-0.546-1.307-0.82-1.959
			c0.472-0.263,0.941-0.525,1.412-0.788C220.154,104.632,220.154,105.537,220.154,106.443z"/>
		<path fill="#141414" d="M194.926,221.591c-1.399-11.44-2.418-22.939-5.164-34.17c-0.368-1.512-0.174-2.478,1.458-2.764
			c1.554-0.271,2.018,0.452,2.391,2.002c2.851,11.885,4.654,23.912,5.518,36.103c0.119,1.656,0.585,3.327,0.571,5.033
			c0.82,1.292-0.169,2.866,0.645,4.159c-0.586,1.817,0.341,3.621,0.045,5.437c0.808,1.296-0.168,2.865,0.635,4.161
			c0.015,2.27,0.03,4.536,0.046,6.804c0.846,1.53-0.201,3.314,0.642,4.845c-0.599,1.814,0.349,3.619,0.036,5.432
			c0.886,1.765-0.225,3.765,0.651,5.531c-0.584,1.815,0.339,3.622,0.038,5.438c0.493,1.143,0.52,2.282-0.019,3.419l0.008-0.008
			c-1.133,0.542-2.271,0.503-3.411,0.026c-1.09-2.204-0.779-4.552-0.705-6.876c-0.809-1.296,0.17-2.865-0.638-4.16
			c-0.014-2.267-0.027-4.533-0.042-6.8c-0.86-1.998,0.224-4.2-0.652-6.195c-0.012-1.818-0.021-3.638-0.034-5.457
			c-0.812-1.292,0.167-2.857-0.636-4.149c-0.014-1.815-0.029-3.63-0.044-5.444c-0.822-1.289,0.167-2.858-0.642-4.15
			c-0.013-1.356-0.026-2.715-0.04-4.073C194.746,224.449,195.759,222.873,194.926,221.591z"/>
		<path fill="#282828" d="M196.978,249.006c1.287,1.953,0.392,4.134,0.651,6.195C196.301,253.253,197.226,251.068,196.978,249.006z"
			/>
		<path fill="#2C2C2C" d="M202.399,264.161c-1.266-1.719-0.393-3.692-0.652-5.53C203.101,260.34,202.153,262.322,202.399,264.161z"
			/>
		<path fill="#2C2C2C" d="M201.712,253.199c-1.207-1.482-0.428-3.23-0.643-4.844C202.359,249.827,201.505,251.584,201.712,253.199z"
			/>
		<path fill="#282828" d="M194.926,221.591c1.166,1.229,0.467,2.757,0.656,4.142C194.371,224.51,195.104,222.979,194.926,221.591z"
			/>
		<path fill="#2C2C2C" d="M200.344,231.954c-1.138-1.243-0.464-2.77-0.645-4.161C200.923,229.024,200.176,230.561,200.344,231.954z"
			/>
		<path fill="#282828" d="M195.621,229.806c1.146,1.239,0.464,2.762,0.642,4.15C195.058,232.726,195.782,231.198,195.621,229.806z"
			/>
		<path fill="#2C2C2C" d="M201.024,241.552c-1.128-1.247-0.464-2.769-0.635-4.161C201.604,238.624,200.862,240.156,201.024,241.552z
			"/>
		<path fill="#282828" d="M196.307,239.4c1.141,1.241,0.461,2.761,0.636,4.149C195.741,242.318,196.464,240.792,196.307,239.4z"/>
		<path fill="#2C2C2C" d="M197.672,262.002c1.132,1.244,0.47,2.767,0.638,4.16C197.095,264.93,197.837,263.395,197.672,262.002z"/>
		<path fill="#2C2C2C" d="M202.418,273.019c0.006-1.14,0.012-2.279,0.019-3.42C203.433,270.745,203.454,271.885,202.418,273.019z"/>
		<path fill="#2C2C2C" d="M199.014,273.038c1.137-0.01,2.274-0.018,3.412-0.025C201.296,274.05,200.16,274.029,199.014,273.038z"/>
		<path fill="#0D0D0D" d="M136.009,181.166c-2.036,0.829-4.074,0.813-6.114,0.011c-0.452-0.679-0.906-1.358-1.36-2.036
			c-0.07-3.676-3.527-4.41-5.63-6.154c-3.622-3.004-7.644-5.525-11.496-8.248c-0.006-1.157,0.556-1.173,1.37-0.686
			c3.409,2.309,6.818,4.617,10.229,6.926c3.92,2.934,7.039,7.059,12.175,8.189C136.361,179.429,136.624,180.13,136.009,181.166z"/>
		<path fill="#7F7F7F" d="M222.967,93.473c1.43-1.007,3.118-1.137,4.763-1.41C226.45,93.575,224.71,93.525,222.967,93.473z"/>
		<path fill="#161616" d="M150.578,196.253c-0.384-1.785,0.446-3.009,2.095-3.246c1.63-0.235,2.48,1.25,2.75,2.529
			c0.768,3.632,1.269,7.32,1.874,10.986c1.217,8.619,2.32,17.258,3.707,25.85c0.508,3.146,0.73,6.36,0.84,9.456
			c0.25,7.035,1.298,14.046,0.882,21.109c-0.088,1.511,0.072,3.198-2.111,3.141c-2.176-0.058-1.975-1.78-1.986-3.264
			c-0.156-18.059-1.953-35.949-5.316-53.695C152.493,204.806,152.688,200.291,150.578,196.253z"/>
		<path fill="#0F0F0F" d="M206.542,168.864c0.461-0.228,0.922-0.455,1.382-0.682c5.229-2.758,7.961-7.89,11.522-12.22
			c2.47-3.006,4.7-6.216,7.984-8.477c-3.501,4.869-7.666,9.228-10.651,14.457c-1.89,1.569-3.336,3.526-4.753,5.504
			c0.911,1.697,0.08,2.685-1.384,3.418c-1.14,0.011-2.278,0.021-3.419,0.032C206.997,170.218,206.771,169.541,206.542,168.864z"/>
		<path fill="#1F1F1F" d="M240.753,156.517c2.422-1.501,5.118-1.399,7.806-1.337c0.843,0.018,1.617,0.172,1.67,1.232
			c0.062,1.287-0.841,1.422-1.807,1.438c-2.581,0.042-5.188-0.207-7.69,0.7C240.554,157.871,242.848,157.216,240.753,156.517z"/>
		<path fill="#131313" d="M210.643,170.864c0.673-1.053,1.634-1.99,1.384-3.418c0.234,0.214,0.468,0.428,0.702,0.642
			c3.074,1.152,6.306,1.639,9.501,2.28c-0.561,0.735-2.101,0.421-1.992,1.869C217.205,170.607,213.903,170.875,210.643,170.864z"/>
		<path fill="#1D1D1D" d="M240.693,186.732c0.841,0.641,0.925,1.387-0.066,1.813c-0.968,0.416-1.788,0.057-1.981-1.14
			C239.366,187.3,240.193,187.511,240.693,186.732z"/>
		<path fill="#1C1C1C" d="M112.779,164.053c-0.562,0.017-1.075,0.133-1.37,0.686c-3.094-0.451-5.23-3.112-8.318-3.609
			c-0.528-0.085-1.127-0.551-0.891-1.211c0.367-1.02,1.407-0.795,2.037-0.567C107.319,160.469,110.306,161.81,112.779,164.053z"/>
		<path fill="#FAFAFA" d="M264.803,78.495c0.223,0.189,0.445,0.378,0.67,0.567c1.671,2.291,1.091,4.47-1.002,5.829
			c-1.975,1.283-4.253,1.298-6.062-0.837c-2.152-2.54-0.369-4.372,1.033-6.253c1.587-2.134,3.029-1.095,4.443,0.289
			C264.109,78.309,264.493,78.364,264.803,78.495z"/>
		<path fill="#FAFAFA" d="M294.952,79.106c-0.556,3.68-3.729,5.211-6.663,3.154c-1.059-0.742-1.97-1.696-2.949-2.553
			c-0.051-3.47,2.852-5.13,6.288-3.411C292.891,76.928,294.327,77.602,294.952,79.106z"/>
		<path fill="#2D2627" d="M294.103,78.462c-1.833-1.385-3.449-3.193-6.056-3.047c-2.308,0.129-3.878,0.958-3.556,3.648
			c-1.315-1.551-0.512-2.758,0.779-3.648C288.008,73.531,292.606,75.168,294.103,78.462z"/>
		<path fill="#F9F9F9" d="M287.456,62.611c-0.441-0.236-0.884-0.472-1.324-0.708c-1.999-2.114-0.384-3.772,0.69-5.499
			c2.448-2.443,4.87-2.208,7.272,0.073c0.72,1.127,1.027,2.233-0.15,3.271c-0.511,0.231-0.621,0.616-0.431,1.117
			C291.926,62.95,290.062,64.071,287.456,62.611z"/>
		<path fill="#2C2627" d="M286.606,61.967c2.41,0.782,4.349-0.09,6.059-1.744C290.695,63.564,289.639,63.869,286.606,61.967z"/>
		<path fill="#2C2627" d="M285.974,55.76c-0.554,1.793-2.008,3.471-0.691,5.499C282.509,59.047,284.161,57.394,285.974,55.76z"/>
		<path fill="#2C2627" d="M293.095,59.105c0.325-1.078,0.641-2.156,0.151-3.271C294.55,56.987,294.688,58.087,293.095,59.105z"/>
		<path fill="#3E3E3E" d="M242.837,59.266c-0.013-0.485-0.026-0.969-0.04-1.455c-0.135-0.987,0.014-2.064-0.893-2.809
			c-0.151-0.987,0.102-1.87,0.693-2.664c0.272-0.182,0.569-0.238,0.89-0.171c0.956,0.735,0.877,1.962,1.376,2.915
			c0.636,0.905,0.043,1.785-0.06,2.672C244.148,58.257,243.493,58.761,242.837,59.266z"/>
		<path fill="#A5A5A5" d="M244.863,55.081c-0.839-0.723-1.231-1.671-1.389-2.74c0.812-1.48,0.846-3.434,2.625-4.325
			c1.502,2.467-1.485,4.567-0.567,6.984C245.307,55.016,245.084,55.043,244.863,55.081z"/>
		<path fill="#302626" d="M225.008,75.588c0.005-0.2,0.015-0.399,0.026-0.599c0.536-0.746,1.377-0.708,2.152-0.84
			c1.621-0.276,1.062-1.069,0.439-1.877c-0.104-0.5,0.119-0.853,0.504-1.132c0.723-0.511,1.709-0.375,2.398-0.973
			c3.6,0.116,0.851,1.751,0.662,2.774c-0.158,1.924-0.76,3.222-3.127,2.671C227.095,75.388,226.029,75.583,225.008,75.588z"/>
		<path fill="#505050" d="M218.854,59.302c1.527-2.213,3.998-1.733,6.151-2.158c2.972,2.888,2.172,6.783,2.741,10.312
			c0.85,1.383-0.233,1.779-1.146,2.263c-0.321,0.061-0.64,0.023-0.94-0.105c-1.132,0.234,0.927-1.793-0.855-1.186
			c-1.092,0.372-2.172-0.157-3.249-0.358c-0.737-0.21-1.433-0.5-1.989-1.049c-0.417-0.827-0.267-1.696-0.187-2.562
			C219.911,62.667,218.418,61.082,218.854,59.302z"/>
		<path fill="#2D2D2D" d="M242.119,55.086c2.78,0.272,1.331,1.597,0.678,2.725c-3.291,1.815-5.868-0.681-8.631-1.602
			c-1.415-0.472-0.881-2.055-0.279-3.208c0.562-1.813,0.585-3.609,0.069-5.462c-0.328-1.171-0.282-2.413,0.33-3.551
			c0.576-0.728,1.267-1.137,2.221-0.81c-0.256,3.529,2.095,6.317,2.744,9.585C239.521,54.387,241.355,54.077,242.119,55.086z"/>
		<path fill="#505050" d="M234.62,44.129c-0.246,1.925,0.029,3.836,0.707,5.593c0.674,1.755-0.031,2.597-1.44,3.28
			c-0.218,0.041-0.526,0.003-0.642,0.134c-2.429,2.774-5.508,3.3-8.941,2.64c-1.331-0.927-1.022-1.839,0.023-2.745
			c0.789-2.101,2.604-1.232,4.056-1.407c0.217-0.213,0.478-0.318,0.781-0.318c0.642-0.101,1.441,0.576,1.898-0.318
			c0.121-0.243-0.297-0.481-0.566-0.644c-0.759-0.898-0.783-2.605-0.061-2.586c2.872,0.074,2.13-2.612,3.305-3.747
			C234.054,43.905,234.348,43.938,234.62,44.129z"/>
		<path fill="#595959" d="M226.366,69.572c0.343-0.783,1.479-1.044,1.38-2.116c1.384,0.435,1.739,1.925,2.781,2.711
			c-0.188,1.411-1.2,1.344-2.23,1.248C227.296,71.178,226.148,71.093,226.366,69.572z"/>
		<path fill="#FDFDFD" d="M158.146,46.221c1.063,0.83,1.836,1.701,2.934,2.483c5.503,3.922,2.954,8.157-0.576,11.085
			c-0.412,0.34-0.993,0.594-1.522,0.653c-4.116,0.459-9.944-7.383-8.258-11.128c1.436-3.187,4.278-3.249,7.186-3.079L158.146,46.221
			z"/>
		<path fill="#FDFDFD" d="M182.852,22.034c0.935,0.736,2.104,1.471,3.037,2.208c0.687,0.912,1.928,0.928,2.382,2.358l0.414-0.112
			c0.535,4.601-0.209,8.789-4.149,12.022c-2.856,2.346-5.603,2.41-8.026-0.319c-2.359-2.656-3.955-5.874-2.308-9.308
			C175.89,25.368,177.81,21.559,182.852,22.034z"/>
		<path fill="#FCFCFC" d="M192.849,59.203c0.929,0.449,1.857,0.899,2.787,1.35c2.018,3.411,3.166,6.74,0.094,10.301
			c-1.268,1.471-2.193,2.058-3.92,0.798c-1.946-1.416-3.693-3.009-5.119-4.922c-2.658-3.562-1.616-6.156,2.798-7.063
			C190.593,59.441,191.728,59.354,192.849,59.203z"/>
		<path fill="#4C4C4C" d="M219.536,64.69c0.482,0.716,0.322,1.453,0.069,2.191c0.726,1.599-0.446,2.478-1.31,3.475
			c-3.065-0.581-5.739,0.597-8.384,1.899c-1.364-4.801-2.729-9.603-4.096-14.403c0.679-0.043,1.562,0.172,2.007-0.174
			c2.556-1.985,4.932-1.165,7.244,0.329c0.979,0.632,2.328,0.131,3.109,1.177C217.846,61.214,219.827,62.67,219.536,64.69z"/>
		<path fill="#7D7D7D" d="M209.911,72.255c2.254-2.696,4.967-3.553,8.265-2.075c0.23,0.592-0.143,1.086-0.246,1.617
			c0.077,0.828,0.849,0.927,1.362,1.297c0.244,0.165,0.404,0.39,0.48,0.671c-2.281,0.916-4.828,1.044-6.957,2.433
			c-1.139,0.743-1.892,0.38-2.177-0.981C210.432,74.224,210.156,73.243,209.911,72.255z"/>
		<path fill="#0C0B0B" d="M227.665,72.159c1.116,0.003,1.824,0.15,1.677,1.688c-0.132,1.372-0.914,0.981-1.607,1.029
			c-0.897,0.063-1.8,0.077-2.7,0.112c-0.699-0.212-1.581,0.402-2.097-0.392c-0.088-0.135,0.449-0.675,0.698-1.028
			c-0.228-0.324-0.202-0.626,0.074-0.908C224.963,71.982,226.271,71.735,227.665,72.159z"/>
		<path fill="#6E6E6E" d="M223.821,73.063c-0.051,0.173-0.112,0.341-0.187,0.505c-1.287,0.065-2.574,0.131-3.862,0.197
			c-0.116-0.092-0.236-0.181-0.359-0.266c-0.143-0.29-0.175-0.592-0.102-0.907c0.67-1.367,0.948-3.076,2.884-3.352
			c0.932,0.305,1.498,0.963,1.801,1.873C224.161,71.78,223.638,72.389,223.821,73.063z"/>
		<path fill="#282424" d="M187.892,26.483c-0.575-1.037-2.188-0.91-2.496-2.242C186.606,24.565,188.062,24.613,187.892,26.483z"/>
		<path fill="#656565" d="M229.149,51.68c-0.256-0.019-0.511-0.038-0.766-0.057c-1.332-4.155-0.603-5.184,3.613-5.03
			c0.302-1.011-0.596-1.632-0.81-2.466c1.507-2.421,2.759-5.123,6.071-5.57c0.424-0.329,0.886-0.293,1.36-0.153
			c0.719,1.808-1.08,2.067-1.811,3.001c-0.82,1.054-2.05,1.659-2.841,2.728c-0.567,1.665,0.074,4.154-3.104,3.999
			c-0.583-0.029-0.488,1.488,0.268,2.183C231.745,52.624,230.336,51.992,229.149,51.68z"/>
		<path fill="#7D7D7D" d="M238.715,38.674c-0.485-0.04-0.969-0.078-1.454-0.116c-0.387-2.199,1.702-0.5,2.156-1.378
			c1.422,1.165,3.334,1.937,3.372,4.212C240.28,42.215,239.625,40.253,238.715,38.674z"/>
		<path fill="#6A6A6A" d="M221.612,54.402c0.203-1.47-1.951-1.487-1.807-2.959c0.901-0.705,1.623,0.414,2.465,0.266
			c0.014,0.401,0.027,0.802,0.042,1.201C222.251,53.488,222.209,54.075,221.612,54.402z"/>
		<path fill="#555555" d="M238.715,38.674c1.58,0.572,2.111,2.719,4.074,2.718c3.218,1.148,3.398,3.82,3.312,6.624
			c-0.919,1.414-0.518,3.634-2.626,4.325c-0.226,0.01-0.45,0.018-0.674,0.024c-0.301,0.205-0.586,0.173-0.854-0.061
			c-0.309-0.698-0.126-1.25,0.497-1.669c2.017-0.148-0.146-1.523,0.592-2.044c0.099-0.297,0.255-0.564,0.447-0.807
			c1.849-2.187,0.403-3.043-1.5-3.707c-1.745-0.585-3.368-2.073-5.37-0.706c-0.665,0.252-1.328,0.505-1.992,0.757l-0.327-0.003
			l-0.327,0.007C234.316,41.237,237.453,40.773,238.715,38.674z"/>
		<path fill="#2D2D2D" d="M219.536,64.69c-0.746-1.337-1.471-2.685-2.242-4.007c-0.624-1.072-0.042-1.373,0.882-1.499
			c0.227,0.038,0.452,0.076,0.678,0.116C220.426,61.38,220.706,63.585,219.536,64.69z"/>
		<path fill="#393939" d="M242.142,52.341c0.22-0.003,0.44,0.006,0.659,0.025c0.112,0.992-0.222,1.872-0.682,2.72
			c-1.434-0.188-3.553,0.771-3.412-2.047C239.695,52.037,240.778,51.499,242.142,52.341z"/>
		<path fill="#878787" d="M223.821,73.063c-0.798-0.41-0.343-0.96-0.163-1.478c0.472-0.907,0.22-2.515,2.041-2.118
			c0.221,0.05,0.443,0.084,0.667,0.104c0.645,0.615,1.289,1.231,1.933,1.845c-0.213,0.248-0.424,0.497-0.634,0.744
			C226.536,73.113,225.155,72.987,223.821,73.063z"/>
		<path fill="#959595" d="M222.162,69.382c-0.882,1.174-1.764,2.347-2.646,3.521c-1.362,0.394-1.934-0.744-2.741-1.424
			c0.468-0.433,0.934-0.866,1.4-1.299c0.476-1.099,0.954-2.199,1.43-3.298c0.764-0.221,1.31,0.285,1.919,0.578
			C222.128,67.97,222.693,68.495,222.162,69.382z"/>
		<path fill="#5F5F5F" d="M222.162,69.383c-0.213-0.642-0.425-1.284-0.637-1.925c1.207-0.376,2.243,0.571,3.526,0.337
			c2.088-0.379,0.155,1.198,0.647,1.671c-1.104,0.295-1.194,1.573-2.041,2.118C223.158,70.851,222.66,70.117,222.162,69.383z"/>
		<path fill="#232323" d="M242.142,52.341c-1.146,0.233-2.29,0.466-3.436,0.699c-0.946-1.809-1.117-3.928-2.856-5.45
			c-1.695-1.482,1.057-2.683,0.763-4.217c1.881-3.577,3.645-0.239,5.458,0.096c0.11,1.503-1.229,1.21-2.333,1.908
			c1.366-0.068,2.458-1.789,3.425-0.255c0.599,0.948,1.221,1.97,0.324,3.108l0.001-0.001c-1.968,0.419-0.229,1.875-0.751,2.7
			C242.199,51.254,242.113,51.774,242.142,52.341z"/>
		<path fill="#3F3F3F" d="M229.149,51.68c0.932-0.06,1.979,0.044,1.981-1.367c0.949-0.667,1.153,0.136,1.286,0.744
			c0.129,0.588-0.162,1.11-0.833,1.2C230.711,52.374,229.797,52.562,229.149,51.68z"/>
		<path fill="#DFDFDF" d="M217.623,72.122c1.214-0.105,1.798,1.011,2.742,1.424c0.016,0.208-0.017,0.407-0.103,0.598
			C218.578,74.524,217.617,73.956,217.623,72.122z"/>
		<path fill="#3E3E3E" d="M243.486,48.228c-0.396-1.774-0.413-3.988-3.295-2.156c-0.625,0.397-2.187,0.322-2.28-0.708
			c-0.14-1.528,1.137-1.18,2.153-0.977c0.842,0.168,1.52-0.218,2.008-0.921c1.875-0.121,2.771,0.884,3.155,2.619
			C245.565,47.615,244.784,48.1,243.486,48.228z"/>
		<path fill="#3E3E3E" d="M242.736,50.926c-0.823-0.875-2.007-1.802-1.325-3.065c0.433-0.802,1.369,0.169,2.076,0.366
			C242.859,49.021,244.999,50.588,242.736,50.926z"/>
	</g>
</g>
</svg>
