<?xml version="1.0" encoding="utf-8"?>
<!-- Generator: Adobe Illustrator 16.0.0, SVG Export Plug-In . SVG Version: 6.00 Build 0)  -->
<!DOCTYPE svg PUBLIC "-//W3C//DTD SVG 1.1//EN" "http://www.w3.org/Graphics/SVG/1.1/DTD/svg11.dtd">
<svg version="1.1" id="Layer_1" xmlns="http://www.w3.org/2000/svg" xmlns:xlink="http://www.w3.org/1999/xlink" x="0px" y="0px"
	 width="612px" height="792px" viewBox="0 0 612 792" enable-background="new 0 0 612 792" xml:space="preserve">
<g>
	<path fill-rule="evenodd" clip-rule="evenodd" fill="#222222" d="M429.664,114.019c2.633,14.22,3.859,28.646,6.658,42.856
		c4.877,24.773,9.262,49.64,14.432,74.361c3.68,17.601,4.941,35.557,6.824,53.419c2.686,25.47,5.021,50.972,8.557,76.358
		c3.303,23.712,6.793,47.406,8.551,71.33c1.713,23.285,2.045,46.57,2.395,69.893c0.256,17.133,2.633,34.254,1.443,51.412
		c-1.762,25.41-1.209,50.943-4.209,76.279c-0.115,0.98-0.418,1.939-0.635,2.908c-1.072,0.812-2.064,2.031-3.574,0.723
		c-0.328-0.494-0.549-1.025-0.68-1.604c-0.131-8.186,1.57-16.217,2-24.367c0.254-4.816,0.836-9.633,0.631-14.457
		c-0.795-18.516,3.225-36.889,1.938-55.369c-1.783-25.588-2.014-51.223-2.648-76.832c-0.938-37.928-7.09-75.226-11.822-112.717
		c-3.357-26.598-5.949-53.288-8.361-79.99c-1.877-20.792-6.121-41.171-10.225-61.594c-5.641-28.089-11.209-56.2-14.797-84.652
		c-0.25-1.984-0.506-3.968-1.061-5.879c-0.746-2.398-2.754-1.918-4.514-1.929c-2.986-0.018-5.836,1.03-8.809,1.178
		c-0.492,0.148-0.988,0.222-1.5,0.239c-0.814-0.031-1.533-0.259-2.014-0.979c-0.154-0.532-0.121-1.051,0.096-1.561
		c1.816-2.102,4.602-1.22,6.777-2.226c6.053-0.285,12.068-0.951,18.061-1.812c2.682-0.519,5.395-0.639,8.119-0.611
		c0.816,0.289,1.369,0.836,1.619,1.671c-1.451,2.825-4.531,0.08-6.295,1.837l0.02-0.02
		C434.438,112.998,431.238,110.852,429.664,114.019z"/>
	<path fill-rule="evenodd" clip-rule="evenodd" fill="#202020" d="M219.774,672.855c0.304-14.688-5.085-28.361-7.61-42.545
		c-4.481-25.166-11.985-49.674-16.258-74.912c-3.96-23.395-8.533-46.705-15.032-69.562c-6.682-23.5-16.232-46.023-23.841-69.217
		c-3.052-9.307-5.844-18.691-8.918-27.979c-13.932-42.092-29.154-83.725-45.175-125.064c-1.015-2.619-2.287-5.14-3.439-7.705
		c1.182-0.245,1.993-1.672,3.45-1.077c2.298,1.452,3.135,3.877,3.939,6.212c9.271,26.907,20.285,53.154,29.75,80.015
		c13.997,39.723,25.74,80.201,40.914,119.529c7.307,18.939,12.021,38.727,16,58.715c6.855,34.441,13.41,68.951,21.714,103.104
		c2.944,12.111,5.522,24.348,8.016,36.58c0.836,4.098,1.202,8.232-0.014,12.352C222.45,672.59,221.357,673.275,219.774,672.855z"/>
	<path fill-rule="evenodd" clip-rule="evenodd" fill="#222222" d="M47.448,163.167c-4.354-12.913-8.203-25.952-3.479-39.568
		c3.361-9.693,11.464-14.865,20.243-18.759c8.342-3.699,16.579-7.608,24.882-11.383c10.892-4.951,22.39-3.674,33.768-2.16
		c1.646,0.219,3.104,1.802,4.665,2.728c0.586,0.348,0.765,1.379,1.91,0.789c2.964-1.526,2.997-1.462,3.305,2.001
		c-0.444,0.278-0.86,0.315-1.219-0.144c-0.415,0.387,0.108,0.542,0.235,0.701c0.828,1.032,1.368,2.159,1.381,3.505
		c-0.3,1.833-0.248,3.646,0.371,5.424c-0.715,13.238-7.015,23.113-18.631,29.204c-10.146,5.319-21.326,7.403-32.638,8.577
		c-4.893,0.507-5.112,0.66-2.419,4.742c3.662,5.552,7.75,10.82,10.859,16.738c1.712,3.259,4.199,4.152,7.912,2.978
		c11.459-3.626,22.416-8.055,32.778-14.404c6.511-3.988,13.244-8.233,21.003-9.928c1.055,0.276,1.941,0.782,2.456,1.796
		c-0.428,2.38-2.55,2.958-4.279,3.786c-9.333,4.469-18.343,9.507-27.115,14.983c-0.849,0.529-1.712,1.068-2.646,1.406
		c-15.47,5.596-30.681,12.055-47.075,14.636c-3.944,0.621-7.988,0.764-11.281-2.278c0.341-1.466,2.336-1.572,2.583-3.13
		c5.603-1.768,11.573-0.257,17.232-2.192c5.2-1.779,5.208-1.391,2.606-6.058c-4.62-8.291-10.983-15.483-15.086-24.1
		c-0.223-1.639-0.115-3.126,1.748-3.802c0.501-0.1,1.008-0.104,1.514-0.034c2.686,0.536,5.351,0.538,7.978-0.365
		c8.321-1.645,16.634-3.31,24.776-5.723c13.155-3.898,22.062-15.458,21.455-27.896c-0.318-6.541-3.382-9.739-9.957-9.985
		c-5.815-0.219-11.642-0.102-17.463-0.029c-2.362,0.029-4.666,0.496-6.766,1.54c-9.982,4.959-20.405,8.978-30.312,14.068
		c-6.611,3.397-12.793,7.771-14.61,15.504c-2.281,9.706-2.206,19.454,2.093,28.796c0.891,1.937,2.252,3.745,1.929,6.071
		c-0.147,0.52-0.487,0.849-1.011,0.984c-2.402-0.259-2.293-2.518-3.307-4.282c0.632,1.551,0.98,2.83,0.551,4.192
		C48.186,162.554,47.873,162.91,47.448,163.167z"/>
	<path fill-rule="evenodd" clip-rule="evenodd" fill="#212121" d="M473.312,635.822c-7.686,0.926-15.35,2.371-23.061,2.684
		c-24.887,1.006-48.49,7.578-71.84,15.568c-21.992,7.525-44.312,14.018-65.428,24.07c-22.481,10.703-46.558,11.359-70.863,8.986
		c-6.128-0.6-12.146-1.711-18.145-3.176c-4.296-1.049-6.461-2.576-4.22-7.127c0.862-0.789,1.816-0.854,2.843-0.361
		c0.99,0.795,1.472,2.094,2.68,2.674c9.419,3.244,19.273,3.506,29.037,4.273c23.359,1.84,45.128-3.5,66.101-13.758
		c11.029-5.393,22.771-9.4,34.588-12.912c9.42-2.799,18.789-5.758,28.025-9.078c22.562-8.111,45.791-12.781,69.697-14.217
		c4.148-0.25,8.23-1.303,12.424-1.004c1.807,0.129,3.697-0.145,5.229,1.186c0.131,0.125,0.264,0.244,0.402,0.359
		C471.711,634.482,472.664,634.941,473.312,635.822z"/>
	<path fill-rule="evenodd" clip-rule="evenodd" fill="#231C1D" d="M425.537,69.662c11.705-7.09,21.086-16.895,30.91-26.214
		c8.391-7.959,17.082-15.601,25.688-23.331c2.887-2.595,5.68-1.834,7.059,2.134c2.033,5.85,1.963,12.104,3.043,18.134
		c3.477,19.438,7.256,38.824,10.906,58.232c0.596,3.175,1.07,6.346-2.549,8.23c-1.4,0.844-2.846,2.253-4.508,1.183
		c-1.432-0.92,0.039-2.002,0.441-2.979c1.895-2.324,2.432-4.801,1.887-7.881c-3.934-22.244-9.592-44.178-12.031-66.689
		c-0.195-1.809-0.4-3.643-1.814-5.94c-3.924,3.031-7.268,6.615-11.041,9.656c-11.539,9.297-21.422,20.392-32.676,29.984
		c-7.898,6.73-17.061,11.597-26.17,16.366c-6.76,3.539-12.857,8.324-20.186,10.796c-1.408,0.475-2.703,1.306-4.275,1.191
		c-1.535-0.326-2.791-0.984-3.145-2.688c0.023-0.472,0.176-0.906,0.459-1.288c1.064-0.843,2.4-1.086,3.609-1.611
		c0.979-0.386,1.799-1.038,2.676-1.6c1.127-0.604,2.439-0.76,3.523-1.473c2.293-1.382,4.744-2.459,7.057-3.799
		c3.428-2.152,6.844-4.323,10.643-5.784c1.182-0.555,2.244-1.32,3.402-1.917c0.592-0.227,1.211-0.307,1.836-0.315
		c1.314,0.062,2.102-0.934,3.084-1.548C424.092,70.232,425.055,70.568,425.537,69.662z"/>
	<path fill-rule="evenodd" clip-rule="evenodd" fill="#241D1E" d="M257.39,72.763c2.165-2.053,0.693-2.409-1.215-2.938
		c-7.036-1.948-14.049-3.986-21.044-6.081c-3.344-1.001-6.622-2.262-9.412-4.426c-4.468-3.464-5.513-8.857,0.571-12.307
		c15.45-8.758,28.737-20.603,42.892-31.191c7.01-5.244,11.59-13.092,17.646-19.41c6.303-6.575,12.679-13.118,20.137-18.431
		c3.865-2.754,7.383-2.376,9.137,1.616c4.732,10.765,10.227,21.271,12.609,32.944c0.496,1.256,0.484,2.54,0.225,3.838
		c-3.945,0.53-2.584-3.468-4.213-4.916c-3.598-8.754-6.74-17.699-11.051-26.166c-2.09-4.106-2.939-4.477-6.619-1.598
		c-10.663,8.345-19.482,18.529-28.28,28.711c-3.276,3.792-6.523,7.612-10.732,10.347c-10.759,6.988-20.369,15.5-30.789,22.932
		c-2.039,1.454-4.186,2.695-6.354,3.932c-4.463,2.544-4.445,4.794,0.066,7.465c5.089,3.012,10.884,3.988,16.463,5.612
		c5.524,1.607,11.5,1.988,16.294,5.701c0.218,0.442,0.262,0.906,0.163,1.387c-0.879,1.146-2.219,1.773-3.188,2.827
		C259.625,73.327,258.543,73.875,257.39,72.763z"/>
	<path fill-rule="evenodd" clip-rule="evenodd" fill="#1E1E1E" d="M257.39,72.763c1.068-0.306,2.136-0.61,3.204-0.915
		c0.623-0.584,1.302-0.583,2.019-0.196c0.686,2.607-1.473,3.447-2.97,4.59c-18.086,13.806-36.896,26.621-54.985,40.438
		c-13.735,10.491-29.445,18.046-43.847,27.599c-1.723,1.143-3.755,2.223-6.081,1.618c-0.911-0.064-1.749-0.262-2.183-1.196
		c1.326-3.185,0.324-5.631-1.536-8.528c-6.602-10.282-12.482-21.009-18.26-31.783c-0.107-1.127-1.082-2.201-0.205-3.387
		c-0.578-1.286-1.209-2.552-1.707-3.869c-0.164-0.436-0.622-1.344,0.41-1.332c0.5,0.006,0.994,0.656,1.491,1.014
		c6.747,9.504,11.984,19.901,17.668,30.028c2.453,4.373,4.462,10.343,8.38,12.024c3.937,1.689,7.954-4.043,12.092-6.249
		c21.244-11.33,40.014-26.319,59.331-40.501C239.175,85.537,248.325,79.207,257.39,72.763z"/>
	<path fill-rule="evenodd" clip-rule="evenodd" fill="#202020" d="M64.595,175.855c1.137,2.603-0.965,1.827-2.123,2.036
		c-1.621,0.573-2.758-0.354-4.147-1.074c9.568,12.753,17.021,26.831,25.091,40.532c6.155,10.449,11.338,21.423,17.244,32.007
		c0.852,1.527,2.055,3.127,1.113,5.111c-0.029,1.647-0.797,2.099-2.272,1.403c-8.829-14.447-16.293-29.655-24.569-44.413
		c-6.93-12.356-15.441-23.645-22.41-35.924c-2.217-3.905-4.311-7.863-5.073-12.366c0.073-0.461,0.147-0.922,0.22-1.384
		c1.001-0.966,1.91,2.306,2.938,0.063c0.403-0.023,0.806-0.047,1.209-0.069c4.567,2.491,6.137,7.546,9.487,11.074
		c0.672,1.17,1.842,1.764,2.904,2.481C64.338,175.505,64.467,175.68,64.595,175.855z"/>
	<path fill-rule="evenodd" clip-rule="evenodd" fill="#252525" d="M328.6,16.851c0.037-1.437,0.074-2.873,0.111-4.311
		c1.152,5.056,3.691,5.505,8.342,3.524c19.896-8.475,40.531-7.021,61.203-3.704c6.082,0.977,12.203,1.302,18.336,1.606
		c1.008,1.746,0.021,2.753-1.338,3.625c-4.266,1.198-8.566,0.768-12.861,0.204c-7.088-0.932-14.211-1.658-21.277-2.664
		c-14.41-2.053-28.146,0.207-41.633,5.104c-1.717,0.624-3.447,1.237-5.26,1.5c-0.496,0.065-1.004,0.041-1.494-0.054
		c-1.66-1.091-3.195-2.322-4.117-4.164C328.605,17.296,328.604,17.074,328.6,16.851z"/>
	<path fill-rule="evenodd" clip-rule="evenodd" fill="#272727" d="M425.537,69.662c-0.303,1.017-1.131,1.18-2.021,1.241
		c-1.102,0.682-2.195,0.894-3.271-0.055c-1.068-1.57-1.064-3.362-1.078-5.152c-0.109-4.343,0.594-8.725-0.639-13.014
		c-0.637-8.56-0.395-17.161-1.262-25.716c-0.199-1.956,0.408-3.935,1.117-5.795c0.189-0.477,0.471-0.914,0.814-1.296
		c2.557-1.042,1.943,1.892,3.162,2.533c0.131,0.166,0.252,0.337,0.373,0.508c-0.939,12.671,0.42,25.278,1.031,37.907
		c0.443,0.683,0.445,1.365,0.002,2.049C424.334,65.141,421.559,68.283,425.537,69.662z"/>
	<path fill-rule="evenodd" clip-rule="evenodd" fill="#312A2A" d="M497.494,105.589c0.664,0.452-3.533,3.044,0.822,1.873
		c0.76-0.204,1.518-0.41,2.277-0.615c-1.637,2.123-3.93,2.998-6.473,3.019c-9.182,0.072-18.363,0.035-27.543,0.04
		c0.607-3.058,3.135-2.2,5.062-2.413c6.238-0.689,12.348,1.572,18.047,0.814c-2.383-0.715-5.652,1.329-8.391-1.027
		c-0.072-0.935,0.316-1.752,1.242-1.727C487.525,105.688,492.514,104.466,497.494,105.589z"/>
	<path fill-rule="evenodd" clip-rule="evenodd" fill="#1B1617" d="M481.588,106.79c3.73,2.557,8.139-0.084,13.188,2.035
		c-8.48,0-15.768-0.044-23.055,0.031c-1.744,0.019-3.715-0.667-5.143,1.05l-0.477,0.131l-0.479-0.116
		c-1.674,0.249-3.352-0.778-5.023,0.018c-0.332,0.008-0.664,0.016-0.994,0.022c-2.385-0.944-4.938,1.697-7.271-0.348
		c0.008-1.267,0.701-2.055,1.775-2.587c6.775-1.411,13.697,0.221,20.479-1.001C477.014,105.407,479.461,104.668,481.588,106.79z"/>
	<path fill-rule="evenodd" clip-rule="evenodd" fill="#312A2A" d="M452.787,109.669c2.23,1.095,4.646-2.173,6.818,0.291
		c-4.953,1.181-10.016,0.739-15.029,1.009C446.76,107.038,449.768,108.321,452.787,109.669z"/>
	<path fill-rule="evenodd" clip-rule="evenodd" fill="#2B2425" d="M452.787,109.669c-2.684,0.771-5.766-0.978-8.211,1.3
		l-0.418,0.233l-0.469-0.093c-0.611-0.201-0.76-0.797-1.074-1.253c-0.355-0.265-0.709-0.529-1.064-0.793
		c1.775-2.303,4.619-1.1,6.799-2.086c0.812-0.209,1.637-0.312,2.479-0.298c1.15,0.086,2.252,0.282,2.9,1.406
		C453.414,108.615,453.102,109.142,452.787,109.669z"/>
	<path fill-rule="evenodd" clip-rule="evenodd" fill="#080808" d="M222.437,676.73c-0.894,0.033-1.787,0.064-2.68,0.098
		c0.005-1.324,0.011-2.648,0.017-3.973c0.954-0.346,1.907-0.689,2.861-1.033c0.179,0.197,0.356,0.393,0.538,0.586
		C223.803,673.998,223.966,675.51,222.437,676.73z"/>
	<path fill-rule="evenodd" clip-rule="evenodd" fill="#323232" d="M415.59,16.696c0.334-0.909,0.668-1.819,1.002-2.729
		c1.002-0.372,2.006-0.743,3.008-1.115c0.773,0.7,1.854,1.042,2.383,2.034c0.139,0.42,0.172,0.846,0.094,1.282
		c-0.277,0.665-0.781,1.03-1.484,1.14C418.939,16.995,417.092,18.239,415.59,16.696z"/>
	<path fill-rule="evenodd" clip-rule="evenodd" fill="#252525" d="M420.732,16.857c0.314-0.365,0.629-0.731,0.943-1.097
		c0.625-0.501,1.232-0.518,1.814,0.072c0.01,0.342,0.02,0.684,0.029,1.024c-0.859,0.95,0,2.399-0.963,3.32
		c-0.727,0.301-1.393,0.247-1.969-0.332c-0.279,0.002-0.559,0.002-0.84,0.002C418.592,18.363,419.246,17.473,420.732,16.857z"/>
	<path fill-rule="evenodd" clip-rule="evenodd" fill="#252525" d="M421.559,14.868c-1.287-0.057-1.93-0.738-1.959-2.016
		c4.701-1.683,5.072-1.593,5.162,1.258C423.561,13.798,422.602,14.511,421.559,14.868z"/>
	<path fill-rule="evenodd" clip-rule="evenodd" fill="#2B2425" d="M429.664,114.019c1.338-3.942,4.475-2.002,6.977-2.134
		C434.596,113.511,431.559,111.899,429.664,114.019z"/>
	<path fill-rule="evenodd" clip-rule="evenodd" fill="#312A2A" d="M460.6,109.938c1.668-1.572,3.344-1.601,5.023-0.018
		C463.953,111.016,462.275,110.51,460.6,109.938z"/>
	<path fill-rule="evenodd" clip-rule="evenodd" fill="#312A2A" d="M442.615,109.857c0.359,0.417,0.717,0.835,1.074,1.253
		c-2.273,1.001-4.682,0.801-7.068,0.795C438.104,109.711,441.078,111.888,442.615,109.857z"/>
	<path fill-rule="evenodd" clip-rule="evenodd" fill="#0E0E0E" d="M473.312,635.822c-1.139-0.205-2.732,0.221-2.531-1.832
		c0.969-0.385,1.934-0.77,2.898-1.154C474.094,633.898,474.133,634.912,473.312,635.822z"/>
	<path fill-rule="evenodd" clip-rule="evenodd" fill="#0C0C0C" d="M421.559,14.868c0.559-2.4,1.656-2.531,3.203-0.758
		c-0.424,0.574-0.848,1.148-1.271,1.723c-0.605-0.023-1.211-0.047-1.814-0.071C421.652,15.461,421.613,15.164,421.559,14.868z"/>
	<path fill-rule="evenodd" clip-rule="evenodd" fill="#323232" d="M422.334,20.029c0.268-1.104,0.088-2.377,1.186-3.172
		c-0.152,2.034,0.312,4.148-0.787,6.06c-0.172-0.028-0.334-0.089-0.484-0.181C421.658,21.814,421.748,20.914,422.334,20.029z"/>
	<path fill-rule="evenodd" clip-rule="evenodd" fill="#E4E4E4" d="M424.766,63.042c-0.002-0.683-0.002-1.366-0.002-2.049
		c0.723,0.193,2.076,0.405,2.07,0.578C426.799,62.804,425.711,62.882,424.766,63.042z"/>
	<path fill-rule="evenodd" clip-rule="evenodd" fill="#FEFEFE" d="M414.018,116.74c5.285-0.801,10.498-2.63,15.943-1.094
		c2.527,19.614,6.033,39.063,9.352,58.556c4.295,25.231,10.975,50.005,14.242,75.399c2.164,16.822,3.68,33.729,5.443,50.603
		c2.764,26.459,5.602,52.907,9.475,79.236c3.9,26.509,6.939,53.109,7.715,79.931c0.859,29.775,3.135,59.576,2.453,89.312
		c-0.664,28.902-0.779,57.947-4.885,86.701c-34.393,0.936-67.594,7.676-99.891,19.564c-14.02,5.162-28.475,9.146-42.385,14.678
		c-10.637,4.23-20.93,9.178-31.898,12.771c-16.024,5.252-32.192,4.559-48.443,3.703c-8.204-0.432-17.418-1.633-25.104-5.316
		c-1.021-2.617,1.16-4.654,0.009-7.258l-1.461-0.766c0.23-5.848-0.398-11.576-1.69-17.307
		c-6.715-29.801-13.107-59.545-19.169-89.479c-5.207-25.709-10.104-51.609-16.914-76.969c-6.646-24.744-16.84-48.297-24.801-72.607
		c-3.101-9.469-5.95-19.012-9.062-28.471c-13.811-41.981-29.23-83.387-45.048-124.646c-1.063-2.774-2.228-5.549-4.177-7.878
		c-6.066-11.434-11.854-23.026-18.271-34.258c-7.412-12.969-14.148-26.369-23.343-38.27c-1.772-2.293-3.038-4.978-5.248-8.67
		c3.492,1.721,5.069,3.99,7.561,4.621c3.812,2.216,8.066,2.342,12.063,1.439c20.912-4.72,41.561-10.172,59.676-22.463
		c6.421-4.355,14.209-6.311,20.519-10.971c19.638-11.613,39.626-22.616,57.801-36.611c15.651-12.052,30.644-24.289,46.614-35.927
		c0.917-0.669,2.128-1.033,2.499-2.301c0.536-0.677,0.92-0.755,2.069-0.755c20.906,4.095,39.409,12.88,58.68,21.504
		c1.258,0.563,3.055,1.256,3.42,2.697c0.051,4.431-2.746,8.759-0.48,13.272c-0.062,2.225-0.615,4.8-0.113,7.157
		c1.51,2.166,4.715,0.019,6.137,2.406c1.508,1.737,1.211,3.532,0.186,5.354c-0.885,1.073-1.777,2.145-2.219,3.329
		c0.84-1,1.26-2.218,2.158-2.876c3.248-2.54,6.523-3.165,9.908-0.208c0.777,0.68,1.84,0.727,2.832,0.864
		c3.287,0.856,3.402,2.664,1.494,5.054c-0.516,0.646,0.131,2.166-0.51,2.686c-3.154,2.56-4.344,5.78-3.049,9.683
		c1.248,3.76,5.779,7.062,9.889,7.078c2.859,0.01,5.684-0.316,7.236,3.85c-0.809-4.71,0.74-7.896,3.42-10.664
		c0.984-0.419,1.869-0.104,2.732,0.363c0.549,0.304,1.016,1.123,1.561,0.969c0.914-0.259,0.266-1.033,0.107-1.54
		c-0.285-0.919-0.832-1.738-1.176-2.646c-0.506-1.417-0.996-2.835-1.139-4.345c-0.109-1.319-0.127-2.641,0.045-3.953
		c0.34-2.582,1.701-3.594,4.072-2.224c2.811,1.624,5.801,2.294,8.984,2.277c1.51-0.064,3.312,1.17,4.361-0.995
		c3.684-2.035,4.025-4.754,2.592-8.604c-0.779-2.098-3.279-5.384,1.111-7.055c1.793-0.113,3.402,0.548,5.027,1.151
		c1.836,1.289,3.998,1.566,6.129,1.935c2.611,0.796,5.193,0.525,7.762-0.224c2.355-0.922,4.891-0.236,7.281-0.835"/>
	<path fill-rule="evenodd" clip-rule="evenodd" fill="#1B1919" d="M389.178,115.02c-1.773,0.592-2.959-1.045-4.535-1.197
		c-0.541-0.446-1.26-0.623-1.748-1.155c-0.385-4.521,2.535-1.614,4.08-1.824c0.469,0.129,0.92,0.3,1.367,0.487
		c4.258,2.123,8.67,2.959,13.35,1.612c0.764-0.195,1.537-0.311,2.324-0.36c1.652-0.029,3.303-0.042,4.584,1.267
		c-0.012,0.29-0.033,0.578-0.064,0.866c-1.457,1.148-3.426,1.122-4.936,2.15c-2.658,1.449-5.344,1.374-8.049,0.136
		C393.559,115.917,391.113,116.29,389.178,115.02z"/>
	<path fill-rule="evenodd" clip-rule="evenodd" fill="#2B2425" d="M433.693,110.008c-6.25,1.693-12.646,1.921-19.066,1.9
		c-0.029-0.278-0.059-0.557-0.086-0.836c5.746-2.452,11.756-2.706,17.867-2.124C432.953,109.161,433.379,109.516,433.693,110.008z"
		/>
	<path fill-rule="evenodd" clip-rule="evenodd" fill="#2B2425" d="M426.586,113.891c-5.385-0.662-10.605,1.069-15.941,1.094
		C415.855,113.13,421.09,111.593,426.586,113.891z"/>
	<path fill-rule="evenodd" clip-rule="evenodd" fill="#312A2A" d="M448.598,107.837c-2.072,1.991-4.756,0.475-7.047,1.225
		c-2.518,1.174-5.238,0.631-7.859,0.944c0.002,0.002-0.225-0.358-0.225-0.358C437.01,106.288,443.615,105.498,448.598,107.837z"/>
	<path fill-rule="evenodd" clip-rule="evenodd" fill="#2B2425" d="M408.6,113.849c-1.777-0.064-3.555-0.129-5.332-0.193
		c3.17-3.675,6.98-3.853,11.152-2.036l0.207,0.288C413.047,113.892,410.156,111.797,408.6,113.849z"/>
	<path fill-rule="evenodd" clip-rule="evenodd" fill="#2B2425" d="M403.6,116.866c1.256-1.61,3.047-1.992,4.936-2.149
		c0.73,0.076,1.461,0.154,2.193,0.231C408.43,115.876,406.113,116.734,403.6,116.866z"/>
	<path fill-rule="evenodd" clip-rule="evenodd" fill="#FEFEFE" d="M61.956,174.445c-2.967-3.909-5.934-7.819-8.9-11.729
		c-3.454-7.381-6.482-14.744-6.525-23.232c-0.071-14.12,2.031-22.124,20.351-30.754c8.105-3.819,16.424-7.214,24.432-11.262
		c3.787-1.913,7.719-2.939,11.988-2.826c3.99,0.106,7.986-0.02,11.979,0.007c12.926,0.084,18.249,8.296,13.576,20.559
		c-4.181,10.974-11.999,17.621-23.19,20.693c-7.854,2.156-15.779,3.914-23.842,5.056c-2.626,0.198-5.302,1.126-7.8-0.532
		l0.128,0.098c-3.94-0.911-2.786,1.622-2.44,3.608c5.986,9.025,11.951,18.063,17.978,27.062c1.33,1.986,0.288,2.255-1.421,2.863
		c-7.293,2.599-14.744,3.548-22.432,2.737l-0.006-0.002C64.599,175.908,62.74,176.064,61.956,174.445z"/>
	<path fill-rule="evenodd" clip-rule="evenodd" fill="#FEFEFE" d="M134.857,104.768c7.168,11.349,12.416,23.854,20.498,34.618
		c2.594,3.455-0.497,4.333-1.567,6.253c-9.39,4.333-18.79,8.709-27.489,14.296c-7.207,4.628-15.143,7.31-23.184,9.569
		c-9.73,2.735-9.676,2.271-14.867-6.478c-3.631-6.119-7.768-11.938-12.217-18.709c10.485-0.357,19.969-2.396,29.368-4.923
		c17.077-4.591,27.724-16.771,28.298-32.502C133.33,105.773,132.986,104.666,134.857,104.768z"/>
	<path fill-rule="evenodd" clip-rule="evenodd" fill="#0F0F0F" d="M50.606,161.847c0.417,1.124,1.386,2.188,0.445,3.557
		c-2.268-0.237-1.908-2.791-3.384-3.619c0-1.281,0-2.562,0-5.435C49.091,159.013,49.849,160.43,50.606,161.847z"/>
	<path fill-rule="evenodd" clip-rule="evenodd" fill="#252525" d="M70.47,143.192c-1.691-1.626-1.303-3.438,0.092-4.784
		c1.049-1.013,2.165-0.444,2.349,1.176C70.777,139.893,70.515,141.469,70.47,143.192z"/>
	<path fill-rule="evenodd" clip-rule="evenodd" fill="#252525" d="M72.783,139.486c2.6,0.178,5.199,0.355,7.8,0.532
		C77.902,141.016,75.232,141.871,72.783,139.486z"/>
	<path fill-rule="evenodd" clip-rule="evenodd" fill="#9C9C9C" d="M133.617,103.83c-1.07,0.335-0.696,1.459-1.16,2.125
		c-0.519-1.66-1.746-3.335,0.09-4.952C132.904,101.945,133.26,102.887,133.617,103.83z"/>
	<path fill-rule="evenodd" clip-rule="evenodd" fill="#373737" d="M222.67,671.773c1.618,2.555,0.517,5.383,0.808,8.072
		c-1.19-0.756-0.814-2.035-1.04-3.113C222.515,675.078,222.592,673.426,222.67,671.773z"/>
	<path fill-rule="evenodd" clip-rule="evenodd" fill="#F9B8BD" d="M415.66,112.558c-3.799,0.234-7.557,0.386-11.152,1.736
		c-0.559,0.084-1.117,0.168-1.674,0.252c-4.975,1.367-9.52,0.169-13.996-1.792l-0.273-0.5l-0.334-0.166
		c-2.039-1.329-4.623-1.316-6.643-2.7c-0.658-1.288-0.188-2.355,0.654-3.351c2.287-1.705,3.945-3.349,4.828-6.087
		c1.139-2.438-0.389-6.302,3.785-7.115c9.4-2.93,17.285-8.867,26.018-13.12c17.406-8.477,31.445-21.239,44.996-34.774
		c7.707-7.696,16.264-14.542,24.621-21.934c1.965,2.907,2.297,6.229,2.611,9.424c2.188,22.205,8.008,43.753,11.799,65.667
		c0.57,3.295,0.99,6.238-2.166,8.43c-5.182,2.012-10.631,0.433-15.906,1.2c-2-0.47-3.998-0.542-5.99,0.054
		c-6.426,1.089-12.902,0.185-19.348,0.501c-1.971,0.098-3.988-0.41-5.91,0.409c-0.582,0.028-1.162,0.056-1.742,0.084
		c-5.129-0.115-10.172,0.495-15.131,1.811C428.336,111.038,421.936,111.191,415.66,112.558z"/>
	<path fill-rule="evenodd" clip-rule="evenodd" fill="#D8D8D8" d="M420.721,52.826c1.268,4.341,0.848,8.772,0.707,13.188
		c-4.107,1.596-1.859,4.587-1.568,7.147c-0.793,1.097-1.922,1.62-3.201,1.89c-3.605,1.248-4.35-1.885-5.879-3.817
		c-1.023-1.784-3.209-2.211-4.434-3.76c-0.74-1.099-0.775-2.424-1.176-3.635c-0.143-0.407-0.244-0.824-0.328-1.248
		c-0.107-0.658-0.084-1.311,0.07-1.961c0.461-1.336,1.303-2.344,2.574-2.982c0.447-0.117,0.898-0.139,1.355-0.063
		c0.895,0.229,1.713,0.634,2.516,1.077c0.838,0.538,1.723,0.994,2.635,1.385c1.334,0.573,2.672,1.881,4.145,1.042
		c1.822-1.036,0.578-2.607,0.199-3.969C417.721,54.908,418.947,53.713,420.721,52.826z"/>
	<path fill-rule="evenodd" clip-rule="evenodd" fill="#130F10" d="M381.736,106.218c-0.342,0.814-0.684,1.628-1.023,2.442
		c-0.396,3.335-2.881,2.114-4.77,2.198c-0.496-0.122-0.945-0.349-1.346-0.663c-0.283-0.407-0.416-0.865-0.398-1.363
		c0.461-1.89,1.648-3.291,3.08-4.524c1.047-0.798,1.809-1.832,2.406-2.997c0.645-1.135,1.535-2.104,2.143-3.262
		c0.734-1.438,0.514-3.053,0.836-4.566c0.883-2.629-0.215-5.202-0.225-7.809c0.377-1.89,0.623-3.986,3.406-2.284
		c1.51,1.666,2.041,3.628,1.756,5.835c-0.037,1.425,1.578,1.604,2.014,2.672c-2.65,2.043-0.826,5.733-2.939,7.975
		C384.881,101.872,383.404,104.12,381.736,106.218z"/>
	<path fill-rule="evenodd" clip-rule="evenodd" fill="#B8B8B8" d="M411.551,69.957c1.223,2.179,1.957,4.848,5.107,5.095
		c-3.656,2.017-7.314,4.033-10.971,6.051c-2.777,0.957-2.84-1.019-3.066-2.826c0.182-2.004,1.289-3.674,1.986-5.495
		C405.932,69.321,408.215,68.389,411.551,69.957z"/>
	<path fill-rule="evenodd" clip-rule="evenodd" fill="#828282" d="M402.664,77.889c-0.066,1.507-0.049,2.958,2.023,3.043
		c-2.363,1.329-4.727,2.658-7.092,3.987c-0.191-0.127-0.383-0.254-0.578-0.378c-1.252-1.46-1.566-3.332-2.236-5.054
		c-0.213-0.711-0.32-1.437-0.344-2.178c0.055-1.569,0.146-3.125,1.77-3.999C399.842,72.744,401.34,75.195,402.664,77.889z"/>
	<path fill-rule="evenodd" clip-rule="evenodd" fill="#5E5E5E" d="M387.602,89.225c-0.668-1.792-1.338-3.584-2.008-5.376
		c-0.166-1.056-1.754-1.844-0.801-3.046c0.801-1.011,2.059-0.786,3.184-0.479c2.621,0.718,4.865,1.897,5.623,4.808
		c-0.006,0.231-0.014,0.464-0.021,0.696c-0.086,1.383-0.781,2.037-2.191,1.84c-1.357-0.192-2.5,0.466-3.693,0.925
		C387.734,88.813,387.703,89.025,387.602,89.225z"/>
	<path fill-rule="evenodd" clip-rule="evenodd" fill="#F3F3F3" d="M419.859,73.162c-2.398-1.81-2.883-6.086-1.006-7.948
		c1.506-1.494,1.781,0.346,2.574,0.801c0.121,1.678,0.242,3.354,0.363,5.031c0.4,0.674,0.287,1.229-0.381,1.658
		C420.893,72.857,420.377,73.009,419.859,73.162z"/>
	<path fill-rule="evenodd" clip-rule="evenodd" fill="#5E5E5E" d="M395.551,77.82c0.014,0.674,0.027,1.347,0.041,2.021
		c0.477,1.605,0.197,3.533,1.955,4.592l0.049,0.487c-1.107,1.325-2.602,0.942-4.018,0.909c0-0.001,0.029,0.041,0.029,0.041
		C393.582,83.024,390.672,79.482,395.551,77.82z"/>
	<path fill-rule="evenodd" clip-rule="evenodd" fill="#0A0A0A" d="M420.412,72.534c0.127-0.553,0.254-1.105,0.381-1.658
		c0.908,0.009,1.816,0.018,2.725,0.026C422.648,71.766,422.943,74.839,420.412,72.534z"/>
	<path fill-rule="evenodd" clip-rule="evenodd" fill="#ADADAD" d="M388.934,89.531c0.98-1.309,1.855-3.042,3.693-0.925
		C391.594,89.708,390.385,90.101,388.934,89.531z"/>
	<path fill-rule="evenodd" clip-rule="evenodd" fill="#F9B8BD" d="M263.599,68.891c-7.873-3.149-16.209-4.74-24.286-7.206
		c-3.827-1.168-7.626-2.402-10.954-4.656c-3.979-2.696-4.071-5.237,0.121-7.45c14.199-7.496,25.364-19.178,38.812-27.745
		c8.44-5.377,13.711-14.27,20.437-21.556c6.188-6.705,12.774-12.996,19.822-18.805c3.117-2.569,5.057-2.071,6.695,1.726
		c3.945,9.136,7.998,18.222,11.254,27.636c2.301,7.167,5.695,13.935,7.744,21.191c0.436,1.126,1.885,2.42,2.209,3.585
		c0.127,0.447,0.211,0.905,0.273,1.364c0.078,1.837,0.873,3.456,1.586,5.101c0.482,1.528,0.734,3.103,0.959,4.685
		c0.385,3.217,1.352,6.3,2.18,9.416c0.367,1.396,0.623,2.816,1.068,4.191c0.646,4.174,1.779,8.233,2.893,12.295
		c1.512,6.155,3.469,12.197,4.752,18.417c-0.012,0.521-0.148,1.005-0.396,1.46c-7.67,7.391-8.557,6.979-18.111,2.48
		c-20.145-9.481-40.361-18.843-62.285-23.673C266.562,70.949,264.831,70.408,263.599,68.891z"/>
	<path fill-rule="evenodd" clip-rule="evenodd" fill="#251E1F" d="M263.599,68.891c19.728,3.484,37.817,11.703,56.04,19.502
		c5.92,2.534,11.834,5.169,17.203,8.784c2.107,1.418,3.379,1.817,5.037-0.831c1.242-1.987,3.627-3.261,5.504-4.853
		c1.428,0.937,0.668,2.345,0.781,3.568c-0.037,0.438-0.156,0.853-0.342,1.249c-1.377,1.633-2.842,3.192-4.287,4.77
		c-2.41-0.621-4.77,0.079-7.152,0.271c-3.375-1.548-7.258-2.21-9.627-5.51c-7.361-4.835-15.785-7.351-23.732-10.912
		c-12.406-5.562-25.377-9.424-38.442-13.021c-0.556-0.568-1.075-1.153-0.986-2.034C263.596,69.545,263.597,69.218,263.599,68.891z"
		/>
	<path fill-rule="evenodd" clip-rule="evenodd" fill="#2D2627" d="M332.48,33.106c-2.633-7.328-5.652-14.535-6.98-22.271
		c1.984,1.516,1.266,4.423,3.1,6.017l0.018,0.017c0.656,1.971,1.895,3.668,2.646,5.599c0.213,0.444,0.381,0.899,0.537,1.365
		C332.246,26.907,335.139,29.807,332.48,33.106z"/>
	<path fill-rule="evenodd" clip-rule="evenodd" fill="#120F0F" d="M263.595,69.874c0.823,0.438,0.984,1.197,0.986,2.034
		c-0.565,0.029-1.131,0.06-1.697,0.089c-0.763-0.05-1.526-0.1-2.29-0.148C260.696,69.823,262.119,69.807,263.595,69.874z"/>
	<path fill-rule="evenodd" clip-rule="evenodd" fill="#222222" d="M60.715,173.506c1.292,0.782,2.583,1.564,3.874,2.347
		C62.798,175.897,61.146,175.708,60.715,173.506z"/>
	<path fill-rule="evenodd" clip-rule="evenodd" fill="#FEFEFE" d="M420.721,52.826c-0.654,1.819-2.447,3.38-0.402,5.646
		c0.754,0.836,0.822,3.02-0.562,4.051c-1.078,0.803-2.748,0.846-3.738,0.007c-1.742-1.474-4.598-1.196-5.613-3.687
		c-0.445-0.927,2.891-2.548-0.553-2.921c-2.531-0.659-2.062-3.359-3.357-4.855c-5.271-3.167-4.1-8.652-4.855-13.451
		c1.477-1.658,3.697-3.295,1.234-5.646c-2.52-2.404-4.355-0.133-6.229,1.314c-1.875,0.25-3.113-0.944-4.436-1.949
		c-1.609-1.856-3.072-3.828-5.316-5.069c-4.309-2.38-8.314-1.888-12.176,1.661c-3.115,2.863-3.637,6.23-1.6,10.689
		c0.617,1.348,1.408,2.628,1.041,4.212c-1.428,2.834-3.975,4.648-6.17,6.786c-1.676,1.313-3.271,2.906-6.338,1.535
		c2.104,2.713,0.549,5.227,0.842,7.695c-0.389,4.022-2.711,4.459-5.873,3.067c-3.35-1.475-6.654-2.542-10.395-1.288
		c-2.168,0.727-3.709-0.722-5.006-2.313c-0.656-1.133-0.623-2.379-0.6-3.623c0.152-3.326-0.678-6.415-2.281-9.318
		c-1.08-3.551-3.41-7.191-4.344-10.789c-0.334-3.398-1.633-6.57-2.309-9.89c-0.096-1.371,0.834-2.565,1.842-3.694
		c16.73-6.375,33.887-9.291,51.838-7.045c10.367,1.297,20.641,3.837,31.223,2.915c1.686,0.969,3.514-2.587,5.143,0.161
		c-0.691,0.877-1.512,1.712-0.982,2.99C418.77,30.952,421.186,41.89,420.721,52.826z"/>
	<path fill-rule="evenodd" clip-rule="evenodd" fill="#110F0F" d="M330.584,22.833c-1.395-1.744-1.859-3.797-1.967-5.966
		c0.314,1.772,4.004,1.07,2.865,3.908C331.527,21.612,331.363,22.357,330.584,22.833z"/>
	<path fill-rule="evenodd" clip-rule="evenodd" fill="#2D2627" d="M330.584,22.833c0.301-0.686,0.6-1.371,0.9-2.058
		c0.348,0.017,0.695,0.033,1.043,0.05c0.033,1.342,0.064,2.684,0.098,4.025c-1.977,0.652-1.125-1.56-2.023-1.999L330.584,22.833z"/>
	<path fill-rule="evenodd" clip-rule="evenodd" fill="#0F0F0F" d="M422.334,20.029c-0.027,0.902-0.055,1.805-0.084,2.707
		c-3.473,0.714-0.787-2.112-1.662-2.891C421.17,19.906,421.752,19.967,422.334,20.029z"/>
	<path fill-rule="evenodd" clip-rule="evenodd" fill="#312A2A" d="M450.34,107.753c8.387-1.179,16.828-0.907,25.258-0.91
		c-4.361,2.076-8.998,0.651-13.494,1.026c-2.779,0.232-5.584,0.153-8.377,0.216C452.598,107.976,451.469,107.865,450.34,107.753z"/>
	<path fill-rule="evenodd" clip-rule="evenodd" d="M349.598,438.795l0.297-0.26l0.365,0.145c1.271-0.617,2.279,0.576,3.869,0.311
		c3.926-0.652,3.381,2.785,2.953,5.455c0.377,10.023-0.703,19.99-1.77,29.91c-0.518,4.812-2.635,9.475-4.721,13.959
		c-4.002,4.988-7.543,10.35-12.559,14.516c-3.41,2.836-6.967,4.965-11.439,5.613c-10.912,1.584-20.728,0.609-28.209-9.07
		c-5.248-6.791-12.879-11.473-17.545-18.91c-1.418-2.26-2.468-4.709-3.95-6.924c-1.127-3.684-3.716-6.662-4.947-10.307
		c-0.747-2.211-1.489-4.406-1.725-6.74c-0.561-5.58,1.835-8.191,7.503-7.707c11.28,0.967,22.586,0.729,33.784-0.33
		c10.309-0.977,20.889-1.543,30.102-7.549C343.838,439.451,347.008,439.844,349.598,438.795z"/>
	<path fill-rule="evenodd" clip-rule="evenodd" fill="#7F7F7F" d="M328.182,96.658c3.322,1.584,6.646,3.168,9.969,4.752
		c3.068,0.274,5.113,2.574,7.674,3.863c6.107,4.756,12.795,8.035,20.715,8.262c0.99,0.028,1.938,0.375,2.643,1.163
		c0.578,0.943,0.639,2.09-0.012,2.814c-2.998,3.343-2.697,7.672-3.691,11.612c-0.262,1.085-0.918,1.786-2.008,2.066
		c-2.701,0.166-3.387-2.456-5.096-3.665c-0.27-0.188-0.553-0.538-0.822-0.519c-4.271,0.316-8.416-0.475-12.551-1.363
		c-0.953,0.589-1.783,0.578-2.574-0.35c-2.906-3.402-6.154-2.312-9.43-0.657c-0.955,0.191-1.404-0.153-1.227-1.16
		c1.047-1.572,1.236-3.196,0.301-4.891c-1.486-1.645-3.008-3.263-4.018-5.273c-1.037-1.108-0.139-2.675-0.914-3.848
		C324.209,104.93,326.248,100.798,328.182,96.658z"/>
	<path fill-rule="evenodd" clip-rule="evenodd" fill="#D0D0D0" d="M343.576,124.828c4.65,0.899,10.787-0.772,15.311,1.932
		c0.248,2.077,1.893,3.354,2.848,5.024c1.797,3.145,3.516,6.371,1.115,10.014c-0.869,1.779-1.975,3.487-2.533,5.358
		c-0.512,1.707-0.432,3.592-0.678,6.074c-2.246-3.494-5.273-3.521-8.729-3.646c-4.965-0.179-8.52-3.342-10.25-8.083
		c-1.604-4.396-1.627-8.823,2.176-11.773C343.541,129.181,349.965,127.306,343.576,124.828z"/>
	<path fill-rule="evenodd" clip-rule="evenodd" fill="#2C2C2C" d="M339.531,372.957c0,0.999-0.002,1.997,0,2.996
		c0.012,2.781-0.758,4.987-4.025,5.193c-3.447,0.217-4.701-1.787-4.9-4.896c-0.617-9.635-1.316-19.265-1.9-28.901
		c-2.014-33.223-3.758-66.476-11.965-98.952c-0.729-2.882-0.957-5.943,2.863-6.793c3.881-0.863,5.191,1.747,6.006,5.004
		c5.186,20.725,7.971,41.829,9.645,63.069c1.66,21.072,2.801,42.187,4.168,63.282C339.459,372.958,339.494,372.958,339.531,372.957z
		"/>
	<path fill-rule="evenodd" clip-rule="evenodd" fill="#1A1A1A" d="M198.527,254.708c0.324-0.312,0.648-0.625,0.973-0.938
		c2.194-1.608,4.702-2.796,6.55-4.874c5.607-3.481,11.55-6.334,17.443-9.278l-0.093,0.054c1.974-0.441,4.08-0.221,5.951-1.191
		c1.655,0.579,2.702,1.589,2.479,3.498c-1.462,2.492-4.438,0.359-6.177,2.018l0.09-0.033c-12.625,4.564-23.108,12.054-31.171,22.843
		c-0.39,0.88-1.18,1.424-1.78,2.127c-1.388,2.641-2.775,5.282-4.163,7.923c-0.198,0.271-0.421,0.539-0.506,0.85
		c-0.493,1.794-1.548,3.271-3.489,2.662c-2.463-0.772-1.537-2.849-1.105-4.586l-0.006,0.024c1.144-1.796,1.417-4.089,3.164-5.543
		c0.983-1.718,1.722-3.62,3.123-5.032c2.853-2.874,1.609-4.495-1.502-5.808c-8.268-3.489-16.914-5.14-25.846-5.466l0.093,0.034
		c-1.317-1.943-6.134,1.157-5.295-3.035c0.626-3.125,4.267-1.612,6.411-1.484c8.86,0.525,17.573,2.025,25.834,5.473
		C192.531,255.757,195.623,258.883,198.527,254.708z"/>
	<path fill-rule="evenodd" clip-rule="evenodd" fill="#171717" d="M349.598,438.795c-16.006,8.75-33.184,12.066-51.317,11.434
		c-7.458-0.26-14.912,0.867-22.421-0.242c-3.425-0.508-4.964,1.975-4.509,5.49c0.622,4.812,1.951,9.34,4.959,13.238
		c1.186,1.537,1.198,3.33,1.294,5.121c0.718,0.82,0.604,1.764,0.401,2.719c-2.065,1.387-1.847-0.873-2.463-1.625
		c-1.53-1.865-1.807-4.439-3.397-6.293c-1.105-0.543-0.66-2.113-1.764-2.66l0.029,0.059c-0.641-2.932-2.236-5.51-3.073-8.369
		c-2.133-7.285,1.566-12.17,9.339-11.697c5.479,0.332,10.945,0.363,16.419,0.385c12.273,0.049,24.508-0.488,36.569-2.99
		c3.65-0.758,7.223-1.881,10.871-2.678C343.408,439.342,346.467,438.893,349.598,438.795z"/>
	<path fill-rule="evenodd" clip-rule="evenodd" fill="#D0D0D0" d="M364.74,129.762c-0.611-5.532,0.691-10.538,4.111-14.962
		c0.15-0.165,0.299-0.331,0.447-0.499c2.006-0.902,4.377-0.816,6.176-2.29c0.635-0.299,1.283-0.556,1.977-0.691
		c2.816-0.393,5.203,0.597,7.375,2.278c0.354,0.388,0.705,0.775,1.057,1.163c-3.062,2.641-0.426,5.899,0.43,7.617
		c2.004,4.025,2.043,5.976-2.678,6.887c-0.4,0.077-0.627,1.057-0.934,1.617c-1.887,0.196-2.338-1.973-4.066-2.396
		c-0.969,1.134,0.887,2.165,0.252,3.244c-4.541,0.505-8.781-0.193-12.734-3.875c-0.201,2.832-0.35,4.912-0.498,6.993
		c-0.938,0.009-1.355-0.602-1.646-1.369C363.607,132.114,364.117,130.927,364.74,129.762z"/>
	<path fill-rule="evenodd" clip-rule="evenodd" fill="#2E2E2E" d="M271.759,346.81c-1.162-27.9-5.456-55.401-10.544-82.802
		c0.265-0.125,0.529-0.249,0.795-0.375c3.08,1.906,3.381,5.206,3.857,8.252c2.932,18.725,6.321,37.406,7.803,56.307
		c0.752,9.582,1.361,19.219,1.433,28.86c0.015,2.055-0.423,4.275,1.427,6.297c1.938-1.649,1.596-3.722,1.553-5.562
		c-0.457-19.448-1.652-38.841-4.946-58.046c-0.9-5.247-1.624-10.516-2.351-15.787c-0.228-1.647-0.513-3.307,0.407-4.864
		c0.441-0.531,0.959-0.617,1.549-0.261c5.369,29.086,9.116,58.316,7.773,87.995c-1.021,2.19-2.592,3.515-5.12,2.784
		c-2.693-0.779-3.249-2.911-3.307-5.449C271.957,358.376,272.557,352.579,271.759,346.81z"/>
	<path fill-rule="evenodd" clip-rule="evenodd" fill="#1C1C1C" d="M203.525,246.906c-9.735-4.813-20.306-7.309-30.458-10.96
		c-1.249-0.449-2.556-0.762-3.856-1.037c-1.997-0.422-2.867-1.668-2.555-3.598c0.342-2.109,2.08-1.872,3.536-1.68
		c1.474,0.194,2.943,0.574,4.357,1.045c9.435,3.138,18.973,5.984,28.132,9.904c0.807,1.19,2.294,1.089,3.383,1.781
		c2.334,1.487,2.96,3.033,0.534,4.976C205.49,247.79,204.487,247.492,203.525,246.906z"/>
	<path fill-rule="evenodd" clip-rule="evenodd" fill="#181818" d="M334.688,223.854c0.535-0.043,1.07-0.085,1.605-0.128
		c2.229-0.709,4.516-0.24,6.777-0.33c1.613,0.574,1.951,1.834,1.801,3.353c-1.256,1.101-3.209,0.088-4.381,1.441
		c-1.9,0.586-4.043-0.579-5.834,0.807l0.088-0.026c-4.148,1.382-8.27,2.825-12.047,5.084l0.084-0.045
		c-2.518,0.373-4.408,2.132-6.693,3.03c-1.279,0.503-2.623,1.046-3.543-0.333c-1.133-1.699,0.129-2.876,1.436-3.582
		c4.322-2.331,9.109-3.733,13.178-6.574c1.748-1.099,1.918-3.052,2.465-4.75c3.568-11.091,8.188-21.746,13.266-32.215
		c0.367-0.708,0.918-1.194,1.695-1.407c3.428,0.301,3.094,2.152,1.861,4.437c-1.48,2.739-3.307,5.313-4.074,8.394
		c-1.023,1.748-0.992,3.927-2.24,5.593C338.141,212.298,334.32,217.416,334.688,223.854z"/>
	<path fill-rule="evenodd" clip-rule="evenodd" fill="#0F0F0F" d="M386.6,208.959c1.014-0.702,2.025-1.403,3.039-2.104
		c1.174-0.848,2.395-1.59,3.861-1.817c3.492,0.57,2.426,2.131,0.832,3.809c-0.545,0.376-1.344,0.463-1.484,1.302l0.016-0.055
		c-7.561,3.882-13.445,9.806-19.166,15.895c-1.658,1.767-1.328,3.576,0.814,4.943c1.111,0.709,2.238,1.377,3.418,1.963
		c2.551,1.282,4.092,3.716,6.229,5.47c3.289,2.938,6.029,6.365,8.73,9.828c0.516,0.511,0.889,1.102,1.029,1.824
		c-0.336,1.562-1.465,1.67-2.744,1.502c-0.449-0.146-0.836-0.396-1.162-0.737c-1.936-2.674-3.215-5.965-6.711-7.19
		c-1.26-0.653-2.141-1.737-3.115-2.715c-3.953-4.327-8.67-7.538-14.117-9.681c-1.287-0.506-2.156-1.478-2.922-2.573
		c-0.369-2.533,1.631-2.562,3.205-3.04c2.402-0.015,3.736-1.749,5.27-3.218C376.459,217.724,380.699,212.413,386.6,208.959z"/>
	<path fill-rule="evenodd" clip-rule="evenodd" fill="#232323" d="M229.623,238.863c-1.962,1.127-4.066,1.164-6.222,0.81
		c5.189-2.001,5.373-2.241,0.822-5.72c-10.394-7.945-20.71-16.089-33.369-20.335c-2.12-0.711-3.7-1.823-2.95-4.288
		c0.829-2.724,2.973-2.083,4.91-1.485c10.997,3.393,19.968,10.183,28.784,17.226c0.547,0.634,0.596,1.282,0.058,1.948
		c-3.985,0.481-5.757-3.272-8.787-4.677c-2.47-1.146-4.583-3.079-6.807-4.727c-3.645-2.595-7.548-4.704-11.771-6.21
		c3.431,2.164,7.032,4.011,10.696,5.75c7.443,5.182,15.215,9.897,22.24,15.663C229.09,234.346,231.549,235.774,229.623,238.863z"/>
	<path fill-rule="evenodd" clip-rule="evenodd" fill="#1E1E1E" d="M345.566,221.764c8.363-7.061,13.531-16.72,20.336-25.05
		c2.355-2.885,5.072-5.264,8.279-7.071c1.166-0.658,2.674-0.979,3.635,0.319c0.83,1.12,1.061,2.847-0.139,3.64
		c-7.025,4.647-10.35,12.435-15.857,18.349c-1.189,0.549-1.463,2.68-3.387,1.963c-0.098-4.632,3.941-6.916,6.141-10.134
		c2.277-3.333,4.758-6.743,7.125-8.598c-4.934,5.171-9.648,11.994-14.717,18.544c-3.037,3.926-5.498,8.816-11.432,9.281
		C345.225,222.588,345.232,222.173,345.566,221.764z"/>
	<path fill-rule="evenodd" clip-rule="evenodd" fill="#161616" d="M349.594,488.838c-0.014-3.271,2.113-5.85,2.857-8.887
		c2.904-11.871,3.475-23.939,3.164-36.088c4.604-2.35-0.102-4.68-0.016-7.018c0.129-0.283,0.33-0.348,0.602-0.195
		c4.479-0.764,4.422,2.359,4.559,5.32l0.016-0.049c-1.303,5.094-0.641,10.346-1.252,15.494c-1.303,7.656-1.438,15.486-3.816,22.998
		c-1.256,3.963-2.43,7.891-4.822,11.342c-0.471,0.377-0.967,0.416-1.492,0.119C348.689,490.811,348.912,489.809,349.594,488.838z"/>
	<path fill-rule="evenodd" clip-rule="evenodd" fill="#222222" d="M221.546,226.957c0.017-0.629,0.034-1.258,0.052-1.887
		c4.84,2.253,8.451,6.187,12.525,9.442c2.56,2.045,5.026,2.826,8.142,2.59c5.461-0.413,10.9-0.003,16.312,0.799
		c1.806,0.573,4.399,0.692,3.668,3.484c-0.877,3.352-3.61,1.752-5.731,1.582l0.098-0.16c-4.865-1.05-9.792-0.195-14.675-0.469
		c-6.925-3.224-13.086-7.586-18.765-12.671C222.331,228.915,221.176,228.41,221.546,226.957z"/>
	<path fill-rule="evenodd" clip-rule="evenodd" fill="#333333" d="M340.535,440.686c-7.18,3.006-14.727,4.354-22.422,5.197
		c-13.742,1.506-27.521,0.855-41.289,0.969c-7.777,0.062-10.645,4.131-8.507,11.652c0.711,2.5,2.857,4.627,2.093,7.529
		c-1.979-2.346-2.74-5.277-3.611-8.084c-2.683-8.65,0.354-12.871,9.426-12.646c12.126,0.301,24.222,0.395,36.353-0.27
		C322.086,444.514,331.164,441.77,340.535,440.686z"/>
	<path fill-rule="evenodd" clip-rule="evenodd" fill="#232323" d="M190.519,255.875c-7.599-2.176-15.05-4.963-23.03-5.555
		c-1.977-0.146-3.954-0.436-5.929-0.414c-1.332,0.015-3.449-0.765-3.616,1.422c-0.15,1.965,1.904,1.22,3.032,1.618
		c0.577,0.203,1.056,0.687,1.578,1.044c-1.977,0.037-3.952,0.093-5.929,0.106c-1.873,0.014-2.677-1.144-2.76-2.822
		c-0.103-2.062,1.352-2.369,2.974-2.396c11.642-0.189,23.093,0.698,33.785,5.922C191.161,255.215,191.125,255.573,190.519,255.875z"
		/>
	<path fill-rule="evenodd" clip-rule="evenodd" fill="#1F1F1F" d="M377.592,233.852c-7.275-3.871-7.707-5.943-1.895-11.528
		c3.898-3.743,8.125-7.147,12.252-10.646c1.385-1.173,2.885-2.279,4.914-1.585c-5.467,4.627-10.869,9.32-16.184,14.13
		c-3.938,3.563-3.148,5.513,0.979,7.531C378.186,232.471,378.225,233.172,377.592,233.852z"/>
	<path fill-rule="evenodd" clip-rule="evenodd" fill="#3C3C3C" d="M272.742,278.83c-0.363-0.004-0.727-0.008-1.091-0.012
		c-1.934-2.324-1.719-5.281-2.307-7.992c-0.387-1.782-0.497-3.627-0.931-5.404c-0.434-1.778-0.8-3.77-2.864-4.333
		c-2.185-0.597-2.442,1.856-3.716,2.745c-0.197,0.091-0.403,0.149-0.618,0.175c-2.509-2.583-3.754-5.635-0.286-7.959
		c3.355-2.247,5.993,0.037,7.636,3.053C271.905,265.237,272.077,272.097,272.742,278.83z"/>
	<path fill-rule="evenodd" clip-rule="evenodd" fill="#1F1F1F" d="M343.535,189.699c-2.154,4.805-4.463,9.548-6.426,14.43
		c-2.471,6.148-4.645,12.415-6.979,18.62c-0.568,1.515-0.646,3.349-2.455,4.138c-0.285-0.213-0.391-0.439-0.32-0.681
		c0.072-0.247,0.152-0.37,0.238-0.37c3.58-12.099,8.125-23.812,13.969-35.007C342.145,190.323,342.43,189.293,343.535,189.699z"/>
	<path fill-rule="evenodd" clip-rule="evenodd" fill="#2A2A2A" d="M334.709,509.109c-11.434,5.469-22.574,5.799-33.259-1.893
		c-0.356-0.449-0.376-0.914-0.061-1.393c0.96-0.568,1.98-0.391,2.833,0.08c9.145,5.047,18.567,4.699,28.157,1.566
		c0.811-0.266,1.615-0.236,2.365,0.24C335.07,508.186,335.059,508.652,334.709,509.109z"/>
	<path fill-rule="evenodd" clip-rule="evenodd" fill="#232323" d="M363.621,228.787c6.082,3.363,12.807,5.799,17.049,11.815
		c-0.225,0.643-0.572,0.719-1.043,0.229c-10.709-9.825-23.324-14.062-37.785-12.894c-0.605,0.45-1.055,0.327-1.348-0.369
		c1.23-1.021,2.715-0.641,4.111-0.735c1.396-1.455,3.234-1.326,5.014-1.42c3.232,0.132,6.496-0.294,9.693,0.489
		C361.092,226.338,362.678,227.09,363.621,228.787z"/>
	<path fill-rule="evenodd" clip-rule="evenodd" fill="#282828" d="M350.551,491.791c5.225-10.713,6.855-22.279,8.061-33.947
		c1.029-0.137,1.609,0.117,1.127,1.295c-0.371,11.482-1.949,22.674-7.959,32.787C351.328,492.256,350.918,492.211,350.551,491.791z"
		/>
	<path fill-rule="evenodd" clip-rule="evenodd" fill="#272727" d="M393.6,205.852c-1.32,0.334-2.641,0.669-3.961,1.003
		c3.613-3.465,15.865-5.506,19.949-3.373c1.168,0.609,1.787,1.495,1.695,2.758c-0.145,1.987-1.732,2.359-3.229,2.326
		c-5.145-0.114-10.172,0.742-15.207,1.582c0.24-0.443,0.48-0.887,0.723-1.33c3.105-3.02,7.348-1.97,11.059-2.949
		C400.898,204.825,397.252,205.771,393.6,205.852z"/>
	<path fill-rule="evenodd" clip-rule="evenodd" fill="#232323" d="M193.665,267.022c2.03-5.893,7.341-8.77,11.74-12.352
		c6.013-4.895,12.281-9.574,20.338-10.708c-8.405,4.752-17.289,8.781-24.117,15.923C199.124,262.433,197.41,265.861,193.665,267.022
		z"/>
	<path fill-rule="evenodd" clip-rule="evenodd" fill="#262626" d="M327.594,225.835c0.027,0.35,0.053,0.7,0.08,1.051
		c-3.303,2.495-7.109,3.959-10.912,5.479c-1.701,0.679-4.439,1.597-3.375,3.81c0.811,1.685,2.857-0.336,4.275-0.896
		c1.664-0.655,3.174-1.793,5.119-1.269c-2.549,1.491-5.006,3.185-7.682,4.399c-1.693,0.77-4.104,1.569-5.221-0.743
		c-1.07-2.215,0.574-3.749,2.502-4.675C317.434,230.565,322.521,228.215,327.594,225.835z"/>
	<path fill-rule="evenodd" clip-rule="evenodd" fill="#232323" d="M386.6,208.959c-5.471,5.269-10.951,10.529-16.406,15.814
		c-1.045,1.012-2.334,1.165-3.662,1.288c-4.33,1.209-8.35-0.611-12.475-1.324c-0.932-0.161-1.836-0.776-1.436-2.073
		c1.422-0.883,2.83-0.311,4.24,0.034c0.334,0,0.732-0.122,0.988,0.018c7.957,4.358,13.023,0.369,18.068-5.549
		C378.775,213.818,381.359,209.474,386.6,208.959z"/>
	<path fill-rule="evenodd" clip-rule="evenodd" fill="#313131" d="M301.593,505.861c-0.048,0.453-0.096,0.904-0.144,1.355
		c-9.316-6.311-16.422-14.631-22.047-24.293c0.345-0.352,0.764-0.543,1.256-0.578C287.566,490.246,295.116,497.576,301.593,505.861z
		"/>
	<path fill-rule="evenodd" clip-rule="evenodd" fill="#232323" d="M162.461,253.957c9.003-0.825,17.459,1.484,25.684,4.731
		c5.175,2.043,5.234,2.763,1.968,7.309c-1.157,1.61-2.278,3.247-3.416,4.871c-0.559-0.328-0.655-0.759-0.289-1.293
		c0.485-1.045,0.878-2.146,1.471-3.126c3.151-5.214,3.12-5.087-2.327-7.353C178.141,256.015,170.241,255.291,162.461,253.957z"/>
	<path fill-rule="evenodd" clip-rule="evenodd" fill="#696969" d="M271.759,346.81c1.677,5.183,0.467,10.507,0.742,15.759
		c0.114,2.188-0.06,4.373,2.188,5.687c2.4,1.402,4.047-0.286,5.825-1.431c0.256,3.121-1.314,4.739-4.312,4.745
		c-3.423,0.007-4.57-2.351-4.584-5.312C271.589,359.776,271.704,353.292,271.759,346.81z"/>
	<path fill-rule="evenodd" clip-rule="evenodd" fill="#232323" d="M206.564,246.966c2.717-4.567-3.248-3.856-3.883-6.386
		c2.671,0.6,5.539,0.782,6.733,3.979c0.915,2.449,2.198,0.371,2.963-0.071c3.534-2.042,6.919-4.357,11.115-4.87
		c-5.315,4.054-11.489,6.65-17.154,10.11C205.679,248.748,205.815,247.832,206.564,246.966z"/>
	<path fill-rule="evenodd" clip-rule="evenodd" fill="#363636" d="M350.551,491.791c0.408,0.045,0.818,0.09,1.229,0.135
		c-3.785,7.621-9.412,13.41-17.07,17.184c-0.039-0.424-0.078-0.846-0.117-1.27c0.207-2.842,3.041-3.223,4.639-4.652
		c3.852-3.447,6.455-7.979,10.377-11.314C349.924,491.863,350.238,491.838,350.551,491.791z"/>
	<path fill-rule="evenodd" clip-rule="evenodd" fill="#232323" d="M240.544,241.818c5.339,0.588,10.818-1.095,16.066,0.989
		c-10.319,0.396-20.639,0.792-30.958,1.188c1.489-2.089,4.284-0.58,5.958-2.16C234.587,240.87,237.565,240.918,240.544,241.818z"/>
	<path fill-rule="evenodd" clip-rule="evenodd" fill="#EAEAEA" d="M362.85,141.797c0.348-5.039-0.939-9.473-4.816-12.935
		c-1.709-1.525-0.367-1.782,0.854-2.104c2.141,0.585,2.17,3.094,3.791,4.152c1.166,0.663,1.471,1.801,1.654,3.005
		c0.41,1.794,1.895,3.349,1.211,5.382c-1.178,0.968,0.381,2.406-0.57,3.42C364.264,142.412,363.557,142.104,362.85,141.797z"/>
	<path fill-rule="evenodd" clip-rule="evenodd" fill="#1F1F1F" d="M341.57,201.654c0.117-3.343,2.207-5.777,3.781-8.482
		c0.908-1.56,2.641-3.689-0.975-4.42c-0.561-2.56,1.359-2.884,2.875-2.535c2.779,0.641,1.846,2.85,1.412,4.708
		c-2.676,3.294-3.959,7.332-5.898,11.02C342.258,202.296,341.859,202.2,341.57,201.654z"/>
	<path fill-rule="evenodd" clip-rule="evenodd" fill="#464646" d="M356.861,222.699c-1.402,0.011-2.807,0.022-4.211,0.034
		c-0.783-0.129-1.277-0.555-1.4-1.361c1.629-3.312,3.51-6.387,7.318-7.605c1.084-0.604,2.168-1.21,3.252-1.815
		c-1.359,3.246-3.68,5.827-6.084,8.269C353.559,222.431,356.576,221.85,356.861,222.699z"/>
	<path fill-rule="evenodd" clip-rule="evenodd" fill="#252525" d="M334.688,223.854c-1.992-1.022-0.885-2.745-0.525-3.877
		c1.523-4.803,2.691-9.773,5.557-14.054c0.6,1.026,0.48,2.042-0.047,3.052C338.01,213.934,336.35,218.894,334.688,223.854z"/>
	<path fill-rule="evenodd" clip-rule="evenodd" fill="#252525" d="M280.634,482.799c-0.41,0.041-0.821,0.084-1.231,0.125
		c-2.949-3.869-5.402-8.014-6.98-12.641c-0.245-0.82-0.508-1.639,0.148-2.402c1.678,2.98,3.356,5.961,5.034,8.941
		C279.851,478.189,281.065,480.076,280.634,482.799z"/>
	<path fill-rule="evenodd" clip-rule="evenodd" fill="#5B5B5B" d="M377.592,233.852c0.021-0.699,0.043-1.398,0.066-2.098
		c4.365,2.596,8.443,5.509,11.078,10.018c-2.592,0.61-3.186-2.346-5.137-2.879C381.596,237.212,379.594,235.533,377.592,233.852z"/>
	<path fill-rule="evenodd" clip-rule="evenodd" fill="#929292" d="M377.646,130.792c-0.609-0.528-1.395-0.951-1.787-1.609
		c-0.617-1.031-1.715-2.214-0.059-3.352c1.246-0.855,2.166-0.219,2.951,0.701c0.943,1.104,1.811,2.271,2.711,3.412
		C380.918,133.507,378.885,130.36,377.646,130.792z"/>
	<path fill-rule="evenodd" clip-rule="evenodd" fill="#0C0C0C" d="M355.6,436.846c4.199,3.762,4.203,5.541,0.016,7.018
		c1.24-2.709,1.559-5.021-2.582-3.875c-1.686,0.469-1.717-1.215-2.773-1.309C352.039,438.068,353.818,437.457,355.6,436.846z"/>
	<path fill-rule="evenodd" clip-rule="evenodd" fill="#515151" d="M393.514,249.94c-0.311-0.363-0.621-0.728-0.932-1.091
		c-0.531-0.736-0.611-1.452,0.096-2.133c0.152,0.057,0.334,0.079,0.453,0.177c2.203,1.822,3.109,4.136,2.342,6.919
		c-0.373,1.352-1.646,1.495-2.805,1.322c-2.961-0.443-3.713-2.747-4.203-5.223c1.195-0.71,1.568,0.272,2.064,1.003l-0.01,0.01
		C393.111,252.204,393.227,252.165,393.514,249.94z"/>
	<path fill-rule="evenodd" clip-rule="evenodd" fill="#333333" d="M359.738,459.139c-0.375-0.432-0.75-0.863-1.127-1.295
		c0.664-5.314,0.152-10.789,2.164-15.922C360.6,447.672,361.135,453.463,359.738,459.139z"/>
	<path fill-rule="evenodd" clip-rule="evenodd" fill="#1D1D1D" d="M392.678,246.716c-0.031,0.711-0.062,1.422-0.094,2.133
		c-2.996-3.319-5.99-6.638-8.984-9.956c2.35-0.179,3.031,2.62,5.137,2.879C390.422,243.124,391.756,244.756,392.678,246.716z"/>
	<path fill-rule="evenodd" clip-rule="evenodd" fill="#A1A1A1" d="M363.732,141.78c0.26-1.02-1.555-1.872-0.24-2.976
		c0.621-0.425,0.922-1.555,2.023-0.918c0.564,0.785,1.344,1.496,1.641,2.372c0.447,1.321,1.262,3.159-0.234,4.002
		C364.525,145.61,364.809,142.638,363.732,141.78z"/>
	<path fill-rule="evenodd" clip-rule="evenodd" fill="#A2A2A2" d="M327.549,111.879c1.033,1.964,2.066,3.928,3.098,5.892
		c-1.445-0.919-2.844-1.344-4.531-0.363c-1.395,0.81-2.57,0.59-2.457-1.462C324.514,114.167,326.041,113.033,327.549,111.879z"/>
	<path fill-rule="evenodd" clip-rule="evenodd" fill="#6C6C6C" d="M348.664,190.924c-0.463-1.268,0.564-3.116-1.309-3.804
		c-1.473-0.541-2.475,0.188-2.977,1.631c-0.283,0.316-0.562,0.633-0.844,0.948c-0.658,0.376-1.316,0.752-1.973,1.129
		c-0.076-1.45,1.049-2.312,1.684-3.409c1.355-2.342,3.715-3.29,5.727-1.859C350.744,186.82,350.67,189.228,348.664,190.924z"/>
	<path fill-rule="evenodd" clip-rule="evenodd" fill="#646464" d="M206.564,246.966c-0.074,0.921-0.147,1.842-0.224,2.763
		c-2.001,1.82-4.018,3.614-6.841,4.041c0.581-2.733,6.038-2.609,4.025-6.864C204.538,246.926,205.551,246.946,206.564,246.966z"/>
	<path fill-rule="evenodd" clip-rule="evenodd" fill="#535353" d="M183.528,275.781c0.636,1.222-0.664,3.288,1.385,3.808
		c2.122,0.538,2.3-2.038,3.716-2.733c0.014,0.164,0.066,0.336,0.037,0.492c-0.471,2.486-1.007,5.589-4.353,4.481
		C181.106,280.767,182.271,278.024,183.528,275.781z"/>
	<path fill-rule="evenodd" clip-rule="evenodd" fill="#767676" d="M256.513,242.967c1.594-0.706,4.16,1.26,4.908-1.698
		c0.592-2.333-1.998-2.151-2.845-3.368c1.974-0.425,3.692-0.108,4.539,1.941c0.438,1.064,0.826,2.579-0.13,3.286
		C260.925,244.652,258.642,244.332,256.513,242.967z"/>
	<path fill-rule="evenodd" clip-rule="evenodd" fill="#B7B7B7" d="M194.905,267.96c2.653-2.379,5.307-4.758,7.961-7.137
		c-1.879,4.056-4.943,6.955-8.834,9.047C193.552,268.881,194.708,268.64,194.905,267.96z"/>
	<path fill-rule="evenodd" clip-rule="evenodd" fill="#EBEBEB" d="M327.549,111.879c0.189,2.777-2.295,2.996-3.891,4.066
		c-0.898-2.878,1.07-4.947,2.057-7.296C326.326,109.726,326.938,110.803,327.549,111.879z"/>
	<path fill-rule="evenodd" clip-rule="evenodd" fill="#262626" d="M322.697,234.054c3.412-3.124,7.443-4.783,12.047-5.084
		C331.092,231.524,326.869,232.73,322.697,234.054z"/>
	<path fill-rule="evenodd" clip-rule="evenodd" fill="#1D1D1D" d="M390.529,250.915c-0.689-0.334-1.377-0.669-2.064-1.003
		c-1.32-1.635-2.639-3.27-3.959-4.903c-0.332-0.709-1.637-1.042-0.844-2.186C387.615,244.106,389.09,247.495,390.529,250.915z"/>
	<path fill-rule="evenodd" clip-rule="evenodd" fill="#ADADAD" d="M331.586,123.599c0.408,0.387,0.818,0.773,1.227,1.16
		c-0.881,2.281-2.16,4.26-4.494,6.277C327.656,127.258,329.969,125.584,331.586,123.599z"/>
	<path fill-rule="evenodd" clip-rule="evenodd" fill="#333333" d="M360.76,441.971c-1.336-1.932-1.115-5.197-4.559-5.32
		c1.414-1.205,3.027-1.604,4.289-0.076C361.807,438.168,361.934,440.107,360.76,441.971z"/>
	<path fill-rule="evenodd" clip-rule="evenodd" fill="#4D4D4D" d="M339.672,208.975c0.016-1.018,0.029-2.036,0.045-3.053
		c0.629-1.417,0.352-3.228,1.854-4.267c0.398,0.095,0.797,0.191,1.195,0.288C342.359,204.563,341.191,206.845,339.672,208.975z"/>
	<path fill-rule="evenodd" clip-rule="evenodd" fill="#4F4F4F" d="M190.519,255.875c0.035-0.358,0.07-0.717,0.105-1.074
		c2.642,0.664,5.295,2.234,7.902-0.094C196.555,259.883,193.43,257.147,190.519,255.875z"/>
	<path fill-rule="evenodd" clip-rule="evenodd" fill="#252525" d="M345.566,221.764c0.021,0.369,0.043,0.738,0.062,1.108
		c-0.41,0.864-0.932,1.501-2.018,0.995c-2.439-0.047-4.879-0.094-7.318-0.142C339.195,222.182,342.586,222.938,345.566,221.764z"/>
	<path fill-rule="evenodd" clip-rule="evenodd" fill="#B0B0B0" d="M366.756,138.825c-0.674,0.306-1.348,0.612-2.021,0.918
		c0.553-2.111-0.805-3.948-0.859-5.973c0.266-0.447,0.555-0.462,0.865-0.044c0.305,0.374,0.609,0.748,0.914,1.122
		C366.021,136.173,366.389,137.5,366.756,138.825z"/>
	<path fill-rule="evenodd" clip-rule="evenodd" fill="#595959" d="M383.662,242.823c0.281,0.729,0.562,1.457,0.844,2.186
		c-2.189-0.734-3.799-2.146-4.879-4.177c0.348-0.076,0.695-0.151,1.043-0.228C381.666,241.342,382.664,242.083,383.662,242.823z"/>
	<path fill-rule="evenodd" clip-rule="evenodd" fill="#535353" d="M186.408,269.575c0.096,0.431,0.191,0.862,0.288,1.293
		c-1.286,1.499-1.349,3.785-3.174,4.938C183.61,273.324,184.541,271.232,186.408,269.575z"/>
	<path fill-rule="evenodd" clip-rule="evenodd" fill="#DCDCDC" d="M393.873,579.408c1.268-0.443,1.965-0.748,2.691-0.926
		c0.789-0.191,1.277,0.227,1.152,1.014c-0.148,0.953-0.871,1.381-1.775,1.141C395.383,580.49,394.904,580.039,393.873,579.408z"/>
	<path fill-rule="evenodd" clip-rule="evenodd" fill="#DDDDDD" d="M361.271,159.784c-1.887-1.508-1.574-2.778-0.982-4.291
		C361.457,156.642,362.068,157.739,361.271,159.784z"/>
	<path fill-rule="evenodd" clip-rule="evenodd" fill="#2C2526" d="M389.178,115.02c2.229,0.325,4.586,0.235,6.373,1.981
		C393.174,117.15,390.982,116.708,389.178,115.02z"/>
	<path fill-rule="evenodd" clip-rule="evenodd" fill="#252525" d="M340.494,227.569c0.449,0.123,0.898,0.246,1.348,0.369
		c-2.322,0.854-4.748,0.99-7.186,1.059C336.197,226.871,338.604,228.273,340.494,227.569z"/>
	<path fill-rule="evenodd" clip-rule="evenodd" fill="#D9D9D9" d="M368.912,151.789c-0.695,0.331-1.23,0.765-1.43,0.645
		c-0.51-0.31-1.121-0.811-1.234-1.334c-0.195-0.896,0.574-1.123,1.227-0.795C367.979,150.558,368.314,151.148,368.912,151.789z"/>
	<path fill-rule="evenodd" clip-rule="evenodd" fill="#333333" d="M272.571,467.881c-0.049,0.801-0.099,1.602-0.148,2.402
		c-1.259-1.162-1.95-2.592-2.041-4.307C271.111,466.611,271.841,467.246,272.571,467.881z"/>
	<path fill-rule="evenodd" clip-rule="evenodd" fill="#2C2526" d="M383.586,112.66c-2.725-0.106-4.875-2.782-7.855-1.757
		c-1.17,0.48-1.27-0.171-1.133-1.072c2.043-0.365,4.389,0.857,6.115-1.17c2.42,0.323,4.561,1.226,6.277,3.017
		C386.201,113.2,383.785,109.089,383.586,112.66z"/>
	<path fill-rule="evenodd" clip-rule="evenodd" fill="#2C2526" d="M387.598,111.816c4.609,1.07,9.145,2.637,13.996,2.092
		C396.525,115.911,391.885,115.036,387.598,111.816z"/>
	<path fill-rule="evenodd" clip-rule="evenodd" fill="#2A2425" d="M429.693,88.583c4.102,3.699,4.736,8.663,1.617,12.639
		c-2.949,3.757-9.406,4.69-13.48,1.949c-4.771-3.21-5.693-7.36-2.746-12.373c3.529-6.006,6.947-7.185,11.768-4.06
		c-0.836,1.607,2.092,2.779,0.516,4.477c-0.824,0.329-1.586,0.092-2.391-0.149c-3.355-1.003-5.975,0.366-6.57,3.528
		c-0.568,3.017,1.197,4.69,3.801,5.443c2.777,0.804,5.342-1.223,5.932-4.452c0.207-1.138-0.127-2.3,0.037-3.446
		C428.887,91.045,428.793,89.601,429.693,88.583z"/>
	<path fill-rule="evenodd" clip-rule="evenodd" fill="#292222" d="M457.59,85.935c0.863-0.334,1.287-1.586,2.498-1.195
		c1.9-0.486,3.801-0.669,5.693,0.038c0.891,0.389,1.82,0.708,2.668,1.176c9.143,5.048,9.312,6.552,1.619,14.019
		c-2.5,0.603-4.992,0.516-7.477-0.104c-3.213-1.354-6.424-2.772-7.941-6.218c-0.67-1.521-2.248-3.151-0.217-4.853
		C455.418,87.771,456.244,86.566,457.59,85.935z"/>
	<path fill-rule="evenodd" clip-rule="evenodd" fill="#2D2223" d="M460.518,70.879c-2.232-0.521-3.734-2.005-5.008-3.792
		c-0.949-2.973-0.633-5.795,1.01-8.458c0.746-1.749,2.396-2.646,3.67-3.899c2.416-1.123,4.855-2.058,7.551-0.935
		c2.412,1.606,6.918,1.514,6.543,5.448c-0.463,4.862-3.049,9.027-7.484,11.678C464.701,71.547,462.605,71.607,460.518,70.879z"/>
	<path fill-rule="evenodd" clip-rule="evenodd" fill="#191717" d="M429.693,88.583c0.289,1.358,1.566,3.077-1.213,3.313
		c-0.719,0.189-0.996-0.145-0.979-0.827c1.209-1.657-4.816-2.229-0.65-4.331C427.799,87.353,428.746,87.968,429.693,88.583z"/>
	<path fill-rule="evenodd" clip-rule="evenodd" fill="#22191A" d="M381.736,106.218c0.678-2.87,2.361-4.957,4.939-6.347
		C385.742,102.542,384.777,105.188,381.736,106.218z"/>
	<path fill-rule="evenodd" clip-rule="evenodd" fill="#2C2627" d="M456.52,58.629c-0.336,2.819-0.672,5.639-1.008,8.458
		C453.133,63.945,454.385,61.234,456.52,58.629z"/>
	<path fill-rule="evenodd" clip-rule="evenodd" fill="#2C2627" d="M467.74,53.795c-2.516,0.312-5.031,0.623-7.549,0.934
		C462.508,52.806,464.986,52.201,467.74,53.795z"/>
	<path fill-rule="evenodd" clip-rule="evenodd" fill="#2D2627" d="M462.592,99.869c2.492,0.035,4.982,0.069,7.475,0.104
		C467.559,101.291,465.064,101.356,462.592,99.869z"/>
	<path fill-rule="evenodd" clip-rule="evenodd" fill="#2C2627" d="M460.518,70.879c2.094,0.014,4.188,0.028,6.281,0.042
		C464.693,72.466,462.604,71.979,460.518,70.879z"/>
	<path fill-rule="evenodd" clip-rule="evenodd" fill="#2D2627" d="M457.59,85.935c-0.74,1.3-1.656,2.403-3.156,2.863
		C455.014,87.324,455.66,85.922,457.59,85.935z"/>
	<path fill-rule="evenodd" clip-rule="evenodd" fill="#2D2627" d="M465.781,84.778c-1.896-0.013-3.793-0.026-5.691-0.039
		C461.992,83.839,463.891,83.614,465.781,84.778z"/>
	<path fill-rule="evenodd" clip-rule="evenodd" fill="#747474" d="M402.664,77.889c-2.344-0.907-3.234-4-6.131-4.073
		c-1.242-3.284,1.021-6.666-0.281-9.951c0.586-1.409,1.568-2.292,3.156-2.366c1.672,0.698,3.736-0.127,5.217,1.332l-0.006-0.004
		c1.201,1.064-2.061,3.501,1.207,3.93c1.283,1.467,3.682,1.192,4.727,3.03C403.988,68.657,405.074,74.975,402.664,77.889z"/>
	<path fill-rule="evenodd" clip-rule="evenodd" fill="#868686" d="M404.625,62.831c-1.586-0.908-3.975,1.949-5.107-1.089
		c-0.982-1.195-0.596-2.479-0.25-3.765c0.27-0.366,0.617-0.631,1.039-0.8c0.434-0.113,0.875-0.149,1.322-0.121
		c0.439,0.073,0.854,0.225,1.244,0.441c1.332,0.745,1.158,2.238,1.68,3.389C404.576,61.535,404.602,62.182,404.625,62.831z"/>
	<path fill-rule="evenodd" clip-rule="evenodd" fill="#EEEEEE" d="M403.539,58.097c-0.27-0.066-0.543-0.118-0.818-0.157
		c1.057-2.999,3.902-4.893,4.898-7.928c2.049,1.054-0.348,4.787,3.035,5.039c0.314,1.739-0.961,2.308-2.16,2.932
		c-0.342,0.049-0.684,0.097-1.025,0.146C406.152,58.972,404.842,58.892,403.539,58.097z"/>
	<path fill-rule="evenodd" clip-rule="evenodd" fill="#A9A9A9" d="M407.496,57.813c-0.131-1.603,1.43-1.961,2.158-2.932
		c1.188,0.178,3.111-0.754,3.393,0.782c0.461,2.517-2.689,1.625-3.641,3.011C408.605,58.75,407.951,58.5,407.496,57.813z"/>
	<path fill-rule="evenodd" clip-rule="evenodd" fill="#BDBDBD" d="M403.539,58.096c1.311,0.011,2.621,0.021,3.93,0.031
		c-0.639,0.977-1.277,1.952-1.916,2.929C404.881,60.07,404.211,59.083,403.539,58.096z"/>
	<path fill-rule="evenodd" clip-rule="evenodd" fill="#868686" d="M405.826,66.756c-3.535-0.346-2.85-1.99-1.207-3.93
		C406.062,63.816,405.334,65.474,405.826,66.756z"/>
	<path fill-rule="evenodd" clip-rule="evenodd" fill="#F8B8BD" d="M344.645,101.006c-0.229-2.833,1.99-3.623,4.131-4.521
		c0.943,0.378,0.715,1.978,1.736,1.628c1.135-0.389,0.262-1.762,0.348-2.702c-0.016-0.758,0.158-1.46,0.549-2.112
		c3.236-3.731,7.799-4.578,12.271-5.408c2.389-0.443,4.826-0.762,7.242-1.09c3.457-0.289,7.518,1.174,9.533-3.309
		c3.455-2.151,3.557,0.534,3.979,2.756c-0.064,2.516,2.363,5.02,0.035,7.545c-1.168,1.619,0.131,3.569-0.703,5.233
		c-0.76,0.896-1.52,1.791-2.279,2.686c-1.043,1.381-2.533,2.301-3.682,3.571c-1.361,0.833-1.367,2.588-2.211,4.377l0.07-0.085
		c-5.943,4.059-12.289,2.798-18.48,0.805c-3.742-1.204-7.332-3.018-10.516-5.459C345.467,103.89,344.506,102.731,344.645,101.006z"
		/>
	<path fill-rule="evenodd" clip-rule="evenodd" fill="#3A3A3A" d="M383.436,86.078c-1.189-0.865-1.059-4.046-3.811-2.174
		c-0.617-1.142,0.307-3.034-1.717-3.494c-1.725-1.311-3.057-2.94-4.062-4.849c-1.643-4.557-0.713-9.827-3.9-13.953
		c-0.51-0.863-0.93-1.756-0.857-2.795c0.053-0.153,0.113-0.446,0.162-0.444c5.158,0.193,9.516-2.635,14.314-3.782
		c0.719,5.707,5.756,5.401,9.543,6.767c1.184,0.427,2.639-0.366,3.799,0.589c0.322,0.724,0.217,1.39-0.262,2.007
		c3.256,3.326,0.127,6.581-0.111,9.867c-1.561,1.032-0.682,2.663-0.982,4.004c-3.219,2.062-0.406,5.581-1.943,8.05
		c-1.654-1.726-2.973-3.575-5.549-4.497c-3.508-1.254-2.305,1.029-2.465,2.477C382.883,82.662,383.898,85.085,383.436,86.078z"/>
	<path fill-rule="evenodd" clip-rule="evenodd" fill="#211C1C" d="M345.967,103.724c3.826,1.901,7.545,4.073,11.504,5.639
		c5.664,2.24,11.369,1.182,16.953-0.727c0.059,0.398,0.115,0.797,0.174,1.194c0.377,0.357,0.756,0.715,1.133,1.071
		c-0.387,0.302-0.773,0.603-1.16,0.904c-2.088,1.473-4.697,1.177-6.959,2.057v-0.001c-9.359,0.553-17.346-2.671-24.258-8.837
		C343.861,103.86,344.607,103.175,345.967,103.724z"/>
	<path fill-rule="evenodd" clip-rule="evenodd" fill="#22191A" d="M376.59,104.846c0.92-1.55,2.232-2.636,3.896-3.305
		c-0.414,1.571-0.904,3.079-2.809,3.433C377.271,105.31,376.908,105.267,376.59,104.846z"/>
	<path fill-rule="evenodd" clip-rule="evenodd" fill="#211C1C" d="M376.59,104.846c0.363,0.042,0.725,0.084,1.088,0.127
		c-1.172,1.192-1.654,2.997-3.324,3.748C374.975,107.358,374.678,105.464,376.59,104.846z"/>
	<path fill-rule="evenodd" clip-rule="evenodd" fill="#3B2B2D" d="M382.768,98.856c0.623-1.692-2.268-3.856,0.701-5.233
		C383.434,95.393,384.406,97.3,382.768,98.856z"/>
	<path fill-rule="evenodd" clip-rule="evenodd" fill="#929292" d="M397.547,84.432c-3.107-0.483-2.545-2.532-1.955-4.592
		C396.914,81.085,397.029,82.845,397.547,84.432z"/>
	<path fill-rule="evenodd" clip-rule="evenodd" fill="#272223" d="M274.609,41.94c4.59,0.811,10.378,8.034,10.606,13.237
		c0.24,5.483-4.757,12.41-9.852,13.604c-1.649,0.386-3.292,0.379-4.835-0.476c-3.654-2.025-7.093-4.326-9.446-7.888
		c-2.793-4.228-4.296-8.654-1.467-13.483c2.715-4.636,7.055-5.636,11.998-5.172c0.058,2.599-1.565,1.086-2.464,1.432
		c0.834,0.89,3.039-0.822,3.667,1.213c-1.069,1.986-3.156,1.544-4.85,1.974c-3.657,0.928-5.263,3.267-4.968,6.949
		c0.294,3.686,5.896,10.109,9.437,10.761c3.817,0.702,5.278-2.29,6.781-4.787c1.734-2.879,1.288-5.681-1.139-8.174
		c-1.916-1.969-5.053-2.774-5.716-5.943c1.562-2.166,3.243,0.058,4.865-0.095C276.255,44.097,274.353,43.924,274.609,41.94z"/>
	<path fill-rule="evenodd" clip-rule="evenodd" fill="#282424" d="M319.756,20.882c0.926,7.917-3.4,13.133-9.348,17.166
		c-3.584,2.432-7.461,2.041-11.139-0.612c-5.336-3.849-7.911-9.212-7.354-15.454c0.574-6.44,4.553-11.362,10.081-14.602
		c2.738-1.604,5.985-1.933,8.833,0.38c-1.891,1.762-4.209-0.141-6.162,0.719c1.404,0.122,3.13-0.976,4.148,0.981
		c-3.781,2.423-8.235,3.739-10.463,8.422c-2.452,5.155-1.725,11.249,2.668,14.905c2.855,2.377,5.877,2.161,8.729,0.162
		c3.797-2.662,5.502-6.441,5.633-11.107c0.059-2.117-0.924-4.801,1.996-6.064c2.668,3.191,0.012,6.383,0.457,9.419
		C319.51,24.57,316.379,21,319.756,20.882z"/>
	<path fill-rule="evenodd" clip-rule="evenodd" fill="#2A2525" d="M330.592,64.933c2.586,2.814,3.863,6.291,3.479,9.937
		c-0.508,4.817-3.01,9.103-7.25,11.313c-3.902,2.034-6.684-1.754-9.547-3.809c-1.727-1.239-3.27-2.812-4.654-4.439
		c-6.336-7.46-4.254-14.504,5.26-16.478c2.607-0.541,4.701-4.003,7.871-1.692c-0.928,2.55-3.215,2.31-5.174,2.594
		c1.059,0.301,2.758-0.805,3.244,1.246c-1.289,1.867-3.502,1.66-5.314,2.328c-4.848,1.786-5.648,4.513-2.447,8.671
		c0.912,1.182,1.832,2.378,2.961,3.353c1.939,1.677,3.832,4.515,6.746,2.532c2.711-1.846,3.914-4.851,3.262-8.321
		c-0.395-2.101-2.074-3.84-1.711-6.146C328.006,64.456,329.953,66.663,330.592,64.933z"/>
	<path fill-rule="evenodd" clip-rule="evenodd" fill="#1F1A1A" d="M370.592,87.766c-6.877,1.32-14.201,1.2-19.926,6.213
		c-1.25-0.854-1.686-2.583-3.289-3.057c-1.996-5.898-3.748-11.86-4.807-18.009c-1.154-4.303-1.41-8.844-3.416-12.921
		c-1.145-1.201-0.58-2.659-0.607-4.027c-0.572-3.073-1.182-6.139-2.039-9.148c-1.246-1.353-1.168-3.001-1.041-4.661
		c-0.387-1.826-1.125-3.538-1.729-5.293c-0.041-0.341-0.08-0.681-0.121-1.021c0.371-0.499,0.445-1.241,1.182-1.441
		c2.594,3.028,2.088,7.175,3.793,10.524c0.822,2.97,1.154,6.058,2.174,8.979c0.002,1.234,0.004,2.469,0.006,3.703
		c1.088,1.333,1.795,2.932,2.955,4.217c2.91,6.519,3.598,13.655,5.688,20.398c1.82,5.376,1.83,5.398,7.414,3.244
		c2.002-0.771,4.154-0.852,6.174-1.526c1.662-0.329,3.316-0.474,4.939,0.174c0.51,1.201,1.055,2.372,2.627,2.454
		C370.875,86.966,370.895,87.364,370.592,87.766z"/>
	<path fill-rule="evenodd" clip-rule="evenodd" fill="#211D1E" d="M308.609,9.623c-1.361-1.438-3.431-0.361-4.917-1.862
		c2.377,0,4.756,0,7.135,0c4.49,0.358,6.123,3.792,7.766,7.215c1.264,1.396-0.402,3.505,1.172,4.825
		c0.109,0.258,0.248,0.508,0.307,0.776c0.018,0.075-0.203,0.202-0.316,0.306c-2.02,1.093-0.533,3.328-1.574,4.848
		c-1.836-3.025,1.146-6.9-1.834-9.608c-0.359-0.212-0.686-0.467-0.984-0.756c-0.924-0.888-2.082-1.399-3.207-1.967
		C310.654,12.44,308.836,11.774,308.609,9.623z"/>
	<path fill-rule="evenodd" clip-rule="evenodd" fill="#211B1B" d="M323.6,63.858c-0.971-1.535-2.768-0.722-5.174-1.631
		c3.371-0.291,5.311-1.462,7.324-2.462c2.932,0.487,3.426,3.261,4.842,5.168c0.246,4.276-2.086,0.139-2.92,0.895
		C325.617,66.613,324.436,65.593,323.6,63.858z"/>
	<path fill-rule="evenodd" clip-rule="evenodd" fill="#1B1818" d="M274.609,41.94c1.428,1.95,6.1,2.263,5.028,4.403
		c-1.235,2.467-3.886-1.283-6.148-1.383c-0.327-0.015-0.654-0.031-0.981-0.046l0.037,0.021c-0.863-1.692-2.644-0.835-4.038-1.323
		c0.753-1.291,2.639-0.376,3.106-1.85C272.638,41.384,273.635,41.453,274.609,41.94z"/>
	<path fill-rule="evenodd" clip-rule="evenodd" fill="#080506" d="M347.377,90.922c3.42-1.481,3.023,1.145,3.289,3.057
		c0.025,0.616,0.051,1.232,0.076,1.849c-0.166,0.955,0.525,2.527-1.287,2.408c-2.119-0.141-0.77-2.443-1.809-3.334
		c-1.164-1.053,0.363-2.313-0.264-3.408C347.217,91.305,347.215,91.114,347.377,90.922z"/>
	<path fill-rule="evenodd" clip-rule="evenodd" fill="#252525" d="M334.799,34.401c-0.395,0.48-0.789,0.961-1.182,1.441
		c-0.527-0.851-1.445-1.539-1.137-2.737c0.811-3.681-2.002-6.698-1.879-10.253c0.674,0.666,1.35,1.333,2.023,1.999
		C332.99,28.116,335.432,30.909,334.799,34.401z"/>
	<path fill-rule="evenodd" clip-rule="evenodd" fill="#2D2627" d="M339.154,59.993c2.828,3.86,3.184,8.374,3.416,12.921
		C340.617,68.822,339.943,64.392,339.154,59.993z"/>
	<path fill-rule="evenodd" clip-rule="evenodd" fill="#2D2627" d="M336.508,46.817c1.84,2.791,2.307,5.888,2.039,9.147
		C337.295,53.043,336.609,49.996,336.508,46.817z"/>
	<path fill-rule="evenodd" clip-rule="evenodd" fill="#2D2627" d="M333.738,36.863c1.5,1.462,2.072,3.228,1.729,5.292
		C334.289,40.587,333.713,38.824,333.738,36.863z"/>
	<path fill-rule="evenodd" clip-rule="evenodd" fill="#282424" d="M319.766,19.8c-1.918-1.237-0.922-3.183-1.172-4.826
		C320.182,16.292,319.865,18.073,319.766,19.8z"/>
	<path fill-rule="evenodd" clip-rule="evenodd" fill="#110F0F" d="M345.967,103.724c-0.871,0.434-1.742,0.867-2.613,1.301
		c-2.355-1.26-4.709-2.522-6.629-4.432c2.34-0.861,4.688-1.931,6.922,0.243C344.42,101.799,345.193,102.761,345.967,103.724z"/>
	<path fill-rule="evenodd" clip-rule="evenodd" fill="#4B3839" d="M347.646,94.902c1.248-0.416,0.771,4.936,3.096,0.926
		c1.396,2.026,0.506,3.936-1.41,4.072c-2.26,0.161-1.518-2.348-1.797-3.826C347.572,95.683,347.609,95.292,347.646,94.902z"/>
	<path fill-rule="evenodd" clip-rule="evenodd" fill="#999999" d="M372.457,42.806c0.148-1.24-0.482-2.21-1.049-3.232
		c-3.145-5.67-2.459-9.941,2.098-13.329c5.73-4.261,10.623-4.102,15.416,0.458c1.217,1.158,2.371,2.326,2.727,4.05
		c0.314,0.352,0.414,0.75,0.262,1.202c-0.277,0.427-0.854,1.042-1.094,0.886c-1.883-1.223-1.637,0.89-2.367,1.435
		c-4.037,1.797-5.674,6.192-9.221,8.53C376.969,43.106,374.711,43.905,372.457,42.806z"/>
	<path fill-rule="evenodd" clip-rule="evenodd" fill="#858585" d="M372.457,42.806c2.268-1.227,4.732-0.966,7.164-0.945
		c2.697,2.086,4.184,4.002-0.812,4.721c-4.344,0.625-1.873,4.571-3.299,6.605c-2.102,0.7-4.574,0.484-6.162,2.491
		c-1.078,0.214-2.076,0.064-2.971-0.611c-0.566-0.661-0.826-1.443-0.938-2.288c-0.098-1.455,0.195-2.797,1.154-3.942
		C368.023,46.316,370.207,44.529,372.457,42.806z"/>
	<path fill-rule="evenodd" clip-rule="evenodd" fill="#AAAAAA" d="M391.65,31.723c-0.023-0.323-0.023-0.646-0.002-0.971
		c1.234,0.657,2.469,1.314,3.703,1.971c3.809-1.409,5.939,0.298,6.178,4.953c2.654,3.654-1.58,10.191,5.09,12.166
		c1.197,4.391-2.158,5.969-4.896,7.928c-0.381-0.016-0.762-0.03-1.143-0.045c-1.559-0.652-1.992-1.927-1.156-3.216
		c1.402-2.159,1.053-4.438,0.941-6.736c0.453-3.912-1.371-6.854-4.029-9.44C395.182,35.84,392.445,34.467,391.65,31.723z"/>
	<path fill-rule="evenodd" clip-rule="evenodd" fill="#606060" d="M366.654,54.674c0.98,0.06,1.963,0.118,2.945,0.178
		c-0.068,1.334-0.961,2.661-0.035,4.004c0.342,0.666,0.682,1.332,1.023,1.998c0.461,1.124-0.346,1.564-1.123,1.517
		c-2.857-0.178-5.295,1.108-7.85,2.026c-0.49,0.079-0.979,0.086-1.471,0.033c-1.475-0.266-2.984-0.489-4.318-1.174
		c-3.078-1.577-6.129-2.482-9.504-0.783c-1.262,0.636-2.604,0.19-3.775-0.586c-0.936-1.283-1.709-2.635-1.775-4.279
		c1.869,1.454,3.266,2.647,6.25,1.181c2.512-1.235,6.023-0.108,8.725,1.648c3.158,2.056,4.906,1.513,4.805-2.55
		c0.529-2.378,3.092-0.331,4.006-1.859C365.25,55.572,365.855,54.97,366.654,54.674z"/>
	<path fill-rule="evenodd" clip-rule="evenodd" fill="#BDBDBD" d="M402.527,37.846c-1.561-2.27-2.135-5.771-6.176-4.952
		c0.689-2.646,2.504-3.792,5.088-3.364c1.848,0.306,3.375,1.468,3.895,3.361C406.014,35.362,404.832,36.967,402.527,37.846z"/>
	<path fill-rule="evenodd" clip-rule="evenodd" fill="#989898" d="M365.631,56.854c-1.568,0.957-3.191,1.654-5.08,1.033
		c-0.029-3.098,0.936-6.486-2.822-8.73c3.211,0.923,6.172,2.76,8.865-0.32c0,1.362-0.002,2.725-0.002,4.087
		C364.166,53.719,366.934,55.785,365.631,56.854z"/>
	<path fill-rule="evenodd" clip-rule="evenodd" fill="#2D2627" d="M340.766,53.905c-1.795-2.734-2.363-5.765-2.174-8.979
		C340.109,47.727,340.854,50.715,340.766,53.905z"/>
	<path fill-rule="evenodd" clip-rule="evenodd" fill="#E9E9E9" d="M362.908,42.755c-0.312-0.458-0.854-0.932-0.953-1.485
		c-0.109-0.61,0.533-0.712,0.908-0.36c0.451,0.421,0.744,1.009,1.105,1.524C363.682,42.521,363.396,42.608,362.908,42.755z"/>
	<path fill-rule="evenodd" clip-rule="evenodd" fill="#151515" d="M280.634,482.799c-1.01-1.992-2.02-3.982-3.029-5.975
		c0-0.996,0-1.992-0.001-2.988c2.311,0.346,2.116,2.68,2.894,4.047c4.576,8.053,12.082,13.375,18.292,19.867
		c1.912,1.998,3.254,4.477,5.688,6.137c10.025,6.844,24.673,4.555,34.015-3.682c4.059-3.578,6.186-8.834,11.102-11.367
		c0.006,1.012,0.01,2.021,0.014,3.033c-3.387,6.846-8.615,11.957-15.016,15.969c-11.32,4.709-22.352,4.549-32.999-1.979
		C293.612,499.078,286.531,491.477,280.634,482.799z"/>
	<path fill-rule="evenodd" clip-rule="evenodd" fill="#999999" d="M363.5,132.788l-0.432,0.045h-0.434
		c-0.398-0.954-0.797-1.907-1.197-2.859c0.688-0.383,1.375-0.767,2.062-1.149C363.5,130.145,363.5,131.466,363.5,132.788z"/>
	<path fill-rule="evenodd" clip-rule="evenodd" fill="#141414" d="M326.635,300.803c-2.043-16.692-3.533-33.471-7.545-49.859
		c-0.539-2.206-0.254-3.616,2.131-4.032c2.268-0.395,2.947,0.659,3.492,2.921c4.166,17.343,6.801,34.891,8.064,52.679
		c0.172,2.416,0.854,4.854,0.834,7.343c1.199,1.887-0.248,4.183,0.941,6.071c-0.855,2.651,0.498,5.284,0.066,7.933
		c1.18,1.891-0.246,4.181,0.928,6.072c0.023,3.309,0.045,6.617,0.066,9.925c1.236,2.234-0.293,4.836,0.938,7.07
		c-0.873,2.647,0.51,5.28,0.053,7.925c1.295,2.575-0.328,5.494,0.953,8.07c-0.855,2.65,0.494,5.285,0.055,7.933
		c0.719,1.668,0.758,3.332-0.027,4.991l0.012-0.012c-1.656,0.791-3.318,0.734-4.986,0.038c-1.592-3.216-1.139-6.642-1.029-10.032
		c-1.182-1.89,0.248-4.18-0.932-6.07c-0.021-3.308-0.041-6.615-0.062-9.923c-1.258-2.914,0.326-6.128-0.953-9.04
		c-0.018-2.653-0.033-5.307-0.051-7.961c-1.186-1.885,0.244-4.169-0.928-6.056c-0.021-2.647-0.043-5.295-0.064-7.942
		c-1.203-1.881,0.244-4.172-0.938-6.056c-0.02-1.98-0.039-3.962-0.059-5.943C326.373,304.975,327.854,302.675,326.635,300.803z"/>
	<path fill-rule="evenodd" clip-rule="evenodd" fill="#282828" d="M329.633,340.805c1.881,2.849,0.574,6.033,0.953,9.04
		C328.645,347.003,329.996,343.814,329.633,340.805z"/>
	<path fill-rule="evenodd" clip-rule="evenodd" fill="#2C2C2C" d="M337.557,362.92c-1.85-2.509-0.574-5.388-0.953-8.07
		C338.58,357.345,337.197,360.235,337.557,362.92z"/>
	<path fill-rule="evenodd" clip-rule="evenodd" fill="#2C2C2C" d="M336.551,346.925c-1.764-2.164-0.623-4.714-0.938-7.07
		C337.498,342.003,336.248,344.568,336.551,346.925z"/>
	<path fill-rule="evenodd" clip-rule="evenodd" fill="#282828" d="M326.635,300.803c1.705,1.795,0.682,4.022,0.959,6.044
		C325.824,305.062,326.895,302.828,326.635,300.803z"/>
	<path fill-rule="evenodd" clip-rule="evenodd" fill="#2C2C2C" d="M334.553,315.925c-1.664-1.814-0.678-4.04-0.941-6.071
		C335.398,311.649,334.307,313.891,334.553,315.925z"/>
	<path fill-rule="evenodd" clip-rule="evenodd" fill="#282828" d="M327.652,312.791c1.672,1.809,0.678,4.029,0.938,6.056
		C326.828,317.052,327.887,314.822,327.652,312.791z"/>
	<path fill-rule="evenodd" clip-rule="evenodd" fill="#2C2C2C" d="M335.547,329.93c-1.648-1.819-0.678-4.039-0.928-6.072
		C336.395,325.658,335.311,327.895,335.547,329.93z"/>
	<path fill-rule="evenodd" clip-rule="evenodd" fill="#282828" d="M328.654,326.789c1.666,1.812,0.672,4.029,0.928,6.056
		C327.828,331.047,328.883,328.82,328.654,326.789z"/>
	<path fill-rule="evenodd" clip-rule="evenodd" fill="#2C2C2C" d="M330.648,359.768c1.654,1.817,0.686,4.038,0.932,6.071
		C329.805,364.04,330.889,361.802,330.648,359.768z"/>
	<path fill-rule="evenodd" clip-rule="evenodd" fill="#2C2C2C" d="M337.584,375.844c0.008-1.664,0.018-3.327,0.027-4.991
		C339.066,372.525,339.098,374.189,337.584,375.844z"/>
	<path fill-rule="evenodd" clip-rule="evenodd" fill="#2C2C2C" d="M332.609,375.871c1.662-0.013,3.324-0.025,4.986-0.037
		C335.945,377.348,334.283,377.317,332.609,375.871z"/>
	<path fill-rule="evenodd" clip-rule="evenodd" fill="#0D0D0D" d="M240.544,241.818c-2.976,1.21-5.953,1.187-8.934,0.017
		c-0.662-0.99-1.325-1.981-1.988-2.972c-0.103-5.364-5.154-6.433-8.228-8.979c-5.291-4.384-11.168-8.062-16.798-12.035
		c-0.009-1.688,0.812-1.712,2.002-1c4.982,3.368,9.965,6.736,14.947,10.106c5.729,4.28,10.286,10.3,17.79,11.949
		C241.059,239.283,241.443,240.307,240.544,241.818z"/>
	<path fill-rule="evenodd" clip-rule="evenodd" fill="#7F7F7F" d="M367.611,113.863c2.088-1.469,4.555-1.659,6.959-2.057
		C372.699,114.012,370.156,113.939,367.611,113.863z"/>
	<path fill-rule="evenodd" clip-rule="evenodd" fill="#161616" d="M261.833,263.833c-0.561-2.604,0.651-4.391,3.062-4.736
		c2.381-0.342,3.623,1.824,4.018,3.69c1.121,5.3,1.853,10.682,2.738,16.03c1.777,12.577,3.39,25.181,5.417,37.718
		c0.742,4.592,1.067,9.281,1.227,13.796c0.364,10.268,1.897,20.497,1.289,30.802c-0.13,2.206,0.105,4.668-3.086,4.584
		c-3.179-0.084-2.885-2.599-2.903-4.764c-0.228-26.35-2.853-52.453-7.768-78.348C264.632,276.312,264.917,269.724,261.833,263.833z"
		/>
	<path fill-rule="evenodd" clip-rule="evenodd" fill="#0F0F0F" d="M343.611,223.868c0.672-0.332,1.346-0.664,2.018-0.995
		c7.639-4.025,11.633-11.513,16.836-17.831c3.609-4.386,6.869-9.069,11.668-12.368c-5.115,7.104-11.203,13.465-15.564,21.094
		c-2.762,2.29-4.875,5.144-6.947,8.031c1.332,2.475,0.117,3.918-2.02,4.988c-1.666,0.016-3.33,0.031-4.996,0.047
		C344.275,225.844,343.943,224.856,343.611,223.868z"/>
	<path fill-rule="evenodd" clip-rule="evenodd" fill="#1F1F1F" d="M393.6,205.852c3.539-2.191,7.479-2.041,11.406-1.952
		c1.23,0.027,2.363,0.251,2.439,1.799c0.092,1.877-1.229,2.075-2.639,2.098c-3.771,0.061-7.58-0.302-11.236,1.021
		C393.309,207.827,396.66,206.873,393.6,205.852z"/>
	<path fill-rule="evenodd" clip-rule="evenodd" fill="#131313" d="M349.602,226.787c0.984-1.537,2.387-2.904,2.02-4.988
		c0.344,0.312,0.686,0.624,1.029,0.936c4.49,1.681,9.213,2.391,13.881,3.327c-0.818,1.072-3.068,0.614-2.91,2.727
		C359.191,226.411,354.367,226.803,349.602,226.787z"/>
	<path fill-rule="evenodd" clip-rule="evenodd" fill="#1D1D1D" d="M393.514,249.94c1.227,0.935,1.35,2.025-0.098,2.646
		c-1.414,0.606-2.613,0.083-2.895-1.663C391.574,250.769,392.781,251.077,393.514,249.94z"/>
	<path fill-rule="evenodd" clip-rule="evenodd" fill="#1C1C1C" d="M206.599,216.849c-0.821,0.024-1.57,0.194-2.002,1
		c-4.52-0.658-7.643-4.541-12.154-5.266c-0.773-0.124-1.647-0.805-1.301-1.767c0.536-1.489,2.055-1.16,2.976-0.827
		C198.622,211.618,202.984,213.574,206.599,216.849z"/>
	<path fill-rule="evenodd" clip-rule="evenodd" fill="#FAFAFA" d="M428.742,92.008c0.326,0.276,0.652,0.552,0.979,0.827
		c2.443,3.343,1.594,6.521-1.465,8.506c-2.885,1.871-6.213,1.893-8.857-1.222c-3.146-3.706-0.541-6.379,1.508-9.125
		c2.32-3.113,4.428-1.597,6.494,0.422C427.729,91.736,428.289,91.817,428.742,92.008z"/>
	<path fill-rule="evenodd" clip-rule="evenodd" fill="#FAFAFA" d="M472.797,92.899c-0.811,5.37-5.449,7.604-9.736,4.602
		c-1.547-1.083-2.879-2.475-4.309-3.725c-0.074-5.062,4.166-7.486,9.188-4.977C469.785,89.722,471.885,90.704,472.797,92.899z"/>
	<path fill-rule="evenodd" clip-rule="evenodd" fill="#2D2627" d="M471.557,91.96c-2.68-2.022-5.041-4.659-8.85-4.446
		c-3.371,0.188-5.666,1.398-5.195,5.323c-1.922-2.264-0.748-4.025,1.139-5.323C462.65,84.764,469.369,87.153,471.557,91.96z"/>
	<path fill-rule="evenodd" clip-rule="evenodd" fill="#F9F9F9" d="M461.844,68.83c-0.645-0.344-1.291-0.688-1.936-1.032
		c-2.92-3.084-0.559-5.504,1.01-8.023c3.578-3.565,7.117-3.221,10.627,0.107c1.051,1.644,1.5,3.259-0.221,4.773
		c-0.746,0.337-0.906,0.899-0.629,1.63C468.375,69.325,465.65,70.961,461.844,68.83z"/>
	<path fill-rule="evenodd" clip-rule="evenodd" fill="#2C2627" d="M460.604,67.891c3.521,1.14,6.352-0.132,8.852-2.544
		C466.578,70.222,465.033,70.666,460.604,67.891z"/>
	<path fill-rule="evenodd" clip-rule="evenodd" fill="#2C2627" d="M459.678,58.835c-0.809,2.615-2.934,5.064-1.01,8.023
		C454.615,63.631,457.029,61.219,459.678,58.835z"/>
	<path fill-rule="evenodd" clip-rule="evenodd" fill="#2C2627" d="M470.084,63.716c0.475-1.572,0.936-3.146,0.221-4.773
		C472.209,60.625,472.412,62.23,470.084,63.716z"/>
	<path fill-rule="evenodd" clip-rule="evenodd" fill="#3E3E3E" d="M396.645,63.949c-0.02-0.707-0.039-1.414-0.059-2.122
		c-0.197-1.44,0.021-3.012-1.303-4.098c-0.223-1.442,0.148-2.729,1.012-3.888c0.398-0.265,0.832-0.347,1.301-0.25
		c1.396,1.073,1.281,2.862,2.01,4.253c0.928,1.321,0.062,2.603-0.086,3.898C398.561,62.478,397.604,63.213,396.645,63.949z"/>
	<path fill-rule="evenodd" clip-rule="evenodd" fill="#A5A5A5" d="M399.605,57.844c-1.225-1.055-1.799-2.439-2.029-3.998
		c1.186-2.16,1.236-5.012,3.836-6.312c2.195,3.6-2.17,6.664-0.83,10.192C400.254,57.749,399.928,57.788,399.605,57.844z"/>
	<path fill-rule="evenodd" clip-rule="evenodd" fill="#302626" d="M370.592,87.766c0.008-0.292,0.021-0.583,0.039-0.874
		c0.783-1.088,2.012-1.033,3.145-1.226c2.369-0.403,1.551-1.56,0.641-2.738c-0.152-0.731,0.176-1.244,0.738-1.652
		c1.057-0.746,2.496-0.547,3.504-1.42c5.26,0.17,1.242,2.556,0.967,4.048c-0.23,2.807-1.109,4.701-4.568,3.898
		C373.643,87.474,372.084,87.759,370.592,87.766z"/>
	<path fill-rule="evenodd" clip-rule="evenodd" fill="#505050" d="M361.6,64.002c2.232-3.23,5.842-2.528,8.988-3.148
		c4.344,4.214,3.174,9.896,4.006,15.046c1.24,2.018-0.342,2.596-1.674,3.302c-0.471,0.088-0.934,0.034-1.375-0.153
		c-1.652,0.342,1.355-2.617-1.25-1.731c-1.596,0.543-3.172-0.228-4.746-0.522c-1.078-0.307-2.094-0.73-2.908-1.531
		c-0.609-1.206-0.389-2.475-0.273-3.738C363.145,68.912,360.963,66.599,361.6,64.002z"/>
	<path fill-rule="evenodd" clip-rule="evenodd" fill="#2D2D2D" d="M395.596,57.852c4.062,0.396,1.945,2.33,0.99,3.975
		c-4.807,2.649-8.574-0.993-12.611-2.338c-2.068-0.688-1.287-2.998-0.408-4.679c0.822-2.647,0.855-5.267,0.1-7.971
		c-0.479-1.709-0.412-3.521,0.484-5.182c0.84-1.062,1.85-1.659,3.244-1.181c-0.373,5.149,3.061,9.217,4.01,13.986
		C391.799,56.831,394.48,56.379,395.596,57.852z"/>
	<path fill-rule="evenodd" clip-rule="evenodd" fill="#505050" d="M384.639,41.863c-0.359,2.809,0.043,5.597,1.031,8.16
		c0.986,2.562-0.045,3.79-2.104,4.787c-0.318,0.059-0.768,0.003-0.936,0.194c-3.549,4.049-8.049,4.816-13.066,3.852
		c-1.945-1.352-1.494-2.683,0.035-4.004c1.15-3.067,3.803-1.798,5.926-2.054c0.316-0.312,0.697-0.464,1.141-0.464
		c0.938-0.147,2.107,0.841,2.773-0.464c0.178-0.353-0.432-0.702-0.826-0.939c-1.109-1.311-1.145-3.801-0.088-3.773
		c4.195,0.109,3.111-3.811,4.828-5.468C383.811,41.536,384.24,41.584,384.639,41.863z"/>
	<path fill-rule="evenodd" clip-rule="evenodd" fill="#595959" d="M372.576,78.987c0.502-1.142,2.164-1.523,2.018-3.087
		c2.021,0.634,2.541,2.809,4.064,3.956c-0.273,2.059-1.754,1.962-3.258,1.821C373.936,81.331,372.258,81.208,372.576,78.987z"/>
	<path fill-rule="evenodd" clip-rule="evenodd" fill="#FDFDFD" d="M272.891,44.915c1.555,1.211,2.682,2.482,4.286,3.624
		c8.042,5.723,4.318,11.901-0.842,16.174c-0.601,0.497-1.45,0.867-2.223,0.953c-6.017,0.671-14.532-10.772-12.068-16.237
		c2.098-4.651,6.251-4.741,10.5-4.493L272.891,44.915z"/>
	<path fill-rule="evenodd" clip-rule="evenodd" fill="#FDFDFD" d="M308.992,9.623c1.367,1.074,3.074,2.147,4.439,3.222
		c1.002,1.33,2.816,1.354,3.479,3.44l0.605-0.163c0.783,6.713-0.305,12.824-6.062,17.543c-4.174,3.422-8.187,3.516-11.729-0.466
		c-3.448-3.875-5.779-8.57-3.371-13.582C298.819,14.488,301.624,8.93,308.992,9.623z"/>
	<path fill-rule="evenodd" clip-rule="evenodd" fill="#FCFCFC" d="M323.6,63.858c1.357,0.656,2.715,1.312,4.072,1.97
		c2.949,4.977,4.627,9.834,0.139,15.031c-1.854,2.146-3.205,3.002-5.73,1.165c-2.842-2.065-5.395-4.391-7.48-7.181
		c-3.883-5.198-2.361-8.983,4.09-10.307C320.305,64.206,321.961,64.079,323.6,63.858z"/>
	<path fill-rule="evenodd" clip-rule="evenodd" fill="#4C4C4C" d="M362.596,71.864c0.707,1.045,0.471,2.12,0.102,3.198
		c1.061,2.333-0.652,3.615-1.914,5.07c-4.479-0.849-8.385,0.871-12.25,2.771c-1.994-7.005-3.99-14.011-5.986-21.016
		c0.994-0.063,2.283,0.251,2.934-0.254c3.734-2.896,7.207-1.699,10.586,0.48c1.43,0.923,3.4,0.193,4.543,1.718
		C360.127,66.792,363.023,68.917,362.596,71.864z"/>
	<path fill-rule="evenodd" clip-rule="evenodd" fill="#7D7D7D" d="M348.533,82.903c3.293-3.934,7.258-5.184,12.076-3.027
		c0.338,0.863-0.207,1.584-0.359,2.359c0.113,1.207,1.24,1.353,1.99,1.893c0.357,0.241,0.59,0.569,0.703,0.979
		c-3.334,1.336-7.057,1.525-10.166,3.551c-1.664,1.084-2.766,0.554-3.182-1.431C349.293,85.775,348.891,84.344,348.533,82.903z"/>
	<path fill-rule="evenodd" clip-rule="evenodd" fill="#0C0B0B" d="M374.475,82.763c1.631,0.005,2.666,0.218,2.451,2.464
		c-0.193,2.002-1.336,1.43-2.348,1.501c-1.312,0.092-2.631,0.112-3.947,0.164c-1.021-0.309-2.311,0.587-3.062-0.572
		c-0.129-0.197,0.654-0.985,1.018-1.501c-0.332-0.472-0.295-0.913,0.109-1.325C370.527,82.504,372.439,82.144,374.475,82.763z"/>
	<path fill-rule="evenodd" clip-rule="evenodd" fill="#6E6E6E" d="M368.859,84.082c-0.074,0.253-0.164,0.498-0.273,0.737
		c-1.881,0.096-3.762,0.192-5.643,0.288c-0.17-0.134-0.346-0.263-0.525-0.387c-0.209-0.423-0.256-0.864-0.148-1.324
		c0.977-1.995,1.385-4.488,4.213-4.891c1.361,0.445,2.189,1.406,2.631,2.733C369.355,82.21,368.59,83.099,368.859,84.082z"/>
	<path fill-rule="evenodd" clip-rule="evenodd" fill="#282424" d="M316.357,16.115c-0.84-1.512-3.197-1.328-3.648-3.271
		C314.479,13.317,316.607,13.387,316.357,16.115z"/>
	<path fill-rule="evenodd" clip-rule="evenodd" fill="#656565" d="M376.645,52.881c-0.373-0.027-0.746-0.055-1.119-0.083
		c-1.947-6.063-0.881-7.564,5.279-7.34c0.441-1.475-0.869-2.381-1.184-3.598c2.203-3.533,4.033-7.474,8.873-8.128
		c0.619-0.479,1.295-0.428,1.988-0.223c1.051,2.637-1.578,3.016-2.645,4.379c-1.199,1.537-2.996,2.42-4.152,3.979
		c-0.828,2.429,0.109,6.062-4.535,5.834c-0.855-0.042-0.715,2.172,0.389,3.185C380.438,54.258,378.379,53.336,376.645,52.881z"/>
	<path fill-rule="evenodd" clip-rule="evenodd" fill="#7D7D7D" d="M390.621,33.903c-0.709-0.057-1.416-0.112-2.125-0.169
		c-0.564-3.208,2.488-0.73,3.152-2.01c2.078,1.699,4.871,2.826,4.926,6.146C392.908,39.07,391.951,36.208,390.621,33.903z"/>
	<path fill-rule="evenodd" clip-rule="evenodd" fill="#6A6A6A" d="M365.631,56.854c0.297-2.146-2.852-2.17-2.641-4.318
		c1.318-1.028,2.373,0.604,3.602,0.388c0.02,0.585,0.041,1.17,0.062,1.753C366.564,55.52,366.502,56.376,365.631,56.854z"/>
	<path fill-rule="evenodd" clip-rule="evenodd" fill="#555555" d="M390.621,33.903c2.309,0.835,3.086,3.968,5.953,3.967
		c4.703,1.676,4.967,5.573,4.84,9.665c-1.344,2.064-0.758,5.303-3.838,6.312c-0.328,0.014-0.656,0.025-0.984,0.036
		c-0.439,0.298-0.855,0.252-1.248-0.089c-0.451-1.02-0.184-1.823,0.727-2.436c2.947-0.215-0.213-2.222,0.865-2.982
		c0.143-0.434,0.371-0.823,0.652-1.178c2.701-3.19,0.59-4.44-2.191-5.409c-2.551-0.853-4.922-3.024-7.848-1.03
		c-0.971,0.368-1.941,0.736-2.91,1.104l-0.479-0.005l-0.477,0.011C384.195,37.644,388.779,36.967,390.621,33.903z"/>
	<path fill-rule="evenodd" clip-rule="evenodd" fill="#2D2D2D" d="M362.596,71.864c-1.088-1.95-2.148-3.917-3.275-5.846
		c-0.912-1.565-0.062-2.003,1.289-2.187c0.33,0.056,0.66,0.111,0.99,0.169C363.898,67.034,364.307,70.253,362.596,71.864z"/>
	<path fill-rule="evenodd" clip-rule="evenodd" fill="#393939" d="M395.629,53.846c0.32-0.005,0.643,0.008,0.963,0.036
		c0.164,1.448-0.324,2.731-0.996,3.97c-2.094-0.274-5.191,1.124-4.986-2.987C392.055,53.401,393.637,52.616,395.629,53.846z"/>
	<path fill-rule="evenodd" clip-rule="evenodd" fill="#878787" d="M368.859,84.082c-1.166-0.599-0.502-1.4-0.24-2.156
		c0.691-1.323,0.324-3.67,2.984-3.091c0.322,0.073,0.646,0.123,0.973,0.151c0.943,0.898,1.885,1.796,2.826,2.692
		c-0.311,0.361-0.619,0.724-0.928,1.085C372.826,84.155,370.809,83.971,368.859,84.082z"/>
	<path fill-rule="evenodd" clip-rule="evenodd" fill="#959595" d="M366.434,78.711c-1.289,1.713-2.576,3.425-3.865,5.137
		c-1.992,0.575-2.826-1.086-4.006-2.078c0.682-0.632,1.365-1.264,2.047-1.896c0.695-1.604,1.393-3.209,2.088-4.813
		c1.117-0.322,1.914,0.416,2.805,0.843C366.385,76.65,367.211,77.416,366.434,78.711z"/>
	<path fill-rule="evenodd" clip-rule="evenodd" fill="#5F5F5F" d="M366.434,78.712c-0.311-0.937-0.619-1.873-0.93-2.81
		c1.764-0.548,3.277,0.833,5.152,0.493c3.051-0.553,0.229,1.748,0.947,2.438c-1.613,0.431-1.746,2.296-2.984,3.09
		C367.891,80.854,367.162,79.783,366.434,78.712z"/>
	<path fill-rule="evenodd" clip-rule="evenodd" fill="#232323" d="M395.629,53.846c-1.674,0.34-3.346,0.679-5.02,1.019
		c-1.383-2.64-1.633-5.732-4.174-7.953c-2.477-2.163,1.545-3.915,1.113-6.153c2.75-5.219,5.326-0.349,7.977,0.139
		c0.162,2.194-1.795,1.766-3.41,2.784c1.998-0.1,3.592-2.611,5.006-0.372c0.873,1.382,1.783,2.874,0.473,4.535l0.002-0.002
		c-2.877,0.612-0.334,2.735-1.098,3.938C395.713,52.26,395.588,53.019,395.629,53.846z"/>
	<path fill-rule="evenodd" clip-rule="evenodd" fill="#3F3F3F" d="M376.645,52.881c1.361-0.088,2.891,0.064,2.895-1.995
		c1.387-0.974,1.684,0.199,1.879,1.086c0.188,0.859-0.236,1.62-1.217,1.752C378.926,53.894,377.59,54.167,376.645,52.881z"/>
	<path fill-rule="evenodd" clip-rule="evenodd" fill="#DFDFDF" d="M359.803,82.708c1.773-0.153,2.625,1.475,4.006,2.078
		c0.023,0.304-0.025,0.595-0.15,0.872C361.197,86.214,359.793,85.385,359.803,82.708z"/>
	<path fill-rule="evenodd" clip-rule="evenodd" fill="#3E3E3E" d="M397.594,47.844c-0.578-2.588-0.604-5.819-4.814-3.146
		c-0.914,0.58-3.195,0.47-3.332-1.032c-0.205-2.229,1.66-1.722,3.145-1.426c1.23,0.245,2.221-0.317,2.936-1.344
		c2.738-0.176,4.047,1.291,4.609,3.821C400.633,46.949,399.49,47.656,397.594,47.844z"/>
	<path fill-rule="evenodd" clip-rule="evenodd" fill="#3E3E3E" d="M396.498,51.78c-1.203-1.276-2.932-2.629-1.936-4.471
		c0.633-1.171,2,0.247,3.033,0.533C396.678,49,399.805,51.288,396.498,51.78z"/>
</g>
</svg>
