<?xml version="1.0" encoding="utf-8"?>
<!-- Generator: Adobe Illustrator 16.0.0, SVG Export Plug-In . SVG Version: 6.00 Build 0)  -->
<!DOCTYPE svg PUBLIC "-//W3C//DTD SVG 1.1//EN" "http://www.w3.org/Graphics/SVG/1.1/DTD/svg11.dtd">
<svg version="1.1" id="Layer_1" xmlns="http://www.w3.org/2000/svg" xmlns:xlink="http://www.w3.org/1999/xlink" x="0px" y="0px"
	 width="612px" height="792px" viewBox="0 0 612 792" enable-background="new 0 0 612 792" xml:space="preserve">
<g>
	<path fill="#222222" d="M211.725,101.585c0.37,1.997,0.542,4.023,0.935,6.019c0.685,3.479,1.301,6.971,2.027,10.443
		c0.517,2.472,0.694,4.994,0.958,7.502c0.377,3.577,0.705,7.159,1.202,10.724c0.464,3.33,0.954,6.658,1.201,10.018
		c0.241,3.27,0.287,6.54,0.336,9.815c0.036,2.406,0.37,4.811,0.203,7.221c-0.248,3.568-0.17,7.154-0.591,10.712
		c-0.016,0.138-0.059,0.272-0.089,0.409c-0.15,0.114-0.29,0.285-0.502,0.102c-0.046-0.069-0.077-0.144-0.096-0.225
		c-0.018-1.15,0.221-2.278,0.281-3.422c0.036-0.676,0.118-1.353,0.089-2.03c-0.112-2.6,0.453-5.181,0.272-7.776
		c-0.25-3.594-0.283-7.194-0.372-10.79c-0.132-5.327-0.996-10.564-1.66-15.83c-0.472-3.735-0.835-7.483-1.174-11.233
		c-0.264-2.92-0.86-5.782-1.436-8.65c-0.792-3.944-1.574-7.893-2.078-11.888c-0.035-0.279-0.071-0.557-0.149-0.826
		c-0.105-0.337-0.387-0.27-0.634-0.271c-0.419-0.002-0.82,0.145-1.237,0.166c-0.069,0.021-0.139,0.031-0.211,0.034
		c-0.114-0.004-0.215-0.037-0.283-0.138c-0.021-0.075-0.017-0.147,0.014-0.219c0.255-0.295,0.646-0.171,0.952-0.312
		c0.85-0.04,1.695-0.133,2.537-0.254c0.376-0.073,0.757-0.09,1.14-0.086c0.115,0.041,0.192,0.118,0.227,0.235
		c-0.204,0.396-0.636,0.011-0.884,0.258l0.003-0.003C212.396,101.442,211.946,101.141,211.725,101.585z"/>
	<path fill="#202020" d="M182.249,180.067c0.042-2.063-0.714-3.983-1.069-5.975c-0.629-3.535-1.683-6.976-2.283-10.521
		c-0.556-3.286-1.198-6.559-2.111-9.77c-0.938-3.3-2.28-6.463-3.348-9.72c-0.429-1.308-0.821-2.625-1.252-3.93
		c-1.957-5.911-4.095-11.758-6.345-17.563c-0.142-0.368-0.321-0.722-0.483-1.082c0.166-0.035,0.28-0.235,0.485-0.151
		c0.323,0.204,0.44,0.544,0.553,0.872c1.302,3.779,2.849,7.465,4.178,11.237c1.966,5.579,3.615,11.263,5.746,16.787
		c1.026,2.66,1.688,5.438,2.247,8.246c0.962,4.837,1.883,9.684,3.049,14.48c0.414,1.701,0.775,3.419,1.126,5.137
		c0.117,0.575,0.168,1.156-0.002,1.734C182.625,180.03,182.471,180.126,182.249,180.067z"/>
	<path fill="#222222" d="M158.047,108.487c-0.611-1.813-1.152-3.645-0.489-5.557c0.472-1.361,1.61-2.088,2.843-2.635
		c1.171-0.52,2.328-1.068,3.494-1.599c1.53-0.695,3.145-0.516,4.742-0.303c0.231,0.031,0.436,0.253,0.655,0.383
		c0.083,0.049,0.107,0.193,0.268,0.111c0.417-0.214,0.421-0.206,0.464,0.281c-0.062,0.039-0.121,0.044-0.171-0.02
		c-0.058,0.054,0.015,0.076,0.033,0.098c0.116,0.145,0.192,0.304,0.194,0.492c-0.042,0.258-0.035,0.512,0.052,0.762
		c-0.101,1.859-0.985,3.246-2.617,4.102c-1.425,0.747-2.995,1.04-4.583,1.205c-0.687,0.071-0.718,0.093-0.34,0.666
		c0.515,0.78,1.088,1.52,1.525,2.351c0.24,0.458,0.589,0.583,1.111,0.418c1.609-0.509,3.148-1.131,4.604-2.023
		c0.914-0.56,1.86-1.156,2.95-1.395c0.148,0.039,0.272,0.11,0.345,0.252c-0.06,0.334-0.358,0.416-0.601,0.532
		c-1.311,0.627-2.576,1.335-3.808,2.104c-0.119,0.074-0.24,0.15-0.372,0.198c-2.172,0.786-4.309,1.693-6.611,2.055
		c-0.554,0.087-1.122,0.107-1.584-0.32c0.048-0.206,0.328-0.221,0.363-0.439c0.787-0.249,1.625-0.036,2.42-0.308
		c0.73-0.25,0.731-0.195,0.366-0.851c-0.649-1.165-1.542-2.174-2.119-3.385c-0.031-0.23-0.016-0.439,0.246-0.534
		c0.07-0.014,0.142-0.015,0.212-0.005c0.377,0.075,0.751,0.076,1.121-0.051c1.168-0.231,2.336-0.465,3.479-0.804
		c1.847-0.547,3.098-2.171,3.013-3.918c-0.045-0.918-0.475-1.368-1.398-1.402c-0.817-0.031-1.635-0.015-2.453-0.004
		c-0.332,0.004-0.655,0.07-0.95,0.216c-1.402,0.697-2.866,1.261-4.257,1.976c-0.929,0.477-1.797,1.091-2.052,2.177
		c-0.32,1.363-0.31,2.732,0.294,4.044c0.125,0.272,0.316,0.526,0.271,0.853c-0.021,0.073-0.068,0.119-0.142,0.138
		c-0.337-0.036-0.322-0.354-0.464-0.602c0.088,0.218,0.137,0.397,0.077,0.589C158.151,108.401,158.107,108.451,158.047,108.487z"/>
	<path fill="#212121" d="M217.855,174.866c-1.08,0.13-2.156,0.333-3.239,0.377c-3.495,0.141-6.81,1.064-10.089,2.187
		c-3.089,1.057-6.223,1.968-9.188,3.38c-3.157,1.503-6.539,1.595-9.952,1.262c-0.86-0.084-1.706-0.24-2.548-0.446
		c-0.603-0.147-0.907-0.362-0.592-1.001c0.121-0.111,0.255-0.12,0.399-0.051c0.139,0.111,0.207,0.294,0.376,0.375
		c1.323,0.456,2.707,0.493,4.078,0.6c3.28,0.258,6.337-0.492,9.283-1.932c1.549-0.757,3.198-1.32,4.857-1.813
		c1.323-0.393,2.639-0.809,3.936-1.275c3.168-1.139,6.431-1.795,9.788-1.997c0.583-0.035,1.156-0.183,1.745-0.141
		c0.253,0.018,0.519-0.021,0.734,0.167c0.019,0.018,0.037,0.034,0.057,0.05C217.63,174.678,217.764,174.743,217.855,174.866z"/>
	<path fill="#231C1D" d="M211.146,95.356c1.644-0.996,2.961-2.373,4.341-3.682c1.179-1.118,2.399-2.191,3.607-3.276
		c0.406-0.365,0.798-0.258,0.992,0.299c0.286,0.822,0.276,1.7,0.427,2.547c0.488,2.73,1.019,5.452,1.532,8.178
		c0.083,0.446,0.15,0.891-0.358,1.156c-0.197,0.118-0.4,0.316-0.633,0.166c-0.201-0.129,0.005-0.281,0.062-0.418
		c0.266-0.326,0.341-0.674,0.265-1.107c-0.553-3.124-1.347-6.204-1.69-9.366c-0.027-0.254-0.056-0.511-0.254-0.834
		c-0.551,0.426-1.021,0.929-1.551,1.356c-1.621,1.306-3.008,2.864-4.589,4.211c-1.109,0.945-2.396,1.629-3.675,2.298
		c-0.949,0.497-1.806,1.169-2.835,1.516c-0.198,0.067-0.379,0.184-0.601,0.167c-0.215-0.046-0.392-0.138-0.441-0.377
		c0.003-0.066,0.025-0.127,0.064-0.181c0.149-0.118,0.337-0.152,0.507-0.226c0.138-0.054,0.253-0.146,0.376-0.225
		c0.158-0.085,0.342-0.107,0.495-0.207c0.322-0.194,0.666-0.345,0.991-0.533c0.481-0.303,0.961-0.607,1.495-0.812
		c0.166-0.078,0.315-0.186,0.478-0.269c0.083-0.032,0.17-0.043,0.258-0.044c0.185,0.009,0.295-0.131,0.433-0.217
		C210.942,95.436,211.078,95.483,211.146,95.356z"/>
	<path fill="#241D1E" d="M187.531,95.791c0.304-0.288,0.097-0.338-0.171-0.412c-0.988-0.274-1.973-0.56-2.955-0.854
		c-0.47-0.14-0.93-0.317-1.322-0.622c-0.627-0.486-0.774-1.244,0.08-1.728c2.17-1.23,4.036-2.894,6.024-4.38
		c0.984-0.737,1.627-1.839,2.478-2.726c0.885-0.923,1.781-1.842,2.828-2.588c0.542-0.387,1.037-0.333,1.283,0.227
		c0.665,1.512,1.437,2.987,1.771,4.626c0.07,0.176,0.068,0.357,0.032,0.539c-0.554,0.074-0.363-0.487-0.592-0.69
		c-0.505-1.229-0.946-2.486-1.552-3.675c-0.293-0.577-0.413-0.629-0.93-0.224c-1.498,1.172-2.736,2.602-3.972,4.032
		c-0.46,0.533-0.916,1.069-1.507,1.453c-1.511,0.981-2.86,2.177-4.324,3.221c-0.286,0.204-0.588,0.378-0.893,0.552
		c-0.626,0.357-0.624,0.673,0.009,1.048c0.715,0.423,1.529,0.56,2.312,0.788c0.776,0.226,1.615,0.279,2.289,0.801
		c0.031,0.062,0.037,0.127,0.023,0.195c-0.124,0.161-0.312,0.249-0.448,0.397C187.845,95.871,187.693,95.947,187.531,95.791z"/>
	<path fill="#1E1E1E" d="M187.531,95.791c0.15-0.043,0.3-0.085,0.45-0.128c0.087-0.082,0.183-0.082,0.283-0.027
		c0.097,0.366-0.207,0.484-0.417,0.645c-2.54,1.939-5.182,3.739-7.722,5.679c-1.929,1.473-4.135,2.534-6.158,3.876
		c-0.242,0.16-0.527,0.312-0.854,0.227c-0.128-0.009-0.246-0.037-0.307-0.168c0.187-0.447,0.046-0.791-0.215-1.198
		c-0.927-1.444-1.753-2.95-2.564-4.463c-0.015-0.158-0.152-0.309-0.029-0.476c-0.081-0.181-0.17-0.358-0.24-0.543
		c-0.023-0.061-0.087-0.189,0.058-0.187c0.07,0.001,0.14,0.092,0.209,0.142c0.947,1.335,1.683,2.795,2.481,4.217
		c0.345,0.614,0.627,1.453,1.177,1.688c0.553,0.237,1.117-0.567,1.698-0.877c2.983-1.591,5.62-3.696,8.333-5.688
		C184.973,97.585,186.258,96.696,187.531,95.791z"/>
	<path fill="#202020" d="M160.456,110.27c0.16,0.365-0.136,0.256-0.298,0.286c-0.228,0.081-0.387-0.05-0.582-0.151
		c1.343,1.791,2.39,3.768,3.523,5.692c0.864,1.467,1.592,3.009,2.422,4.495c0.12,0.214,0.289,0.439,0.156,0.718
		c-0.004,0.231-0.112,0.294-0.319,0.197c-1.24-2.029-2.288-4.165-3.45-6.237c-0.973-1.735-2.168-3.32-3.147-5.045
		c-0.311-0.548-0.605-1.104-0.712-1.737c0.01-0.064,0.021-0.129,0.031-0.194c0.14-0.136,0.268,0.324,0.413,0.009
		c0.056-0.003,0.113-0.006,0.169-0.01c0.642,0.35,0.862,1.06,1.333,1.556c0.094,0.164,0.259,0.248,0.408,0.348
		C160.419,110.22,160.438,110.245,160.456,110.27z"/>
	<path fill="#252525" d="M197.532,87.939c0.005-0.202,0.01-0.403,0.016-0.605c0.162,0.71,0.519,0.773,1.171,0.495
		c2.794-1.19,5.692-0.986,8.596-0.52c0.854,0.137,1.713,0.183,2.575,0.225c0.142,0.246,0.003,0.387-0.188,0.509
		c-0.599,0.168-1.203,0.108-1.806,0.029c-0.995-0.131-1.996-0.233-2.988-0.375c-2.024-0.288-3.953,0.029-5.847,0.717
		c-0.242,0.088-0.484,0.174-0.739,0.211c-0.069,0.009-0.141,0.006-0.209-0.008c-0.233-0.153-0.449-0.326-0.578-0.584
		C197.533,88.001,197.532,87.97,197.532,87.939z"/>
	<path fill="#272727" d="M211.146,95.356c-0.042,0.143-0.159,0.166-0.284,0.174c-0.155,0.096-0.308,0.126-0.459-0.007
		c-0.15-0.221-0.149-0.472-0.151-0.724c-0.016-0.61,0.083-1.226-0.09-1.828c-0.089-1.202-0.056-2.41-0.177-3.612
		c-0.028-0.274,0.057-0.552,0.157-0.813c0.027-0.067,0.066-0.128,0.115-0.182c0.359-0.146,0.272,0.266,0.444,0.356
		c0.019,0.023,0.035,0.047,0.052,0.071c-0.132,1.779,0.059,3.55,0.145,5.323c0.062,0.096,0.062,0.192,0,0.288
		C210.977,94.721,210.587,95.162,211.146,95.356z"/>
	<path fill="#312A2A" d="M221.251,100.401c0.093,0.063-0.496,0.427,0.116,0.263c0.106-0.028,0.213-0.058,0.319-0.086
		c-0.229,0.298-0.552,0.421-0.909,0.424c-1.29,0.01-2.579,0.005-3.868,0.006c0.085-0.43,0.44-0.309,0.711-0.339
		c0.876-0.097,1.734,0.221,2.534,0.115c-0.334-0.101-0.793,0.187-1.178-0.145c-0.01-0.131,0.044-0.246,0.174-0.243
		C219.851,100.415,220.552,100.244,221.251,100.401z"/>
	<path fill="#1B1617" d="M219.017,100.57c0.524,0.359,1.143-0.012,1.852,0.286c-1.191,0-2.214-0.006-3.238,0.004
		c-0.245,0.003-0.521-0.093-0.722,0.148l-0.067,0.018l-0.067-0.016c-0.235,0.035-0.471-0.109-0.706,0.002
		c-0.046,0.001-0.093,0.002-0.139,0.003c-0.335-0.132-0.694,0.238-1.021-0.049c0.001-0.178,0.099-0.289,0.25-0.363
		c0.951-0.198,1.923,0.031,2.876-0.141C218.375,100.376,218.719,100.272,219.017,100.57z"/>
	<path fill="#312A2A" d="M214.973,100.974c0.313,0.154,0.652-0.305,0.958,0.041c-0.696,0.166-1.407,0.104-2.111,0.142
		C214.126,100.605,214.548,100.785,214.973,100.974z"/>
	<path fill="#2B2425" d="M214.973,100.974c-0.377,0.108-0.81-0.137-1.153,0.183l-0.059,0.033l-0.066-0.013
		c-0.086-0.028-0.107-0.112-0.151-0.176c-0.05-0.037-0.1-0.074-0.149-0.111c0.249-0.324,0.648-0.154,0.955-0.293
		c0.114-0.029,0.23-0.044,0.348-0.042c0.162,0.012,0.316,0.04,0.407,0.198C215.061,100.826,215.017,100.9,214.973,100.974z"/>
	<path fill="#080808" d="M182.623,180.611c-0.125,0.004-0.251,0.009-0.376,0.014c0.001-0.186,0.001-0.372,0.002-0.558
		c0.134-0.049,0.268-0.097,0.402-0.146c0.025,0.028,0.05,0.055,0.076,0.083C182.814,180.228,182.837,180.44,182.623,180.611z"/>
	<path fill="#323232" d="M209.749,87.917c0.047-0.128,0.094-0.256,0.141-0.383c0.141-0.052,0.282-0.104,0.422-0.157
		c0.109,0.098,0.261,0.146,0.335,0.286c0.02,0.059,0.024,0.119,0.013,0.18c-0.039,0.093-0.11,0.145-0.208,0.16
		C210.219,87.959,209.959,88.134,209.749,87.917z"/>
	<path fill="#252525" d="M210.471,87.94c0.044-0.051,0.088-0.103,0.132-0.154c0.088-0.07,0.173-0.073,0.255,0.01
		c0.001,0.048,0.003,0.096,0.004,0.144c-0.121,0.133,0,0.337-0.135,0.466c-0.102,0.042-0.195,0.035-0.276-0.046
		c-0.039,0-0.079,0-0.118,0C210.17,88.151,210.262,88.026,210.471,87.94z"/>
	<path fill="#252525" d="M210.587,87.661c-0.181-0.008-0.271-0.104-0.275-0.283c0.66-0.236,0.712-0.224,0.725,0.177
		C210.868,87.51,210.733,87.61,210.587,87.661z"/>
	<path fill="#2B2425" d="M211.725,101.585c0.188-0.553,0.628-0.281,0.98-0.299C212.417,101.514,211.991,101.288,211.725,101.585z"/>
	<path fill="#312A2A" d="M216.07,101.012c0.234-0.221,0.47-0.225,0.705-0.003C216.541,101.164,216.305,101.092,216.07,101.012z"/>
	<path fill="#312A2A" d="M213.544,101c0.05,0.059,0.101,0.118,0.151,0.176c-0.319,0.141-0.658,0.112-0.993,0.111
		C212.91,100.98,213.328,101.286,213.544,101z"/>
	<path fill="#0E0E0E" d="M217.855,174.866c-0.16-0.029-0.384,0.031-0.355-0.257c0.136-0.054,0.271-0.108,0.407-0.162
		C217.965,174.596,217.97,174.738,217.855,174.866z"/>
	<path fill="#0C0C0C" d="M210.587,87.661c0.079-0.337,0.232-0.355,0.45-0.106c-0.06,0.081-0.119,0.161-0.178,0.242
		c-0.085-0.003-0.17-0.006-0.255-0.01C210.6,87.744,210.595,87.702,210.587,87.661z"/>
	<path fill="#323232" d="M210.696,88.385c0.038-0.155,0.012-0.333,0.167-0.445c-0.021,0.286,0.044,0.583-0.11,0.851
		c-0.024-0.004-0.047-0.013-0.068-0.025C210.601,88.636,210.613,88.51,210.696,88.385z"/>
	<path fill="#E4E4E4" d="M211.037,94.426c0-0.096,0-0.192,0-0.288c0.102,0.027,0.292,0.057,0.291,0.081
		C211.323,94.393,211.17,94.403,211.037,94.426z"/>
	<path fill="#FEFEFE" d="M209.528,101.967c0.742-0.112,1.474-0.369,2.239-0.154c0.355,2.755,0.848,5.486,1.313,8.224
		c0.604,3.543,1.542,7.022,2,10.589c0.304,2.362,0.517,4.737,0.765,7.106c0.388,3.716,0.787,7.43,1.331,11.128
		c0.548,3.723,0.975,7.458,1.083,11.226c0.121,4.182,0.44,8.367,0.345,12.542c-0.094,4.059-0.109,8.138-0.686,12.176
		c-4.83,0.131-9.493,1.078-14.029,2.748c-1.969,0.725-3.999,1.285-5.952,2.062c-1.494,0.594-2.939,1.289-4.48,1.793
		c-2.25,0.737-4.521,0.64-6.803,0.52c-1.152-0.061-2.446-0.229-3.525-0.747c-0.144-0.368,0.163-0.654,0.001-1.02l-0.205-0.107
		c0.032-0.821-0.056-1.626-0.237-2.431c-0.943-4.185-1.841-8.362-2.692-12.566c-0.731-3.61-1.419-7.248-2.375-10.809
		c-0.934-3.475-2.365-6.783-3.483-10.197c-0.436-1.33-0.836-2.67-1.273-3.999c-1.939-5.896-4.105-11.71-6.326-17.505
		c-0.149-0.39-0.313-0.779-0.587-1.106c-0.852-1.606-1.665-3.234-2.566-4.811c-1.041-1.821-1.987-3.703-3.278-5.375
		c-0.249-0.322-0.426-0.699-0.737-1.218c0.49,0.242,0.712,0.56,1.062,0.649c0.535,0.311,1.133,0.329,1.694,0.202
		c2.937-0.663,5.837-1.429,8.381-3.155c0.902-0.611,1.996-0.886,2.882-1.541c2.758-1.631,5.565-3.176,8.117-5.142
		c2.198-1.693,4.304-3.411,6.546-5.046c0.129-0.094,0.299-0.145,0.351-0.323c0.075-0.095,0.129-0.106,0.291-0.106
		c2.936,0.575,5.535,1.809,8.241,3.02c0.177,0.079,0.429,0.176,0.48,0.378c0.007,0.623-0.386,1.23-0.067,1.864
		c-0.009,0.312-0.086,0.674-0.016,1.005c0.212,0.304,0.662,0.002,0.862,0.338c0.211,0.244,0.17,0.496,0.026,0.752
		c-0.124,0.15-0.25,0.301-0.312,0.467c0.118-0.14,0.177-0.312,0.303-0.404c0.456-0.356,0.916-0.444,1.391-0.029
		c0.109,0.096,0.259,0.102,0.398,0.122c0.461,0.12,0.478,0.374,0.21,0.709c-0.073,0.091,0.018,0.304-0.072,0.377
		c-0.443,0.359-0.61,0.812-0.428,1.36c0.175,0.528,0.812,0.992,1.389,0.994c0.401,0.001,0.798-0.044,1.016,0.541
		c-0.113-0.662,0.104-1.109,0.48-1.498c0.138-0.059,0.263-0.015,0.384,0.051c0.077,0.043,0.143,0.158,0.219,0.136
		c0.128-0.036,0.037-0.145,0.015-0.216c-0.04-0.129-0.117-0.244-0.166-0.372c-0.071-0.199-0.14-0.398-0.16-0.61
		c-0.016-0.185-0.018-0.371,0.006-0.555c0.048-0.362,0.239-0.504,0.572-0.312c0.395,0.228,0.814,0.322,1.262,0.32
		c0.212-0.009,0.465,0.164,0.612-0.14c0.518-0.286,0.565-0.668,0.364-1.208c-0.109-0.295-0.461-0.756,0.156-0.991
		c0.252-0.016,0.478,0.077,0.706,0.162c0.258,0.181,0.562,0.22,0.861,0.271c0.367,0.112,0.729,0.074,1.09-0.031
		c0.331-0.129,0.687-0.033,1.022-0.117"/>
	<path fill="#1B1919" d="M206.039,101.726c-0.249,0.083-0.416-0.146-0.637-0.168c-0.076-0.062-0.177-0.087-0.246-0.162
		c-0.054-0.635,0.356-0.227,0.573-0.256c0.066,0.018,0.129,0.042,0.192,0.068c0.598,0.298,1.218,0.416,1.875,0.227
		c0.107-0.027,0.216-0.044,0.326-0.051c0.232-0.004,0.464-0.006,0.644,0.178c-0.001,0.041-0.004,0.081-0.009,0.122
		c-0.205,0.161-0.481,0.158-0.693,0.302c-0.373,0.204-0.75,0.193-1.13,0.019C206.654,101.852,206.311,101.904,206.039,101.726z"/>
	<path fill="#2B2425" d="M212.291,101.022c-0.878,0.238-1.776,0.27-2.678,0.267c-0.004-0.039-0.008-0.078-0.012-0.117
		c0.807-0.344,1.651-0.38,2.509-0.298C212.187,100.903,212.247,100.953,212.291,101.022z"/>
	<path fill="#2B2425" d="M211.293,101.567c-0.756-0.093-1.49,0.15-2.239,0.153C209.786,101.46,210.521,101.245,211.293,101.567z"/>
	<path fill="#312A2A" d="M214.384,100.717c-0.291,0.28-0.668,0.067-0.99,0.172c-0.354,0.165-0.736,0.088-1.104,0.132
		c0,0-0.032-0.05-0.032-0.05C212.757,100.5,213.685,100.389,214.384,100.717z"/>
	<path fill="#2B2425" d="M208.767,101.562c-0.249-0.009-0.499-0.019-0.749-0.027c0.445-0.516,0.98-0.541,1.566-0.286l0.029,0.041
		C209.392,101.567,208.985,101.273,208.767,101.562z"/>
	<path fill="#2B2425" d="M208.064,101.985c0.177-0.226,0.428-0.28,0.693-0.302c0.103,0.011,0.205,0.022,0.308,0.033
		C208.743,101.846,208.417,101.966,208.064,101.985z"/>
	<path fill="#FEFEFE" d="M160.085,110.071c-0.417-0.549-0.833-1.098-1.25-1.647c-0.485-1.036-0.91-2.07-0.917-3.262
		c-0.01-1.983,0.285-3.107,2.858-4.319c1.138-0.536,2.306-1.013,3.431-1.582c0.532-0.269,1.084-0.413,1.684-0.397
		c0.56,0.015,1.122-0.002,1.682,0.001c1.815,0.012,2.563,1.165,1.907,2.887c-0.587,1.542-1.685,2.475-3.257,2.906
		c-1.103,0.303-2.216,0.55-3.349,0.71c-0.369,0.028-0.744,0.158-1.095-0.075l0.018,0.014c-0.553-0.127-0.391,0.228-0.343,0.507
		c0.841,1.268,1.678,2.537,2.525,3.801c0.187,0.279,0.041,0.316-0.2,0.402c-1.024,0.365-2.071,0.499-3.15,0.384h0
		C160.456,110.277,160.195,110.299,160.085,110.071z"/>
	<path fill="#FEFEFE" d="M170.323,100.286c1.007,1.594,1.744,3.35,2.879,4.861c0.364,0.485-0.07,0.609-0.22,0.878
		c-1.318,0.608-2.639,1.223-3.86,2.008c-1.012,0.65-2.126,1.026-3.256,1.344c-1.367,0.384-1.359,0.319-2.088-0.91
		c-0.51-0.859-1.091-1.677-1.716-2.627c1.473-0.05,2.804-0.336,4.125-0.691c2.398-0.645,3.894-2.355,3.974-4.564
		C170.108,100.427,170.06,100.271,170.323,100.286z"/>
	<path fill="#0F0F0F" d="M158.491,108.302c0.059,0.158,0.195,0.307,0.062,0.5c-0.318-0.034-0.268-0.392-0.475-0.508
		c0-0.18,0-0.36,0-0.763C158.278,107.904,158.385,108.103,158.491,108.302z"/>
	<path fill="#252525" d="M161.281,105.682c-0.238-0.229-0.183-0.483,0.013-0.672c0.147-0.142,0.304-0.062,0.33,0.165
		C161.324,105.219,161.287,105.44,161.281,105.682z"/>
	<path fill="#252525" d="M161.605,105.162c0.365,0.025,0.73,0.05,1.095,0.075C162.324,105.376,161.949,105.497,161.605,105.162z"/>
	<path fill="#9C9C9C" d="M170.149,100.154c-0.15,0.047-0.098,0.205-0.163,0.298c-0.073-0.233-0.245-0.468,0.013-0.695
		C170.049,99.89,170.099,100.022,170.149,100.154z"/>
	<path fill="#373737" d="M182.655,179.915c0.227,0.359,0.073,0.756,0.113,1.134c-0.167-0.106-0.114-0.286-0.146-0.437
		C182.633,180.379,182.644,180.147,182.655,179.915z"/>
	<path fill="#F9B8BD" d="M209.758,101.38c-0.533,0.033-1.061,0.054-1.566,0.244c-0.079,0.012-0.157,0.023-0.235,0.035
		c-0.699,0.192-1.337,0.024-1.965-0.251l-0.039-0.07l-0.047-0.023c-0.286-0.187-0.649-0.185-0.933-0.379
		c-0.093-0.181-0.026-0.331,0.092-0.47c0.321-0.24,0.554-0.471,0.678-0.855c0.16-0.342-0.055-0.885,0.532-0.999
		c1.32-0.412,2.427-1.246,3.654-1.843c2.444-1.19,4.416-2.983,6.319-4.884c1.082-1.081,2.284-2.042,3.458-3.08
		c0.276,0.408,0.323,0.875,0.367,1.323c0.307,3.119,1.125,6.145,1.657,9.222c0.08,0.463,0.139,0.876-0.304,1.184
		c-0.728,0.283-1.493,0.061-2.234,0.168c-0.281-0.066-0.562-0.076-0.841,0.008c-0.902,0.153-1.812,0.026-2.717,0.07
		c-0.277,0.014-0.56-0.058-0.83,0.057c-0.082,0.004-0.163,0.008-0.245,0.012c-0.72-0.016-1.428,0.07-2.125,0.254
		C211.539,101.167,210.64,101.188,209.758,101.38z"/>
	<path fill="#D8D8D8" d="M210.469,92.991c0.178,0.61,0.119,1.232,0.099,1.852c-0.577,0.224-0.261,0.645-0.22,1.004
		c-0.111,0.154-0.27,0.228-0.449,0.265c-0.506,0.175-0.611-0.265-0.826-0.536c-0.144-0.25-0.451-0.311-0.623-0.528
		c-0.104-0.154-0.108-0.34-0.165-0.51c-0.02-0.057-0.034-0.116-0.046-0.175c-0.015-0.092-0.012-0.184,0.01-0.275
		c0.064-0.188,0.183-0.329,0.361-0.419c0.063-0.016,0.126-0.02,0.19-0.009c0.125,0.032,0.241,0.089,0.354,0.151
		c0.118,0.076,0.242,0.14,0.37,0.194c0.187,0.081,0.375,0.264,0.582,0.146c0.256-0.146,0.081-0.366,0.028-0.558
		C210.048,93.284,210.22,93.116,210.469,92.991z"/>
	<path fill="#130F10" d="M204.994,100.49c-0.048,0.114-0.096,0.229-0.144,0.343c-0.056,0.468-0.405,0.297-0.67,0.309
		c-0.07-0.017-0.133-0.049-0.189-0.093c-0.04-0.057-0.059-0.121-0.056-0.191c0.065-0.266,0.231-0.462,0.433-0.636
		c0.147-0.112,0.254-0.257,0.338-0.421c0.091-0.159,0.216-0.295,0.301-0.458c0.103-0.202,0.072-0.429,0.117-0.641
		c0.124-0.369-0.03-0.73-0.032-1.097c0.053-0.266,0.087-0.56,0.479-0.321c0.212,0.234,0.287,0.509,0.247,0.819
		c-0.005,0.2,0.222,0.226,0.283,0.375c-0.372,0.287-0.116,0.805-0.413,1.12C205.436,99.879,205.229,100.195,204.994,100.49z"/>
	<path fill="#B8B8B8" d="M209.181,95.397c0.172,0.306,0.275,0.681,0.717,0.716c-0.513,0.283-1.027,0.566-1.541,0.85
		c-0.39,0.134-0.399-0.143-0.431-0.397c0.025-0.281,0.181-0.516,0.279-0.771C208.392,95.308,208.713,95.177,209.181,95.397z"/>
	<path fill="#828282" d="M207.933,96.511c-0.009,0.211-0.007,0.416,0.284,0.427c-0.332,0.187-0.664,0.373-0.996,0.56
		c-0.026-0.018-0.054-0.036-0.081-0.053c-0.176-0.205-0.22-0.468-0.314-0.71c-0.03-0.1-0.045-0.202-0.048-0.306
		c0.008-0.22,0.021-0.439,0.249-0.562C207.537,95.789,207.747,96.133,207.933,96.511z"/>
	<path fill="#5E5E5E" d="M205.818,98.103c-0.094-0.251-0.188-0.503-0.282-0.755c-0.023-0.148-0.247-0.259-0.113-0.428
		c0.113-0.142,0.289-0.11,0.447-0.067c0.368,0.101,0.683,0.267,0.79,0.675c0,0.032-0.002,0.065-0.003,0.098
		c-0.012,0.194-0.109,0.286-0.308,0.258c-0.19-0.027-0.351,0.065-0.519,0.13C205.836,98.045,205.832,98.075,205.818,98.103z"/>
	<path fill="#F3F3F3" d="M210.348,95.847c-0.337-0.254-0.405-0.854-0.141-1.116c0.211-0.209,0.25,0.049,0.361,0.113
		c0.017,0.235,0.034,0.471,0.051,0.707c0.057,0.095,0.041,0.172-0.053,0.233C210.493,95.805,210.421,95.826,210.348,95.847z"/>
	<path fill="#5E5E5E" d="M206.934,96.501c0.002,0.095,0.004,0.189,0.006,0.284c0.067,0.226,0.028,0.496,0.275,0.645l0.007,0.068
		c-0.156,0.186-0.366,0.132-0.564,0.127l0.004,0.006C206.658,97.232,206.249,96.735,206.934,96.501z"/>
	<path fill="#0A0A0A" d="M210.426,95.759c0.018-0.078,0.036-0.155,0.054-0.233c0.127,0.001,0.255,0.002,0.382,0.003
		C210.74,95.651,210.781,96.083,210.426,95.759z"/>
	<path fill="#ADADAD" d="M206.005,98.146c0.138-0.184,0.261-0.427,0.519-0.13C206.378,98.171,206.209,98.226,206.005,98.146z"/>
	<path fill="#F9B8BD" d="M188.403,95.248c-1.106-0.442-2.276-0.666-3.411-1.012c-0.538-0.164-1.071-0.337-1.539-0.654
		c-0.559-0.378-0.572-0.735,0.017-1.046c1.994-1.053,3.562-2.693,5.451-3.896c1.185-0.755,1.926-2.004,2.87-3.027
		c0.869-0.941,1.794-1.825,2.784-2.641c0.438-0.361,0.71-0.291,0.94,0.242c0.554,1.283,1.123,2.559,1.581,3.881
		c0.323,1.006,0.8,1.957,1.087,2.976c0.061,0.158,0.265,0.34,0.31,0.503c0.018,0.063,0.03,0.127,0.039,0.191
		c0.011,0.258,0.123,0.485,0.223,0.716c0.068,0.215,0.103,0.436,0.135,0.658c0.054,0.452,0.19,0.885,0.306,1.322
		c0.051,0.196,0.087,0.396,0.15,0.589c0.091,0.586,0.25,1.156,0.406,1.727c0.212,0.864,0.487,1.713,0.667,2.586
		c-0.002,0.073-0.021,0.141-0.056,0.205c-1.077,1.038-1.202,0.98-2.543,0.348c-2.829-1.332-5.668-2.646-8.747-3.325
		C188.819,95.537,188.576,95.46,188.403,95.248z"/>
	<path fill="#251E1F" d="M188.403,95.248c2.771,0.489,5.311,1.644,7.87,2.739c0.831,0.356,1.662,0.726,2.416,1.233
		c0.296,0.199,0.475,0.255,0.707-0.117c0.175-0.279,0.51-0.458,0.773-0.681c0.2,0.131,0.094,0.329,0.109,0.501
		c-0.005,0.062-0.022,0.12-0.048,0.175c-0.193,0.229-0.399,0.448-0.602,0.67c-0.338-0.087-0.67,0.011-1.004,0.038
		c-0.474-0.217-1.02-0.311-1.352-0.774c-1.034-0.679-2.217-1.032-3.333-1.532c-1.742-0.781-3.564-1.324-5.398-1.829
		c-0.078-0.08-0.151-0.162-0.139-0.286C188.403,95.339,188.403,95.293,188.403,95.248z"/>
	<path fill="#2D2627" d="M198.077,90.222c-0.37-1.029-0.793-2.041-0.98-3.127c0.278,0.213,0.178,0.621,0.435,0.845l0.002,0.002
		c0.092,0.277,0.266,0.515,0.372,0.787c0.03,0.062,0.054,0.126,0.076,0.191C198.044,89.352,198.45,89.759,198.077,90.222z"/>
	<path fill="#120F0F" d="M188.403,95.386c0.115,0.062,0.138,0.168,0.138,0.286c-0.079,0.004-0.159,0.008-0.238,0.012
		c-0.107-0.007-0.214-0.014-0.322-0.021C187.996,95.378,188.195,95.376,188.403,95.386z"/>
	<path fill="#222222" d="M159.911,109.939c0.181,0.11,0.363,0.22,0.544,0.33C160.203,110.275,159.971,110.249,159.911,109.939z"/>
	<path fill="#FEFEFE" d="M210.469,92.991c-0.092,0.255-0.344,0.475-0.057,0.793c0.106,0.118,0.116,0.424-0.079,0.569
		c-0.152,0.113-0.386,0.119-0.525,0.001c-0.244-0.207-0.646-0.168-0.788-0.518c-0.062-0.13,0.406-0.358-0.078-0.41
		c-0.355-0.093-0.29-0.472-0.471-0.682c-0.741-0.445-0.576-1.215-0.682-1.889c0.208-0.233,0.519-0.463,0.173-0.793
		c-0.354-0.338-0.612-0.019-0.875,0.185c-0.264,0.035-0.438-0.133-0.623-0.274c-0.226-0.261-0.432-0.538-0.747-0.712
		c-0.605-0.334-1.168-0.265-1.71,0.233c-0.438,0.402-0.511,0.875-0.225,1.501c0.087,0.189,0.198,0.369,0.146,0.592
		c-0.201,0.398-0.559,0.653-0.867,0.953c-0.235,0.185-0.459,0.408-0.89,0.216c0.295,0.381,0.077,0.734,0.119,1.081
		c-0.055,0.565-0.381,0.626-0.825,0.431c-0.47-0.207-0.935-0.357-1.46-0.181c-0.304,0.102-0.521-0.102-0.703-0.325
		c-0.092-0.159-0.088-0.334-0.084-0.509c0.021-0.467-0.095-0.901-0.32-1.309c-0.152-0.499-0.479-1.01-0.61-1.516
		c-0.047-0.477-0.229-0.922-0.325-1.389c-0.013-0.192,0.117-0.36,0.259-0.519c2.35-0.895,4.759-1.305,7.28-0.989
		c1.456,0.182,2.898,0.539,4.385,0.41c0.237,0.136,0.494-0.364,0.722,0.022c-0.097,0.123-0.212,0.24-0.138,0.42
		C210.195,89.919,210.534,91.456,210.469,92.991z"/>
	<path fill="#110F0F" d="M197.811,88.779c-0.196-0.245-0.261-0.533-0.276-0.838c0.044,0.249,0.562,0.15,0.402,0.549
		C197.943,88.607,197.92,88.712,197.811,88.779z"/>
	<path fill="#2D2627" d="M197.811,88.779c0.042-0.097,0.084-0.193,0.126-0.289c0.049,0.002,0.097,0.004,0.146,0.007
		c0.004,0.188,0.009,0.377,0.014,0.565c-0.278,0.091-0.158-0.219-0.284-0.281L197.811,88.779z"/>
	<path fill="#0F0F0F" d="M210.696,88.385c-0.004,0.127-0.008,0.253-0.012,0.38c-0.488,0.1-0.111-0.297-0.233-0.406
		C210.532,88.368,210.614,88.376,210.696,88.385z"/>
	<path fill="#312A2A" d="M214.629,100.705c1.178-0.166,2.363-0.127,3.547-0.128c-0.612,0.292-1.264,0.092-1.895,0.145
		c-0.39,0.032-0.784,0.021-1.176,0.03C214.946,100.736,214.787,100.721,214.629,100.705z"/>
	<path d="M200.48,147.196l0.042-0.037l0.051,0.02c0.179-0.086,0.32,0.081,0.543,0.044c0.551-0.092,0.475,0.391,0.415,0.766
		c0.053,1.408-0.099,2.807-0.249,4.201c-0.073,0.676-0.37,1.331-0.663,1.96c-0.562,0.7-1.059,1.453-1.764,2.039
		c-0.479,0.398-0.979,0.697-1.606,0.788c-1.533,0.223-2.911,0.085-3.962-1.274c-0.737-0.954-1.809-1.611-2.464-2.656
		c-0.199-0.317-0.347-0.661-0.555-0.972c-0.158-0.518-0.522-0.936-0.695-1.447c-0.105-0.311-0.209-0.619-0.242-0.947
		c-0.079-0.784,0.258-1.15,1.054-1.083c1.584,0.136,3.172,0.103,4.745-0.046c1.448-0.137,2.934-0.216,4.228-1.06
		C199.672,147.288,200.117,147.343,200.48,147.196z"/>
	<path fill="#7F7F7F" d="M197.473,99.147c0.466,0.223,0.934,0.445,1.4,0.667c0.431,0.039,0.718,0.361,1.078,0.542
		c0.857,0.668,1.797,1.128,2.909,1.16c0.139,0.004,0.272,0.053,0.372,0.164c0.081,0.132,0.09,0.293-0.002,0.395
		c-0.421,0.47-0.379,1.078-0.518,1.631c-0.037,0.152-0.129,0.251-0.282,0.29c-0.379,0.023-0.476-0.345-0.716-0.515
		c-0.038-0.026-0.078-0.076-0.115-0.073c-0.6,0.044-1.182-0.067-1.763-0.191c-0.134,0.083-0.25,0.081-0.361-0.049
		c-0.408-0.478-0.864-0.325-1.325-0.092c-0.134,0.027-0.197-0.021-0.172-0.163c0.147-0.221,0.173-0.449,0.042-0.687
		c-0.208-0.231-0.422-0.458-0.564-0.741c-0.146-0.156-0.02-0.375-0.128-0.541C196.915,100.309,197.202,99.729,197.473,99.147z"/>
	<path fill="#D0D0D0" d="M199.635,103.103c0.653,0.126,1.515-0.108,2.15,0.271c0.035,0.292,0.266,0.471,0.4,0.706
		c0.252,0.442,0.494,0.895,0.156,1.406c-0.122,0.25-0.277,0.49-0.355,0.752c-0.072,0.24-0.061,0.504-0.096,0.853
		c-0.315-0.491-0.74-0.494-1.226-0.512c-0.697-0.025-1.197-0.47-1.439-1.135c-0.226-0.618-0.229-1.239,0.306-1.653
		C199.63,103.714,200.532,103.451,199.635,103.103z"/>
	<path fill="#2C2C2C" d="M199.067,137.95c0,0.14,0,0.28,0,0.42c0.002,0.391-0.106,0.701-0.565,0.729
		c-0.484,0.03-0.661-0.251-0.688-0.688c-0.086-1.353-0.185-2.706-0.267-4.059c-0.283-4.666-0.528-9.335-1.681-13.896
		c-0.102-0.405-0.134-0.834,0.402-0.954c0.545-0.121,0.729,0.246,0.843,0.703c0.729,2.911,1.12,5.875,1.354,8.857
		c0.233,2.959,0.394,5.925,0.585,8.887C199.057,137.95,199.062,137.95,199.067,137.95z"/>
	<path fill="#1A1A1A" d="M179.265,121.343c0.045-0.044,0.091-0.088,0.137-0.132c0.308-0.226,0.66-0.393,0.92-0.685
		c0.787-0.489,1.622-0.889,2.45-1.303l-0.013,0.007c0.277-0.062,0.573-0.031,0.836-0.167c0.232,0.081,0.379,0.223,0.348,0.491
		c-0.205,0.35-0.623,0.05-0.867,0.283l0.013-0.004c-1.773,0.641-3.246,1.693-4.378,3.208c-0.055,0.124-0.166,0.2-0.25,0.299
		c-0.195,0.371-0.39,0.742-0.584,1.112c-0.028,0.038-0.059,0.076-0.071,0.12c-0.069,0.252-0.218,0.459-0.49,0.374
		c-0.346-0.108-0.216-0.4-0.155-0.644l0,0.003c0.161-0.252,0.199-0.575,0.444-0.779c0.138-0.241,0.242-0.508,0.438-0.707
		c0.4-0.404,0.226-0.631-0.211-0.816c-1.161-0.49-2.375-0.722-3.63-0.768l0.013,0.005c-0.185-0.273-0.861,0.163-0.744-0.426
		c0.088-0.439,0.599-0.227,0.9-0.208c1.244,0.074,2.468,0.285,3.628,0.769C178.423,121.491,178.857,121.93,179.265,121.343z"/>
	<path fill="#171717" d="M200.48,147.196c-2.248,1.229-4.66,1.694-7.207,1.605c-1.047-0.037-2.094,0.122-3.149-0.034
		c-0.481-0.072-0.697,0.277-0.633,0.771c0.087,0.676,0.274,1.312,0.697,1.859c0.167,0.216,0.168,0.468,0.182,0.719
		c0.101,0.115,0.085,0.248,0.056,0.382c-0.29,0.195-0.259-0.123-0.346-0.228c-0.215-0.262-0.254-0.624-0.477-0.884
		c-0.155-0.077-0.093-0.297-0.248-0.374l0.004,0.008c-0.09-0.412-0.314-0.774-0.432-1.175c-0.299-1.023,0.22-1.709,1.312-1.643
		c0.77,0.047,1.537,0.051,2.306,0.054c1.724,0.007,3.442-0.068,5.136-0.42c0.513-0.106,1.015-0.264,1.527-0.376
		C199.611,147.273,200.041,147.21,200.48,147.196z"/>
	<path fill="#D0D0D0" d="M202.607,103.796c-0.086-0.777,0.097-1.479,0.577-2.101c0.021-0.023,0.042-0.046,0.063-0.07
		c0.282-0.126,0.615-0.114,0.867-0.321c0.089-0.042,0.18-0.078,0.278-0.097c0.395-0.055,0.73,0.084,1.036,0.32
		c0.05,0.055,0.099,0.109,0.148,0.164c-0.43,0.371-0.06,0.828,0.06,1.07c0.282,0.565,0.287,0.839-0.376,0.967
		c-0.056,0.011-0.088,0.149-0.131,0.227c-0.265,0.028-0.329-0.277-0.571-0.336c-0.136,0.16,0.125,0.304,0.036,0.456
		c-0.638,0.071-1.233-0.027-1.789-0.544c-0.028,0.397-0.049,0.69-0.07,0.982c-0.132,0.001-0.19-0.084-0.231-0.192
		C202.448,104.126,202.52,103.959,202.607,103.796z"/>
	<path fill="#2E2E2E" d="M189.549,134.278c-0.163-3.918-0.766-7.78-1.481-11.628c0.037-0.018,0.074-0.035,0.112-0.053
		c0.433,0.268,0.475,0.731,0.542,1.159c0.412,2.63,0.888,5.253,1.096,7.908c0.106,1.346,0.191,2.699,0.202,4.053
		c0.002,0.289-0.06,0.601,0.2,0.884c0.272-0.231,0.224-0.522,0.218-0.781c-0.064-2.731-0.232-5.455-0.695-8.152
		c-0.126-0.737-0.228-1.477-0.33-2.217c-0.032-0.231-0.072-0.464,0.057-0.683c0.062-0.075,0.135-0.087,0.218-0.037
		c0.754,4.084,1.28,8.189,1.091,12.358c-0.143,0.307-0.364,0.493-0.719,0.391c-0.378-0.109-0.457-0.409-0.465-0.765
		C189.577,135.902,189.661,135.088,189.549,134.278z"/>
	<path fill="#1C1C1C" d="M179.966,120.248c-1.367-0.676-2.852-1.026-4.277-1.539c-0.175-0.063-0.359-0.107-0.542-0.146
		c-0.28-0.059-0.402-0.234-0.359-0.505c0.048-0.296,0.292-0.263,0.497-0.236c0.207,0.027,0.414,0.081,0.612,0.147
		c1.325,0.441,2.665,0.84,3.951,1.391c0.113,0.167,0.322,0.153,0.475,0.25c0.328,0.209,0.416,0.426,0.075,0.699
		C180.243,120.372,180.102,120.33,179.966,120.248z"/>
	<path fill="#181818" d="M198.387,117.01c0.075-0.006,0.15-0.012,0.226-0.018c0.313-0.1,0.634-0.034,0.952-0.046
		c0.227,0.081,0.274,0.258,0.253,0.471c-0.176,0.154-0.451,0.012-0.615,0.202c-0.267,0.082-0.568-0.082-0.819,0.113l0.012-0.003
		c-0.583,0.194-1.161,0.396-1.691,0.714l0.012-0.006c-0.354,0.052-0.619,0.299-0.94,0.425c-0.179,0.071-0.368,0.147-0.497-0.046
		c-0.159-0.239,0.018-0.404,0.202-0.503c0.607-0.327,1.279-0.524,1.851-0.923c0.246-0.154,0.269-0.428,0.346-0.667
		c0.501-1.558,1.15-3.054,1.863-4.524c0.052-0.1,0.129-0.168,0.238-0.198c0.481,0.042,0.435,0.302,0.261,0.623
		c-0.208,0.385-0.464,0.746-0.572,1.179c-0.144,0.246-0.139,0.552-0.314,0.786C198.872,115.387,198.335,116.106,198.387,117.01z"/>
	<path fill="#0F0F0F" d="M205.677,114.918c0.143-0.099,0.285-0.197,0.427-0.295c0.165-0.119,0.336-0.224,0.542-0.255
		c0.49,0.08,0.34,0.299,0.117,0.535c-0.077,0.053-0.189,0.065-0.208,0.183l0.002-0.008c-1.062,0.545-1.888,1.377-2.692,2.232
		c-0.233,0.248-0.187,0.502,0.114,0.694c0.156,0.1,0.314,0.193,0.48,0.275c0.358,0.18,0.575,0.522,0.875,0.769
		c0.462,0.412,0.847,0.894,1.226,1.38c0.072,0.072,0.125,0.155,0.145,0.256c-0.047,0.219-0.206,0.234-0.385,0.211
		c-0.063-0.021-0.118-0.056-0.164-0.104c-0.271-0.375-0.451-0.838-0.942-1.01c-0.177-0.092-0.301-0.244-0.438-0.381
		c-0.555-0.608-1.218-1.059-1.982-1.359c-0.181-0.071-0.303-0.208-0.41-0.362c-0.052-0.355,0.229-0.359,0.45-0.427
		c0.337-0.002,0.525-0.246,0.74-0.452C204.253,116.149,204.849,115.403,205.677,114.918z"/>
	<path fill="#232323" d="M183.632,119.118c-0.276,0.158-0.571,0.163-0.874,0.114c0.729-0.281,0.755-0.315,0.116-0.803
		c-1.46-1.116-2.909-2.26-4.687-2.856c-0.298-0.1-0.52-0.256-0.414-0.602c0.116-0.383,0.417-0.293,0.689-0.209
		c1.544,0.477,2.804,1.43,4.042,2.419c0.077,0.089,0.083,0.18,0.008,0.273c-0.56,0.068-0.809-0.459-1.234-0.657
		c-0.347-0.161-0.644-0.433-0.956-0.664c-0.512-0.364-1.06-0.66-1.653-0.872c0.481,0.304,0.987,0.563,1.502,0.808
		c1.045,0.728,2.137,1.39,3.124,2.2C183.557,118.484,183.902,118.684,183.632,119.118z"/>
	<path fill="#1E1E1E" d="M199.915,116.717c1.174-0.992,1.9-2.348,2.856-3.518c0.331-0.405,0.712-0.739,1.163-0.993
		c0.164-0.092,0.375-0.137,0.511,0.045c0.117,0.157,0.149,0.4-0.02,0.511c-0.987,0.652-1.454,1.746-2.227,2.577
		c-0.167,0.077-0.206,0.376-0.476,0.276c-0.014-0.65,0.553-0.971,0.862-1.423c0.32-0.468,0.668-0.947,1-1.208
		c-0.693,0.727-1.355,1.685-2.067,2.604c-0.426,0.551-0.772,1.238-1.605,1.303C199.867,116.833,199.868,116.774,199.915,116.717z"/>
	<path fill="#161616" d="M200.48,154.224c-0.001-0.459,0.297-0.822,0.401-1.248c0.408-1.667,0.488-3.362,0.444-5.068
		c0.646-0.33-0.014-0.657-0.002-0.985c0.019-0.04,0.046-0.049,0.085-0.027c0.629-0.107,0.621,0.331,0.64,0.747l0.002-0.007
		c-0.183,0.715-0.09,1.453-0.176,2.176c-0.183,1.075-0.202,2.175-0.536,3.23c-0.176,0.557-0.341,1.108-0.677,1.593
		c-0.066,0.053-0.136,0.059-0.209,0.017C200.353,154.501,200.384,154.36,200.48,154.224z"/>
	<path fill="#222222" d="M182.498,117.446c0.002-0.088,0.004-0.176,0.007-0.265c0.68,0.316,1.187,0.869,1.759,1.326
		c0.359,0.287,0.706,0.397,1.144,0.364c0.767-0.058,1.531,0,2.291,0.112c0.254,0.081,0.618,0.097,0.515,0.489
		c-0.123,0.471-0.507,0.246-0.805,0.222l0.014-0.022c-0.683-0.147-1.375-0.027-2.061-0.066c-0.972-0.453-1.837-1.065-2.635-1.779
		C182.607,117.721,182.445,117.65,182.498,117.446z"/>
	<path fill="#333333" d="M199.208,147.461c-1.008,0.422-2.068,0.612-3.149,0.73c-1.93,0.211-3.865,0.12-5.798,0.136
		c-1.092,0.009-1.495,0.58-1.195,1.636c0.1,0.351,0.401,0.65,0.294,1.058c-0.278-0.33-0.385-0.741-0.507-1.135
		c-0.376-1.215,0.05-1.808,1.324-1.776c1.703,0.042,3.402,0.056,5.105-0.038C196.617,147.999,197.892,147.614,199.208,147.461z"/>
	<path fill="#232323" d="M178.14,121.507c-1.067-0.306-2.114-0.697-3.234-0.78c-0.278-0.021-0.555-0.061-0.833-0.058
		c-0.188,0.002-0.484-0.107-0.508,0.2c-0.021,0.276,0.267,0.171,0.426,0.227c0.081,0.029,0.148,0.097,0.222,0.147
		c-0.278,0.005-0.555,0.013-0.833,0.015c-0.263,0.002-0.376-0.161-0.388-0.396c-0.014-0.29,0.19-0.333,0.418-0.336
		c1.635-0.026,3.243,0.098,4.745,0.832C178.23,121.415,178.225,121.465,178.14,121.507z"/>
	<path fill="#1F1F1F" d="M204.412,118.414c-1.021-0.543-1.083-0.834-0.266-1.619c0.547-0.526,1.141-1.004,1.721-1.495
		c0.194-0.165,0.405-0.32,0.69-0.223c-0.768,0.65-1.526,1.309-2.272,1.984c-0.553,0.5-0.442,0.774,0.137,1.058
		C204.496,118.22,204.501,118.319,204.412,118.414z"/>
	<path fill="#3C3C3C" d="M189.688,124.731c-0.051,0-0.103-0.001-0.153-0.002c-0.272-0.326-0.242-0.741-0.324-1.122
		c-0.054-0.25-0.07-0.509-0.131-0.759c-0.061-0.25-0.112-0.529-0.402-0.608c-0.307-0.083-0.343,0.261-0.522,0.386
		c-0.028,0.013-0.057,0.021-0.087,0.024c-0.353-0.363-0.527-0.792-0.04-1.118c0.471-0.315,0.842,0.005,1.072,0.429
		C189.57,122.822,189.594,123.785,189.688,124.731z"/>
	<path fill="#1F1F1F" d="M199.629,112.213c-0.303,0.675-0.627,1.341-0.902,2.027c-0.347,0.863-0.652,1.743-0.98,2.615
		c-0.08,0.213-0.09,0.47-0.345,0.581c-0.04-0.03-0.055-0.062-0.045-0.096c0.01-0.035,0.021-0.052,0.034-0.052
		c0.502-1.699,1.141-3.344,1.962-4.917C199.434,112.301,199.474,112.156,199.629,112.213z"/>
	<path fill="#2A2A2A" d="M198.39,157.071c-1.605,0.768-3.17,0.814-4.671-0.266c-0.05-0.063-0.053-0.128-0.008-0.196
		c0.135-0.08,0.278-0.055,0.398,0.011c1.284,0.709,2.607,0.66,3.954,0.22c0.114-0.037,0.227-0.033,0.332,0.034
		C198.44,156.941,198.439,157.007,198.39,157.071z"/>
	<path fill="#232323" d="M202.45,117.703c0.854,0.472,1.798,0.814,2.394,1.659c-0.031,0.09-0.08,0.101-0.146,0.032
		c-1.504-1.38-3.276-1.975-5.307-1.811c-0.085,0.063-0.148,0.046-0.189-0.052c0.173-0.144,0.381-0.09,0.578-0.103
		c0.196-0.205,0.454-0.187,0.704-0.2c0.454,0.019,0.912-0.041,1.361,0.069C202.095,117.359,202.318,117.465,202.45,117.703z"/>
	<path fill="#282828" d="M200.615,154.639c0.734-1.504,0.962-3.129,1.132-4.768c0.145-0.019,0.226,0.017,0.158,0.182
		c-0.052,1.612-0.273,3.184-1.118,4.604C200.724,154.704,200.666,154.698,200.615,154.639z"/>
	<path fill="#272727" d="M206.66,114.482c-0.185,0.047-0.371,0.094-0.556,0.141c0.507-0.487,2.228-0.773,2.802-0.474
		c0.164,0.085,0.251,0.21,0.238,0.387c-0.021,0.279-0.243,0.331-0.453,0.327c-0.723-0.016-1.429,0.104-2.136,0.222
		c0.034-0.062,0.067-0.125,0.102-0.187c0.436-0.424,1.032-0.276,1.553-0.414C207.686,114.338,207.173,114.471,206.66,114.482z"/>
	<path fill="#232323" d="M178.582,123.073c0.285-0.828,1.031-1.232,1.648-1.735c0.845-0.688,1.725-1.345,2.856-1.504
		c-1.181,0.667-2.428,1.233-3.387,2.236C179.349,122.428,179.108,122.91,178.582,123.073z"/>
	<path fill="#262626" d="M197.391,117.289c0.004,0.049,0.007,0.098,0.011,0.147c-0.464,0.35-0.999,0.556-1.533,0.77
		c-0.239,0.095-0.623,0.224-0.474,0.535c0.114,0.236,0.401-0.047,0.6-0.126c0.234-0.092,0.446-0.252,0.719-0.178
		c-0.358,0.209-0.703,0.447-1.079,0.618c-0.238,0.108-0.576,0.22-0.733-0.104c-0.15-0.311,0.081-0.526,0.352-0.656
		C195.964,117.953,196.678,117.623,197.391,117.289z"/>
	<path fill="#232323" d="M205.677,114.918c-0.769,0.74-1.538,1.479-2.304,2.221c-0.146,0.142-0.328,0.164-0.514,0.181
		c-0.608,0.169-1.173-0.086-1.752-0.186c-0.131-0.022-0.258-0.109-0.202-0.291c0.2-0.124,0.397-0.044,0.596,0.004
		c0.047,0,0.103-0.017,0.139,0.003c1.117,0.612,1.829,0.052,2.537-0.779C204.579,115.601,204.941,114.991,205.677,114.918z"/>
	<path fill="#313131" d="M193.739,156.615c-0.007,0.063-0.014,0.127-0.021,0.19c-1.308-0.886-2.306-2.055-3.096-3.412
		c0.048-0.05,0.107-0.077,0.176-0.082C191.769,154.422,192.83,155.451,193.739,156.615z"/>
	<path fill="#232323" d="M174.2,121.238c1.264-0.116,2.452,0.208,3.607,0.665c0.727,0.287,0.735,0.388,0.276,1.026
		c-0.163,0.226-0.32,0.456-0.479,0.684c-0.079-0.046-0.092-0.106-0.041-0.182c0.068-0.147,0.124-0.301,0.207-0.439
		c0.443-0.732,0.438-0.714-0.327-1.033C176.402,121.527,175.292,121.425,174.2,121.238z"/>
	<path fill="#696969" d="M189.549,134.278c0.235,0.728,0.065,1.476,0.104,2.213c0.016,0.307-0.008,0.614,0.308,0.798
		c0.337,0.197,0.568-0.04,0.818-0.201c0.036,0.438-0.185,0.666-0.605,0.666c-0.481,0.001-0.642-0.33-0.644-0.746
		C189.525,136.099,189.542,135.188,189.549,134.278z"/>
	<path fill="#232323" d="M180.394,120.256c0.381-0.641-0.457-0.542-0.545-0.896c0.375,0.084,0.778,0.109,0.945,0.559
		c0.128,0.344,0.309,0.052,0.416-0.01c0.497-0.287,0.972-0.612,1.561-0.684c-0.746,0.569-1.613,0.934-2.409,1.42
		C180.269,120.506,180.288,120.377,180.394,120.256z"/>
	<path fill="#363636" d="M200.615,154.639c0.057,0.006,0.115,0.013,0.172,0.019c-0.531,1.07-1.322,1.883-2.397,2.414
		c-0.006-0.06-0.011-0.119-0.017-0.179c0.029-0.399,0.427-0.453,0.651-0.653c0.541-0.484,0.907-1.121,1.458-1.589
		C200.526,154.649,200.571,154.646,200.615,154.639z"/>
	<path fill="#232323" d="M185.166,119.533c0.75,0.083,1.519-0.154,2.256,0.139c-1.449,0.056-2.898,0.111-4.348,0.167
		c0.209-0.293,0.602-0.082,0.836-0.304C184.329,119.4,184.747,119.407,185.166,119.533z"/>
	<path fill="#EAEAEA" d="M202.342,105.486c0.049-0.708-0.132-1.331-0.676-1.817c-0.24-0.214-0.052-0.25,0.12-0.295
		c0.301,0.083,0.305,0.435,0.533,0.583c0.164,0.093,0.207,0.253,0.232,0.422c0.058,0.252,0.266,0.47,0.17,0.756
		c-0.166,0.136,0.053,0.338-0.08,0.48C202.541,105.573,202.441,105.529,202.342,105.486z"/>
	<path fill="#1F1F1F" d="M199.354,113.893c0.016-0.47,0.31-0.812,0.531-1.191c0.127-0.219,0.371-0.518-0.137-0.621
		c-0.079-0.359,0.191-0.405,0.404-0.356c0.39,0.09,0.259,0.4,0.198,0.661c-0.376,0.462-0.556,1.03-0.829,1.547
		C199.45,113.982,199.394,113.969,199.354,113.893z"/>
	<path fill="#464646" d="M201.501,116.848c-0.197,0.001-0.395,0.003-0.591,0.004c-0.11-0.018-0.18-0.078-0.197-0.191
		c0.229-0.465,0.493-0.897,1.028-1.068c0.152-0.085,0.304-0.17,0.457-0.255c-0.191,0.456-0.517,0.818-0.854,1.161
		C201.037,116.811,201.461,116.729,201.501,116.848z"/>
	<path fill="#252525" d="M198.387,117.01c-0.28-0.144-0.124-0.386-0.074-0.544c0.214-0.675,0.378-1.373,0.78-1.974
		c0.084,0.144,0.068,0.287-0.006,0.428C198.854,115.617,198.62,116.313,198.387,117.01z"/>
	<path fill="#252525" d="M190.795,153.376c-0.057,0.006-0.115,0.012-0.173,0.018c-0.414-0.543-0.758-1.125-0.98-1.775
		c-0.035-0.115-0.071-0.23,0.021-0.337c0.236,0.418,0.472,0.837,0.707,1.256C190.686,152.729,190.856,152.994,190.795,153.376z"/>
	<path fill="#5B5B5B" d="M204.412,118.414c0.003-0.098,0.006-0.196,0.009-0.294c0.613,0.365,1.186,0.774,1.556,1.407
		c-0.364,0.086-0.448-0.329-0.722-0.404C204.975,118.886,204.693,118.65,204.412,118.414z"/>
	<path fill="#929292" d="M204.42,103.941c-0.085-0.074-0.196-0.134-0.251-0.226c-0.087-0.145-0.241-0.311-0.008-0.471
		c0.175-0.12,0.304-0.031,0.415,0.098c0.132,0.155,0.254,0.319,0.38,0.479C204.879,104.322,204.594,103.88,204.42,103.941z"/>
	<path fill="#0C0C0C" d="M201.324,146.922c0.59,0.528,0.59,0.778,0.002,0.986c0.174-0.381,0.219-0.706-0.363-0.544
		c-0.237,0.066-0.241-0.17-0.39-0.184C200.824,147.094,201.073,147.008,201.324,146.922z"/>
	<path fill="#515151" d="M206.648,120.674c-0.044-0.051-0.087-0.103-0.131-0.153c-0.075-0.104-0.086-0.204,0.013-0.3
		c0.021,0.008,0.047,0.011,0.063,0.025c0.31,0.256,0.437,0.581,0.329,0.972c-0.052,0.19-0.231,0.21-0.394,0.186
		c-0.416-0.062-0.521-0.386-0.59-0.734c0.168-0.1,0.22,0.039,0.29,0.141l-0.001,0.001
		C206.592,120.992,206.608,120.986,206.648,120.674z"/>
	<path fill="#333333" d="M201.905,150.053c-0.053-0.061-0.105-0.121-0.158-0.182c0.093-0.746,0.021-1.515,0.304-2.236
		C202.026,148.443,202.101,149.256,201.905,150.053z"/>
	<path fill="#1D1D1D" d="M206.531,120.221c-0.004,0.1-0.009,0.2-0.013,0.3c-0.421-0.466-0.841-0.932-1.262-1.398
		c0.33-0.025,0.426,0.368,0.722,0.404C206.214,119.716,206.401,119.946,206.531,120.221z"/>
	<path fill="#A1A1A1" d="M202.466,105.484c0.037-0.143-0.219-0.263-0.034-0.418c0.087-0.06,0.129-0.218,0.284-0.129
		c0.08,0.11,0.189,0.21,0.231,0.333c0.062,0.186,0.177,0.444-0.033,0.562C202.577,106.021,202.617,105.604,202.466,105.484z"/>
	<path fill="#A2A2A2" d="M197.384,101.285c0.145,0.276,0.29,0.552,0.435,0.828c-0.203-0.129-0.399-0.189-0.636-0.051
		c-0.196,0.114-0.361,0.083-0.345-0.205C196.958,101.606,197.172,101.447,197.384,101.285z"/>
	<path fill="#6C6C6C" d="M200.35,112.386c-0.065-0.178,0.079-0.438-0.184-0.534c-0.207-0.076-0.348,0.026-0.418,0.229
		c-0.04,0.044-0.079,0.089-0.118,0.133c-0.093,0.053-0.185,0.106-0.277,0.159c-0.011-0.204,0.147-0.325,0.236-0.479
		c0.19-0.329,0.522-0.462,0.804-0.261C200.642,111.809,200.631,112.147,200.35,112.386z"/>
	<path fill="#646464" d="M180.394,120.256c-0.011,0.129-0.021,0.259-0.032,0.388c-0.281,0.255-0.564,0.507-0.96,0.567
		c0.082-0.384,0.848-0.366,0.565-0.964C180.109,120.25,180.251,120.253,180.394,120.256z"/>
	<path fill="#535353" d="M177.158,124.303c0.089,0.171-0.093,0.462,0.194,0.535c0.298,0.076,0.323-0.286,0.522-0.384
		c0.002,0.023,0.009,0.047,0.005,0.069c-0.066,0.349-0.142,0.785-0.611,0.629C176.818,125.003,176.981,124.618,177.158,124.303z"/>
	<path fill="#767676" d="M187.408,119.694c0.224-0.099,0.584,0.177,0.689-0.238c0.083-0.328-0.28-0.302-0.399-0.473
		c0.277-0.06,0.519-0.015,0.638,0.272c0.061,0.149,0.116,0.362-0.019,0.461C188.028,119.931,187.707,119.886,187.408,119.694z"/>
	<path fill="#B7B7B7" d="M178.756,123.204c0.373-0.334,0.746-0.668,1.118-1.002c-0.264,0.569-0.694,0.977-1.241,1.271
		C178.566,123.333,178.729,123.3,178.756,123.204z"/>
	<path fill="#EBEBEB" d="M197.384,101.285c0.026,0.39-0.322,0.421-0.546,0.571c-0.126-0.404,0.15-0.694,0.289-1.024
		C197.212,100.982,197.298,101.133,197.384,101.285z"/>
	<path fill="#262626" d="M196.703,118.443c0.479-0.439,1.045-0.672,1.691-0.714C197.882,118.087,197.289,118.257,196.703,118.443z"
		/>
	<path fill="#1D1D1D" d="M206.229,120.811c-0.097-0.047-0.193-0.094-0.29-0.141c-0.185-0.23-0.371-0.459-0.556-0.689
		c-0.047-0.1-0.23-0.146-0.119-0.307C205.82,119.854,206.027,120.33,206.229,120.811z"/>
	<path fill="#ADADAD" d="M197.951,102.931c0.057,0.054,0.115,0.108,0.172,0.163c-0.124,0.321-0.303,0.599-0.631,0.882
		C197.399,103.444,197.724,103.209,197.951,102.931z"/>
	<path fill="#333333" d="M202.048,147.642c-0.188-0.271-0.157-0.73-0.64-0.747c0.198-0.169,0.425-0.225,0.602-0.011
		C202.195,147.108,202.213,147.38,202.048,147.642z"/>
	<path fill="#4D4D4D" d="M199.087,114.92c0.002-0.143,0.004-0.286,0.006-0.429c0.088-0.199,0.049-0.453,0.26-0.599
		c0.056,0.013,0.112,0.027,0.168,0.041C199.464,114.301,199.3,114.622,199.087,114.92z"/>
	<path fill="#4F4F4F" d="M178.14,121.507c0.005-0.05,0.01-0.101,0.015-0.151c0.371,0.093,0.744,0.313,1.11-0.013
		C178.988,122.07,178.549,121.686,178.14,121.507z"/>
	<path fill="#252525" d="M199.915,116.717c0.003,0.052,0.006,0.104,0.009,0.155c-0.058,0.122-0.131,0.211-0.284,0.14
		c-0.342-0.007-0.685-0.013-1.027-0.02C199.02,116.775,199.496,116.881,199.915,116.717z"/>
	<path fill="#B0B0B0" d="M202.891,105.069c-0.095,0.043-0.189,0.086-0.284,0.129c0.078-0.296-0.113-0.554-0.121-0.839
		c0.038-0.062,0.078-0.065,0.122-0.006c0.043,0.053,0.085,0.105,0.128,0.158C202.787,104.696,202.839,104.883,202.891,105.069z"/>
	<path fill="#595959" d="M205.265,119.674c0.04,0.102,0.079,0.205,0.119,0.307c-0.308-0.103-0.534-0.301-0.685-0.586
		c0.049-0.011,0.097-0.021,0.146-0.032C204.984,119.466,205.125,119.57,205.265,119.674z"/>
	<path fill="#535353" d="M177.562,123.431c0.014,0.061,0.027,0.121,0.041,0.182c-0.181,0.21-0.189,0.532-0.446,0.693
		C177.17,123.958,177.3,123.664,177.562,123.431z"/>
	<path fill="#DCDCDC" d="M206.699,166.943c0.178-0.062,0.276-0.105,0.378-0.13c0.111-0.027,0.179,0.032,0.162,0.143
		c-0.021,0.134-0.122,0.194-0.249,0.16C206.911,167.096,206.844,167.032,206.699,166.943z"/>
	<path fill="#DDDDDD" d="M202.12,108.012c-0.265-0.212-0.221-0.39-0.138-0.603C202.146,107.571,202.232,107.725,202.12,108.012z"/>
	<path fill="#2C2526" d="M206.039,101.726c0.313,0.046,0.644,0.033,0.895,0.278C206.601,102.025,206.293,101.963,206.039,101.726z"
		/>
	<path fill="#252525" d="M199.202,117.532c0.063,0.018,0.126,0.035,0.189,0.052c-0.326,0.12-0.667,0.139-1.009,0.148
		C198.599,117.434,198.937,117.631,199.202,117.532z"/>
	<path fill="#D9D9D9" d="M203.193,106.89c-0.098,0.046-0.173,0.107-0.201,0.09c-0.071-0.043-0.157-0.114-0.173-0.187
		c-0.028-0.126,0.081-0.158,0.172-0.112C203.062,106.717,203.109,106.799,203.193,106.89z"/>
	<path fill="#333333" d="M189.663,151.281c-0.007,0.113-0.014,0.225-0.021,0.337c-0.177-0.163-0.274-0.364-0.287-0.605
		C189.458,151.103,189.561,151.192,189.663,151.281z"/>
	<path fill="#2C2526" d="M205.254,101.395c-0.383-0.015-0.685-0.391-1.103-0.247c-0.165,0.067-0.178-0.024-0.159-0.15
		c0.287-0.051,0.617,0.12,0.859-0.165c0.34,0.045,0.641,0.172,0.881,0.424C205.621,101.47,205.282,100.893,205.254,101.395z"/>
	<path fill="#2C2526" d="M205.817,101.276c0.647,0.15,1.284,0.37,1.966,0.294C207.071,101.851,206.419,101.728,205.817,101.276z"/>
	<path fill="#2A2425" d="M211.729,98.013c0.576,0.52,0.665,1.216,0.227,1.775c-0.414,0.527-1.321,0.659-1.893,0.273
		c-0.67-0.451-0.799-1.033-0.385-1.737c0.496-0.844,0.976-1.009,1.652-0.57c-0.117,0.226,0.294,0.39,0.073,0.629
		c-0.116,0.046-0.223,0.013-0.336-0.021c-0.471-0.141-0.839,0.051-0.923,0.495c-0.08,0.424,0.168,0.659,0.534,0.765
		c0.39,0.113,0.75-0.172,0.833-0.625c0.029-0.16-0.018-0.323,0.005-0.484C211.616,98.359,211.603,98.156,211.729,98.013z"/>
	<path fill="#292222" d="M215.647,97.641c0.121-0.047,0.181-0.223,0.351-0.168c0.267-0.068,0.534-0.094,0.8,0.005
		c0.125,0.055,0.255,0.1,0.375,0.165c1.284,0.709,1.308,0.92,0.228,1.969c-0.351,0.084-0.701,0.072-1.05-0.015
		c-0.451-0.19-0.902-0.39-1.115-0.874c-0.094-0.213-0.316-0.442-0.031-0.682C215.342,97.899,215.458,97.729,215.647,97.641z"/>
	<path fill="#2D2223" d="M216.058,95.527c-0.313-0.073-0.524-0.282-0.703-0.533c-0.133-0.417-0.089-0.814,0.142-1.188
		c0.105-0.246,0.336-0.372,0.516-0.547c0.339-0.158,0.682-0.289,1.061-0.131c0.338,0.226,0.971,0.212,0.919,0.765
		c-0.065,0.683-0.428,1.268-1.051,1.64C216.646,95.621,216.352,95.629,216.058,95.527z"/>
	<path fill="#191717" d="M211.729,98.013c0.041,0.19,0.22,0.432-0.17,0.465c-0.101,0.027-0.14-0.02-0.138-0.116
		c0.17-0.233-0.676-0.313-0.091-0.608C211.463,97.84,211.596,97.927,211.729,98.013z"/>
	<path fill="#22191A" d="M204.994,100.49c0.095-0.403,0.332-0.696,0.694-0.892C205.557,99.973,205.421,100.345,204.994,100.49z"/>
	<path fill="#2C2627" d="M215.497,93.806c-0.047,0.396-0.094,0.792-0.142,1.188C215.021,94.553,215.197,94.172,215.497,93.806z"/>
	<path fill="#2C2627" d="M217.072,93.127c-0.353,0.044-0.707,0.087-1.06,0.131C216.337,92.988,216.686,92.903,217.072,93.127z"/>
	<path fill="#2D2627" d="M216.35,99.598c0.35,0.005,0.7,0.009,1.05,0.015C217.047,99.798,216.697,99.807,216.35,99.598z"/>
	<path fill="#2C2627" d="M216.058,95.527c0.294,0.002,0.588,0.004,0.882,0.006C216.645,95.75,216.351,95.681,216.058,95.527z"/>
	<path fill="#2D2627" d="M215.647,97.641c-0.104,0.183-0.232,0.337-0.443,0.402C215.285,97.836,215.376,97.639,215.647,97.641z"/>
	<path fill="#2D2627" d="M216.797,97.479c-0.266-0.002-0.533-0.003-0.799-0.005C216.265,97.347,216.532,97.315,216.797,97.479z"/>
	<path fill="#747474" d="M207.933,96.511c-0.329-0.127-0.454-0.562-0.861-0.572c-0.174-0.461,0.144-0.936-0.04-1.397
		c0.083-0.198,0.22-0.322,0.443-0.332c0.235,0.098,0.524-0.018,0.732,0.187l0,0c0.168,0.149-0.29,0.492,0.169,0.552
		c0.18,0.206,0.517,0.167,0.664,0.426C208.119,95.215,208.272,96.102,207.933,96.511z"/>
	<path fill="#868686" d="M208.208,94.396c-0.223-0.127-0.558,0.273-0.717-0.153c-0.138-0.168-0.083-0.348-0.035-0.529
		c0.038-0.052,0.087-0.089,0.146-0.112c0.061-0.016,0.123-0.021,0.186-0.017c0.062,0.01,0.12,0.032,0.174,0.062
		c0.188,0.104,0.163,0.314,0.236,0.476C208.202,94.214,208.206,94.305,208.208,94.396z"/>
	<path fill="#EEEEEE" d="M208.056,93.731c-0.038-0.009-0.076-0.017-0.115-0.022c0.148-0.421,0.548-0.687,0.688-1.113
		c0.288,0.148-0.049,0.672,0.427,0.708c0.044,0.244-0.135,0.324-0.304,0.412c-0.048,0.007-0.096,0.014-0.144,0.021
		C208.423,93.854,208.239,93.843,208.056,93.731z"/>
	<path fill="#A9A9A9" d="M208.612,93.692c-0.018-0.225,0.201-0.275,0.303-0.412c0.167,0.025,0.437-0.106,0.477,0.11
		c0.064,0.354-0.378,0.229-0.512,0.423C208.768,93.823,208.676,93.788,208.612,93.692z"/>
	<path fill="#BDBDBD" d="M208.056,93.731c0.184,0.001,0.368,0.003,0.552,0.004c-0.089,0.137-0.179,0.274-0.269,0.411
		C208.245,94.009,208.15,93.87,208.056,93.731z"/>
	<path fill="#868686" d="M208.377,94.948c-0.497-0.049-0.4-0.28-0.169-0.552C208.411,94.535,208.308,94.768,208.377,94.948z"/>
	<path fill="#F8B8BD" d="M199.785,99.758c-0.032-0.398,0.279-0.509,0.58-0.635c0.132,0.053,0.101,0.278,0.244,0.229
		c0.16-0.055,0.037-0.248,0.049-0.38c-0.002-0.106,0.022-0.205,0.077-0.296c0.454-0.524,1.095-0.643,1.723-0.759
		c0.335-0.062,0.678-0.107,1.017-0.153c0.485-0.041,1.056,0.165,1.339-0.465c0.485-0.302,0.5,0.075,0.559,0.387
		c-0.009,0.354,0.332,0.705,0.005,1.06c-0.164,0.228,0.019,0.501-0.099,0.735c-0.107,0.126-0.213,0.251-0.32,0.377
		c-0.146,0.194-0.356,0.323-0.518,0.501c-0.191,0.117-0.192,0.363-0.311,0.615l0.01-0.012c-0.835,0.57-1.726,0.393-2.596,0.113
		c-0.525-0.169-1.029-0.424-1.477-0.767C199.9,100.163,199.766,100,199.785,99.758z"/>
	<path fill="#3A3A3A" d="M205.233,97.661c-0.167-0.122-0.149-0.568-0.535-0.305c-0.087-0.161,0.043-0.426-0.241-0.491
		c-0.242-0.184-0.429-0.413-0.57-0.681c-0.231-0.64-0.1-1.38-0.548-1.959c-0.072-0.121-0.13-0.247-0.12-0.393
		c0.007-0.021,0.016-0.062,0.022-0.062c0.725,0.027,1.336-0.37,2.01-0.531c0.101,0.801,0.809,0.758,1.34,0.95
		c0.166,0.06,0.371-0.051,0.534,0.083c0.045,0.102,0.03,0.195-0.037,0.282c0.458,0.467,0.018,0.924-0.016,1.386
		c-0.219,0.145-0.096,0.374-0.138,0.562c-0.452,0.29-0.057,0.784-0.273,1.131c-0.232-0.243-0.417-0.502-0.779-0.632
		c-0.493-0.176-0.324,0.145-0.346,0.348C205.155,97.182,205.298,97.521,205.233,97.661z"/>
	<path fill="#211C1C" d="M199.971,100.139c0.538,0.267,1.06,0.572,1.616,0.792c0.795,0.315,1.597,0.166,2.381-0.102
		c0.008,0.056,0.016,0.112,0.024,0.168c0.053,0.05,0.106,0.1,0.159,0.15c-0.054,0.042-0.108,0.084-0.163,0.127
		c-0.293,0.207-0.66,0.165-0.977,0.289l0,0c-1.314,0.078-2.436-0.375-3.407-1.241C199.675,100.158,199.78,100.062,199.971,100.139z"
		/>
	<path fill="#22191A" d="M204.271,100.297c0.129-0.218,0.313-0.37,0.547-0.464c-0.058,0.22-0.127,0.432-0.395,0.482
		C204.367,100.362,204.316,100.356,204.271,100.297z"/>
	<path fill="#211C1C" d="M204.271,100.297c0.051,0.006,0.102,0.012,0.153,0.018c-0.165,0.167-0.232,0.421-0.467,0.526
		C204.044,100.65,204.003,100.384,204.271,100.297z"/>
	<path fill="#3B2B2D" d="M205.139,99.456c0.087-0.237-0.318-0.542,0.098-0.735C205.232,98.969,205.369,99.237,205.139,99.456z"/>
	<path fill="#929292" d="M207.215,97.43c-0.437-0.068-0.357-0.356-0.275-0.645C207.126,96.96,207.142,97.207,207.215,97.43z"/>
	<path fill="#272223" d="M189.949,91.462c0.645,0.114,1.458,1.128,1.49,1.859c0.034,0.771-0.668,1.743-1.384,1.911
		c-0.231,0.054-0.462,0.053-0.679-0.067c-0.513-0.284-0.996-0.607-1.327-1.107c-0.392-0.594-0.604-1.215-0.206-1.894
		c0.381-0.651,0.991-0.792,1.685-0.727c0.008,0.365-0.22,0.152-0.346,0.201c0.117,0.125,0.427-0.115,0.515,0.17
		c-0.15,0.279-0.443,0.217-0.681,0.277c-0.514,0.131-0.739,0.459-0.698,0.976c0.042,0.518,0.828,1.42,1.325,1.511
		c0.536,0.099,0.741-0.321,0.953-0.672c0.243-0.405,0.181-0.798-0.16-1.148c-0.269-0.276-0.709-0.389-0.803-0.834
		c0.219-0.304,0.456,0.008,0.683-0.013C190.181,91.766,189.914,91.741,189.949,91.462z"/>
	<path fill="#282424" d="M196.29,88.505c0.13,1.112-0.478,1.844-1.313,2.411c-0.503,0.341-1.048,0.287-1.564-0.086
		c-0.75-0.541-1.111-1.294-1.033-2.17c0.081-0.904,0.639-1.596,1.416-2.051c0.384-0.225,0.84-0.271,1.24,0.053
		c-0.266,0.248-0.591-0.02-0.865,0.101c0.197,0.017,0.439-0.137,0.583,0.138c-0.531,0.34-1.157,0.525-1.47,1.183
		c-0.344,0.724-0.242,1.58,0.375,2.093c0.401,0.333,0.825,0.303,1.226,0.022c0.533-0.374,0.773-0.904,0.791-1.56
		c0.009-0.297-0.129-0.674,0.281-0.852c0.375,0.448,0.001,0.896,0.064,1.323C196.255,89.023,195.815,88.521,196.29,88.505z"/>
	<path fill="#2A2525" d="M197.812,94.691c0.363,0.396,0.542,0.884,0.489,1.396c-0.071,0.677-0.423,1.279-1.018,1.589
		c-0.548,0.286-0.939-0.246-1.341-0.535c-0.243-0.174-0.459-0.395-0.654-0.624c-0.89-1.048-0.597-2.037,0.739-2.314
		c0.366-0.076,0.66-0.562,1.105-0.238c-0.13,0.358-0.452,0.324-0.727,0.364c0.148,0.042,0.387-0.113,0.456,0.175
		c-0.181,0.263-0.492,0.233-0.747,0.327c-0.681,0.251-0.793,0.634-0.344,1.218c0.128,0.166,0.257,0.334,0.416,0.471
		c0.272,0.236,0.538,0.634,0.947,0.356c0.381-0.259,0.55-0.682,0.458-1.169c-0.056-0.295-0.292-0.539-0.24-0.863
		C197.448,94.625,197.722,94.935,197.812,94.691z"/>
	<path fill="#1F1A1A" d="M203.429,97.898c-0.966,0.185-1.995,0.168-2.798,0.873c-0.176-0.12-0.237-0.363-0.462-0.43
		c-0.28-0.828-0.526-1.666-0.675-2.529c-0.162-0.604-0.198-1.242-0.479-1.815c-0.161-0.168-0.082-0.373-0.085-0.565
		c-0.08-0.432-0.166-0.862-0.286-1.285c-0.175-0.19-0.164-0.421-0.146-0.655c-0.054-0.256-0.158-0.497-0.243-0.743
		c-0.006-0.048-0.011-0.096-0.017-0.144c0.052-0.07,0.062-0.174,0.166-0.202c0.364,0.425,0.293,1.008,0.533,1.478
		c0.116,0.417,0.162,0.851,0.305,1.261c0,0.173,0,0.347,0.001,0.52c0.153,0.188,0.252,0.412,0.415,0.592
		c0.409,0.916,0.505,1.918,0.799,2.865c0.256,0.755,0.257,0.758,1.041,0.456c0.281-0.108,0.583-0.12,0.867-0.214
		c0.233-0.046,0.466-0.066,0.694,0.024c0.071,0.169,0.148,0.333,0.369,0.345C203.469,97.786,203.472,97.842,203.429,97.898z"/>
	<path fill="#211D1E" d="M194.725,86.924c-0.191-0.202-0.482-0.05-0.691-0.261c0.334,0,0.668,0,1.002,0
		c0.631,0.05,0.86,0.532,1.091,1.013c0.178,0.196-0.056,0.492,0.165,0.678c0.016,0.036,0.035,0.071,0.043,0.109
		c0.003,0.01-0.028,0.028-0.044,0.043c-0.284,0.153-0.075,0.467-0.221,0.681c-0.258-0.425,0.161-0.969-0.258-1.349
		c-0.05-0.03-0.096-0.065-0.138-0.106c-0.129-0.125-0.292-0.196-0.45-0.276C195.012,87.319,194.756,87.226,194.725,86.924z"/>
	<path fill="#211B1B" d="M196.83,94.541c-0.136-0.215-0.389-0.101-0.727-0.229c0.474-0.041,0.746-0.205,1.029-0.346
		c0.412,0.068,0.481,0.458,0.68,0.726c0.035,0.601-0.293,0.02-0.41,0.126C197.113,94.928,196.947,94.784,196.83,94.541z"/>
	<path fill="#1B1818" d="M189.949,91.462c0.201,0.274,0.857,0.318,0.707,0.619c-0.174,0.346-0.546-0.18-0.864-0.194
		c-0.046-0.002-0.092-0.004-0.138-0.006l0.005,0.003c-0.121-0.238-0.372-0.118-0.567-0.186c0.106-0.181,0.371-0.053,0.437-0.26
		C189.673,91.384,189.812,91.394,189.949,91.462z"/>
	<path fill="#080506" d="M200.169,98.341c0.48-0.208,0.424,0.161,0.462,0.43c0.003,0.086,0.007,0.173,0.011,0.259
		c-0.023,0.134,0.074,0.355-0.181,0.338c-0.298-0.02-0.108-0.343-0.254-0.468c-0.164-0.148,0.051-0.325-0.037-0.479
		C200.146,98.396,200.146,98.369,200.169,98.341z"/>
	<path fill="#252525" d="M198.402,90.404c-0.055,0.067-0.111,0.135-0.166,0.202c-0.074-0.119-0.203-0.216-0.16-0.384
		c0.114-0.517-0.281-0.94-0.264-1.44c0.095,0.094,0.189,0.188,0.284,0.281C198.148,89.521,198.491,89.914,198.402,90.404z"/>
	<path fill="#2D2627" d="M199.014,93.998c0.397,0.542,0.447,1.176,0.479,1.814C199.22,95.238,199.125,94.616,199.014,93.998z"/>
	<path fill="#2D2627" d="M198.643,92.147c0.258,0.392,0.324,0.827,0.286,1.285C198.753,93.022,198.657,92.594,198.643,92.147z"/>
	<path fill="#2D2627" d="M198.253,90.75c0.21,0.206,0.291,0.453,0.243,0.743C198.331,91.272,198.25,91.025,198.253,90.75z"/>
	<path fill="#282424" d="M196.291,88.353c-0.269-0.173-0.129-0.447-0.165-0.678C196.35,87.86,196.305,88.111,196.291,88.353z"/>
	<path fill="#110F0F" d="M199.971,100.139c-0.122,0.061-0.245,0.122-0.367,0.183c-0.331-0.177-0.662-0.354-0.931-0.623
		c0.329-0.121,0.658-0.271,0.972,0.034C199.753,99.869,199.862,100.004,199.971,100.139z"/>
	<path fill="#4B3839" d="M200.207,98.9c0.175-0.059,0.108,0.693,0.435,0.13c0.196,0.285,0.071,0.553-0.198,0.572
		c-0.317,0.022-0.213-0.33-0.252-0.538C200.196,99.01,200.202,98.955,200.207,98.9z"/>
	<path fill="#999999" d="M203.691,91.584c0.021-0.174-0.068-0.31-0.147-0.454c-0.442-0.796-0.346-1.396,0.294-1.872
		c0.805-0.598,1.492-0.576,2.165,0.064c0.171,0.163,0.333,0.327,0.383,0.569c0.044,0.049,0.058,0.105,0.037,0.168
		c-0.039,0.06-0.12,0.146-0.154,0.125c-0.265-0.172-0.23,0.125-0.333,0.202c-0.567,0.252-0.797,0.87-1.295,1.198
		C204.325,91.626,204.008,91.738,203.691,91.584z"/>
	<path fill="#858585" d="M203.691,91.584c0.319-0.172,0.665-0.136,1.006-0.133c0.379,0.293,0.587,0.562-0.114,0.663
		c-0.61,0.088-0.263,0.642-0.463,0.928c-0.295,0.098-0.642,0.068-0.865,0.35c-0.151,0.03-0.292,0.009-0.417-0.085
		c-0.08-0.093-0.116-0.203-0.132-0.321c-0.014-0.205,0.027-0.393,0.162-0.554C203.068,92.077,203.375,91.826,203.691,91.584z"/>
	<path fill="#AAAAAA" d="M206.387,90.028c-0.003-0.045-0.003-0.091,0-0.137c0.173,0.092,0.347,0.185,0.52,0.277
		c0.535-0.198,0.834,0.042,0.868,0.696c0.373,0.513-0.222,1.431,0.715,1.708c0.168,0.617-0.303,0.838-0.688,1.113
		c-0.054-0.002-0.107-0.004-0.161-0.006c-0.219-0.091-0.28-0.271-0.163-0.452c0.197-0.303,0.148-0.623,0.132-0.946
		c0.063-0.549-0.192-0.962-0.566-1.326C206.882,90.606,206.498,90.413,206.387,90.028z"/>
	<path fill="#606060" d="M202.876,93.251c0.138,0.008,0.276,0.017,0.414,0.025c-0.009,0.188-0.135,0.374-0.005,0.562
		c0.048,0.093,0.096,0.187,0.144,0.28c0.065,0.158-0.048,0.22-0.158,0.213c-0.401-0.025-0.743,0.155-1.102,0.284
		c-0.069,0.011-0.138,0.012-0.207,0.005c-0.207-0.038-0.419-0.069-0.606-0.165c-0.433-0.221-0.861-0.349-1.335-0.11
		c-0.177,0.089-0.366,0.027-0.53-0.083c-0.131-0.18-0.24-0.37-0.249-0.601c0.262,0.204,0.458,0.372,0.878,0.166
		c0.353-0.173,0.846-0.015,1.225,0.231c0.443,0.289,0.689,0.212,0.675-0.358c0.074-0.334,0.434-0.046,0.562-0.261
		C202.679,93.377,202.764,93.292,202.876,93.251z"/>
	<path fill="#BDBDBD" d="M207.914,90.888c-0.219-0.319-0.3-0.811-0.867-0.696c0.097-0.372,0.352-0.532,0.714-0.472
		c0.26,0.043,0.474,0.206,0.547,0.472C208.404,90.539,208.238,90.764,207.914,90.888z"/>
	<path fill="#989898" d="M202.732,93.557c-0.22,0.134-0.448,0.232-0.713,0.145c-0.004-0.435,0.131-0.911-0.396-1.226
		c0.451,0.129,0.867,0.388,1.245-0.045c0,0.191,0,0.383,0,0.574C202.527,93.117,202.916,93.407,202.732,93.557z"/>
	<path fill="#2D2627" d="M199.24,93.143c-0.252-0.384-0.332-0.81-0.305-1.261C199.148,92.275,199.253,92.695,199.24,93.143z"/>
	<path fill="#E9E9E9" d="M202.35,91.577c-0.044-0.064-0.12-0.131-0.134-0.208c-0.016-0.086,0.075-0.1,0.127-0.051
		c0.063,0.059,0.104,0.142,0.155,0.214C202.458,91.544,202.418,91.556,202.35,91.577z"/>
	<path fill="#151515" d="M190.795,153.376c-0.142-0.28-0.284-0.559-0.425-0.839c0-0.14,0-0.28,0-0.42
		c0.325,0.048,0.297,0.376,0.406,0.568c0.643,1.131,1.697,1.878,2.569,2.79c0.269,0.281,0.457,0.629,0.799,0.862
		c1.408,0.961,3.465,0.64,4.777-0.517c0.57-0.502,0.869-1.241,1.559-1.596c0,0.142,0.001,0.284,0.002,0.426
		c-0.476,0.961-1.21,1.679-2.109,2.243c-1.59,0.661-3.139,0.639-4.634-0.278C192.618,155.662,191.624,154.595,190.795,153.376z"/>
	<path fill="#999999" d="M202.433,104.221l-0.061,0.006h-0.061c-0.056-0.134-0.112-0.268-0.168-0.402
		c0.097-0.054,0.193-0.107,0.29-0.161C202.433,103.85,202.433,104.035,202.433,104.221z"/>
	<path fill="#141414" d="M197.256,127.817c-0.287-2.344-0.496-4.701-1.06-7.002c-0.076-0.31-0.036-0.508,0.299-0.566
		c0.318-0.056,0.414,0.092,0.49,0.41c0.585,2.436,0.955,4.9,1.133,7.398c0.024,0.339,0.12,0.682,0.117,1.031
		c0.168,0.265-0.035,0.587,0.132,0.853c-0.12,0.373,0.07,0.742,0.009,1.114c0.166,0.266-0.035,0.587,0.13,0.853
		c0.003,0.465,0.006,0.93,0.009,1.394c0.173,0.314-0.041,0.679,0.132,0.993c-0.123,0.372,0.072,0.742,0.007,1.113
		c0.182,0.361-0.046,0.771,0.134,1.133c-0.12,0.372,0.069,0.742,0.008,1.114c0.101,0.234,0.106,0.468-0.004,0.701l0.002-0.001
		c-0.233,0.111-0.466,0.103-0.7,0.005c-0.224-0.452-0.16-0.933-0.145-1.409c-0.166-0.265,0.035-0.587-0.131-0.853
		c-0.003-0.464-0.006-0.929-0.009-1.394c-0.177-0.409,0.045-0.86-0.134-1.27c-0.002-0.373-0.005-0.745-0.007-1.118
		c-0.167-0.265,0.034-0.585-0.13-0.85c-0.003-0.372-0.006-0.744-0.009-1.115c-0.169-0.265,0.034-0.586-0.132-0.851
		c-0.003-0.278-0.005-0.557-0.008-0.835C197.219,128.403,197.427,128.08,197.256,127.817z"/>
	<path fill="#282828" d="M197.677,133.435c0.264,0.4,0.081,0.847,0.134,1.27C197.538,134.305,197.728,133.857,197.677,133.435z"/>
	<path fill="#2C2C2C" d="M198.79,136.541c-0.26-0.353-0.081-0.757-0.134-1.133C198.934,135.757,198.739,136.163,198.79,136.541z"/>
	<path fill="#2C2C2C" d="M198.648,134.294c-0.248-0.304-0.087-0.662-0.132-0.993C198.781,133.603,198.606,133.963,198.648,134.294z"
		/>
	<path fill="#282828" d="M197.256,127.817c0.239,0.252,0.096,0.565,0.135,0.849C197.142,128.415,197.292,128.101,197.256,127.817z"
		/>
	<path fill="#2C2C2C" d="M198.368,129.94c-0.233-0.255-0.095-0.567-0.132-0.853C198.487,129.34,198.333,129.655,198.368,129.94z"/>
	<path fill="#282828" d="M197.399,129.5c0.235,0.254,0.095,0.565,0.131,0.851C197.283,130.099,197.432,129.786,197.399,129.5z"/>
	<path fill="#2C2C2C" d="M198.507,131.907c-0.231-0.255-0.095-0.567-0.13-0.853C198.626,131.308,198.474,131.622,198.507,131.907z"
		/>
	<path fill="#282828" d="M197.54,131.466c0.234,0.254,0.094,0.566,0.13,0.85C197.423,132.064,197.572,131.751,197.54,131.466z"/>
	<path fill="#2C2C2C" d="M197.819,136.098c0.232,0.255,0.097,0.567,0.131,0.853C197.701,136.698,197.854,136.383,197.819,136.098z"
		/>
	<path fill="#2C2C2C" d="M198.793,138.355c0.001-0.234,0.002-0.467,0.004-0.701C199.002,137.889,199.006,138.123,198.793,138.355z"
		/>
	<path fill="#2C2C2C" d="M198.095,138.359c0.233-0.002,0.467-0.004,0.7-0.005C198.563,138.566,198.33,138.562,198.095,138.359z"/>
	<path fill="#0D0D0D" d="M185.166,119.533c-0.418,0.17-0.836,0.167-1.255,0.002c-0.093-0.139-0.186-0.278-0.279-0.417
		c-0.014-0.753-0.724-0.903-1.155-1.261c-0.743-0.616-1.568-1.132-2.359-1.69c-0.001-0.237,0.114-0.241,0.281-0.141
		c0.7,0.473,1.399,0.946,2.099,1.419c0.805,0.601,1.445,1.446,2.499,1.678C185.238,119.177,185.292,119.321,185.166,119.533z"/>
	<path fill="#7F7F7F" d="M203.011,101.563c0.293-0.207,0.64-0.233,0.977-0.289C203.725,101.584,203.368,101.574,203.011,101.563z"/>
	<path fill="#161616" d="M188.155,122.625c-0.079-0.366,0.091-0.617,0.43-0.666c0.334-0.048,0.509,0.256,0.564,0.519
		c0.158,0.744,0.26,1.5,0.385,2.251c0.25,1.767,0.476,3.537,0.761,5.297c0.104,0.645,0.15,1.303,0.172,1.938
		c0.051,1.442,0.266,2.878,0.181,4.326c-0.018,0.31,0.015,0.655-0.433,0.644c-0.447-0.012-0.405-0.365-0.408-0.669
		c-0.032-3.701-0.401-7.367-1.091-11.003C188.548,124.377,188.588,123.452,188.155,122.625z"/>
	<path fill="#0F0F0F" d="M199.64,117.012c0.094-0.047,0.189-0.093,0.283-0.14c1.073-0.565,1.634-1.617,2.364-2.504
		c0.507-0.616,0.965-1.273,1.639-1.737c-0.718,0.998-1.573,1.891-2.186,2.962c-0.388,0.322-0.685,0.723-0.976,1.128
		c0.187,0.348,0.016,0.55-0.284,0.7c-0.234,0.002-0.468,0.004-0.702,0.007C199.733,117.29,199.687,117.151,199.64,117.012z"/>
	<path fill="#1F1F1F" d="M206.66,114.482c0.497-0.308,1.051-0.287,1.602-0.274c0.173,0.003,0.332,0.035,0.342,0.252
		c0.013,0.264-0.172,0.292-0.371,0.295c-0.529,0.008-1.064-0.042-1.578,0.143C206.62,114.759,207.09,114.625,206.66,114.482z"/>
	<path fill="#131313" d="M200.481,117.422c0.138-0.216,0.335-0.408,0.284-0.7c0.048,0.044,0.096,0.087,0.145,0.131
		c0.63,0.236,1.294,0.336,1.949,0.467c-0.115,0.15-0.431,0.086-0.409,0.383C201.828,117.369,201.15,117.424,200.481,117.422z"/>
	<path fill="#1D1D1D" d="M206.648,120.674c0.172,0.131,0.189,0.284-0.014,0.372c-0.198,0.085-0.367,0.012-0.406-0.234
		C206.376,120.79,206.545,120.833,206.648,120.674z"/>
	<path fill="#1C1C1C" d="M180.398,116.026c-0.116,0.003-0.221,0.027-0.281,0.141c-0.635-0.093-1.073-0.638-1.707-0.74
		c-0.108-0.018-0.231-0.113-0.183-0.248c0.075-0.209,0.289-0.163,0.418-0.116C179.278,115.292,179.891,115.566,180.398,116.026z"/>
	<path fill="#FAFAFA" d="M211.596,98.494c0.046,0.039,0.092,0.077,0.137,0.116c0.343,0.469,0.224,0.916-0.206,1.194
		c-0.405,0.263-0.873,0.266-1.244-0.171c-0.442-0.521-0.076-0.896,0.211-1.282c0.326-0.437,0.622-0.224,0.912,0.059
		C211.453,98.456,211.532,98.467,211.596,98.494z"/>
	<path fill="#FAFAFA" d="M217.783,98.619c-0.114,0.754-0.765,1.068-1.368,0.646c-0.217-0.152-0.404-0.348-0.605-0.523
		c-0.01-0.711,0.585-1.051,1.291-0.699C217.36,98.173,217.654,98.311,217.783,98.619z"/>
	<path fill="#2D2627" d="M217.608,98.487c-0.376-0.284-0.708-0.654-1.243-0.625c-0.474,0.026-0.796,0.196-0.73,0.748
		c-0.27-0.318-0.105-0.565,0.16-0.748C216.357,97.477,217.301,97.812,217.608,98.487z"/>
	<path fill="#F9F9F9" d="M216.244,95.239c-0.09-0.048-0.181-0.097-0.271-0.145c-0.41-0.433-0.079-0.773,0.142-1.126
		c0.502-0.5,1-0.452,1.493,0.015c0.147,0.23,0.21,0.458-0.031,0.67c-0.104,0.047-0.127,0.126-0.088,0.229
		C217.162,95.309,216.779,95.538,216.244,95.239z"/>
	<path fill="#2C2627" d="M216.07,95.107c0.495,0.16,0.892-0.019,1.243-0.357C216.909,95.435,216.692,95.497,216.07,95.107z"/>
	<path fill="#2C2627" d="M215.94,93.835c-0.114,0.368-0.412,0.711-0.142,1.127C215.229,94.509,215.568,94.17,215.94,93.835z"/>
	<path fill="#2C2627" d="M217.401,94.521c0.067-0.221,0.132-0.441,0.031-0.67C217.7,94.086,217.729,94.312,217.401,94.521z"/>
	<path fill="#3E3E3E" d="M207.088,94.554c-0.003-0.1-0.005-0.199-0.008-0.298c-0.028-0.202,0.003-0.423-0.183-0.576
		c-0.031-0.202,0.021-0.383,0.143-0.546c0.056-0.037,0.117-0.049,0.183-0.035c0.196,0.151,0.18,0.402,0.282,0.597
		c0.13,0.186,0.009,0.366-0.012,0.548C207.357,94.347,207.223,94.45,207.088,94.554z"/>
	<path fill="#A5A5A5" d="M207.504,93.696c-0.172-0.148-0.253-0.342-0.285-0.561c0.167-0.304,0.174-0.704,0.539-0.887
		c0.309,0.506-0.305,0.936-0.117,1.432C207.595,93.683,207.549,93.688,207.504,93.696z"/>
	<path fill="#302626" d="M203.429,97.898c0.001-0.041,0.003-0.082,0.005-0.123c0.11-0.153,0.283-0.145,0.442-0.172
		c0.333-0.057,0.218-0.219,0.09-0.385c-0.021-0.103,0.025-0.175,0.104-0.232c0.148-0.105,0.351-0.077,0.492-0.2
		c0.739,0.024,0.174,0.359,0.136,0.569c-0.032,0.394-0.156,0.66-0.642,0.547C203.857,97.857,203.639,97.897,203.429,97.898z"/>
	<path fill="#505050" d="M202.166,94.561c0.314-0.454,0.821-0.355,1.263-0.442c0.61,0.592,0.445,1.39,0.562,2.113
		c0.174,0.283-0.048,0.364-0.235,0.463c-0.066,0.013-0.131,0.005-0.193-0.021c-0.232,0.048,0.19-0.367-0.176-0.243
		c-0.224,0.077-0.445-0.032-0.667-0.073c-0.151-0.043-0.294-0.103-0.408-0.215c-0.085-0.169-0.055-0.348-0.038-0.525
		C202.383,95.25,202.077,94.926,202.166,94.561z"/>
	<path fill="#2D2D2D" d="M206.94,93.697c0.571,0.056,0.273,0.327,0.139,0.558c-0.675,0.372-1.204-0.139-1.771-0.328
		c-0.291-0.097-0.181-0.421-0.057-0.657c0.115-0.372,0.12-0.74,0.014-1.12c-0.067-0.24-0.058-0.494,0.068-0.728
		c0.118-0.149,0.26-0.233,0.456-0.166c-0.052,0.723,0.43,1.294,0.563,1.964C206.407,93.554,206.784,93.49,206.94,93.697z"/>
	<path fill="#505050" d="M205.402,91.452c-0.05,0.395,0.006,0.786,0.145,1.146c0.138,0.36-0.006,0.532-0.296,0.672
		c-0.044,0.008-0.107,0-0.131,0.027c-0.499,0.568-1.13,0.676-1.835,0.541c-0.273-0.19-0.209-0.377,0.005-0.562
		c0.162-0.431,0.534-0.252,0.833-0.289c0.044-0.044,0.098-0.065,0.16-0.065c0.132-0.021,0.296,0.118,0.39-0.065
		c0.025-0.049-0.061-0.099-0.116-0.132c-0.156-0.184-0.161-0.534-0.012-0.53c0.589,0.015,0.437-0.535,0.678-0.768
		C205.286,91.406,205.346,91.413,205.402,91.452z"/>
	<path fill="#595959" d="M203.708,96.666c0.07-0.161,0.304-0.214,0.283-0.434c0.284,0.089,0.357,0.395,0.571,0.555
		c-0.039,0.29-0.247,0.276-0.458,0.256C203.898,96.995,203.663,96.977,203.708,96.666z"/>
	<path fill="#FDFDFD" d="M189.708,91.88c0.219,0.17,0.377,0.349,0.602,0.509c1.129,0.804,0.606,1.671-0.118,2.271
		c-0.084,0.07-0.204,0.122-0.312,0.134c-0.845,0.094-2.041-1.513-1.695-2.28c0.294-0.653,0.877-0.666,1.475-0.631L189.708,91.88z"/>
	<path fill="#FDFDFD" d="M194.778,86.924c0.192,0.151,0.432,0.302,0.623,0.453c0.141,0.187,0.396,0.19,0.489,0.483l0.085-0.022
		c0.11,0.942-0.043,1.801-0.851,2.463c-0.586,0.48-1.15,0.494-1.647-0.065c-0.484-0.544-0.812-1.204-0.474-1.907
		C193.35,87.607,193.743,86.827,194.778,86.924z"/>
	<path fill="#FCFCFC" d="M196.83,94.541c0.19,0.092,0.381,0.185,0.572,0.277c0.415,0.699,0.65,1.381,0.02,2.111
		c-0.26,0.301-0.45,0.421-0.805,0.164c-0.399-0.29-0.758-0.617-1.05-1.008c-0.545-0.73-0.332-1.262,0.574-1.448
		C196.367,94.589,196.6,94.572,196.83,94.541z"/>
	<path fill="#4C4C4C" d="M202.306,95.665c0.099,0.146,0.066,0.298,0.014,0.449c0.149,0.328-0.091,0.507-0.269,0.712
		c-0.629-0.119-1.178,0.122-1.72,0.389c-0.28-0.984-0.561-1.968-0.841-2.952c0.14-0.009,0.321,0.036,0.412-0.036
		c0.524-0.407,1.012-0.238,1.487,0.067c0.201,0.13,0.477,0.027,0.638,0.242C201.959,94.953,202.366,95.251,202.306,95.665z"/>
	<path fill="#7D7D7D" d="M200.331,97.215c0.463-0.553,1.02-0.728,1.696-0.425c0.047,0.122-0.029,0.223-0.051,0.332
		c0.016,0.169,0.174,0.19,0.28,0.266c0.05,0.034,0.083,0.08,0.099,0.138c-0.468,0.188-0.991,0.214-1.428,0.499
		c-0.234,0.152-0.389,0.078-0.447-0.201C200.438,97.619,200.381,97.417,200.331,97.215z"/>
	<path fill="#0C0B0B" d="M203.975,97.196c0.229,0,0.374,0.03,0.344,0.346c-0.027,0.281-0.188,0.201-0.33,0.211
		c-0.184,0.013-0.369,0.016-0.554,0.023c-0.144-0.043-0.324,0.083-0.43-0.08c-0.019-0.028,0.091-0.139,0.143-0.211
		c-0.046-0.066-0.042-0.128,0.016-0.186C203.42,97.159,203.688,97.109,203.975,97.196z"/>
	<path fill="#6E6E6E" d="M203.186,97.381c-0.01,0.036-0.023,0.07-0.038,0.104c-0.264,0.014-0.528,0.027-0.792,0.041
		c-0.024-0.019-0.049-0.037-0.074-0.055c-0.029-0.059-0.036-0.121-0.021-0.186c0.137-0.28,0.195-0.63,0.592-0.687
		c0.191,0.062,0.308,0.197,0.37,0.384C203.255,97.118,203.148,97.243,203.186,97.381z"/>
	<path fill="#282424" d="M195.812,87.836c-0.118-0.212-0.449-0.187-0.512-0.459C195.549,87.443,195.848,87.453,195.812,87.836z"/>
	<path fill="#656565" d="M204.279,92.999c-0.053-0.004-0.105-0.008-0.157-0.012c-0.273-0.852-0.124-1.062,0.741-1.031
		c0.062-0.207-0.122-0.334-0.166-0.505c0.309-0.496,0.566-1.05,1.246-1.142c0.087-0.067,0.182-0.06,0.279-0.031
		c0.147,0.371-0.222,0.424-0.372,0.615c-0.168,0.216-0.421,0.34-0.583,0.559c-0.116,0.341,0.016,0.852-0.637,0.819
		c-0.12-0.006-0.101,0.305,0.055,0.447C204.812,93.192,204.522,93.063,204.279,92.999z"/>
	<path fill="#7D7D7D" d="M206.242,90.334c-0.1-0.008-0.199-0.016-0.299-0.024c-0.079-0.451,0.35-0.103,0.443-0.282
		c0.292,0.239,0.684,0.397,0.692,0.863C206.563,91.06,206.429,90.658,206.242,90.334z"/>
	<path fill="#6A6A6A" d="M202.732,93.557c0.042-0.301-0.4-0.305-0.371-0.606c0.185-0.145,0.333,0.085,0.506,0.054
		c0.003,0.083,0.006,0.165,0.009,0.247C202.863,93.37,202.854,93.49,202.732,93.557z"/>
	<path fill="#555555" d="M206.242,90.334c0.324,0.117,0.433,0.557,0.836,0.557c0.66,0.235,0.697,0.783,0.68,1.357
		c-0.189,0.29-0.106,0.745-0.539,0.887c-0.046,0.002-0.092,0.003-0.138,0.005c-0.062,0.042-0.12,0.036-0.175-0.012
		c-0.063-0.144-0.026-0.256,0.102-0.342c0.414-0.03-0.03-0.312,0.122-0.419c0.02-0.061,0.052-0.115,0.091-0.165
		c0.379-0.448,0.083-0.624-0.308-0.76c-0.358-0.12-0.691-0.425-1.102-0.145c-0.136,0.051-0.272,0.103-0.409,0.155l-0.067,0
		l-0.067,0.001C205.339,90.859,205.983,90.764,206.242,90.334z"/>
	<path fill="#2D2D2D" d="M202.306,95.665c-0.153-0.274-0.302-0.55-0.46-0.821c-0.128-0.22-0.009-0.281,0.181-0.307
		c0.046,0.008,0.093,0.015,0.139,0.023C202.489,94.987,202.546,95.438,202.306,95.665z"/>
	<path fill="#393939" d="M206.945,93.135c0.045-0.001,0.09,0.001,0.135,0.005c0.023,0.203-0.045,0.383-0.14,0.558
		c-0.294-0.039-0.729,0.158-0.7-0.419C206.443,93.072,206.666,92.962,206.945,93.135z"/>
	<path fill="#878787" d="M203.186,97.381c-0.164-0.084-0.07-0.197-0.034-0.303c0.097-0.186,0.046-0.516,0.419-0.434
		c0.045,0.01,0.09,0.017,0.137,0.021c0.132,0.126,0.265,0.252,0.396,0.378c-0.043,0.051-0.087,0.102-0.13,0.153
		C203.743,97.391,203.459,97.365,203.186,97.381z"/>
	<path fill="#959595" d="M202.845,96.626c-0.181,0.241-0.362,0.481-0.543,0.722c-0.28,0.081-0.396-0.153-0.562-0.292
		c0.096-0.089,0.192-0.178,0.288-0.266c0.098-0.226,0.195-0.451,0.293-0.676c0.157-0.045,0.269,0.059,0.394,0.119
		C202.838,96.337,202.954,96.445,202.845,96.626z"/>
	<path fill="#5F5F5F" d="M202.845,96.627c-0.043-0.132-0.087-0.263-0.131-0.395c0.248-0.077,0.46,0.117,0.724,0.069
		c0.429-0.078,0.032,0.246,0.133,0.342c-0.227,0.061-0.245,0.323-0.419,0.434C203.05,96.928,202.947,96.777,202.845,96.627z"/>
	<path fill="#232323" d="M206.945,93.135c-0.235,0.047-0.47,0.095-0.705,0.143c-0.194-0.371-0.229-0.805-0.586-1.117
		c-0.348-0.304,0.217-0.55,0.157-0.864c0.386-0.733,0.748-0.049,1.12,0.02c0.023,0.308-0.252,0.248-0.479,0.391
		c0.281-0.014,0.504-0.367,0.703-0.052c0.123,0.194,0.25,0.404,0.066,0.637l0,0c-0.404,0.086-0.047,0.384-0.154,0.553
		C206.957,92.912,206.939,93.019,206.945,93.135z"/>
	<path fill="#3F3F3F" d="M204.279,92.999c0.191-0.012,0.406,0.009,0.406-0.28c0.195-0.137,0.237,0.028,0.264,0.153
		c0.026,0.121-0.033,0.227-0.171,0.246C204.6,93.141,204.412,93.18,204.279,92.999z"/>
	<path fill="#DFDFDF" d="M201.914,97.188c0.249-0.021,0.369,0.207,0.562,0.292c0.003,0.043-0.003,0.084-0.021,0.123
		C202.11,97.68,201.913,97.564,201.914,97.188z"/>
	<path fill="#3E3E3E" d="M207.221,92.292c-0.081-0.363-0.085-0.817-0.676-0.441c-0.128,0.081-0.449,0.066-0.468-0.145
		c-0.029-0.313,0.233-0.242,0.442-0.2c0.173,0.034,0.312-0.045,0.412-0.189c0.385-0.025,0.568,0.181,0.647,0.537
		C207.648,92.166,207.487,92.265,207.221,92.292z"/>
	<path fill="#3E3E3E" d="M207.067,92.845c-0.169-0.18-0.412-0.37-0.272-0.628c0.089-0.165,0.281,0.035,0.426,0.075
		C207.093,92.454,207.532,92.775,207.067,92.845z"/>
</g>
</svg>
