<?xml version="1.0" encoding="utf-8"?>
<!-- Generator: Adobe Illustrator 16.0.0, SVG Export Plug-In . SVG Version: 6.00 Build 0)  -->
<!DOCTYPE svg PUBLIC "-//W3C//DTD SVG 1.1//EN" "http://www.w3.org/Graphics/SVG/1.1/DTD/svg11.dtd">
<svg version="1.1" id="Layer_1" xmlns="http://www.w3.org/2000/svg" xmlns:xlink="http://www.w3.org/1999/xlink" x="0px" y="0px"
	 width="63px" height="250px" viewBox="0 0 63 250" enable-background="new 0 0 63 250" xml:space="preserve">
<g id="XMLID_79_">
	<g id="XMLID_80_">
		<g>
			<rect x="58.746" y="144.081" fill="#DFB28B" width="4.253" height="4.289"/>
			<rect x="58.746" y="139.793" fill="#DFB28B" width="4.253" height="4.288"/>
			<rect x="58.746" y="135.505" fill="#DFB28B" width="4.253" height="4.288"/>
			<rect x="58.746" y="131.217" fill="#575C6A" width="4.253" height="4.288"/>
			<rect x="58.746" y="126.929" fill="#575C6A" width="4.253" height="4.288"/>
			<rect x="58.746" y="122.641" fill="#575C6A" width="4.253" height="4.288"/>
			<rect x="58.746" y="118.781" fill="#575C6A" width="4.253" height="3.859"/>
			<rect x="58.746" y="114.493" fill="#575C6A" width="4.253" height="4.288"/>
			<rect x="58.746" y="110.205" fill="#575C6A" width="4.253" height="4.288"/>
			<rect x="58.746" y="105.917" fill="#575C6A" width="4.253" height="4.288"/>
			<rect x="58.746" y="101.629" fill="#575C6A" width="4.253" height="4.288"/>
			<rect x="58.746" y="97.34" fill="#575C6A" width="4.253" height="4.289"/>
			<rect x="58.746" y="93.052" fill="#575C6A" width="4.253" height="4.288"/>
			<rect x="58.746" y="89.193" fill="#575C6A" width="4.253" height="3.859"/>
			<rect x="58.746" y="84.905" fill="#575C6A" width="4.253" height="4.288"/>
			<rect x="58.746" y="80.617" fill="#575C6A" width="4.253" height="4.288"/>
			<rect x="58.746" y="76.329" fill="#575C6A" width="4.253" height="4.288"/>
			<rect x="58.746" y="72.041" fill="#575C6A" width="4.253" height="4.288"/>
			<rect x="58.746" y="67.752" fill="#575C6A" width="4.253" height="4.289"/>
			<rect x="54.911" y="245.711" width="3.835" height="4.288"/>
			<rect x="54.911" y="241.423" width="3.835" height="4.288"/>
			<rect x="54.911" y="144.081" fill="#DFB28B" width="3.835" height="4.289"/>
			<rect x="54.911" y="139.793" fill="#DFB28B" width="3.835" height="4.288"/>
			<rect x="54.911" y="135.505" fill="#DFB28B" width="3.835" height="4.288"/>
			<rect x="54.911" y="131.217" fill="#575C6A" width="3.835" height="4.288"/>
			<rect x="54.911" y="126.929" fill="#575C6A" width="3.835" height="4.288"/>
			<rect x="54.911" y="122.641" fill="#575C6A" width="3.835" height="4.288"/>
			<rect x="54.911" y="118.781" fill="#575C6A" width="3.835" height="3.859"/>
			<rect x="54.911" y="114.493" fill="#575C6A" width="3.835" height="4.288"/>
			<rect x="54.911" y="110.205" fill="#575C6A" width="3.835" height="4.288"/>
			<rect x="54.911" y="105.917" fill="#575C6A" width="3.835" height="4.288"/>
			<rect x="54.911" y="101.629" fill="#575C6A" width="3.835" height="4.288"/>
			<rect x="54.911" y="97.34" fill="#575C6A" width="3.835" height="4.289"/>
			<rect x="54.911" y="93.052" fill="#575C6A" width="3.835" height="4.288"/>
			<rect x="54.911" y="89.193" fill="#575C6A" width="3.835" height="3.859"/>
			<rect x="54.911" y="84.905" fill="#575C6A" width="3.835" height="4.288"/>
			<rect x="54.911" y="80.617" fill="#575C6A" width="3.835" height="4.288"/>
			<rect x="54.911" y="76.329" fill="#575C6A" width="3.835" height="4.288"/>
			<rect x="54.911" y="72.041" fill="#575C6A" width="3.835" height="4.288"/>
			<rect x="54.911" y="67.752" fill="#575C6A" width="3.835" height="4.289"/>
			<rect x="54.911" y="63.464" fill="#575C6A" width="3.835" height="4.288"/>
			<rect x="50.658" y="245.711" width="4.253" height="4.288"/>
			<rect x="50.658" y="241.423" width="4.253" height="4.288"/>
			<rect x="50.658" y="156.946" fill="#575C6A" width="4.253" height="4.288"/>
			<rect x="50.658" y="152.658" fill="#575C6A" width="4.253" height="4.288"/>
			<rect x="50.658" y="148.37" fill="#434751" width="4.253" height="4.288"/>
			<rect x="50.658" y="144.081" fill="#DFB28B" width="4.253" height="4.289"/>
			<rect x="50.658" y="139.793" fill="#DFB28B" width="4.253" height="4.288"/>
			<rect x="50.658" y="135.505" fill="#DFB28B" width="4.253" height="4.288"/>
			<rect x="50.658" y="131.217" fill="#575C6A" width="4.253" height="4.288"/>
			<rect x="50.658" y="126.929" fill="#575C6A" width="4.253" height="4.288"/>
			<rect x="50.658" y="122.641" fill="#575C6A" width="4.253" height="4.288"/>
			<rect x="50.658" y="118.781" fill="#575C6A" width="4.253" height="3.859"/>
			<rect x="50.658" y="114.493" fill="#575C6A" width="4.253" height="4.288"/>
			<rect x="50.658" y="110.205" fill="#575C6A" width="4.253" height="4.288"/>
			<rect x="50.658" y="105.917" fill="#575C6A" width="4.253" height="4.288"/>
			<rect x="50.658" y="101.629" fill="#575C6A" width="4.253" height="4.288"/>
			<rect x="50.658" y="97.34" fill="#575C6A" width="4.253" height="4.289"/>
			<rect x="50.658" y="93.052" fill="#575C6A" width="4.253" height="4.288"/>
			<rect x="50.658" y="89.193" fill="#575C6A" width="4.253" height="3.859"/>
			<rect x="50.658" y="84.905" fill="#575C6A" width="4.253" height="4.288"/>
			<rect x="50.658" y="80.617" fill="#575C6A" width="4.253" height="4.288"/>
			<rect x="50.658" y="76.329" fill="#575C6A" width="4.253" height="4.288"/>
			<rect x="50.658" y="72.041" fill="#575C6A" width="4.253" height="4.288"/>
			<rect x="50.658" y="67.752" fill="#575C6A" width="4.253" height="4.289"/>
			<rect x="50.658" y="63.464" fill="#575C6A" width="4.253" height="4.288"/>
			<rect x="50.658" y="21.44" fill="#DFB28B" width="4.253" height="3.859"/>
			<rect x="50.658" y="17.152" fill="#DFB28B" width="4.253" height="4.288"/>
			<rect x="46.397" y="245.711" width="4.261" height="4.288"/>
			<rect x="46.397" y="241.423" width="4.261" height="4.288"/>
			<rect x="46.397" y="237.135" width="4.261" height="4.288"/>
			<rect x="46.397" y="232.847" fill="#575C6A" width="4.261" height="4.288"/>
			<rect x="46.397" y="228.987" fill="#575C6A" width="4.261" height="3.859"/>
			<rect x="46.397" y="224.699" fill="#575C6A" width="4.261" height="4.288"/>
			<rect x="46.397" y="220.411" fill="#575C6A" width="4.261" height="4.288"/>
			<rect x="46.397" y="216.123" fill="#575C6A" width="4.261" height="4.288"/>
			<rect x="46.397" y="211.835" fill="#575C6A" width="4.261" height="4.288"/>
			<rect x="46.397" y="207.546" fill="#575C6A" width="4.261" height="4.289"/>
			<rect x="46.397" y="203.258" fill="#575C6A" width="4.261" height="4.288"/>
			<rect x="46.397" y="198.97" fill="#575C6A" width="4.261" height="4.288"/>
			<rect x="46.397" y="194.682" fill="#575C6A" width="4.261" height="4.288"/>
			<rect x="46.397" y="190.822" fill="#575C6A" width="4.261" height="3.859"/>
			<rect x="46.397" y="186.534" fill="#575C6A" width="4.261" height="4.288"/>
			<rect x="46.397" y="182.246" fill="#575C6A" width="4.261" height="4.288"/>
			<rect x="46.397" y="177.958" fill="#575C6A" width="4.261" height="4.288"/>
			<rect x="46.397" y="173.67" fill="#575C6A" width="4.261" height="4.288"/>
			<rect x="46.397" y="169.382" fill="#575C6A" width="4.261" height="4.288"/>
			<rect x="46.397" y="165.094" fill="#575C6A" width="4.261" height="4.288"/>
			<rect x="46.397" y="161.234" fill="#575C6A" width="4.261" height="3.859"/>
			<rect x="46.397" y="156.946" fill="#434751" width="4.261" height="4.288"/>
			<rect x="46.397" y="152.658" fill="#575C6A" width="4.261" height="4.288"/>
			<rect x="46.397" y="148.37" fill="#434751" width="4.261" height="4.288"/>
			<rect x="46.397" y="144.081" fill="#434751" width="4.261" height="4.289"/>
			<rect x="46.397" y="139.793" fill="#434751" width="4.261" height="4.288"/>
			<rect x="46.397" y="135.505" fill="#434751" width="4.261" height="4.288"/>
			<rect x="46.397" y="131.217" fill="#434751" width="4.261" height="4.288"/>
			<rect x="46.397" y="126.929" fill="#434751" width="4.261" height="4.288"/>
			<rect x="46.397" y="122.641" fill="#434751" width="4.261" height="4.288"/>
			<rect x="46.397" y="118.781" fill="#434751" width="4.261" height="3.859"/>
			<rect x="46.397" y="114.493" fill="#434751" width="4.261" height="4.288"/>
			<rect x="46.397" y="110.205" fill="#434751" width="4.261" height="4.288"/>
			<rect x="46.397" y="105.917" fill="#434751" width="4.261" height="4.288"/>
			<rect x="46.397" y="101.629" fill="#434751" width="4.261" height="4.288"/>
			<rect x="46.397" y="97.34" fill="#434751" width="4.261" height="4.289"/>
			<rect x="46.397" y="93.052" fill="#434751" width="4.261" height="4.288"/>
			<rect x="46.397" y="89.193" fill="#434751" width="4.261" height="3.859"/>
			<rect x="46.397" y="84.905" fill="#434751" width="4.261" height="4.288"/>
			<rect x="46.397" y="80.617" fill="#434751" width="4.261" height="4.288"/>
			<rect x="46.397" y="76.329" fill="#434751" width="4.261" height="4.288"/>
			<rect x="46.397" y="72.041" fill="#575C6A" width="4.261" height="4.288"/>
			<rect x="46.397" y="67.752" fill="#575C6A" width="4.261" height="4.289"/>
			<rect x="46.397" y="63.464" fill="#575C6A" width="4.261" height="4.288"/>
			<rect x="46.397" y="59.176" fill="#575C6A" width="4.261" height="4.288"/>
			<rect x="46.397" y="38.164" fill="#CF9E76" width="4.261" height="4.288"/>
			<rect x="46.397" y="33.875" fill="#DFB28B" width="4.261" height="4.289"/>
			<rect x="46.397" y="29.587" fill="#DFB28B" width="4.261" height="4.288"/>
			<rect x="46.397" y="25.299" fill="#DFB28B" width="4.261" height="4.288"/>
			<rect x="46.397" y="21.44" fill="#DFB28B" width="4.261" height="3.859"/>
			<rect x="46.397" y="17.152" fill="#DFB28B" width="4.261" height="4.288"/>
			<rect x="46.397" y="12.864" fill="#332A22" width="4.261" height="4.288"/>
			<rect x="46.397" y="8.576" fill="#E2E2E2" width="4.261" height="4.288"/>
			<rect x="46.397" y="4.288" fill="#E2E2E2" width="4.261" height="4.288"/>
			<rect x="42.141" y="245.711" width="4.257" height="4.288"/>
			<rect x="42.141" y="241.423" width="4.257" height="4.288"/>
			<rect x="42.141" y="237.135" width="4.257" height="4.288"/>
			<rect x="42.141" y="232.847" fill="#575C6A" width="4.257" height="4.288"/>
			<rect x="42.141" y="228.987" fill="#575C6A" width="4.257" height="3.859"/>
			<rect x="42.141" y="224.699" fill="#575C6A" width="4.257" height="4.288"/>
			<rect x="42.141" y="220.411" fill="#575C6A" width="4.257" height="4.288"/>
			<rect x="42.141" y="216.123" fill="#575C6A" width="4.257" height="4.288"/>
			<rect x="42.141" y="211.835" fill="#575C6A" width="4.257" height="4.288"/>
			<rect x="42.141" y="207.546" fill="#575C6A" width="4.257" height="4.289"/>
			<rect x="42.141" y="203.258" fill="#575C6A" width="4.257" height="4.288"/>
			<rect x="42.141" y="198.97" fill="#575C6A" width="4.257" height="4.288"/>
			<rect x="42.141" y="194.682" fill="#575C6A" width="4.257" height="4.288"/>
			<rect x="42.141" y="190.822" fill="#575C6A" width="4.257" height="3.859"/>
			<rect x="42.141" y="186.534" fill="#575C6A" width="4.257" height="4.288"/>
			<rect x="42.141" y="182.246" fill="#575C6A" width="4.257" height="4.288"/>
			<rect x="42.141" y="177.958" fill="#575C6A" width="4.257" height="4.288"/>
			<rect x="42.141" y="173.67" fill="#575C6A" width="4.257" height="4.288"/>
			<rect x="42.141" y="169.382" fill="#575C6A" width="4.257" height="4.288"/>
			<rect x="42.141" y="165.094" fill="#575C6A" width="4.257" height="4.288"/>
			<rect x="42.141" y="161.234" fill="#575C6A" width="4.257" height="3.859"/>
			<rect x="42.141" y="156.946" fill="#575C6A" width="4.257" height="4.288"/>
			<rect x="42.141" y="152.658" fill="#434751" width="4.257" height="4.288"/>
			<rect x="42.141" y="148.37" fill="#575C6A" width="4.257" height="4.288"/>
			<rect x="42.141" y="144.081" fill="#575C6A" width="4.257" height="4.289"/>
			<rect x="42.141" y="139.793" fill="#575C6A" width="4.257" height="4.288"/>
			<rect x="42.141" y="135.505" fill="#575C6A" width="4.257" height="4.288"/>
			<rect x="42.141" y="131.217" fill="#575C6A" width="4.257" height="4.288"/>
			<rect x="42.141" y="126.929" fill="#575C6A" width="4.257" height="4.288"/>
			<rect x="42.141" y="122.641" fill="#575C6A" width="4.257" height="4.288"/>
			<rect x="42.141" y="118.781" fill="#575C6A" width="4.257" height="3.859"/>
			<rect x="42.141" y="114.493" fill="#575C6A" width="4.257" height="4.288"/>
			<rect x="42.141" y="110.205" fill="#575C6A" width="4.257" height="4.288"/>
			<rect x="42.141" y="105.917" fill="#575C6A" width="4.257" height="4.288"/>
			<rect x="42.141" y="101.629" fill="#575C6A" width="4.257" height="4.288"/>
			<rect x="42.141" y="97.34" fill="#575C6A" width="4.257" height="4.289"/>
			<rect x="42.141" y="93.052" fill="#575C6A" width="4.257" height="4.288"/>
			<rect x="42.141" y="89.193" fill="#575C6A" width="4.257" height="3.859"/>
			<rect x="42.141" y="84.905" fill="#575C6A" width="4.257" height="4.288"/>
			<rect x="42.141" y="80.617" fill="#575C6A" width="4.257" height="4.288"/>
			<rect x="42.141" y="76.329" fill="#575C6A" width="4.257" height="4.288"/>
			<rect x="42.141" y="72.041" fill="#575C6A" width="4.257" height="4.288"/>
			<rect x="42.141" y="67.752" fill="#575C6A" width="4.257" height="4.289"/>
			<rect x="42.141" y="63.464" fill="#575C6A" width="4.257" height="4.288"/>
			<rect x="42.141" y="59.176" fill="#575C6A" width="4.257" height="4.288"/>
			<rect x="42.141" y="42.452" fill="#CF9E76" width="4.257" height="4.288"/>
			<rect x="42.141" y="38.164" fill="#DFB28B" width="4.257" height="4.288"/>
			<rect x="42.141" y="33.875" fill="#DFB28B" width="4.257" height="4.289"/>
			<rect x="42.141" y="29.587" fill="#DFB28B" width="4.257" height="4.288"/>
			<rect x="42.141" y="25.299" fill="#332A22" width="4.257" height="4.288"/>
			<rect x="42.141" y="21.44" fill="#332A22" width="4.257" height="3.859"/>
			<rect x="42.141" y="17.152" fill="#332A22" width="4.257" height="4.288"/>
			<rect x="42.141" y="12.864" fill="#332A22" width="4.257" height="4.288"/>
			<rect x="42.141" y="8.576" fill="#DFB28B" width="4.257" height="4.288"/>
			<rect x="42.141" y="4.288" fill="#DFB28B" width="4.257" height="4.288"/>
			<rect x="42.141" y="-0.001" fill="#DFB28B" width="4.257" height="4.289"/>
			<rect x="37.884" y="245.711" width="4.257" height="4.288"/>
			<rect x="37.884" y="241.423" width="4.257" height="4.288"/>
			<rect x="37.884" y="237.135" width="4.257" height="4.288"/>
			<rect x="37.884" y="232.847" fill="#575C6A" width="4.257" height="4.288"/>
			<rect x="37.884" y="228.987" fill="#575C6A" width="4.257" height="3.859"/>
			<rect x="37.884" y="224.699" fill="#575C6A" width="4.257" height="4.288"/>
			<rect x="37.884" y="220.411" fill="#575C6A" width="4.257" height="4.288"/>
			<rect x="37.884" y="216.123" fill="#575C6A" width="4.257" height="4.288"/>
			<rect x="37.884" y="211.835" fill="#575C6A" width="4.257" height="4.288"/>
			<rect x="37.884" y="207.546" fill="#575C6A" width="4.257" height="4.289"/>
			<rect x="37.884" y="203.258" fill="#575C6A" width="4.257" height="4.288"/>
			<rect x="37.884" y="198.97" fill="#575C6A" width="4.257" height="4.288"/>
			<rect x="37.884" y="194.682" fill="#575C6A" width="4.257" height="4.288"/>
			<rect x="37.884" y="190.822" fill="#575C6A" width="4.257" height="3.859"/>
			<rect x="37.884" y="186.534" fill="#575C6A" width="4.257" height="4.288"/>
			<rect x="37.884" y="182.246" fill="#575C6A" width="4.257" height="4.288"/>
			<rect x="37.884" y="177.958" fill="#575C6A" width="4.257" height="4.288"/>
			<rect x="37.884" y="173.67" fill="#575C6A" width="4.257" height="4.288"/>
			<rect x="37.884" y="169.382" fill="#575C6A" width="4.257" height="4.288"/>
			<rect x="37.884" y="165.094" fill="#575C6A" width="4.257" height="4.288"/>
			<rect x="37.884" y="161.234" fill="#575C6A" width="4.257" height="3.859"/>
			<rect x="37.884" y="156.946" fill="#575C6A" width="4.257" height="4.288"/>
			<rect x="37.884" y="152.658" fill="#575C6A" width="4.257" height="4.288"/>
			<rect x="37.884" y="148.37" fill="#434751" width="4.257" height="4.288"/>
			<rect x="37.884" y="144.081" fill="#575C6A" width="4.257" height="4.289"/>
			<rect x="37.884" y="139.793" fill="#575C6A" width="4.257" height="4.288"/>
			<rect x="37.884" y="135.505" fill="#575C6A" width="4.257" height="4.288"/>
			<rect x="37.884" y="131.217" fill="#575C6A" width="4.257" height="4.288"/>
			<rect x="37.884" y="126.929" fill="#575C6A" width="4.257" height="4.288"/>
			<rect x="37.884" y="122.641" fill="#575C6A" width="4.257" height="4.288"/>
			<rect x="37.884" y="118.781" fill="#575C6A" width="4.257" height="3.859"/>
			<rect x="37.884" y="114.493" fill="#575C6A" width="4.257" height="4.288"/>
			<rect x="37.884" y="110.205" fill="#575C6A" width="4.257" height="4.288"/>
			<rect x="37.884" y="105.917" fill="#575C6A" width="4.257" height="4.288"/>
			<rect x="37.884" y="101.629" fill="#575C6A" width="4.257" height="4.288"/>
			<rect x="37.884" y="97.34" fill="#575C6A" width="4.257" height="4.289"/>
			<rect x="37.884" y="93.052" fill="#575C6A" width="4.257" height="4.288"/>
			<rect x="37.884" y="89.193" fill="#575C6A" width="4.257" height="3.859"/>
			<rect x="37.884" y="84.905" fill="#575C6A" width="4.257" height="4.288"/>
			<rect x="37.884" y="80.617" fill="#575C6A" width="4.257" height="4.288"/>
			<rect x="37.884" y="76.329" fill="#575C6A" width="4.257" height="4.288"/>
			<rect x="37.884" y="72.041" fill="#EDECEB" width="4.257" height="4.288"/>
			<rect x="37.884" y="67.752" fill="#EDECEB" width="4.257" height="4.289"/>
			<rect x="37.884" y="63.464" fill="#EDECEB" width="4.257" height="4.288"/>
			<rect x="37.884" y="59.176" fill="#EDECEB" width="4.257" height="4.288"/>
			<rect x="37.884" y="46.74" fill="#CF9E76" width="4.257" height="4.288"/>
			<rect x="37.884" y="42.452" fill="#DFB28B" width="4.257" height="4.288"/>
			<rect x="37.884" y="38.164" fill="#DFB28B" width="4.257" height="4.288"/>
			<rect x="37.884" y="33.875" fill="#DFB28B" width="4.257" height="4.289"/>
			<rect x="37.884" y="29.587" fill="#DFB28B" width="4.257" height="4.288"/>
			<rect x="37.884" y="25.299" fill="#332A22" width="4.257" height="4.288"/>
			<rect x="37.884" y="21.44" fill="#8C684A" width="4.257" height="3.859"/>
			<rect x="37.884" y="17.152" fill="#FFFBDB" width="4.257" height="4.288"/>
			<rect x="37.884" y="12.864" fill="#332A22" width="4.257" height="4.288"/>
			<rect x="37.884" y="8.576" fill="#DFB28B" width="4.257" height="4.288"/>
			<rect x="37.884" y="4.288" fill="#DFB28B" width="4.257" height="4.288"/>
			<rect x="37.884" y="-0.001" fill="#DFB28B" width="4.257" height="4.289"/>
			<rect x="33.627" y="245.711" width="4.257" height="4.288"/>
			<rect x="33.627" y="241.423" width="4.257" height="4.288"/>
			<rect x="33.627" y="237.135" width="4.257" height="4.288"/>
			<rect x="33.627" y="232.847" fill="#575C6A" width="4.257" height="4.288"/>
			<rect x="33.627" y="228.987" fill="#575C6A" width="4.257" height="3.859"/>
			<rect x="33.627" y="224.699" fill="#575C6A" width="4.257" height="4.288"/>
			<rect x="33.627" y="220.411" fill="#575C6A" width="4.257" height="4.288"/>
			<rect x="33.627" y="216.123" fill="#575C6A" width="4.257" height="4.288"/>
			<rect x="33.627" y="211.835" fill="#575C6A" width="4.257" height="4.288"/>
			<rect x="33.627" y="207.546" fill="#575C6A" width="4.257" height="4.289"/>
			<rect x="33.627" y="203.258" fill="#575C6A" width="4.257" height="4.288"/>
			<rect x="33.627" y="198.97" fill="#575C6A" width="4.257" height="4.288"/>
			<rect x="33.627" y="194.682" fill="#575C6A" width="4.257" height="4.288"/>
			<rect x="33.627" y="190.822" fill="#575C6A" width="4.257" height="3.859"/>
			<rect x="33.627" y="186.534" fill="#575C6A" width="4.257" height="4.288"/>
			<rect x="33.627" y="182.246" fill="#575C6A" width="4.257" height="4.288"/>
			<rect x="33.627" y="177.958" fill="#575C6A" width="4.257" height="4.288"/>
			<rect x="33.627" y="173.67" fill="#575C6A" width="4.257" height="4.288"/>
			<rect x="33.627" y="169.382" fill="#575C6A" width="4.257" height="4.288"/>
			<rect x="33.627" y="165.094" fill="#575C6A" width="4.257" height="4.288"/>
			<rect x="33.627" y="161.234" fill="#575C6A" width="4.257" height="3.859"/>
			<rect x="33.627" y="156.946" fill="#575C6A" width="4.257" height="4.288"/>
			<rect x="33.627" y="152.658" fill="#575C6A" width="4.257" height="4.288"/>
			<rect x="33.627" y="148.37" fill="#434751" width="4.257" height="4.288"/>
			<rect x="33.627" y="144.081" fill="#434751" width="4.257" height="4.289"/>
			<rect x="33.627" y="139.793" fill="#575C6A" width="4.257" height="4.288"/>
			<rect x="33.627" y="135.505" fill="#575C6A" width="4.257" height="4.288"/>
			<rect x="33.627" y="131.217" fill="#575C6A" width="4.257" height="4.288"/>
			<rect x="33.627" y="126.929" fill="#575C6A" width="4.257" height="4.288"/>
			<rect x="33.627" y="122.641" fill="#575C6A" width="4.257" height="4.288"/>
			<rect x="33.627" y="118.781" fill="#575C6A" width="4.257" height="3.859"/>
			<rect x="33.627" y="114.493" fill="#575C6A" width="4.257" height="4.288"/>
			<rect x="33.627" y="110.205" fill="#575C6A" width="4.257" height="4.288"/>
			<rect x="33.627" y="105.917" fill="#575C6A" width="4.257" height="4.288"/>
			<rect x="33.627" y="101.629" fill="#575C6A" width="4.257" height="4.288"/>
			<rect x="33.627" y="97.34" fill="#575C6A" width="4.257" height="4.289"/>
			<rect x="33.627" y="93.052" fill="#575C6A" width="4.257" height="4.288"/>
			<rect x="33.627" y="89.193" fill="#575C6A" width="4.257" height="3.859"/>
			<rect x="33.627" y="84.905" fill="#575C6A" width="4.257" height="4.288"/>
			<rect x="33.627" y="80.617" fill="#575C6A" width="4.257" height="4.288"/>
			<rect x="33.627" y="76.329" fill="#EDECEB" width="4.257" height="4.288"/>
			<rect x="33.627" y="72.041" fill="#EDECEB" width="4.257" height="4.288"/>
			<rect x="33.627" y="67.752" fill="#77202B" width="4.257" height="4.289"/>
			<rect x="33.627" y="63.464" fill="#77202B" width="4.257" height="4.288"/>
			<rect x="33.627" y="59.176" fill="#EDECEB" width="4.257" height="4.288"/>
			<rect x="33.627" y="54.888" fill="#DFB28B" width="4.257" height="4.288"/>
			<rect x="33.627" y="51.028" fill="#CF9E76" width="4.257" height="3.859"/>
			<rect x="33.627" y="46.74" fill="#DFB28B" width="4.257" height="4.288"/>
			<rect x="33.627" y="42.452" fill="#DFB28B" width="4.257" height="4.288"/>
			<rect x="33.627" y="38.164" fill="#D38781" width="4.257" height="4.288"/>
			<rect x="33.627" y="33.875" fill="#DFB28B" width="4.257" height="4.289"/>
			<rect x="33.627" y="29.587" fill="#DFB28B" width="4.257" height="4.288"/>
			<rect x="33.627" y="25.299" fill="#332A22" width="4.257" height="4.288"/>
			<rect x="33.627" y="21.44" fill="#332A22" width="4.257" height="3.859"/>
			<rect x="33.627" y="17.152" fill="#332A22" width="4.257" height="4.288"/>
			<rect x="33.627" y="12.864" fill="#332A22" width="4.257" height="4.288"/>
			<rect x="33.627" y="8.576" fill="#DFB28B" width="4.257" height="4.288"/>
			<rect x="33.627" y="4.288" fill="#DFB28B" width="4.257" height="4.288"/>
			<rect x="33.627" y="-0.001" fill="#DFB28B" width="4.257" height="4.289"/>
			<rect x="29.37" y="152.658" fill="#434751" width="4.257" height="4.288"/>
			<rect x="29.37" y="148.37" fill="#575C6A" width="4.257" height="4.288"/>
			<rect x="29.37" y="144.081" fill="#575C6A" width="4.257" height="4.289"/>
			<rect x="29.37" y="139.793" fill="#434751" width="4.257" height="4.288"/>
			<rect x="29.37" y="135.505" fill="#434751" width="4.257" height="4.288"/>
			<rect x="29.37" y="131.217" fill="#575C6A" width="4.257" height="4.288"/>
			<rect x="29.37" y="126.929" fill="#434751" width="4.257" height="4.288"/>
			<rect x="29.37" y="122.641" fill="#575C6A" width="4.257" height="4.288"/>
			<rect x="29.37" y="118.781" fill="#575C6A" width="4.257" height="3.859"/>
			<rect x="29.37" y="114.493" fill="#434751" width="4.257" height="4.288"/>
			<rect x="29.37" y="110.205" fill="#575C6A" width="4.257" height="4.288"/>
			<rect x="29.37" y="105.917" fill="#575C6A" width="4.257" height="4.288"/>
			<rect x="29.37" y="101.629" fill="#434751" width="4.257" height="4.288"/>
			<rect x="29.37" y="97.34" fill="#575C6A" width="4.257" height="4.289"/>
			<rect x="29.37" y="93.052" fill="#575C6A" width="4.257" height="4.288"/>
			<rect x="29.37" y="89.193" fill="#434751" width="4.257" height="3.859"/>
			<rect x="29.37" y="84.905" fill="#575C6A" width="4.257" height="4.288"/>
			<rect x="29.37" y="80.617" fill="#575C6A" width="4.257" height="4.288"/>
			<rect x="29.37" y="76.329" fill="#77202B" width="4.257" height="4.288"/>
			<rect x="29.37" y="72.041" fill="#77202B" width="4.257" height="4.288"/>
			<rect x="29.37" y="67.752" fill="#77202B" width="4.257" height="4.289"/>
			<rect x="29.37" y="63.464" fill="#77202B" width="4.257" height="4.288"/>
			<rect x="29.37" y="59.176" fill="#DFB28B" width="4.257" height="4.288"/>
			<rect x="29.37" y="54.888" fill="#DFB28B" width="4.257" height="4.288"/>
			<rect x="29.37" y="51.028" fill="#CF9E76" width="4.257" height="3.859"/>
			<rect x="29.37" y="46.74" fill="#DFB28B" width="4.257" height="4.288"/>
			<rect x="29.37" y="42.452" fill="#DFB28B" width="4.257" height="4.288"/>
			<rect x="29.37" y="38.164" fill="#D38781" width="4.257" height="4.288"/>
			<rect x="29.37" y="33.875" fill="#DFB28B" width="4.257" height="4.289"/>
			<rect x="29.37" y="29.587" fill="#DFB28B" width="4.257" height="4.288"/>
			<rect x="29.37" y="25.299" fill="#DFB28B" width="4.257" height="4.288"/>
			<rect x="29.37" y="21.44" fill="#DFB28B" width="4.257" height="3.859"/>
			<rect x="29.37" y="17.152" fill="#332A22" width="4.257" height="4.288"/>
			<rect x="29.37" y="12.864" fill="#DFB28B" width="4.257" height="4.288"/>
			<rect x="29.37" y="8.576" fill="#DFB28B" width="4.257" height="4.288"/>
			<rect x="29.37" y="4.288" fill="#DFB28B" width="4.257" height="4.288"/>
			<rect x="29.37" y="-0.001" fill="#DFB28B" width="4.257" height="4.289"/>
			<rect x="25.539" y="245.711" width="3.831" height="4.288"/>
			<rect x="25.539" y="241.423" width="3.831" height="4.288"/>
			<rect x="25.539" y="237.135" width="3.831" height="4.288"/>
			<rect x="25.539" y="232.847" fill="#575C6A" width="3.831" height="4.288"/>
			<rect x="25.539" y="228.987" fill="#575C6A" width="3.831" height="3.859"/>
			<rect x="25.539" y="224.699" fill="#575C6A" width="3.831" height="4.288"/>
			<rect x="25.539" y="220.411" fill="#575C6A" width="3.831" height="4.288"/>
			<rect x="25.539" y="216.123" fill="#575C6A" width="3.831" height="4.288"/>
			<rect x="25.539" y="211.835" fill="#575C6A" width="3.831" height="4.288"/>
			<rect x="25.539" y="207.546" fill="#575C6A" width="3.831" height="4.289"/>
			<rect x="25.539" y="203.258" fill="#575C6A" width="3.831" height="4.288"/>
			<rect x="25.539" y="198.97" fill="#575C6A" width="3.831" height="4.288"/>
			<rect x="25.539" y="194.682" fill="#575C6A" width="3.831" height="4.288"/>
			<rect x="25.539" y="190.822" fill="#575C6A" width="3.831" height="3.859"/>
			<rect x="25.539" y="186.534" fill="#575C6A" width="3.831" height="4.288"/>
			<rect x="25.539" y="182.246" fill="#575C6A" width="3.831" height="4.288"/>
			<rect x="25.539" y="177.958" fill="#575C6A" width="3.831" height="4.288"/>
			<rect x="25.539" y="173.67" fill="#575C6A" width="3.831" height="4.288"/>
			<rect x="25.539" y="169.382" fill="#575C6A" width="3.831" height="4.288"/>
			<rect x="25.539" y="165.094" fill="#575C6A" width="3.831" height="4.288"/>
			<rect x="25.539" y="161.234" fill="#575C6A" width="3.831" height="3.859"/>
			<rect x="25.539" y="156.946" fill="#575C6A" width="3.831" height="4.288"/>
			<rect x="25.539" y="152.658" fill="#575C6A" width="3.831" height="4.288"/>
			<rect x="25.539" y="148.37" fill="#434751" width="3.831" height="4.288"/>
			<rect x="25.539" y="144.081" fill="#434751" width="3.831" height="4.289"/>
			<rect x="25.539" y="139.793" fill="#575C6A" width="3.831" height="4.288"/>
			<rect x="25.539" y="135.505" fill="#575C6A" width="3.831" height="4.288"/>
			<rect x="25.539" y="131.217" fill="#575C6A" width="3.831" height="4.288"/>
			<rect x="25.539" y="126.929" fill="#575C6A" width="3.831" height="4.288"/>
			<rect x="25.539" y="122.641" fill="#575C6A" width="3.831" height="4.288"/>
			<rect x="25.539" y="118.781" fill="#575C6A" width="3.831" height="3.859"/>
			<rect x="25.539" y="114.493" fill="#575C6A" width="3.831" height="4.288"/>
			<rect x="25.539" y="110.205" fill="#575C6A" width="3.831" height="4.288"/>
			<rect x="25.539" y="105.917" fill="#575C6A" width="3.831" height="4.288"/>
			<rect x="25.539" y="101.629" fill="#575C6A" width="3.831" height="4.288"/>
			<rect x="25.539" y="97.34" fill="#575C6A" width="3.831" height="4.289"/>
			<rect x="25.539" y="93.052" fill="#575C6A" width="3.831" height="4.288"/>
			<rect x="25.539" y="89.193" fill="#575C6A" width="3.831" height="3.859"/>
			<rect x="25.539" y="84.905" fill="#575C6A" width="3.831" height="4.288"/>
			<rect x="25.539" y="80.617" fill="#575C6A" width="3.831" height="4.288"/>
			<rect x="25.539" y="76.329" fill="#EDECEB" width="3.831" height="4.288"/>
			<rect x="25.539" y="72.041" fill="#EDECEB" width="3.831" height="4.288"/>
			<rect x="25.539" y="67.752" fill="#77202B" width="3.831" height="4.289"/>
			<rect x="25.539" y="63.464" fill="#77202B" width="3.831" height="4.288"/>
			<rect x="25.539" y="59.176" fill="#EDECEB" width="3.831" height="4.288"/>
			<rect x="25.539" y="54.888" fill="#DFB28B" width="3.831" height="4.288"/>
			<rect x="25.539" y="51.028" fill="#CF9E76" width="3.831" height="3.859"/>
			<rect x="25.539" y="46.74" fill="#DFB28B" width="3.831" height="4.288"/>
			<rect x="25.539" y="42.452" fill="#DFB28B" width="3.831" height="4.288"/>
			<rect x="25.539" y="38.164" fill="#D38781" width="3.831" height="4.288"/>
			<rect x="25.539" y="33.875" fill="#DFB28B" width="3.831" height="4.289"/>
			<rect x="25.539" y="29.587" fill="#DFB28B" width="3.831" height="4.288"/>
			<rect x="25.539" y="25.299" fill="#332A22" width="3.831" height="4.288"/>
			<rect x="25.539" y="21.44" fill="#332A22" width="3.831" height="3.859"/>
			<rect x="25.539" y="17.152" fill="#332A22" width="3.831" height="4.288"/>
			<rect x="25.539" y="12.864" fill="#332A22" width="3.831" height="4.288"/>
			<rect x="25.539" y="8.576" fill="#DFB28B" width="3.831" height="4.288"/>
			<rect x="25.539" y="4.288" fill="#DFB28B" width="3.831" height="4.288"/>
			<rect x="25.539" y="-0.001" fill="#DFB28B" width="3.831" height="4.289"/>
			<rect x="21.283" y="245.711" width="4.256" height="4.288"/>
			<rect x="21.283" y="241.423" width="4.256" height="4.288"/>
			<rect x="21.283" y="237.135" width="4.256" height="4.288"/>
			<rect x="21.283" y="232.847" fill="#575C6A" width="4.256" height="4.288"/>
			<rect x="21.283" y="228.987" fill="#575C6A" width="4.256" height="3.859"/>
			<rect x="21.283" y="224.699" fill="#575C6A" width="4.256" height="4.288"/>
			<rect x="21.283" y="220.411" fill="#575C6A" width="4.256" height="4.288"/>
			<rect x="21.283" y="216.123" fill="#575C6A" width="4.256" height="4.288"/>
			<rect x="21.283" y="211.835" fill="#575C6A" width="4.256" height="4.288"/>
			<rect x="21.283" y="207.546" fill="#575C6A" width="4.256" height="4.289"/>
			<rect x="21.283" y="203.258" fill="#575C6A" width="4.256" height="4.288"/>
			<rect x="21.283" y="198.97" fill="#575C6A" width="4.256" height="4.288"/>
			<rect x="21.283" y="194.682" fill="#575C6A" width="4.256" height="4.288"/>
			<rect x="21.283" y="190.822" fill="#575C6A" width="4.256" height="3.859"/>
			<rect x="21.283" y="186.534" fill="#575C6A" width="4.256" height="4.288"/>
			<rect x="21.283" y="182.246" fill="#575C6A" width="4.256" height="4.288"/>
			<rect x="21.283" y="177.958" fill="#575C6A" width="4.256" height="4.288"/>
			<rect x="21.283" y="173.67" fill="#575C6A" width="4.256" height="4.288"/>
			<rect x="21.283" y="169.382" fill="#575C6A" width="4.256" height="4.288"/>
			<rect x="21.283" y="165.094" fill="#575C6A" width="4.256" height="4.288"/>
			<rect x="21.283" y="161.234" fill="#575C6A" width="4.256" height="3.859"/>
			<rect x="21.283" y="156.946" fill="#575C6A" width="4.256" height="4.288"/>
			<rect x="21.283" y="152.658" fill="#575C6A" width="4.256" height="4.288"/>
			<rect x="21.283" y="148.37" fill="#434751" width="4.256" height="4.288"/>
			<rect x="21.283" y="144.081" fill="#575C6A" width="4.256" height="4.289"/>
			<rect x="21.283" y="139.793" fill="#575C6A" width="4.256" height="4.288"/>
			<rect x="21.283" y="135.505" fill="#575C6A" width="4.256" height="4.288"/>
			<rect x="21.283" y="131.217" fill="#575C6A" width="4.256" height="4.288"/>
			<rect x="21.283" y="126.929" fill="#575C6A" width="4.256" height="4.288"/>
			<rect x="21.283" y="122.641" fill="#575C6A" width="4.256" height="4.288"/>
			<rect x="21.283" y="118.781" fill="#575C6A" width="4.256" height="3.859"/>
			<rect x="21.283" y="114.493" fill="#575C6A" width="4.256" height="4.288"/>
			<rect x="21.283" y="110.205" fill="#575C6A" width="4.256" height="4.288"/>
			<rect x="21.283" y="105.917" fill="#575C6A" width="4.256" height="4.288"/>
			<rect x="21.283" y="101.629" fill="#575C6A" width="4.256" height="4.288"/>
			<rect x="21.283" y="97.34" fill="#575C6A" width="4.256" height="4.289"/>
			<rect x="21.283" y="93.052" fill="#575C6A" width="4.256" height="4.288"/>
			<rect x="21.283" y="89.193" fill="#575C6A" width="4.256" height="3.859"/>
			<rect x="21.283" y="84.905" fill="#575C6A" width="4.256" height="4.288"/>
			<rect x="21.283" y="80.617" fill="#575C6A" width="4.256" height="4.288"/>
			<rect x="21.283" y="76.329" fill="#575C6A" width="4.256" height="4.288"/>
			<rect x="21.283" y="72.041" fill="#EDECEB" width="4.256" height="4.288"/>
			<rect x="21.283" y="67.752" fill="#EDECEB" width="4.256" height="4.289"/>
			<rect x="21.283" y="63.464" fill="#EDECEB" width="4.256" height="4.288"/>
			<rect x="21.283" y="59.176" fill="#EDECEB" width="4.256" height="4.288"/>
			<rect x="21.283" y="46.74" fill="#CF9E76" width="4.256" height="4.288"/>
			<rect x="21.283" y="42.452" fill="#DFB28B" width="4.256" height="4.288"/>
			<rect x="21.283" y="38.164" fill="#DFB28B" width="4.256" height="4.288"/>
			<rect x="21.283" y="33.875" fill="#DFB28B" width="4.256" height="4.289"/>
			<rect x="21.283" y="29.587" fill="#DFB28B" width="4.256" height="4.288"/>
			<rect x="21.283" y="25.299" fill="#332A22" width="4.256" height="4.288"/>
			<rect x="21.283" y="21.44" fill="#8C684A" width="4.256" height="3.859"/>
			<rect x="21.283" y="17.152" fill="#FFFBDB" width="4.256" height="4.288"/>
			<rect x="21.283" y="12.864" fill="#332A22" width="4.256" height="4.288"/>
			<rect x="21.283" y="8.576" fill="#DFB28B" width="4.256" height="4.288"/>
			<rect x="21.283" y="4.288" fill="#DFB28B" width="4.256" height="4.288"/>
			<rect x="21.283" y="-0.001" fill="#DFB28B" width="4.256" height="4.289"/>
			<rect x="17.026" y="245.711" width="4.257" height="4.288"/>
			<rect x="17.026" y="241.423" width="4.257" height="4.288"/>
			<rect x="17.026" y="237.135" width="4.257" height="4.288"/>
			<rect x="17.026" y="232.847" fill="#575C6A" width="4.257" height="4.288"/>
			<rect x="17.026" y="228.987" fill="#575C6A" width="4.257" height="3.859"/>
			<rect x="17.026" y="224.699" fill="#575C6A" width="4.257" height="4.288"/>
			<rect x="17.026" y="220.411" fill="#575C6A" width="4.257" height="4.288"/>
			<rect x="17.026" y="216.123" fill="#575C6A" width="4.257" height="4.288"/>
			<rect x="17.026" y="211.835" fill="#575C6A" width="4.257" height="4.288"/>
			<rect x="17.026" y="207.546" fill="#575C6A" width="4.257" height="4.289"/>
			<rect x="17.026" y="203.258" fill="#575C6A" width="4.257" height="4.288"/>
			<rect x="17.026" y="198.97" fill="#575C6A" width="4.257" height="4.288"/>
			<rect x="17.026" y="194.682" fill="#575C6A" width="4.257" height="4.288"/>
			<rect x="17.026" y="190.822" fill="#575C6A" width="4.257" height="3.859"/>
			<rect x="17.026" y="186.534" fill="#575C6A" width="4.257" height="4.288"/>
			<rect x="17.026" y="182.246" fill="#575C6A" width="4.257" height="4.288"/>
			<rect x="17.026" y="177.958" fill="#575C6A" width="4.257" height="4.288"/>
			<rect x="17.026" y="173.67" fill="#575C6A" width="4.257" height="4.288"/>
			<rect x="17.026" y="169.382" fill="#575C6A" width="4.257" height="4.288"/>
			<rect x="17.026" y="165.094" fill="#575C6A" width="4.257" height="4.288"/>
			<rect x="17.026" y="161.234" fill="#575C6A" width="4.257" height="3.859"/>
			<rect x="17.026" y="156.946" fill="#575C6A" width="4.257" height="4.288"/>
			<rect x="17.026" y="152.658" fill="#434751" width="4.257" height="4.288"/>
			<rect x="17.026" y="148.37" fill="#575C6A" width="4.257" height="4.288"/>
			<rect x="17.026" y="144.081" fill="#575C6A" width="4.257" height="4.289"/>
			<rect x="17.026" y="139.793" fill="#575C6A" width="4.257" height="4.288"/>
			<rect x="17.026" y="135.505" fill="#575C6A" width="4.257" height="4.288"/>
			<rect x="17.026" y="131.217" fill="#575C6A" width="4.257" height="4.288"/>
			<rect x="17.026" y="126.929" fill="#575C6A" width="4.257" height="4.288"/>
			<rect x="17.026" y="122.641" fill="#575C6A" width="4.257" height="4.288"/>
			<rect x="17.026" y="118.781" fill="#575C6A" width="4.257" height="3.859"/>
			<rect x="17.026" y="114.493" fill="#575C6A" width="4.257" height="4.288"/>
			<rect x="17.026" y="110.205" fill="#575C6A" width="4.257" height="4.288"/>
			<rect x="17.026" y="105.917" fill="#575C6A" width="4.257" height="4.288"/>
			<rect x="17.026" y="101.629" fill="#575C6A" width="4.257" height="4.288"/>
			<rect x="17.026" y="97.34" fill="#575C6A" width="4.257" height="4.289"/>
			<rect x="17.026" y="93.052" fill="#575C6A" width="4.257" height="4.288"/>
			<rect x="17.026" y="89.193" fill="#575C6A" width="4.257" height="3.859"/>
			<rect x="17.026" y="84.905" fill="#575C6A" width="4.257" height="4.288"/>
			<rect x="17.026" y="80.617" fill="#575C6A" width="4.257" height="4.288"/>
			<rect x="17.026" y="76.329" fill="#575C6A" width="4.257" height="4.288"/>
			<rect x="17.026" y="72.041" fill="#575C6A" width="4.257" height="4.288"/>
			<rect x="17.026" y="67.752" fill="#575C6A" width="4.257" height="4.289"/>
			<rect x="17.026" y="63.464" fill="#575C6A" width="4.257" height="4.288"/>
			<rect x="17.026" y="59.176" fill="#575C6A" width="4.257" height="4.288"/>
			<rect x="17.026" y="42.452" fill="#CF9E76" width="4.257" height="4.288"/>
			<rect x="17.026" y="38.164" fill="#DFB28B" width="4.257" height="4.288"/>
			<rect x="17.026" y="33.875" fill="#DFB28B" width="4.257" height="4.289"/>
			<rect x="17.026" y="29.587" fill="#DFB28B" width="4.257" height="4.288"/>
			<rect x="17.026" y="25.299" fill="#332A22" width="4.257" height="4.288"/>
			<rect x="17.026" y="21.44" fill="#332A22" width="4.257" height="3.859"/>
			<rect x="17.026" y="17.152" fill="#332A22" width="4.257" height="4.288"/>
			<rect x="17.026" y="12.864" fill="#332A22" width="4.257" height="4.288"/>
			<rect x="17.026" y="8.576" fill="#DFB28B" width="4.257" height="4.288"/>
			<rect x="17.026" y="4.288" fill="#DFB28B" width="4.257" height="4.288"/>
			<rect x="17.026" y="-0.001" fill="#DFB28B" width="4.257" height="4.289"/>
			<rect x="12.769" y="245.711" width="4.257" height="4.288"/>
			<rect x="12.769" y="241.423" width="4.257" height="4.288"/>
			<rect x="12.769" y="237.135" width="4.257" height="4.288"/>
			<rect x="12.769" y="232.847" fill="#575C6A" width="4.257" height="4.288"/>
			<rect x="12.769" y="228.987" fill="#575C6A" width="4.257" height="3.859"/>
			<rect x="12.769" y="224.699" fill="#575C6A" width="4.257" height="4.288"/>
			<rect x="12.769" y="220.411" fill="#575C6A" width="4.257" height="4.288"/>
			<rect x="12.769" y="216.123" fill="#575C6A" width="4.257" height="4.288"/>
			<rect x="12.769" y="211.835" fill="#575C6A" width="4.257" height="4.288"/>
			<rect x="12.769" y="207.546" fill="#575C6A" width="4.257" height="4.289"/>
			<rect x="12.769" y="203.258" fill="#575C6A" width="4.257" height="4.288"/>
			<rect x="12.769" y="198.97" fill="#575C6A" width="4.257" height="4.288"/>
			<rect x="12.769" y="194.682" fill="#575C6A" width="4.257" height="4.288"/>
			<rect x="12.769" y="190.822" fill="#575C6A" width="4.257" height="3.859"/>
			<rect x="12.769" y="186.534" fill="#575C6A" width="4.257" height="4.288"/>
			<rect x="12.769" y="182.246" fill="#575C6A" width="4.257" height="4.288"/>
			<rect x="12.769" y="177.958" fill="#575C6A" width="4.257" height="4.288"/>
			<rect x="12.769" y="173.67" fill="#575C6A" width="4.257" height="4.288"/>
			<rect x="12.769" y="169.382" fill="#575C6A" width="4.257" height="4.288"/>
			<rect x="12.769" y="165.094" fill="#575C6A" width="4.257" height="4.288"/>
			<rect x="12.769" y="161.234" fill="#575C6A" width="4.257" height="3.859"/>
			<rect x="12.769" y="156.946" fill="#434751" width="4.257" height="4.288"/>
			<rect x="12.769" y="152.658" fill="#575C6A" width="4.257" height="4.288"/>
			<rect x="12.769" y="148.37" fill="#434751" width="4.257" height="4.288"/>
			<rect x="12.769" y="144.081" fill="#434751" width="4.257" height="4.289"/>
			<rect x="12.769" y="139.793" fill="#434751" width="4.257" height="4.288"/>
			<rect x="12.769" y="135.505" fill="#434751" width="4.257" height="4.288"/>
			<rect x="12.769" y="131.217" fill="#434751" width="4.257" height="4.288"/>
			<rect x="12.769" y="126.929" fill="#434751" width="4.257" height="4.288"/>
			<rect x="12.769" y="122.641" fill="#434751" width="4.257" height="4.288"/>
			<rect x="12.769" y="118.781" fill="#434751" width="4.257" height="3.859"/>
			<rect x="12.769" y="114.493" fill="#434751" width="4.257" height="4.288"/>
			<rect x="12.769" y="110.205" fill="#434751" width="4.257" height="4.288"/>
			<rect x="12.769" y="105.917" fill="#434751" width="4.257" height="4.288"/>
			<rect x="12.769" y="101.629" fill="#434751" width="4.257" height="4.288"/>
			<rect x="12.769" y="97.34" fill="#434751" width="4.257" height="4.289"/>
			<rect x="12.769" y="93.052" fill="#434751" width="4.257" height="4.288"/>
			<rect x="12.769" y="89.193" fill="#434751" width="4.257" height="3.859"/>
			<rect x="12.769" y="84.905" fill="#434751" width="4.257" height="4.288"/>
			<rect x="12.769" y="80.617" fill="#434751" width="4.257" height="4.288"/>
			<rect x="12.769" y="76.329" fill="#434751" width="4.257" height="4.288"/>
			<rect x="12.769" y="72.041" fill="#575C6A" width="4.257" height="4.288"/>
			<rect x="12.769" y="67.752" fill="#575C6A" width="4.257" height="4.289"/>
			<rect x="12.769" y="63.464" fill="#575C6A" width="4.257" height="4.288"/>
			<rect x="12.769" y="59.176" fill="#575C6A" width="4.257" height="4.288"/>
			<rect x="12.769" y="38.164" fill="#CF9E76" width="4.257" height="4.288"/>
			<rect x="12.769" y="33.875" fill="#DFB28B" width="4.257" height="4.289"/>
			<rect x="12.769" y="29.587" fill="#DFB28B" width="4.257" height="4.288"/>
			<rect x="12.769" y="25.299" fill="#DFB28B" width="4.257" height="4.288"/>
			<rect x="12.769" y="21.44" fill="#DFB28B" width="4.257" height="3.859"/>
			<rect x="12.769" y="17.152" fill="#DFB28B" width="4.257" height="4.288"/>
			<rect x="12.769" y="12.864" fill="#332A22" width="4.257" height="4.288"/>
			<rect x="12.769" y="8.576" fill="#E2E2E2" width="4.257" height="4.288"/>
			<rect x="12.769" y="4.288" fill="#E2E2E2" width="4.257" height="4.288"/>
			<rect x="8.512" y="245.711" width="4.257" height="4.288"/>
			<rect x="8.512" y="241.423" width="4.257" height="4.288"/>
			<rect x="8.512" y="156.946" fill="#434751" width="4.257" height="4.288"/>
			<rect x="8.512" y="152.658" fill="#575C6A" width="4.257" height="4.288"/>
			<rect x="8.512" y="148.37" fill="#434751" width="4.257" height="4.288"/>
			<rect x="8.512" y="144.081" fill="#DFB28B" width="4.257" height="4.289"/>
			<rect x="8.512" y="139.793" fill="#DFB28B" width="4.257" height="4.288"/>
			<rect x="8.512" y="135.505" fill="#DFB28B" width="4.257" height="4.288"/>
			<rect x="8.512" y="131.217" fill="#575C6A" width="4.257" height="4.288"/>
			<rect x="8.512" y="126.929" fill="#575C6A" width="4.257" height="4.288"/>
			<rect x="8.512" y="122.641" fill="#575C6A" width="4.257" height="4.288"/>
			<rect x="8.512" y="118.781" fill="#575C6A" width="4.257" height="3.859"/>
			<rect x="8.512" y="114.493" fill="#575C6A" width="4.257" height="4.288"/>
			<rect x="8.512" y="110.205" fill="#575C6A" width="4.257" height="4.288"/>
			<rect x="8.512" y="105.917" fill="#575C6A" width="4.257" height="4.288"/>
			<rect x="8.512" y="101.629" fill="#575C6A" width="4.257" height="4.288"/>
			<rect x="8.512" y="97.34" fill="#575C6A" width="4.257" height="4.289"/>
			<rect x="8.512" y="93.052" fill="#575C6A" width="4.257" height="4.288"/>
			<rect x="8.512" y="89.193" fill="#575C6A" width="4.257" height="3.859"/>
			<rect x="8.512" y="84.905" fill="#575C6A" width="4.257" height="4.288"/>
			<rect x="8.512" y="80.617" fill="#575C6A" width="4.257" height="4.288"/>
			<rect x="8.512" y="76.329" fill="#575C6A" width="4.257" height="4.288"/>
			<rect x="8.512" y="72.041" fill="#575C6A" width="4.257" height="4.288"/>
			<rect x="8.512" y="67.752" fill="#575C6A" width="4.257" height="4.289"/>
			<rect x="8.512" y="63.464" fill="#575C6A" width="4.257" height="4.288"/>
			<rect x="8.512" y="21.44" fill="#DFB28B" width="4.257" height="3.859"/>
			<rect x="8.512" y="17.152" fill="#DFB28B" width="4.257" height="4.288"/>
			<rect x="4.255" y="245.711" width="4.257" height="4.288"/>
			<rect x="4.255" y="241.423" width="4.257" height="4.288"/>
			<rect x="4.255" y="144.081" fill="#DFB28B" width="4.257" height="4.289"/>
			<rect x="4.255" y="139.793" fill="#DFB28B" width="4.257" height="4.288"/>
			<rect x="4.255" y="135.505" fill="#DFB28B" width="4.257" height="4.288"/>
			<rect x="4.255" y="131.217" fill="#575C6A" width="4.257" height="4.288"/>
			<rect x="4.255" y="126.929" fill="#575C6A" width="4.257" height="4.288"/>
			<rect x="4.255" y="122.641" fill="#575C6A" width="4.257" height="4.288"/>
			<rect x="4.255" y="118.781" fill="#575C6A" width="4.257" height="3.859"/>
			<rect x="4.255" y="114.493" fill="#575C6A" width="4.257" height="4.288"/>
			<rect x="4.255" y="110.205" fill="#575C6A" width="4.257" height="4.288"/>
			<rect x="4.255" y="105.917" fill="#575C6A" width="4.257" height="4.288"/>
			<rect x="4.255" y="101.629" fill="#575C6A" width="4.257" height="4.288"/>
			<rect x="4.255" y="97.34" fill="#575C6A" width="4.257" height="4.289"/>
			<rect x="4.255" y="93.052" fill="#575C6A" width="4.257" height="4.288"/>
			<rect x="4.255" y="89.193" fill="#575C6A" width="4.257" height="3.859"/>
			<rect x="4.255" y="84.905" fill="#575C6A" width="4.257" height="4.288"/>
			<rect x="4.255" y="80.617" fill="#575C6A" width="4.257" height="4.288"/>
			<rect x="4.255" y="76.329" fill="#575C6A" width="4.257" height="4.288"/>
			<rect x="4.255" y="72.041" fill="#575C6A" width="4.257" height="4.288"/>
			<rect x="4.255" y="67.752" fill="#575C6A" width="4.257" height="4.289"/>
			<rect x="4.255" y="63.464" fill="#575C6A" width="4.257" height="4.288"/>
			<rect x="-0.001" y="144.081" fill="#DFB28B" width="4.257" height="4.289"/>
			<rect x="-0.001" y="139.793" fill="#DFB28B" width="4.257" height="4.288"/>
			<rect x="-0.001" y="135.505" fill="#DFB28B" width="4.257" height="4.288"/>
			<rect x="-0.001" y="131.217" fill="#575C6A" width="4.257" height="4.288"/>
			<rect x="-0.001" y="126.929" fill="#575C6A" width="4.257" height="4.288"/>
			<rect x="-0.001" y="122.641" fill="#575C6A" width="4.257" height="4.288"/>
			<rect x="-0.001" y="118.781" fill="#575C6A" width="4.257" height="3.859"/>
			<rect x="-0.001" y="114.493" fill="#575C6A" width="4.257" height="4.288"/>
			<rect x="-0.001" y="110.205" fill="#575C6A" width="4.257" height="4.288"/>
			<rect x="-0.001" y="105.917" fill="#575C6A" width="4.257" height="4.288"/>
			<rect x="-0.001" y="101.629" fill="#575C6A" width="4.257" height="4.288"/>
			<rect x="-0.001" y="97.34" fill="#575C6A" width="4.257" height="4.289"/>
			<rect x="-0.001" y="93.052" fill="#575C6A" width="4.257" height="4.288"/>
			<rect x="-0.001" y="89.193" fill="#575C6A" width="4.257" height="3.859"/>
			<rect x="-0.001" y="84.905" fill="#575C6A" width="4.257" height="4.288"/>
			<rect x="-0.001" y="80.617" fill="#575C6A" width="4.257" height="4.288"/>
			<rect x="-0.001" y="76.329" fill="#575C6A" width="4.257" height="4.288"/>
			<rect x="-0.001" y="72.041" fill="#575C6A" width="4.257" height="4.288"/>
			<rect x="-0.001" y="67.752" fill="#575C6A" width="4.257" height="4.289"/>
		</g>
		<g>
		</g>
	</g>
</g>
</svg>
